<?xml version="1.0" encoding="UTF-8"?>
<svg version="1.1" xmlns="http://www.w3.org/2000/svg" width="512" height="512">
<path d="M0 0 C1.05985107 0.36206543 1.05985107 0.36206543 2.14111328 0.73144531 C25.37640941 8.90673207 47.10743559 26.61232856 57.97802734 49.015625 C63.97414153 62.23179625 68.19219955 75.28145039 68.0625 89.9375 C68.05798828 90.62134766 68.05347656 91.30519531 68.04882812 92.00976562 C68.0371956 93.67321604 68.01926694 95.3366205 68 97 C68.64400253 96.99333817 69.28800507 96.98667633 69.95152283 96.97981262 C76.68418358 96.91318785 83.41674991 96.86808703 90.1496582 96.83520508 C92.65881152 96.82016471 95.16793874 96.79972728 97.67700195 96.77368164 C101.29384825 96.73708986 104.91034542 96.72022552 108.52734375 96.70703125 C110.19663185 96.68380547 110.19663185 96.68380547 111.89964294 96.66011047 C124.01143333 96.6575224 131.89797058 100.02446984 140.53515625 108.5078125 C149.1705153 118.17307676 150.11953198 130.18112383 151.07571411 142.56808472 C151.16726111 143.69210068 151.25880811 144.81611664 151.35312927 145.97419369 C151.65664073 149.71917774 151.95163078 153.46478201 152.24658203 157.21044922 C152.46248939 159.90546675 152.68016022 162.60034127 152.89770508 165.29522705 C153.42540785 171.84676473 153.94651567 178.39881063 154.46501864 184.95108221 C154.88748573 190.28922803 155.3119346 195.62721266 155.73775864 200.96509171 C156.94873345 216.14758241 158.15490437 231.33044301 159.35458662 246.51383029 C159.45146126 247.73989201 159.45146126 247.73989201 159.55029297 248.99072266 C159.61495549 249.80911386 159.67961801 250.62750505 159.74624 251.47069599 C160.79091849 264.68887045 161.84682623 277.90611992 162.90798999 291.12298022 C164.00129161 304.74167745 165.08621595 318.36102015 166.16261566 331.98106396 C166.76554185 339.60804563 167.37168826 347.23473661 167.98682022 354.86074448 C168.5113113 361.36393792 169.02782161 367.86770939 169.5347618 374.37229536 C169.79256791 377.67751253 170.05481539 380.98219679 170.32465744 384.28646469 C171.40959204 397.59970376 172.18161811 410.84808492 172.23361206 424.20950317 C172.2444088 425.93248715 172.2444088 425.93248715 172.25542367 427.69027889 C172.20077814 439.97217736 169.6974472 451.04801669 164 462 C163.40638672 463.2684375 163.40638672 463.2684375 162.80078125 464.5625 C158.81257364 472.6074804 153.26421699 478.71143446 147 485 C146.22914063 485.80566406 145.45828125 486.61132812 144.6640625 487.44140625 C130.19754685 501.63636615 110.26999093 508.15084534 90.36367798 508.14717102 C89.29178266 508.15084771 88.21988734 508.1545244 87.11551034 508.1583125 C83.52312833 508.16932685 79.93077526 508.17318941 76.33837891 508.17700195 C73.7625011 508.18326841 71.18662421 508.18991537 68.61074829 508.19691467 C60.88007136 508.21664019 53.14939321 508.22674118 45.41869742 508.23564246 C41.77169845 508.24003255 38.12470093 508.24539755 34.47770309 508.25063133 C22.34254826 508.26764114 10.20739431 508.28213254 -1.92777061 508.28938007 C-5.07408016 508.29128975 -8.2203897 508.29321011 -11.36669922 508.29516602 C-12.14863154 508.29564976 -12.93056387 508.2961335 -13.73619111 508.2966319 C-26.38650483 508.30492189 -39.03672368 508.33024244 -51.68699603 508.36274669 C-64.69596787 508.39589804 -77.70489165 508.41383618 -90.71390593 508.41702431 C-98.00932618 508.41918216 -105.30460815 508.42782361 -112.59998703 508.45348549 C-119.47008276 508.47759655 -126.33992691 508.48096774 -133.2100563 508.47072411 C-135.72216366 508.47023051 -138.23428355 508.47649845 -140.74635315 508.49028015 C-157.16518252 508.57526686 -172.66596905 508.21297918 -187.4375 500.125 C-188.10305908 499.77332764 -188.76861816 499.42165527 -189.4543457 499.05932617 C-191.31623548 498.06163343 -193.15984761 497.03708937 -195 496 C-195.84046875 495.53980469 -196.6809375 495.07960938 -197.546875 494.60546875 C-208.62749216 487.91261422 -217.87205911 477.25988037 -224 466 C-224.68642578 464.78763672 -224.68642578 464.78763672 -225.38671875 463.55078125 C-238.94670114 438.26324652 -234.25668348 407.95946067 -232.02807617 380.4921875 C-231.81408045 377.76880997 -231.60336206 375.04518085 -231.3924408 372.32156372 C-230.88327567 365.77269026 -230.36254532 359.22478968 -229.83732697 352.67718613 C-229.41049193 347.35313641 -228.9881358 342.02874795 -228.56881142 336.70410156 C-228.50861964 335.93980953 -228.44842786 335.1755175 -228.38641209 334.3880651 C-228.26408447 332.83453168 -228.1417677 331.28099741 -228.01946167 329.72746229 C-226.87953427 315.25434199 -225.72637296 300.78230052 -224.56839118 286.31061506 C-223.57737049 273.9217324 -222.59750149 261.53200865 -221.62573242 249.14160156 C-220.49210897 234.68758227 -219.35187846 220.23410977 -218.2009905 205.78145409 C-218.07819836 204.23925203 -217.95541345 202.6970494 -217.83263588 201.15484619 C-217.77224759 200.39637174 -217.7118593 199.63789728 -217.64964106 198.85643876 C-217.22656424 193.53704639 -216.80812462 188.21730115 -216.39150047 182.8973999 C-215.88391291 176.41776309 -215.36895986 169.93876058 -214.84476873 163.46044505 C-214.57805222 160.161985 -214.31560472 156.86333967 -214.05987549 153.56399918 C-213.78135352 149.97803248 -213.4902075 146.39330026 -213.19596863 142.80859375 C-213.11910629 141.78096357 -213.04224395 140.7533334 -212.96305245 139.69456291 C-211.69111202 124.68202622 -208.19489866 113.45051086 -197.0859375 103.04296875 C-188.66159954 97.46584375 -180.23425272 96.42395454 -170.33203125 96.609375 C-169.17120529 96.61503479 -168.01037933 96.62069458 -166.81437683 96.62652588 C-163.14664539 96.64872018 -159.47993069 96.69888598 -155.8125 96.75 C-153.30925901 96.77008684 -150.80600254 96.78833375 -148.30273438 96.8046875 C-142.20148244 96.84852926 -136.10081389 96.91526981 -130 97 C-130.02066528 95.50847412 -130.02066528 95.50847412 -130.04174805 93.98681641 C-130.183008 79.60961639 -127.80540314 67.284436 -122 54 C-121.64292969 53.16210938 -121.28585938 52.32421875 -120.91796875 51.4609375 C-113.26541356 34.85786723 -100.35195201 20.74309133 -85 11 C-84.38253906 10.56429688 -83.76507813 10.12859375 -83.12890625 9.6796875 C-60.03827953 -6.11132174 -26.01373213 -9.06118073 0 0 Z M-82.6875 49.75 C-94.92525949 63.89045001 -99 78.4803706 -99 97 C-54.12 97 -9.24 97 37 97 C37 76.0723688 31.26856291 60.57994776 16.69140625 45.6328125 C1.23879642 30.94665212 -15.85482518 26.53310585 -36.53515625 26.79296875 C-54.84431145 27.29905529 -70.30533181 36.72162438 -82.6875 49.75 Z M-180 130 C-180.90880398 132.72641195 -181.23884277 134.79217969 -181.46662998 137.62811565 C-181.54525573 138.5841886 -181.62388148 139.54026155 -181.70488983 140.5253064 C-181.78757785 141.57798968 -181.87026588 142.63067296 -181.95545959 143.71525574 C-182.04615217 144.83202944 -182.13684475 145.94880314 -182.23028558 147.09941846 C-182.53484593 150.86181234 -182.83394565 154.62462043 -183.13305664 158.38745117 C-183.34965135 161.07800716 -183.56653362 163.76853864 -183.78373718 166.45904541 C-184.37457555 173.78842902 -184.95974365 181.11825881 -185.54383397 188.44818282 C-185.90927211 193.03370256 -186.27594549 197.61912299 -186.64288139 202.20452309 C-187.66024962 214.92009837 -188.67640858 227.63576857 -189.68746281 240.35184765 C-189.75221513 241.16623311 -189.81696746 241.98061857 -189.88368198 242.81968238 C-190.01493355 244.4704909 -190.14618416 246.12129949 -190.27743382 247.77210816 C-190.34258232 248.59150436 -190.40773082 249.41090056 -190.47485352 250.25512695 C-190.54008154 251.07553529 -190.60530956 251.89594363 -190.67251419 252.74121282 C-191.72571972 265.98500676 -192.7877881 279.22807313 -193.85385448 292.47083744 C-194.95041707 306.0939073 -196.03975915 319.71753896 -197.12194532 333.34175855 C-197.72880433 340.979849 -198.33857818 348.61767983 -198.95625496 356.25490379 C-199.48317825 362.77055003 -200.00334037 369.28669494 -200.5152486 375.8035387 C-200.77581417 379.11826619 -201.04026469 382.43254942 -201.31119919 385.74645424 C-202.33296265 398.26621647 -203.17613713 410.73335774 -203.22288513 423.29951477 C-203.2284521 424.27510949 -203.23401907 425.25070422 -203.23975474 426.25586241 C-203.15220916 440.74463819 -197.68738701 452.15954147 -187.8125 462.75 C-174.22775089 475.64164967 -158.73572683 478.16477546 -140.78033447 478.13371277 C-139.80161558 478.13597833 -138.82289669 478.13824388 -137.81451964 478.14057809 C-134.5615555 478.14686712 -131.30863358 478.14609203 -128.05566406 478.14526367 C-125.7124018 478.14825834 -123.36914003 478.15166158 -121.02587891 478.15544128 C-114.67862341 478.16425402 -108.3313814 478.16661825 -101.98412037 478.16725707 C-97.34627734 478.16808879 -92.70843729 478.17099115 -88.07059531 478.17409355 C-75.58695108 478.18238874 -63.10331397 478.186137 -50.61966708 478.18542381 C-49.91212031 478.18538386 -49.20457353 478.1853439 -48.47558594 478.18530273 C-47.76716575 478.18526185 -47.05874557 478.18522097 -46.32885811 478.18517885 C-34.85438667 478.18477261 -23.37994808 478.19433905 -11.90548614 478.2084411 C-0.09647003 478.2228387 11.71253009 478.22970943 23.52155519 478.22884732 C30.14051935 478.22851653 36.75945324 478.23140914 43.37841034 478.24202538 C49.60665679 478.25174278 55.83483075 478.25176061 62.06307983 478.24450874 C64.34058997 478.24346743 66.61810471 478.24579865 68.89560699 478.2518692 C89.21710345 478.30249951 108.00304175 478.29843951 124 464 C124.62648438 463.45472656 125.25296875 462.90945313 125.8984375 462.34765625 C134.4453968 454.41652589 140.37084178 443.32816672 141.16151965 431.60524118 C141.23274713 428.83259271 141.24247032 426.06715147 141.22480774 423.29362488 C141.22057684 422.24683664 141.21634595 421.20004839 141.21198684 420.12153929 C141.07843455 407.34941633 140.05382401 394.65249081 139.02807617 381.92700195 C138.81440104 379.20268419 138.60351529 376.47815192 138.3924408 373.75363159 C137.88211995 367.18927743 137.36173762 360.62576077 136.83732697 354.06251863 C136.41136148 348.72966442 135.9888942 343.39654363 135.56881142 338.06322289 C135.50861964 337.29914319 135.44842786 336.5350635 135.38641209 335.74782988 C135.26409149 334.19500665 135.14177469 332.64218313 135.01946167 331.08935931 C133.87841899 316.60940623 132.725356 302.13042953 131.56839118 287.65174123 C130.51070534 274.41090686 129.46778117 261.16895774 128.43173941 247.92641375 C127.36467999 234.28898141 126.2880888 220.65233309 125.2009905 207.01648301 C124.59204086 199.37621552 123.98680972 191.73569821 123.39150047 184.09435463 C122.88586033 177.60547389 122.37118547 171.11738759 121.84476873 164.63015798 C121.57661554 161.32257294 121.31403432 158.01471245 121.05987549 154.70601845 C120.78382892 151.12152236 120.49196313 147.53866056 120.19596863 143.95576477 C120.11910629 142.90890717 120.04224395 141.86204958 119.96305245 140.78346902 C119.43148766 133.88424067 119.43148766 133.88424067 116 128 C113.16987873 127.05662624 111.45700082 126.87827171 108.52856445 126.88647461 C107.62785721 126.88655014 106.72714996 126.88662567 105.79914856 126.88670349 C104.34589424 126.89444542 104.34589424 126.89444542 102.86328125 126.90234375 C101.86870407 126.9037587 100.87412689 126.90517365 99.84941101 126.90663147 C96.67041018 126.91223239 93.49147957 126.92478504 90.3125 126.9375 C88.15820414 126.94251488 86.00390718 126.94707781 83.84960938 126.95117188 C78.56638226 126.96220212 73.28319615 126.97894114 68 127 C67.98541748 128.24612061 67.97083496 129.49224121 67.95581055 130.77612305 C67.897757 135.40759712 67.82052424 140.03858862 67.73754883 144.66967773 C67.70433273 146.67252764 67.67629048 148.6754704 67.65356445 150.6784668 C67.61995766 153.56078594 67.56763852 156.44225668 67.51171875 159.32421875 C67.50532883 160.21711105 67.4989389 161.11000336 67.49235535 162.029953 C67.35481674 167.87007791 66.3691279 171.23601745 62.5 175.75 C58.52140393 179.06549673 52.87051436 178.42929213 48 178 C43.8397115 176.28161997 41.44654338 173.75719161 39 170 C36.64106707 155.84640242 37.38766462 141.34359108 37 127 C-7.88 127 -52.76 127 -99 127 C-99.33 139.21 -99.66 151.42 -100 164 C-102.30534351 173.22137405 -102.30534351 173.22137405 -107 177 C-112.22581604 178.74193868 -117.8731292 178.95030398 -122.9375 176.6875 C-127.75 172.75 -127.75 172.75 -129 169 C-129.11294746 167.60420727 -129.17589187 166.20400091 -129.20532227 164.80395508 C-129.2352401 163.54298759 -129.2352401 163.54298759 -129.26576233 162.25654602 C-129.28247482 161.35333115 -129.29918732 160.45011627 -129.31640625 159.51953125 C-129.33718735 158.59154221 -129.35796844 157.66355316 -129.37937927 156.70744324 C-129.44477323 153.7425376 -129.50371262 150.77754328 -129.5625 147.8125 C-129.60569487 145.8027252 -129.64930947 143.79295937 -129.69335938 141.78320312 C-129.80044427 136.85555968 -129.90174045 131.92782701 -130 127 C-136.31706001 126.9238534 -142.63400139 126.87135968 -148.95141602 126.83520508 C-151.09989851 126.82013085 -153.2483503 126.79966811 -155.39672852 126.77368164 C-158.48721908 126.73723886 -161.57730231 126.72025981 -164.66796875 126.70703125 C-165.62648239 126.69154739 -166.58499603 126.67606354 -167.57255554 126.66011047 C-174.29629214 126.64161743 -174.29629214 126.64161743 -180 130 Z " fill="#000000" transform="translate(287,4)"/>
<path d="M0 0 C3.13772128 3.89838098 4.35453379 5.95738985 4.375 10.9375 C4.39175781 11.87335938 4.40851563 12.80921875 4.42578125 13.7734375 C3.54126544 20.56423628 -2.01459417 24.9297442 -6.63427734 29.53393555 C-7.41672318 30.32149231 -8.19916901 31.10904907 -9.00532532 31.92047119 C-11.58954587 34.51857614 -14.18111409 37.10920029 -16.7734375 39.69921875 C-18.57343267 41.50310083 -20.37320374 43.30720656 -22.17276001 45.11152649 C-25.94380136 48.89002712 -29.7186221 52.66469956 -33.49609375 56.43676758 C-37.8588473 60.79347606 -42.21233089 65.15929335 -46.56140745 69.52965134 C-50.75200833 73.74000009 -54.95093759 77.94197055 -59.1531868 82.14069557 C-60.93773011 83.92575273 -62.71990685 85.71317899 -64.49967575 87.50299644 C-66.98666599 90.00230303 -69.48298456 92.4919064 -71.98193359 94.97924805 C-72.7166539 95.72161209 -73.45137421 96.46397614 -74.20835876 97.22883606 C-74.89244308 97.90590607 -75.5765274 98.58297607 -76.28134155 99.28056335 C-76.87015799 99.86954753 -77.45897442 100.4585317 -78.06563377 101.06536388 C-82.35222297 104.49381802 -86.56106043 105.10925657 -91.9375 104.5625 C-98.92497043 101.70830618 -103.46057188 97.59975162 -108.70703125 92.25390625 C-109.50985031 91.45017075 -110.31266937 90.64643524 -111.13981628 89.81834412 C-112.82608368 88.12606156 -114.507515 86.42894774 -116.18432617 84.72729492 C-118.74880648 82.12621055 -121.32902338 79.54157952 -123.91210938 76.95898438 C-125.55303145 75.3082336 -127.1930375 73.65657164 -128.83203125 72.00390625 C-129.60078079 71.23293106 -130.36953033 70.46195587 -131.16157532 69.6676178 C-131.87629501 68.9401384 -132.59101471 68.212659 -133.32739258 67.46313477 C-133.95390213 66.82900162 -134.58041168 66.19486847 -135.22590637 65.54151917 C-139.62978578 60.44956181 -140.42092586 56.73419393 -140.2265625 50.15234375 C-139.64861098 44.97421049 -136.74669782 41.89554809 -132.9375 38.5625 C-130.11921822 37.62307274 -128.12528331 37.33667373 -125.1875 37.25 C-123.95773438 37.19392578 -123.95773438 37.19392578 -122.703125 37.13671875 C-116.15584115 38.14470454 -111.44620369 42.62011965 -107.00390625 47.203125 C-106.4811058 47.73017029 -105.95830536 48.25721558 -105.41966248 48.80023193 C-103.77251328 50.46400154 -102.13618291 52.13795209 -100.5 53.8125 C-99.37635372 54.95121464 -98.25201073 56.08924224 -97.12695312 57.2265625 C-94.38902489 59.99733877 -91.66073973 62.77728901 -88.9375 65.5625 C-84.31937014 61.70396016 -79.94172823 57.70245504 -75.71435547 53.42114258 C-74.84704803 52.54923531 -74.84704803 52.54923531 -73.96221924 51.65971375 C-72.7198625 50.41025912 -71.4786391 49.15967674 -70.23846054 47.90806007 C-68.27341681 45.92548152 -66.30472586 43.94659143 -64.33499146 41.96867371 C-58.73968436 36.34903139 -53.15013092 30.72369164 -47.56494141 25.09399414 C-44.13763121 21.63988216 -40.70544945 18.19067315 -37.27023697 14.74442101 C-35.96622017 13.43420752 -34.6641025 12.122101 -33.36394882 10.80805397 C-31.54780728 8.9726637 -29.72555811 7.14354696 -27.90185547 5.31567383 C-27.36978485 4.77484161 -26.83771423 4.2340094 -26.28952026 3.67678833 C-18.56675552 -4.02589735 -9.20273041 -7.63630821 0 0 Z " fill="#000000" transform="translate(323.9375,253.4375)"/>
</svg>
