<?xml version="1.0" standalone="no"?>
<!DOCTYPE svg PUBLIC "-//W3C//DTD SVG 20010904//EN"
 "http://www.w3.org/TR/2001/REC-SVG-20010904/DTD/svg10.dtd">
<svg version="1.0" xmlns="http://www.w3.org/2000/svg"
 width="512.000000pt" height="512.000000pt" viewBox="0 0 512.000000 512.000000"
 preserveAspectRatio="xMidYMid meet">

<g transform="translate(0.000000,512.000000) scale(0.100000,-0.100000)"
fill="#000000" stroke="none">
<path d="M3360 5074 c-954 -23 -1781 -43 -1837 -43 l-103 -1 0 -130 0 -130
345 0 c223 0 345 4 345 10 0 6 37 10 90 10 53 0 90 -4 90 -10 0 -6 35 -10 84
-10 47 0 88 5 91 10 3 6 44 10 91 10 49 0 84 -4 84 -10 0 -6 37 -10 90 -10 53
0 90 4 90 10 0 6 37 10 90 10 53 0 90 -4 90 -10 0 -6 35 -10 85 -10 50 0 85 4
85 10 0 6 37 10 90 10 53 0 90 -4 90 -10 0 -7 302 -10 885 -10 l885 0 0 175
c0 134 -3 175 -12 174 -7 -1 -794 -21 -1748 -45z"/>
<path d="M1420 4630 l0 -130 248 0 c137 0 283 3 325 6 l75 7 16 58 c9 31 19
87 23 123 l6 66 -347 0 -346 0 0 -130z"/>
<path d="M3346 4689 c-4 -39 -16 -105 -27 -147 -10 -41 -18 -77 -16 -79 4 -3
1591 -43 1735 -43 l82 0 0 170 0 170 -884 0 -883 0 -7 -71z"/>
<path d="M4315 3210 c-71 -82 -130 -150 -131 -150 -2 0 -32 22 -67 49 -72 54
-163 100 -253 128 -45 14 -92 18 -199 18 -156 0 -235 -18 -349 -78 l-59 -31 6
-101 c3 -55 13 -125 21 -155 47 -162 57 -214 63 -309 l6 -104 -41 6 c-23 3
-42 1 -42 -4 0 -5 -666 -9 -1635 -9 l-1635 0 0 -130 0 -130 2560 0 2560 0 0
130 0 130 -141 0 -140 0 75 88 c41 48 104 121 139 163 l65 75 -324 277 c-178
153 -330 280 -337 283 -9 3 -61 -51 -142 -146z"/>
<path d="M15 1963 c11 -114 44 -262 86 -388 183 -554 625 -995 1182 -1179
l107 -36 593 -2 592 -3 -577 -2 -578 -3 0 -175 0 -175 1140 0 1140 0 0 175 c0
132 3 177 13 179 371 107 635 262 883 517 144 149 235 279 330 469 92 184 162
426 180 618 l7 72 -2553 0 -2552 0 7 -67z m465 -145 c6 -24 17 -62 25 -85 l13
-42 -79 -26 c-44 -15 -82 -25 -84 -24 -4 5 -42 137 -47 164 -3 17 6 22 62 37
96 24 98 24 110 -24z m155 -377 c123 -206 306 -391 499 -503 l46 -28 -35 -69
c-19 -38 -39 -72 -44 -75 -13 -8 -182 105 -280 188 -46 39 -115 107 -154 151
-99 115 -242 335 -226 348 7 7 134 66 141 67 4 0 28 -35 53 -79z"/>
</g>
</svg>
