<?xml version="1.0" standalone="no"?>
<!DOCTYPE svg PUBLIC "-//W3C//DTD SVG 20010904//EN"
 "http://www.w3.org/TR/2001/REC-SVG-20010904/DTD/svg10.dtd">
<svg version="1.0" xmlns="http://www.w3.org/2000/svg"
 width="512.000000pt" height="512.000000pt" viewBox="0 0 512.000000 512.000000"
 preserveAspectRatio="xMidYMid meet">

<g transform="translate(0.000000,512.000000) scale(0.100000,-0.100000)"
fill="#000000" stroke="none">
<path d="M3142 5075 l-1722 -42 -25 -23 -25 -23 0 -288 c0 -158 3 -295 6 -304
14 -35 58 -45 201 -45 l138 0 0 -187 c0 -186 0 -189 35 -303 33 -109 35 -123
35 -260 0 -112 -4 -158 -18 -204 -14 -46 -22 -57 -35 -52 -9 3 -51 17 -92 32
-189 67 -423 31 -589 -90 -45 -33 -47 -34 -81 -19 -76 32 -202 54 -305 54
-199 0 -341 -55 -466 -180 -85 -86 -125 -150 -165 -266 l-28 -80 -3 -344 c-5
-468 11 -617 98 -875 192 -577 654 -1027 1234 -1203 l30 -10 5 -162 c5 -156 6
-164 29 -182 23 -18 56 -19 1161 -19 1105 0 1138 1 1161 19 23 18 24 26 29
180 l5 161 97 34 c692 241 1177 854 1257 1588 6 54 11 192 11 307 0 207 0 210
-24 238 -20 22 -34 29 -81 33 l-58 5 67 79 c93 109 99 120 92 159 -5 29 -52
72 -338 317 -182 156 -344 290 -358 298 -47 27 -72 10 -191 -128 l-111 -129
-42 28 c-100 69 -226 115 -358 132 -111 15 -238 0 -358 -41 -46 -16 -86 -27
-88 -25 -2 2 6 34 17 72 52 169 51 383 -4 563 -14 47 -30 119 -36 160 -10 72
-5 225 9 247 5 8 223 6 762 -8 415 -10 822 -18 903 -19 144 0 149 1 172 25
l25 24 0 371 0 372 -29 29 c-29 28 -32 29 -128 28 -54 -1 -873 -21 -1821 -44z
m1808 -210 l0 -85 -1705 0 -1705 0 0 43 0 42 1643 38 c903 21 1656 39 1672 41
17 2 45 4 63 4 l32 2 0 -85z m-2825 -297 c-4 -24 -9 -46 -12 -50 -5 -10 -204
-10 -415 -1 l-158 6 0 44 0 43 296 0 296 0 -7 -42z m341 -1 c-4 -24 -20 -90
-37 -148 -24 -80 -32 -132 -36 -225 -6 -136 3 -205 49 -367 29 -104 30 -115
25 -250 -4 -123 -9 -156 -37 -247 -26 -87 -33 -127 -37 -235 -5 -135 5 -205
56 -390 11 -38 20 -87 20 -107 l1 -38 -84 0 -83 0 -6 66 c-4 36 -21 116 -39
178 -30 102 -33 122 -33 251 0 131 2 147 35 255 34 113 35 119 35 290 0 171
-1 177 -35 290 -32 108 -35 124 -35 255 0 128 3 149 32 250 18 61 35 134 39
163 l7 52 84 0 85 0 -6 -43z m340 -4 c-3 -27 -17 -84 -31 -127 -57 -184 -58
-370 -5 -561 60 -213 62 -343 6 -527 -62 -205 -62 -382 1 -588 14 -47 28 -111
31 -142 l5 -58 -87 0 -86 0 0 44 c0 24 -12 88 -26 142 -70 267 -72 362 -8 583
54 188 52 370 -7 572 -22 76 -32 133 -36 209 -5 111 2 159 51 344 14 54 26
111 26 127 l0 29 86 0 87 0 -7 -47z m344 18 c0 -15 -14 -75 -30 -132 -64 -218
-63 -397 1 -609 30 -96 32 -116 32 -240 0 -122 -3 -145 -32 -240 -64 -213 -64
-391 -3 -605 16 -55 32 -121 34 -147 l6 -48 -88 0 -87 0 -6 73 c-4 39 -21 119
-38 177 -29 95 -32 118 -33 240 0 124 2 144 32 246 60 207 65 365 15 552 -64
242 -67 357 -14 539 16 56 32 126 36 155 4 29 9 56 12 61 2 4 40 7 84 7 l79 0
0 -29z m1800 -58 l0 -86 -212 6 c-117 4 -440 11 -718 17 -278 6 -551 13 -608
16 l-103 6 7 57 c3 31 8 59 11 64 2 4 368 7 814 7 l809 0 0 -87z m-2895 -360
c0 -174 1 -181 34 -293 30 -99 35 -133 39 -246 4 -136 2 -150 -54 -344 -10
-32 -18 -110 -21 -190 -5 -143 1 -183 51 -374 14 -54 26 -111 26 -127 l0 -29
-84 0 -83 0 -7 64 c-3 35 -21 113 -38 172 -30 101 -32 120 -33 259 0 136 3
158 27 235 42 132 51 207 45 359 -4 116 -10 151 -38 241 -30 97 -33 115 -33
250 -1 80 2 157 7 173 7 26 9 27 85 27 l77 0 0 -177z m-451 -951 c106 -38 106
-39 106 -146 l0 -94 -47 15 c-59 18 -192 20 -251 4 l-44 -12 -34 39 c-18 22
-63 64 -99 93 l-66 53 48 25 c26 13 71 30 98 38 71 18 216 11 289 -15z m3065
-222 c132 -113 240 -208 240 -211 1 -3 -40 -53 -90 -112 l-91 -107 -450 0
-450 0 63 73 c34 39 161 188 282 330 198 231 222 256 238 245 10 -7 126 -105
258 -218z m-3844 144 c85 -20 229 -94 303 -155 35 -29 88 -84 118 -123 57 -72
129 -208 140 -264 l7 -32 -52 0 c-47 0 -51 2 -57 28 -36 165 -127 279 -279
348 -85 39 -232 46 -323 15 -158 -54 -270 -170 -309 -321 l-17 -70 -88 0 -87
0 -7 46 c-14 98 16 235 74 329 112 183 329 258 577 199z m2955 4 c67 -15 215
-88 215 -106 0 -7 -22 -39 -49 -72 l-49 -59 -41 23 c-69 40 -145 60 -226 59
-120 0 -218 -36 -311 -114 l-47 -40 -11 53 c-5 29 -12 74 -16 99 l-6 47 59 36
c143 87 313 113 482 74z m-2129 -330 c89 -37 139 -118 139 -223 l0 -25 -110 0
c-80 0 -112 3 -114 13 -20 76 -53 171 -72 209 l-24 47 23 4 c38 7 110 -5 158
-25z m2096 -20 c16 -7 27 -17 27 -22 -1 -4 -39 -53 -85 -107 l-83 -99 -138 0
-137 0 14 46 c42 140 180 225 327 202 26 -3 60 -13 75 -20z m-2784 -21 c59
-35 122 -107 141 -163 l15 -44 -295 0 -295 0 7 23 c44 143 155 221 305 214 61
-3 86 -9 122 -30z m3987 -462 l0 -85 -2390 0 -2390 0 0 85 0 85 2390 0 2390 0
0 -85z m-14 -326 c-35 -380 -236 -781 -529 -1054 -182 -170 -411 -306 -635
-379 l-112 -36 -1099 0 -1100 0 -108 35 c-542 177 -955 608 -1116 1165 -27 93
-57 255 -57 307 l0 33 2381 0 2382 0 -7 -71z m-1356 -1724 l0 -85 -1020 0
-1020 0 0 85 0 85 1020 0 1020 0 0 -85z"/>
<path d="M453 1872 c-51 -11 -73 -20 -73 -31 0 -15 39 -160 46 -173 3 -4 35 4
72 18 37 14 72 27 79 29 13 4 -27 168 -43 171 -5 1 -42 -5 -81 -14z"/>
<path d="M573 1522 l-73 -37 53 -88 c83 -138 134 -205 247 -317 71 -72 142
-131 221 -183 64 -42 120 -77 125 -77 5 0 26 33 48 72 35 66 37 73 21 83 -226
135 -396 302 -512 502 -26 46 -50 83 -53 83 -3 -1 -38 -18 -77 -38z"/>
</g>
</svg>
