<?xml version="1.0" standalone="no"?>
<!DOCTYPE svg PUBLIC "-//W3C//DTD SVG 20010904//EN"
 "http://www.w3.org/TR/2001/REC-SVG-20010904/DTD/svg10.dtd">
<svg version="1.0" xmlns="http://www.w3.org/2000/svg"
 width="512.000000pt" height="512.000000pt" viewBox="0 0 512.000000 512.000000"
 preserveAspectRatio="xMidYMid meet">

<g transform="translate(0.000000,512.000000) scale(0.100000,-0.100000)"
fill="#000000" stroke="none">
<path d="M2335 5109 c-384 -34 -775 -163 -1110 -366 -96 -59 -315 -219 -315
-231 0 -4 49 -56 109 -116 l109 -109 74 55 c328 247 722 404 1120 447 125 14
381 14 506 0 753 -82 1405 -543 1743 -1234 307 -627 307 -1363 0 -1990 -338
-691 -990 -1152 -1743 -1234 -139 -16 -382 -13 -533 4 -389 46 -769 199 -1092
441 -180 135 -390 362 -519 559 -436 669 -484 1520 -124 2234 57 114 156 273
228 364 l46 58 -109 109 c-61 61 -113 110 -117 110 -3 0 -45 -51 -91 -112
-620 -820 -685 -1937 -166 -2830 22 -36 39 -77 39 -90 0 -13 -37 -79 -81 -148
-91 -139 -102 -167 -93 -225 5 -36 32 -66 273 -308 284 -286 298 -296 377
-281 19 3 92 44 161 90 70 47 137 84 150 84 13 0 76 -29 141 -65 282 -157 611
-263 949 -306 127 -16 459 -16 588 0 398 50 781 189 1100 399 640 421 1049
1080 1146 1847 16 127 16 461 0 585 -46 361 -169 729 -335 1006 -20 32 -36 70
-36 84 0 15 34 78 80 150 44 68 85 141 92 162 22 73 3 98 -279 380 -213 212
-265 258 -299 268 -57 17 -88 5 -235 -91 -70 -45 -132 -79 -147 -79 -13 0 -64
23 -113 50 -444 255 -982 373 -1494 329z"/>
<path d="M2811 4410 c-167 -39 -154 -284 17 -307 53 -7 124 26 152 71 49 81 6
207 -80 231 -45 12 -55 13 -89 5z"/>
<path d="M2255 2594 c-141 -73 -167 -250 -50 -352 47 -42 74 -52 138 -52 101
1 184 65 207 162 23 95 -27 199 -114 239 -51 23 -140 24 -181 3z"/>
<path d="M3450 2098 c-55 -29 -84 -75 -84 -138 0 -164 222 -214 293 -66 27 54
26 81 -1 136 -25 48 -89 90 -138 90 -14 0 -46 -10 -70 -22z"/>
<path d="M2333 1464 c-23 -9 -62 -33 -87 -55 -169 -149 -120 -420 91 -499 60
-22 142 -26 194 -9 58 20 132 82 162 137 87 160 26 349 -137 423 -50 23 -162
24 -223 3z"/>
</g>
</svg>
