<?xml version="1.0" encoding="UTF-8"?>
<svg version="1.1" xmlns="http://www.w3.org/2000/svg" width="512" height="512">
<path d="M0 0 C10.2191173 8.23630349 17.92354819 18.40939557 19.59375 31.6875 C20.29144057 42.5598447 18.23304778 51.10324686 14.48046875 61.203125 C11.01484137 70.9129885 11.51495456 82.25528556 15.59375 91.6875 C17.06897166 94.38054787 18.6243595 96.97871821 20.2890625 99.55859375 C21.59375 101.6875 21.59375 101.6875 22.59375 104.6875 C23.90778276 105.39144612 25.2457757 106.05095658 26.59375 106.6875 C27.3053125 107.27402344 28.016875 107.86054687 28.75 108.46484375 C31.49696902 110.61185663 34.26762185 112.32933689 37.26660156 114.08642578 C48.96080111 120.98913736 57.8571355 129.06424023 61.66015625 142.4375 C64.44027437 154.02555604 62.8488011 164.29194564 58.81640625 175.29077148 C54.45007451 187.28899978 54.85076847 198.41088979 59.65625 210.25 C65.21226664 221.55528604 73.89084288 227.76533501 84.59375 233.6875 C84.26375 232.6975 83.93375 231.7075 83.59375 230.6875 C82.1459161 216.01426027 87.69137053 204.51114466 96.59375 193.375 C104.89152507 182.97681242 108.50126431 171.95775635 107.59375 158.6875 C105.96923612 147.25628769 100.81415757 138.97748066 92.96875 130.6875 C84.91988925 122.02160563 80.98807075 110.56747929 81.4140625 98.734375 C82.5358369 85.9559014 88.07225736 76.31126467 95.97045898 66.4909668 C104.1129238 56.18277102 106.65765433 45.63876204 105.59375 32.6875 C104.39560888 27.4576992 102.92822032 22.30025241 100.48046875 17.5078125 C99.16007271 14.79721975 99.2784634 12.65119405 99.59375 9.6875 C100.65380859 8.04467773 100.65380859 8.04467773 102.59375 6.6875 C105.11781628 6.29145627 107.40522262 6.105153 109.9453125 6.03515625 C110.7551358 6.00285416 111.56495911 5.97055206 112.39932251 5.93727112 C127.0708421 5.41715369 141.76257827 5.32704352 156.44146729 5.15527344 C160.6328986 5.10506574 164.82425427 5.04913434 169.015625 4.99414062 C176.13486721 4.90122438 183.2541433 4.82402703 190.3736763 4.75725079 C194.73793667 4.71407052 199.10037193 4.64002902 203.46386719 4.54418945 C205.36392945 4.51365735 207.26399429 4.48328498 209.1640625 4.453125 C209.98377533 4.42701645 210.80348816 4.4009079 211.64804077 4.37400818 C215.07422511 4.33511307 217.27716417 4.50734437 220.28588867 6.21948242 C222.34098848 8.24349902 223.38109021 10.07593574 224.59375 12.6875 C225.29951172 13.95400391 225.29951172 13.95400391 226.01953125 15.24609375 C231.94454761 26.74563254 232.57991853 38.18291929 229.59375 50.6875 C226.83982158 58.43292369 222.30647158 64.55885061 217.21704102 70.88305664 C208.46111002 81.94784026 206.66430679 93.01091523 207.59375 106.6875 C209.18740093 116.9111759 215.17835452 124.07984545 221.71875 131.75 C229.47753716 140.85888764 232.99278989 149.94279706 232.96875 161.9375 C232.96713867 162.77434326 232.96552734 163.61118652 232.96386719 164.47338867 C232.73079233 176.27908739 228.23195851 184.26605027 220.88842773 193.33056641 C216.22770199 199.11538572 212.79810049 204.50603112 210.59375 211.6875 C210.26375 212.6775 209.93375 213.6675 209.59375 214.6875 C208.48446149 232.58159663 212.07823596 243.37920795 223.75 257.25 C228.35948612 262.75386403 231.45758028 267.80830939 233.59375 274.6875 C233.87992187 275.57308594 233.87992187 275.57308594 234.171875 276.4765625 C236.38563716 288.07831603 235.03119132 300.5477707 228.765625 310.62890625 C226.88836864 313.27259641 224.93052129 315.81090913 222.88867188 318.32861328 C218.24458437 324.09869938 214.60346897 329.45713176 212.59375 336.6875 C212.34882813 337.53570312 212.10390625 338.38390625 211.8515625 339.2578125 C209.26835114 350.19659643 211.31740589 360.88030314 216.6171875 370.68359375 C219.2914238 374.74779871 222.39692529 378.32287868 225.61474609 381.96191406 C234.59214172 392.22975229 237.27933354 403.30881275 236.90625 416.71484375 C236.04695216 427.63866756 230.44236665 437.69832741 223.03125 445.625 C215.25950816 454.15328308 212.2471866 465.19497516 212.65625 476.5 C213.18710164 482.65124343 214.94473988 487.41695748 217.49609375 492.98828125 C219.10939949 496.95552064 219.36052838 499.47021892 218.59375 503.6875 C215.01899506 506.45738104 212.28380134 507.07026512 207.82104492 507.11987305 C206.09952713 507.14950386 206.09952713 507.14950386 204.3432312 507.17973328 C203.09945709 507.18616348 201.85568298 507.19259369 200.57421875 507.19921875 C198.61356979 507.22668938 198.61356979 507.22668938 196.61331177 507.25471497 C193.06974391 507.30354424 189.52626424 507.33372431 185.98245621 507.3586731 C183.04654425 507.3804495 180.11072633 507.4097705 177.17488003 507.43894005 C171.97486896 507.49057823 166.77486628 507.53891391 161.57472229 507.57504272 C153.48413119 507.63232138 145.39753667 507.73599569 137.30845642 507.91401672 C132.86998621 508.00851423 128.43138649 508.07560116 123.99234009 508.13638306 C121.9455405 508.17028555 119.89889905 508.21587991 117.85263062 508.27352905 C115.03265612 508.35044723 112.21538789 508.38373022 109.39453125 508.40625 C108.58186798 508.43918655 107.76920471 508.47212311 106.93191528 508.50605774 C103.59077915 508.49433014 101.45813149 508.37293761 98.78866577 506.25610352 C95.91189215 503.05779762 93.85217962 499.84031773 92.59375 495.6875 C91.4385083 496.11160156 90.2832666 496.53570312 89.09301758 496.97265625 C84.80021225 498.5461864 80.50361895 500.10913759 76.20581055 501.66894531 C74.34734001 502.34510639 72.48990468 503.02411994 70.63354492 503.70605469 C67.96280631 504.6865881 65.28849498 505.65675359 62.61328125 506.625 C61.78601028 506.93123291 60.95873932 507.23746582 60.10639954 507.55297852 C52.66842085 510.22431419 52.66842085 510.22431419 48.59375 509.6875 C37.74828247 504.02970005 29.99562799 494.2086204 26.27734375 482.640625 C23.57076756 470.94821586 24.69488515 461.2128142 28.52709961 450.05297852 C32.74688388 437.52768169 33.5798771 425.92164726 27.59375 413.6875 C27.18125 412.82382812 26.76875 411.96015625 26.34375 411.0703125 C21.52775142 402.06767879 14.18611735 397.07804963 5.46875 392.125 C-7.13031227 384.95322609 -13.80759518 375.70853845 -17.95703125 361.84765625 C-20.26837596 350.73310299 -17.40052298 340.97031217 -13.99169922 330.51708984 C-10.21324839 318.7090371 -10.27252777 307.24002876 -15.765625 295.875 C-21.28353616 286.31820541 -28.96225174 280.20459807 -38.40625 274.75 C-49.20797058 268.33182606 -57.40352734 259.39397239 -60.90625 247.046875 C-63.52518563 234.68877252 -61.34491324 224.1313594 -57.28125 212.3125 C-53.41702856 201.03194587 -53.92823087 190.78653449 -58.78125 179.6875 C-60.61210614 175.95516123 -62.66586108 172.83387246 -65.40625 169.6875 C-65.40625 169.0275 -65.40625 168.3675 -65.40625 167.6875 C-65.963125 167.44 -66.52 167.1925 -67.09375 166.9375 C-69.40625 165.6875 -69.40625 165.6875 -71.59765625 163.8671875 C-74.19897313 161.848363 -76.84865815 160.24078496 -79.72314453 158.64501953 C-92.15988743 151.68056916 -99.79486168 143.09188416 -104.1484375 129.34375 C-106.99651777 118.26354732 -104.98910628 108.17685744 -101.31640625 97.52734375 C-97.0752122 85.10562594 -96.86277187 73.75271711 -102.40625 61.6875 C-105.1336315 56.72791 -108.42479797 52.62133965 -112.28125 48.5 C-114.65654919 45.86194648 -115.3537742 44.96562176 -116.03125 41.375 C-115.31194737 38.2819987 -114.84142709 37.64371971 -112.40625 35.6875 C-110.26304787 34.70211765 -108.07645927 33.80970863 -105.87109375 32.97265625 C-105.21368195 32.72116318 -104.55627014 32.4696701 -103.87893677 32.21055603 C-101.70371055 31.38172721 -99.5239995 30.56551475 -97.34375 29.75 C-95.80711668 29.16886725 -94.27057846 28.58748297 -92.73413086 28.00585938 C-80.98186485 23.57561648 -69.15862975 19.3549459 -57.29345703 15.23779297 C-49.72874699 12.60646536 -42.21272949 9.88011975 -34.734375 7.01171875 C-33.93499008 6.70694611 -33.13560516 6.40217346 -32.31199646 6.08816528 C-28.44600215 4.61420376 -24.5866411 3.12640225 -20.73657227 1.61132812 C-19.34159326 1.07738069 -17.94634332 0.54414038 -16.55078125 0.01171875 C-15.33753174 -0.46177002 -14.12428223 -0.93525879 -12.87426758 -1.4230957 C-8.13998017 -2.63724628 -4.31219442 -2.35210605 0 0 Z M106.59375 272.6875 C106.35140625 273.69167969 106.1090625 274.69585937 105.859375 275.73046875 C105.52143973 277.11212763 105.18284855 278.49362617 104.84375 279.875 C104.66618164 280.60460937 104.48861328 281.33421875 104.30566406 282.0859375 C103.19761279 286.54930044 101.87277717 290.846155 100.34375 295.1875 C97.93884768 302.655849 98.23577912 309.94140799 98.59375 317.6875 C107.13905699 309.60023291 109.97994653 300.29866302 110.90625 288.8125 C110.78142561 283.2975316 109.07169901 277.96588933 107.59375 272.6875 C107.26375 272.6875 106.93375 272.6875 106.59375 272.6875 Z " fill="#DB5C5E" transform="translate(195.40625,2.3125)"/>
<path d="M0 0 C2.0078125 2.44140625 2.0078125 2.44140625 4.125 5.5625 C8.32552793 11.50764484 13.10925438 15.70872835 19 20 C20.67212082 21.32648691 22.34024611 22.65807132 24 24 C22.9843569 27.96100808 21.46940945 30.89585442 19.125 34.1875 C13.95188894 41.71317501 11.33580636 49.90402764 11 59 C10.96003906 59.99902344 10.92007813 60.99804688 10.87890625 62.02734375 C10.53864015 78.86050782 14.72814169 92.74947971 25.78515625 105.6953125 C31.76089387 111.91345218 38.060933 116.6605854 45.75 120.5625 C56.16841533 126.00624545 59.61743017 132.39340962 63.15234375 143.31640625 C64.81373129 150.5361687 63.75725264 155.50844505 61.125 162.1875 C55.09154399 178.41141753 53.44394329 195.69913697 60.2890625 212.0859375 C67.8150081 226.45365182 78.49077488 236.55393964 92.703125 244.078125 C101.41932688 249.15913368 104.93213584 255.28875612 108.3125 264.625 C109.90843664 272.45959804 108.64860118 277.95250983 106.16796875 285.4609375 C105.58982422 287.21277344 105.58982422 287.21277344 105 289 C104.73832031 289.73903564 104.47664062 290.47807129 104.20703125 291.23950195 C102.04085231 297.73481529 101.5428724 303.61634673 101.625 310.4375 C101.60759766 311.87706055 101.60759766 311.87706055 101.58984375 313.34570312 C101.65018041 328.27902578 107.66166922 342.22217357 117.8984375 353.13671875 C124.08962555 358.62593195 131.18715967 363.01316705 138.375 367.0625 C146.0507306 371.62308019 150.63955425 377.504428 153.3359375 386.02734375 C155.58175092 396.08066148 153.68642105 404.28780207 150.19140625 413.6875 C143.70809071 431.71324287 148.35581025 454.0248744 156 471 C156.33 471.99 156.66 472.98 157 474 C155.33079693 477.33840614 151.55795444 477.83982622 148.203125 479.0390625 C147.02444855 479.46764053 147.02444855 479.46764053 145.82196045 479.90487671 C144.15539217 480.50854147 142.48747956 481.10850558 140.81835938 481.70507812 C138.27050968 482.61765395 135.72890956 483.54622507 133.1875 484.4765625 C131.56806149 485.06087553 129.94828026 485.64423978 128.328125 486.2265625 C127.56961243 486.50464752 126.81109985 486.78273254 126.02960205 487.06924438 C122.26450621 488.40180597 119.0521808 489.48892098 115 489 C104.15453247 483.34220005 96.40187799 473.5211204 92.68359375 461.953125 C89.97701756 450.26071586 91.10113515 440.5253142 94.93334961 429.36547852 C99.15313388 416.84018169 99.9861271 405.23414726 94 393 C93.5875 392.13632812 93.175 391.27265625 92.75 390.3828125 C87.93400142 381.38017879 80.59236735 376.39054963 71.875 371.4375 C59.27593773 364.26572609 52.59865482 355.02103845 48.44921875 341.16015625 C46.13787404 330.04560299 49.00572702 320.28281217 52.41455078 309.82958984 C56.19300161 298.0215371 56.13372223 286.55252876 50.640625 275.1875 C45.12271384 265.63070541 37.44399826 259.51709807 28 254.0625 C17.19827942 247.64432606 9.00272266 238.70647239 5.5 226.359375 C2.88106437 214.00127252 5.06133676 203.4438594 9.125 191.625 C12.98922144 180.34444587 12.47801913 170.09903449 7.625 159 C5.79414386 155.26766123 3.74038892 152.14637246 1 149 C1 148.34 1 147.68 1 147 C0.443125 146.7525 -0.11375 146.505 -0.6875 146.25 C-3 145 -3 145 -5.19140625 143.1796875 C-7.79272313 141.160863 -10.44240815 139.55328496 -13.31689453 137.95751953 C-25.75363743 130.99306916 -33.38861168 122.40438416 -37.7421875 108.65625 C-40.59026777 97.57604732 -38.58285628 87.48935744 -34.91015625 76.83984375 C-30.6689622 64.41812594 -30.45652187 53.06521711 -36 41 C-38.7273815 36.04041 -42.01854797 31.93383965 -45.875 27.8125 C-48.25029919 25.17444648 -48.9475242 24.27812176 -49.625 20.6875 C-48.89862351 17.56408111 -48.48139025 16.95970397 -46 15 C-43.52322063 13.89606612 -41.08919972 12.90546181 -38.55078125 11.96875 C-37.45361031 11.55296692 -37.45361031 11.55296692 -36.33427429 11.12878418 C-33.99648069 10.2448804 -31.65464039 9.37231183 -29.3125 8.5 C-27.75557936 7.91350322 -26.19893547 7.32627119 -24.64257812 6.73828125 C-21.09822907 5.40112315 -17.55353357 4.06514722 -13.99868774 2.75610352 C-12.60895027 2.23036587 -11.22860559 1.67939198 -9.85653687 1.10913086 C-3.66213771 -1.41445693 -3.66213771 -1.41445693 0 0 Z " fill="#E5E4E4" transform="translate(129,23)"/>
<path d="M0 0 C16.11868648 -1.01228466 16.11868648 -1.01228466 21.16259766 1.57470703 C23.10902157 3.67547293 24.23116611 5.5814833 25.43603516 8.17626953 C25.90654297 9.02060547 26.37705078 9.86494141 26.86181641 10.73486328 C32.78683276 22.23440207 33.42220368 33.67168883 30.43603516 46.17626953 C27.68210673 53.92169322 23.14875674 60.04762014 18.05932617 66.37182617 C9.30339518 77.43660979 7.50659194 88.49968476 8.43603516 102.17626953 C10.02968609 112.39994543 16.02063968 119.56861498 22.56103516 127.23876953 C30.31982232 136.34765717 33.83507505 145.43156659 33.81103516 157.42626953 C33.80942383 158.26311279 33.8078125 159.09995605 33.80615234 159.9621582 C33.57307748 171.76785692 29.07424367 179.7548198 21.73071289 188.81933594 C17.06998715 194.60415525 13.64038564 199.99480065 11.43603516 207.17626953 C11.10603516 208.16626953 10.77603516 209.15626953 10.43603516 210.17626953 C9.32674665 228.07036616 12.92052112 238.86797748 24.59228516 252.73876953 C29.20177128 258.24263356 32.29986544 263.29707892 34.43603516 270.17626953 C34.62681641 270.76666016 34.81759766 271.35705078 35.01416016 271.96533203 C37.22792231 283.56708556 35.87347647 296.03654024 29.60791016 306.11767578 C27.7306538 308.76136594 25.77280645 311.29967866 23.73095703 313.81738281 C19.08686952 319.58746892 15.44575412 324.94590129 13.43603516 332.17626953 C13.19111328 333.02447266 12.94619141 333.87267578 12.69384766 334.74658203 C10.11063629 345.68536596 12.15969105 356.36907267 17.45947266 366.17236328 C20.13370895 370.23656824 23.23921044 373.81164821 26.45703125 377.45068359 C35.43442688 387.71852182 38.12161869 398.79758228 37.74853516 412.20361328 C36.88923731 423.12743709 31.28465181 433.18709694 23.87353516 441.11376953 C16.10179332 449.64205261 13.08947176 460.6837447 13.49853516 471.98876953 C14.0293868 478.14001297 15.78702503 482.90572702 18.33837891 488.47705078 C19.95168465 492.44429017 20.20281353 494.95898845 19.43603516 499.17626953 C15.12116826 502.88211677 10.80166029 502.57003112 5.41650391 502.46923828 C4.12864738 502.46287102 4.12864738 502.46287102 2.81477356 502.45637512 C0.08403602 502.43963948 -2.64595197 502.40199719 -5.37646484 502.36376953 C-7.23257394 502.34871606 -9.08869466 502.33502881 -10.94482422 502.32275391 C-15.4848247 502.28975276 -20.02426786 502.23800612 -24.56396484 502.17626953 C-27.93050394 489.29559821 -26.40120886 473.50764009 -19.81396484 461.98876953 C-17.71740226 458.72687191 -15.42961282 455.69690677 -13.00146484 452.67626953 C-2.55877972 439.47340332 1.28365474 422.75330279 -0.56396484 406.17626953 C-3.08004213 392.42265604 -9.17747072 382.48729036 -18.2956543 372.24682617 C-22.1081128 367.90082822 -24.90196478 363.78097047 -26.56396484 358.17626953 C-26.93521484 356.96970703 -26.93521484 356.96970703 -27.31396484 355.73876953 C-28.50521264 343.5284796 -25.9856196 335.86870897 -18.25146484 326.42626953 C-17.52588379 325.54600098 -17.52588379 325.54600098 -16.78564453 324.64794922 C-5.26986126 310.41348338 -0.65251292 293.35977985 -2.56396484 275.17626953 C-4.94166188 262.45442485 -10.7005497 252.36938743 -19.12646484 242.73876953 C-26.42977171 234.3226245 -30.52079776 226.76972849 -29.96630859 215.30126953 C-28.84414861 206.58546385 -25.07211713 201.25632544 -19.35302734 194.70947266 C-7.48352749 180.99633747 -3.42763706 164.24687484 -4.33740234 146.44580078 C-5.75689273 132.22642299 -12.92937536 120.84397675 -22.44677734 110.62158203 C-28.87085099 103.2018955 -32.10436178 94.61918172 -31.88037109 84.79345703 C-30.89415555 76.63587166 -26.71493671 68.51712081 -20.30224609 63.35595703 C-19.46048828 62.71916016 -18.61873047 62.08236328 -17.75146484 61.42626953 C-9.60272502 55.15052364 -2.75368362 46.42900232 -1.25537109 36.03564453 C-0.62802411 25.16163016 -7.13977762 16.24403667 -12.63818359 7.39892578 C-14.56396484 4.17626953 -14.56396484 4.17626953 -15.56396484 1.17626953 C-10.38392867 0.63808395 -5.19376755 0.35706534 0 0 Z " fill="#B63E32" transform="translate(394.56396484375,6.82373046875)"/>
<path d="M0 0 C10.23 0 20.46 0 31 0 C31.70125 2.26875 32.4025 4.5375 33.125 6.875 C35.27181981 13.51252096 38.06543583 19.21133983 42 25 C42.62841797 25.96099609 42.62841797 25.96099609 43.26953125 26.94140625 C44.1644772 28.30438047 45.07926613 29.65431203 46 31 C44.67335643 34.00862364 43.31533984 35.85124754 40.8046875 37.9609375 C27.75181089 49.28600655 20.97013606 59.99794839 17 77 C16.80277344 77.62648438 16.60554688 78.25296875 16.40234375 78.8984375 C13.66348467 93.20432281 19.13188856 109.16948735 27 121 C29.46760881 124.19754525 32.14206206 127.1966095 34.83081055 130.20800781 C42.17678571 138.4726744 43.4444718 144.97243049 43.43359375 155.9375 C42.82867706 164.29476692 39.63549407 170.13559033 34.1875 176.3125 C23.2377136 189.38716615 17.69668411 203.80578023 18 221 C20.03181743 236.43818426 26.42799965 248.79190672 36.1875 260.66015625 C36.88875 261.51480469 37.59 262.36945313 38.3125 263.25 C38.94800781 263.99765625 39.58351563 264.7453125 40.23828125 265.515625 C45.89972196 273.49938618 45.79840604 281.64193855 45 291 C43.46484111 298.53251296 39.13046471 303.55505214 34.2421875 309.30078125 C25.76866706 319.50148268 19.55896055 334.59638177 19.71484375 348.046875 C21.5345681 366.89223954 28.99696278 381.30298807 41.52734375 395.2890625 C47.85242477 402.63756512 47.60111479 410.84431875 47.16601562 420.06884766 C46.44075229 428.50536677 41.60308437 433.83090188 36.3125 440.03515625 C28.65678446 449.85050777 25.42034112 461.02842029 23 473 C22.80277344 473.91007812 22.60554688 474.82015625 22.40234375 475.7578125 C21.79781324 480.62927196 21.89669803 485.4722636 21.9375 490.375 C21.958125 493.88125 21.97875 497.3875 22 501 C11.77 501 1.54 501 -9 501 C-9.51508408 474.21562759 -7.80540819 453.2298687 10.078125 432.35546875 C15.52153705 425.68396984 15.73788534 418.26650286 15.40234375 409.90625 C14.4447982 400.60969131 9.55106111 395.34576178 3.34765625 388.76953125 C-2.85051006 381.45755136 -7.75548544 372.33050269 -10 363 C-10.27070313 361.95005859 -10.27070313 361.95005859 -10.546875 360.87890625 C-13.22300633 343.87624429 -10.65727481 327.40407091 -1 313 C0.68571431 310.95153704 2.38205636 308.9352134 4.125 306.9375 C10.89746849 299.10587855 14.67406706 290.44803939 14 280 C12.20809324 271.68607965 8.85258291 265.91514727 3.09155273 259.61230469 C-9.63212098 245.56781143 -13.78274938 229.9554356 -13.3671875 211.30078125 C-12.59334975 195.92555811 -4.43019981 182.78018451 5.71875 171.64453125 C10.79624523 165.12738036 12.53028843 157.08689856 12 149 C10.21115138 139.72224275 5.69516161 133.97805488 -0.5 127.125 C-12.93331137 113.01744582 -15.85515165 96.66003627 -15.18359375 78.45410156 C-14.77166398 72.9478276 -13.13328409 68.05251496 -11 63 C-10.649375 62.13375 -10.29875 61.2675 -9.9375 60.375 C-5.32198694 50.11830432 2.0028063 42.18523696 11.12890625 35.75390625 C11.74636719 35.17511719 12.36382812 34.59632812 13 34 C13 29.23402756 11.84063148 27.79876666 9.25 23.875 C4.18817926 15.96987269 1.33279296 9.32955075 0 0 Z " fill="#E5E4E4" transform="translate(317,8)"/>
<path d="M0 0 C1.66796875 1.03125 1.66796875 1.03125 3.1875 2.5 C6.03255926 5.14627782 8.96795316 7.52388784 12.0625 9.875 C17.9793913 14.58509764 22.61717494 19.72155255 25 27 C26.32725502 41.15088071 21.20306877 51.42333719 14.65234375 63.48046875 C11.16318514 70.34623246 10.87589439 77.1944485 12.625 84.671875 C16.48921642 95.78149721 24.03212502 101.32496869 33.99291992 106.62744141 C48.69535237 114.55510569 57.78094535 127.24117209 62.97265625 142.94140625 C64.96883296 150.0626506 65.38367671 156.63946521 65 164 C64.99226563 164.78503906 64.98453125 165.57007813 64.9765625 166.37890625 C64.7598541 171.30485498 63.54728791 175.39039024 61.78100586 179.94628906 C57.91431584 189.93365281 55.61886159 199.45004896 58.9609375 210.046875 C63.24616605 219.27239889 70.7058084 224.54277036 79.41796875 229.328125 C93.88734662 237.33344058 102.83429715 249.80261045 108.5 265.0625 C112.78406908 280.81557914 110.50770763 296.83400198 103.859375 311.51953125 C101.17574161 319.26547309 102.29402171 328.52722614 105.76171875 335.83203125 C109.38384916 342.17361604 113.12655723 345.14991069 119.5625 348.6875 C125.55584959 352.06300754 127.47052781 355.26020198 129.5703125 361.73046875 C131.37694498 365.86202992 133.90528572 368.64963916 136.9375 371.9375 C146.71079124 382.62805937 150.61706424 393.84626295 150.33203125 408.28125 C149.80875613 419.03100064 144.80849975 426.83800615 138.28515625 435.08203125 C136.06444403 437.91770993 134.03235548 440.7980865 132.0625 443.8125 C131.51722656 444.64394531 130.97195313 445.47539062 130.41015625 446.33203125 C127.13481569 452.52886671 126.64372805 458.45877013 126.6875 465.3125 C126.68878906 466.1475708 126.69007813 466.9826416 126.69140625 467.84301758 C126.78617436 473.92890713 127.56608693 479.36433224 130 485 C129.01 485 128.02 485 127 485 C118.04094635 463.18304528 113.96805151 440.74741616 122 418 C122.36480469 417.16597656 122.72960937 416.33195312 123.10546875 415.47265625 C125.67997611 408.35622324 124.57389484 400.52410419 121.875 393.625 C117.64988253 384.75574514 112.99974735 380.77763886 104.46069336 376.11352539 C90.56287469 368.44494352 78.14699062 355.58438079 73.40673828 340.05664062 C71.88399206 333.96565572 71.61512571 328.00874024 71.625 321.75 C71.62632935 320.22983276 71.62632935 320.22983276 71.62768555 318.67895508 C71.75297504 310.73356621 73.03430661 304.3982889 76 297 C80.12150311 284.9976311 79.58642064 276.4344242 73.97265625 264.88671875 C70.61390811 259.49598775 65.42821251 257.00020863 60 254 C45.71919156 245.78141509 33.74229217 234.08434431 28.51953125 218.01171875 C24.01472864 200.56831014 26.31306052 184.81719517 33.01171875 168.21875 C35.88801374 158.85089596 32.11818986 149.23637971 27.89453125 140.7890625 C24.28742272 135.8161556 18.5253857 133.44361211 13.24462891 130.60473633 C-1.21035485 122.66194629 -11.79002987 109.87541636 -17.359375 94.28125 C-18.41903344 90.50783213 -18.85767112 86.91094999 -19 83 C-19.03996094 81.9996875 -19.07992187 80.999375 -19.12109375 79.96875 C-19.4439968 64.0135405 -15.76240427 52.96607139 -7.1953125 39.69921875 C-5.74453606 37.14842184 -5.74453606 37.14842184 -6.48046875 34.87890625 C-8.4405651 32.45523956 -10.59530683 30.9805124 -13.1875 29.25 C-20.6985108 23.95100154 -25.76857389 18.12433813 -30 10 C-23.71178481 7.3374224 -17.4038113 4.72112894 -11.0625 2.1875 C-9.50208984 1.55908203 -9.50208984 1.55908203 -7.91015625 0.91796875 C-5.00997874 0.00314765 -3.00898315 -0.37992211 0 0 Z " fill="#E75D65" transform="translate(158,12)"/>
<path d="M0 0 C1.52734375 1.671875 1.52734375 1.671875 2.9375 3.75 C8.40371699 11.43003487 15.63964691 17.20093393 23 23 C22.42773238 27.21188968 20.9701264 29.9416445 18.6875 33.5 C10.57901637 47.28108535 8.32719097 63.21762872 11.73046875 78.953125 C12.63993297 82.08613644 13.70229294 85.0088916 15 88 C15.54333984 89.31291016 15.54333984 89.31291016 16.09765625 90.65234375 C22.20960705 104.09863551 32.43957029 113.06679721 45.1875 120 C53.66646852 124.66071507 59.11962553 130.0696631 62.33203125 139.328125 C64.92303449 149.69213796 61.9508596 158.29903233 58.41015625 167.99609375 C53.29785486 182.22424721 54.58219927 199.38294732 61 213 C68.24288145 226.88540773 77.535648 234.89926889 90.94140625 242.71484375 C99.70675053 247.97405032 104.41928993 253.36352815 108 263 C109.50533983 273.71241832 107.38704437 282.38308819 103.41015625 292.2578125 C98.97984417 304.01470716 100.15353496 317.24507021 104 329 C104.2784375 329.86238281 104.556875 330.72476562 104.84375 331.61328125 C110.68604308 347.80549872 122.54322995 357.64486915 137.109375 365.73828125 C145.44274994 370.46547612 149.43193946 376.39695882 153.375 385 C155.03905105 392.98744504 153.78613634 399.48954552 151 407 C144.0044583 428.03916238 147.42506165 449.69834509 155.75390625 469.7421875 C156.9327434 472.28770211 156.9327434 472.28770211 160 474 C158.274773 474.67679658 156.54461061 475.34102 154.8125 476 C153.84957031 476.37125 152.88664063 476.7425 151.89453125 477.125 C147.70800731 478.39056189 145.32451718 478.69096636 141.38671875 476.63671875 C131.23754452 469.30757556 123.86783179 460.38903333 121 448 C119.34030822 437.13209234 120.40228328 428.64833726 123.93334961 418.36547852 C128.15313388 405.84018169 128.9861271 394.23414726 123 382 C122.5875 381.13632812 122.175 380.27265625 121.75 379.3828125 C116.93400142 370.38017879 109.59236735 365.39054963 100.875 360.4375 C88.27593773 353.26572609 81.59865482 344.02103845 77.44921875 330.16015625 C75.13787404 319.04560299 78.00572702 309.28281217 81.41455078 298.82958984 C85.19300161 287.0215371 85.13372223 275.55252876 79.640625 264.1875 C74.12271384 254.63070541 66.44399826 248.51709807 57 243.0625 C46.19827942 236.64432606 38.00272266 227.70647239 34.5 215.359375 C31.88106437 203.00127252 34.06133676 192.4438594 38.125 180.625 C41.98922144 169.34444587 41.47801913 159.09903449 36.625 148 C34.79414386 144.26766123 32.74038892 141.14637246 30 138 C30 137.34 30 136.68 30 136 C29.443125 135.7525 28.88625 135.505 28.3125 135.25 C26 134 26 134 23.80859375 132.1796875 C21.20727687 130.160863 18.55759185 128.55328496 15.68310547 126.95751953 C3.24636257 119.99306916 -4.38861168 111.40438416 -8.7421875 97.65625 C-11.59026777 86.57604732 -9.58285628 76.48935744 -5.91015625 65.83984375 C-1.6689622 53.41812594 -1.45652187 42.06521711 -7 30 C-9.7273815 25.04041 -13.01854797 20.93383965 -16.875 16.8125 C-19.25029919 14.17444648 -19.9475242 13.27812176 -20.625 9.6875 C-19.90615303 6.59645801 -19.42828025 5.9599327 -17 4 C-14.00390625 2.578125 -14.00390625 2.578125 -10.5625 1.25 C-9.42941406 0.80140625 -8.29632813 0.3528125 -7.12890625 -0.109375 C-2.74868522 -1.35617949 -2.74868522 -1.35617949 0 0 Z " fill="#CC5C56" transform="translate(100,34)"/>
<path d="M0 0 C0.84755859 0.00966797 1.69511719 0.01933594 2.56835938 0.02929688 C3.44943359 0.05443359 4.33050781 0.07957031 5.23828125 0.10546875 C6.13095703 0.11900391 7.02363281 0.13253906 7.94335938 0.14648438 C10.14644291 0.18182796 12.34830707 0.23116382 14.55078125 0.29296875 C14.76992188 1.03160156 14.9890625 1.77023437 15.21484375 2.53125 C18.4354663 12.83462378 23.0511476 21.69051244 29.55078125 30.29296875 C28.00063343 34.4079066 25.28832747 36.27935096 21.86328125 38.91796875 C10.78097836 47.80364516 2.66454402 61.11928819 0.55078125 75.29296875 C-0.93839981 95.15303265 2.66512848 111.55103905 15.6640625 127.125 C16.77585956 128.40253079 17.89516865 129.67370311 19.03125 130.9296875 C24.13064081 136.65669564 27.18998901 143.78306569 27.80078125 151.41796875 C27.08226051 162.55504016 21.90723282 170.17142655 15.05078125 178.60546875 C6.5288651 189.42754811 1.95354251 201.94250398 2.17578125 215.66796875 C2.18665771 216.58771484 2.19753418 217.50746094 2.20874023 218.45507812 C2.59205319 234.85219377 8.69071949 247.6394249 19.64257812 259.71655273 C25.85920936 266.61410634 29.01182149 273.47220333 29.86328125 282.66796875 C28.97731642 292.94516077 24.72725913 300.93892798 17.67578125 308.35546875 C14.5007775 311.93364758 12.44411 315.98799858 10.30078125 320.23046875 C9.95934082 320.89892822 9.61790039 321.5673877 9.26611328 322.25610352 C3.23814327 334.55658289 2.39895828 349.93666389 5.61328125 363.23046875 C6.20080677 364.93914388 6.85119044 366.62703668 7.55078125 368.29296875 C7.99164063 369.37320312 8.4325 370.4534375 8.88671875 371.56640625 C12.01417821 378.47732886 15.68542362 383.94887317 20.73828125 389.60546875 C28.8418368 398.72771441 30.9964655 405.03208821 30.984375 417.328125 C30.1330303 425.11294364 27.28232075 430.14287925 22.23828125 435.98046875 C6.48089705 455.23920635 6.00988249 476.41970408 5.55078125 500.29296875 C16.11078125 500.29296875 26.67078125 500.29296875 37.55078125 500.29296875 C37.55078125 500.62296875 37.55078125 500.95296875 37.55078125 501.29296875 C31.39451416 501.46636862 25.23967613 501.59320482 19.08154297 501.67749023 C16.98819207 501.71263314 14.89501226 501.76035896 12.80224609 501.82104492 C9.78830751 501.90623701 6.77664405 501.94571795 3.76171875 501.9765625 C2.36450089 502.030756 2.36450089 502.030756 0.9390564 502.08604431 C-5.440083 502.08987499 -5.440083 502.08987499 -8.35638428 499.78689575 C-11.40538718 496.29650694 -13.68174102 492.58541467 -15.44921875 488.29296875 C-15.72765625 487.65617187 -16.00609375 487.019375 -16.29296875 486.36328125 C-18.47802998 480.51621927 -18.76523327 474.8423782 -18.82421875 468.66796875 C-18.84488403 467.46877808 -18.84488403 467.46877808 -18.8659668 466.24536133 C-18.77192389 454.09125597 -12.21967544 444.74122437 -4.88671875 435.48046875 C3.32483276 424.56409875 6.0141144 413.84944824 4.85058594 400.39208984 C3.41129001 390.31467419 -2.6913782 382.14901621 -9.32421875 374.79296875 C-18.60532626 363.83529619 -21.67534208 353.18636426 -20.96484375 339.01171875 C-20.04199964 328.36091237 -14.60786574 320.67921146 -8.44921875 312.29296875 C-0.64888108 300.99371418 4.51561794 289.49408503 2.0546875 275.46484375 C-0.38559551 264.71105419 -4.60402241 257.03478604 -11.77978516 248.75830078 C-19.27963275 239.97792261 -24.1560577 228.6084648 -23.734375 216.9296875 C-22.42608138 204.83245193 -17.92513314 196.3322229 -10.44921875 186.98046875 C-2.15144368 176.58228117 1.45829556 165.5632251 0.55078125 152.29296875 C-1.07373263 140.86175644 -6.22881118 132.58294941 -14.07421875 124.29296875 C-22.1230795 115.62707438 -26.054898 104.17294804 -25.62890625 92.33984375 C-24.50713185 79.56137015 -18.97071139 69.91673342 -11.07250977 60.09643555 C-2.93004495 49.78823977 -0.38531442 39.24423079 -1.44921875 26.29296875 C-2.64735987 21.06316795 -4.11474843 15.90572116 -6.5625 11.11328125 C-7.88289604 8.4026885 -7.76450535 6.2566628 -7.44921875 3.29296875 C-5.22820538 0.31370971 -3.63905348 -0.07326953 0 0 Z " fill="#B63E32" transform="translate(302.44921875,8.70703125)"/>
<path d="M0 0 C0.33 0 0.66 0 1 0 C1.12117188 1.16917969 1.24234375 2.33835937 1.3671875 3.54296875 C1.53608401 5.09118671 1.70537568 6.63936161 1.875 8.1875 C1.95363281 8.95642578 2.03226562 9.72535156 2.11328125 10.51757812 C2.57528104 14.65780704 3.1839193 18.19233501 5 22 C4.01 22 3.02 22 2 22 C0.33510818 18.07561214 -0.87204037 14.10899581 -2 10 C-1.34 10 -0.68 10 0 10 C0 6.7 0 3.4 0 0 Z " fill="#D95B5D" transform="translate(283,475)"/>
</svg>
