<?xml version="1.0" encoding="UTF-8"?>
<svg version="1.1" xmlns="http://www.w3.org/2000/svg" width="512" height="512">
<path d="M0 0 C25.48870639 17.92716185 49.61162755 43.02654183 56.79760742 74.38354492 C57.88270857 84.80051595 56.62911715 95.01664811 50.29760742 103.75854492 C47.1506517 107.5380948 43.66666522 110.99198207 40.11010742 114.38354492 C39.45010742 115.04354492 38.79010742 115.70354492 38.11010742 116.38354492 C38.28550049 116.94299805 38.46089355 117.50245117 38.64160156 118.07885742 C53.84598113 167.0953736 65.98179023 223.1097882 50.11010742 273.38354492 C71.96223033 270.70377312 93.99663464 264.51047236 108.48510742 246.50854492 C114.5107937 237.72679191 116.57201504 229.27077229 114.62573242 218.77026367 C112.5649598 211.67321512 108.40904107 206.82720799 103.75561523 201.28515625 C88.17053043 182.36551069 84.74990664 159.24357119 86.11010742 135.38354492 C87.77187051 119.85559473 94.6346787 103.95575999 105.11010742 92.38354492 C106.1078418 91.2446582 106.1078418 91.2446582 107.12573242 90.08276367 C110.379564 86.41342482 113.71035542 82.81586703 117.03588867 79.21166992 C117.53983154 78.66542969 118.04377441 78.11918945 118.56298828 77.55639648 C119.59400563 76.44158966 120.62737432 75.32895283 121.66308594 74.21850586 C124.01416831 71.6918131 126.30373586 69.15294536 128.52416992 66.50854492 C134.46979169 59.44943215 139.61581984 54.99280159 149.02026367 53.94995117 C158.23479407 53.50804079 164.8594521 54.61591861 171.86010742 60.82104492 C178.95228637 68.89824873 180.7857509 74.73405132 180.47729492 85.36791992 C179.87358412 94.53918609 174.81440369 100.16407656 168.36010742 106.24682617 C165.73292303 108.74173912 163.40874117 111.40436787 161.06323242 114.16088867 C159.08883705 116.40775061 157.02602737 118.55519942 154.95483398 120.71240234 C146.49598687 129.6110533 141.67159844 138.03266938 141.83666992 150.44604492 C142.56365357 158.25592644 146.25248527 163.92046049 151.11401367 169.84838867 C167.30924554 190.41728394 173.43544226 213.65036556 170.89477539 239.58129883 C168.37605575 259.2483412 158.64408398 275.25575586 145.11010742 289.38354492 C144.28446289 290.2865332 144.28446289 290.2865332 143.44213867 291.20776367 C133.69109483 301.53664715 121.6741995 308.98645418 109.11010742 315.38354492 C108.15346191 315.87298584 108.15346191 315.87298584 107.17749023 316.37231445 C91.92738222 324.00519304 74.29098232 328.60978602 57.20776367 328.48120117 C56.48519882 328.47978622 55.76263397 328.47837128 55.01817322 328.47691345 C52.73627377 328.47136717 50.45447663 328.45882513 48.17260742 328.44604492 C46.61466614 328.44102296 45.05672331 328.43646128 43.4987793 328.43237305 C39.70251661 328.42141542 35.90632929 328.40418864 32.11010742 328.38354492 C44.49239642 341.28504044 59.76181602 352.21993748 78.28930664 352.67626953 C97.30164054 352.83827238 112.33048373 345.43377509 126.11010742 332.38354492 C131.46075781 326.69244826 136.25831806 320.53135043 140.98510742 314.32104492 C146.13774708 307.64214944 152.02472813 303.83862788 160.48510742 302.57104492 C168.74880914 301.91163239 175.65236791 304.23370202 182.11010742 309.38354492 C188.54453277 315.35212952 191.20115032 321.5300612 191.54760742 330.25854492 C191.00576408 346.29309413 178.57216661 358.32365378 168.11010742 369.38354492 C166.88227539 370.70805664 166.88227539 370.70805664 165.62963867 372.05932617 C143.10853203 395.5784139 113.62785619 408.37477544 81.18969727 409.34741211 C53.55243585 409.82760872 29.09291461 398.25002278 7.11010742 382.38354492 C18.54797536 405.17263029 36.42326718 420.61064113 60.11010742 429.38354492 C60.95186523 429.7006543 61.79362305 430.01776367 62.66088867 430.34448242 C69.04360881 432.40079736 75.46608561 432.80526119 82.11010742 433.32104492 C92.27967056 434.12776304 101.90139532 435.20269467 109.61010742 442.55932617 C114.51656705 448.52629661 117.48758105 455.6201707 117.11010742 463.38354492 C116.22960085 471.70320314 113.44962145 477.07638665 107.85229492 483.22729492 C100.58200604 488.94410327 93.75301451 490.0238895 84.67260742 489.82104492 C83.62073242 489.80710693 82.56885742 489.79316895 81.48510742 489.77880859 C66.34052709 489.42572641 52.34016342 486.45327435 38.11010742 481.38354492 C36.87776367 480.95299805 35.64541992 480.52245117 34.37573242 480.07885742 C-3.87197985 465.79648385 -30.8476749 434.98649608 -47.61254883 398.66479492 C-50.68252634 391.76018458 -52.93127653 384.67165834 -54.88989258 377.38354492 C-56.53989258 377.05354492 -58.18989258 376.72354492 -59.88989258 376.38354492 C-61.34140852 380.21909142 -62.77459291 384.04836288 -64.10864258 387.92651367 C-72.07048471 410.57407071 -84.34155282 430.04718899 -100.88989258 447.38354492 C-101.47383789 448.0306543 -102.0577832 448.67776367 -102.65942383 449.34448242 C-125.34935171 473.56684552 -160.63490358 488.5253462 -193.60473633 489.62182617 C-195.67888202 489.65207687 -197.75311643 489.67670736 -199.82739258 489.69604492 C-200.86057617 489.72504883 -201.89375977 489.75405273 -202.95825195 489.78393555 C-211.11886198 489.85112233 -217.31974464 488.38571478 -223.63989258 483.07104492 C-224.38239258 482.18416992 -225.12489258 481.29729492 -225.88989258 480.38354492 C-226.33204102 479.90401367 -226.77418945 479.42448242 -227.22973633 478.93041992 C-232.07383512 473.1455831 -233.10306166 466.10077041 -232.76879883 458.70385742 C-231.66247839 451.38161287 -228.39140248 445.40610523 -222.77661133 440.55932617 C-215.83309543 435.60652468 -208.88021139 434.32409669 -200.53320312 433.75219727 C-180.77711269 432.39826551 -160.75683576 426.01157617 -145.88989258 412.38354492 C-144.93598633 411.52116211 -143.98208008 410.6587793 -142.99926758 409.77026367 C-134.53164321 401.85144203 -127.88401319 392.88664394 -122.88989258 382.38354492 C-124.00170898 383.20145508 -124.00170898 383.20145508 -125.13598633 384.03588867 C-139.37233954 394.22960547 -154.01789451 401.60787458 -170.88989258 406.38354492 C-171.78836914 406.6387793 -172.6868457 406.89401367 -173.61254883 407.15698242 C-201.66924781 413.79819076 -231.84342693 406.82456317 -256.23364258 392.40698242 C-274.70972329 380.45467248 -299.22324647 360.64538716 -306.40551758 338.80541992 C-308.14405288 330.11274342 -307.40572905 322.09253203 -302.88989258 314.38354492 C-297.76721564 307.46925818 -290.83344734 303.80302718 -282.38989258 302.50854492 C-274.20426281 301.93910981 -267.26124412 304.24960463 -260.88989258 309.38354492 C-256.89788328 313.24737043 -253.6599605 317.68498021 -250.34716797 322.12890625 C-239.31378076 336.83231074 -224.4524778 348.96168758 -205.88989258 352.38354492 C-188.14439627 354.51990355 -172.60205516 349.352087 -158.57739258 338.38354492 C-154.76314136 335.27515683 -151.33793142 331.88631454 -147.88989258 328.38354492 C-148.80053467 328.39925537 -149.71117676 328.41496582 -150.64941406 328.43115234 C-184.57319835 328.93946219 -184.57319835 328.93946219 -197.88989258 325.38354492 C-198.52491699 325.22257324 -199.15994141 325.06160156 -199.81420898 324.89575195 C-221.98420924 319.17605672 -240.97870302 307.57467484 -257.88989258 292.38354492 C-258.77805664 291.59206055 -259.6662207 290.80057617 -260.58129883 289.98510742 C-276.73610547 274.76571212 -286.23060986 254.23636718 -287.17114258 232.03979492 C-287.76016054 208.18354118 -281.32610502 187.8321931 -266.13989258 169.19604492 C-259.95888588 161.54504483 -257.19072342 155.23463932 -257.55395508 145.20385742 C-259.22406176 131.18272921 -268.89562881 122.17204178 -278.53833008 112.72338867 C-287.58382474 103.72297123 -296.11490353 94.93506945 -296.26489258 81.57104492 C-296.14123308 73.75576475 -294.57095396 68.47707728 -289.45239258 62.57104492 C-288.18395508 61.48823242 -288.18395508 61.48823242 -286.88989258 60.38354492 C-285.65239258 59.30073242 -285.65239258 59.30073242 -284.38989258 58.19604492 C-279.53926024 54.67933648 -275.10023513 53.99664605 -269.20239258 53.94604492 C-268.54561523 53.91317383 -267.88883789 53.88030273 -267.2121582 53.84643555 C-260.09034546 53.77074478 -254.10539205 56.62348621 -248.7421875 61.22705078 C-246.6889263 63.2798138 -244.74833594 65.39418404 -242.82739258 67.57104492 C-242.13693848 68.3298999 -241.44648438 69.08875488 -240.73510742 69.87060547 C-238.77411732 72.03064691 -236.8316731 74.20625273 -234.88989258 76.38354492 C-233.56538086 77.82600586 -233.56538086 77.82600586 -232.21411133 79.29760742 C-230.07318784 81.63246892 -227.97921123 84.00251008 -225.88989258 86.38354492 C-225.08293945 87.26526367 -224.27598633 88.14698242 -223.44458008 89.05541992 C-213.10001076 100.76028429 -206.18124659 114.08266704 -202.88989258 129.38354492 C-202.69911133 130.26655273 -202.50833008 131.14956055 -202.31176758 132.05932617 C-199.28030455 155.94613209 -203.40426658 179.79569438 -217.88989258 199.38354492 C-219.44232361 201.22541225 -221.00507447 203.05862489 -222.57739258 204.88354492 C-228.77033341 212.32352845 -231.68875881 219.95257518 -231.27270508 229.68823242 C-229.59837565 241.47687838 -222.52308652 249.68107763 -213.33789062 256.65722656 C-198.76330521 267.19407878 -183.51966663 271.36123616 -165.88989258 273.38354492 C-166.15543945 272.43995117 -166.42098633 271.49635742 -166.69458008 270.52416992 C-168.90885481 262.53079518 -170.81746785 254.62428227 -171.88989258 246.38354492 C-172.05811523 245.09577148 -172.05811523 245.09577148 -172.22973633 243.78198242 C-176.77649161 200.55666504 -165.91998503 156.62957619 -153.88989258 115.38354492 C-154.3977832 114.95944336 -154.90567383 114.5353418 -155.42895508 114.09838867 C-165.20792625 105.76611923 -171.77107219 97.59326463 -173.09301758 84.34838867 C-173.61783031 61.6502378 -157.91221561 39.09252643 -142.99926758 23.17651367 C-134.34387551 14.16926827 -125.35426421 6.21213248 -114.88989258 -0.61645508 C-114.28467773 -1.01268066 -113.67946289 -1.40890625 -113.0559082 -1.81713867 C-73.04551464 -27.63681082 -39.57903792 -27.15539252 0 0 Z " fill="#FDBCAE" transform="translate(313.889892578125,22.616455078125)"/>
<path d="M0 0 C1.98 0.495 1.98 0.495 4 1 C2.01067647 8.45361648 -0.72229671 15.30321834 -4.0625 22.25 C-4.54638184 23.25708008 -5.03026367 24.26416016 -5.52880859 25.30175781 C-9.5978758 33.56187143 -14.26510922 40.82201579 -20 48 C-20.72703125 48.94617188 -21.4540625 49.89234375 -22.203125 50.8671875 C-45.73767298 80.75098403 -78.42991424 98.70481964 -115.86328125 104.609375 C-121.20709777 105.20736397 -126.56546246 105.26241885 -131.9375 105.3125 C-133.48727539 105.35600586 -133.48727539 105.35600586 -135.06835938 105.40039062 C-143.2289694 105.46757741 -149.42985206 104.00216986 -155.75 98.6875 C-156.4925 97.800625 -157.235 96.91375 -158 96 C-158.44214844 95.52046875 -158.88429688 95.0409375 -159.33984375 94.546875 C-163.63205169 89.42110783 -164.63651301 83.56872918 -165 77 C-164.72531903 74.99110441 -164.40728659 72.98625999 -164 71 C-163.34 71 -162.68 71 -162 71 C-161.08377973 72.42523153 -160.16790941 73.85068937 -159.25390625 75.27734375 C-155.09216893 80.99487072 -149.74290544 84.16489603 -143 86 C-139.98582921 86.4252257 -137.04096434 86.47607917 -134 86.4375 C-132.71935669 86.42722778 -132.71935669 86.42722778 -131.4128418 86.41674805 C-97.50519395 85.60223235 -63.51744069 73.46941561 -38 51 C-36.72189453 49.90365234 -36.72189453 49.90365234 -35.41796875 48.78515625 C-19.88310967 35.20706897 -8.54114069 18.70630108 0 0 Z " fill="#FCAC9E" transform="translate(246,407)"/>
<path d="M0 0 C5.44993356 3.21120621 9.25910667 7.20496843 11.7890625 13.05078125 C12.57998275 18.70021162 11.97049357 23.22378238 8.7890625 28.05078125 C4.80907528 32.6761718 1.16890135 35.57407619 -4.98046875 36.44140625 C-11.43824105 36.79881755 -15.6901316 36.18183317 -20.5859375 31.81640625 C-24.28783432 27.79415297 -26.41071849 24.15144116 -26.6484375 18.55078125 C-26.35889155 12.87568055 -24.56433229 8.70493044 -20.9609375 4.30078125 C-14.91930948 -0.64236895 -7.45703109 -3.20151688 0 0 Z " fill="#466264" transform="translate(315.2109375,261.94921875)"/>
<path d="M0 0 C5.54389326 3.09178663 9.06151988 6.82297546 11.25 12.8125 C12.23583534 19.28054161 11.00232339 24.45724235 7.25 29.8125 C1.59035189 35.18916571 -3.02328942 36.33735045 -10.703125 36.1875 C-16.91112752 35.42343815 -20.3403344 32.50409872 -24.25 27.8125 C-26.84115287 22.54922074 -26.4686449 16.49566123 -25.75 10.8125 C-23.4644807 5.88984305 -20.03305294 3.00200751 -15.75 -0.1875 C-10.35248784 -1.98667072 -5.39726739 -1.70913467 0 0 Z " fill="#456163" transform="translate(211.75,262.1875)"/>
<path d="M0 0 C2.33094534 0.3496418 4.66404762 0.68554487 7 1 C7 1.33 7 1.66 7 2 C0.4 2 -6.2 2 -13 2 C-8.2020469 -0.39897655 -5.14652568 -1.51368402 0 0 Z " fill="#F99B8B" transform="translate(372,349)"/>
</svg>
