<?xml version="1.0" encoding="UTF-8"?>
<svg version="1.1" xmlns="http://www.w3.org/2000/svg" width="512" height="512">
<path d="M0 0 C1.01790619 0.00215515 2.03581238 0.0043103 3.08456421 0.00653076 C17.69363523 0.05620146 32.02575853 0.30709809 46.375 3.3125 C47.34985352 3.51117676 48.32470703 3.70985352 49.32910156 3.91455078 C88.38660539 12.08468046 124.82400319 27.71035417 156.375 52.3125 C157.25929688 52.98539063 158.14359375 53.65828125 159.0546875 54.3515625 C174.64162389 66.45260257 189.26666068 80.75087979 201.375 96.3125 C202.15101563 97.2715625 202.92703125 98.230625 203.7265625 99.21875 C238.25804162 142.62975232 256.81395322 197.76040062 256.69067383 253.03979492 C256.6875221 255.97938487 256.71104926 258.9179558 256.73632812 261.85742188 C256.78098737 275.23056192 255.57551542 288.12666711 253.375 301.3125 C253.09281616 303.01805054 253.09281616 303.01805054 252.80493164 304.75805664 C245.77946967 343.86954746 228.79665906 381.05202178 204.375 412.3125 C203.61574219 413.28445313 202.85648437 414.25640625 202.07421875 415.2578125 C189.73986402 430.63741644 175.93895499 445.19015196 160.375 457.3125 C159.43914062 458.07691406 158.50328125 458.84132813 157.5390625 459.62890625 C125.58628299 485.2157721 86.41988322 501.72551276 46.375 509.3125 C45.56562988 509.47621094 44.75625977 509.63992188 43.92236328 509.80859375 C13.88110013 515.67977137 -20.7615176 514.58512909 -50.625 508.3125 C-52.14794678 507.99901611 -52.14794678 507.99901611 -53.70166016 507.67919922 C-90.84546555 499.78695344 -125.70945445 483.68345578 -155.625 460.3125 C-156.59695312 459.55324219 -157.56890625 458.79398437 -158.5703125 458.01171875 C-173.94991644 445.67736402 -188.50265196 431.87645499 -200.625 416.3125 C-201.77162109 414.90871094 -201.77162109 414.90871094 -202.94140625 413.4765625 C-228.5282721 381.52378299 -245.03801276 342.35738322 -252.625 302.3125 C-252.78871094 301.50312988 -252.95242187 300.69375977 -253.12109375 299.85986328 C-258.59069558 271.87335724 -258.46977511 238.21828161 -252.625 210.3125 C-252.42632324 209.33764648 -252.22764648 208.36279297 -252.02294922 207.35839844 C-241.93598313 159.13741149 -219.89911449 114.53770064 -185.40722656 79.14160156 C-183.63301167 77.32072238 -181.87518486 75.48496071 -180.1171875 73.6484375 C-173.01832106 66.31138736 -165.60682072 59.74213624 -157.41796875 53.64794922 C-155.58092428 52.27967127 -153.75911069 50.89264471 -151.9375 49.50390625 C-143.51077324 43.13790222 -134.81596417 37.50688619 -125.625 32.3125 C-124.99464844 31.94946777 -124.36429688 31.58643555 -123.71484375 31.21240234 C-85.96656579 9.60246645 -43.19754839 -0.16448837 0 0 Z " fill="#FE9F22" transform="translate(255.625,-0.3125)"/>
<path d="M0 0 C55.63411185 0 109.62199115 20.0266389 150.640625 57.828125 C152.23623128 59.29692813 153.85161167 60.74449071 155.484375 62.171875 C195.01695995 96.79357983 218.92525903 149.36470172 225 201 C225.11085938 201.93199219 225.22171875 202.86398438 225.3359375 203.82421875 C230.79247084 260.23297556 214.59313511 320.03703065 178.88745117 364.37963867 C175.43312444 368.56925166 171.85497457 372.64384643 168.17578125 376.63671875 C166.69441062 378.24574789 165.23409096 379.87435634 163.79296875 381.51953125 C127.14093915 423.30669634 71.25488079 446.98820759 16.66796875 451.73828125 C11.12000747 452.04933849 5.55667445 452 0 452 C0 441.77 0 431.54 0 421 C2.97 420.01 5.94 419.02 9 418 C13.59148889 413.29372389 14.35499181 409.93085276 14.28125 403.54296875 C13.86818756 399.80819582 12.49125668 397.76058172 10 395 C6.47301214 392.377368 4.47699417 391.89539883 0 391 C0 354.7 0 318.4 0 281 C-2.31 282.98 -4.62 284.96 -7 287 C-10.89427066 285.05286467 -12.89006531 283.35271594 -15.92041016 280.30664062 C-16.39570663 279.8316362 -16.87100311 279.35663177 -17.36070251 278.86723328 C-18.92494552 277.30160111 -20.48198988 275.7290108 -22.0390625 274.15625 C-23.1267086 273.06487114 -24.21479906 271.97393495 -25.30331421 270.88342285 C-28.16419501 268.01491669 -31.01902101 265.14045762 -33.87261963 262.26470947 C-36.77864955 259.3382338 -39.69033304 256.4173954 -42.6015625 253.49609375 C-47.71425123 248.36426791 -52.82197165 243.22754236 -57.92617798 238.08728027 C-59.2819572 236.7227026 -60.63981443 235.36018557 -62 234 C-61.56429687 233.61070312 -61.12859375 233.22140625 -60.6796875 232.8203125 C-48.28684542 221.17855176 -43.33271733 205.55031368 -42.125 189 C-40.36017339 168.80882742 -34.73015593 152.26815711 -21 137 C-20.45988281 136.37867188 -19.91976562 135.75734375 -19.36328125 135.1171875 C-14.38665105 129.74290888 -8.30268612 125.68214591 -2 122 C-1.34 122 -0.68 122 0 122 C0 101.87 0 81.74 0 61 C-9.25464401 65.25464401 -9.25464401 65.25464401 -14 69 C-17.61930698 70.20643566 -20.19231005 70.32268559 -24 70 C-28.93918408 67.38513784 -32.48734878 64.02530244 -35 59 C-35.54348481 54.54520651 -35.45116422 50.98079179 -33.5625 46.875 C-26.73280045 39.21241027 -17.29228496 32.78830829 -7 31 C-4.69 31 -2.38 31 0 31 C0 20.77 0 10.54 0 0 Z " fill="#FE7C48" transform="translate(256,30)"/>
<path d="M0 0 C1.01790619 0.00215515 2.03581238 0.0043103 3.08456421 0.00653076 C17.69363523 0.05620146 32.02575853 0.30709809 46.375 3.3125 C47.34985352 3.51117676 48.32470703 3.70985352 49.32910156 3.91455078 C88.38660539 12.08468046 124.82400319 27.71035417 156.375 52.3125 C157.25929688 52.98539063 158.14359375 53.65828125 159.0546875 54.3515625 C174.64162389 66.45260257 189.26666068 80.75087979 201.375 96.3125 C202.15101563 97.2715625 202.92703125 98.230625 203.7265625 99.21875 C238.25804162 142.62975232 256.81395322 197.76040062 256.69067383 253.03979492 C256.6875221 255.97938487 256.71104926 258.9179558 256.73632812 261.85742188 C256.78098737 275.23056192 255.57551542 288.12666711 253.375 301.3125 C253.09281616 303.01805054 253.09281616 303.01805054 252.80493164 304.75805664 C245.77946967 343.86954746 228.79665906 381.05202178 204.375 412.3125 C203.61574219 413.28445313 202.85648437 414.25640625 202.07421875 415.2578125 C189.73986402 430.63741644 175.93895499 445.19015196 160.375 457.3125 C159.43914062 458.07691406 158.50328125 458.84132813 157.5390625 459.62890625 C125.58628299 485.2157721 86.41988322 501.72551276 46.375 509.3125 C45.56562988 509.47621094 44.75625977 509.63992188 43.92236328 509.80859375 C13.88110013 515.67977137 -20.7615176 514.58512909 -50.625 508.3125 C-52.14794678 507.99901611 -52.14794678 507.99901611 -53.70166016 507.67919922 C-90.84546555 499.78695344 -125.70945445 483.68345578 -155.625 460.3125 C-156.59695312 459.55324219 -157.56890625 458.79398437 -158.5703125 458.01171875 C-173.94991644 445.67736402 -188.50265196 431.87645499 -200.625 416.3125 C-201.77162109 414.90871094 -201.77162109 414.90871094 -202.94140625 413.4765625 C-228.5282721 381.52378299 -245.03801276 342.35738322 -252.625 302.3125 C-252.78871094 301.50312988 -252.95242187 300.69375977 -253.12109375 299.85986328 C-258.59069558 271.87335724 -258.46977511 238.21828161 -252.625 210.3125 C-252.42632324 209.33764648 -252.22764648 208.36279297 -252.02294922 207.35839844 C-241.93598313 159.13741149 -219.89911449 114.53770064 -185.40722656 79.14160156 C-183.63301167 77.32072238 -181.87518486 75.48496071 -180.1171875 73.6484375 C-173.01832106 66.31138736 -165.60682072 59.74213624 -157.41796875 53.64794922 C-155.58092428 52.27967127 -153.75911069 50.89264471 -151.9375 49.50390625 C-143.51077324 43.13790222 -134.81596417 37.50688619 -125.625 32.3125 C-124.99464844 31.94946777 -124.36429688 31.58643555 -123.71484375 31.21240234 C-85.96656579 9.60246645 -43.19754839 -0.16448837 0 0 Z M-148.625 86.3125 C-149.51574219 87.09367187 -150.40648437 87.87484375 -151.32421875 88.6796875 C-160.61968051 96.90752349 -168.96549025 105.5349693 -176.625 115.3125 C-177.35589844 116.23804687 -178.08679688 117.16359375 -178.83984375 118.1171875 C-215.39321313 165.52735727 -231.66834581 225.3052667 -224.68212891 284.73486328 C-223.33666118 294.39018554 -221.04031014 303.87786338 -218.625 313.3125 C-218.43566895 314.06241211 -218.24633789 314.81232422 -218.05126953 315.58496094 C-211.23592078 342.05599434 -198.94603591 367.42707814 -182.625 389.3125 C-182.17656738 389.91642578 -181.72813477 390.52035156 -181.26611328 391.14257812 C-174.59727632 400.0471685 -167.3160602 408.28287515 -159.625 416.3125 C-158.91601562 417.06273437 -158.20703125 417.81296875 -157.4765625 418.5859375 C-119.96537891 457.32197606 -63.41669722 481.01584911 -9.87890625 482.625 C4.26504667 482.83728364 18.38084417 482.46357853 32.375 480.3125 C33.2942627 480.17247559 34.21352539 480.03245117 35.16064453 479.88818359 C78.44839744 472.95782515 118.72862799 454.23522085 151.01171875 424.48828125 C152.62074789 423.00691062 154.24935634 421.54659096 155.89453125 420.10546875 C197.21099984 383.86629277 221.93889853 327.6060075 226.09765625 273.40625 C227.90890504 244.0096242 224.80725396 214.28865502 215.375 186.3125 C214.99819092 185.19029053 214.99819092 185.19029053 214.61376953 184.04541016 C204.59378347 154.66040512 189.47935338 128.38517902 168.40625 105.53125 C166.58541875 103.54234201 164.85412594 101.50567024 163.125 99.4375 C125.93684117 56.93674705 67.6183502 34.0514372 12.375 30.3125 C-46.6297552 27.29321661 -104.46117864 46.80068171 -148.625 86.3125 Z " fill="#E2DFF3" transform="translate(255.625,-0.3125)"/>
<path d="M0 0 C0 9.9 0 19.8 0 30 C-4.063125 30.268125 -8.12625 30.53625 -12.3125 30.8125 C-63.08630324 34.49246692 -110.80892132 52.82628888 -149 87 C-149.90234375 87.79277344 -150.8046875 88.58554688 -151.734375 89.40234375 C-160.67736909 97.32908851 -168.60987147 105.59783306 -176 115 C-176.7321875 115.92683594 -177.464375 116.85367188 -178.21875 117.80859375 C-214.76369923 165.22695217 -231.04385378 224.9884456 -224.05712891 284.42236328 C-222.71166118 294.07768554 -220.41531014 303.56536338 -218 313 C-217.81066895 313.74991211 -217.62133789 314.49982422 -217.42626953 315.27246094 C-210.61092078 341.74349434 -198.32103591 367.11457814 -182 389 C-181.55156738 389.60392578 -181.10313477 390.20785156 -180.64111328 390.83007812 C-173.97092686 399.73647037 -166.68436876 407.96079747 -159 416 C-158.36449219 416.67675781 -157.72898437 417.35351562 -157.07421875 418.05078125 C-116.56800354 460.10377317 -57.08790292 480.03145162 0 482 C0 491.9 0 501.8 0 512 C-56.30272907 513.44365972 -111.62747731 494.66519651 -156 460 C-156.97195312 459.24074219 -157.94390625 458.48148437 -158.9453125 457.69921875 C-174.32491644 445.36486402 -188.87765196 431.56395499 -201 416 C-202.14662109 414.59621094 -202.14662109 414.59621094 -203.31640625 413.1640625 C-228.9032721 381.21128299 -245.41301276 342.04488322 -253 302 C-253.16371094 301.19062988 -253.32742187 300.38125977 -253.49609375 299.54736328 C-258.96569558 271.56085724 -258.84477511 237.90578161 -253 210 C-252.80132324 209.02514648 -252.60264648 208.05029297 -252.39794922 207.04589844 C-242.31098313 158.82491149 -220.27411449 114.22520064 -185.78222656 78.82910156 C-184.00801167 77.00822238 -182.25018486 75.17246071 -180.4921875 73.3359375 C-173.39332106 65.99888736 -165.98182072 59.42963624 -157.79296875 53.33544922 C-155.95592428 51.96717127 -154.13411069 50.58014471 -152.3125 49.19140625 C-143.88577324 42.82540222 -135.19096417 37.19438619 -126 32 C-125.36964844 31.63696777 -124.73929688 31.27393555 -124.08984375 30.89990234 C-98.27030254 16.11886701 -69.29123653 6.81078767 -40 2 C-39.29391602 1.88285645 -38.58783203 1.76571289 -37.86035156 1.64501953 C-25.24496777 -0.35643103 -12.75588067 -0.15276504 0 0 Z " fill="#F9F8F8" transform="translate(256,0)"/>
<path d="M0 0 C1.08990234 -0.01160156 2.17980469 -0.02320313 3.30273438 -0.03515625 C24.05615722 0.038831 42.44401026 8.99694595 57.0625 23.375 C57.76375 24.06335938 58.465 24.75171875 59.1875 25.4609375 C73.1832318 40.16739006 79.63497719 59.76783239 79.2421875 79.84375 C78.16371836 101.03801306 69.88082079 118.27946572 55.0625 133.375 C54.38703125 134.07496094 53.7115625 134.77492188 53.015625 135.49609375 C38.57837605 149.41772667 19.82619039 154.29279987 0.43847656 155.64697266 C-16.40790643 156.8903828 -29.75987529 162.52812559 -41.9375 174.375 C-45.66509869 172.81860203 -48.02459806 170.5296604 -50.85791016 167.68164062 C-51.33320663 167.2066362 -51.80850311 166.73163177 -52.29820251 166.24223328 C-53.86244552 164.67660111 -55.41948988 163.1040108 -56.9765625 161.53125 C-58.0642086 160.43987114 -59.15229906 159.34893495 -60.24081421 158.25842285 C-63.10169501 155.38991669 -65.95652101 152.51545762 -68.81011963 149.63970947 C-71.71614955 146.7132338 -74.62783304 143.7923954 -77.5390625 140.87109375 C-82.65175123 135.73926791 -87.75947165 130.60254236 -92.86367798 125.46228027 C-94.2194572 124.0977026 -95.57731443 122.73518557 -96.9375 121.375 C-96.28394531 120.79105469 -96.28394531 120.79105469 -95.6171875 120.1953125 C-83.22434542 108.55355176 -78.27021733 92.92531368 -77.0625 76.375 C-75.29628802 56.16797754 -69.6564416 39.66502694 -55.9375 24.375 C-55.42058594 23.76527344 -54.90367187 23.15554687 -54.37109375 22.52734375 C-40.77234872 7.56531601 -19.76844872 -0.20968302 0 0 Z " fill="#BD8371" transform="translate(290.9375,142.625)"/>
<path d="M0 0 C3.04417834 1.38257992 4.91631328 3.39314147 7.27032471 5.76463318 C8.01734901 6.51100037 8.01734901 6.51100037 8.77946472 7.27244568 C10.42067513 8.91574291 12.05100915 10.56940351 13.68145752 12.22337341 C14.81851746 13.36602967 15.9562424 14.50802454 17.09460449 15.64938354 C20.08671728 18.65294222 23.06971111 21.66540131 26.05090332 24.67979431 C29.09548186 27.75507909 32.14858702 30.82187261 35.20098877 33.88938904 C41.18723769 39.90779762 47.16388097 45.93563433 53.13458252 51.96946716 C49.34263569 56.58974289 45.3845718 60.69954228 40.89630127 64.63743591 C26.15300731 76.69591903 26.15300731 76.69591903 19.1663208 93.37986755 C19.28489424 96.59283514 19.55619037 99.75254056 19.97686768 102.93968201 C20.51787995 109.90249325 16.1485053 116.90563116 11.89630127 122.12181091 C4.10047582 130.29792053 -4.69895372 134.76292666 -16.05291748 135.21946716 C-29.61050427 134.99463156 -39.05938975 127.24733796 -48.22479248 118.04368591 C-48.97706116 117.29665909 -49.72932983 116.54963226 -50.50439453 115.77996826 C-52.08113136 114.20961154 -53.65406796 112.63543061 -55.22332764 111.05760193 C-57.6108418 108.66155919 -60.01646177 106.28481085 -62.42401123 103.90892029 C-63.96290298 102.37164052 -65.50070107 100.83326499 -67.03729248 99.29368591 C-68.10460602 98.24322334 -68.10460602 98.24322334 -69.19348145 97.17153931 C-78.38810531 87.84842686 -82.28377688 78.33593138 -82.23114014 65.37205505 C-82.09228467 59.47069791 -81.13797861 54.97034964 -77.86541748 49.96946716 C-77.24666748 48.94659607 -77.24666748 48.94659607 -76.61541748 47.90306091 C-71.00979382 39.5105505 -62.60219344 34.26945595 -52.86541748 31.96946716 C-50.48638252 31.88458637 -48.17702324 32.00791945 -45.80157471 32.14729309 C-37.79270139 32.5083521 -32.37182946 31.53299981 -26.31072998 26.09391785 C-22.84829483 22.63241547 -19.58635792 19.03011244 -16.36541748 15.34446716 C-14.34317243 13.11677395 -12.30732661 10.90322237 -10.25836182 8.7000885 C-8.99772268 7.33594228 -7.75471845 5.95523564 -6.53204346 4.55696106 C-5.69836243 3.63072433 -5.69836243 3.63072433 -4.84783936 2.68577576 C-4.12558167 1.86090164 -4.12558167 1.86090164 -3.38873291 1.0193634 C-1.86541748 -0.03053284 -1.86541748 -0.03053284 0 0 Z " fill="#F8F8F7" transform="translate(194.86541748046875,265.03053283691406)"/>
<path d="M0 0 C10.2074615 4.80211058 16.10214866 17.85928515 20 28 C26.71376197 48.559783 25.02381998 69.45704349 16 89 C11.81358726 96.97221183 6.28637628 103.59602144 0 110 C-0.67546875 110.69996094 -1.3509375 111.39992188 -2.046875 112.12109375 C-16.48412395 126.04272667 -35.23630961 130.91779987 -54.62402344 132.27197266 C-71.47040643 133.5153828 -84.82237529 139.15312559 -97 151 C-100.90851199 149.41568547 -103.52367356 146.73364905 -106.421875 143.7734375 C-106.92672424 143.26575836 -107.43157349 142.75807922 -107.95172119 142.23501587 C-109.55592096 140.61966158 -111.15300856 138.99747791 -112.75 137.375 C-113.83938107 136.27558302 -114.9292199 135.17661941 -116.01953125 134.078125 C-118.68501885 131.3906398 -121.34415143 128.69700979 -124 126 C-122.42339336 122.19058035 -120.02818535 119.7817209 -117.12789917 116.88739014 C-116.37804581 116.13497351 -116.37804581 116.13497351 -115.6130439 115.36735654 C-113.93798853 113.68900886 -112.25588872 112.01790604 -110.57373047 110.34667969 C-109.37105074 109.14456413 -108.16881129 107.94200796 -106.96697998 106.73904419 C-103.703071 103.47456092 -100.43302818 100.21628484 -97.16186285 96.95907497 C-93.74432242 93.55402914 -90.33243734 90.14332632 -86.91995239 86.73321533 C-80.4570625 80.27654394 -73.98909083 73.82498812 -67.51928532 67.37524724 C-60.15389166 60.03220105 -52.7941699 52.68348136 -45.43492293 45.33427572 C-30.29625853 30.2165217 -15.15047294 15.1059193 0 0 Z " fill="#A05F4B" transform="translate(346,166)"/>
<path d="M0 0 C1.11268262 0.94659708 2.22434643 1.89439181 3.33558655 2.84268188 C4.26433893 3.63419112 4.26433893 3.63419112 5.21185398 4.44169044 C7.59526944 6.51875745 9.83076672 8.71854951 12.05859375 10.9609375 C12.93837891 11.84394531 13.81816406 12.72695313 14.72460938 13.63671875 C15.61986328 14.54035156 16.51511719 15.44398438 17.4375 16.375 C18.35982422 17.30183594 19.28214844 18.22867187 20.23242188 19.18359375 C22.49058625 21.45345846 24.74636942 23.72563538 27 26 C23.29141623 30.68417517 19.20813355 34.68975127 14.76171875 38.66796875 C0.02047206 50.72805193 0.02047206 50.72805193 -6.96826172 67.41040039 C-6.84968828 70.62336798 -6.57839215 73.7830734 -6.15771484 76.97021484 C-5.61670257 83.93302609 -9.98607722 90.93616399 -14.23828125 96.15234375 C-22.0341067 104.32845337 -30.83353624 108.7934595 -42.1875 109.25 C-54.99829063 109.03754908 -64.1407668 102.23679002 -72.83398438 93.4296875 C-73.56939453 92.66914063 -74.30480469 91.90859375 -75.0625 91.125 C-75.83271484 90.34125 -76.60292969 89.5575 -77.39648438 88.75 C-79.27145808 86.8400889 -81.1389901 84.92350292 -83 83 C-55.33333333 55.33333333 -27.66666667 27.66666667 0 0 Z " fill="#E2DEF3" transform="translate(221,291)"/>
<path d="M0 0 C7.00847553 4.61650436 11.61535847 10.88747744 13.8125 19 C13.874375 19.99 13.93625 20.98 14 22 C14.061875 22.65355469 14.12375 23.30710937 14.1875 23.98046875 C14.65686255 32.26765122 12.04174471 39.88908643 6.875 46.375 C0.90684864 52.66610327 -7.36028507 56.0944114 -15.9375 56.4375 C-24.33045421 56.35328976 -30.72799788 53.53943858 -37.1640625 48.20703125 C-43.35815989 41.8152499 -46.10771778 33.85629775 -46.625 25.0625 C-46.28881653 16.43379102 -42.45350374 8.88929008 -36.1875 3 C-25.02176915 -5.63286185 -12.62266851 -6.56378763 0 0 Z " fill="#FF9E22" transform="translate(353,354)"/>
<path d="M0 0 C10.43724556 7.63747348 10.43724556 7.63747348 11.7578125 13.99609375 C11.99618862 19.8522005 11.21874424 23.77083974 7.1875 28.25 C3.88490076 31.15228418 1.30592552 32.16559053 -3.125 32.5 C-7.85921496 32.17903627 -10.82484024 30.64426656 -14.68359375 27.9375 C-18.51821958 25.30633374 -21.73400371 23.33365299 -26.59375 23.61328125 C-30.65560462 24.77891911 -33.95874697 27.2223445 -37.39453125 29.62109375 C-41.53326182 32.4092208 -44.90151593 32.66618509 -49.8125 32.25 C-54.75168408 29.63513784 -58.29984878 26.27530244 -60.8125 21.25 C-61.35598481 16.79520651 -61.26366422 13.23079179 -59.375 9.125 C-43.92377818 -8.21051717 -19.84412353 -12.22718722 0 0 Z " fill="#A05F4B" transform="translate(281.8125,67.75)"/>
<path d="M0 0 C3.97438611 3.11357437 5.46908898 6.7728383 6.1953125 11.765625 C5.47799963 16.87647919 4.21391035 21.40080069 -0.03515625 24.65234375 C-4.2681065 26.92512542 -8.58423711 27.90571933 -13.26171875 28.84765625 C-17.43307342 29.8286823 -19.64719013 31.32970307 -21.9921875 34.890625 C-23.10937042 37.81658027 -23.70916617 40.27244239 -24.2421875 43.328125 C-25.07937759 47.81789444 -26.17636503 50.86160551 -29.3046875 54.328125 C-34.05181374 57.01517759 -37.88053684 58.00614383 -43.3046875 57.328125 C-48.6388387 55.15830078 -51.37597294 52.91461636 -53.64453125 47.58203125 C-56.4074348 38.14892267 -53.36789149 27.95458 -48.796875 19.55859375 C-41.63149922 8.7105481 -31.29995278 0.29891598 -18.3671875 -2.38671875 C-11.72861278 -3.304552 -5.94488899 -3.41770946 0 0 Z " fill="#FFD322" transform="translate(125.3046875,213.671875)"/>
<path d="M0 0 C9.76836601 5.32819964 14.39110129 15.92603738 17.5390625 26.109375 C20.07841068 38.97224148 16.65542989 51.14961286 9.63671875 61.95703125 C6.09748043 66.73911837 3.04311722 70.55674624 -2.9765625 71.86328125 C-8.16293412 72.15465044 -12.03557162 71.85188191 -16.16796875 68.5390625 C-19.71929145 64.8408481 -20.89027483 61.90619567 -21.35546875 56.7890625 C-20.94872663 52.15220239 -19.3878062 49.14375637 -16.73046875 45.35546875 C-13.28807679 40.33857365 -12.15598721 37.33687974 -13.04296875 31.2265625 C-14.74146485 28.09531789 -14.74146485 28.09531789 -17.04296875 25.2265625 C-19.96845502 21.06565129 -21.79077454 17.57344781 -21.4921875 12.28125 C-20.35045143 7.05904851 -17.52945588 3.28362002 -13.23046875 0.2265625 C-8.50483505 -1.25598925 -4.63839728 -1.75602803 0 0 Z " fill="#A15F4A" transform="translate(432.04296875,201.7734375)"/>
<path d="M0 0 C0 9.9 0 19.8 0 30 C-4.95 32.475 -4.95 32.475 -10 35 C-11.32 35.99 -12.64 36.98 -14 38 C-17.61930698 39.20643566 -20.19231005 39.32268559 -24 39 C-28.93918408 36.38513784 -32.48734878 33.02530244 -35 28 C-35.54348481 23.54520651 -35.45116422 19.98079179 -33.5625 15.875 C-24.64943105 5.87497143 -13.3794061 0 0 0 Z " fill="#BE8470" transform="translate(256,61)"/>
<path d="M0 0 C3.64092677 3.21756319 6.2788541 5.81470836 7.0703125 10.7734375 C7.32633919 16.45722994 6.62376932 20.02438655 2.6875 24.375 C-1.44604947 28.02790418 -4.6903446 29.03982992 -10.0703125 28.75 C-14.63112095 27.98721671 -17.87242635 26.33912413 -20.6328125 22.57421875 C-23.08185976 18.16422105 -24.05163628 14.4565619 -23.3125 9.375 C-21.5859301 4.53243118 -18.9238994 1.32493725 -14.3046875 -0.96484375 C-9.14692449 -2.67398483 -4.84663839 -2.37759619 0 0 Z " fill="#FF9F22" transform="translate(264.3125,422.625)"/>
<path d="M0 0 C4.36492736 2.40706674 5.93942071 4.83284673 7.8125 9.4375 C8.54520346 14.47483626 7.62027557 18.24512573 5.20703125 22.63671875 C1.89427009 26.91454198 -2.56531496 28.20982491 -7.75 28.9375 C-11.90567414 28.33303831 -15.0494453 27.21048398 -18.1875 24.4375 C-21.62339266 19.77883377 -23.03044428 15.23274192 -22.1875 9.4375 C-20.42898855 4.50534364 -17.74068059 1.40845153 -13.0390625 -0.90234375 C-8.34602817 -2.57559861 -4.45447532 -1.90552555 0 0 Z " fill="#FFD322" transform="translate(183.1875,122.5625)"/>
<path d="M0 0 C4.36492736 2.40706674 5.93942071 4.83284673 7.8125 9.4375 C8.54520346 14.47483626 7.62027557 18.24512573 5.20703125 22.63671875 C1.9113554 26.89247944 -2.54684459 28.17382324 -7.6875 29 C-12.37661747 28.24639184 -15.64727219 26.60297396 -19.1875 23.4375 C-21.96706547 18.74698327 -22.94668986 14.84672773 -22.1875 9.4375 C-20.31691018 5.1127603 -18.19271638 2.13678096 -14.3125 -0.5625 C-9.07768302 -2.23764143 -5.03166659 -2.16576373 0 0 Z " fill="#FF9E22" transform="translate(438.1875,307.5625)"/>
<path d="M0 0 C4.36492736 2.40706674 5.93942071 4.83284673 7.8125 9.4375 C8.54520346 14.47483626 7.62027557 18.24512573 5.20703125 22.63671875 C1.9113554 26.89247944 -2.54684459 28.17382324 -7.6875 29 C-12.37661747 28.24639184 -15.64727219 26.60297396 -19.1875 23.4375 C-21.97287223 18.73718437 -22.86540686 14.86075487 -22.1875 9.4375 C-20.44294414 4.504976 -17.73316107 1.40475576 -13.0390625 -0.90234375 C-8.34602817 -2.57559861 -4.45447532 -1.90552555 0 0 Z " fill="#BE8470" transform="translate(113.1875,152.5625)"/>
<path d="M0 0 C4.36492736 2.40706674 5.93942071 4.83284673 7.8125 9.4375 C8.54520346 14.47483626 7.62027557 18.24512573 5.20703125 22.63671875 C1.9113554 26.89247944 -2.54684459 28.17382324 -7.6875 29 C-12.37661747 28.24639184 -15.64727219 26.60297396 -19.1875 23.4375 C-21.96706547 18.74698327 -22.94668986 14.84672773 -22.1875 9.4375 C-20.31691018 5.1127603 -18.19271638 2.13678096 -14.3125 -0.5625 C-9.07768302 -2.23764143 -5.03166659 -2.16576373 0 0 Z " fill="#FF9E22" transform="translate(378.1875,107.5625)"/>
<path d="M0 0 C0 9.9 0 19.8 0 30 C-8.4 28.8 -8.4 28.8 -12 25 C-14.61960863 20.2124394 -15.67958649 16.4366919 -15 11 C-13.4875308 6.72367341 -11.37995235 3.93219133 -7.5 1.5625 C-4 0 -4 0 0 0 Z " fill="#FFD322" transform="translate(256,421)"/>
</svg>
