<?xml version="1.0" encoding="UTF-8"?>
<svg version="1.1" xmlns="http://www.w3.org/2000/svg" width="512" height="512">
<path d="M0 0 C0.86270508 0.19335938 1.72541016 0.38671875 2.61425781 0.5859375 C33.87790509 7.81349492 61.86881477 22.75574672 85 45 C85.52271484 45.49161621 86.04542969 45.98323242 86.58398438 46.48974609 C118.4307798 76.52995307 139.35004257 120.04604685 141.12426758 164.08447266 C141.41111315 176.4516909 141.54650678 188.85393287 139.8125 201.125 C139.71163086 201.85428711 139.61076172 202.58357422 139.50683594 203.33496094 C136.90833384 219.36722857 131.52770456 234.81573595 126.184021 250.0920105 C120.50388273 266.35967638 114.93647018 282.59353909 110.68701172 299.30322266 C109.96989264 302.11818263 109.22239471 304.9240345 108.47265625 307.73046875 C97.12356804 350.86347065 90.58502837 395.97052743 89.73828125 440.578125 C89.72100983 441.45362 89.7037384 442.32911499 89.6859436 443.23114014 C89.60883715 447.43292961 89.55866036 451.63246687 89.55371094 455.83496094 C89.45738288 469.26529091 87.56489885 481.13610198 79 492 C77.9171875 493.546875 77.9171875 493.546875 76.8125 495.125 C70.65462882 502.27929047 60.24958889 507.51185532 51 509 C41.22979396 509.69292241 32.14633727 510.28341518 24 504 C17.93291405 498.42554069 14.35601275 491.80146713 13.84760094 483.51655483 C13.8279954 476.65273425 14.50764304 470.08374169 15.55712891 463.30688477 C15.80601868 461.63557243 15.80601868 461.63557243 16.05993652 459.93049622 C16.60767429 456.26624553 17.16693548 452.60385841 17.7265625 448.94140625 C18.11637725 446.35303479 18.50555603 443.76456748 18.89413452 441.17601013 C19.71094911 435.74256792 20.53382056 430.31007171 21.36083984 424.87817383 C22.40391207 418.02703336 23.43712704 411.17444705 24.46708488 404.32132435 C31.18588267 359.6186397 31.18588267 359.6186397 33.90283203 343.55737305 C34.04617037 342.70959069 34.18950871 341.86180834 34.33719063 340.98833561 C34.9742288 337.23881976 35.62191415 333.49162067 36.28897095 329.74732971 C40.37025121 306.28907026 38.66574481 284.19885347 24.72021484 264.16113281 C13.10085517 248.66581683 -3.50012343 237.52131512 -22.5625 233.453125 C-43.5055946 230.69244435 -64.23965319 233.52627752 -81.73046875 245.9375 C-83.21999569 247.10385062 -84.69148246 248.2941203 -86.1328125 249.51953125 C-88 251 -88 251 -90.1171875 251.94921875 C-92.50587665 253.28232535 -92.88492628 254.5450023 -94 257 C-95.03189313 258.17347213 -96.09761291 259.31768466 -97.1875 260.4375 C-101.90077793 265.655772 -104.86981019 271.75864889 -108 278 C-107.1440625 278.25910156 -106.288125 278.51820313 -105.40625 278.78515625 C-74.988689 289.63362124 -52.40851391 319.05082362 -37 346 C-36.45085937 346.88816406 -35.90171875 347.77632813 -35.3359375 348.69140625 C-32.56388816 353.26761062 -31.21141314 356.47989195 -32 362 C-34 364 -34 364 -37.9375 364.2890625 C-43.51451494 364.1576552 -48.64438779 362.84999569 -54 361.375 C-55.50904907 360.96785767 -55.50904907 360.96785767 -57.04858398 360.55249023 C-71.10814796 356.68373616 -84.1366848 351.89033366 -97 345 C-92.14232813 355.27907355 -87.27012552 365.55120538 -82.375 375.8125 C-81.91206543 376.78574219 -81.44913086 377.75898438 -80.97216797 378.76171875 C-78.95258155 382.99172996 -76.91796836 387.20516409 -74.74609375 391.359375 C-74.41496582 391.99641357 -74.08383789 392.63345215 -73.74267578 393.28979492 C-72.88773239 394.91912405 -72.01688028 396.54007947 -71.14453125 398.16015625 C-69.85910898 401.34958284 -69.66111937 403.59182911 -70 407 C-71.5625 408.9375 -71.5625 408.9375 -74 410 C-80.35313531 409.68889286 -85.30368345 407.2341146 -90.9375 404.4375 C-92.55379398 403.64525365 -94.1704345 402.85371405 -95.78735352 402.06274414 C-97.19156901 401.37516276 -98.59578451 400.68758138 -100 400 C-98.50257919 412.09626879 -96.8683043 424.16091074 -94.95703125 436.19921875 C-94.78211151 437.30508331 -94.60719177 438.41094788 -94.42697144 439.55032349 C-93.70833746 444.08164496 -92.98660354 448.61240494 -92.25317383 453.14135742 C-91.70864019 456.51354402 -91.17577616 459.88741667 -90.64453125 463.26171875 C-90.47895218 464.2650676 -90.31337311 465.26841644 -90.14277649 466.3021698 C-88.29459461 478.16547517 -87.70289194 488.5246271 -94.25 499 C-98.09851504 504.07304256 -102.87375426 507.29280945 -109 509 C-122.81014976 510.83428985 -134.64680717 508.13812938 -146 500 C-147.5159375 498.9171875 -147.5159375 498.9171875 -149.0625 497.8125 C-158.77826573 489.28480345 -163.86335412 476.82326024 -164.82958984 464.17114258 C-165.12445494 458.68403272 -165.22386824 453.19473102 -165.3302002 447.70126343 C-166.12849139 409.5904718 -170.2522209 371.62527812 -177.75 334.25 C-177.90456665 333.47945282 -178.0591333 332.70890564 -178.21838379 331.91500854 C-179.07224198 324.37469254 -179.07224198 324.37469254 -182 318 C-184.09458833 318.00423149 -186.18942991 318.01536633 -188.28344727 318.06445312 C-201.01995062 318.36201816 -201.01995062 318.36201816 -206.5625 316.5 C-217.8811037 312.81528322 -231.35689691 313.86038184 -242 319 C-254.69701886 325.6870966 -262.0948494 334.77035642 -266.81640625 348.34765625 C-270.13732134 361.14362979 -267.70174496 373.99974603 -261.56640625 385.51953125 C-254.77914122 396.2674447 -245.72296422 403.27000735 -233.38671875 406.296875 C-230.66377542 406.86219195 -227.94167747 407.38713993 -225.20703125 407.890625 C-209.38843089 410.82142226 -196.2883229 415.21973613 -186.1875 428.6875 C-178.41083856 440.58229893 -175.34561344 454.02216374 -177.4609375 468.05859375 C-180.58078089 482.17129709 -188.44494384 493.89517582 -200.5 501.9375 C-218.22751357 512.47483324 -239.25388979 509.74816429 -258.46484375 504.93359375 C-284.71443193 497.82903007 -306.37005174 484.73024229 -326 466 C-326.804375 465.24847656 -327.60875 464.49695313 -328.4375 463.72265625 C-348.67523983 444.29302061 -361.39391375 417.22755659 -367 390 C-367.18473877 389.12899658 -367.36947754 388.25799316 -367.55981445 387.3605957 C-369.2174076 378.68529367 -369.35658477 370.10698971 -369.3125 361.3125 C-369.31067719 360.55954651 -369.30885437 359.80659302 -369.30697632 359.03082275 C-369.26230989 348.08478343 -368.88639041 337.6219167 -366 327 C-365.73461426 326.01773438 -365.73461426 326.01773438 -365.46386719 325.015625 C-364.15513938 320.27798514 -362.64307513 315.63143992 -361 311 C-360.77973145 310.37383789 -360.55946289 309.74767578 -360.33251953 309.10253906 C-353.32406405 289.54808304 -342.24094197 273.06580062 -328 258 C-327.25363281 257.18917969 -326.50726563 256.37835938 -325.73828125 255.54296875 C-315.16946597 244.45007999 -302.51323277 236.08051215 -289 229 C-287.28103516 228.09121094 -287.28103516 228.09121094 -285.52734375 227.1640625 C-262.78182444 215.61955606 -238.14769178 212.73183741 -213 213 C-213.30744141 211.43378906 -213.30744141 211.43378906 -213.62109375 209.8359375 C-222.18430344 163.99105009 -213.67253571 115.65545123 -187.44873047 76.6953125 C-177.85996986 62.84581427 -167.18943618 49.5940194 -154 39 C-153.02160156 38.18402344 -152.04320312 37.36804687 -151.03515625 36.52734375 C-128.91219541 18.35259052 -102.94435126 6.14515398 -75 0 C-74.32855957 -0.15098145 -73.65711914 -0.30196289 -72.96533203 -0.45751953 C-49.99378335 -5.3675093 -22.89007152 -5.25377109 0 0 Z " fill="#FB7878" transform="translate(370,3)"/>
<path d="M0 0 C0 18.15 0 36.3 0 55 C5.28 55 10.56 55 16 55 C16 36.85 16 18.7 16 0 C25.648556 0 33.73916074 1.00292834 43 3 C43.98613281 3.20496094 44.97226562 3.40992188 45.98828125 3.62109375 C76.03123568 10.46255862 101.36643261 25.527391 124 46 C124.87269531 46.78761719 125.74539063 47.57523438 126.64453125 48.38671875 C138.01250129 59.20373709 147.24849749 72.41289923 155 86 C155.89912109 87.57201172 155.89912109 87.57201172 156.81640625 89.17578125 C161 96.65965777 161 96.65965777 161 99 C161.66 99 162.32 99 163 99 C161.36885467 105.6169103 159.68823675 112.21922576 157.94921875 118.80859375 C147.51395534 158.44760502 140.25904152 198.13359454 137 239 C136.90501221 240.16877686 136.81002441 241.33755371 136.7121582 242.54174805 C136.19099896 249.53674836 135.9158028 256.49205123 135.82421875 263.50390625 C135.81220428 264.32437439 135.80018982 265.14484253 135.78781128 265.99017334 C135.73960193 269.36187385 135.69187937 272.73320632 135.67407227 276.10522461 C135.58187946 290.82345129 134.46321123 303.99666365 125 316 C123.9171875 317.546875 123.9171875 317.546875 122.8125 319.125 C116.65462882 326.27929047 106.24958889 331.51185532 97 333 C87.22979396 333.69292241 78.14633727 334.28341518 70 328 C63.93291405 322.42554069 60.35601275 315.80146713 59.84760094 307.51655483 C59.8279954 300.65273425 60.50764304 294.08374169 61.55712891 287.30688477 C61.80601868 285.63557243 61.80601868 285.63557243 62.05993652 283.93049622 C62.60767429 280.26624553 63.16693548 276.60385841 63.7265625 272.94140625 C64.11637725 270.35303479 64.50555603 267.76456748 64.89413452 265.17601013 C65.71094911 259.74256792 66.53382056 254.31007171 67.36083984 248.87817383 C68.40391207 242.02703336 69.43712704 235.17444705 70.46708488 228.32132435 C77.18588267 183.6186397 77.18588267 183.6186397 79.90283203 167.55737305 C80.04617037 166.70959069 80.18950871 165.86180834 80.33719063 164.98833561 C80.9742288 161.23881976 81.62191415 157.49162067 82.28897095 153.74732971 C86.37025121 130.28907026 84.66574481 108.19885347 70.72021484 88.16113281 C59.10085517 72.66581683 42.49987657 61.52131512 23.4375 57.453125 C2.4944054 54.69244435 -18.23965319 57.52627752 -35.73046875 69.9375 C-37.21999569 71.10385062 -38.69148246 72.2941203 -40.1328125 73.51953125 C-42 75 -42 75 -44.1171875 75.94921875 C-46.50587665 77.28232535 -46.88492628 78.5450023 -48 81 C-49.03189313 82.17347213 -50.09761291 83.31768466 -51.1875 84.4375 C-55.90077793 89.655772 -58.86981019 95.75864889 -62 102 C-61.1440625 102.25910156 -60.288125 102.51820313 -59.40625 102.78515625 C-28.988689 113.63362124 -6.40851391 143.05082362 9 170 C9.82371094 171.33224609 9.82371094 171.33224609 10.6640625 172.69140625 C13.43611184 177.26761062 14.78858686 180.47989195 14 186 C12 188 12 188 8.0625 188.2890625 C2.48548506 188.1576552 -2.64438779 186.84999569 -8 185.375 C-9.50904907 184.96785767 -9.50904907 184.96785767 -11.04858398 184.55249023 C-25.10814796 180.68373616 -38.1366848 175.89033366 -51 169 C-46.14232813 179.27907355 -41.27012552 189.55120538 -36.375 199.8125 C-35.68059814 201.27236328 -35.68059814 201.27236328 -34.97216797 202.76171875 C-32.95258155 206.99172996 -30.91796836 211.20516409 -28.74609375 215.359375 C-28.41496582 215.99641357 -28.08383789 216.63345215 -27.74267578 217.28979492 C-26.88773239 218.91912405 -26.01688028 220.54007947 -25.14453125 222.16015625 C-23.85910898 225.34958284 -23.66111937 227.59182911 -24 231 C-25.5625 232.9375 -25.5625 232.9375 -28 234 C-34.35313531 233.68889286 -39.30368345 231.2341146 -44.9375 228.4375 C-46.55379398 227.64525365 -48.1704345 226.85371405 -49.78735352 226.06274414 C-51.19156901 225.37516276 -52.59578451 224.68758138 -54 224 C-52.50257919 236.09626879 -50.8683043 248.16091074 -48.95703125 260.19921875 C-48.78211151 261.30508331 -48.60719177 262.41094788 -48.42697144 263.55032349 C-47.70833746 268.08164496 -46.98660354 272.61240494 -46.25317383 277.14135742 C-45.70864019 280.51354402 -45.17577616 283.88741667 -44.64453125 287.26171875 C-44.47895218 288.2650676 -44.31337311 289.26841644 -44.14277649 290.3021698 C-42.29459461 302.16547517 -41.70289194 312.5246271 -48.25 323 C-52.09851504 328.07304256 -56.87375426 331.29280945 -63 333 C-76.81014976 334.83428985 -88.64680717 332.13812938 -100 324 C-101.010625 323.278125 -102.02125 322.55625 -103.0625 321.8125 C-112.77826573 313.28480345 -117.86335412 300.82326024 -118.82958984 288.17114258 C-119.12445494 282.68403272 -119.22386824 277.19473102 -119.3302002 271.70126343 C-120.16029524 232.07214127 -124.4913688 192.57949786 -132.85253906 153.82592773 C-133.00282562 153.11876114 -133.15311218 152.41159454 -133.30795288 151.68299866 C-133.71498128 149.7759094 -134.13227214 147.87101859 -134.55029297 145.96630859 C-135 143 -135 143 -134 140 C-132.1015625 139.1484375 -132.1015625 139.1484375 -129.625 138.375 C-119.74761199 134.64291874 -112.5284105 126.73529321 -105.28540039 119.30932617 C-102.49995185 116.45717672 -99.65881062 113.82097721 -96.5625 111.3125 C-92.47968681 107.83234738 -90.21328407 103.8387587 -88 99 C-87.566875 98.071875 -87.13375 97.14375 -86.6875 96.1875 C-84.47406308 85.92520155 -86.1140522 76.81517289 -91.28515625 67.74609375 C-94.91830273 62.41275615 -99.48478757 59.22515883 -105 56 C-105.70382813 55.58492187 -106.40765625 55.16984375 -107.1328125 54.7421875 C-108.74438369 53.8091726 -110.37053753 52.90140477 -112 52 C-104.67615856 34.23664977 -73.34227985 19.18326727 -56.95483398 12.2878418 C-53.99626623 11.11507265 -51.00320289 10.05229022 -48 9 C-46.85144531 8.56300781 -45.70289063 8.12601563 -44.51953125 7.67578125 C-37.02918224 4.95573085 -29.57214401 3.15501728 -21.75 1.6875 C-20.85144287 1.51589355 -19.95288574 1.34428711 -19.02709961 1.16748047 C-12.43568576 0.01049943 -6.88153431 0 0 0 Z " fill="#FA5858" transform="translate(324,179)"/>
<path d="M0 0 C0 23.76 0 47.52 0 72 C-6.93 72.99 -13.86 73.98 -21 75 C-51.23061337 80.69027092 -79.55544543 92.04497552 -104 111 C-104.96550781 111.66386719 -105.93101562 112.32773438 -106.92578125 113.01171875 C-113.60069764 117.77399629 -116.06799659 122.09820829 -118 130 C-118.29519531 131.15113281 -118.59039062 132.30226562 -118.89453125 133.48828125 C-120.4592746 139.67679053 -120.4592746 139.67679053 -121 146 C-120.18917969 145.16597656 -119.37835938 144.33195313 -118.54296875 143.47265625 C-111.70698698 136.499435 -104.78314771 129.92798648 -97 124 C-95.95585937 123.20078125 -94.91171875 122.4015625 -93.8359375 121.578125 C-66.08637 100.81151683 -34.41892734 90.15118296 0 88 C0 112.75 0 137.5 0 163 C-13.86 164.98 -13.86 164.98 -28 167 C-61.17151242 174.68608215 -91.11129141 189.48087879 -116 213 C-116.59296875 213.45246094 -117.1859375 213.90492188 -117.796875 214.37109375 C-119.69658499 216.94310371 -119.05324908 219.09525776 -118.6875 222.1875 C-118.56761719 223.27417969 -118.44773438 224.36085937 -118.32421875 225.48046875 C-118.21722656 226.31191406 -118.11023438 227.14335937 -118 228 C-122.31414198 227.25188289 -126.40604338 225.96945863 -130.5625 224.625 C-142.3212579 220.90854293 -153.75558646 218.42182398 -166 217 C-178.60778228 188.25003623 -170.48816605 144.51752061 -159.99072266 116.28564453 C-148.91212601 87.99738009 -131.90318065 61.19951361 -108 42 C-107.02160156 41.18402344 -106.04320312 40.36804687 -105.03515625 39.52734375 C-80.16335759 19.09432819 -50.40353586 6.16541671 -18.625 1.25 C-17.80475342 1.12214111 -16.98450684 0.99428223 -16.1394043 0.86254883 C-14.94504761 0.69082153 -14.94504761 0.69082153 -13.7265625 0.515625 C-12.68363037 0.36528809 -12.68363037 0.36528809 -11.61962891 0.21191406 C-7.75838847 -0.10043978 -3.87385372 0 0 0 Z " fill="#FA5858" transform="translate(324,0)"/>
<path d="M0 0 C24.24603494 2.77097542 45.75322597 17.67377592 63 34 C64.30904297 35.21236328 64.30904297 35.21236328 65.64453125 36.44921875 C77.7104998 47.99733458 86.74919074 61.56950299 95 76 C95.54914063 76.88816406 96.09828125 77.77632813 96.6640625 78.69140625 C99.43611184 83.26761062 100.78858686 86.47989195 100 92 C98 94 98 94 94.0625 94.2890625 C88.48548506 94.1576552 83.35561221 92.84999569 78 91.375 C76.99396729 91.10357178 75.98793457 90.83214355 74.95141602 90.55249023 C60.89185204 86.68373616 47.8633152 81.89033366 35 75 C39.85767187 85.27907355 44.72987448 95.55120538 49.625 105.8125 C50.08793457 106.78574219 50.55086914 107.75898438 51.02783203 108.76171875 C53.04741845 112.99172996 55.08203164 117.20516409 57.25390625 121.359375 C57.75059814 122.31493286 57.75059814 122.31493286 58.25732422 123.28979492 C59.11226761 124.91912405 59.98311972 126.54007947 60.85546875 128.16015625 C62.14089102 131.34958284 62.33888063 133.59182911 62 137 C60.4375 138.9375 60.4375 138.9375 58 140 C51.64686469 139.68889286 46.69631655 137.2341146 41.0625 134.4375 C39.44620602 133.64525365 37.8295655 132.85371405 36.21264648 132.06274414 C34.80843099 131.37516276 33.40421549 130.68758138 32 130 C33.49742081 142.09626879 35.1316957 154.16091074 37.04296875 166.19921875 C37.21788849 167.30508331 37.39280823 168.41094788 37.57302856 169.55032349 C38.29166254 174.08164496 39.01339646 178.61240494 39.74682617 183.14135742 C40.29135981 186.51354402 40.82422384 189.88741667 41.35546875 193.26171875 C41.52104782 194.2650676 41.68662689 195.26841644 41.85722351 196.3021698 C43.70540539 208.16547517 44.29710806 218.5246271 37.75 229 C33.90148496 234.07304256 29.12624574 237.29280945 23 239 C9.18985024 240.83428985 -2.64680717 238.13812938 -14 230 C-15.010625 229.278125 -16.02125 228.55625 -17.0625 227.8125 C-26.77826573 219.28480345 -31.86335412 206.82326024 -32.82958984 194.17114258 C-33.12445494 188.68403272 -33.22386824 183.19473102 -33.3302002 177.70126343 C-34.16029524 138.07214127 -38.4913688 98.57949786 -46.85253906 59.82592773 C-47.0779689 58.76517784 -47.0779689 58.76517784 -47.30795288 57.68299866 C-47.71498128 55.7759094 -48.13227214 53.87101859 -48.55029297 51.96630859 C-49 49 -49 49 -48 46 C-46.1015625 45.1484375 -46.1015625 45.1484375 -43.625 44.375 C-33.74761199 40.64291874 -26.5284105 32.73529321 -19.28540039 25.30932617 C-16.49995185 22.45717672 -13.65881062 19.82097721 -10.5625 17.3125 C-5.21649204 12.76672608 -2.31895606 6.5352398 0 0 Z " fill="#D63030" transform="translate(238,273)"/>
<path d="M0 0 C4.95946465 1.45866607 9.16977229 3.57261556 13.625 6.125 C14.33011719 6.52678467 15.03523438 6.92856934 15.76171875 7.3425293 C38.5222417 20.44996748 59.4408987 37.4408987 78 56 C78.27858499 60.59751965 77.81201359 64.74312831 76.86328125 69.234375 C76.61811768 70.4294165 76.3729541 71.62445801 76.12036133 72.85571289 C75.85376709 74.14082764 75.58717285 75.42594238 75.3125 76.75 C68.6464687 109.96777134 64.38177098 143.67835678 63.73828125 177.578125 C63.72100983 178.45362 63.7037384 179.32911499 63.6859436 180.23114014 C63.60883715 184.43292961 63.55866036 188.63246687 63.55371094 192.83496094 C63.45738288 206.26529091 61.56489885 218.13610198 53 229 C52.278125 230.03125 51.55625 231.0625 50.8125 232.125 C44.65462882 239.27929047 34.24958889 244.51185532 25 246 C15.22979396 246.69292241 6.14633727 247.28341518 -2 241 C-8.06708595 235.42554069 -11.64398725 228.80146713 -12.15239906 220.51655483 C-12.1720046 213.65273425 -11.49235696 207.08374169 -10.44287109 200.30688477 C-10.27694458 199.19267654 -10.11101807 198.07846832 -9.94006348 196.93049622 C-9.39232571 193.26624553 -8.83306452 189.60385841 -8.2734375 185.94140625 C-7.88362275 183.35303479 -7.49444397 180.76456748 -7.10586548 178.17601013 C-6.28905089 172.74256792 -5.46617944 167.31007171 -4.63916016 161.87817383 C-3.59608793 155.02703336 -2.56287296 148.17444705 -1.53291512 141.32132435 C5.18588267 96.6186397 5.18588267 96.6186397 7.90283203 80.55737305 C8.04617037 79.70959069 8.18950871 78.86180834 8.33719063 77.98833561 C8.9742288 74.23881976 9.62191415 70.49162067 10.28897095 66.74732971 C14.19210929 44.31298901 12.43581427 26.40914645 1.609375 6.265625 C0 3 0 3 0 0 Z " fill="#FA5757" transform="translate(396,266)"/>
<path d="M0 0 C3.31044801 1.26250829 6.34501107 2.71706855 9.4375 4.4375 C15.69383877 7.59810966 22.15031971 8.74129807 29 10 C44.26185314 12.80452857 57.19733237 17.8672765 66.8125 30.6875 C74.58916144 42.58229893 77.65438656 56.02216374 75.5390625 70.05859375 C72.41921911 84.17129709 64.55505616 95.89517582 52.5 103.9375 C34.77248643 114.47483324 13.74611021 111.74816429 -5.46484375 106.93359375 C-31.71443193 99.82903007 -53.37005174 86.73024229 -73 68 C-73.804375 67.24847656 -74.60875 66.49695313 -75.4375 65.72265625 C-85.69730125 55.87253456 -92.94066375 44.21615635 -100 32 C-96.367088 30.78902933 -95.39344321 31.645967 -92.06298828 33.1706543 C-79.32843611 38.29009497 -60.84968439 38.11819197 -48.1328125 33.38671875 C-46.58207031 32.70029297 -46.58207031 32.70029297 -45 32 C-44.06945801 31.58935303 -44.06945801 31.58935303 -43.12011719 31.17041016 C-26.3495189 23.62732048 -12.85511248 13.03242438 0 0 Z " fill="#F44545" transform="translate(117,401)"/>
<path d="M0 0 C0 23.76 0 47.52 0 72 C-6.93 72.99 -13.86 73.98 -21 75 C-51.0651898 80.65913345 -79.81509143 91.90080044 -104 111 C-104.62922363 111.48549316 -105.25844727 111.97098633 -105.90673828 112.47119141 C-120.82075153 123.99747364 -133.93048652 136.71393139 -145 152 C-145.41701172 152.57266602 -145.83402344 153.14533203 -146.26367188 153.73535156 C-155.41832444 166.46760236 -163.03158293 180.50245886 -169 195 C-169.33 195 -169.66 195 -170 195 C-173.52650762 145.57463938 -159.47735233 98.99118111 -127.22949219 60.90917969 C-121.27631006 54.12609921 -115.04371726 47.65765483 -108 42 C-107.02160156 41.18402344 -106.04320312 40.36804687 -105.03515625 39.52734375 C-80.16335759 19.09432819 -50.40353586 6.16541671 -18.625 1.25 C-17.80475342 1.12214111 -16.98450684 0.99428223 -16.1394043 0.86254883 C-14.94504761 0.69082153 -14.94504761 0.69082153 -13.7265625 0.515625 C-12.68363037 0.36528809 -12.68363037 0.36528809 -11.61962891 0.21191406 C-7.75838847 -0.10043978 -3.87385372 0 0 0 Z " fill="#F44545" transform="translate(324,0)"/>
<path d="M0 0 C0.6665863 -0.00717041 1.33317261 -0.01434082 2.0199585 -0.02172852 C10.57976253 -0.07115093 18.06441858 0.74199909 26.1875 3.4375 C27.24582031 3.73011719 28.30414063 4.02273438 29.39453125 4.32421875 C44.68219662 9.02282655 57.06329256 18.11500009 68.1875 29.4375 C67.68089844 30.36369141 67.68089844 30.36369141 67.1640625 31.30859375 C61.27603066 42.48904726 59.27373371 53.58695151 62.375 66.0625 C65.42572206 75.89260442 70.01893519 83.07326717 77.1875 90.4375 C63.06889048 108.0857619 41.06531748 124.77476324 18.1875 128.4375 C14.59900379 128.72463586 11.03631668 128.77078269 7.4375 128.75 C5.97932861 128.74480347 5.97932861 128.74480347 4.49169922 128.73950195 C-2.65347363 128.6314227 -9.03096709 127.76762152 -15.8125 125.4375 C-16.57691406 125.26734375 -17.34132813 125.0971875 -18.12890625 124.921875 C-21.30481503 124.10304032 -23.18411171 123.26060015 -25.19921875 120.62109375 C-26.63150041 117.9508147 -27.73172049 115.26976784 -28.8125 112.4375 C-29.05210449 111.82535645 -29.29170898 111.21321289 -29.53857422 110.58251953 C-36.59967472 92.38126809 -40.04711172 74.60665624 -40.0625 55.0625 C-40.06317474 54.29705872 -40.06384949 53.53161743 -40.06454468 52.74298096 C-40.04897344 41.64898512 -39.59358512 31.22579268 -36.8125 20.4375 C-36.55718062 18.96575666 -36.30739475 17.49304508 -36.0625 16.01953125 C-35.21837329 11.6538209 -34.12434959 8.26896215 -31.8125 4.4375 C-23.07690334 -1.46360935 -10.14304459 0.09460734 0 0 Z " fill="#FC9999" transform="translate(40.8125,309.5625)"/>
<path d="M0 0 C10.34132549 0 19.1456362 0.06318881 29.0625 2 C30.21081299 2.22002686 31.35912598 2.44005371 32.54223633 2.66674805 C72.28412886 10.74107399 107.68691556 32.62485405 130.62890625 66.34375 C142.14681535 83.82115078 151.46334475 103.36881505 157.1875 123.5 C157.44724609 124.37269531 157.70699219 125.24539062 157.97460938 126.14453125 C159.50556452 131.48507245 160.38596294 136.53155184 160.68481445 142.08398438 C160.78882568 142.71626953 160.89283691 143.34855469 161 144 C161.66 144.33 162.32 144.66 163 145 C160.03 153.58 157.06 162.16 154 171 C150.90182678 167.90182678 149.3241991 166.12468306 147.3125 162.5 C123.44974743 121.75434998 82.1081344 93.03795639 36.875 81.125 C26.87759746 78.60327926 17.15832088 76.85997293 6.84765625 76.24609375 C4 76 4 76 0 75 C0 50.25 0 25.5 0 0 Z " fill="#FA5858" transform="translate(340,88)"/>
<path d="M0 0 C42.88763153 0 84.28278651 18.46059377 115 48 C115.52271484 48.49161621 116.04542969 48.98323242 116.58398438 49.48974609 C147.83796013 78.97076256 168.10829253 120.94021979 171 164 C171.13574491 168.83424711 171.1397585 173.66413254 171.125 178.5 C171.12886719 179.76714844 171.13273438 181.03429687 171.13671875 182.33984375 C171.12981029 188.97887243 170.90105394 195.42087598 170 202 C169.67 202 169.34 202 169 202 C168.8040625 201.28199219 168.608125 200.56398437 168.40625 199.82421875 C160.07458313 170.98659591 144.9915995 146.1649176 125 124 C124.32453125 123.25105469 123.6490625 122.50210938 122.953125 121.73046875 C104.32984001 102.19193685 78.69437972 88.49651643 53 81 C51.79085937 80.64292969 50.58171875 80.28585938 49.3359375 79.91796875 C33.02045435 75.33245928 16.97737174 73.61689255 0 72 C0 48.24 0 24.48 0 0 Z " fill="#FA5757" transform="translate(340,0)"/>
<path d="M0 0 C18.06608409 17.55447817 33.52719321 44.66043525 34.30078125 70.3203125 C34.31523667 72.58849897 34.31895115 74.85677664 34.3125 77.125 C34.32861328 78.26582031 34.34472656 79.40664063 34.36132812 80.58203125 C34.36495976 86.83571177 34.03001846 91.48360755 31 97 C28.36 97 25.72 97 23 97 C23 97.66 23 98.32 23 99 C22.26136719 99.20753906 21.52273437 99.41507812 20.76171875 99.62890625 C8.55763021 103.33510341 -0.07615183 108.98734371 -8 119 C-11.23128051 117.57823657 -13.35909765 115.83216533 -15.875 113.375 C-23.91983185 106.07358495 -33.95676905 101.00556877 -44 97 C-44.99386719 96.58814453 -44.99386719 96.58814453 -46.0078125 96.16796875 C-55.34697057 92.4506176 -64.1007372 91.65172115 -74.09960938 91.68432617 C-76.10031584 91.68746132 -78.10100439 91.66323668 -80.1015625 91.63867188 C-89.47536109 91.63405879 -97.89170725 92.84174128 -107 95 C-106.23608664 89.80584799 -104.80181772 85.76113101 -102.5625 81.0625 C-102.21050537 80.32177246 -101.85851074 79.58104492 -101.49584961 78.81787109 C-87.49862168 50.21364708 -64.00405666 27.67325154 -36 13 C-34.85402344 12.39414063 -33.70804687 11.78828125 -32.52734375 11.1640625 C-22.16216365 5.90829811 -11.21253136 2.91775307 0 0 Z " fill="#F34545" transform="translate(117,219)"/>
<path d="M0 0 C0.33 0 0.66 0 1 0 C1.23074219 1.01578125 1.46148437 2.0315625 1.69921875 3.078125 C6.27772347 22.66408359 14.59202326 39.90699925 28 55 C28.64582031 55.77730469 29.29164063 56.55460937 29.95703125 57.35546875 C37.77362825 66.6048432 50.2727245 78.46038959 61.94648743 82.70829773 C64.57489854 83.82579108 66.06982564 84.86791237 68 87 C69.92349739 92.50773 70.62323608 98.14695906 71.40625 103.91015625 C71.66103021 105.60105021 71.91868721 107.29151295 72.17907715 108.98155212 C72.71760008 112.52358844 73.23318378 116.06790903 73.73046875 119.6159668 C74.36376691 124.13373678 75.03464239 128.64479156 75.72068024 133.15482426 C76.37846135 137.48808531 77.0184931 141.82390979 77.65625 146.16015625 C77.77700394 146.97321795 77.89775787 147.78627964 78.02217102 148.62397957 C82.08452843 176.26475451 82.08452843 176.26475451 74.75 188 C70.90148496 193.07304256 66.12624574 196.29280945 60 198 C46.18985024 199.83428985 34.35319283 197.13812938 23 189 C21.989375 188.278125 20.97875 187.55625 19.9375 186.8125 C10.22173427 178.28480345 5.13664588 165.82326024 4.17041016 153.17114258 C3.87554506 147.68403272 3.77613176 142.19473102 3.6697998 136.70126343 C2.83970476 97.07214127 -1.4913688 57.57949786 -9.85253906 18.82592773 C-10.00282562 18.11876114 -10.15311218 17.41159454 -10.30795288 16.68299866 C-10.71498128 14.7759094 -11.13227214 12.87101859 -11.55029297 10.96630859 C-12 8 -12 8 -11 5 C-8.75 3.8671875 -8.75 3.8671875 -6 2.875 C-2.74148734 1.86260057 -2.74148734 1.86260057 0 0 Z " fill="#FA5757" transform="translate(201,314)"/>
<path d="M0 0 C4.82064955 5.03293503 7.45913435 10.31451424 9.56640625 16.91015625 C9.89640625 17.90015625 10.22640625 18.89015625 10.56640625 19.91015625 C11.63873571 29.69899233 9.6836031 37.89861085 4.09765625 46.0546875 C-0.26050571 51.29943633 -5.51900813 55.75455648 -10.58203125 60.3046875 C-12.83431565 62.36259667 -14.96177042 64.44905108 -17.05859375 66.66015625 C-26.48271941 76.17555673 -36.5354593 81.24684413 -49.87109375 81.34765625 C-56.11550978 81.28880332 -61.51248212 80.64491921 -67.45703125 78.64453125 C-74.24946577 76.96870751 -81.4665821 77.13242615 -88.43359375 76.91015625 C-88.43359375 76.58015625 -88.43359375 76.25015625 -88.43359375 75.91015625 C-85.79359375 75.58015625 -83.15359375 75.25015625 -80.43359375 74.91015625 C-74.5485985 61.51590706 -77.40303178 41.20627284 -82.43359375 27.91015625 C-82.68028809 27.23726563 -82.92698242 26.564375 -83.18115234 25.87109375 C-88.52920007 11.42578375 -95.58909303 -1.24260816 -105.234375 -13.25 C-107.19482949 -15.78152826 -108.85654338 -18.30831477 -110.43359375 -21.08984375 C-76.54180435 -28.81297275 -27.46715267 -23.58736225 0 0 Z " fill="#FC9999" transform="translate(228.43359375,240.08984375)"/>
<path d="M0 0 C0 21.12 0 42.24 0 64 C-6.93 64.99 -13.86 65.98 -21 67 C-51.16694936 72.67828752 -79.65244656 83.98665518 -104 103 C-104.9384375 103.71800781 -105.876875 104.43601562 -106.84375 105.17578125 C-108.91012401 106.76701679 -110.96246534 108.37212839 -113 110 C-114 108 -114 108 -112.91796875 104.68359375 C-112.35400444 103.26305658 -111.77608547 101.84801364 -111.1875 100.4375 C-110.87272705 99.68170654 -110.5579541 98.92591309 -110.23364258 98.1472168 C-91.48813284 54.5910757 -54.97749826 22.49421887 -12 4 C-1.85798817 0 -1.85798817 0 0 0 Z " fill="#FA5858" transform="translate(324,8)"/>
<path d="M0 0 C13.76340056 2.48208899 25.22117424 8.23239898 33.8125 19.6875 C41.58916144 31.58229893 44.65438656 45.02216374 42.5390625 59.05859375 C39.41921911 73.17129709 31.55505616 84.89517582 19.5 92.9375 C2.38490351 103.1108091 -17.86578165 100.96372647 -36.51025391 96.38330078 C-42.40716373 94.79109983 -48.20628375 92.93123875 -54 91 C-54 90.34 -54 89.68 -54 89 C-52.90042969 88.5153125 -51.80085938 88.030625 -50.66796875 87.53125 C-41.69806899 83.49708205 -33.66897413 79.25257458 -26 73 C-25.29746094 72.47148437 -24.59492187 71.94296875 -23.87109375 71.3984375 C-10.62459669 60.87382339 -3.48151476 44.18410223 -0.42578125 27.94921875 C0.16401023 22.47876747 0.10491197 17.05974321 0.0625 11.5625 C0.05798828 10.44939453 0.05347656 9.33628906 0.04882812 8.18945312 C0.03711193 5.45957899 0.02070699 2.72981826 0 0 Z " fill="#FC9999" transform="translate(150,412)"/>
<path d="M0 0 C0.86649238 5.33261531 1.7204385 10.66704438 2.56347656 16.00341797 C2.85116222 17.81352067 3.14210088 19.62310979 3.43652344 21.43212891 C8.24358384 51.01026586 8.24358384 51.01026586 0.75 63 C-3.09851504 68.07304256 -7.87375426 71.29280945 -14 73 C-27.81014976 74.83428985 -39.64680717 72.13812938 -51 64 C-52.010625 63.278125 -53.02125 62.55625 -54.0625 61.8125 C-61.34573681 55.44214846 -65.21937207 47.08453598 -68 38 C-49.55456781 24.30510836 -30.66683933 12.10247996 -10 2 C-9.32130859 1.66758301 -8.64261719 1.33516602 -7.94335938 0.99267578 C-3.37233962 -1.12411321 -3.37233962 -1.12411321 0 0 Z " fill="#FA5858" transform="translate(275,439)"/>
<path d="M0 0 C11.9479948 5.91756288 21.57305849 12.42209323 31 22 C30.66226563 22.61746094 30.32453125 23.23492187 29.9765625 23.87109375 C24.08853066 35.05154726 22.08623371 46.14945151 25.1875 58.625 C28.23822206 68.45510442 32.83143519 75.63576717 40 83 C32.94780753 91.81524059 24.43512928 99.78139206 15 106 C3.84392662 101.50795275 -2.03123244 83.65831762 -6.625 73.35546875 C-14.24937589 54.74939235 -12.9616004 32.61910817 -6 14 C-4.78905365 11.20576646 -3.52962605 8.5500758 -2.015625 5.91015625 C-0.97297322 3.94916887 -0.44618819 2.1678926 0 0 Z " fill="#FB7979" transform="translate(78,317)"/>
<path d="M0 0 C1.40939531 10.92151665 2.42590429 21.79987707 3.00537109 32.79663086 C3.12662595 35.09329679 3.25609288 37.38939653 3.38671875 39.68554688 C3.61373763 43.78979182 3.83804411 47.89251751 4 52 C4.0440094 52.71793228 4.0880188 53.43586456 4.13336182 54.17555237 C4.35044701 59.55703026 4.35044701 59.55703026 2.69335938 61.65161133 C2.08298828 61.9586499 1.47261719 62.26568848 0.84375 62.58203125 C0.15861328 62.95094482 -0.52652344 63.3198584 -1.23242188 63.69995117 C-1.98072266 64.06709229 -2.72902344 64.4342334 -3.5 64.8125 C-5.06539525 65.65348713 -6.62783106 66.50000251 -8.1875 67.3515625 C-8.98800781 67.78243164 -9.78851563 68.21330078 -10.61328125 68.65722656 C-14.39329022 70.78386827 -17.94539307 73.20720459 -21.5 75.6875 C-22.16273926 76.14721191 -22.82547852 76.60692383 -23.50830078 77.08056641 C-27.93384114 80.1807874 -32.22768097 83.41741269 -36.3984375 86.85546875 C-38 88 -38 88 -40 88 C-44.20571779 79.58856442 -42.66428606 65.58175412 -43.05200195 56.23803711 C-43.14262883 54.28131304 -43.25279328 52.3254 -43.38208008 50.37084961 C-44.44340889 34.07761313 -44.44340889 34.07761313 -40.95410156 29.05517578 C-38.39986959 27.01283976 -35.89987944 25.49803676 -33 24 C-31.11908093 22.42370279 -29.24305803 20.84151772 -27.375 19.25 C-4.38858696 0 -4.38858696 0 0 0 Z " fill="#F44545" transform="translate(247,389)"/>
<path d="M0 0 C2.17806615 7.37310027 2.33425521 14.47586686 2.3125 22.125 C2.32861328 23.26582031 2.34472656 24.40664063 2.36132812 25.58203125 C2.36495976 31.83571177 2.03001846 36.48360755 -1 42 C-3.64 42 -6.28 42 -9 42 C-9 42.66 -9 43.32 -9 44 C-9.73863281 44.20753906 -10.47726563 44.41507812 -11.23828125 44.62890625 C-23.44236979 48.33510341 -32.07615183 53.98734371 -40 64 C-43.23128051 62.57823657 -45.35909765 60.83216533 -47.875 58.375 C-54.10940847 52.68180896 -61.48128126 48.75935937 -69 45 C-68.15334075 38.9358031 -64.84806875 35.56821772 -61 31 C-60.02353516 29.78570312 -60.02353516 29.78570312 -59.02734375 28.546875 C-48.84346293 16.44042977 -16.57674024 -8.28837012 0 0 Z " fill="#D63030" transform="translate(149,274)"/>
<path d="M0 0 C2.97923003 -0.02727678 5.95820379 -0.04697128 8.9375 -0.0625 C9.76830078 -0.07087891 10.59910156 -0.07925781 11.45507812 -0.08789062 C31.70928846 -0.16670078 50.4047277 6.98672642 66 20 C67.87886658 21.92788049 69.41640799 23.81573516 71 26 C64.52054293 32.81205278 58.15655721 39.17425554 50 44 C49.28070313 44.433125 48.56140625 44.86625 47.8203125 45.3125 C38.5468678 49.93317833 25.19922676 49.61492849 15.4375 46.5625 C14.62539062 46.28921875 13.81328125 46.0159375 12.9765625 45.734375 C6.18412798 44.05855126 -1.03298835 44.2222699 -8 44 C-8 43.67 -8 43.34 -8 43 C-5.36 42.67 -2.72 42.34 0 42 C1.53826475 37.88624928 2.25567173 34.46467127 2.265625 30.078125 C2.26820313 28.96953125 2.27078125 27.8609375 2.2734375 26.71875 C2.26183594 25.00171875 2.26183594 25.00171875 2.25 23.25 C2.25773438 22.12078125 2.26546875 20.9915625 2.2734375 19.828125 C2.25759083 12.98236516 1.65524609 6.64737781 0 0 Z " fill="#FB7878" transform="translate(148,273)"/>
<path d="M0 0 C0.4839624 0.31235596 0.9679248 0.62471191 1.46655273 0.9465332 C6.21515468 3.9688901 11.04885978 6.63706252 16.0625 9.1875 C24.46206127 13.55190538 32.26515093 18.5571255 40 24 C40.98742187 24.6909375 41.97484375 25.381875 42.9921875 26.09375 C49.56053997 30.78277216 55.80852838 35.82646859 62 41 C57.98145337 50.04172992 49.89163635 54.94446414 41.125 58.875 C31.9748574 62.16905134 19.32821154 63.12925613 10.3125 58.9375 C3.96214777 55.11432876 -0.17906357 49.82963557 -3 43 C-5.38305524 32.95165726 -3.6023136 22.85402608 -2 12.8125 C-1.80921875 11.57435547 -1.6184375 10.33621094 -1.421875 9.06054688 C-0.95524885 6.03914255 -0.48116477 3.019117 0 0 Z " fill="#FA5757" transform="translate(388,451)"/>
<path d="M0 0 C5.61920161 0.59541209 10.52045178 2.05392156 15.8125 4 C16.9562207 4.40992188 16.9562207 4.40992188 18.12304688 4.828125 C23.62797619 6.8139881 23.62797619 6.8139881 26 8 C25.3906878 25.18260396 19.30075379 39.88141675 6.65234375 51.75 C-3.31707696 60.20712272 -15.64309272 66.56509992 -29 66 C-37.21601517 48.73385645 -37.21601517 48.73385645 -36 41 C-34.11927727 38.48595665 -31.81381265 36.53717268 -29.4375 34.5 C-28.06506939 33.26826791 -26.69267462 32.03649589 -25.3203125 30.8046875 C-23.88066243 29.53594288 -22.44055632 28.26771555 -21 27 C-18.25365934 24.56007448 -15.52906393 22.09798197 -12.8125 19.625 C-12.18980225 19.07908203 -11.56710449 18.53316406 -10.92553711 17.97070312 C-5.30231025 12.85853856 -2.64078113 7.042083 0 0 Z " fill="#C42D2D" transform="translate(238,273)"/>
<path d="M0 0 C3.24540974 1.23472831 6.17856295 2.65404147 9.1875 4.375 C14.87394891 7.30464465 20.78321387 8.46688455 27.01831055 9.65576172 C29.02389487 10.04822813 31.01409407 10.51773865 33 11 C38.07580328 21.15160657 33.76268491 39.44259696 31 50 C8.83769312 47.53343096 -8.75487958 37.89523936 -25 23 C-21.3908515 19.28351623 -17.61520253 15.92435452 -13.625 12.625 C-8.83612655 8.62535997 -4.31557116 4.5162954 0 0 Z " fill="#D63030" transform="translate(117,401)"/>
<path d="M0 0 C0.23074219 1.01578125 0.46148437 2.0315625 0.69921875 3.078125 C4.95357159 21.27742446 12.374247 38.1912282 24.76171875 52.375 C27.67701685 55.79398835 30.33417775 59.38502169 33 63 C32.12432373 63.66418945 32.12432373 63.66418945 31.23095703 64.34179688 C28.52795535 66.39319637 25.82647366 68.44658875 23.125 70.5 C22.2071875 71.19609375 21.289375 71.8921875 20.34375 72.609375 C9.79297557 80.36015423 9.79297557 80.36015423 0 89 C-0.09498779 88.15219971 -0.18997559 87.30439941 -0.2878418 86.4309082 C-2.54835217 66.48341342 -5.32600038 46.74519858 -9 27 C-9.20189941 25.91444824 -9.40379883 24.82889648 -9.61181641 23.71044922 C-10.71663351 17.8020795 -11.84599732 11.89895227 -13 6 C-11.02204824 4.99759911 -9.04260558 3.99813957 -7.0625 3 C-5.96035156 2.443125 -4.85820312 1.88625 -3.72265625 1.3125 C-1 0 -1 0 0 0 Z " fill="#F34444" transform="translate(202,314)"/>
<path d="M0 0 C0.33 0 0.66 0 1 0 C0.93071289 0.77601563 0.86142578 1.55203125 0.79003906 2.3515625 C0.10056371 10.57619372 -0.22711308 18.7473123 -0.25 27 C-0.25394775 28.25296875 -0.25789551 29.5059375 -0.26196289 30.796875 C-0.20790354 39.53554073 0.48543671 47.96477118 2.02050781 56.56640625 C2.89529048 61.49441628 3.47731974 65.29909864 0.9765625 69.87109375 C-0.59754558 71.69542133 -1.8552723 72.87697329 -4 74 C-7.8515515 74.0621218 -11.31400706 73.04628445 -15 72 C-17.04041411 71.47428106 -19.08209096 70.95343876 -21.125 70.4375 C-22.60613281 70.05464844 -22.60613281 70.05464844 -24.1171875 69.6640625 C-28.0740323 68.75259418 -31.95651634 68.33695697 -36 68 C-30.84145534 46.39116544 -20.54728118 26.52636376 -7 9 C-6.29230469 8.05898437 -5.58460938 7.11796875 -4.85546875 6.1484375 C-1.50149158 1.73566916 -1.50149158 1.73566916 0 0 Z " fill="#F44545" transform="translate(200,150)"/>
<path d="M0 0 C4.95946465 1.45866607 9.16977229 3.57261556 13.625 6.125 C14.33011719 6.52678467 15.03523438 6.92856934 15.76171875 7.3425293 C38.5222417 20.44996748 59.4408987 37.4408987 78 56 C78.71730802 62.59923381 76.74467349 68.67555861 75 75 C71.42679993 73.51978794 69.53920021 71.5628133 67.0625 68.625 C55.57446383 55.57894586 41.94687904 44.92126256 27.875 34.8125 C27.2982251 34.39564941 26.7214502 33.97879883 26.12719727 33.54931641 C23.3594446 31.57542134 20.62047039 29.78268152 17.6640625 28.08984375 C10.08209286 23.68106881 7.04785284 19.36262468 4.18359375 11.26953125 C3.11797472 7.99498926 3.11797472 7.99498926 1.34765625 5.26171875 C0 3 0 3 0 0 Z " fill="#FB7777" transform="translate(396,266)"/>
<path d="M0 0 C0.17015625 0.68964844 0.3403125 1.37929688 0.515625 2.08984375 C4.0049717 15.62034239 9.58308587 28.49209843 22 36 C17.35871622 41.20386363 12.70803435 44.00867651 5.765625 44.43359375 C4.26059652 44.45689806 2.75507555 44.45753562 1.25 44.4375 C0.06301514 44.42722778 0.06301514 44.42722778 -1.14794922 44.41674805 C-13.61387512 44.0769071 -23.99775228 38.3884581 -33 30 C-34.36145403 28.01903541 -35.69891618 26.02112807 -37 24 C-27.84267625 17.07799938 -18.67676493 10.21430342 -8.9375 4.125 C-7.93009766 3.49198975 -7.93009766 3.49198975 -6.90234375 2.84619141 C-2.26535818 0 -2.26535818 0 0 0 Z " fill="#F44545" transform="translate(251,468)"/>
<path d="M0 0 C21.06139554 6.07673052 50.40316196 23.47617739 65 40 C65.65476788 46.14291323 63.29179687 51.0092112 60 56 C58.91666667 55.1875 57.83333333 54.375 56.75 53.5625 C56.01394531 53.01207031 55.27789062 52.46164062 54.51953125 51.89453125 C52.78153481 50.58766571 51.05013293 49.27199969 49.32421875 47.94921875 C36.49407562 38.17469834 23.16173403 29.70520957 9 22 C7.86046875 21.37480469 6.7209375 20.74960937 5.546875 20.10546875 C3.03479905 18.7302682 0.51965224 17.3612528 -2 16 C-2.08997924 10.87118304 -1.93119789 6.0698552 -1 1 C-0.67 0.67 -0.34 0.34 0 0 Z " fill="#FB7777" transform="translate(391,437)"/>
<path d="M0 0 C17.95904032 6.69715604 34.07383626 19.98325729 49.1015625 31.58056641 C50.44389119 32.58420568 51.81756566 33.54654842 53.2109375 34.47802734 C58.74340898 38.26437404 58.74340898 38.26437404 60.02734375 41.9453125 C59.99748276 45.28121204 59.86767452 48.55198857 59.5625 51.875 C59.46066406 53.02742188 59.35882813 54.17984375 59.25390625 55.3671875 C59.17011719 56.23601562 59.08632813 57.10484375 59 58 C54.92863646 58 53.30946321 55.90452933 50.4375 53.3125 C38.18975236 42.62613451 24.63014797 33.6023795 11.0859375 24.65625 C10.4158667 24.20950928 9.7457959 23.76276855 9.05541992 23.30249023 C6.9932228 21.96083923 6.9932228 21.96083923 4.7199707 20.77758789 C2.63665719 19.63493246 0.79152157 18.56170706 -1 17 C-1.81640625 13.80859375 -1.81640625 13.80859375 -1.5625 10.4375 C-1.50191406 9.32246094 -1.44132812 8.20742188 -1.37890625 7.05859375 C-1.07587407 4.61246804 -0.68686989 2.3607545 0 0 Z " fill="#FB7878" transform="translate(402,360)"/>
<path d="M0 0 C13.90254245 2.50718181 25.40008871 8.32383455 33.9375 20 C36.68196471 24.18142501 38.50081726 28.23789012 40 33 C26.62865588 39.68567206 12.56705504 39.40660975 -2 39 C-1.7834375 37.2365625 -1.7834375 37.2365625 -1.5625 35.4375 C-1.47218506 34.69830322 -1.38187012 33.95910645 -1.28881836 33.19750977 C-1.05052584 31.38443206 -0.75371881 29.579147 -0.44140625 27.77734375 C0.19068651 22.36819596 0.10447267 17.00280341 0.0625 11.5625 C0.05798828 10.44939453 0.05347656 9.33628906 0.04882812 8.18945312 C0.03711193 5.45957899 0.02070699 2.72981826 0 0 Z " fill="#FB7979" transform="translate(150,412)"/>
<path d="M0 0 C0.33 0 0.66 0 1 0 C1.68226391 4.08088172 2.3428487 8.16500543 3 12.25 C3.19078125 13.38953125 3.3815625 14.5290625 3.578125 15.703125 C5.53031338 27.97402339 6.98335487 39.6604314 -0.63671875 50.28125 C-1.08660156 50.8484375 -1.53648437 51.415625 -2 52 C-8.71798313 50.69738453 -12.78601559 45.56640043 -16.6875 40.25 C-21.95652705 32.35827339 -24.49428208 24.31167663 -26 15 C-25.01 15 -24.02 15 -23 15 C-23 14.34 -23 13.68 -23 13 C-19.54515902 11.16002803 -16.0855752 9.32916118 -12.625 7.5 C-11.64015625 6.97535156 -10.6553125 6.45070313 -9.640625 5.91015625 C-8.69960938 5.41386719 -7.75859375 4.91757812 -6.7890625 4.40625 C-5.91975098 3.94541016 -5.05043945 3.48457031 -4.15478516 3.00976562 C-2 2 -2 2 0 2 C0 1.34 0 0.68 0 0 Z " fill="#FA5757" transform="translate(276,452)"/>
<path d="M0 0 C0.74258797 3.62011635 1.05815773 7.03966067 1.03125 10.72265625 C1.02673828 11.52582275 1.02222656 12.32898926 1.01757812 13.15649414 C1.01177734 13.76485107 1.00597656 14.37320801 1 15 C-2.78820084 17.00661684 -6.58111052 19.0041624 -10.375 21 C-11.45523437 21.57234375 -12.53546875 22.1446875 -13.6484375 22.734375 C-14.6796875 23.27578125 -15.7109375 23.8171875 -16.7734375 24.375 C-17.72653809 24.87773437 -18.67963867 25.38046875 -19.66162109 25.8984375 C-22 27 -22 27 -24 27 C-25.5148897 11.88476723 -25.5148897 11.88476723 -22.16015625 7.7109375 C-19.49970843 6.13904574 -16.90207729 5.05844994 -14 4 C-12.01884601 3.02486057 -10.03962201 2.04578868 -8.0625 1.0625 C-3.3973747 -1.13245823 -3.3973747 -1.13245823 0 0 Z " fill="#FB7777" transform="translate(275,439)"/>
<path d="M0 0 C1.65378683 5.04106105 2.89935267 9.67098885 3 15 C0.63482263 18.91585657 -2.38306873 21.274291 -6 24 C-6.33 24.66 -6.66 25.32 -7 26 C-7.66 26 -8.32 26 -9 26 C-10.32 19.4 -11.64 12.8 -13 6 C-1.125 0 -1.125 0 0 0 Z " fill="#FA5858" transform="translate(202,314)"/>
<path d="M0 0 C-1.56641751 4.30764815 -3.68336156 8.06171464 -6 12 C-9.55780196 11.39009109 -12.6828589 10.4216319 -16 9 C-13.50506504 6.18368359 -10.73437182 4.59044019 -7.4375 2.8125 C-6.46683594 2.28269531 -5.49617188 1.75289063 -4.49609375 1.20703125 C-2 0 -2 0 0 0 Z " fill="#FB7474" transform="translate(268,268)"/>
<path d="M0 0 C1.60379341 -0.05416188 3.20811406 -0.09286638 4.8125 -0.125 C5.70582031 -0.14820312 6.59914063 -0.17140625 7.51953125 -0.1953125 C10 -0 10 -0 13 2 C8.71 2.66 4.42 3.32 0 4 C0 2.68 0 1.36 0 0 Z " fill="#F44545" transform="translate(340,0)"/>
</svg>
