<?xml version="1.0" encoding="UTF-8"?>
<svg version="1.1" xmlns="http://www.w3.org/2000/svg" width="512" height="512">
<path d="M0 0 C8.08082994 4.68644338 12.35146897 10.66150737 15.375 19.4375 C16.34498182 23.44028371 16.52768434 27.22583313 16.58032227 31.33911133 C16.59022186 32.01283783 16.60012146 32.68656433 16.61032104 33.38070679 C16.64174923 35.5936133 16.666619 37.80654124 16.69140625 40.01953125 C16.71199194 41.55938759 16.73298883 43.09923849 16.75437927 44.63908386 C16.80943318 48.68154475 16.85891564 52.72405522 16.90722656 56.76660156 C16.95756379 60.89587794 17.01318591 65.02508279 17.06835938 69.15429688 C17.17573676 77.24863734 17.2772266 85.34303786 17.375 93.4375 C17.83318115 92.69274414 18.2913623 91.94798828 18.76342773 91.18066406 C19.37645752 90.19807617 19.9894873 89.21548828 20.62109375 88.203125 C21.2236499 87.23149414 21.82620605 86.25986328 22.44702148 85.25878906 C29.09623834 75.52872068 40.4791491 69.08760858 51.75 66 C58.91673074 64.75125146 68.4826203 64.1400401 75.375 66.4375 C75.4884375 65.71046875 75.601875 64.9834375 75.71875 64.234375 C78.0483962 54.30564477 86.13924077 46.07638799 94.26953125 40.42578125 C108.22363315 31.88135685 122.39604964 29.72989992 138.375 33.4375 C153.15393916 37.72746782 164.55721221 48.14207127 171.90234375 61.41015625 C178.90924798 75.81426973 177.68003111 89.32878636 174.375 104.4375 C175.28378906 105.03433594 176.19257813 105.63117188 177.12890625 106.24609375 C189.28801207 114.45458757 197.67713548 126.37963861 200.625 140.875 C202.71735243 154.64648326 200.71134615 168.61182081 192.90234375 180.375 C190.82921075 183.17452487 188.69842022 185.84073623 186.375 188.4375 C187.69700194 192.14826783 189.3440211 194.89534164 191.75 198 C197.67095869 206.3016775 199.92842039 215.34480093 200.375 225.4375 C201.68210937 225.33308594 201.68210937 225.33308594 203.015625 225.2265625 C213.02497745 224.77159193 220.54629696 226.50190469 228.3125 233.078125 C229.90056599 234.77735561 231.13747921 236.47057954 232.375 238.4375 C232.98988281 239.3346875 232.98988281 239.3346875 233.6171875 240.25 C237.82996678 247.68773445 237.55698927 257.18038065 236.375 265.4375 C233.58442793 275.10446288 228.01299583 280.64045712 219.4765625 285.5234375 C215.20677417 287.48717981 211.27600796 287.55361349 206.609375 287.50390625 C205.44116211 287.49431885 204.27294922 287.48473145 203.06933594 287.47485352 C202.18020508 287.46252686 201.29107422 287.4502002 200.375 287.4375 C200.37722061 288.09876892 200.37944122 288.76003784 200.38172913 289.44134521 C200.47262379 317.90669974 200.55268521 346.37780246 200.11154175 374.84069824 C200.07931727 376.99875547 200.05161175 379.15688581 200.02883911 381.31506348 C199.84703532 397.69318558 199.42447135 414.71058827 193.25 430.125 C192.9499707 430.8998877 192.64994141 431.67477539 192.34082031 432.47314453 C186.83903013 446.19957823 179.38111799 457.60392356 169.375 468.4375 C168.77042969 469.11167969 168.16585938 469.78585937 167.54296875 470.48046875 C151.44116687 487.6008761 125.88136303 500.48437715 102.18217444 501.53468204 C99.64211051 501.57758955 97.10363101 501.58999374 94.5632019 501.59140015 C93.10637692 501.59797353 93.10637692 501.59797353 91.62012112 501.6046797 C88.37418677 501.61800587 85.12827954 501.62423275 81.88232422 501.63037109 C79.5508614 501.63827726 77.21939979 501.64654653 74.88793945 501.65515137 C67.2352006 501.6813232 59.58245644 501.69667934 51.9296875 501.7109375 C49.28808718 501.71630014 46.64648689 501.72167765 44.00488663 501.72706985 C33.00719442 501.74889795 22.00950173 501.76757877 11.01179314 501.77869225 C8.16167064 501.78162137 5.31154819 501.78458311 2.46142578 501.78759766 C1.39900501 501.78871673 1.39900501 501.78871673 0.31512119 501.78985842 C-11.12900826 501.80248082 -22.57298125 501.83566555 -34.01703776 501.87739949 C-45.80000103 501.92001238 -57.58288467 501.94340971 -69.36592472 501.94861281 C-75.96791327 501.95200584 -82.5696854 501.96409008 -89.17160416 501.99671555 C-95.3950061 502.02702902 -101.61798568 502.03302559 -107.84144592 502.02133179 C-110.10957803 502.02111295 -112.37773108 502.0292575 -114.64579391 502.04698563 C-147.07329845 502.28638639 -174.02662165 492.98612842 -197.625 470.4375 C-198.22570312 469.89996094 -198.82640625 469.36242187 -199.4453125 468.80859375 C-216.77611824 452.72721819 -227.33534486 427.72602956 -229.625 404.4375 C-229.7639569 400.59215943 -229.75146687 396.75006687 -229.73852539 392.90258789 C-229.73867142 391.76039795 -229.73881744 390.61820801 -229.7389679 389.44140625 C-229.73827343 385.68097 -229.73050286 381.92058381 -229.72265625 378.16015625 C-229.72079042 375.54699226 -229.71936729 372.93382792 -229.71836853 370.32066345 C-229.71526759 364.1549681 -229.70707095 357.9892906 -229.69701904 351.82360309 C-229.68581939 344.80060227 -229.68033776 337.77760056 -229.67532361 330.75459301 C-229.66488725 316.31555283 -229.64731187 301.87652666 -229.625 287.4375 C-230.93911865 287.46577881 -230.93911865 287.46577881 -232.27978516 287.49462891 C-233.43784668 287.50929199 -234.5959082 287.52395508 -235.7890625 287.5390625 C-237.50536865 287.56734131 -237.50536865 287.56734131 -239.25634766 287.59619141 C-246.58982343 287.250724 -252.77723977 284.11467762 -258.09375 279.13671875 C-264.9300213 271.55055035 -267.06833241 263.54022843 -266.87890625 253.4375 C-266.03738323 243.49458183 -261.23103408 236.64469501 -254.015625 230.05078125 C-247.84044539 225.88354403 -241.99182563 224.99853436 -234.75 225.14453125 C-233.94006592 225.14877609 -233.13013184 225.15302094 -232.2956543 225.15739441 C-229.73841439 225.17403056 -227.18199696 225.21165228 -224.625 225.25 C-222.87891773 225.2650664 -221.13282295 225.27875136 -219.38671875 225.29101562 C-215.13250125 225.32388434 -210.8788895 225.3755594 -206.625 225.4375 C-206.99560547 224.89673828 -207.36621094 224.35597656 -207.74804688 223.79882812 C-210.92115998 219.1653839 -214.08469147 214.52566326 -217.23828125 209.87890625 C-220.14582003 205.59627726 -223.08366115 201.33683409 -226.04296875 197.08984375 C-227.46664617 195.01857298 -228.8898369 192.94696759 -230.3125 190.875 C-230.9828125 189.92625 -231.653125 188.9775 -232.34375 188 C-240.98149892 175.31605505 -243.75819866 161.9239543 -240.96484375 146.8828125 C-238.05844696 136.18827887 -231.97997254 127.64614386 -223.625 120.4375 C-222.965 120.1075 -222.305 119.7775 -221.625 119.4375 C-228.1122699 114.2667054 -234.79418097 109.45458604 -241.625 104.75 C-243.65242321 103.34256238 -245.67976622 101.9350092 -247.70703125 100.52734375 C-251.38120753 97.98258583 -255.06561151 95.45417768 -258.76171875 92.94140625 C-260.27872068 91.89854637 -261.79565254 90.85558454 -263.3125 89.8125 C-264.34407227 89.12281128 -264.34407227 89.12281128 -265.39648438 88.41918945 C-270.40026229 84.95849655 -273.65630245 81.34359266 -275.625 75.4375 C-276.11488853 69.87204509 -276.39314541 65.03069048 -273.9375 59.9375 C-270.02814343 55.71116857 -265.98074467 51.88562739 -260.109375 51.1015625 C-251.0930879 50.9727584 -246.21256165 53.67702293 -238.8828125 58.5859375 C-238.08246582 59.12138184 -237.28211914 59.65682617 -236.45751953 60.20849609 C-235.85278809 60.61406738 -235.24805664 61.01963867 -234.625 61.4375 C-234.87258057 60.82342285 -235.12016113 60.2093457 -235.37524414 59.57666016 C-236.50157025 56.74689533 -237.59453361 53.9053074 -238.6875 51.0625 C-239.07744141 50.09699219 -239.46738281 49.13148437 -239.86914062 48.13671875 C-242.34362913 41.61107651 -243.32842495 36.29820731 -241.625 29.4375 C-238.82137739 23.93409265 -234.57390483 19.42046828 -228.625 17.4375 C-220.99194359 16.75433488 -216.01105821 17.61578483 -210 22.625 C-204.02573659 29.69978562 -201.58256447 38.8072299 -198.625 47.4375 C-198.33367187 46.36371094 -198.04234375 45.28992187 -197.7421875 44.18359375 C-193.06990282 27.68349976 -193.06990282 27.68349976 -184.375 22.5 C-178.1601914 20.73913756 -172.35791615 20.37104975 -166.3125 22.9375 C-162.02905763 25.40871675 -159.31933027 28.80536103 -157.625 33.4375 C-156.08667585 41.41892054 -157.50650344 47.70748726 -159.5546875 55.49609375 C-159.8644754 56.72159439 -160.17426331 57.94709503 -160.49343872 59.20973206 C-161.31388919 62.44234197 -162.14765555 65.67090228 -162.98791504 68.89837646 C-163.67270778 71.5416438 -164.34414355 74.18821773 -165.01493645 76.8350668 C-166.39962361 82.29779394 -167.79455604 87.75792367 -169.21044922 93.21264648 C-169.45995331 94.1758934 -169.7094574 95.13914032 -169.96652222 96.13157654 C-170.625 98.4375 -170.625 98.4375 -171.625 100.4375 C-170.83738281 100.39109375 -170.04976563 100.3446875 -169.23828125 100.296875 C-155.47982404 99.84097346 -143.26406303 103.66651232 -132.875 112.875 C-132.1325 113.720625 -131.39 114.56625 -130.625 115.4375 C-130.11066406 116.01886719 -129.59632813 116.60023437 -129.06640625 117.19921875 C-122.625 124.56744604 -122.625 124.56744604 -122.625 128.4375 C-122.11227539 128.2108667 -121.59955078 127.9842334 -121.07128906 127.75073242 C-111.36716336 123.48860914 -102.04111936 119.5650527 -91.625 117.4375 C-92.07302979 116.99470703 -92.52105957 116.55191406 -92.98266602 116.09570312 C-95.05370096 114.04573317 -97.12060697 111.99164567 -99.1875 109.9375 C-99.89197266 109.24140625 -100.59644531 108.5453125 -101.32226562 107.828125 C-105.42333835 103.74595123 -109.34538728 99.57629642 -113.10351562 95.17553711 C-114.58617799 93.43706763 -114.58617799 93.43706763 -116.16210938 91.93188477 C-118.97565797 89.05506076 -120.0101909 86.80268417 -120.25 82.875 C-120.05274235 79.2195692 -119.65166055 78.47117649 -117.25 75.4375 C-113.14246006 72.30794576 -110.82198691 72.00441776 -105.625 72.4375 C-99.28317892 75.47054486 -95.16915837 81.22080619 -90.625 86.4375 C-89.965 87.0975 -89.305 87.7575 -88.625 88.4375 C-88.61082031 87.12394531 -88.59664062 85.81039062 -88.58203125 84.45703125 C-88.53512012 82.72131949 -88.48687279 80.98564348 -88.4375 79.25 C-88.42879883 77.95352539 -88.42879883 77.95352539 -88.41992188 76.63085938 C-88.26335974 72.09055757 -88.10756911 70.04440254 -85.19921875 66.38671875 C-81.11635576 63.29514268 -78.76988753 63.08869407 -73.625 63.4375 C-69.78612489 65.14366671 -68.2036882 66.60044674 -66.625 70.4375 C-66.30615234 72.54394531 -66.30615234 72.54394531 -66.2109375 74.765625 C-66.17226562 75.56484375 -66.13359375 76.3640625 -66.09375 77.1875 C-66.04734375 78.425 -66.04734375 78.425 -66 79.6875 C-65.96132812 80.52796875 -65.92265625 81.3684375 -65.8828125 82.234375 C-65.78884164 84.30173382 -65.70584436 86.36958627 -65.625 88.4375 C-65.25213867 88.02387207 -64.87927734 87.61024414 -64.49511719 87.18408203 C-62.79453482 85.30457433 -61.08491448 83.43351991 -59.375 81.5625 C-58.49521484 80.58603516 -58.49521484 80.58603516 -57.59765625 79.58984375 C-57.02402344 78.96464844 -56.45039063 78.33945313 -55.859375 77.6953125 C-55.33569336 77.1192627 -54.81201172 76.54321289 -54.27246094 75.94970703 C-51.47041241 73.37770221 -49.43969851 72.4375 -45.625 72.4375 C-45.63388245 71.82077423 -45.64276489 71.20404846 -45.6519165 70.56863403 C-45.74086221 64.11160614 -45.80092916 57.65475415 -45.84472656 51.19726562 C-45.86476034 48.79192019 -45.89199522 46.38662297 -45.92675781 43.98144531 C-45.97563808 40.51094622 -45.99805205 37.04109474 -46.015625 33.5703125 C-46.03627014 32.50636261 -46.05691528 31.44241272 -46.07818604 30.34622192 C-46.0811711 20.26536381 -43.37027878 12.47754963 -36.41796875 5.125 C-26.65482158 -4.06384439 -11.99559823 -5.62293667 0 0 Z M-47.97607422 100.75097656 C-48.5382666 101.35393555 -49.10045898 101.95689453 -49.6796875 102.578125 C-50.29457031 103.23683594 -50.90945312 103.89554687 -51.54296875 104.57421875 C-52.18878906 105.27160156 -52.83460938 105.96898438 -53.5 106.6875 C-54.13808594 107.36941406 -54.77617187 108.05132812 -55.43359375 108.75390625 C-58.36249031 111.90292865 -61.03539922 114.98469895 -63.625 118.4375 C-54.715 120.4175 -54.715 120.4175 -45.625 122.4375 C-45.625 114.8475 -45.625 107.2575 -45.625 99.4375 C-46.81954943 99.32132335 -46.81954943 99.32132335 -47.97607422 100.75097656 Z " fill="#F1B482" transform="translate(275.625,6.5625)"/>
<path d="M0 0 C141.9 0 283.8 0 430 0 C430 124.90011751 430 124.90011751 422.875 142.6875 C422.5749707 143.4623877 422.27494141 144.23727539 421.96582031 145.03564453 C416.46403013 158.76207823 409.00611799 170.16642356 399 181 C398.39542969 181.67417969 397.79085938 182.34835937 397.16796875 183.04296875 C381.06616687 200.1633761 355.50636303 213.04687715 331.80717444 214.09718204 C329.26711051 214.14008955 326.72863101 214.15249374 324.1882019 214.15390015 C322.73137692 214.16047353 322.73137692 214.16047353 321.24512112 214.1671797 C317.99918677 214.18050587 314.75327954 214.18673275 311.50732422 214.19287109 C309.1758614 214.20077726 306.84439979 214.20904653 304.51293945 214.21765137 C296.8602006 214.2438232 289.20745644 214.25917934 281.5546875 214.2734375 C278.91308718 214.27880014 276.27148689 214.28417765 273.62988663 214.28956985 C262.63219442 214.31139795 251.63450173 214.33007877 240.63679314 214.34119225 C237.78667064 214.34412137 234.93654819 214.34708311 232.08642578 214.35009766 C231.37814527 214.35084371 230.66986475 214.35158976 229.94012119 214.35235842 C218.49599174 214.36498082 207.05201875 214.39816555 195.60796224 214.43989949 C183.82499897 214.48251238 172.04211533 214.50590971 160.25907528 214.51111281 C153.65708673 214.51450584 147.0553146 214.52659008 140.45339584 214.55921555 C134.2299939 214.58952902 128.00701432 214.59552559 121.78355408 214.58383179 C119.51542197 214.58361295 117.24726892 214.5917575 114.97920609 214.60948563 C82.55170155 214.84888639 55.59837835 205.54862842 32 183 C31.39929688 182.46246094 30.79859375 181.92492187 30.1796875 181.37109375 C12.31546736 164.79475925 3.36990212 140.58931483 0 117 C0 78.39 0 39.78 0 0 Z " fill="#BE512F" transform="translate(46,294)"/>
<path d="M0 0 C10.14813874 6.84409357 12.90657561 17.77963865 16.6875 28.8125 C16.97882813 27.73871094 17.27015625 26.66492188 17.5703125 25.55859375 C22.24259718 9.05849976 22.24259718 9.05849976 30.9375 3.875 C37.1523086 2.11413756 42.95458385 1.74604975 49 4.3125 C53.28344237 6.78371675 55.99316973 10.18036103 57.6875 14.8125 C59.22582415 22.79392054 57.80599656 29.08248726 55.7578125 36.87109375 C55.4480246 38.09659439 55.13823669 39.32209503 54.81906128 40.58473206 C53.99861081 43.81734197 53.16484445 47.04590228 52.32458496 50.27337646 C51.63979222 52.9166438 50.96835645 55.56321773 50.29756355 58.2100668 C48.91287639 63.67279394 47.51794396 69.13292367 46.10205078 74.58764648 C45.85254669 75.5508934 45.6030426 76.51414032 45.34597778 77.50657654 C44.6875 79.8125 44.6875 79.8125 43.6875 81.8125 C44.47511719 81.76609375 45.26273437 81.7196875 46.07421875 81.671875 C59.83267596 81.21597346 72.04843697 85.04151232 82.4375 94.25 C83.18 95.095625 83.9225 95.94125 84.6875 96.8125 C85.20183594 97.39386719 85.71617187 97.97523437 86.24609375 98.57421875 C92.6875 105.94244604 92.6875 105.94244604 92.6875 109.8125 C93.20022461 109.5858667 93.71294922 109.3592334 94.24121094 109.12573242 C103.94533664 104.86360914 113.27138064 100.9400527 123.6875 98.8125 C123.23947021 98.36970703 122.79144043 97.92691406 122.32983398 97.47070312 C120.25879904 95.42073317 118.19189303 93.36664567 116.125 91.3125 C115.42052734 90.61640625 114.71605469 89.9203125 113.99023438 89.203125 C109.88916165 85.12095123 105.96711272 80.95129642 102.20898438 76.55053711 C100.72632201 74.81206763 100.72632201 74.81206763 99.15039062 73.30688477 C96.33684203 70.43006076 95.3023091 68.17768417 95.0625 64.25 C95.25975765 60.5945692 95.66083945 59.84617649 98.0625 56.8125 C102.17003994 53.68294576 104.49051309 53.37941776 109.6875 53.8125 C116.02932108 56.84554486 120.14334163 62.59580619 124.6875 67.8125 C125.3475 68.4725 126.0075 69.1325 126.6875 69.8125 C126.70167969 68.49894531 126.71585938 67.18539062 126.73046875 65.83203125 C126.77737988 64.09631949 126.82562721 62.36064348 126.875 60.625 C126.88370117 59.32852539 126.88370117 59.32852539 126.89257812 58.00585938 C127.04914026 53.46555757 127.20493089 51.41940254 130.11328125 47.76171875 C134.19614424 44.67014268 136.54261247 44.46369407 141.6875 44.8125 C145.52637511 46.51866671 147.1088118 47.97544674 148.6875 51.8125 C149.00634766 53.91894531 149.00634766 53.91894531 149.1015625 56.140625 C149.14023438 56.93984375 149.17890625 57.7390625 149.21875 58.5625 C149.26515625 59.8 149.26515625 59.8 149.3125 61.0625 C149.35117188 61.90296875 149.38984375 62.7434375 149.4296875 63.609375 C149.52365836 65.67673382 149.60665564 67.74458627 149.6875 69.8125 C150.06036133 69.39887207 150.43322266 68.98524414 150.81738281 68.55908203 C152.51796518 66.67957433 154.22758552 64.80851991 155.9375 62.9375 C156.81728516 61.96103516 156.81728516 61.96103516 157.71484375 60.96484375 C158.57529297 60.02705078 158.57529297 60.02705078 159.453125 59.0703125 C159.97680664 58.4942627 160.50048828 57.91821289 161.04003906 57.32470703 C163.84208759 54.75270221 165.87280149 53.8125 169.6875 53.8125 C172.11912961 78.33454936 172.11912961 78.33454936 166.67578125 85.83984375 C163.82983412 89.05590679 160.71099663 91.89922215 157.31323242 94.5234375 C155.64141749 95.84903937 154.16855538 97.2790402 152.6875 98.8125 C153.74710938 99.08964844 154.80671875 99.36679688 155.8984375 99.65234375 C157.28648869 100.018114 158.67450787 100.38400572 160.0625 100.75 C160.76117188 100.93240234 161.45984375 101.11480469 162.1796875 101.30273438 C167.4609375 102.69921875 167.4609375 102.69921875 169.6875 103.8125 C169.6875 137.8025 169.6875 171.7925 169.6875 206.8125 C129.91736146 207.69916675 129.91736146 207.69916675 113.18945312 207.88671875 C101.65933798 208.01703549 90.13277144 208.16979776 78.60571289 208.47216797 C70.20815851 208.69234094 61.81349365 208.8335767 53.4131332 208.88244689 C48.96844438 208.91099979 44.53201575 208.97738014 40.08999443 209.13856125 C13.14210618 210.07920271 13.14210618 210.07920271 5.7522831 204.6600132 C0.91745812 199.53198247 -2.25718953 193.80651979 -5.10700989 187.40189934 C-6.746322 183.88064798 -8.82094866 180.98246851 -11.13671875 177.87109375 C-12.42491675 175.99769665 -13.71270242 174.12401593 -15 172.25 C-15.66193359 171.31349609 -16.32386719 170.37699219 -17.00585938 169.41210938 C-25.65513052 156.71202381 -28.44992013 143.3216853 -25.65234375 128.2578125 C-22.74594696 117.56327887 -16.66747254 109.02114386 -8.3125 101.8125 C-7.6525 101.4825 -6.9925 101.1525 -6.3125 100.8125 C-12.7997699 95.6417054 -19.48168097 90.82958604 -26.3125 86.125 C-28.33992321 84.71756238 -30.36726622 83.3100092 -32.39453125 81.90234375 C-36.06870753 79.35758583 -39.75311151 76.82917768 -43.44921875 74.31640625 C-44.96622068 73.27354637 -46.48315254 72.23058454 -48 71.1875 C-49.03157227 70.49781128 -49.03157227 70.49781128 -50.08398438 69.79418945 C-55.08776229 66.33349655 -58.34380245 62.71859266 -60.3125 56.8125 C-60.80238853 51.24704509 -61.08064541 46.40569048 -58.625 41.3125 C-54.71564343 37.08616857 -50.66824467 33.26062739 -44.796875 32.4765625 C-35.7805879 32.3477584 -30.90006165 35.05202293 -23.5703125 39.9609375 C-22.76996582 40.49638184 -21.96961914 41.03182617 -21.14501953 41.58349609 C-20.54028809 41.98906738 -19.93555664 42.39463867 -19.3125 42.8125 C-19.56008057 42.19842285 -19.80766113 41.5843457 -20.06274414 40.95166016 C-21.18907025 38.12189533 -22.28203361 35.2803074 -23.375 32.4375 C-23.76494141 31.47199219 -24.15488281 30.50648437 -24.55664062 29.51171875 C-27.03112913 22.98607651 -28.01592495 17.67320731 -26.3125 10.8125 C-20.99390829 0.37230146 -11.15535603 -3.9990899 0 0 Z " fill="#F38E41" transform="translate(60.3125,25.1875)"/>
<path d="M0 0 C10.0034293 10.46917601 15.16135453 24.3568291 15.046875 38.78125 C14.49962224 44.69157983 13.07958348 50.52011838 11.8125 56.3125 C12.72128906 56.90933594 13.63007813 57.50617188 14.56640625 58.12109375 C26.72551207 66.32958757 35.11463548 78.25463861 38.0625 92.75 C40.15485243 106.52148326 38.14884615 120.48682081 30.33984375 132.25 C28.26671075 135.04952487 26.13592022 137.71573623 23.8125 140.3125 C25.13450194 144.02326783 26.7815211 146.77034164 29.1875 149.875 C35.40057124 158.58624363 36.7517786 166.70528603 37.8125 177.3125 C-23.2375 177.3125 -84.2875 177.3125 -147.1875 177.3125 C-147.31125 156.605 -147.435 135.8975 -147.5625 114.5625 C-147.61712402 108.04145508 -147.67174805 101.52041016 -147.72802734 94.80175781 C-147.75512695 86.79443359 -147.75512695 86.79443359 -147.76016235 83.03729248 C-147.76933476 80.43127344 -147.78805675 77.82704352 -147.82095337 75.22137451 C-147.87031215 71.25845597 -147.87092662 67.29624568 -147.86865234 63.33300781 C-147.89024099 62.18640308 -147.91182964 61.03979836 -147.93407249 59.85844803 C-147.851466 49.03522893 -143.59854429 39.9576929 -136.1484375 32.1171875 C-125.4251774 22.24837044 -112.58918618 17.1081192 -98.0625 17.1875 C-97.34707031 17.18363281 -96.63164062 17.17976563 -95.89453125 17.17578125 C-92.72615016 17.18170346 -90.21439855 17.30353382 -87.1875 18.3125 C-87.0740625 17.58546875 -86.960625 16.8584375 -86.84375 16.109375 C-84.5141038 6.18064477 -76.42325923 -2.04861201 -68.29296875 -7.69921875 C-45.26961177 -21.79696109 -19.70566416 -18.16086066 0 0 Z " fill="#80D24A" transform="translate(438.1875,54.6875)"/>
<path d="M0 0 C3.83887511 1.70616671 5.4213118 3.16294674 7 7 C7.31884766 9.10644531 7.31884766 9.10644531 7.4140625 11.328125 C7.45273438 12.12734375 7.49140625 12.9265625 7.53125 13.75 C7.5621875 14.575 7.593125 15.4 7.625 16.25 C7.66367188 17.09046875 7.70234375 17.9309375 7.7421875 18.796875 C7.83615836 20.86423382 7.91915564 22.93208627 8 25 C8.37286133 24.58637207 8.74572266 24.17274414 9.12988281 23.74658203 C10.83046518 21.86707433 12.54008552 19.99601991 14.25 18.125 C14.83652344 17.47402344 15.42304688 16.82304688 16.02734375 16.15234375 C16.60097656 15.52714844 17.17460937 14.90195313 17.765625 14.2578125 C18.28930664 13.6817627 18.81298828 13.10571289 19.35253906 12.51220703 C22.15458759 9.94020221 24.18530149 9 28 9 C30.43162961 33.52204936 30.43162961 33.52204936 24.98828125 41.02734375 C22.14233412 44.24340679 19.02349663 47.08672215 15.62573242 49.7109375 C13.95391749 51.03653937 12.48105538 52.4665402 11 54 C12.05960937 54.27714844 13.11921875 54.55429688 14.2109375 54.83984375 C15.59898869 55.205614 16.98700787 55.57150572 18.375 55.9375 C19.07367188 56.11990234 19.77234375 56.30230469 20.4921875 56.49023438 C25.7734375 57.88671875 25.7734375 57.88671875 28 59 C28 92.99 28 126.98 28 162 C-7.31 162 -42.62 162 -79 162 C-86.07257664 142.19678542 -88.33218763 121.73947856 -79.46484375 102 C-72.55814757 87.85508623 -63.26308355 75.82475226 -50 67 C-49.34 67 -48.68 67 -48 67 C-48 66.34 -48 65.68 -48 65 C-38.17467623 60.03855991 -28.74921757 56.45478586 -18 54 C-18.44802979 53.55720703 -18.89605957 53.11441406 -19.35766602 52.65820312 C-21.42870096 50.60823317 -23.49560697 48.55414567 -25.5625 46.5 C-26.26697266 45.80390625 -26.97144531 45.1078125 -27.69726562 44.390625 C-31.79833835 40.30845123 -35.72038728 36.13879642 -39.47851562 31.73803711 C-40.96117799 29.99956763 -40.96117799 29.99956763 -42.53710938 28.49438477 C-45.35065797 25.61756076 -46.3851909 23.36518417 -46.625 19.4375 C-46.42774235 15.7820692 -46.02666055 15.03367649 -43.625 12 C-39.51746006 8.87044576 -37.19698691 8.56691776 -32 9 C-25.65817892 12.03304486 -21.54415837 17.78330619 -17 23 C-16.01 23.99 -16.01 23.99 -15 25 C-14.98582031 23.68644531 -14.97164063 22.37289062 -14.95703125 21.01953125 C-14.91012012 19.28381949 -14.86187279 17.54814348 -14.8125 15.8125 C-14.80379883 14.51602539 -14.80379883 14.51602539 -14.79492188 13.19335938 C-14.63835974 8.65305757 -14.48256911 6.60690254 -11.57421875 2.94921875 C-7.49135576 -0.14235732 -5.14488753 -0.34880593 0 0 Z " fill="#EE3A3A" transform="translate(202,70)"/>
<path d="M0 0 C10.14813874 6.84409357 12.90657561 17.77963865 16.6875 28.8125 C16.97882813 27.73871094 17.27015625 26.66492188 17.5703125 25.55859375 C22.24259718 9.05849976 22.24259718 9.05849976 30.9375 3.875 C37.1523086 2.11413756 42.95458385 1.74604975 49 4.3125 C53.28344237 6.78371675 55.99316973 10.18036103 57.6875 14.8125 C59.22336291 22.78571114 57.80899402 29.05680697 55.7578125 36.8359375 C55.4480246 38.05906647 55.13823669 39.28219543 54.81906128 40.54238892 C53.99857121 43.76967736 53.1648912 46.99294535 52.32458496 50.21508789 C51.47147116 53.50105041 50.63724433 56.79179926 49.80078125 60.08203125 C45.02327679 78.80516962 45.02327679 78.80516962 43.6875 82.8125 C42.04296875 83.63696289 42.04296875 83.63696289 39.875 84.28515625 C39.05821777 84.54022949 38.24143555 84.79530273 37.39990234 85.05810547 C36.05726318 85.46246826 36.05726318 85.46246826 34.6875 85.875 C22.86831224 89.60486809 11.44725921 94.18203017 -0.01025391 98.89208984 C-1.75570338 99.58989944 -3.5291944 100.2180648 -5.3125 100.8125 C-7.39941406 99.71118164 -7.39941406 99.71118164 -9.828125 97.97265625 C-10.73900879 97.32917236 -11.64989258 96.68568848 -12.58837891 96.02270508 C-14.06056885 94.95959106 -14.06056885 94.95959106 -15.5625 93.875 C-17.63767318 92.40055225 -19.71320486 90.92660895 -21.7890625 89.453125 C-22.8605957 88.68806641 -23.93212891 87.92300781 -25.03613281 87.13476562 C-28.2585582 84.84205692 -31.51242813 82.59691385 -34.7734375 80.359375 C-35.80694336 79.649021 -36.84044922 78.93866699 -37.90527344 78.20678711 C-39.88831091 76.84532491 -41.87326282 75.48664593 -43.86035156 74.13110352 C-57.73258509 64.55224472 -57.73258509 64.55224472 -60.3125 56.8125 C-60.80238853 51.24704509 -61.08064541 46.40569048 -58.625 41.3125 C-54.71564343 37.08616857 -50.66824467 33.26062739 -44.796875 32.4765625 C-35.7805879 32.3477584 -30.90006165 35.05202293 -23.5703125 39.9609375 C-22.76996582 40.49638184 -21.96961914 41.03182617 -21.14501953 41.58349609 C-20.54028809 41.98906738 -19.93555664 42.39463867 -19.3125 42.8125 C-19.56008057 42.19842285 -19.80766113 41.5843457 -20.06274414 40.95166016 C-21.18907025 38.12189533 -22.28203361 35.2803074 -23.375 32.4375 C-23.76494141 31.47199219 -24.15488281 30.50648437 -24.55664062 29.51171875 C-27.03112913 22.98607651 -28.01592495 17.67320731 -26.3125 10.8125 C-20.99390829 0.37230146 -11.15535603 -3.9990899 0 0 Z " fill="#7FD349" transform="translate(60.3125,25.1875)"/>
<path d="M0 0 C3.35862215 2.75579253 3.93420528 4.44045376 4.44140625 8.75390625 C4.31476166 15.89955567 1.14089258 22.40938755 -1.5 28.9375 C-2.28844797 30.9235326 -3.0725986 32.91117827 -3.85388184 34.90003967 C-4.55838152 36.68760155 -5.27401913 38.47076195 -5.99023438 40.25366211 C-7.11503017 42.82517493 -7.11503017 42.82517493 -7 45 C-5.865625 44.41089844 -4.73125 43.82179687 -3.5625 43.21484375 C-2.04218714 42.45468732 -0.52132404 41.6956307 1 40.9375 C1.74378906 40.54755859 2.48757813 40.15761719 3.25390625 39.75585938 C8.70780424 37.07633558 12.0574126 36.56558235 18 38 C21 40.0625 21 40.0625 23 43 C23.83743842 48.27586207 23.83743842 48.27586207 23 51 C19.57756572 55.70368948 16.85205644 57.97587226 11.4140625 60.32421875 C10.79405365 60.59716263 10.1740448 60.87010651 9.5352478 61.15132141 C7.57131967 62.01178056 5.59875388 62.84986401 3.625 63.6875 C2.30926094 64.2596098 0.99415008 64.8331666 -0.3203125 65.40820312 C-10.46218919 69.83130989 -10.46218919 69.83130989 -14.6940918 71.15869141 C-19.29420869 73.72084203 -20.10163027 76.55357619 -21.74609375 81.38671875 C-22.04693375 82.20372757 -22.34777374 83.02073639 -22.6577301 83.86250305 C-23.60887096 86.46269204 -24.5233957 89.07409 -25.4375 91.6875 C-26.07770196 93.45724159 -26.72025502 95.22613455 -27.36523438 96.99414062 C-28.94220137 101.31912989 -30.46895309 105.65743284 -32 110 C-39.26 110 -46.52 110 -54 110 C-53.01 107.133125 -52.02 104.26625 -51 101.3125 C-50.66822754 100.34570312 -50.33645508 99.37890625 -49.99462891 98.3828125 C-48.34341344 93.63048981 -46.59734156 88.95137287 -44.6484375 84.3125 C-44.26945312 83.39170654 -43.89046875 82.47091309 -43.5 81.5222168 C-42.76561705 79.75335474 -42.00867559 77.99364346 -41.2265625 76.24536133 C-39.09912661 71.05922495 -38.59827828 67.84803702 -40.75830078 62.63208008 C-41.16806152 61.76349365 -41.57782227 60.89490723 -42 60 C-42.5244873 58.85104248 -43.04897461 57.70208496 -43.58935547 56.51831055 C-45.7724123 51.77812379 -47.98472783 47.05102806 -50.25878906 42.35375977 C-51.23725948 40.32580092 -52.19052223 38.28746592 -53.140625 36.24609375 C-53.44260803 35.63753036 -53.74459106 35.02896698 -54.0557251 34.40196228 C-56.33555189 29.42435176 -56.12578415 26.20590088 -55 21 C-52.9375 18 -52.9375 18 -50 16 C-44.91915049 15.19351595 -43.33763316 15.10766018 -39.01953125 17.98828125 C-35.29203232 21.27604216 -33.56214857 25.31635556 -31.625 29.8125 C-31.27050781 30.60076172 -30.91601562 31.38902344 -30.55078125 32.20117188 C-29.68664907 34.12795309 -28.84135893 36.06316613 -28 38 C-25.53798642 32.28292038 -23.18367886 26.55508314 -21.0625 20.703125 C-20.7221875 19.77459717 -20.381875 18.84606934 -20.03125 17.8894043 C-19.3531009 16.03043449 -18.68608716 14.16735792 -18.03125 12.30004883 C-16.14036708 7.14729757 -14.42536971 3.51050962 -10 0 C-6.16652698 -1.27782434 -3.91272241 -0.96101954 0 0 Z " fill="#66A53D" transform="translate(391,122)"/>
<path d="M0 0 C7.07948284 4.40159151 12.71834788 11.50844618 14.6953125 19.67578125 C15.77744861 29.3811895 14.86008588 36.87672971 9.15234375 44.82421875 C4.61044731 50.41584411 -1.02423219 55.37751824 -8.3046875 56.67578125 C-18.64495983 57.58646298 -26.76673858 57.33273626 -35.3046875 50.67578125 C-37.68852154 48.53182988 -39.52512441 46.33654279 -41.3046875 43.67578125 C-41.71589844 43.12792969 -42.12710938 42.58007812 -42.55078125 42.015625 C-47.11549933 34.82895813 -46.36733238 24.73662748 -44.6796875 16.69921875 C-41.85455695 8.55174402 -36.00937213 2.97955989 -28.6796875 -1.32421875 C-19.3050931 -5.55141316 -9.10708155 -4.31068527 0 0 Z " fill="#FEECA0" transform="translate(276.3046875,236.32421875)"/>
<path d="M0 0 C3.83887511 1.70616671 5.4213118 3.16294674 7 7 C7.31884766 9.10644531 7.31884766 9.10644531 7.4140625 11.328125 C7.47207031 12.52695313 7.47207031 12.52695313 7.53125 13.75 C7.5621875 14.575 7.593125 15.4 7.625 16.25 C7.68300781 17.51070312 7.68300781 17.51070312 7.7421875 18.796875 C7.83615836 20.86423382 7.91915564 22.93208627 8 25 C8.37286133 24.58637207 8.74572266 24.17274414 9.12988281 23.74658203 C10.83046518 21.86707433 12.54008552 19.99601991 14.25 18.125 C15.12978516 17.14853516 15.12978516 17.14853516 16.02734375 16.15234375 C16.88779297 15.21455078 16.88779297 15.21455078 17.765625 14.2578125 C18.28930664 13.6817627 18.81298828 13.10571289 19.35253906 12.51220703 C22.15458759 9.94020221 24.18530149 9 28 9 C30.43075015 33.51318037 30.43075015 33.51318037 25.0234375 40.9921875 C22.20313483 44.18200309 19.11151415 47.00000613 15.73925781 49.59741211 C13.88159439 51.01485052 13.88159439 51.01485052 12.14038086 53.10839844 C6.75323684 57.86938758 -3.23439733 56.48779592 -10.02734375 56.23828125 C-19.64754957 55.16301294 -24.66143527 49.71191225 -30.546875 42.5 C-31.11720459 41.75500244 -31.68753418 41.01000488 -32.27514648 40.24243164 C-35.43578408 36.13337909 -38.82774866 32.11859002 -42.54174805 28.49633789 C-45.34774118 25.61377752 -46.38518276 23.36531755 -46.625 19.4375 C-46.42774235 15.7820692 -46.02666055 15.03367649 -43.625 12 C-39.51746006 8.87044576 -37.19698691 8.56691776 -32 9 C-25.65817892 12.03304486 -21.54415837 17.78330619 -17 23 C-16.34 23.66 -15.68 24.32 -15 25 C-14.98582031 23.68644531 -14.97164062 22.37289062 -14.95703125 21.01953125 C-14.91012012 19.28381949 -14.86187279 17.54814348 -14.8125 15.8125 C-14.80669922 14.94818359 -14.80089844 14.08386719 -14.79492188 13.19335938 C-14.63835974 8.65305757 -14.48256911 6.60690254 -11.57421875 2.94921875 C-7.49135576 -0.14235732 -5.14488753 -0.34880593 0 0 Z " fill="#CE2B2B" transform="translate(202,70)"/>
<path d="M0 0 C0.86795197 -0.0066568 1.73590393 -0.0133136 2.63015747 -0.02017212 C4.46419154 -0.03028488 6.2982623 -0.03498956 8.13232422 -0.03466797 C10.92868139 -0.03903652 13.72345367 -0.07535665 16.51953125 -0.11328125 C18.30468212 -0.11915076 20.08984047 -0.12311925 21.875 -0.125 C23.12215286 -0.14655655 23.12215286 -0.14655655 24.39450073 -0.16854858 C29.76698104 -0.12656803 32.78982608 0.79504202 37.0703125 4.3359375 C39.22503217 6.95907449 39.18147334 9.06601816 38.9453125 12.3359375 C38.35253132 16.12550291 37.22951166 18.01299694 34.0703125 20.3359375 C31.37672382 21.23380039 29.72695638 21.47957172 26.95361328 21.52880859 C26.12910675 21.54487152 25.30460022 21.56093445 24.45510864 21.57748413 C20.69485451 21.62207179 16.93477307 21.66298016 13.17431641 21.68603516 C11.19177523 21.70260778 9.20929412 21.72991499 7.22705078 21.76806641 C4.36459452 21.82284798 1.50353491 21.84470855 -1.359375 21.859375 C-2.24285614 21.88204437 -3.12633728 21.90471375 -4.03659058 21.92807007 C-8.52887297 21.91265962 -10.33340885 21.80887461 -13.96533203 18.92822266 C-17.05687537 14.84843056 -17.3662728 12.48764406 -16.9296875 7.3359375 C-12.51509512 0.24105689 -7.72399629 0.02057597 0 0 Z " fill="#9E3E28" transform="translate(361.9296875,433.6640625)"/>
<path d="M0 0 C0.86795197 -0.0066568 1.73590393 -0.0133136 2.63015747 -0.02017212 C4.46419154 -0.03028488 6.2982623 -0.03498956 8.13232422 -0.03466797 C10.92868139 -0.03903652 13.72345367 -0.07535665 16.51953125 -0.11328125 C18.30468212 -0.11915076 20.08984047 -0.12311925 21.875 -0.125 C23.12215286 -0.14655655 23.12215286 -0.14655655 24.39450073 -0.16854858 C29.76698104 -0.12656803 32.78982608 0.79504202 37.0703125 4.3359375 C39.22503217 6.95907449 39.18147334 9.06601816 38.9453125 12.3359375 C38.35253132 16.12550291 37.22951166 18.01299694 34.0703125 20.3359375 C31.37672382 21.23380039 29.72695638 21.47957172 26.95361328 21.52880859 C26.12910675 21.54487152 25.30460022 21.56093445 24.45510864 21.57748413 C20.69485451 21.62207179 16.93477307 21.66298016 13.17431641 21.68603516 C11.19177523 21.70260778 9.20929412 21.72991499 7.22705078 21.76806641 C4.36459452 21.82284798 1.50353491 21.84470855 -1.359375 21.859375 C-2.24285614 21.88204437 -3.12633728 21.90471375 -4.03659058 21.92807007 C-8.52887297 21.91265962 -10.33340885 21.80887461 -13.96533203 18.92822266 C-17.05687537 14.84843056 -17.3662728 12.48764406 -16.9296875 7.3359375 C-12.51509512 0.24105689 -7.72399629 0.02057597 0 0 Z " fill="#9E3E28" transform="translate(249.9296875,433.6640625)"/>
<path d="M0 0 C0.86795197 -0.0066568 1.73590393 -0.0133136 2.63015747 -0.02017212 C4.46419154 -0.03028488 6.2982623 -0.03498956 8.13232422 -0.03466797 C10.92868139 -0.03903652 13.72345367 -0.07535665 16.51953125 -0.11328125 C18.30468212 -0.11915076 20.08984047 -0.12311925 21.875 -0.125 C23.12215286 -0.14655655 23.12215286 -0.14655655 24.39450073 -0.16854858 C29.76698104 -0.12656803 32.78982608 0.79504202 37.0703125 4.3359375 C39.22503217 6.95907449 39.18147334 9.06601816 38.9453125 12.3359375 C38.35253132 16.12550291 37.22951166 18.01299694 34.0703125 20.3359375 C31.37672382 21.23380039 29.72695638 21.47957172 26.95361328 21.52880859 C26.12910675 21.54487152 25.30460022 21.56093445 24.45510864 21.57748413 C20.69485451 21.62207179 16.93477307 21.66298016 13.17431641 21.68603516 C11.19177523 21.70260778 9.20929412 21.72991499 7.22705078 21.76806641 C4.36459452 21.82284798 1.50353491 21.84470855 -1.359375 21.859375 C-2.24285614 21.88204437 -3.12633728 21.90471375 -4.03659058 21.92807007 C-8.52887297 21.91265962 -10.33340885 21.80887461 -13.96533203 18.92822266 C-17.05687537 14.84843056 -17.3662728 12.48764406 -16.9296875 7.3359375 C-12.51509512 0.24105689 -7.72399629 0.02057597 0 0 Z " fill="#9E3E28" transform="translate(137.9296875,433.6640625)"/>
<path d="M0 0 C1.33241226 0.002062 1.33241226 0.002062 2.69174194 0.00416565 C4.55926626 0.01318547 6.42677119 0.03670212 8.29394531 0.07397461 C11.14729943 0.12888435 13.99773402 0.13550216 16.8515625 0.13476562 C18.67190016 0.14950954 20.49221813 0.16699383 22.3125 0.1875 C23.58608871 0.19250771 23.58608871 0.19250771 24.88540649 0.19761658 C29.57733528 0.31016673 32.70263998 0.67982093 36.5234375 3.69140625 C39.0525172 6.72630189 39.5234375 8.2102806 39.5234375 12.19140625 C38.34442845 16.31793791 36.79367234 17.97950419 33.5234375 20.69140625 C28.31192611 23.29716195 19.98848753 22.00511569 14.18505859 22.04150391 C12.25101676 22.05804527 10.3170356 22.08531131 8.38330078 22.12353516 C5.59114957 22.17843298 2.80043146 22.20019857 0.0078125 22.21484375 C-0.85177063 22.23751312 -1.71135376 22.2601825 -2.59698486 22.28353882 C-6.8645611 22.26859581 -9.62243699 22.02099528 -13.00683594 19.28369141 C-16.29509849 15.83225094 -17.02014066 13.62332139 -16.9414978 8.78343201 C-16.19382097 5.41918074 -14.22285164 4.01621781 -11.60333252 1.92434692 C-7.8497698 -0.25168533 -4.24611002 -0.10831991 0 0 Z " fill="#9E3E28" transform="translate(361.4765625,383.30859375)"/>
<path d="M0 0 C1.33241226 0.002062 1.33241226 0.002062 2.69174194 0.00416565 C4.55926626 0.01318547 6.42677119 0.03670212 8.29394531 0.07397461 C11.14729943 0.12888435 13.99773402 0.13550216 16.8515625 0.13476562 C18.67190016 0.14950954 20.49221813 0.16699383 22.3125 0.1875 C23.58608871 0.19250771 23.58608871 0.19250771 24.88540649 0.19761658 C29.57733528 0.31016673 32.70263998 0.67982093 36.5234375 3.69140625 C39.0525172 6.72630189 39.5234375 8.2102806 39.5234375 12.19140625 C38.34442845 16.31793791 36.79367234 17.97950419 33.5234375 20.69140625 C28.31192611 23.29716195 19.98848753 22.00511569 14.18505859 22.04150391 C12.25101676 22.05804527 10.3170356 22.08531131 8.38330078 22.12353516 C5.59114957 22.17843298 2.80043146 22.20019857 0.0078125 22.21484375 C-0.85177063 22.23751312 -1.71135376 22.2601825 -2.59698486 22.28353882 C-6.8645611 22.26859581 -9.62243699 22.02099528 -13.00683594 19.28369141 C-16.29509849 15.83225094 -17.02014066 13.62332139 -16.9414978 8.78343201 C-16.19382097 5.41918074 -14.22285164 4.01621781 -11.60333252 1.92434692 C-7.8497698 -0.25168533 -4.24611002 -0.10831991 0 0 Z " fill="#9E3E28" transform="translate(249.4765625,383.30859375)"/>
<path d="M0 0 C1.33241226 0.002062 1.33241226 0.002062 2.69174194 0.00416565 C4.55926626 0.01318547 6.42677119 0.03670212 8.29394531 0.07397461 C11.14729943 0.12888435 13.99773402 0.13550216 16.8515625 0.13476562 C18.67190016 0.14950954 20.49221813 0.16699383 22.3125 0.1875 C23.58608871 0.19250771 23.58608871 0.19250771 24.88540649 0.19761658 C29.57733528 0.31016673 32.70263998 0.67982093 36.5234375 3.69140625 C39.0525172 6.72630189 39.5234375 8.2102806 39.5234375 12.19140625 C38.34442845 16.31793791 36.79367234 17.97950419 33.5234375 20.69140625 C28.31192611 23.29716195 19.98848753 22.00511569 14.18505859 22.04150391 C12.25101676 22.05804527 10.3170356 22.08531131 8.38330078 22.12353516 C5.59114957 22.17843298 2.80043146 22.20019857 0.0078125 22.21484375 C-0.85177063 22.23751312 -1.71135376 22.2601825 -2.59698486 22.28353882 C-6.8645611 22.26859581 -9.62243699 22.02099528 -13.00683594 19.28369141 C-16.29509849 15.83225094 -17.02014066 13.62332139 -16.9414978 8.78343201 C-16.19382097 5.41918074 -14.22285164 4.01621781 -11.60333252 1.92434692 C-7.8497698 -0.25168533 -4.24611002 -0.10831991 0 0 Z " fill="#9E3E28" transform="translate(137.4765625,383.30859375)"/>
<path d="M0 0 C0.86795197 -0.0066568 1.73590393 -0.0133136 2.63015747 -0.02017212 C4.46419154 -0.03028488 6.2982623 -0.03498956 8.13232422 -0.03466797 C10.92868139 -0.03903652 13.72345367 -0.07535665 16.51953125 -0.11328125 C18.30468212 -0.11915076 20.08984047 -0.12311925 21.875 -0.125 C23.12215286 -0.14655655 23.12215286 -0.14655655 24.39450073 -0.16854858 C29.76698104 -0.12656803 32.78982608 0.79504202 37.0703125 4.3359375 C39.22503217 6.95907449 39.18147334 9.06601816 38.9453125 12.3359375 C38.35253132 16.12550291 37.22951166 18.01299694 34.0703125 20.3359375 C31.37672382 21.23380039 29.72695638 21.47957172 26.95361328 21.52880859 C26.12910675 21.54487152 25.30460022 21.56093445 24.45510864 21.57748413 C20.69485451 21.62207179 16.93477307 21.66298016 13.17431641 21.68603516 C11.19177523 21.70260778 9.20929412 21.72991499 7.22705078 21.76806641 C4.36459452 21.82284798 1.50353491 21.84470855 -1.359375 21.859375 C-2.24285614 21.88204437 -3.12633728 21.90471375 -4.03659058 21.92807007 C-8.52887297 21.91265962 -10.33340885 21.80887461 -13.96533203 18.92822266 C-17.05687537 14.84843056 -17.3662728 12.48764406 -16.9296875 7.3359375 C-12.51509512 0.24105689 -7.72399629 0.02057597 0 0 Z " fill="#9E3E28" transform="translate(361.9296875,333.6640625)"/>
<path d="M0 0 C0.86795197 -0.0066568 1.73590393 -0.0133136 2.63015747 -0.02017212 C4.46419154 -0.03028488 6.2982623 -0.03498956 8.13232422 -0.03466797 C10.92868139 -0.03903652 13.72345367 -0.07535665 16.51953125 -0.11328125 C18.30468212 -0.11915076 20.08984047 -0.12311925 21.875 -0.125 C23.12215286 -0.14655655 23.12215286 -0.14655655 24.39450073 -0.16854858 C29.76698104 -0.12656803 32.78982608 0.79504202 37.0703125 4.3359375 C39.22503217 6.95907449 39.18147334 9.06601816 38.9453125 12.3359375 C38.35253132 16.12550291 37.22951166 18.01299694 34.0703125 20.3359375 C31.37672382 21.23380039 29.72695638 21.47957172 26.95361328 21.52880859 C26.12910675 21.54487152 25.30460022 21.56093445 24.45510864 21.57748413 C20.69485451 21.62207179 16.93477307 21.66298016 13.17431641 21.68603516 C11.19177523 21.70260778 9.20929412 21.72991499 7.22705078 21.76806641 C4.36459452 21.82284798 1.50353491 21.84470855 -1.359375 21.859375 C-2.24285614 21.88204437 -3.12633728 21.90471375 -4.03659058 21.92807007 C-8.52887297 21.91265962 -10.33340885 21.80887461 -13.96533203 18.92822266 C-17.05687537 14.84843056 -17.3662728 12.48764406 -16.9296875 7.3359375 C-12.51509512 0.24105689 -7.72399629 0.02057597 0 0 Z " fill="#9E3E28" transform="translate(249.9296875,333.6640625)"/>
<path d="M0 0 C0.86795197 -0.0066568 1.73590393 -0.0133136 2.63015747 -0.02017212 C4.46419154 -0.03028488 6.2982623 -0.03498956 8.13232422 -0.03466797 C10.92868139 -0.03903652 13.72345367 -0.07535665 16.51953125 -0.11328125 C18.30468212 -0.11915076 20.08984047 -0.12311925 21.875 -0.125 C23.12215286 -0.14655655 23.12215286 -0.14655655 24.39450073 -0.16854858 C29.76698104 -0.12656803 32.78982608 0.79504202 37.0703125 4.3359375 C39.22503217 6.95907449 39.18147334 9.06601816 38.9453125 12.3359375 C38.35253132 16.12550291 37.22951166 18.01299694 34.0703125 20.3359375 C31.37672382 21.23380039 29.72695638 21.47957172 26.95361328 21.52880859 C26.12910675 21.54487152 25.30460022 21.56093445 24.45510864 21.57748413 C20.69485451 21.62207179 16.93477307 21.66298016 13.17431641 21.68603516 C11.19177523 21.70260778 9.20929412 21.72991499 7.22705078 21.76806641 C4.36459452 21.82284798 1.50353491 21.84470855 -1.359375 21.859375 C-2.24285614 21.88204437 -3.12633728 21.90471375 -4.03659058 21.92807007 C-8.52887297 21.91265962 -10.33340885 21.80887461 -13.96533203 18.92822266 C-17.05687537 14.84843056 -17.3662728 12.48764406 -16.9296875 7.3359375 C-12.51509512 0.24105689 -7.72399629 0.02057597 0 0 Z " fill="#9E3E28" transform="translate(137.9296875,333.6640625)"/>
<path d="M0 0 C3.38657273 2.75942963 4.50095658 6.23242153 5.1875 10.4375 C4.49697668 14.49432452 2.77962359 15.71080423 -0.3125 18.375 C-3.5546875 19.95239258 -3.5546875 19.95239258 -7.1875 21.26953125 C-7.83444824 21.50661301 -8.48139648 21.74369476 -9.14794922 21.98796082 C-10.50702649 22.48262436 -11.86858412 22.97052128 -13.23242188 23.4519043 C-15.31246717 24.18748839 -17.38285717 24.94637031 -19.453125 25.70898438 C-31.07311499 29.90940401 -31.07311499 29.90940401 -35.3125 29.375 C-37.296875 27.1796875 -37.296875 27.1796875 -39.0625 24.25 C-39.95195313 22.82300781 -39.95195313 22.82300781 -40.859375 21.3671875 C-42.34653704 18.30491298 -42.93288198 15.74161241 -43.3125 12.375 C-39.33181257 10.66074951 -35.32686352 9.00844333 -31.3125 7.375 C-30.48733887 7.03774902 -29.66217773 6.70049805 -28.81201172 6.35302734 C-26.06825752 5.24029088 -23.31652831 4.14953387 -20.5625 3.0625 C-19.67602783 2.70091797 -18.78955566 2.33933594 -17.8762207 1.96679688 C-11.76545298 -0.41510529 -6.52114484 -1.76247158 0 0 Z " fill="#D66D27" transform="translate(80.3125,167.625)"/>
</svg>
