<?xml version="1.0" encoding="UTF-8"?>
<svg version="1.1" xmlns="http://www.w3.org/2000/svg" width="512" height="512">
<path d="M0 0 C0.7528125 0.01289062 1.505625 0.02578125 2.28125 0.0390625 C3.0340625 0.02617188 3.786875 0.01328125 4.5625 0 C7.85938671 0.98674426 8.8839831 2.85035422 10.78125 5.6640625 C11.37133789 8.42553711 11.37133789 8.42553711 11.50390625 11.56640625 C11.56586182 12.81607178 11.62781738 14.0657373 11.69165039 15.35327148 C11.74257329 16.76936049 11.79326374 18.18545786 11.84375 19.6015625 C11.91169065 21.10822912 11.98134416 22.61481923 12.05249023 24.12133789 C12.26667174 28.78657377 12.45360748 33.45267066 12.63867188 38.11914062 C12.7997977 42.12521418 12.9673734 46.13098561 13.13671875 50.13671875 C13.18429998 51.26225489 13.18429998 51.26225489 13.23284245 52.41052914 C13.39910191 56.33747941 13.56609889 60.2643979 13.73350525 64.19129944 C13.80144157 65.78646768 13.86935837 67.38163675 13.93725586 68.97680664 C13.98794047 70.16667348 13.98794047 70.16667348 14.03964901 71.38057804 C14.24364448 76.18722891 14.4414401 80.99408852 14.63410378 85.80120659 C14.756831 88.85181407 14.88256514 91.90229358 15.0087738 94.95275879 C15.06752494 96.39118828 15.12488189 97.82967546 15.18077087 99.26821899 C15.25827425 101.2596037 15.34105519 103.25078089 15.42407227 105.24194336 C15.46911392 106.36579941 15.51415558 107.48965546 15.56056213 108.64756775 C15.76214983 111.40298981 16.16885156 113.97355877 16.78125 116.6640625 C17.15894531 116.2515625 17.53664063 115.8390625 17.92578125 115.4140625 C31.29135404 101.39116646 51.8852203 89.74123639 71.55761719 88.48706055 C93.3158582 88.04563487 109.81634602 89.80083241 128.78125 100.6640625 C129.63203125 101.14746094 130.4828125 101.63085938 131.359375 102.12890625 C142.93419333 109.31112266 155.38908164 120.94677823 160.65332031 133.79199219 C161.60933888 135.80839773 161.60933888 135.80839773 163.59033203 136.37426758 C164.31591309 136.47634521 165.04149414 136.57842285 165.7890625 136.68359375 C166.60318604 136.81483643 167.41730957 136.9460791 168.25610352 137.08129883 C169.13065186 137.21173584 170.0052002 137.34217285 170.90625 137.4765625 C192.93756862 141.32882809 212.41850673 153.10943205 226.09375 170.9140625 C235.48549186 184.69391208 241.95021475 199.8988296 242.78125 216.6640625 C243.36616211 216.64311523 243.95107422 216.62216797 244.55371094 216.60058594 C247.21271465 216.51726135 249.87144355 216.46535353 252.53125 216.4140625 C253.45164062 216.38054687 254.37203125 216.34703125 255.3203125 216.3125 C256.20976562 216.29960937 257.09921875 216.28671875 258.015625 216.2734375 C258.83256836 216.25249023 259.64951172 216.23154297 260.49121094 216.20996094 C263.74887892 216.85593775 264.75938619 218.04158342 266.78125 220.6640625 C267.16617538 223.34325288 267.30906628 225.60855842 267.26708984 228.28393555 C267.27088654 229.04725189 267.27468323 229.81056824 267.27859497 230.59701538 C267.28600824 233.1236879 267.26458305 235.64921046 267.2421875 238.17578125 C267.23980022 239.94537725 267.23889835 241.71497582 267.2394104 243.48457336 C267.23627948 247.20284812 267.21971118 250.92073817 267.19287109 254.63891602 C267.15921326 259.35665563 267.15123351 264.07396638 267.15276146 268.79181194 C267.15221119 272.45463505 267.14113526 276.11736818 267.12675858 279.7801609 C267.12047841 281.51611463 267.11647276 283.25207839 267.11497116 284.98804283 C267.06196499 314.28685905 262.24224724 341.65512172 242.78125 364.6640625 C242.17023438 365.43621094 241.55921875 366.20835937 240.9296875 367.00390625 C225.92106778 385.17391608 202.10093016 397.73778957 178.78125 400.6640625 C176.1080862 400.73722916 173.45643262 400.71018634 170.78125 400.6640625 C170.80219727 401.29908691 170.82314453 401.93411133 170.84472656 402.58837891 C170.92829581 405.48844326 170.98003774 408.38825366 171.03125 411.2890625 C171.06476563 412.28808594 171.09828125 413.28710938 171.1328125 414.31640625 C171.21173846 420.27531613 171.02676031 424.09521862 166.78125 428.6640625 C162.44490107 432.0366587 159.65812863 433.16472842 154.17773438 433.17199707 C152.20945679 433.18891602 152.20945679 433.18891602 150.20141602 433.20617676 C148.75927512 433.1984006 147.31713642 433.19020799 145.875 433.18164062 C144.34691705 433.1870644 142.81883934 433.1941885 141.29077148 433.20288086 C137.15022921 433.22108694 133.01008645 433.21405807 128.86953735 433.20136452 C124.53215474 433.19122271 120.19480586 433.20063347 115.85742188 433.20690918 C108.57415641 433.21418215 101.2910533 433.20460711 94.0078125 433.18554688 C85.59277078 433.16377874 77.17811674 433.17083037 68.76308441 433.1928525 C61.53232256 433.21101651 54.30167727 433.21355994 47.07089996 433.20309782 C42.75480293 433.19686837 38.438888 433.19601209 34.12280273 433.20924377 C30.06460462 433.2208163 26.00690533 433.21275135 21.94876099 433.18966675 C20.46128161 433.18438709 18.97376011 433.18588077 17.48629761 433.19471741 C15.45246908 433.205684 13.41854859 433.18947909 11.38476562 433.17199707 C9.67915466 433.16973492 9.67915466 433.16973492 7.93908691 433.16742706 C2.91620463 432.3667711 -0.17831371 429.78373731 -3.578125 426.125 C-5.93625408 421.15047057 -5.6507821 416.71501924 -5.46875 411.2890625 C-5.45070313 410.26683594 -5.43265625 409.24460937 -5.4140625 408.19140625 C-5.36714491 405.68131501 -5.30151729 403.17318486 -5.21875 400.6640625 C-6.95125 400.71240234 -6.95125 400.71240234 -8.71875 400.76171875 C-13.01395399 400.75511365 -17.04986577 400.10448003 -21.21875 399.1015625 C-21.94860107 398.92665283 -22.67845215 398.75174316 -23.43041992 398.5715332 C-31.44817486 396.52417148 -38.82994382 393.34843735 -46.21875 389.6640625 C-47.25515625 389.15230469 -48.2915625 388.64054687 -49.359375 388.11328125 C-73.16263642 375.28879682 -89.44698312 352.59994383 -97.29296875 327.09375 C-101.21055042 312.58051494 -101.3982011 297.93746666 -101.45703125 283.01171875 C-101.46110678 282.1331616 -101.4651823 281.25460445 -101.46938133 280.34942436 C-101.49008982 275.71529258 -101.50446675 271.08118924 -101.51391602 266.44702148 C-101.52506121 261.66644846 -101.55959601 256.88633056 -101.59908772 252.10591984 C-101.62517927 248.41793435 -101.63360025 244.73005996 -101.63719749 241.04199028 C-101.64206817 239.27850644 -101.65369587 237.51502771 -101.67223549 235.7516346 C-101.69651021 233.29376156 -101.69568606 230.83710585 -101.6887207 228.37915039 C-101.70793579 227.29052956 -101.70793579 227.29052956 -101.72753906 226.17991638 C-101.69202544 222.74737897 -101.45192987 220.96740552 -99.33250427 218.21025085 C-96.80551054 216.36178231 -95.55443203 216.19391681 -92.453125 216.2734375 C-91.56367187 216.28632813 -90.67421875 216.29921875 -89.7578125 216.3125 C-88.37722656 216.36277344 -88.37722656 216.36277344 -86.96875 216.4140625 C-86.03289062 216.43210937 -85.09703125 216.45015625 -84.1328125 216.46875 C-81.82707985 216.51580577 -79.52344055 216.58152537 -77.21875 216.6640625 C-77.18128662 215.6445752 -77.18128662 215.6445752 -77.14306641 214.60449219 C-76.10964413 192.04971246 -63.87293585 172.46899649 -47.84375 157.3515625 C-38.38050741 149.36747683 -27.62574229 144.18653167 -16.21875 139.6640625 C-14.55193749 138.99776055 -12.88524631 138.3311549 -11.21875 137.6640625 C-13.88255238 132.45704618 -16.5478392 127.25079307 -19.21435547 122.04516602 C-20.11643131 120.28364341 -21.01813924 118.52193234 -21.91943359 116.76000977 C-27.11273944 106.60840241 -32.34728841 96.4811028 -37.67062378 86.39701843 C-41.39498957 79.34055706 -45.06333384 72.25647538 -48.71875 65.1640625 C-53.52307852 55.85410984 -58.35246234 46.5582443 -63.25 37.296875 C-64.24209514 35.42059682 -65.2306685 33.54245743 -66.21875 31.6640625 C-66.58830811 31.00349854 -66.95786621 30.34293457 -67.33862305 29.66235352 C-68.77909268 26.39182814 -68.12402928 24.04377181 -67.21875 20.6640625 C-64.63071019 17.78024671 -63.02345451 16.8149446 -59.21875 16.1015625 C-55.16502377 16.86163617 -53.9327651 18.60197569 -51.21875 21.6640625 C-49.43286133 24.59228516 -49.43286133 24.59228516 -47.80078125 27.828125 C-47.50221222 28.41287598 -47.20364319 28.99762695 -46.89602661 29.60009766 C-45.93225591 31.49207694 -44.98187005 33.39044719 -44.03125 35.2890625 C-43.35922242 36.61301016 -42.68611698 37.93641123 -42.01196289 39.25927734 C-40.67861072 41.87681474 -39.34910433 44.49624415 -38.02246094 47.1171875 C-35.77758189 51.53158961 -33.47808108 55.91479763 -31.15625 60.2890625 C-26.57504643 68.95349175 -22.06589758 77.65483825 -17.56616211 86.36181641 C-14.06732445 93.12482928 -10.53709133 99.87051567 -6.98828125 106.60742188 C-6.52796509 107.48162781 -6.06764893 108.35583374 -5.59338379 109.25653076 C-4.46867164 111.39246205 -3.34379011 113.52830394 -2.21875 115.6640625 C-2.2688623 114.49245575 -2.31897461 113.320849 -2.37060547 112.11373901 C-2.84462354 101.02225504 -3.31549377 89.93064121 -3.78335571 78.8388958 C-4.02393312 73.13780947 -4.26558355 67.43677301 -4.50976562 61.73583984 C-4.74578161 56.22460646 -4.97887528 50.71325624 -5.21002197 45.20181656 C-5.29829843 43.10886428 -5.38759243 41.01595465 -5.47796631 38.92309189 C-5.72012807 33.30714747 -5.94484032 27.6912794 -6.13342285 22.07326508 C-6.18827666 20.52447387 -6.24981479 18.97589716 -6.31970215 17.42771149 C-6.40691509 15.47878007 -6.46624054 13.52865643 -6.5234375 11.57861328 C-6.58120361 10.01930588 -6.58120361 10.01930588 -6.64013672 8.42849731 C-6.01731194 4.34256288 -4.06770319 1.21744638 0 0 Z " fill="#ADACB2" transform="translate(173.21875,79.3359375)"/>
<path d="M0 0 C0.7528125 0.01289062 1.505625 0.02578125 2.28125 0.0390625 C3.0340625 0.02617188 3.786875 0.01328125 4.5625 0 C7.85938671 0.98674426 8.8839831 2.85035422 10.78125 5.6640625 C11.37133789 8.42553711 11.37133789 8.42553711 11.50390625 11.56640625 C11.56586182 12.81607178 11.62781738 14.0657373 11.69165039 15.35327148 C11.74257329 16.76936049 11.79326374 18.18545786 11.84375 19.6015625 C11.91169065 21.10822912 11.98134416 22.61481923 12.05249023 24.12133789 C12.26667174 28.78657377 12.45360748 33.45267066 12.63867188 38.11914062 C12.7997977 42.12521418 12.9673734 46.13098561 13.13671875 50.13671875 C13.18429998 51.26225489 13.18429998 51.26225489 13.23284245 52.41052914 C13.39910191 56.33747941 13.56609889 60.2643979 13.73350525 64.19129944 C13.80144157 65.78646768 13.86935837 67.38163675 13.93725586 68.97680664 C13.98794047 70.16667348 13.98794047 70.16667348 14.03964901 71.38057804 C14.24364448 76.18722891 14.4414401 80.99408852 14.63410378 85.80120659 C14.756831 88.85181407 14.88256514 91.90229358 15.0087738 94.95275879 C15.06752494 96.39118828 15.12488189 97.82967546 15.18077087 99.26821899 C15.25827425 101.2596037 15.34105519 103.25078089 15.42407227 105.24194336 C15.46911392 106.36579941 15.51415558 107.48965546 15.56056213 108.64756775 C15.76214983 111.40298981 16.16885156 113.97355877 16.78125 116.6640625 C17.15894531 116.2515625 17.53664063 115.8390625 17.92578125 115.4140625 C31.29135404 101.39116646 51.8852203 89.74123639 71.55761719 88.48706055 C93.3158582 88.04563487 109.81634602 89.80083241 128.78125 100.6640625 C129.63203125 101.14746094 130.4828125 101.63085938 131.359375 102.12890625 C142.93419333 109.31112266 155.38908164 120.94677823 160.65332031 133.79199219 C161.60933888 135.80839773 161.60933888 135.80839773 163.59033203 136.37426758 C164.31591309 136.47634521 165.04149414 136.57842285 165.7890625 136.68359375 C166.60318604 136.81483643 167.41730957 136.9460791 168.25610352 137.08129883 C169.56792603 137.27695435 169.56792603 137.27695435 170.90625 137.4765625 C192.93756862 141.32882809 212.41850673 153.10943205 226.09375 170.9140625 C234.27440037 182.91696177 241.06509598 196.78841239 242.32446289 211.3737793 C242.41103653 212.36443893 242.49761017 213.35509857 242.58680725 214.3757782 C242.65097336 215.13091202 242.71513947 215.88604584 242.78125 216.6640625 C233.25389142 216.80332167 223.72688524 216.90981382 214.19872952 216.97493553 C209.77396534 217.00619721 205.34989944 217.04857388 200.92553711 217.11669922 C196.65257508 217.18207867 192.38028296 217.21780736 188.10685921 217.23332596 C186.4797518 217.24437924 184.85267947 217.26596466 183.22585869 217.29844284 C168.86652363 217.57361301 168.86652363 217.57361301 164.47680664 213.68994141 C164.02576065 213.14995514 163.57471466 212.60996887 163.11000061 212.05361938 C160.57671709 209.40440777 157.43269419 209.63595316 153.90625 209.3515625 C149.57288561 209.39997998 147.1531877 210.91946205 143.78125 213.6640625 C143.10155214 214.46182806 143.10155214 214.46182806 142.40812302 215.27571011 C140.22692056 217.13712007 138.90848962 217.04824677 136.06378174 217.06520081 C135.09373199 217.07799576 134.12368225 217.09079071 133.12423706 217.10397339 C132.06133453 217.10261383 130.99843201 217.10125427 129.90332031 217.09985352 C128.7827121 217.10992935 127.66210388 217.12000519 126.50753784 217.13038635 C122.7913829 217.15895531 119.07563302 217.16474795 115.359375 217.16796875 C112.77968171 217.17760517 110.19999009 217.18769729 107.62030029 217.19822693 C102.20645656 217.21621184 96.79277396 217.22187397 91.37890625 217.2199707 C85.1308161 217.2181706 78.88350491 217.24977927 72.63561177 217.29720169 C66.61755775 217.34124458 60.59992459 217.35193245 54.58168793 217.35014153 C52.02522352 217.35368136 49.46875334 217.36694942 46.91239166 217.39013863 C43.33319229 217.41956039 39.7559899 217.4108992 36.17675781 217.39282227 C34.59454941 217.41811005 34.59454941 217.41811005 32.9803772 217.44390869 C27.88455437 217.37856556 24.71665141 217.13346705 20.81903076 213.68101501 C20.31857616 213.1423175 19.81812157 212.60361998 19.30250168 212.04859829 C16.16062248 209.18908184 11.90971333 209.32917743 7.80859375 209.375 C3.93160066 209.927789 0.89018648 212.19824157 -1.44087219 215.27949524 C-4.25775741 217.47321577 -6.83729089 217.02254192 -10.35229492 217.00463867 C-11.43559837 217.00529579 -11.43559837 217.00529579 -12.54078674 217.00596619 C-14.92720605 217.00387664 -17.31292223 216.98053863 -19.69921875 216.95703125 C-21.35402543 216.95143586 -23.00883708 216.9471655 -24.66365051 216.94416809 C-29.01868414 216.93271474 -33.37341751 216.90324348 -37.72833252 216.87005615 C-42.17236265 216.83936576 -46.61644131 216.82566497 -51.06054688 216.81054688 C-59.78008569 216.77837412 -68.49938049 216.72717202 -77.21875 216.6640625 C-77.07445203 214.91475467 -76.9259245 213.16579543 -76.77563477 211.41699219 C-76.6933815 210.44300476 -76.61112823 209.46901733 -76.52638245 208.46551514 C-74.25691458 187.79862251 -61.20184586 168.62171443 -45.64453125 155.49609375 C-36.52220204 148.60660518 -26.77648434 143.84983091 -16.21875 139.6640625 C-14.55193749 138.99776055 -12.88524631 138.3311549 -11.21875 137.6640625 C-13.88255238 132.45704618 -16.5478392 127.25079307 -19.21435547 122.04516602 C-20.11643131 120.28364341 -21.01813924 118.52193234 -21.91943359 116.76000977 C-27.11273944 106.60840241 -32.34728841 96.4811028 -37.67062378 86.39701843 C-41.39498957 79.34055706 -45.06333384 72.25647538 -48.71875 65.1640625 C-53.52307852 55.85410984 -58.35246234 46.5582443 -63.25 37.296875 C-64.24209514 35.42059682 -65.2306685 33.54245743 -66.21875 31.6640625 C-66.58830811 31.00349854 -66.95786621 30.34293457 -67.33862305 29.66235352 C-68.77909268 26.39182814 -68.12402928 24.04377181 -67.21875 20.6640625 C-64.63071019 17.78024671 -63.02345451 16.8149446 -59.21875 16.1015625 C-55.16502377 16.86163617 -53.9327651 18.60197569 -51.21875 21.6640625 C-49.43286133 24.59228516 -49.43286133 24.59228516 -47.80078125 27.828125 C-47.50221222 28.41287598 -47.20364319 28.99762695 -46.89602661 29.60009766 C-45.93225591 31.49207694 -44.98187005 33.39044719 -44.03125 35.2890625 C-43.35922242 36.61301016 -42.68611698 37.93641123 -42.01196289 39.25927734 C-40.67861072 41.87681474 -39.34910433 44.49624415 -38.02246094 47.1171875 C-35.77758189 51.53158961 -33.47808108 55.91479763 -31.15625 60.2890625 C-26.57504643 68.95349175 -22.06589758 77.65483825 -17.56616211 86.36181641 C-14.06732445 93.12482928 -10.53709133 99.87051567 -6.98828125 106.60742188 C-6.52796509 107.48162781 -6.06764893 108.35583374 -5.59338379 109.25653076 C-4.46867164 111.39246205 -3.34379011 113.52830394 -2.21875 115.6640625 C-2.2688623 114.49245575 -2.31897461 113.320849 -2.37060547 112.11373901 C-2.84462354 101.02225504 -3.31549377 89.93064121 -3.78335571 78.8388958 C-4.02393312 73.13780947 -4.26558355 67.43677301 -4.50976562 61.73583984 C-4.74578161 56.22460646 -4.97887528 50.71325624 -5.21002197 45.20181656 C-5.29829843 43.10886428 -5.38759243 41.01595465 -5.47796631 38.92309189 C-5.72012807 33.30714747 -5.94484032 27.6912794 -6.13342285 22.07326508 C-6.18827666 20.52447387 -6.24981479 18.97589716 -6.31970215 17.42771149 C-6.40691509 15.47878007 -6.46624054 13.52865643 -6.5234375 11.57861328 C-6.58120361 10.01930588 -6.58120361 10.01930588 -6.64013672 8.42849731 C-6.01731194 4.34256288 -4.06770319 1.21744638 0 0 Z " fill="#FEA920" transform="translate(173.21875,79.3359375)"/>
<path d="M0 0 C21.34268308 -0.39437567 40.10445315 6.71501425 55.59375 21.37109375 C66.60987631 32.95506162 74.91895215 47.95476995 74.71875 64.12109375 C67.40802593 64.26053234 60.09759166 64.36693413 52.78580379 64.43196678 C49.39000695 64.46319087 45.99512428 64.50549309 42.59985352 64.57373047 C38.6903809 64.65180432 34.78126961 64.68058581 30.87109375 64.70703125 C29.66041733 64.73799896 28.44974091 64.76896667 27.20237732 64.8008728 C17.77167699 64.80461965 17.77167699 64.80461965 13.64672852 61.14697266 C13.16212662 60.60698639 12.67752472 60.06700012 12.17823792 59.51065063 C9.12362687 56.60240058 4.79744003 56.78676481 0.74609375 56.83203125 C-3.17595101 57.3912438 -6.14037941 59.7245183 -8.60090637 62.73652649 C-11.01417797 64.72501074 -12.75714924 64.48218051 -15.85424805 64.46166992 C-17.56568245 64.46133003 -17.56568245 64.46133003 -19.31169128 64.46098328 C-21.15867363 64.43775749 -21.15867363 64.43775749 -23.04296875 64.4140625 C-24.93436333 64.40769524 -24.93436333 64.40769524 -26.8639679 64.40119934 C-30.21299943 64.38724002 -33.56141758 64.36029479 -36.91027832 64.3270874 C-40.32880353 64.2963748 -43.74739215 64.28269151 -47.16601562 64.26757812 C-53.87126349 64.23446598 -60.57622133 64.18423393 -67.28125 64.12109375 C-67.50547081 48.09705544 -59.38515232 33.79426364 -48.515625 22.359375 C-47.77828125 21.62074219 -47.0409375 20.88210937 -46.28125 20.12109375 C-45.66765625 19.49589844 -45.0540625 18.87070313 -44.421875 18.2265625 C-32.3064581 6.75833668 -16.4948322 0.60873785 0 0 Z " fill="#FEAA20" transform="translate(180.28125,231.87890625)"/>
<path d="M0 0 C58.08 0 116.16 0 176 0 C176 22 176 22 172 28 C167.74969412 31.5102442 164.87098476 32.50067373 159.39648438 32.50793457 C157.42820679 32.52485352 157.42820679 32.52485352 155.42016602 32.54211426 C153.97802512 32.5343381 152.53588642 32.52614549 151.09375 32.51757812 C149.56566705 32.5230019 148.03758934 32.530126 146.50952148 32.53881836 C142.36897921 32.55702444 138.22883645 32.54999557 134.08828735 32.53730202 C129.75090474 32.52716021 125.41355586 32.53657097 121.07617188 32.54284668 C113.79290641 32.55011965 106.5098033 32.54054461 99.2265625 32.52148438 C90.81152078 32.49971624 82.39686674 32.50676787 73.98183441 32.52879 C66.75107256 32.54695401 59.52042727 32.54949744 52.28964996 32.53903532 C47.97355293 32.53280587 43.657638 32.53194959 39.34155273 32.54518127 C35.28335462 32.5567538 31.22565533 32.54868885 27.16751099 32.52560425 C25.68003161 32.52032459 24.19251011 32.52181827 22.70504761 32.53065491 C20.67121908 32.5416215 18.63729859 32.52541659 16.60351562 32.50793457 C15.46644165 32.50642647 14.32936768 32.50491837 13.15783691 32.50336456 C9.1626725 31.86652858 7.11183121 30.57000032 4 28 C0 22 0 22 0 0 Z " fill="#8B8991" transform="translate(168,480)"/>
<path d="M0 0 C0.7528125 0.01289062 1.505625 0.02578125 2.28125 0.0390625 C3.0340625 0.02617188 3.786875 0.01328125 4.5625 0 C7.85938671 0.98674426 8.8839831 2.85035422 10.78125 5.6640625 C11.37133789 8.42553711 11.37133789 8.42553711 11.50390625 11.56640625 C11.56594238 12.81446045 11.62797852 14.06251465 11.69189453 15.34838867 C11.74291153 16.766099 11.79351213 18.18382435 11.84375 19.6015625 C11.91104339 21.12287228 11.97996238 22.64411081 12.05029297 24.1652832 C12.21348746 27.77842797 12.3635018 31.39189318 12.50732422 35.00585938 C12.79570663 42.1595017 13.12938419 49.31092255 13.46115685 56.46264458 C13.74688287 62.65103822 14.02408181 68.83982087 14.3016777 75.02858353 C14.40493308 77.32230837 14.50940998 79.61597514 14.61404419 81.90963745 C15.44264233 100.16904537 16.00916997 118.38025911 15.78125 136.6640625 C14.5636499 136.73117432 13.3460498 136.79828613 12.09155273 136.86743164 C11.36491425 136.90756378 10.63827576 136.94769592 9.88961792 136.98904419 C8.39400735 137.07129954 6.89831921 137.15214811 5.40258789 137.23217773 C0.16853678 137.53085142 -5.01232154 138.04880432 -10.21875 138.6640625 C-19.28582963 122.50017583 -27.72284976 106.02958545 -36.12353516 89.51245117 C-43.04634828 75.90597903 -50.03538833 62.33615095 -57.32910156 48.92390442 C-58.865829 46.09321491 -60.38369135 43.252392 -61.90625 40.4140625 C-62.53724609 39.27066406 -63.16824219 38.12726563 -63.81835938 36.94921875 C-64.40810547 35.83933594 -64.99785156 34.72945312 -65.60546875 33.5859375 C-66.13358154 32.61237305 -66.66169434 31.63880859 -67.20581055 30.63574219 C-68.48085777 26.89511197 -68.14757327 24.47459045 -67.21875 20.6640625 C-64.63071019 17.78024671 -63.02345451 16.8149446 -59.21875 16.1015625 C-55.16502377 16.86163617 -53.9327651 18.60197569 -51.21875 21.6640625 C-49.43286133 24.59228516 -49.43286133 24.59228516 -47.80078125 27.828125 C-47.50221222 28.41287598 -47.20364319 28.99762695 -46.89602661 29.60009766 C-45.93225591 31.49207694 -44.98187005 33.39044719 -44.03125 35.2890625 C-43.35922242 36.61301016 -42.68611698 37.93641123 -42.01196289 39.25927734 C-40.67861072 41.87681474 -39.34910433 44.49624415 -38.02246094 47.1171875 C-35.77758189 51.53158961 -33.47808108 55.91479763 -31.15625 60.2890625 C-26.57504643 68.95349175 -22.06589758 77.65483825 -17.56616211 86.36181641 C-14.06732445 93.12482928 -10.53709133 99.87051567 -6.98828125 106.60742188 C-6.52796509 107.48162781 -6.06764893 108.35583374 -5.59338379 109.25653076 C-4.46867164 111.39246205 -3.34379011 113.52830394 -2.21875 115.6640625 C-2.2688623 114.49245575 -2.31897461 113.320849 -2.37060547 112.11373901 C-2.84462354 101.02225504 -3.31549377 89.93064121 -3.78335571 78.8388958 C-4.02393312 73.13780947 -4.26558355 67.43677301 -4.50976562 61.73583984 C-4.74578161 56.22460646 -4.97887528 50.71325624 -5.21002197 45.20181656 C-5.29829843 43.10886428 -5.38759243 41.01595465 -5.47796631 38.92309189 C-5.72012807 33.30714747 -5.94484032 27.6912794 -6.13342285 22.07326508 C-6.18827666 20.52447387 -6.24981479 18.97589716 -6.31970215 17.42771149 C-6.40691509 15.47878007 -6.46624054 13.52865643 -6.5234375 11.57861328 C-6.56194824 10.53907501 -6.60045898 9.49953674 -6.64013672 8.42849731 C-6.01731194 4.34256288 -4.06770319 1.21744638 0 0 Z " fill="#E67400" transform="translate(173.21875,79.3359375)"/>
<path d="M0 0 C0.66 -0.0103125 1.32 -0.020625 2 -0.03125 C4.93576773 0.7485633 6.09484847 2.16097313 8 4.5 C8.51757812 7.30566406 8.51757812 7.30566406 8.53125 10.515625 C8.53898437 12.26939453 8.53898437 12.26939453 8.546875 14.05859375 C8.53140625 15.27675781 8.5159375 16.49492188 8.5 17.75 C8.51546875 18.95269531 8.5309375 20.15539062 8.546875 21.39453125 C8.51045162 29.68995707 7.55533997 35.44281284 2.03515625 41.7421875 C1.38417969 42.28101563 0.73320312 42.81984375 0.0625 43.375 C-0.91009766 44.20644531 -0.91009766 44.20644531 -1.90234375 45.0546875 C-7.73057754 49.07041656 -13.51738647 48.88069546 -20.40625 49.15625 C-23.73285489 49.47444699 -26.05442631 49.96126747 -29 51.5 C-30.39935013 54.29870027 -30.25265405 56.40498792 -30 59.5 C-28.14657225 62.05949546 -27.06243607 62.47918798 -24 63.5 C-21.73734982 63.60490781 -19.4720186 63.6551945 -17.20703125 63.67578125 C-15.84047966 63.69899577 -14.47394318 63.72311375 -13.10742188 63.74804688 C-10.96596392 63.78300047 -8.82505672 63.81242081 -6.68334961 63.82592773 C2.66862299 63.89635737 9.90738647 64.03730905 17.2421875 70.46484375 C17.78101563 71.11582031 18.31984375 71.76679688 18.875 72.4375 C19.42929687 73.08589844 19.98359375 73.73429687 20.5546875 74.40234375 C24.98091702 80.82635795 24.36710807 87.54544096 24.375 95.0625 C24.39949219 96.29419922 24.42398438 97.52589844 24.44921875 98.79492188 C24.45308594 99.97763672 24.45695312 101.16035156 24.4609375 102.37890625 C24.46915527 103.4572876 24.47737305 104.53566895 24.48583984 105.64672852 C23.88716162 109.16268452 22.76516439 110.32258602 20 112.5 C18 113.03125 18 113.03125 16 113 C15.01 113.01546875 15.01 113.01546875 14 113.03125 C10.86821406 112.19936936 9.85473426 111.18491008 8 108.5 C7.41420118 105.19289939 7.39425396 101.91509529 7.375 98.5625 C7.58507285 90.69499623 7.58507285 90.69499623 5 83.5 C0.9708078 81.41818187 -2.49624678 81.24848498 -6.98828125 81.2265625 C-8.34831542 81.20626672 -9.7083414 81.18541581 -11.06835938 81.1640625 C-13.18781483 81.14154374 -15.30694435 81.1250154 -17.42651367 81.11914062 C-26.75811178 81.07564174 -33.91952657 80.9520525 -41.2421875 74.53515625 C-41.78101563 73.88417969 -42.31984375 73.23320312 -42.875 72.5625 C-43.42929687 71.91410156 -43.98359375 71.26570313 -44.5546875 70.59765625 C-49.03412097 64.09642443 -48.67463728 57.12859083 -48 49.5 C-46.31914417 42.84040667 -41.53621678 38.31452553 -36 34.5 C-30.75468366 31.82802689 -25.3697917 32.07479167 -19.59375 31.84375 C-16.20388645 31.51950218 -13.91887173 31.23440204 -11 29.5 C-7.74590932 24.46108989 -8.64264357 17.50968655 -8.609375 11.71679688 C-8.43298828 5.12679308 -8.43298828 5.12679308 -6.2109375 1.91015625 C-3.8897256 0.42966597 -2.72477286 -0.04257458 0 0 Z " fill="#ADACB3" transform="translate(344,63.5)"/>
<path d="M0 0 C0.66 -0.0103125 1.32 -0.020625 2 -0.03125 C4.93576773 0.7485633 6.09484847 2.16097313 8 4.5 C8.51757812 7.30566406 8.51757812 7.30566406 8.53125 10.515625 C8.53898437 12.26939453 8.53898437 12.26939453 8.546875 14.05859375 C8.53140625 15.27675781 8.5159375 16.49492187 8.5 17.75 C8.51546875 18.95269531 8.5309375 20.15539062 8.546875 21.39453125 C8.51045162 29.68995707 7.55533997 35.44281284 2.03515625 41.7421875 C1.38417969 42.28101563 0.73320312 42.81984375 0.0625 43.375 C-0.91009766 44.20644531 -0.91009766 44.20644531 -1.90234375 45.0546875 C-7.73057754 49.07041656 -13.51738647 48.88069546 -20.40625 49.15625 C-23.73285489 49.47444699 -26.05442631 49.96126747 -29 51.5 C-30.39935013 54.29870027 -30.25265405 56.40498792 -30 59.5 C-28.14657225 62.05949546 -27.06243607 62.47918798 -24 63.5 C-22.32111125 63.60242931 -20.63891063 63.65478231 -18.95703125 63.67578125 C-17.96509766 63.69962891 -16.97316406 63.72347656 -15.95117188 63.74804688 C-13.87845665 63.79061041 -11.80548031 63.8220785 -9.73242188 63.84179688 C-2.06341755 64.05468725 3.40792697 65.35224262 9.2421875 70.46484375 C9.78101563 71.11582031 10.31984375 71.76679687 10.875 72.4375 C11.42929687 73.08589844 11.98359375 73.73429687 12.5546875 74.40234375 C16.98091702 80.82635795 16.36710807 87.54544096 16.375 95.0625 C16.39949219 96.29419922 16.42398438 97.52589844 16.44921875 98.79492188 C16.45308594 99.97763672 16.45695312 101.16035156 16.4609375 102.37890625 C16.46915527 103.4572876 16.47737305 104.53566895 16.48583984 105.64672852 C15.88716162 109.16268452 14.76516439 110.32258602 12 112.5 C10 113.03125 10 113.03125 8 113 C7.01 113.01546875 7.01 113.01546875 6 113.03125 C2.86821406 112.19936936 1.85473426 111.18491008 0 108.5 C-0.58579882 105.19289939 -0.60574604 101.91509529 -0.625 98.5625 C-0.41492715 90.69499623 -0.41492715 90.69499623 -3 83.5 C-6.50267183 81.77807757 -9.35893801 81.25265278 -13.23828125 81.2265625 C-14.22376953 81.2059375 -15.20925781 81.1853125 -16.22460938 81.1640625 C-18.27140178 81.13817012 -20.31830502 81.11985193 -22.36523438 81.109375 C-30.01077433 80.93006592 -35.42597139 79.63194493 -41.2421875 74.53515625 C-41.78101563 73.88417969 -42.31984375 73.23320313 -42.875 72.5625 C-43.42929688 71.91410156 -43.98359375 71.26570313 -44.5546875 70.59765625 C-49.03412097 64.09642443 -48.67463728 57.12859083 -48 49.5 C-46.31914417 42.84040667 -41.53621678 38.31452553 -36 34.5 C-30.75468366 31.82802689 -25.3697917 32.07479167 -19.59375 31.84375 C-16.20388645 31.51950218 -13.91887173 31.23440204 -11 29.5 C-7.74590932 24.46108989 -8.64264357 17.50968655 -8.609375 11.71679688 C-8.43298828 5.12679308 -8.43298828 5.12679308 -6.2109375 1.91015625 C-3.8897256 0.42966597 -2.72477286 -0.04257458 0 0 Z " fill="#ADACB3" transform="translate(256,-0.5)"/>
<path d="M0 0 C21.34268308 -0.39437567 40.10445315 6.71501425 55.59375 21.37109375 C65.12651812 31.39524167 74.79362169 46.27202575 74.84375 60.55859375 C74.8025 61.73421875 74.76125 62.90984375 74.71875 64.12109375 C70.75875 64.12109375 66.79875 64.12109375 62.71875 64.12109375 C62.368125 62.42984375 62.0175 60.73859375 61.65625 58.99609375 C57.63389692 43.13118485 48.59087103 29.97241591 34.71875 21.12109375 C21.10450146 13.53426026 5.58907144 10.80493347 -9.8046875 13.80859375 C-25.74549817 18.35229275 -39.35519081 27.79951488 -47.81640625 42.21875 C-51.36340394 49.24653475 -54.18277098 56.30319516 -55.28125 64.12109375 C-59.24125 64.12109375 -63.20125 64.12109375 -67.28125 64.12109375 C-68.59631285 50.97046528 -61.08609682 37.41114463 -53.11328125 27.3984375 C-50.91062419 24.8849063 -48.64209928 22.48607039 -46.28125 20.12109375 C-45.66765625 19.49589844 -45.0540625 18.87070313 -44.421875 18.2265625 C-32.3064581 6.75833668 -16.4948322 0.60873785 0 0 Z " fill="#FEEA94" transform="translate(180.28125,231.87890625)"/>
<path d="M0 0 C8.25495491 5.51859023 13.95455119 14.63076632 17 24 C17 25.32 17 26.64 17 28 C12.99848192 28.14935324 8.99806236 28.2576761 4.99438477 28.32958984 C3.63537303 28.35959295 2.27655219 28.40041185 0.91821289 28.45263672 C-11.82854703 28.93011359 -11.82854703 28.93011359 -16.18359375 25.0390625 C-16.6520874 24.49717285 -17.12058105 23.9552832 -17.60327148 23.39697266 C-20.22337407 20.77641209 -23.2911285 20.9765219 -26.875 20.6875 C-31.20836439 20.73591748 -33.6280623 22.25539955 -37 25 C-37.41354736 25.53407471 -37.82709473 26.06814941 -38.25317383 26.6184082 C-40.94202575 28.74506271 -43.2607922 28.33719486 -46.63671875 28.29296875 C-47.93544922 28.28330078 -49.23417969 28.27363281 -50.57226562 28.26367188 C-51.94401639 28.23860585 -53.31576118 28.21321101 -54.6875 28.1875 C-56.07094924 28.1724502 -57.45441401 28.1587623 -58.83789062 28.14648438 C-62.22565207 28.11107223 -65.61263139 28.06168054 -69 28 C-67.77434999 18.42007734 -63.29234488 9.52224812 -56 3 C-37.93349813 -10.63673458 -19.3492624 -11.26905366 0 0 Z " fill="#FEEA94" transform="translate(354,268)"/>
<path d="M0 0 C8.31218861 5.36926684 13.80395532 14.78787121 17 24 C17 25.32 17 26.64 17 28 C12.99848192 28.14935324 8.99806236 28.2576761 4.99438477 28.32958984 C3.63537303 28.35959295 2.27655219 28.40041185 0.91821289 28.45263672 C-11.82854703 28.93011359 -11.82854703 28.93011359 -16.18359375 25.0390625 C-16.6520874 24.49717285 -17.12058105 23.9552832 -17.60327148 23.39697266 C-20.22337407 20.77641209 -23.2911285 20.9765219 -26.875 20.6875 C-31.20836439 20.73591748 -33.6280623 22.25539955 -37 25 C-37.41354736 25.53407471 -37.82709473 26.06814941 -38.25317383 26.6184082 C-40.94202575 28.74506271 -43.2607922 28.33719486 -46.63671875 28.29296875 C-47.93544922 28.28330078 -49.23417969 28.27363281 -50.57226562 28.26367188 C-51.94401639 28.23860585 -53.31576118 28.21321101 -54.6875 28.1875 C-56.07094924 28.1724502 -57.45441401 28.1587623 -58.83789062 28.14648438 C-62.22565207 28.11107223 -65.61263139 28.06168054 -69 28 C-67.77434999 18.42007734 -63.29234488 9.52224812 -56 3 C-37.91332443 -10.65196185 -19.37083168 -11.24321 0 0 Z " fill="#FEEA94" transform="translate(210,268)"/>
<path d="M0 0 C0.66 -0.0103125 1.32 -0.020625 2 -0.03125 C4.96808462 0.75714748 6.09174466 2.10982274 8 4.5 C8.57421875 7.70117188 8.57421875 7.70117188 8.6875 11.46875 C8.71674561 12.14490356 8.74599121 12.82105713 8.77612305 13.5177002 C8.86880036 15.67822454 8.93721934 17.83841372 9 20 C9.54213359 38.29909388 13.46048441 54.18987924 27.22265625 67.20703125 C36.55406621 74.91102231 46.15690913 79.37110091 58.1875 79.875 C65.6672428 80.28739663 65.6672428 80.28739663 68.875 82.6875 C71 85.5 71 85.5 71.625 88.5 C70.83714587 92.28169981 69.79585101 93.82860659 67 96.5 C64.11461946 96.99684093 61.93166611 97.16905994 59.0625 97.0625 C58.30614258 97.04517822 57.54978516 97.02785645 56.77050781 97.01000977 C38.57725354 96.25547738 22.21805639 86.31723388 9.875 73.375 C-4.20249878 56.8182656 -8.07982486 37.58619651 -8.375 16.4375 C-8.40110352 15.32995361 -8.42720703 14.22240723 -8.45410156 13.08129883 C-8.45635742 12.03224365 -8.45861328 10.98318848 -8.4609375 9.90234375 C-8.46915527 8.95866943 -8.47737305 8.01499512 -8.48583984 7.04272461 C-7.61320031 2.47561869 -4.63035707 -0.07234933 0 0 Z " fill="#8B8A92" transform="translate(112,351.5)"/>
<path d="M0 0 C21.14724413 -0.43484593 39.09129559 6.43299635 54.52734375 20.9453125 C55.25566406 21.66074219 55.98398437 22.37617188 56.734375 23.11328125 C57.28738281 23.65339844 57.84039062 24.19351562 58.41015625 24.75 C66.87143817 33.80425586 74.89633228 48.31719382 74.984375 60.86328125 C74.901875 61.93578125 74.819375 63.00828125 74.734375 64.11328125 C70.774375 64.11328125 66.814375 64.11328125 62.734375 64.11328125 C62.38375 62.42203125 62.033125 60.73078125 61.671875 58.98828125 C57.64952192 43.12337235 48.60649603 29.96460341 34.734375 21.11328125 C21.12012646 13.52644776 5.60469644 10.79712097 -9.7890625 13.80078125 C-25.9524809 18.40793139 -39.31039791 27.91949683 -47.86328125 42.453125 C-49.86987633 46.25950732 -51.67611084 50.11481394 -53.265625 54.11328125 C-54.8792981 51.01736545 -56.21167482 47.87600953 -57.453125 44.61328125 C-57.81792969 43.67484375 -58.18273437 42.73640625 -58.55859375 41.76953125 C-59.57227446 37.96122802 -58.91409349 36.24363917 -56.98828125 32.88671875 C-45.38892135 16.12905527 -29.59704372 5.1644333 -9.7421875 0.5234375 C-6.4985121 0.08331054 -3.26902515 0.1133992 0 0 Z " fill="#FEEA94" transform="translate(324.265625,231.88671875)"/>
<path d="M0 0 C5.50009041 4.81888655 10.88219894 10.02016088 15.3046875 15.86328125 C15.3046875 16.52328125 15.3046875 17.18328125 15.3046875 17.86328125 C10.90558216 19.25610144 6.93309608 20.11095529 2.3046875 19.86328125 C-0.67130472 17.78679946 -2.68804873 15.42403233 -5.05078125 12.67578125 C-14.55058676 2.57259075 -29.25143593 -2.08820411 -42.78637695 -2.60498047 C-60.02134952 -2.82631273 -74.05559722 3.02010731 -86.6015625 14.8125 C-87.86542837 16.05042832 -89.09942026 17.32153745 -90.26953125 18.6484375 C-91.6953125 19.86328125 -91.6953125 19.86328125 -95.0078125 19.61328125 C-96.2246875 19.36578125 -97.4415625 19.11828125 -98.6953125 18.86328125 C-100.396875 18.58484375 -100.396875 18.58484375 -102.1328125 18.30078125 C-102.9784375 18.15640625 -103.8240625 18.01203125 -104.6953125 17.86328125 C-98.39563047 4.10745383 -83.60135672 -5.30296729 -70.21875 -11.234375 C-46.82968868 -19.69696264 -19.44730334 -15.41692018 0 0 Z " fill="#FEEA94" transform="translate(300.6953125,199.13671875)"/>
<path d="M0 0 C5.51594631 3.91896718 10.36882523 9.5823741 12 16.24609375 C12.1546875 17.33083984 12.1546875 17.33083984 12.3125 18.4375 C-2.88057159 19.36036374 -2.88057159 19.36036374 -7.234375 17.13671875 C-9 15.5 -9 15.5 -10.36328125 13.84765625 C-12.88068276 11.16688355 -16.02750163 11.41008051 -19.5625 11.125 C-23.89586439 11.17341748 -26.3155623 12.69289955 -29.6875 15.4375 C-30.15518799 15.97157471 -30.62287598 16.50564941 -31.10473633 17.0559082 C-33.10277924 18.79999656 -34.08120003 18.7895218 -36.69921875 18.73046875 C-37.45654297 18.72080078 -38.21386719 18.71113281 -38.99414062 18.70117188 C-39.77982422 18.67603516 -40.56550781 18.65089844 -41.375 18.625 C-42.57092773 18.60469727 -42.57092773 18.60469727 -43.79101562 18.58398438 C-45.75679967 18.54867089 -47.72223582 18.49486447 -49.6875 18.4375 C-47.27601859 8.84982272 -42.22514161 2.70109432 -33.80078125 -2.41015625 C-22.92820604 -8.3388248 -10.32206427 -6.16529389 0 0 Z " fill="#FEAA21" transform="translate(346.6875,277.5625)"/>
<path d="M0 0 C5.51594631 3.91896718 10.36882523 9.5823741 12 16.24609375 C12.1546875 17.33083984 12.1546875 17.33083984 12.3125 18.4375 C-2.88057159 19.36036374 -2.88057159 19.36036374 -7.234375 17.13671875 C-9 15.5 -9 15.5 -10.36328125 13.84765625 C-12.88068276 11.16688355 -16.02750163 11.41008051 -19.5625 11.125 C-23.89586439 11.17341748 -26.3155623 12.69289955 -29.6875 15.4375 C-30.15518799 15.97157471 -30.62287598 16.50564941 -31.10473633 17.0559082 C-33.10277924 18.79999656 -34.08120003 18.7895218 -36.69921875 18.73046875 C-37.45654297 18.72080078 -38.21386719 18.71113281 -38.99414062 18.70117188 C-39.77982422 18.67603516 -40.56550781 18.65089844 -41.375 18.625 C-42.57092773 18.60469727 -42.57092773 18.60469727 -43.79101562 18.58398438 C-45.75679967 18.54867089 -47.72223582 18.49486447 -49.6875 18.4375 C-47.27601859 8.84982272 -42.22514161 2.70109432 -33.80078125 -2.41015625 C-22.92820604 -8.3388248 -10.32206427 -6.16529389 0 0 Z " fill="#FEAA21" transform="translate(202.6875,277.5625)"/>
<path d="M0 0 C1.70703125 1.4296875 1.70703125 1.4296875 3.70703125 4.4296875 C2.13656382 5.49065213 0.55008608 6.52794985 -1.04296875 7.5546875 C-1.9246875 8.13476562 -2.80640625 8.71484375 -3.71484375 9.3125 C-6.29296875 10.4296875 -6.29296875 10.4296875 -8.33984375 9.73828125 C-9.30664062 9.09052734 -9.30664062 9.09052734 -10.29296875 8.4296875 C-11.78828109 7.73205058 -13.28844797 7.0447371 -14.79296875 6.3671875 C-15.54578125 6.02558594 -16.29859375 5.68398437 -17.07421875 5.33203125 C-24.99701319 2.10990886 -33.08662375 2.86324875 -41.0859375 5.49609375 C-43.92552406 6.69726399 -46.08262454 8.29302143 -48.29296875 10.4296875 C-52.6006169 8.86326999 -56.35468339 6.74632594 -60.29296875 4.4296875 C-43.66252232 -13.81015697 -19.67734248 -13.5076377 0 0 Z " fill="#FEEA93" transform="translate(284.29296875,221.5703125)"/>
<path d="M0 0 C3.25 1.8125 3.25 1.8125 7.25 6.8125 C-1.99 6.8125 -11.23 6.8125 -20.75 6.8125 C-14.17415109 -1.07851869 -9.90620753 -3.13696572 0 0 Z " fill="#FEE992" transform="translate(334.75,289.1875)"/>
<path d="M0 0 C3.25 1.8125 3.25 1.8125 7.25 6.8125 C-1.99 6.8125 -11.23 6.8125 -20.75 6.8125 C-14.17415109 -1.07851869 -9.90620753 -3.13696572 0 0 Z " fill="#FEE992" transform="translate(190.75,289.1875)"/>
<path d="M0 0 C3 1 3 1 5 2 C3.25731793 5.96064107 0.85325271 9.74436549 -2 13 C-2.66 13 -3.32 13 -4 13 C-5.76171875 11.13671875 -5.76171875 11.13671875 -7.6875 8.6875 C-8.33074219 7.88699219 -8.97398437 7.08648437 -9.63671875 6.26171875 C-10.08660156 5.51535156 -10.53648437 4.76898438 -11 4 C-10.67 3.01 -10.34 2.02 -10 1 C-6.82587823 -0.58706088 -3.46361333 -0.28477127 0 0 Z " fill="#FEE890" transform="translate(259,240)"/>
</svg>
