<?xml version="1.0" encoding="UTF-8"?>
<svg version="1.1" xmlns="http://www.w3.org/2000/svg" width="512" height="512">
<path d="M0 0 C3.17050034 2.85992953 6.22652707 5.81739889 9.25 8.83203125 C10.41789062 9.99605469 10.41789062 9.99605469 11.609375 11.18359375 C12.42148437 11.99957031 12.42148437 11.99957031 13.25 12.83203125 C16.61493281 11.48605813 18.84979485 9.4193602 21.41040039 6.89697266 C28.92991964 -0.50590223 37.10439821 -5.97309232 46.25 -11.16796875 C47.23355469 -11.74289063 48.21710938 -12.3178125 49.23046875 -12.91015625 C75.44900081 -27.18427949 108.3572243 -29.05467744 136.73046875 -20.9140625 C157.93457092 -14.46644142 174.31114424 -3.39120241 190.25 11.83203125 C191.10464844 12.63382813 191.95929688 13.435625 192.83984375 14.26171875 C199.21272002 20.40303711 204.62276973 27.09247825 209.95361328 34.12988281 C211.13903294 35.68633213 212.34767714 37.22502255 213.55859375 38.76171875 C254.97403018 92.06286867 277.03557437 169.08377083 269.56640625 236.14453125 C268.7440709 242.10555686 267.60894015 247.97140661 266.25 253.83203125 C265.93651611 255.19618164 265.93651611 255.19618164 265.61669922 256.58789062 C259.74602983 281.16114944 248.2848348 305.99278846 231.25 324.83203125 C230.52167969 325.66734375 229.79335938 326.50265625 229.04296875 327.36328125 C226.81620456 329.89032713 224.54586762 332.36769553 222.25 334.83203125 C221.51523437 335.63253906 220.78046875 336.43304688 220.0234375 337.2578125 C208.85941188 348.96323735 195.35494893 358.04316854 181.25 365.83203125 C180.6322168 366.17717773 180.01443359 366.52232422 179.37792969 366.87792969 C158.75268841 378.25332169 134.84340341 385.10656564 111.25 385.83203125 C110.05890625 385.87199219 108.8678125 385.91195313 107.640625 385.953125 C76.63118849 386.47403451 44.55727191 379.14104585 18.5 361.76953125 C15.59992944 359.59335448 15.59992944 359.59335448 13.33300781 360.05834961 C10.96443185 360.93809846 8.87219383 362.02941799 6.671875 363.2734375 C-31.47641156 384.34147093 -74.93614898 391.55723897 -117.43505859 379.83007812 C-124.70642539 377.70943584 -131.78473511 375.18201482 -138.75 372.20703125 C-139.40258789 371.93020508 -140.05517578 371.65337891 -140.72753906 371.36816406 C-144.4289762 369.70360079 -147.34006249 368.13410909 -149.75 364.83203125 C-149.87632812 363.67574219 -150.00265625 362.51945312 -150.1328125 361.328125 C-150.3942879 357.66499409 -150.3942879 357.66499409 -153.3046875 355.6796875 C-154.40039062 355.09058594 -155.49609375 354.50148438 -156.625 353.89453125 C-157.80570729 353.23329565 -158.98405393 352.56782943 -160.16015625 351.8984375 C-160.75715332 351.56344238 -161.35415039 351.22844727 -161.96923828 350.88330078 C-166.46780163 348.22758186 -170.58317298 344.97176464 -174.75 341.83203125 C-175.41 342.16203125 -176.07 342.49203125 -176.75 342.83203125 C-179.9941926 343.40118785 -181.64689275 343.66340981 -184.75 342.83203125 C-188.15056436 340.18275437 -190.90967789 337.06166392 -193.75 333.83203125 C-194.595625 333.00703125 -195.44125 332.18203125 -196.3125 331.33203125 C-204.29590851 323.14391996 -210.67848061 314.48698616 -216.75 304.83203125 C-217.45382813 303.71828125 -218.15765625 302.60453125 -218.8828125 301.45703125 C-228.64436402 285.2260593 -234.58547568 267.2329465 -238.75 248.83203125 C-238.92934082 248.04441406 -239.10868164 247.25679688 -239.29345703 246.4453125 C-245.36978508 218.01268312 -242.84420053 186.9726575 -236.75 158.83203125 C-236.53601563 157.78547363 -236.32203125 156.73891602 -236.1015625 155.66064453 C-226.68911734 109.92749087 -208.0324565 63.06161502 -176.75 27.83203125 C-175.64591797 26.58292969 -175.64591797 26.58292969 -174.51953125 25.30859375 C-173.01741547 23.62808556 -171.50578613 21.95602851 -169.984375 20.29296875 C-168.51347295 18.67291929 -167.06467089 17.03248063 -165.640625 15.37109375 C-144.82297274 -8.71356233 -115.2540877 -23.57599476 -83.5078125 -26.0078125 C-53.99982595 -27.72144911 -22.64407483 -19.67055026 0 0 Z " fill="#F8E7D3" transform="translate(241.75,76.16796875)"/>
<path d="M0 0 C3.17050034 2.85992953 6.22652707 5.81739889 9.25 8.83203125 C10.41789062 9.99605469 10.41789062 9.99605469 11.609375 11.18359375 C12.42148437 11.99957031 12.42148437 11.99957031 13.25 12.83203125 C16.61493281 11.48605813 18.84979485 9.4193602 21.41040039 6.89697266 C28.92991964 -0.50590223 37.10439821 -5.97309232 46.25 -11.16796875 C47.23355469 -11.74289063 48.21710938 -12.3178125 49.23046875 -12.91015625 C75.44900081 -27.18427949 108.3572243 -29.05467744 136.73046875 -20.9140625 C157.93457092 -14.46644142 174.31114424 -3.39120241 190.25 11.83203125 C191.10464844 12.63382813 191.95929688 13.435625 192.83984375 14.26171875 C199.21272002 20.40303711 204.62276973 27.09247825 209.95361328 34.12988281 C211.13903294 35.68633213 212.34767714 37.22502255 213.55859375 38.76171875 C254.97403018 92.06286867 277.03557437 169.08377083 269.56640625 236.14453125 C268.7440709 242.10555686 267.60894015 247.97140661 266.25 253.83203125 C265.93651611 255.19618164 265.93651611 255.19618164 265.61669922 256.58789062 C259.74602983 281.16114944 248.2848348 305.99278846 231.25 324.83203125 C230.52167969 325.66734375 229.79335938 326.50265625 229.04296875 327.36328125 C226.81620456 329.89032713 224.54586762 332.36769553 222.25 334.83203125 C221.51523437 335.63253906 220.78046875 336.43304688 220.0234375 337.2578125 C208.85941188 348.96323735 195.35494893 358.04316854 181.25 365.83203125 C180.6322168 366.17717773 180.01443359 366.52232422 179.37792969 366.87792969 C158.75268841 378.25332169 134.84340341 385.10656564 111.25 385.83203125 C110.05890625 385.87199219 108.8678125 385.91195313 107.640625 385.953125 C76.63118849 386.47403451 44.55727191 379.14104585 18.5 361.76953125 C15.59992944 359.59335448 15.59992944 359.59335448 13.33300781 360.05834961 C10.96443185 360.93809846 8.87219383 362.02941799 6.671875 363.2734375 C-31.47641156 384.34147093 -74.93614898 391.55723897 -117.43505859 379.83007812 C-124.70642539 377.70943584 -131.78473511 375.18201482 -138.75 372.20703125 C-139.40258789 371.93020508 -140.05517578 371.65337891 -140.72753906 371.36816406 C-144.4289762 369.70360079 -147.34006249 368.13410909 -149.75 364.83203125 C-149.87632812 363.67574219 -150.00265625 362.51945312 -150.1328125 361.328125 C-150.3942879 357.66499409 -150.3942879 357.66499409 -153.3046875 355.6796875 C-154.40039062 355.09058594 -155.49609375 354.50148438 -156.625 353.89453125 C-157.80570729 353.23329565 -158.98405393 352.56782943 -160.16015625 351.8984375 C-160.75715332 351.56344238 -161.35415039 351.22844727 -161.96923828 350.88330078 C-166.46780163 348.22758186 -170.58317298 344.97176464 -174.75 341.83203125 C-175.41 342.16203125 -176.07 342.49203125 -176.75 342.83203125 C-179.9941926 343.40118785 -181.64689275 343.66340981 -184.75 342.83203125 C-188.15056436 340.18275437 -190.90967789 337.06166392 -193.75 333.83203125 C-194.595625 333.00703125 -195.44125 332.18203125 -196.3125 331.33203125 C-204.29590851 323.14391996 -210.67848061 314.48698616 -216.75 304.83203125 C-217.45382813 303.71828125 -218.15765625 302.60453125 -218.8828125 301.45703125 C-228.64436402 285.2260593 -234.58547568 267.2329465 -238.75 248.83203125 C-238.92934082 248.04441406 -239.10868164 247.25679688 -239.29345703 246.4453125 C-245.36978508 218.01268312 -242.84420053 186.9726575 -236.75 158.83203125 C-236.53601563 157.78547363 -236.32203125 156.73891602 -236.1015625 155.66064453 C-226.68911734 109.92749087 -208.0324565 63.06161502 -176.75 27.83203125 C-175.64591797 26.58292969 -175.64591797 26.58292969 -174.51953125 25.30859375 C-173.01741547 23.62808556 -171.50578613 21.95602851 -169.984375 20.29296875 C-168.51347295 18.67291929 -167.06467089 17.03248063 -165.640625 15.37109375 C-144.82297274 -8.71356233 -115.2540877 -23.57599476 -83.5078125 -26.0078125 C-53.99982595 -27.72144911 -22.64407483 -19.67055026 0 0 Z M71.25 -5.16796875 C70.23389648 -4.81387939 70.23389648 -4.81387939 69.19726562 -4.45263672 C32.4018237 8.505976 8.27460903 41.61959036 -11.27734375 73.7578125 C-12.75 75.83203125 -12.75 75.83203125 -15.75 77.83203125 C-18.9375 77.95703125 -18.9375 77.95703125 -21.75 77.83203125 C-24.10881798 82.49813964 -26.45222051 87.17127679 -28.77099609 91.85742188 C-29.57662725 93.48234576 -30.39068247 95.1030903 -31.20703125 96.72265625 C-32.78673066 100.00485856 -33.78154607 102.09069866 -33.625 105.76953125 C-32.82993037 108.00196033 -32.82993037 108.00196033 -30.75 109.83203125 C-30.11014411 115.91066221 -31.81504093 120.55558207 -33.875 126.14453125 C-39.96666235 143.50950235 -43.72735966 161.69618922 -46.75 179.83203125 C-47.05744141 181.49105469 -47.05744141 181.49105469 -47.37109375 183.18359375 C-50.28330943 200.97823574 -49.8873623 220.10145233 -46.75 237.83203125 C-46.62641113 238.58436035 -46.50282227 239.33668945 -46.37548828 240.11181641 C-42.19637194 265.29289196 -32.98582539 289.85448257 -16.75 309.83203125 C-16.05519531 310.72664063 -15.36039063 311.62125 -14.64453125 312.54296875 C8.93307374 342.33838462 43.53362924 362.76913483 81 369.14453125 C122.72847557 373.76110803 161.81832569 364.0175764 195.18164062 338.34570312 C199.34926945 334.99850804 203.33361647 331.46832667 207.25 327.83203125 C207.74725586 327.37328613 208.24451172 326.91454102 208.75683594 326.44189453 C220.90254509 315.11595957 229.66366784 302.48451163 237.25 287.83203125 C237.79398437 286.78660156 238.33796875 285.74117188 238.8984375 284.6640625 C245.92204181 270.3009775 250.80524127 254.62044083 253.25 238.83203125 C253.41628906 237.82994629 253.58257812 236.82786133 253.75390625 235.79541016 C263.68980836 172.5161336 238.6115352 99.9230598 201.84619141 48.97851562 C197.9154309 43.69261071 193.64002116 38.73813123 189.25 33.83203125 C188.45722656 32.9296875 187.66445313 32.02734375 186.84765625 31.09765625 C184.67647737 28.6481211 182.47581649 26.23193394 180.25 23.83203125 C179.62996094 23.15785156 179.00992188 22.48367187 178.37109375 21.7890625 C160.68365821 3.2892604 136.15132148 -8.68336156 110.46875 -9.40625 C90.53854413 -9.75375502 90.53854413 -9.75375502 71.25 -5.16796875 Z " fill="#E4966F" transform="translate(241.75,76.16796875)"/>
<path d="M0 0 C3.17050034 2.85992953 6.22652707 5.81739889 9.25 8.83203125 C10.41789062 9.99605469 10.41789062 9.99605469 11.609375 11.18359375 C12.42148437 11.99957031 12.42148437 11.99957031 13.25 12.83203125 C16.61493281 11.48605813 18.84979485 9.4193602 21.41040039 6.89697266 C28.92991964 -0.50590223 37.10439821 -5.97309232 46.25 -11.16796875 C47.23355469 -11.74289063 48.21710938 -12.3178125 49.23046875 -12.91015625 C75.44900081 -27.18427949 108.3572243 -29.05467744 136.73046875 -20.9140625 C157.93457092 -14.46644142 174.31114424 -3.39120241 190.25 11.83203125 C191.10464844 12.63382813 191.95929688 13.435625 192.83984375 14.26171875 C199.21272002 20.40303711 204.62276973 27.09247825 209.95361328 34.12988281 C211.13903294 35.68633213 212.34767714 37.22502255 213.55859375 38.76171875 C254.97403018 92.06286867 277.03557437 169.08377083 269.56640625 236.14453125 C268.7440709 242.10555686 267.60894015 247.97140661 266.25 253.83203125 C265.93651611 255.19618164 265.93651611 255.19618164 265.61669922 256.58789062 C259.74602983 281.16114944 248.2848348 305.99278846 231.25 324.83203125 C230.52167969 325.66734375 229.79335938 326.50265625 229.04296875 327.36328125 C226.81620456 329.89032713 224.54586762 332.36769553 222.25 334.83203125 C221.51523437 335.63253906 220.78046875 336.43304688 220.0234375 337.2578125 C208.85941188 348.96323735 195.35494893 358.04316854 181.25 365.83203125 C180.6322168 366.17717773 180.01443359 366.52232422 179.37792969 366.87792969 C158.75268841 378.25332169 134.84340341 385.10656564 111.25 385.83203125 C110.05890625 385.87199219 108.8678125 385.91195313 107.640625 385.953125 C76.63118849 386.47403451 44.55727191 379.14104585 18.5 361.76953125 C15.59992944 359.59335448 15.59992944 359.59335448 13.33300781 360.05834961 C10.96443185 360.93809846 8.87219383 362.02941799 6.671875 363.2734375 C-31.47641156 384.34147093 -74.93614898 391.55723897 -117.43505859 379.83007812 C-124.70642539 377.70943584 -131.78473511 375.18201482 -138.75 372.20703125 C-139.40258789 371.93020508 -140.05517578 371.65337891 -140.72753906 371.36816406 C-144.41291768 369.71082243 -147.24928031 368.03839957 -149.75 364.83203125 C-150 361.08203125 -150 361.08203125 -149.75 357.83203125 C-149.09 357.83203125 -148.43 357.83203125 -147.75 357.83203125 C-147.75 357.17203125 -147.75 356.51203125 -147.75 355.83203125 C-144.75 353.83203125 -144.75 353.83203125 -141.625 353.97265625 C-137.02726811 354.99231453 -133.0474646 356.69721606 -128.75 358.58203125 C-102.85461819 369.44775491 -73.11349983 372.20409539 -45.75 365.83203125 C-45.00186035 365.66574219 -44.2537207 365.49945313 -43.48291016 365.328125 C-28.43712051 361.93504652 -14.0402691 356.72532599 -0.75 348.83203125 C-3.51980129 346.04643261 -6.30915036 343.28570565 -9.1328125 340.5546875 C-43.16846083 307.41280386 -62.65105953 263.76403782 -63.953125 216.0703125 C-64.33712388 186.91330195 -62.27252213 130.91520137 -42.4375 107.51953125 C-39.75 105.83203125 -39.75 105.83203125 -36.125 105.83203125 C-31.18768546 107.29493926 -31.18768546 107.29493926 -29.75 109.83203125 C-29.22214175 115.95361129 -30.80007999 120.51499101 -32.875 126.14453125 C-38.96666235 143.50950235 -42.72735966 161.69618922 -45.75 179.83203125 C-46.05744141 181.49105469 -46.05744141 181.49105469 -46.37109375 183.18359375 C-49.28330943 200.97823574 -48.8873623 220.10145233 -45.75 237.83203125 C-45.5646167 238.9605249 -45.5646167 238.9605249 -45.37548828 240.11181641 C-41.19684495 265.29004186 -31.98827936 289.85894763 -15.75 309.83203125 C-15.04359375 310.73824219 -14.3371875 311.64445312 -13.609375 312.578125 C9.68288624 341.93777597 44.08003863 361.86211358 81 368.14453125 C122.70357227 372.75835289 161.87137333 363.03660239 195.19775391 337.32958984 C199.35501728 333.98244879 203.33521898 330.45817058 207.25 326.83203125 C208.15363281 325.99929688 209.05726563 325.1665625 209.98828125 324.30859375 C221.13297171 313.59721162 229.18419923 301.47914095 236.25 287.83203125 C236.79398437 286.78660156 237.33796875 285.74117188 237.8984375 284.6640625 C244.92204181 270.3009775 249.80524127 254.62044083 252.25 238.83203125 C252.41628906 237.82994629 252.58257812 236.82786133 252.75390625 235.79541016 C262.68980836 172.5161336 237.6115352 99.9230598 200.84619141 48.97851562 C196.91546114 43.69265137 192.64038829 38.73775475 188.25 33.83203125 C187.0434375 32.46111328 187.0434375 32.46111328 185.8125 31.0625 C183.65086137 28.62700513 181.46154399 26.22219995 179.25 23.83203125 C178.7034375 23.23132813 178.156875 22.630625 177.59375 22.01171875 C160.32346695 3.81019495 135.52056661 -7.70111544 110.46875 -8.40625 C90.53854413 -8.75375502 90.53854413 -8.75375502 71.25 -4.16796875 C70.57259766 -3.93190918 69.89519531 -3.69584961 69.19726562 -3.45263672 C47.73834738 4.1047616 30.55791255 18.30627492 16.25 35.83203125 C15.64043457 36.57308105 15.64043457 36.57308105 15.01855469 37.32910156 C5.63208947 48.79688365 -2.53028233 60.975213 -10.1796875 73.66015625 C-11.84523055 75.96374316 -13.31452791 77.37360765 -15.75 78.83203125 C-18.8304257 78.70629959 -20.94071208 78.29062774 -23.625 76.76953125 C-25.48089027 73.57327579 -25.33031683 70.3747597 -24.75 66.83203125 C-23.28863427 63.50590196 -21.34802849 60.58326794 -19.3125 57.58203125 C-18.76698486 56.75010254 -18.22146973 55.91817383 -17.65942383 55.06103516 C-13.28145682 48.44888818 -8.65390184 42.06485306 -3.75 35.83203125 C-3.05390625 34.93226562 -2.3578125 34.0325 -1.640625 33.10546875 C-0.01761294 31.00853717 1.6122218 28.91743371 3.25 26.83203125 C-12.39757652 7.37828747 -35.44745757 -5.96999441 -60.46142578 -8.97314453 C-74.29643399 -10.15090606 -88.39019071 -10.23185162 -101.75 -6.16796875 C-103.53664062 -5.67490234 -103.53664062 -5.67490234 -105.359375 -5.171875 C-119.36824677 -0.97211987 -131.80652602 6.13459638 -142.75 15.83203125 C-143.67554688 16.63769531 -144.60109375 17.44335938 -145.5546875 18.2734375 C-151.05454741 23.15474948 -156.10095899 28.14145356 -160.75 33.83203125 C-161.1629834 34.32203613 -161.5759668 34.81204102 -162.00146484 35.31689453 C-196.03005658 75.70260774 -215.43816899 126.02942247 -223.75 177.83203125 C-223.95367187 178.90066406 -224.15734375 179.96929687 -224.3671875 181.0703125 C-225.87015817 189.99548764 -225.95860538 198.85946477 -226 207.89453125 C-226.00926514 209.1489502 -226.01853027 210.40336914 -226.02807617 211.69580078 C-225.99958362 220.24021296 -225.16033788 228.41137555 -223.75 236.83203125 C-223.5943457 237.83983643 -223.43869141 238.8476416 -223.27832031 239.88598633 C-217.74494568 274.78858785 -201.72148373 303.49864429 -176.5 328.01953125 C-174.01760152 330.59058682 -173.77034223 331.55741113 -173.5 335.20703125 C-173.75 338.83203125 -173.75 338.83203125 -174.75 341.26953125 C-177.24472857 343.21853795 -179.33923779 343.6903108 -182.49609375 343.55078125 C-187.36271848 341.99885932 -190.4722543 337.55904325 -193.75 333.83203125 C-194.595625 333.00703125 -195.44125 332.18203125 -196.3125 331.33203125 C-204.29590851 323.14391996 -210.67848061 314.48698616 -216.75 304.83203125 C-217.45382813 303.71828125 -218.15765625 302.60453125 -218.8828125 301.45703125 C-228.64436402 285.2260593 -234.58547568 267.2329465 -238.75 248.83203125 C-238.92934082 248.04441406 -239.10868164 247.25679688 -239.29345703 246.4453125 C-245.36978508 218.01268312 -242.84420053 186.9726575 -236.75 158.83203125 C-236.53601563 157.78547363 -236.32203125 156.73891602 -236.1015625 155.66064453 C-226.68911734 109.92749087 -208.0324565 63.06161502 -176.75 27.83203125 C-175.64591797 26.58292969 -175.64591797 26.58292969 -174.51953125 25.30859375 C-173.01741547 23.62808556 -171.50578613 21.95602851 -169.984375 20.29296875 C-168.51347295 18.67291929 -167.06467089 17.03248063 -165.640625 15.37109375 C-144.82297274 -8.71356233 -115.2540877 -23.57599476 -83.5078125 -26.0078125 C-53.99982595 -27.72144911 -22.64407483 -19.67055026 0 0 Z " fill="#020101" transform="translate(241.75,76.16796875)"/>
<path d="M0 0 C1.00160156 -0.01788574 2.00320313 -0.03577148 3.03515625 -0.05419922 C22.11846675 -0.03225717 40.03642324 8.94297211 54.875 20.3125 C55.80119141 20.98539063 55.80119141 20.98539063 56.74609375 21.671875 C72.25370848 33.72095695 83.07401954 55.1644557 85.875 74.3125 C87.41518113 102.39046871 82.96692002 126.87278775 63.75 148.375 C46.93613774 166.38695847 24.24153097 176.85683055 -0.49829102 177.85083008 C-24.41746517 178.09407592 -47.23736719 168.18931514 -64.55664062 151.87207031 C-81.81172944 134.71367876 -90.28852402 112.52546029 -90.4375 88.375 C-90.45101908 78.01262316 -89.5671294 69.11181213 -86.125 59.3125 C-85.7125 58.12785156 -85.3 56.94320312 -84.875 55.72265625 C-81.31948018 46.581334 -76.15589699 38.96150074 -70.125 31.3125 C-69.50842529 30.52818604 -69.50842529 30.52818604 -68.87939453 29.72802734 C-56.38451984 14.25702084 -35.8218314 2.96706472 -16.0078125 0.55859375 C-10.67094264 0.22034144 -5.3468486 0.06446902 0 0 Z " fill="#FBC826" transform="translate(347.125,226.6875)"/>
<path d="M0 0 C1.00160156 -0.01788574 2.00320313 -0.03577148 3.03515625 -0.05419922 C22.11846675 -0.03225717 40.03642324 8.94297211 54.875 20.3125 C55.80119141 20.98539063 55.80119141 20.98539063 56.74609375 21.671875 C72.25370848 33.72095695 83.07401954 55.1644557 85.875 74.3125 C87.41518113 102.39046871 82.96692002 126.87278775 63.75 148.375 C46.93613774 166.38695847 24.24153097 176.85683055 -0.49829102 177.85083008 C-24.41746517 178.09407592 -47.23736719 168.18931514 -64.55664062 151.87207031 C-81.81172944 134.71367876 -90.28852402 112.52546029 -90.4375 88.375 C-90.45101908 78.01262316 -89.5671294 69.11181213 -86.125 59.3125 C-85.7125 58.12785156 -85.3 56.94320312 -84.875 55.72265625 C-81.31948018 46.581334 -76.15589699 38.96150074 -70.125 31.3125 C-69.50842529 30.52818604 -69.50842529 30.52818604 -68.87939453 29.72802734 C-56.38451984 14.25702084 -35.8218314 2.96706472 -16.0078125 0.55859375 C-10.67094264 0.22034144 -5.3468486 0.06446902 0 0 Z M-55.125 37.3125 C-55.82625 37.98925781 -56.5275 38.66601562 -57.25 39.36328125 C-71.63415191 54.28122004 -75.79796105 72.96307892 -75.4609375 93.05078125 C-74.69767223 110.57833372 -66.98714926 129.20834112 -54.125 141.3125 C-38.33130725 155.02064323 -19.75453104 163.70410476 1.4453125 162.7578125 C22.0386384 161.10702641 40.85487033 151.82183639 54.4765625 136.359375 C66.19793172 121.38424777 71.17624281 105.8034919 71.3125 87 C71.32265137 86.01032227 71.33280273 85.02064453 71.34326172 84.00097656 C71.12010908 65.16186486 61.95721823 47.65165364 48.69873047 34.59765625 C39.81080382 26.254447 29.38674375 21.09116398 17.875 17.3125 C16.81410156 16.94382813 15.75320313 16.57515625 14.66015625 16.1953125 C9.77757783 15.05654808 5.18323098 15.01258535 0.1875 15.0625 C-0.79202637 15.06999268 -1.77155273 15.07748535 -2.78076172 15.08520508 C-23.68842736 15.39578368 -40.19934612 22.65688262 -55.125 37.3125 Z " fill="#040302" transform="translate(347.125,226.6875)"/>
<path d="M0 0 C30.85015963 6.24136177 54.05071866 25.6317695 73 50 C73.71671875 50.91136719 74.4334375 51.82273438 75.171875 52.76171875 C92.55364467 75.35185558 105.20694924 100.28581163 115 127 C115.29068359 127.78665039 115.58136719 128.57330078 115.88085938 129.38378906 C134.48246794 180.80230952 140.39652551 239.63377111 116.78515625 290.31640625 C98.27846748 328.89643412 66.60968988 356.03887976 26.8125 371 C26.01021973 371.30325195 25.20793945 371.60650391 24.38134766 371.91894531 C20.47616182 373.3304183 17.2198872 374.40592101 13 374 C16.19496848 371.31449946 19.69467318 369.55727055 23.39575195 367.68994141 C61.29280791 348.54549069 89.34457091 316.272349 103 276 C104.89876618 270.05813085 106.52452024 264.05960388 108 258 C108.22300781 257.10539062 108.44601562 256.21078125 108.67578125 255.2890625 C109.21773253 252.86476135 109.63215491 250.45706237 110 248 C110.18433594 246.783125 110.36867188 245.56625 110.55859375 244.3125 C113.01529654 226.40382547 113.29453436 207.79048556 110 190 C109.73606804 188.25983842 109.47744558 186.51886745 109.22265625 184.77734375 C99.78792836 121.88091181 71.21855773 51.68180334 18.57421875 12.50390625 C14.12152435 9.30333611 9.42425137 6.51121497 4.67333984 3.77929688 C3.10256407 2.87507422 1.549221 1.94067499 0 1 C0 0.67 0 0.34 0 0 Z " fill="#E5CEB8" transform="translate(365,68)"/>
<path d="M0 0 C14.27475351 11.54129007 24.83395276 26.57796731 28 45 C29.63877601 68.30226463 26.15509763 89.28657978 10.39794922 107.44238281 C-2.94368235 122.04197829 -21.74512909 130.87435844 -41.4375 132.44921875 C-53.90744943 132.99064903 -65.64909205 130.09185974 -77 125 C-77 124.67 -77 124.34 -77 124 C-76.29093506 123.96559814 -75.58187012 123.93119629 -74.85131836 123.89575195 C-47.07235836 122.44318372 -27.02338675 115.94276826 -7.7578125 95.63671875 C1.49773299 84.92261454 6.83958324 71.65942837 10 58 C10.19078125 57.236875 10.3815625 56.47375 10.578125 55.6875 C13.45167007 37.3819536 9.83794201 17.74070721 0 2 C0 1.34 0 0.68 0 0 Z " fill="#ECAB0A" transform="translate(390,257)"/>
<path d="M0 0 C23.15559919 5.48802143 41.96942325 16.43601461 57 35 C54.36 38.3 51.72 41.6 49 45 C47.68 43.35 46.36 41.7 45 40 C41.07184131 35.59906144 37.04148758 31.29673943 33 27 C32.53110352 26.4956543 32.06220703 25.99130859 31.57910156 25.47167969 C24.66629643 18.06973744 17.45448707 12.47680609 9 7 C7.22767096 5.83560678 5.45663523 4.66924008 3.6875 3.5 C2.96949219 3.0359375 2.25148437 2.571875 1.51171875 2.09375 C1.01285156 1.7328125 0.51398438 1.371875 0 1 C0 0.67 0 0.34 0 0 Z " fill="#D87C55" transform="translate(189,68)"/>
<path d="M0 0 C2.34478017 1.24922749 3.42091231 2.77292189 4.84765625 4.984375 C-1.48063551 9.38087243 -8.21462679 12.39678403 -15.33984375 15.234375 C-16.19481445 15.57533203 -17.04978516 15.91628906 -17.93066406 16.26757812 C-31.23758202 21.46631967 -31.23758202 21.46631967 -36.15234375 19.984375 C-35.58427002 19.69828369 -35.01619629 19.41219238 -34.4309082 19.11743164 C-23.99866501 13.83540332 -13.93143019 8.6189967 -4.6484375 1.46875 C-2.15234375 -0.015625 -2.15234375 -0.015625 0 0 Z " fill="#D57B54" transform="translate(237.15234375,420.015625)"/>
</svg>
