<?xml version="1.0" encoding="UTF-8"?>
<svg version="1.1" xmlns="http://www.w3.org/2000/svg" width="512" height="512">
<path d="M0 0 C0.89115509 -0.00974854 1.78231018 -0.01949707 2.70046997 -0.02954102 C22.63293108 -0.20264286 41.86559565 0.06369901 61.4453125 4.23828125 C62.77079102 4.51115967 62.77079102 4.51115967 64.12304688 4.78955078 C105.34784078 13.49342708 143.65278781 33.55407357 174.4453125 62.23828125 C175.83675916 63.45166344 177.23239889 64.66025928 178.6328125 65.86328125 C185.12642006 71.55168147 190.72060083 77.62806502 196.12890625 84.36328125 C197.62026628 86.21427785 199.13192996 88.04918974 200.66796875 89.86328125 C211.37655764 102.55494215 219.73850793 116.5738543 227.4453125 131.23828125 C227.79303711 131.88893555 228.14076172 132.53958984 228.49902344 133.20996094 C239.66788692 154.35997462 246.75126165 178.69014258 250.4453125 202.23828125 C250.62787598 203.39384521 250.81043945 204.54940918 250.99853516 205.73999023 C252.59886637 217.00999862 252.84447883 228.17905615 252.8203125 239.55078125 C252.81949677 240.99969254 252.81949677 240.99969254 252.81866455 242.47787476 C252.75654087 266.55129834 249.41615617 289.15610162 242.4453125 312.23828125 C242.19442871 313.07343262 241.94354492 313.90858398 241.68505859 314.76904297 C231.64027637 347.38390177 213.65619439 377.32137709 190.4453125 402.23828125 C189.23193031 403.62972791 188.02333447 405.02536764 186.8203125 406.42578125 C181.13191228 412.91938881 175.05552873 418.51356958 168.3203125 423.921875 C166.4693159 425.41323503 164.63440401 426.92489871 162.8203125 428.4609375 C150.1286516 439.16952639 136.10973945 447.53147668 121.4453125 455.23828125 C120.7946582 455.58600586 120.14400391 455.93373047 119.47363281 456.29199219 C98.32361913 467.46085567 73.99345117 474.5442304 50.4453125 478.23828125 C49.28974854 478.42084473 48.13418457 478.6034082 46.94360352 478.79150391 C35.67359513 480.39183512 24.5045376 480.63744758 13.1328125 480.61328125 C12.16687164 480.61273743 11.20093079 480.6121936 10.20571899 480.6116333 C-5.69146444 480.57060916 -20.9742443 479.64585488 -36.5546875 476.23828125 C-37.54082031 476.02397461 -38.52695313 475.80966797 -39.54296875 475.58886719 C-80.68601851 466.32763679 -118.66455293 447.01341561 -149.5546875 418.23828125 C-150.94613416 417.02489906 -152.34177389 415.81630322 -153.7421875 414.61328125 C-160.2414509 408.91992651 -165.84238567 402.83961232 -171.25 396.09375 C-172.69580225 394.30242552 -174.16644909 392.53057919 -175.671875 390.7890625 C-207.31744649 353.8692291 -227.34870952 301.35876015 -227.79296875 252.68359375 C-227.8027626 251.79257462 -227.81255646 250.90155548 -227.82264709 249.98353577 C-228.06977464 221.65429212 -225.7888597 195.50365266 -217.5546875 168.23828125 C-217.17836182 166.9855542 -217.17836182 166.9855542 -216.79443359 165.70751953 C-203.42490392 122.29738749 -175.36083111 81.26686088 -139.5546875 53.23828125 C-138.56984375 52.44808594 -137.585 51.65789062 -136.5703125 50.84375 C-98.53859031 20.59941859 -48.96468094 0.44659656 0 0 Z " fill="#FED13C" transform="translate(243.5546875,15.76171875)"/>
<path d="M0 0 C0.89115509 -0.00974854 1.78231018 -0.01949707 2.70046997 -0.02954102 C22.63293108 -0.20264286 41.86559565 0.06369901 61.4453125 4.23828125 C62.77079102 4.51115967 62.77079102 4.51115967 64.12304688 4.78955078 C105.34784078 13.49342708 143.65278781 33.55407357 174.4453125 62.23828125 C175.83675916 63.45166344 177.23239889 64.66025928 178.6328125 65.86328125 C185.12642006 71.55168147 190.72060083 77.62806502 196.12890625 84.36328125 C197.62026628 86.21427785 199.13192996 88.04918974 200.66796875 89.86328125 C211.37655764 102.55494215 219.73850793 116.5738543 227.4453125 131.23828125 C227.79303711 131.88893555 228.14076172 132.53958984 228.49902344 133.20996094 C239.66788692 154.35997462 246.75126165 178.69014258 250.4453125 202.23828125 C250.62787598 203.39384521 250.81043945 204.54940918 250.99853516 205.73999023 C252.59886637 217.00999862 252.84447883 228.17905615 252.8203125 239.55078125 C252.81949677 240.99969254 252.81949677 240.99969254 252.81866455 242.47787476 C252.75654087 266.55129834 249.41615617 289.15610162 242.4453125 312.23828125 C242.19442871 313.07343262 241.94354492 313.90858398 241.68505859 314.76904297 C231.64027637 347.38390177 213.65619439 377.32137709 190.4453125 402.23828125 C189.23193031 403.62972791 188.02333447 405.02536764 186.8203125 406.42578125 C181.13191228 412.91938881 175.05552873 418.51356958 168.3203125 423.921875 C166.4693159 425.41323503 164.63440401 426.92489871 162.8203125 428.4609375 C150.1286516 439.16952639 136.10973945 447.53147668 121.4453125 455.23828125 C120.7946582 455.58600586 120.14400391 455.93373047 119.47363281 456.29199219 C98.32361913 467.46085567 73.99345117 474.5442304 50.4453125 478.23828125 C49.28974854 478.42084473 48.13418457 478.6034082 46.94360352 478.79150391 C35.67359513 480.39183512 24.5045376 480.63744758 13.1328125 480.61328125 C12.16687164 480.61273743 11.20093079 480.6121936 10.20571899 480.6116333 C-5.69146444 480.57060916 -20.9742443 479.64585488 -36.5546875 476.23828125 C-37.54082031 476.02397461 -38.52695313 475.80966797 -39.54296875 475.58886719 C-80.68601851 466.32763679 -118.66455293 447.01341561 -149.5546875 418.23828125 C-150.94613416 417.02489906 -152.34177389 415.81630322 -153.7421875 414.61328125 C-160.2414509 408.91992651 -165.84238567 402.83961232 -171.25 396.09375 C-172.69580225 394.30242552 -174.16644909 392.53057919 -175.671875 390.7890625 C-207.31744649 353.8692291 -227.34870952 301.35876015 -227.79296875 252.68359375 C-227.8027626 251.79257462 -227.81255646 250.90155548 -227.82264709 249.98353577 C-228.06977464 221.65429212 -225.7888597 195.50365266 -217.5546875 168.23828125 C-217.17836182 166.9855542 -217.17836182 166.9855542 -216.79443359 165.70751953 C-203.42490392 122.29738749 -175.36083111 81.26686088 -139.5546875 53.23828125 C-138.56984375 52.44808594 -137.585 51.65789062 -136.5703125 50.84375 C-98.53859031 20.59941859 -48.96468094 0.44659656 0 0 Z M-33.5546875 62.23828125 C-35.47729492 62.49365234 -35.47729492 62.49365234 -37.66015625 62.51171875 C-38.4711377 62.52952393 -39.28211914 62.5473291 -40.11767578 62.56567383 C-40.98376465 62.58138428 -41.84985352 62.59709473 -42.7421875 62.61328125 C-52.1551614 62.93555018 -60.58390769 64.42986144 -69.5546875 67.23828125 C-70.90046875 67.65207031 -70.90046875 67.65207031 -72.2734375 68.07421875 C-90.96338624 74.68851879 -106.0390673 89.34178438 -115.33984375 106.5390625 C-116.69149402 109.04891275 -116.69149402 109.04891275 -116.5546875 111.23828125 C-117.42609375 111.49480469 -118.2975 111.75132813 -119.1953125 112.015625 C-136.6436861 118.36602144 -150.7959446 135.01438683 -158.53125 151.52734375 C-160.70500157 157.28529638 -162.158943 163.25163203 -163.5546875 169.23828125 C-163.85439453 170.40617187 -163.85439453 170.40617187 -164.16015625 171.59765625 C-164.51990547 174.00548274 -164.59542434 176.18105773 -164.58984375 178.609375 C-164.59509588 189.23022618 -165.70545611 196.10785337 -171.55078125 204.99609375 C-174.68939329 210.07416002 -176.14749162 215.47713771 -177.5546875 221.23828125 C-177.72911377 221.91109131 -177.90354004 222.58390137 -178.08325195 223.27709961 C-183.25429526 244.38004638 -178.08199221 264.75583444 -167.5546875 283.23828125 C-166.8946875 284.22828125 -166.2346875 285.21828125 -165.5546875 286.23828125 C-165.31518555 288.22094727 -165.31518555 288.22094727 -165.31640625 290.4921875 C-165.30399902 291.33773193 -165.2915918 292.18327637 -165.27880859 293.05444336 C-165.26672363 293.96073486 -165.25463867 294.86702637 -165.2421875 295.80078125 C-164.6116485 315.39975406 -158.41227329 333.23776449 -145.5546875 348.23828125 C-145.10867187 348.82738281 -144.66265625 349.41648437 -144.203125 350.0234375 C-137.79062549 358.25468687 -128.05516173 364.99928042 -118.5546875 369.23828125 C-117.8946875 369.23828125 -117.2346875 369.23828125 -116.5546875 369.23828125 C-116.30074219 370.10710937 -116.04679687 370.9759375 -115.78515625 371.87109375 C-109.22948608 389.81073721 -92.36994355 403.37219258 -75.5546875 411.23828125 C-71.27851719 412.86592265 -66.99737916 414.15312561 -62.5546875 415.23828125 C-61.54112183 415.50535889 -61.54112183 415.50535889 -60.50708008 415.77783203 C-55.70663539 416.96889219 -51.30085343 417.37991457 -46.36352539 417.36254883 C-36.72363458 417.36537716 -30.79919542 418.97167251 -22.796875 424.234375 C-17.71880873 427.37298704 -12.31583104 428.83108537 -6.5546875 430.23828125 C-5.87100098 430.41343262 -5.18731445 430.58858398 -4.48291016 430.76904297 C14.91029283 435.48176366 34.93735651 431.20522414 52.4453125 422.23828125 C53.36441406 421.52542969 54.28351563 420.81257813 55.23046875 420.078125 C59.62921785 417.56073639 63.22111329 417.77440258 68.1953125 417.80078125 C87.72242794 417.35423292 105.52177418 411.02988553 120.4453125 398.23828125 C121.03441406 397.79226563 121.62351562 397.34625 122.23046875 396.88671875 C130.46171812 390.47421924 137.20631167 380.73875548 141.4453125 371.23828125 C141.4453125 370.57828125 141.4453125 369.91828125 141.4453125 369.23828125 C142.75048828 368.85542969 142.75048828 368.85542969 144.08203125 368.46484375 C161.79902642 362.00359348 175.08781008 345.58107127 182.875 329.046875 C187.45509067 318.29911621 189.65999255 308.03436504 189.8203125 296.36328125 C189.93981304 288.5444315 191.0252811 283.6901435 195.59765625 277.13671875 C199.07714234 271.67841288 200.67205789 265.42806887 202.4453125 259.23828125 C202.99638672 257.34142578 202.99638672 257.34142578 203.55859375 255.40625 C208.49066918 235.10519115 202.37605036 214.82127599 192.4453125 197.23828125 C191.7853125 196.24828125 191.1253125 195.25828125 190.4453125 194.23828125 C190.18994141 192.31567383 190.18994141 192.31567383 190.171875 190.1328125 C190.15406982 189.32183105 190.13626465 188.51084961 190.11791992 187.67529297 C190.10220947 186.8092041 190.08649902 185.94311523 190.0703125 185.05078125 C189.74804357 175.63780735 188.25373231 167.20906106 185.4453125 158.23828125 C185.16945313 157.34109375 184.89359375 156.44390625 184.609375 155.51953125 C177.82041045 136.33603509 162.73967839 121.56323852 145.1875 112.015625 C143.45886304 111.10245861 143.45886304 111.10245861 141.4453125 111.23828125 C141.19136719 110.36945313 140.93742187 109.500625 140.67578125 108.60546875 C134.40808856 91.45387796 118.41826919 78.02533504 102.4453125 70.23828125 C97.54720641 68.25855 92.52229356 66.69273827 87.4453125 65.23828125 C86.1871875 64.86703125 84.9290625 64.49578125 83.6328125 64.11328125 C79.69199014 63.14424997 75.92900088 63.07408013 71.88525391 63.06347656 C62.94024469 63.02126015 56.84941985 62.31317451 49.3359375 57.0859375 C43.87943886 53.59820256 37.62685893 52.00050384 31.4453125 50.23828125 C30.61773437 49.99078125 29.79015625 49.74328125 28.9375 49.48828125 C7.34224623 44.07065661 -15.42861214 50.15423101 -33.5546875 62.23828125 Z " fill="#D6E5EF" transform="translate(243.5546875,15.76171875)"/>
<path d="M0 0 C-0.33 1.98 -0.66 3.96 -1 6 C1.3015411 6.77802187 1.3015411 6.77802187 4 7 C6.16235511 5.57640033 6.16235511 5.57640033 8 4 C25.31325301 16.93975904 25.31325301 16.93975904 28 25 C26.02 25.495 26.02 25.495 24 26 C24 27.98 24 29.96 24 32 C26.64 32 29.28 32 32 32 C32.63381508 33.32916561 33.25648484 34.66364609 33.875 36 C34.39707031 37.11375 34.39707031 37.11375 34.9296875 38.25 C37.47397998 44.78716023 38.36295185 50.79668058 38.3125 57.75 C38.30903564 58.53133301 38.30557129 59.31266602 38.30200195 60.11767578 C38.14538269 68.53358167 37.15241759 76.18144737 32 83 C31.6596875 84.7634375 31.6596875 84.7634375 31.3125 86.5625 C28.80978884 97.74127651 18.1497418 107.13592755 8.9375 113.125 C-7.47571574 122.88574608 -24.5858951 125.20336239 -43.24609375 121.1171875 C-51.79349283 118.57342461 -59.81301439 114.26325112 -67 109 C-67 108.34 -67 107.68 -67 107 C-65.35 106.67 -63.7 106.34 -62 106 C-62 103.69 -62 101.38 -62 99 C-63.32 99 -64.64 99 -66 99 C-66.268125 99.94875 -66.53625 100.8975 -66.8125 101.875 C-68 105 -68 105 -71 107 C-74.38568806 107.36017958 -76.3272019 107.38185838 -79.3125 105.6875 C-82.51339249 102.48660751 -82.2639835 98.61966661 -82.5625 94.3125 C-82.64628906 93.13300781 -82.73007813 91.95351563 -82.81640625 90.73828125 C-82.90728516 89.38283203 -82.90728516 89.38283203 -83 88 C-83.85271484 88.70576172 -83.85271484 88.70576172 -84.72265625 89.42578125 C-91.66931209 95.02717486 -96.71548691 98.56843958 -106 98 C-106.33 99.65 -106.66 101.3 -107 103 C-109.375 103.625 -109.375 103.625 -112 104 C-112.99 103.01 -112.99 103.01 -114 102 C-114 101.01 -114 100.02 -114 99 C-114.59425781 98.93683594 -115.18851563 98.87367188 -115.80078125 98.80859375 C-128.22065962 96.9736195 -136.87566413 89.14405704 -145 80 C-146.50889469 76.98221063 -146.50026276 75.37677363 -146 72 C-144.00055472 68.99473622 -141.56842065 66.52439058 -139 64 C-138.37480469 63.37609375 -137.74960938 62.7521875 -137.10546875 62.109375 C-130.57890259 55.9948731 -123.08862507 51.47834869 -114 51 C-113.1440625 50.94972656 -112.288125 50.89945313 -111.40625 50.84765625 C-105.16877205 50.63345714 -100.68389107 51.42616254 -95 54 C-95.2165625 53.46632812 -95.433125 52.93265625 -95.65625 52.3828125 C-99.0007586 43.43315524 -99.08693019 34.09467773 -96 25 C-92.07747729 17.02915938 -86.23196702 9.23026186 -79 4 C-72.85272269 2.54389251 -72.85272269 2.54389251 -69.3125 4.4375 C-68.549375 4.953125 -67.78625 5.46875 -67 6 C-62.31428884 6 -59.65738535 4.37055595 -55.6875 2.1875 C-37.42868239 -7.32507742 -18.90615746 -7.03952671 0 0 Z " fill="#F9A01A" transform="translate(330,197)"/>
<path d="M0 0 C8.53694534 3.35133719 15.84983932 13.8210972 19.41796875 21.94921875 C22.5975717 31.86027378 22.31273772 41.35139522 18.41796875 50.94921875 C19.01351562 50.63210937 19.6090625 50.315 20.22265625 49.98828125 C28.08951193 46.26482287 38.85424176 47.13972923 46.9140625 49.8515625 C55.11585435 53.4470438 65.33841937 60.79012 69.41796875 68.94921875 C69.85940036 72.92210328 69.73826888 74.48878731 67.41796875 77.82421875 C66.75796875 78.52546875 66.09796875 79.22671875 65.41796875 79.94921875 C66.09859375 80.50609375 66.77921875 81.06296875 67.48046875 81.63671875 C68.43953125 82.78140625 68.43953125 82.78140625 69.41796875 83.94921875 C69.16796875 86.69921875 69.16796875 86.69921875 68.41796875 88.94921875 C66.43796875 88.94921875 64.45796875 88.94921875 62.41796875 88.94921875 C61.75796875 87.62921875 61.09796875 86.30921875 60.41796875 84.94921875 C59.84949219 85.41972656 59.28101563 85.89023437 58.6953125 86.375 C48.84550241 94.31733435 40.11902801 96.91142021 27.41796875 95.94921875 C24.29801502 95.19552206 21.37094084 94.20199479 18.41796875 92.94921875 C18.08796875 94.59921875 17.75796875 96.24921875 17.41796875 97.94921875 C15.60546875 98.63671875 15.60546875 98.63671875 13.41796875 98.94921875 C11.60546875 97.76171875 11.60546875 97.76171875 10.41796875 95.94921875 C10.73046875 93.94921875 10.73046875 93.94921875 11.41796875 91.94921875 C11.41796875 90.95921875 11.41796875 89.96921875 11.41796875 88.94921875 C8.97889815 86.74779543 8.97889815 86.74779543 6.41796875 84.94921875 C6.38058594 85.82964844 6.34320313 86.71007812 6.3046875 87.6171875 C6.23894531 88.77863281 6.17320312 89.94007813 6.10546875 91.13671875 C6.04746094 92.28527344 5.98945313 93.43382812 5.9296875 94.6171875 C5.39032626 98.12921147 4.51849645 100.11220973 2.41796875 102.94921875 C-0.39118599 104.35379612 -2.47013659 104.19817032 -5.58203125 103.94921875 C-8.71794695 102.1693747 -9.42305861 101.42613668 -10.58203125 97.94921875 C-10.80654583 95.7234754 -10.98986003 93.49340356 -11.14453125 91.26171875 C-11.22832031 90.08222656 -11.31210938 88.90273438 -11.3984375 87.6875 C-11.48931641 86.33205078 -11.48931641 86.33205078 -11.58203125 84.94921875 C-12.43474609 85.65498047 -12.43474609 85.65498047 -13.3046875 86.375 C-20.25134334 91.97639361 -25.29751816 95.51765833 -34.58203125 94.94921875 C-34.91203125 96.59921875 -35.24203125 98.24921875 -35.58203125 99.94921875 C-37.95703125 100.57421875 -37.95703125 100.57421875 -40.58203125 100.94921875 C-41.57203125 99.95921875 -41.57203125 99.95921875 -42.58203125 98.94921875 C-42.58203125 97.95921875 -42.58203125 96.96921875 -42.58203125 95.94921875 C-43.17628906 95.88605469 -43.77054688 95.82289063 -44.3828125 95.7578125 C-56.80269087 93.92283825 -65.45769538 86.09327579 -73.58203125 76.94921875 C-75.09092594 73.93142938 -75.08229401 72.32599238 -74.58203125 68.94921875 C-72.58258597 65.94395497 -70.1504519 63.47360933 -67.58203125 60.94921875 C-66.95683594 60.3253125 -66.33164063 59.70140625 -65.6875 59.05859375 C-59.16093384 52.94409185 -51.67065632 48.42756744 -42.58203125 47.94921875 C-41.72609375 47.89894531 -40.87015625 47.84867188 -39.98828125 47.796875 C-33.7508033 47.58267589 -29.26592232 48.37538129 -23.58203125 50.94921875 C-23.79859375 50.41554687 -24.01515625 49.881875 -24.23828125 49.33203125 C-27.58278985 40.38237399 -27.66896144 31.04389648 -24.58203125 21.94921875 C-20.25345415 13.15324722 -11.19032052 -1.56949851 0 0 Z " fill="#4C8C40" transform="translate(258.58203125,200.05078125)"/>
<path d="M0 0 C-0.33 1.98 -0.66 3.96 -1 6 C2.28696233 6.79953138 3.71023192 7.09658936 7 6 C7.33 4.02 7.66 2.04 8 0 C18.24730346 1.5498179 28.70151074 4.59830829 37 11 C36.34 11.66 35.68 12.32 35 13 C34.01 12.01 34.01 12.01 33 11 C30.89179203 11.3185177 30.89179203 11.3185177 29 12 C28.83312552 14.41645782 28.83312552 14.41645782 29 17 C29.99 17.99 29.99 17.99 31 19 C30.01 20.65 29.02 22.3 28 24 C27.2265625 23.66226563 26.453125 23.32453125 25.65625 22.9765625 C11.89380546 17.08323847 -0.17542819 14.91046295 -15 19 C-14.95359375 19.70125 -14.9071875 20.4025 -14.859375 21.125 C-14.59787152 27.99880578 -15.44181398 32.10675441 -19 38 C-18.31292969 37.65066406 -17.62585938 37.30132812 -16.91796875 36.94140625 C-15.56638672 36.25884766 -15.56638672 36.25884766 -14.1875 35.5625 C-13.29417969 35.11003906 -12.40085938 34.65757812 -11.48046875 34.19140625 C-3.97210294 30.58502582 4.23147569 31.08740094 12 33.75 C15.81783333 35.1816875 18.70689115 36.5489847 21 40 C20.62608211 43.00340495 20.12615895 45.39996572 19.25 48.25 C19.04117188 48.99507812 18.83234375 49.74015625 18.6171875 50.5078125 C18.09912104 52.3445936 17.55228359 54.17321581 17 56 C16.03320312 56.08636719 15.06640625 56.17273438 14.0703125 56.26171875 C-0.78890645 57.86533743 -10.29458762 63.13477641 -20.2578125 74.59765625 C-22.20856354 76.91445161 -22.20856354 76.91445161 -22.5 79.9375 C-21.87923287 83.73969864 -20.31353637 85.96348352 -18 89 C-23.80126425 86.60682188 -26.41216438 81.28192047 -29.05078125 75.828125 C-31.96853409 68.25026455 -32.48153709 59.7493893 -29.3125 52.1875 C-27.26206507 48.16012244 -24.74443298 44.58300972 -22 41 C-23.2684375 41.495 -23.2684375 41.495 -24.5625 42 C-29.75830938 43.51150818 -33.4370356 43.68202083 -38.4375 41.5 C-39.283125 41.005 -40.12875 40.51 -41 40 C-41.69883384 41.98898862 -42.35377514 43.99330175 -43 46 C-43.26425781 46.75410156 -43.52851563 47.50820312 -43.80078125 48.28515625 C-47.98005752 61.41719497 -47.27823175 73.72440476 -41 86 C-34.40707452 97.86364337 -25.41035214 105.02577773 -12.6875 109.8828125 C-1.3121237 112.94209931 10.29429508 111.47139472 21 107 C21.75796875 106.69191406 22.5159375 106.38382812 23.296875 106.06640625 C24.87676097 105.40601391 26.44112992 104.70857731 28 104 C29.34195372 105.76430969 30.67331668 107.5366791 32 109.3125 C32.7425 110.29863281 33.485 111.28476562 34.25 112.30078125 C36 115 36 115 36 118 C19.04959578 127.46949956 2.75077018 130.31422978 -16.2578125 126.10546875 C-31.68979414 121.54675183 -45.64473066 111.57958051 -53.98046875 97.703125 C-63.34049886 79.74144675 -65.95849126 62.52613689 -60 43 C-53.65274858 26.06573155 -43.43567252 13.54438969 -26.97802734 5.85888672 C-18.36754149 2.12009516 -9.42028138 -0.28546307 0 0 Z " fill="#F9A119" transform="translate(207,192)"/>
<path d="M0 0 C8.74984601 3.9578411 13.63636817 18.18396514 17.03125 26.6171875 C22.20377463 42.57187613 18.67776556 60.02389217 11.92578125 74.87109375 C3.02022451 91.68283053 -10.89163024 101.37653484 -28.76171875 106.9609375 C-45.40493692 111.53389721 -61.96834088 108.54513502 -77.05078125 100.6875 C-79.94875097 98.94647168 -82.49580168 97.05172529 -85.07421875 94.87109375 C-83.55409198 89.46619856 -79.80036657 85.88616747 -76.07421875 81.87109375 C-75.09582031 82.42539062 -74.11742187 82.9796875 -73.109375 83.55078125 C-59.58102586 91.09247697 -49.44868572 92.16962709 -34.07421875 91.87109375 C-34.07421875 90.88109375 -34.07421875 89.89109375 -34.07421875 88.87109375 C-35.06421875 88.54109375 -36.05421875 88.21109375 -37.07421875 87.87109375 C-38.2421875 86.12890625 -38.2421875 86.12890625 -39.26171875 83.99609375 C-39.60589844 83.29742187 -39.95007813 82.59875 -40.3046875 81.87890625 C-41.07421875 79.87109375 -41.07421875 79.87109375 -41.07421875 76.87109375 C-41.76386719 76.9175 -42.45351563 76.96390625 -43.1640625 77.01171875 C-52.8696649 77.38449909 -59.31848828 74.4393105 -67.07421875 68.87109375 C-63.58924321 62.86251523 -60.07076711 60.50966123 -53.921875 57.40625 C-49.55968034 55.0546142 -45.88409552 52.01349211 -42.07421875 48.87109375 C-41.06359375 48.12859375 -40.05296875 47.38609375 -39.01171875 46.62109375 C-34.50171648 42.87334539 -31.37680152 37.65732411 -28.07421875 32.87109375 C-27.78675781 33.51433594 -27.49929688 34.15757812 -27.203125 34.8203125 C-26.25905949 37.0517529 -26.25905949 37.0517529 -24.01171875 37.68359375 C-23.05265625 37.77640625 -23.05265625 37.77640625 -22.07421875 37.87109375 C-20.77788254 36.8046426 -20.77788254 36.8046426 -21.01171875 34.30859375 C-21.03234375 33.50421875 -21.05296875 32.69984375 -21.07421875 31.87109375 C-22.72421875 31.54109375 -24.37421875 31.21109375 -26.07421875 30.87109375 C-24.75421875 28.23109375 -23.43421875 25.59109375 -22.07421875 22.87109375 C-16.65341359 27.51749817 -13.65253304 33.78674369 -13.07421875 40.87109375 C-13.01105469 41.5259375 -12.94789063 42.18078125 -12.8828125 42.85546875 C-12.48489608 50.09498039 -14.86380166 56.45025957 -18.07421875 62.87109375 C-17.49671875 63.09796875 -16.91921875 63.32484375 -16.32421875 63.55859375 C-11.77987327 66.20946195 -9.87870697 70.10437044 -8.07421875 74.87109375 C0.37268161 62.14443055 3.85872568 50.18762394 1.453125 34.859375 C-1.16200711 23.88208391 -6.68300853 15.30391701 -15.07421875 7.87109375 C-12.33678781 5.7558062 -9.56429165 3.86188962 -6.57421875 2.12109375 C-5.82140625 1.6725 -5.06859375 1.22390625 -4.29296875 0.76171875 C-2.07421875 -0.12890625 -2.07421875 -0.12890625 0 0 Z " fill="#FAA019" transform="translate(398.07421875,267.12890625)"/>
<path d="M0 0 C13.69877241 -0.62267147 29.65392268 3.21864892 40.328125 12.3203125 C41.318125 14.3003125 41.318125 14.3003125 42.328125 16.3203125 C39.358125 19.9503125 36.388125 23.5803125 33.328125 27.3203125 C32.27753906 26.76601562 31.22695312 26.21171875 30.14453125 25.640625 C22.93399889 21.89842824 16.43088538 18.59969572 8.328125 17.3203125 C7.998125 16.9903125 7.668125 16.6603125 7.328125 16.3203125 C3.97412795 16.41002847 0.65442412 16.89943384 -2.671875 17.3203125 C-3.54714844 17.40925781 -4.42242187 17.49820313 -5.32421875 17.58984375 C-13.31931172 18.65820419 -19.95442075 21.96526571 -26.671875 26.3203125 C-27.001875 26.9803125 -27.331875 27.6403125 -27.671875 28.3203125 C-27.011875 27.9903125 -26.351875 27.6603125 -25.671875 27.3203125 C-19.00127492 26.58846609 -15.10400046 27.15147203 -9.671875 31.3203125 C-6.02844674 32.32793853 -2.8014754 32.32003651 0.953125 32.1328125 C10.4999012 32.06235659 17.96862584 35.43271317 25.328125 41.3203125 C22.93727605 46.63948806 19.50102303 48.14419862 14.453125 50.4453125 C13.03822672 51.1128146 11.62414428 51.78204915 10.2109375 52.453125 C9.54118896 52.76693115 8.87144043 53.0807373 8.18139648 53.40405273 C6.12629368 54.38580535 6.12629368 54.38580535 3.49609375 56.05078125 C0.9229888 57.55755442 -0.73880743 57.57171829 -3.671875 57.3203125 C-3.8575 58.1865625 -3.8575 58.1865625 -4.046875 59.0703125 C-5.36024364 63.79843962 -8.00866363 67.20938952 -10.984375 71.0703125 C-13.71506583 74.63393786 -16.30721837 78.21040917 -18.609375 82.0703125 C-19.29 83.1428125 -19.970625 84.2153125 -20.671875 85.3203125 C-21.331875 85.3203125 -21.991875 85.3203125 -22.671875 85.3203125 C-23.65601933 83.40619693 -24.63400849 81.4889158 -25.609375 79.5703125 C-26.15464844 78.50296875 -26.69992188 77.435625 -27.26171875 76.3359375 C-29.53539627 71.47366867 -29.6948692 68.24963036 -29.421875 62.8828125 C-29.28693794 57.6329921 -29.28693794 57.6329921 -32.046875 53.2578125 C-33.34625 52.29875 -33.34625 52.29875 -34.671875 51.3203125 C-36.55478938 48.3432722 -36.90073665 46.12371805 -36.796875 42.6328125 C-36.77882813 41.84519531 -36.76078125 41.05757812 -36.7421875 40.24609375 C-36.71898438 39.61058594 -36.69578125 38.97507813 -36.671875 38.3203125 C-36.671875 37.9903125 -36.671875 37.6603125 -36.671875 37.3203125 C-43.88551507 49.45646797 -46.82499432 60.55471589 -43.984375 74.7578125 C-40.94603667 85.4932746 -35.98786411 93.89005004 -27.671875 101.3203125 C-30.40930594 103.43560005 -33.1818021 105.32951663 -36.171875 107.0703125 C-37.30109375 107.74320313 -37.30109375 107.74320313 -38.453125 108.4296875 C-40.671875 109.3203125 -40.671875 109.3203125 -42.70703125 109.234375 C-50.49258094 105.61246918 -54.80689173 94.88549964 -57.671875 87.3203125 C-58.06503906 86.32257813 -58.45820312 85.32484375 -58.86328125 84.296875 C-64.25606949 69.07681063 -62.70125323 51.84960553 -56.15869141 37.18530273 C-48.36816174 20.98169489 -35.80131464 10.26283929 -19.171875 3.54296875 C-12.78227436 1.31088728 -6.70900716 0.58525382 0 0 Z " fill="#FAA019" transform="translate(156.671875,135.6796875)"/>
<path d="M0 0 C11.6701898 10.06467552 21.19637727 24.34313257 23.390625 39.90234375 C24.82768074 59.59098494 20.30514372 78.03662615 7.29296875 93.375 C2.21494561 98.73961351 -3.14749983 102.35286302 -9.609375 105.90234375 C-10.269375 99.63234375 -10.929375 93.36234375 -11.609375 86.90234375 C-10.289375 86.24234375 -8.969375 85.58234375 -7.609375 84.90234375 C3.28225993 72.45779993 7.45925567 59.32193876 6.390625 42.90234375 C4.50898411 30.63214768 -1.75800926 19.49461546 -11.609375 11.90234375 C-24.8207388 3.9876321 -37.85330468 0.28814119 -53.296875 4.02734375 C-58.34862967 5.57654852 -62.77303411 7.99284359 -67.296875 10.6953125 C-69.609375 11.90234375 -69.609375 11.90234375 -72.609375 11.90234375 C-74.65234375 9.71484375 -74.65234375 9.71484375 -76.796875 6.90234375 C-77.51230469 5.97421875 -78.22773438 5.04609375 -78.96484375 4.08984375 C-79.50753906 3.36796875 -80.05023438 2.64609375 -80.609375 1.90234375 C-77.94185021 -4.82445788 -70.02271882 -7.6206722 -63.734375 -10.34765625 C-41.90175133 -18.48403774 -18.07080188 -14.52697696 0 0 Z " fill="#FAA019" transform="translate(393.609375,150.09765625)"/>
<path d="M0 0 C1.07903633 1.11500421 2.15750566 2.23055903 3.234375 3.34765625 C5.04648363 5.10792025 5.04648363 5.10792025 7.453125 6.80859375 C14.50450519 12.26207346 15.9897967 16.39018836 17.25390625 25.08203125 C19.29958462 35.82452026 25.29851241 45.3753025 34 52 C46.59351044 60.12484544 59.30891507 63.44956065 74.28125 60.3125 C86.80896031 56.43795042 97.67816894 49.61350703 103.94433594 37.84619141 C106.69688074 32.38587038 108.9120951 27.04391611 110 21 C113.42946293 22.61674681 116.56263052 24.57597677 119.75 26.625 C120.73484375 27.25664062 121.7196875 27.88828125 122.734375 28.5390625 C123.48203125 29.02117187 124.2296875 29.50328125 125 30 C120.03705727 46.99078041 110.78570768 60.47232004 95.359375 69.5546875 C78.29189203 78.72731872 60.56831807 80.48521296 42 75 C33.48977318 71.75389944 25.79784045 67.0625332 19 61 C18.12988281 60.28650391 18.12988281 60.28650391 17.2421875 59.55859375 C16 58 16 58 15.92578125 55.95703125 C16.28385417 53.97135417 16.64192708 51.98567708 17 50 C13.37114676 49.84850702 13.37114676 49.84850702 10 51 C0.95156376 34.04689054 -3.20808328 19.24849969 0 0 Z " fill="#F9A019" transform="translate(193,354)"/>
<path d="M0 0 C0.06058594 0.71285156 0.12117188 1.42570312 0.18359375 2.16015625 C0.26738281 3.11792969 0.35117188 4.07570313 0.4375 5.0625 C0.51613281 6.07183594 0.59476563 7.08117187 0.67578125 8.12109375 C0.92767764 11.16746539 0.92767764 11.16746539 2.125 14.625 C1.9682194 18.85807616 1.01833406 19.30106712 -2 22.125 C-2.82628906 22.88039063 -3.65257813 23.63578125 -4.50390625 24.4140625 C-13.93591223 34.18556165 -16.53814526 46.2875752 -16.3125 59.375 C-15.22847639 71.94967386 -9.55879066 83.4618366 -0.3984375 92.11328125 C11.92154789 101.80473556 23.72969826 103.84116069 39 103 C42.42038105 102.51376936 45.64014258 101.82704183 49 101 C48.67 106.61 48.34 112.22 48 118 C31.31091475 122.60388559 14.25754138 120.01770227 -0.84765625 111.87890625 C-17.20541755 102.12911296 -27.1927359 87.7012311 -32.34375 69.40625 C-35.70200423 51.97531136 -31.61921244 33.78866852 -22 19 C-17.67455091 13.0825225 -7.71224245 0 0 0 Z " fill="#F9A019" transform="translate(128,256)"/>
<path d="M0 0 C1 2 1 2 0.8125 5.6875 C0.73386512 10.48422781 2.32855133 13.07139901 5 17 C5.66 17.66 6.32 18.32 7 19 C6.38125 20.134375 5.7625 21.26875 5.125 22.4375 C0.16936111 32.54208285 -0.84547627 44.68937943 1.91015625 55.60546875 C7.13916081 69.94740086 15.21119266 79.66129765 28.8125 86.5546875 C39.26152951 91.29260529 51.59293876 91.75932307 62.5 88.1875 C64.34450915 87.48708504 66.17939949 86.76040051 68 86 C68.75796875 85.69191406 69.5159375 85.38382812 70.296875 85.06640625 C71.87676097 84.40601391 73.44112992 83.70857731 75 83 C76.34195372 84.76430969 77.67331668 86.5366791 79 88.3125 C79.7425 89.29863281 80.485 90.28476562 81.25 91.30078125 C83 94 83 94 83 97 C66.04959578 106.46949956 49.75077018 109.31422978 30.7421875 105.10546875 C15.31020586 100.54675183 1.35526934 90.57958051 -6.98046875 76.703125 C-16.31249323 58.7951889 -19.01996395 41.47518138 -13 22 C-9.73743915 13.854887 -5.81945046 6.57983162 0 0 Z " fill="#FAA019" transform="translate(160,213)"/>
<path d="M0 0 C11.06932368 8.89854313 21.88235106 21.39647288 24 36 C22.25156882 37.12743666 20.5011906 38.2518542 18.75 39.375 C17.77546875 40.00148437 16.8009375 40.62796875 15.796875 41.2734375 C13.56478385 42.65134852 11.36912578 43.88312642 9 45 C8.85304688 44.33355469 8.70609375 43.66710937 8.5546875 42.98046875 C5.71515257 31.31226488 0.65341391 21.43971377 -9 14 C-22.2113638 6.08528835 -35.24392968 2.38579744 -50.6875 6.125 C-63.72848527 10.26134775 -73.18780207 17.57321418 -79.9375 29.5 C-82.55212092 34.65056112 -84.13083675 39.30215202 -85 45 C-88.42946293 43.38325319 -91.56263052 41.42402323 -94.75 39.375 C-95.73484375 38.74335938 -96.7196875 38.11171875 -97.734375 37.4609375 C-98.85585937 36.73777344 -98.85585937 36.73777344 -100 36 C-99.67 34.35 -99.34 32.7 -99 31 C-98.01 32.32 -97.02 33.64 -96 35 C-93.525 34.505 -93.525 34.505 -91 34 C-91.33 32.35 -91.66 30.7 -92 29 C-94.97 29.495 -94.97 29.495 -98 30 C-94.14028991 15.33310167 -82.51219674 3.80705312 -70 -4 C-48.33015812 -16.41973027 -20.00149433 -15.14099134 0 0 Z " fill="#F9A019" transform="translate(294,92)"/>
<path d="M0 0 C8.53694534 3.35133719 15.84983932 13.8210972 19.41796875 21.94921875 C22.28746008 30.89363317 22.61485594 40.82863586 19.64453125 49.78125 C17.78653114 53.06529478 15.32928623 54.00628371 11.9765625 55.53125 C6.8212582 58.38831177 1.08257045 63.62001536 -1.58203125 68.94921875 C-2.24203125 68.94921875 -2.90203125 68.94921875 -3.58203125 68.94921875 C-5.0625 67.41015625 -5.0625 67.41015625 -6.76953125 65.32421875 C-10.86495791 60.52356301 -14.85567716 55.99781648 -20.83203125 53.69921875 C-24.60010842 51.30135146 -25.0784914 48.92999659 -26.1171875 44.6953125 C-28.03790393 33.34855913 -26.17707545 23.24021039 -19.7265625 13.70703125 C-8.1759808 -1.14672226 -8.1759808 -1.14672226 0 0 Z " fill="#6AA040" transform="translate(258.58203125,200.05078125)"/>
<path d="M0 0 C4.9710149 2.53240382 8.49430567 5.98861134 11 11 C11.14452001 15.26334028 11.15739562 18.43927812 10 22.5625 C9.62477938 25.96766018 9.62477938 25.96766018 11.57421875 27.81640625 C13.67041481 29.61037811 15.81976986 31.30970922 18 33 C20.5625 35.5 20.5625 35.5 22 38 C21.73723857 40.34233046 21.40946127 42.6788156 21 45 C8.00634794 46.23259941 8.00634794 46.23259941 3.38671875 43.39453125 C1.95174783 41.99628719 0.54789813 40.56544246 -0.82421875 39.10546875 C-8.0670501 32.09669658 -19.31558094 29.74400579 -29.1015625 29.82421875 C-29.89304688 29.84097656 -30.68453125 29.85773438 -31.5 29.875 C-32.32242188 29.88402344 -33.14484375 29.89304688 -33.9921875 29.90234375 C-35.99492083 29.92563135 -37.99750154 29.96149041 -40 30 C-39.835 29.05125 -39.67 28.1025 -39.5 27.125 C-38.9473365 24.19831099 -38.9473365 24.19831099 -39 22 C-40.98 22.66 -42.96 23.32 -45 24 C-45 25.32 -45 26.64 -45 28 C-43.07977297 29.77409808 -43.07977297 29.77409808 -41 31 C-41.61746094 31.21914062 -42.23492187 31.43828125 -42.87109375 31.6640625 C-50.1073317 34.37352146 -57.24661418 37.53574003 -62.1484375 43.703125 C-66.32520065 47.06742189 -69.66694363 46.34585745 -74.8125 45.8125 C-75.69615234 45.74224609 -76.57980469 45.67199219 -77.49023438 45.59960938 C-79.66221398 45.42350292 -81.83151834 45.21493292 -84 45 C-82.68753462 41.55905814 -81.33411133 38.86459118 -79 36 C-79.99 35.34 -80.98 34.68 -82 34 C-82.3125 31.5 -82.3125 31.5 -82 29 C-81.34 28.34 -80.68 27.68 -80 27 C-76.70285207 27.32971479 -75.3773161 27.6226839 -73 30 C-72.42894531 29.49210937 -71.85789063 28.98421875 -71.26953125 28.4609375 C-56.55299842 15.96709245 -39.95081344 12.21159944 -21 13 C-20.74089844 12.07832031 -20.48179687 11.15664062 -20.21484375 10.20703125 C-18.99699472 6.99206645 -18.18744442 5.78181049 -15.5625 3.6875 C-14.66724609 2.95080078 -14.66724609 2.95080078 -13.75390625 2.19921875 C-9.58682289 -0.64998969 -4.85145182 -0.5981242 0 0 Z " fill="#F9A11B" transform="translate(285,131)"/>
<path d="M0 0 C6.13239857 -0.63879152 10.08425186 0.05460769 15.2734375 3.41796875 C18.36945843 6.25482051 19.85782757 8.8228734 20.36328125 13.0078125 C20.34652344 14.03648437 20.32976562 15.06515625 20.3125 16.125 C20.30863281 17.15882813 20.30476563 18.19265625 20.30078125 19.2578125 C20 22 20 22 18 25 C18 25.99 18 26.98 18 28 C19.57379477 29.37369268 19.57379477 29.37369268 21.625 30.625 C29.24132885 36.12118057 32.42479281 42.56689743 33.96875 51.71484375 C33.9790625 52.46894531 33.989375 53.22304687 34 54 C33.34 54.66 32.68 55.32 32 56 C32.17382576 57.88721598 32.17382576 57.88721598 32.6875 60 C33.60315864 66.68969433 30.4280748 71.70802797 26.55078125 76.96484375 C25.41375003 78.34948062 24.2138088 79.68215044 23 81 C22.01 80.505 22.01 80.505 21 80 C21.66 79.29875 22.32 78.5975 23 77.875 C25.13696538 75.17088169 25.13696538 75.17088169 25.6875 72.1875 C24.62147337 67.2450129 21.53714866 64.47448264 18 61 C17.44828125 60.44957031 16.8965625 59.89914062 16.328125 59.33203125 C8.38257371 51.97293732 -0.51637755 48.7514411 -11.21875 48.83203125 C-15.89101579 49.11420461 -20.42852473 50.02660603 -25 51 C-23.37476884 35.79731684 -23.37476884 35.79731684 -20.1953125 31.640625 C-18.18705671 30.17043019 -16.2519991 29.05151709 -14 28 C-13.01 27.38125 -12.02 26.7625 -11 26.125 C-10.34 25.75375 -9.68 25.3825 -9 25 C-9.33 24.175 -9.66 23.35 -10 22.5 C-11.61184635 16.85853779 -11.87462906 12.88381644 -9.375 7.5 C-7 5 -7 5 -3.75 4.625 C-2.8425 4.74875 -1.935 4.8725 -1 5 C-0.67 3.35 -0.34 1.7 0 0 Z " fill="#F8A019" transform="translate(302,200)"/>
<path d="M0 0 C5.42080516 4.64640442 8.42168571 10.91564994 9 18 C9.06316406 18.65484375 9.12632812 19.3096875 9.19140625 19.984375 C9.58932267 27.22388664 7.21041709 33.57916582 4 40 C4.5775 40.226875 5.155 40.45375 5.75 40.6875 C9.14222063 42.66629537 11.25493471 45.50986942 13 49 C13.54360446 53.95482094 13.56437074 57.87125852 11.3125 62.375 C8.2502707 65.85104407 4.89921093 69.57895277 0.1171875 70.2734375 C-5.23882978 70.51604455 -8.84641347 69.72281494 -13.26953125 66.6328125 C-16.14390491 63.92064954 -17.80857041 60.74673252 -19 57 C-19 56.01 -19 55.02 -19 54 C-19.68964844 54.04640625 -20.37929688 54.0928125 -21.08984375 54.140625 C-30.79544615 54.51340534 -37.24426953 51.56821675 -45 46 C-41.51502446 39.99142148 -37.99654836 37.63856748 -31.84765625 34.53515625 C-27.48546159 32.18352045 -23.80987677 29.14239836 -20 26 C-18.4840625 24.88625 -18.4840625 24.88625 -16.9375 23.75 C-12.42749773 20.00225164 -9.30258277 14.78623036 -6 10 C-5.71253906 10.64324219 -5.42507813 11.28648437 -5.12890625 11.94921875 C-4.18484074 14.18065915 -4.18484074 14.18065915 -1.9375 14.8125 C-1.298125 14.874375 -0.65875 14.93625 0 15 C1.29633621 13.93354885 1.29633621 13.93354885 1.0625 11.4375 C1.041875 10.633125 1.02125 9.82875 1 9 C-1.475 8.505 -1.475 8.505 -4 8 C-2.68 5.36 -1.36 2.72 0 0 Z " fill="#F9A019" transform="translate(376,290)"/>
<path d="M0 0 C13.33804257 5.39197466 21.32906218 14.95518968 27 28 C31.42120955 39.6775445 29.69581988 52.75696172 25 64 C24.69191406 64.75796875 24.38382812 65.5159375 24.06640625 66.296875 C23.40601391 67.87676097 22.70857731 69.44112992 22 71 C22.66 71.66 23.32 72.32 24 73 C23.46428571 76.53571429 23.46428571 76.53571429 22 78 C20.989375 77.87625 19.97875 77.7525 18.9375 77.625 C13.967079 78.09837343 12.53114905 79.82992495 9.0546875 83.19140625 C6.47314389 85.46375358 3.79130655 86.6914313 0.6796875 88.08984375 C-1.22109187 88.96859577 -1.22109187 88.96859577 -2.6875 91.25 C-4 93 -4 93 -6.4375 93.375 C-9.02630579 92.99615037 -10.76182166 92.3263279 -13 91 C-13.33 92.65 -13.66 94.3 -14 96 C-16.375 96.625 -16.375 96.625 -19 97 C-19.66 96.34 -20.32 95.68 -21 95 C-21 94.01 -21 93.02 -21 92 C-21.60585938 91.97421875 -22.21171875 91.9484375 -22.8359375 91.921875 C-31.04764251 91.36600574 -39.35804922 89.09216227 -46 84 C-46 83.01 -46 82.02 -46 81 C-44.7625 81.33 -43.525 81.66 -42.25 82 C-31.9222767 84.25361623 -21.36901394 83.955965 -12.2265625 78.27734375 C-10.47435893 77.05481777 -8.740479 75.80535925 -7.03125 74.5234375 C-5 73 -5 73 -3 72 C-2.67 73.65 -2.34 75.3 -2 77 C-0.02 77 1.96 77 4 77 C4 74.69 4 72.38 4 70 C3.34 70 2.68 70 2 70 C3.46630189 66.91155737 5.20460987 64.11671991 7.0625 61.25 C10.17022519 56.11088371 11.87426711 51.69135003 10.4375 45.625 C10.293125 45.08875 10.14875 44.5525 10 44 C10.66 43.34 11.32 42.68 12 42 C12.01453845 33.62585154 8.48417738 27.09840525 3 21 C0.73918408 19.05464677 -1.44531043 17.56409565 -4 16 C-3.47423921 13.77021094 -2.91274782 11.79822934 -2 9.6875 C-0.80684325 6.48089123 -0.39867742 3.38875807 0 0 Z " fill="#FDD03C" transform="translate(323,212)"/>
<path d="M0 0 C6.32300394 3.60531767 10.7275238 8.48901795 14 15 C14.66015625 17.77734375 14.66015625 17.77734375 15 20 C15.86625 20.185625 16.7325 20.37125 17.625 20.5625 C22.4598272 22.62177825 25.65117545 26.30235089 28 31 C28.70505475 35.75911957 29.04936512 40.15843811 26.61328125 44.43359375 C22.24779095 49.59453131 18.92222237 51.66466301 12.1875 52.4375 C7.22716663 52.2780942 3.62208875 50.32493291 0 47 C-2.69394153 43.28903732 -3.88911592 39.91875377 -4.4375 35.375 C-5.73418334 27.59489997 -12.80587469 23.58294284 -18.78125 19.16796875 C-21.81786449 17.12267622 -24.8558834 15.45135977 -28.125 13.8125 C-32.80730179 11.40081228 -32.80730179 11.40081228 -34.5625 7.75 C-34.706875 6.8425 -34.85125 5.935 -35 5 C-35.66 4.34 -36.32 3.68 -37 3 C-35.23084525 2.01780373 -33.45961431 1.03934641 -31.6875 0.0625 C-30.20830078 -0.75541016 -30.20830078 -0.75541016 -28.69921875 -1.58984375 C-19.4416413 -6.42629159 -9.02675036 -4.46469471 0 0 Z " fill="#FAA019" transform="translate(369,172)"/>
<path d="M0 0 C4.40991114 2.16486547 7.44510336 4.80266981 10 9 C11.20537852 13.15033742 12.19557406 17.25569078 11.7109375 21.578125 C11.75072793 24.24405072 11.75072793 24.24405072 14.3359375 25.984375 C15.33882812 26.56703125 16.34171875 27.1496875 17.375 27.75 C18.87160156 28.63945312 18.87160156 28.63945312 20.3984375 29.546875 C21.91596315 30.39450194 23.44530247 31.22265123 25 32 C25.33 30.35 25.66 28.7 26 27 C28.375 26.375 28.375 26.375 31 26 C33 28 33 28 33.125 30.625 C33.08375 31.40875 33.0425 32.1925 33 33 C31.68 33.66 30.36 34.32 29 35 C32.96 37.31 36.92 39.62 41 42 C39.68 42.66 38.36 43.32 37 44 C36.52433594 44.81855469 36.04867187 45.63710938 35.55859375 46.48046875 C33.17911631 50.32699244 30.27542133 50.9199429 26.10546875 52.26953125 C17.29163667 54.34272194 9.82843364 53.55412063 2 49 C1.01 48.34 0.02 47.68 -1 47 C-3.02459203 46.79628846 -3.02459203 46.79628846 -5.125 46.9375 C-6.40375 46.958125 -7.6825 46.97875 -9 47 C-10 46 -10 46 -10.125 43.5625 C-10 41 -10 41 -9 39 C-11.23764119 32.97967965 -14.27111001 28.34546647 -19 24 C-21.55171202 19.76789226 -21.67219124 15.82297214 -21 11 C-16.26180364 1.52360728 -10.29108656 -1.65638949 0 0 Z " fill="#F9A019" transform="translate(141,291)"/>
<path d="M0 0 C3.3125 1.9375 3.3125 1.9375 6 4 C9.64342826 5.00762603 12.8703996 4.99972401 16.625 4.8125 C26.1717762 4.74204409 33.64050084 8.11240067 41 14 C38.60915105 19.31917556 35.17289803 20.82388612 30.125 23.125 C28.71010172 23.7925021 27.29601928 24.46173665 25.8828125 25.1328125 C25.21306396 25.44661865 24.54331543 25.7604248 23.85327148 26.08374023 C21.79816868 27.06549285 21.79816868 27.06549285 19.16796875 28.73046875 C16.5948638 30.23724192 14.93306757 30.25140579 12 30 C11.814375 30.86625 11.814375 30.86625 11.625 31.75 C10.31163136 36.47812712 7.66321137 39.88907702 4.6875 43.75 C1.95680917 47.31362536 -0.63534337 50.89009667 -2.9375 54.75 C-3.9584375 56.35875 -3.9584375 56.35875 -5 58 C-5.66 58 -6.32 58 -7 58 C-7.98414433 56.08588443 -8.96213349 54.1686033 -9.9375 52.25 C-10.48277344 51.18265625 -11.02804688 50.1153125 -11.58984375 49.015625 C-13.86352127 44.15335617 -14.0229942 40.92931786 -13.75 35.5625 C-13.61506294 30.3126796 -13.61506294 30.3126796 -16.375 25.9375 C-17.24125 25.298125 -18.1075 24.65875 -19 24 C-21.58534476 19.81209565 -21.67486064 15.79067739 -21 11 C-16.3473623 1.86704451 -9.80846702 -1.14860323 0 0 Z " fill="#F9A01A" transform="translate(141,163)"/>
<path d="M0 0 C1.2684375 0.495 1.2684375 0.495 2.5625 1 C8.88818063 2.840198 13.90691262 1.98957955 20 0 C19.27683594 1.08667969 19.27683594 1.08667969 18.5390625 2.1953125 C17.90742188 3.16210938 17.27578125 4.12890625 16.625 5.125 C15.68527344 6.55199219 15.68527344 6.55199219 14.7265625 8.0078125 C10.35526649 15.58340694 9.70648037 23.46579384 11.6875 31.94140625 C14.41853554 40.12313355 18.26150652 46.84763764 26 51 C27.07613086 51.94300127 28.13724197 52.90326593 29.1875 53.875 C34.30754264 58.35922036 40.37847229 61.47609232 47 63.0625 C50 64 50 64 51.4375 66.125 C51.7159375 67.053125 51.7159375 67.053125 52 68 C53.65 68 55.3 68 57 68 C57 68.66 57 69.32 57 70 C43.83498058 74.23643574 30.70470655 72.49389708 18.4375 66.4375 C5.59889346 58.94678663 -2.13251831 47.21708058 -6 33 C-6.95353493 21.27275877 -5.89076755 10.3789714 0 0 Z " fill="#FDD03C" transform="translate(166,232)"/>
<path d="M0 0 C-0.33 1.98 -0.66 3.96 -1 6 C2.28696233 6.79953138 3.71023192 7.09658936 7 6 C7.33 4.02 7.66 2.04 8 0 C18.24730346 1.5498179 28.70151074 4.59830829 37 11 C36.34 11.66 35.68 12.32 35 13 C34.01 12.01 34.01 12.01 33 11 C30.89179203 11.3185177 30.89179203 11.3185177 29 12 C28.83312552 14.41645782 28.83312552 14.41645782 29 17 C29.99 17.99 29.99 17.99 31 19 C30.01 20.65 29.02 22.3 28 24 C27.2265625 23.66226563 26.453125 23.32453125 25.65625 22.9765625 C11.95482244 17.10936704 -0.2464193 14.8198188 -15 19 C-15.66 19.33 -16.32 19.66 -17 20 C-17.7425 19.05125 -18.485 18.1025 -19.25 17.125 C-23.57383056 12.00625908 -27.52061297 11.6479387 -34 11 C-26.45477264 2.57286295 -10.85550803 -0.39211911 0 0 Z " fill="#F9A01A" transform="translate(207,192)"/>
<path d="M0 0 C4.98669007 2.49334503 8.49675474 5.99350949 11 11 C11.85895445 16.91451492 11.08033922 21.3682911 7.6171875 26.26953125 C3.92992877 30.21507622 -0.21868695 31.6761249 -5.4375 32.625 C-11.64701716 31.53561102 -16.35116262 28.2484146 -20.0625 23.1875 C-21.72560404 17.53294627 -22.02508474 13.01220339 -19.3125 7.6875 C-13.44759358 0.87152768 -8.81752377 -0.97671032 0 0 Z " fill="#F04C36" transform="translate(141,163)"/>
<path d="M0 0 C4.05155719 1.68349187 7.08227401 3.93425369 9.9375 7.25 C12.04881483 12.71457957 12.92170153 17.72779818 10.5625 23.25 C8.01364011 27.61448611 4.70479956 30.1993977 0 32 C-4.75573434 32.90930284 -7.99000412 32.5145262 -12.3125 30.3125 C-15.95431017 27.17884939 -19.69206795 23.80672488 -20.23828125 18.828125 C-20.40659218 12.98153463 -20.02425335 9.56807137 -16 5 C-10.70822267 0.33819616 -6.9996421 -0.9919875 0 0 Z " fill="#F04C36" transform="translate(255,352)"/>
<path d="M0 0 C4.98669007 2.49334503 8.49675474 5.99350949 11 11 C11.54099901 17.27558851 10.75004792 21.82791556 7 27 C1.8305292 31.11447676 -2.38702829 32.74662584 -9 32 C-13.57249898 29.80489667 -17.09924279 27.25560096 -20.0625 23.125 C-21.61430083 17.95233055 -21.67824671 13.92169901 -19.875 8.8125 C-14.78074709 1.17112064 -8.92988562 -0.98915656 0 0 Z " fill="#EF4E37" transform="translate(181,203)"/>
<path d="M0 0 C4.9710149 2.53240382 8.49430567 5.98861134 11 11 C11.54360446 15.95482094 11.56437074 19.87125852 9.3125 24.375 C6.2502707 27.85104407 2.89921093 31.57895277 -1.8828125 32.2734375 C-7.338656 32.5205663 -10.70104717 31.54561758 -15.2734375 28.58203125 C-18.31297874 25.79693125 -19.82300558 23.18474645 -20.43359375 19.09765625 C-20.4471542 8.5611838 -20.4471542 8.5611838 -16 4 C-10.83631376 0.15254751 -6.42086656 -1.15997407 0 0 Z " fill="#F04C36" transform="translate(378,328)"/>
<path d="M0 0 C4.9710149 2.53240382 8.49430567 5.98861134 11 11 C11.70505475 15.75911957 12.04936512 20.15843811 9.61328125 24.43359375 C5.24779095 29.59453131 1.92222237 31.66466301 -4.8125 32.4375 C-9.67024953 32.30869604 -13.42505189 30.21031926 -17 27 C-20.96310345 21.63708478 -20.76806913 16.43257898 -20 10 C-18.00111641 5.52250075 -15.39993524 2.9464798 -10.9921875 0.6953125 C-7.29228383 -0.59602643 -3.84128838 -0.69395538 0 0 Z " fill="#F04C36" transform="translate(386,192)"/>
<path d="M0 0 C4.9710149 2.53240382 8.49430567 5.98861134 11 11 C11.54099901 17.27558851 10.75004792 21.82791556 7 27 C1.8305292 31.11447676 -2.38702829 32.74662584 -9 32 C-12.45092175 30.46381862 -15.35590828 28.71507405 -18 26 C-18.375 22.25 -18.375 22.25 -18 19 C-18.99 18.34 -19.98 17.68 -21 17 C-21.610834 13.16047203 -21.16754165 11.31026231 -19.3125 7.875 C-13.85599851 1.09124139 -8.53242917 -1.05194332 0 0 Z " fill="#EF4D37" transform="translate(285,131)"/>
<path d="M0 0 C6.13239857 -0.63879152 10.08425186 0.05460769 15.2734375 3.41796875 C18.29333846 6.18507257 19.80682452 8.81840998 20.46875 12.8671875 C20.52969549 18.73319124 20.44705585 23.11684944 16.4765625 27.6640625 C12.12028452 31.60545686 7.89211714 32.56292282 2.17578125 32.3515625 C-2.47968282 31.59933312 -5.21910863 28.84420689 -8.3125 25.5 C-11.33108253 21.02802588 -11.72646244 16.34103373 -11 11 C-9.375 7.5 -9.375 7.5 -7 5 C-3.75 4.625 -3.75 4.625 -1 5 C-0.67 3.35 -0.34 1.7 0 0 Z " fill="#F04C37" transform="translate(302,200)"/>
<path d="M0 0 C4.41214525 2.16596222 7.34279599 4.86657153 10 9 C10.75 12.3125 10.75 12.3125 11 15 C9.35 15.33 7.7 15.66 6 16 C6 17.65 6 19.3 6 21 C7.32 21.66 8.64 22.32 10 23 C6.81374439 27.77938341 3.31556331 30.10445006 -2 32 C-6.89891555 32.89071192 -9.6247706 31.90745101 -13.75 29.375 C-17.47257397 26.65441357 -19.66540827 24.53761188 -21 20 C-21.65870368 15.31306999 -21.5120576 12.0241152 -19.375 7.75 C-13.26806487 0.67881196 -9.53291368 -1.53435869 0 0 Z " fill="#EF4D36" transform="translate(141,291)"/>
<path d="M0 0 C0.67611328 0.00580078 1.35222656 0.01160156 2.04882812 0.01757812 C7.01614318 0.14114318 7.01614318 0.14114318 9.3125 2.4375 C8.93650466 9.62992701 2.37941013 14.65887942 -2.640625 19.20703125 C-11.52086864 26.27764541 -21.65080691 30.20667906 -32.6875 32.4375 C-32.96722656 31.76203125 -33.24695313 31.0865625 -33.53515625 30.390625 C-36.33460778 24.16162031 -38.37532596 21.16039861 -44.6875 18.4375 C-44.6875 18.1075 -44.6875 17.7775 -44.6875 17.4375 C-43.94886719 17.33953125 -43.21023438 17.2415625 -42.44921875 17.140625 C-30.59873909 15.39392152 -18.49448875 12.23058118 -10.41015625 2.7734375 C-6.80729001 -0.31768734 -4.68109598 -0.14212926 0 0 Z " fill="#F9A11B" transform="translate(299.6875,334.5625)"/>
<path d="M0 0 C0.85722656 0.27714844 1.71445313 0.55429687 2.59765625 0.83984375 C3.74105469 1.20207031 4.88445312 1.56429688 6.0625 1.9375 C7.75052734 2.47697266 7.75052734 2.47697266 9.47265625 3.02734375 C26.42948114 7.70314596 43.56020816 5.26073339 60 0 C58.40697449 6.88569058 54.47029229 12.32400715 48.6875 16.375 C40.44688473 21.31936916 32.62728809 23.14549283 23 22 C13.42487642 19.33522504 6.35285956 13.24549384 1.03125 5.05078125 C0 3 0 3 0 0 Z " fill="#FAA119" transform="translate(226,378)"/>
<path d="M0 0 C4.64852153 3.24700099 7.74486568 6.82466454 10.7109375 11.64453125 C10.7109375 12.30453125 10.7109375 12.96453125 10.7109375 13.64453125 C8.92085283 13.86604674 7.12875588 14.07135338 5.3359375 14.26953125 C4.33820313 14.38554687 3.34046875 14.5015625 2.3125 14.62109375 C1.45398438 14.62882812 0.59546875 14.6365625 -0.2890625 14.64453125 C-0.9490625 13.98453125 -1.6090625 13.32453125 -2.2890625 12.64453125 C-8.45822793 11.53991717 -14.53698815 11.52296369 -20.7890625 11.58203125 C-21.706875 11.58654297 -22.6246875 11.59105469 -23.5703125 11.59570312 C-25.80996641 11.60736799 -28.04947795 11.62373511 -30.2890625 11.64453125 C-30.9490625 9.99453125 -31.6090625 8.34453125 -32.2890625 6.64453125 C-33.9390625 6.97453125 -35.5890625 7.30453125 -37.2890625 7.64453125 C-37.2890625 9.62453125 -37.2890625 11.60453125 -37.2890625 13.64453125 C-42.7340625 15.12953125 -42.7340625 15.12953125 -48.2890625 16.64453125 C-46.14384958 8.06367957 -40.9853537 2.71711701 -33.65625 -1.98046875 C-22.89515588 -8.23113728 -10.38050824 -6.14681972 0 0 Z " fill="#F9A11A" transform="translate(274.2890625,117.35546875)"/>
<path d="M0 0 C3.44392285 0.28936542 4.28408792 1.055516 6.5234375 3.61328125 C8.61352137 5.94840943 10.18320724 7.46979441 12.8359375 9.23828125 C13.0234375 12.36328125 13.0234375 12.36328125 12.8359375 15.23828125 C15.23313182 15.91786728 15.23313182 15.91786728 17.8359375 16.23828125 C18.4959375 15.57828125 19.1559375 14.91828125 19.8359375 14.23828125 C22.65625 14.48046875 22.65625 14.48046875 25.9609375 15.11328125 C27.05664062 15.31695312 28.15234375 15.520625 29.28125 15.73046875 C30.54582031 15.98183594 30.54582031 15.98183594 31.8359375 16.23828125 C29.91213355 17.52081722 27.95495024 18.75538247 25.9609375 19.92578125 C22.2342106 22.68355916 20.36033307 25.37744097 17.8359375 29.23828125 C3.79151716 25.49310249 -8.03372097 16.22439176 -15.3515625 3.70703125 C-15.6196875 3.22234375 -15.8878125 2.73765625 -16.1640625 2.23828125 C-14.40421612 0.47843487 -11.87044626 0.86128516 -9.4765625 0.67578125 C-8.44144531 0.59199219 -7.40632812 0.50820313 -6.33984375 0.421875 C-4.22541916 0.29963889 -2.11197447 0.15904993 0 0 Z " fill="#F9A019" transform="translate(217.1640625,334.76171875)"/>
<path d="M0 0 C3.6727446 3.6314778 5.74813646 7.79120295 7.9609375 12.41796875 C9.24997755 15.0336601 10.5988445 17.15525913 12.43359375 19.40625 C12.10359375 20.06625 11.77359375 20.72625 11.43359375 21.40625 C-4.70018465 18.30360031 -18.54026571 10.56327674 -29.56640625 -1.59375 C-29.56640625 -2.25375 -29.56640625 -2.91375 -29.56640625 -3.59375 C-27.21242155 -3.76340655 -24.85827241 -3.9295435 -22.50390625 -4.09375 C-21.19292969 -4.1865625 -19.88195312 -4.279375 -18.53125 -4.375 C-10.57887821 -4.81375155 -6.45925445 -4.79774151 0 0 Z " fill="#FAA119" transform="translate(179.56640625,395.59375)"/>
<path d="M0 0 C-1.55828631 4.14237919 -3.45789408 8.05046441 -5.5625 11.9375 C-5.85962891 12.53240234 -6.15675781 13.12730469 -6.46289062 13.74023438 C-9.38310457 19.07355925 -13.37514413 22.63475531 -19 25 C-22.93205831 25.52718988 -26.62645801 25.27094863 -30.5625 24.875 C-32.07553711 24.76285156 -32.07553711 24.76285156 -33.61914062 24.6484375 C-36.08337571 24.46157607 -38.54098642 24.24503765 -41 24 C-35.44169817 12.50277188 -23.04592649 6.55238517 -11.7265625 1.9453125 C-7.65822649 0.53480059 -4.31926397 0 0 0 Z " fill="#F8A11A" transform="translate(191,96)"/>
<path d="M0 0 C0.66 0 1.32 0 2 0 C2.38671875 0.72445312 2.7734375 1.44890625 3.171875 2.1953125 C3.95304687 3.64550781 3.95304687 3.64550781 4.75 5.125 C5.29398438 6.14207031 5.83796875 7.15914062 6.3984375 8.20703125 C7.95899242 11.122253 7.95899242 11.122253 10.375 13.8125 C13.2156012 19.38444851 13.06994318 24.91588525 12 31 C10.05307703 35.76964625 7.06541713 39.88542481 4 44 C3.12794922 45.17175781 3.12794922 45.17175781 2.23828125 46.3671875 C1.82964844 46.90601563 1.42101562 47.44484375 1 48 C0.35089846 46.41800369 -0.29414694 44.83434276 -0.9375 43.25 C-1.29714844 42.36828125 -1.65679687 41.4865625 -2.02734375 40.578125 C-6.75229139 28.05416741 -4.13669365 12.41008094 0 0 Z " fill="#FAA119" transform="translate(84,232)"/>
<path d="M0 0 C0.96099609 0.07025391 1.92199219 0.14050781 2.91210938 0.21289062 C5.25707454 0.38788803 7.59683854 0.58807055 9.9375 0.8125 C4.38609329 12.2539036 -7.99995355 18.53169544 -19.5 22.75 C-23.67815175 24.17822105 -27.6910834 25.18612809 -32.0625 25.8125 C-30.36403734 21.27517832 -28.1009572 17.35142723 -25.55859375 13.2421875 C-24.400325 11.36113486 -23.31037396 9.43792482 -22.25 7.5 C-16.20804616 0.07702815 -9.06772287 -0.87711446 0 0 Z " fill="#FAA119" transform="translate(352.0625,391.1875)"/>
<path d="M0 0 C15.49147225 0.91126307 28.78883569 9.26674874 39.41796875 20.08203125 C41 22 41 22 41 24 C37.35479202 24.17631541 33.71069772 24.28151354 30.0625 24.375 C29.04091797 24.42527344 28.01933594 24.47554687 26.96679688 24.52734375 C19.42747335 24.67186752 14.53885045 23.24834354 9 18 C7.26105709 15.84956626 6.2898548 13.97923475 5.0625 11.4375 C4.51722656 10.34308594 3.97195313 9.24867187 3.41015625 8.12109375 C2.19744591 5.43700631 1.05918487 2.74774045 0 0 Z " fill="#FAA019" transform="translate(321,96)"/>
<path d="M0 0 C3.15111212 2.52952288 3.58798017 4.76756266 4.1875 8.6875 C4.34605469 9.68136719 4.50460937 10.67523438 4.66796875 11.69921875 C4.77753906 12.45847656 4.88710938 13.21773437 5 14 C3.35 14 1.7 14 0 14 C-0.33 15.65 -0.66 17.3 -1 19 C2.58327753 20.00217064 2.58327753 20.00217064 6 19 C6.60203999 28.91693656 5.41449705 37.67867229 2 47 C1.01 47.495 1.01 47.495 0 48 C-0.38671875 47.27554688 -0.7734375 46.55109375 -1.171875 45.8046875 C-1.69265625 44.83789062 -2.2134375 43.87109375 -2.75 42.875 C-3.29398437 41.85792969 -3.83796875 40.84085937 -4.3984375 39.79296875 C-5.95899242 36.877747 -5.95899242 36.877747 -8.375 34.1875 C-11.2143624 28.61798145 -11.07576942 23.08126125 -10 17 C-8.01760017 12.24500421 -4.96752212 8.18313359 -2 4 C-1.3005188 2.68358507 -0.61686101 1.35709422 0 0 Z " fill="#F9A019" transform="translate(426,232)"/>
<path d="M0 0 C3.84669553 3.14015962 7.54295373 6.36916049 11 9.9375 C11.598125 10.54464844 12.19625 11.15179688 12.8125 11.77734375 C14.55454085 15.03793994 13.74509658 17.48195877 13 21 C0.06753569 22.22679503 0.06753569 22.22679503 -4.82421875 19.32421875 C-7.125 17.1875 -7.125 17.1875 -9.0703125 15.04296875 C-10.96329612 12.85311597 -10.96329612 12.85311597 -13.7421875 11.36328125 C-14.48726563 10.91339844 -15.23234375 10.46351563 -16 10 C-16 9.34 -16 8.68 -16 8 C-15.12988281 7.85304687 -15.12988281 7.85304687 -14.2421875 7.703125 C-8.9116106 6.68275054 -5.25206157 5.40164926 -1 2 C-0.67 1.34 -0.34 0.68 0 0 Z " fill="#F9A019" transform="translate(293,155)"/>
<path d="M0 0 C-17.45154423 8.5588443 -35.05331118 13.88228069 -54.1875 17.1875 C-55.20980713 17.36684082 -56.23211426 17.54618164 -57.28540039 17.73095703 C-63.28015579 18.72659544 -68.92394709 19.18297563 -75 19 C-75 18.67 -75 18.34 -75 18 C-73.93523437 17.78085937 -72.87046875 17.56171875 -71.7734375 17.3359375 C-61.20787787 15.06498456 -49.92312758 12.60502314 -41.2265625 5.84375 C-36.78733658 3.30704947 -33.08495493 3.49183267 -28.0625 3.5 C-19.77092275 3.33916731 -12.63039008 2.24351161 -4.73828125 -0.2578125 C-2 -1 -2 -1 0 0 Z " fill="#A7C3DA" transform="translate(340,429)"/>
<path d="M0 0 C24.56267784 -0.60338206 52.05856022 7.08143884 74 18 C74.495 18.99 74.495 18.99 75 20 C74.01644531 19.72285156 73.03289062 19.44570312 72.01953125 19.16015625 C63.62346327 16.93003087 55.88389684 15.78371812 47.1875 15.6875 C39.36150184 15.53949555 34.44806353 14.40975991 27.890625 9.84765625 C19.78482576 4.66651701 9.40824555 2.48318224 0 1 C0 0.67 0 0.34 0 0 Z " fill="#A9C4D8" transform="translate(265,64)"/>
<path d="M0 0 C2.23125179 3.34687768 2.78319783 5.90476892 3.6875 9.8125 C5.9378223 18.92552318 9.78326273 27.17489409 15 35 C15.25537109 36.99853516 15.25537109 36.99853516 15.2734375 39.2890625 C15.29156494 40.14089111 15.30969238 40.99271973 15.32836914 41.87036133 C15.35145142 43.23390747 15.35145142 43.23390747 15.375 44.625 C15.66885811 54.50394435 17.32617815 63.51104152 20 73 C17.1876156 71.5938078 17.06277855 70.03092163 15.9765625 67.109375 C15.59709473 66.09609131 15.21762695 65.08280762 14.82666016 64.03881836 C14.4301123 62.9535083 14.03356445 61.86819824 13.625 60.75 C13.21942871 59.64986572 12.81385742 58.54973145 12.39599609 57.41625977 C5.72434019 39.18174811 -0.38361832 19.62355244 0 0 Z " fill="#A8C4D8" transform="translate(64,267)"/>
<path d="M0 0 C0 0.33 0 0.66 0 1 C-1.0415625 1.1959375 -2.083125 1.391875 -3.15625 1.59375 C-15.17128501 4.03628943 -25.75197243 8.16798162 -36 15 C-38.03369141 15.28710938 -38.03369141 15.28710938 -40.3515625 15.34375 C-41.20363281 15.37339844 -42.05570313 15.40304688 -42.93359375 15.43359375 C-43.82175781 15.45550781 -44.70992187 15.47742188 -45.625 15.5 C-51.64918371 15.65262462 -57.24174141 16.07818977 -63.09692383 17.56787109 C-65.42814933 18.09721928 -67.61907671 18.15360795 -70 18 C-66.27608536 14.72295512 -62.03162664 13.28649848 -57.4375 11.625 C-56.59759521 11.32045898 -55.75769043 11.01591797 -54.89233398 10.70214844 C-37.40359287 4.50030531 -18.67495045 -0.40551321 0 0 Z " fill="#A9C4D9" transform="translate(246,64)"/>
<path d="M0 0 C1.39613065 0.14295891 2.79189308 0.28951558 4.1875 0.4375 C4.96480469 0.51871094 5.74210938 0.59992188 6.54296875 0.68359375 C9 1 9 1 11.2109375 1.53125 C13.69824312 1.94928456 15.86029977 2.04595253 18.37109375 2.03515625 C28.99194493 2.04040838 35.86957212 3.15076861 44.7578125 8.99609375 C52.2945178 13.65432245 61.39823925 15.25048934 70 17 C70 17.33 70 17.66 70 18 C45.80535184 16.8719537 21.90218123 11.52692865 0 1 C0 0.67 0 0.34 0 0 Z " fill="#A9C4D9" transform="translate(176,430)"/>
<path d="M0 0 C0.33 0 0.66 0 1 0 C0.85704109 1.39613065 0.71048442 2.79189308 0.5625 4.1875 C0.48128906 4.96480469 0.40007812 5.74210938 0.31640625 6.54296875 C0 9 0 9 -0.53125 11.2109375 C-0.94928456 13.69824312 -1.04595253 15.86029977 -1.03515625 18.37109375 C-1.04040838 28.99194493 -2.15076861 35.86957212 -7.99609375 44.7578125 C-12.65432245 52.2945178 -14.25048934 61.39823925 -16 70 C-16.33 70 -16.66 70 -17 70 C-15.54862613 45.37669154 -9.98297518 22.53553273 0 0 Z " fill="#A9C4D8" transform="translate(81,176)"/>
<path d="M0 0 C3.70542394 1.64784478 6.81092248 3.97070236 10 6.4375 C10.5667041 6.87489502 11.1334082 7.31229004 11.71728516 7.76293945 C17.78664509 12.51583955 23.42207661 17.6857303 29 23 C29.65613281 23.61488281 30.31226563 24.22976562 30.98828125 24.86328125 C36.14230274 29.82772954 40.54289081 35.41419588 45 41 C46.12341797 42.40378906 46.12341797 42.40378906 47.26953125 43.8359375 C47.84058594 44.55007812 48.41164063 45.26421875 49 46 C48.505 46.99 48.505 46.99 48 48 C47.29617188 47.3709375 46.59234375 46.741875 45.8671875 46.09375 C40.3470661 41.30868393 35.13748653 37.38445124 28.625 34.0625 C22.76384447 30.98742109 20.0120805 27.77833858 17.29296875 21.74609375 C15.20705738 17.31589527 12.10130401 13.75501025 9 10 C7.948125 8.63875 7.948125 8.63875 6.875 7.25 C4.72708441 4.67250129 2.40451303 2.337721 0 0 Z " fill="#A9C4D7" transform="translate(363,97)"/>
<path d="M0 0 C0.33 0 0.66 0 1 0 C1.36913109 16.59412057 -2.75693838 32.32119026 -8 47.9375 C-8.2150116 48.58093353 -8.43002319 49.22436707 -8.65155029 49.88729858 C-10.99983363 56.85801927 -13.49923913 63.52521311 -17 70 C-18.53762202 66.92475597 -17.14896313 64.91828021 -16.125 61.6875 C-14.16769126 55.15855241 -13.75664319 49.10490833 -13.6875 42.3125 C-13.54077214 34.44858551 -12.45336508 29.49092332 -7.8515625 22.91015625 C-3.57206967 16.18394917 -1.38911729 7.78792355 0 0 Z " fill="#A6C3DA" transform="translate(446,270)"/>
<path d="M0 0 C1.08474609 1.10408203 1.08474609 1.10408203 2.19140625 2.23046875 C8.05885565 8.01631246 14.12463399 13.14663017 21.46679688 16.92431641 C28.02397132 20.30178165 31.61386429 23.38622313 34.70703125 30.2578125 C36.44349399 33.94058241 38.83420674 36.83759745 41.38671875 39.984375 C43.44316416 42.55368695 45.22507853 45.23112251 47 48 C42.89715986 46.62267001 40.33157616 44.76356341 37.1875 41.8125 C36.31738281 41.00554687 35.44726562 40.19859375 34.55078125 39.3671875 C33.70902344 38.58601563 32.86726563 37.80484375 32 37 C30.62978126 35.80698623 29.25518972 34.61896418 27.875 33.4375 C20.07291006 26.60480801 13.44102559 19.12029297 7 11 C6.29875 10.13117188 5.5975 9.26234375 4.875 8.3671875 C4.235625 7.56539063 3.59625 6.76359375 2.9375 5.9375 C2.36902344 5.22464844 1.80054687 4.51179688 1.21484375 3.77734375 C0 2 0 2 0 0 Z " fill="#A9C4D7" transform="translate(97,363)"/>
<path d="M0 0 C2.23743386 2.77019387 3.67429507 5.30345571 4.90234375 8.640625 C5.39903564 9.98713135 5.39903564 9.98713135 5.90576172 11.36083984 C6.24623535 12.3142627 6.58670898 13.26768555 6.9375 14.25 C7.29086426 15.23564941 7.64422852 16.22129883 8.00830078 17.23681641 C13.45768061 32.71486572 17.25503086 48.48675152 17 65 C15.21218712 61.74586691 14.23938792 58.50884325 13.25 54.9375 C10.94824035 47.26208341 7.43073442 40.64610163 3 34 C2.71289062 31.96630859 2.71289062 31.96630859 2.65625 29.6484375 C2.62660156 28.79636719 2.59695313 27.94429687 2.56640625 27.06640625 C2.54449219 26.17824219 2.52257812 25.29007813 2.5 24.375 C2.34737538 18.35081629 1.92181023 12.75825859 0.43212891 6.90307617 C-0.09721928 4.57185067 -0.15360795 2.38092329 0 0 Z " fill="#A8C4D9" transform="translate(430,176)"/>
<path d="M0 0 C0 8.60257803 -14.05740249 19.94984416 -20 26 C-26.93581123 32.8181839 -34.15255095 39.2411485 -42 45 C-42.66 44.67 -43.32 44.34 -44 44 C-43.3709375 43.29617188 -42.741875 42.59234375 -42.09375 41.8671875 C-37.30868393 36.3470661 -33.38445124 31.13748653 -30.0625 24.625 C-26.98607817 18.76128485 -23.77449577 16.01279172 -17.7421875 13.2890625 C-13.31187675 11.20643779 -9.74103023 8.1175252 -6 5 C-5.37609375 4.48695313 -4.7521875 3.97390625 -4.109375 3.4453125 C-2.73195056 2.30604088 -1.36457042 1.15463651 0 0 Z " fill="#A8C4D8" transform="translate(411,367)"/>
<path d="M0 0 C0.66 0.33 1.32 0.66 2 1 C1.5153125 1.49886719 1.030625 1.99773437 0.53125 2.51171875 C-5.65139905 9.13428706 -11.43379462 16.76621354 -14.91015625 25.2109375 C-16.47300731 27.77647796 -18.38478013 28.50565219 -21.0625 29.8125 C-25.77669886 32.25279117 -29.80249076 34.98343845 -33.91796875 38.3203125 C-36.851489 40.68694234 -39.91599921 42.83463774 -43 45 C-35.0146166 27.51955873 -15.3108901 11.23589867 0 0 Z " fill="#A8C4D8" transform="translate(143,100)"/>
<path d="M0 0 C6.81987029 0.43300764 11.91643021 1.90787824 18 5 C14.80848655 7.49336988 11.47772816 9.61390459 8 11.6875 C6.96875 12.31011719 5.9375 12.93273437 4.875 13.57421875 C2 15 2 15 -2 15 C-4.875 13.5390625 -4.875 13.5390625 -8 11.625 C-12.90618682 8.64086495 -12.90618682 8.64086495 -18 6 C-14.71195019 3.08772731 -12.40114397 1.50298788 -8 1 C-7.34 2.32 -6.68 3.64 -6 5 C-4.35 4.67 -2.7 4.34 -1 4 C-0.67 2.68 -0.34 1.36 0 0 Z " fill="#F9A11A" transform="translate(256,176)"/>
<path d="M0 0 C3.41890767 2.90089136 5.40999633 6.31297506 6.0625 10.75 C6.10138349 13.08300933 6.1073635 15.41709801 6.0625 17.75 C5.505625 17.36328125 4.94875 16.9765625 4.375 16.578125 C-5.15047782 10.07763 -12.34280949 7.09328731 -23.9375 5.75 C-22.66745023 1.93985068 -21.42636603 1.57372543 -17.9375 -0.25 C-17.215625 -0.6625 -16.49375 -1.075 -15.75 -1.5 C-10.43213677 -2.91809686 -5.02647483 -2.13892546 0 0 Z " fill="#FBCF3E" transform="translate(313.9375,242.25)"/>
<path d="M0 0 C1.72677563 1.46652839 3.31797757 2.90971123 4.79296875 4.62890625 C4.79296875 4.95890625 4.79296875 5.28890625 4.79296875 5.62890625 C3.76558594 5.76425781 2.73820312 5.89960938 1.6796875 6.0390625 C-7.74197353 7.4439371 -14.48079227 9.76713445 -22.20703125 15.62890625 C-23.19703125 16.28890625 -24.18703125 16.94890625 -25.20703125 17.62890625 C-25.54313016 12.13929078 -24.8887111 8.45592999 -22.20703125 3.62890625 C-16.39751644 -2.68507623 -7.606387 -4.72538378 0 0 Z " fill="#FBD041" transform="translate(217.20703125,242.37109375)"/>
<path d="M0 0 C0.19916016 1.35544922 0.19916016 1.35544922 0.40234375 2.73828125 C0.57894531 3.91777344 0.75554687 5.09726563 0.9375 6.3125 C1.11152344 7.48425781 1.28554688 8.65601563 1.46484375 9.86328125 C1.92093031 13.01641403 1.92093031 13.01641403 3 16 C2.24074219 16.40992188 1.48148437 16.81984375 0.69921875 17.2421875 C-0.29464844 17.78101563 -1.28851563 18.31984375 -2.3125 18.875 C-3.29863281 19.40867188 -4.28476562 19.94234375 -5.30078125 20.4921875 C-8.09586458 22.00722126 -8.09586458 22.00722126 -11 24 C-11.19335938 23.19175781 -11.38671875 22.38351563 -11.5859375 21.55078125 C-11.84632813 20.48214844 -12.10671875 19.41351563 -12.375 18.3125 C-12.63023437 17.25675781 -12.88546875 16.20101562 -13.1484375 15.11328125 C-13.91905489 12.29593234 -14.85498543 9.68331675 -16 7 C-13.89983377 5.82558465 -11.79541245 4.66035988 -9.6875 3.5 C-9.09259766 3.16613281 -8.49769531 2.83226562 -7.88476562 2.48828125 C-5.04171156 0.93174886 -3.29339012 0 0 0 Z " fill="#FCCF3C" transform="translate(291,210)"/>
<path d="M0 0 C0.66 0.33 1.32 0.66 2 1 C1.34 1.66 0.68 2.32 0 3 C0.32041397 5.60280568 0.32041397 5.60280568 1 8 C4.61498075 7.40102559 4.61498075 7.40102559 7.875 5.8125 C10 5 10 5 12.359375 5.8984375 C13.14828125 6.38570313 13.9371875 6.87296875 14.75 7.375 C15.54921875 7.85710937 16.3484375 8.33921875 17.171875 8.8359375 C17.77515625 9.22007812 18.3784375 9.60421875 19 10 C12.3655812 15.28680248 5.32916395 16.56698097 -3.0546875 16.36328125 C-8.397476 15.70429009 -13.17320991 13.82679009 -17 10 C-13.72099683 8.24053488 -10.80202595 6.94807238 -7.1875 6 C-6.135625 5.67 -5.08375 5.34 -4 5 C-3.67 4.01 -3.34 3.02 -3 2 C-2.01 1.34 -1.02 0.68 0 0 Z " fill="#F9A11A" transform="translate(255,320)"/>
<path d="M0 0 C2.4375 0.1875 2.4375 0.1875 3.4375 1.1875 C3.625 3.625 3.625 3.625 3.4375 6.1875 C2.7775 6.8475 2.1175 7.5075 1.4375 8.1875 C-1.1875 7.8125 -1.1875 7.8125 -3.5625 7.1875 C-4.1875 4.8125 -4.1875 4.8125 -4.5625 2.1875 C-2.5625 0.1875 -2.5625 0.1875 0 0 Z " fill="#6CA942" transform="translate(154.5625,362.8125)"/>
<path d="M0 0 C2.625 0.375 2.625 0.375 5 1 C5.625 3.375 5.625 3.375 6 6 C5.34 6.66 4.68 7.32 4 8 C1.375 7.625 1.375 7.625 -1 7 C-1.625 4.625 -1.625 4.625 -2 2 C-1.34 1.34 -0.68 0.68 0 0 Z " fill="#D9E2E1" transform="translate(178,334)"/>
<path d="M0 0 C2.625 0.375 2.625 0.375 5 1 C5.625 3.375 5.625 3.375 6 6 C5.34 6.66 4.68 7.32 4 8 C1.375 7.625 1.375 7.625 -1 7 C-1.625 4.625 -1.625 4.625 -2 2 C-1.34 1.34 -0.68 0.68 0 0 Z " fill="#D9E0DF" transform="translate(256,321)"/>
<path d="M0 0 C2.625 0.375 2.625 0.375 5 1 C5.625 3.375 5.625 3.375 6 6 C5.34 6.66 4.68 7.32 4 8 C1.375 7.625 1.375 7.625 -1 7 C-1.625 4.625 -1.625 4.625 -2 2 C-1.34 1.34 -0.68 0.68 0 0 Z " fill="#6CAB44" transform="translate(246,319)"/>
<path d="M0 0 C1 1 1 1 1.125 3.5 C1 6 1 6 0 7 C-2.4375 7.1875 -2.4375 7.1875 -5 7 C-5.66 6.34 -6.32 5.68 -7 5 C-6.75 2.4375 -6.75 2.4375 -6 0 C-3.49749232 -1.25125384 -2.59701335 -0.83774624 0 0 Z " fill="#6CAD45" transform="translate(173,318)"/>
<path d="M0 0 C2.625 0.375 2.625 0.375 5 1 C5.625 3.375 5.625 3.375 6 6 C5.34 6.66 4.68 7.32 4 8 C1.375 7.625 1.375 7.625 -1 7 C-1.625 4.625 -1.625 4.625 -2 2 C-1.34 1.34 -0.68 0.68 0 0 Z " fill="#6BA942" transform="translate(282,306)"/>
<path d="M0 0 C2.625 0.375 2.625 0.375 5 1 C5.625 3.375 5.625 3.375 6 6 C5.34 6.66 4.68 7.32 4 8 C1.375 7.625 1.375 7.625 -1 7 C-1.625 4.625 -1.625 4.625 -2 2 C-1.34 1.34 -0.68 0.68 0 0 Z " fill="#D9E2E2" transform="translate(304,301)"/>
<path d="M0 0 C2.625 0.375 2.625 0.375 5 1 C6.125 5.75 6.125 5.75 5 8 C3.02 8 1.04 8 -1 8 C-1.625 5.125 -1.625 5.125 -2 2 C-1.34 1.34 -0.68 0.68 0 0 Z " fill="#6DAC44" transform="translate(322,281)"/>
<path d="M0 0 C2.625 0.375 2.625 0.375 5 1 C5.625 3.375 5.625 3.375 6 6 C5.34 6.66 4.68 7.32 4 8 C1.375 7.625 1.375 7.625 -1 7 C-1.625 4.625 -1.625 4.625 -2 2 C-1.34 1.34 -0.68 0.68 0 0 Z " fill="#DAE3E1" transform="translate(162,259)"/>
<path d="M0 0 C2.625 0.375 2.625 0.375 5 1 C5.625 3.375 5.625 3.375 6 6 C5.34 6.66 4.68 7.32 4 8 C1.375 7.625 1.375 7.625 -1 7 C-1.625 4.625 -1.625 4.625 -2 2 C-1.34 1.34 -0.68 0.68 0 0 Z " fill="#6CA942" transform="translate(426,245)"/>
<path d="M0 0 C2.625 0.375 2.625 0.375 5 1 C5.625 3.375 5.625 3.375 6 6 C5.34 6.66 4.68 7.32 4 8 C1.375 7.625 1.375 7.625 -1 7 C-1.625 4.625 -1.625 4.625 -2 2 C-1.34 1.34 -0.68 0.68 0 0 Z " fill="#6CA942" transform="translate(290,237)"/>
<path d="M0 0 C2.625 0.375 2.625 0.375 5 1 C5.625 3.375 5.625 3.375 6 6 C5.34 6.66 4.68 7.32 4 8 C1.375 7.625 1.375 7.625 -1 7 C-1.625 4.625 -1.625 4.625 -2 2 C-1.34 1.34 -0.68 0.68 0 0 Z " fill="#DAE4E2" transform="translate(286,217)"/>
<path d="M0 0 C2.625 0.375 2.625 0.375 5 1 C5.625 3.375 5.625 3.375 6 6 C5.34 6.66 4.68 7.32 4 8 C1.375 7.625 1.375 7.625 -1 7 C-1.625 4.625 -1.625 4.625 -2 2 C-1.34 1.34 -0.68 0.68 0 0 Z " fill="#DAE0DD" transform="translate(330,197)"/>
<path d="M0 0 C2.625 0.375 2.625 0.375 5 1 C5.625 3.375 5.625 3.375 6 6 C5.34 6.66 4.68 7.32 4 8 C1.375 7.625 1.375 7.625 -1 7 C-1.625 4.625 -1.625 4.625 -2 2 C-1.34 1.34 -0.68 0.68 0 0 Z " fill="#D9E3E3" transform="translate(330,176)"/>
<path d="M0 0 C2.625 0.375 2.625 0.375 5 1 C5.625 3.375 5.625 3.375 6 6 C5.34 6.66 4.68 7.32 4 8 C1.375 7.625 1.375 7.625 -1 7 C-1.625 4.625 -1.625 4.625 -2 2 C-1.34 1.34 -0.68 0.68 0 0 Z " fill="#6AAB44" transform="translate(250,174)"/>
<path d="M0 0 C2.625 0.375 2.625 0.375 5 1 C5.625 3.375 5.625 3.375 6 6 C4 8 4 8 1.4375 8.1875 C-1 8 -1 8 -2 7 C-2.1875 4.5625 -2.1875 4.5625 -2 2 C-1.34 1.34 -0.68 0.68 0 0 Z " fill="#6CAC44" transform="translate(205,158)"/>
<path d="M0 0 C0.78375 0.04125 1.5675 0.0825 2.375 0.125 C3 3 3 3 3.375 6.125 C2.715 6.785 2.055 7.445 1.375 8.125 C-1.25 7.75 -1.25 7.75 -3.625 7.125 C-4.25 4.75 -4.25 4.75 -4.625 2.125 C-2.625 0.125 -2.625 0.125 0 0 Z " fill="#D9E0DD" transform="translate(243.625,152.875)"/>
<path d="M0 0 C2.625 0.375 2.625 0.375 5 1 C5.625 3.375 5.625 3.375 6 6 C5.34 6.66 4.68 7.32 4 8 C1.375 7.625 1.375 7.625 -1 7 C-1.625 4.625 -1.625 4.625 -2 2 C-1.34 1.34 -0.68 0.68 0 0 Z " fill="#69A942" transform="translate(198,120)"/>
<path d="M0 0 C2.625 0.375 2.625 0.375 5 1 C5.625 3.375 5.625 3.375 6 6 C5.34 6.66 4.68 7.32 4 8 C1.375 7.625 1.375 7.625 -1 7 C-1.625 4.625 -1.625 4.625 -2 2 C-1.34 1.34 -0.68 0.68 0 0 Z " fill="#6AA942" transform="translate(296,99)"/>
<path d="M0 0 C2.5 0.125 2.5 0.125 3.5 1.125 C3.6875 3.5625 3.6875 3.5625 3.5 6.125 C2.84 6.785 2.18 7.445 1.5 8.125 C-1.43453261 7.75818342 -2.36437246 7.26062754 -4.5 5.125 C-3.7519084 0.18759542 -3.7519084 0.18759542 0 0 Z " fill="#6BAB44" transform="translate(207.5,402.875)"/>
<path d="M0 0 C2.5 0.125 2.5 0.125 3.5 1.125 C3.6875 3.5625 3.6875 3.5625 3.5 6.125 C2.84 6.785 2.18 7.445 1.5 8.125 C-1.43453261 7.75818342 -2.36437246 7.26062754 -4.5 5.125 C-3.7519084 0.18759542 -3.7519084 0.18759542 0 0 Z " fill="#6BAD45" transform="translate(182.5,387.875)"/>
<path d="M0 0 C0.6875 1.8125 0.6875 1.8125 1 4 C-0.1875 5.8125 -0.1875 5.8125 -2 7 C-4.13745922 6.74853421 -5.45925779 6.54074221 -7 5 C-7.04063832 3.33382885 -7.042721 1.66611905 -7 0 C-4.3333581 -1.33332095 -2.83319697 -0.67102033 0 0 Z " fill="#6BAD45" transform="translate(226,372)"/>
<path d="M0 0 C3.53571429 0.53571429 3.53571429 0.53571429 5 2 C5.125 4.5 5.125 4.5 5 7 C4 8 4 8 1.5625 8.1875 C-1 8 -1 8 -3 6 C-2.63318342 3.06546739 -2.13562754 2.13562754 0 0 Z " fill="#DAE4E1" transform="translate(203,349)"/>
<path d="M0 0 C2.625 0.375 2.625 0.375 5 1 C5.625 3.375 5.625 3.375 6 6 C5.34 6.66 4.68 7.32 4 8 C1.375 7.625 1.375 7.625 -1 7 C-1.625 4.625 -1.625 4.625 -2 2 C-1.34 1.34 -0.68 0.68 0 0 Z " fill="#6BA942" transform="translate(231,344)"/>
<path d="M0 0 C2.625 0.375 2.625 0.375 5 1 C5.625 3.375 5.625 3.375 6 6 C5.34 6.66 4.68 7.32 4 8 C1.375 7.625 1.375 7.625 -1 7 C-1.625 4.625 -1.625 4.625 -2 2 C-1.34 1.34 -0.68 0.68 0 0 Z " fill="#6BA942" transform="translate(303,335)"/>
<path d="M0 0 C2.5 0.125 2.5 0.125 3.5 1.125 C3.6875 3.5625 3.6875 3.5625 3.5 6.125 C2.84 6.785 2.18 7.445 1.5 8.125 C-1.43453261 7.75818342 -2.36437246 7.26062754 -4.5 5.125 C-3.7519084 0.18759542 -3.7519084 0.18759542 0 0 Z " fill="#6BAD45" transform="translate(198.5,330.875)"/>
<path d="M0 0 C2.5625 0.1875 2.5625 0.1875 4.5625 2.1875 C4.19568342 5.12203261 3.69812754 6.05187246 1.5625 8.1875 C-1.97321429 7.65178571 -1.97321429 7.65178571 -3.4375 6.1875 C-3.5625 3.6875 -3.5625 3.6875 -3.4375 1.1875 C-2.4375 0.1875 -2.4375 0.1875 0 0 Z " fill="#6BA942" transform="translate(318.4375,306.8125)"/>
<path d="M0 0 C2.93453261 0.36681658 3.86437246 0.86437246 6 3 C5.46428571 6.53571429 5.46428571 6.53571429 4 8 C1.5 8.125 1.5 8.125 -1 8 C-2 7 -2 7 -2.1875 4.5625 C-2 2 -2 2 0 0 Z " fill="#6BAD45" transform="translate(173,277)"/>
<path d="M0 0 C3.53571429 0.53571429 3.53571429 0.53571429 5 2 C5.125 4.5 5.125 4.5 5 7 C4 8 4 8 1.5625 8.1875 C-1 8 -1 8 -3 6 C-2.63318342 3.06546739 -2.13562754 2.13562754 0 0 Z " fill="#D9E0DF" transform="translate(152,271)"/>
<path d="M0 0 C2.5625 0.1875 2.5625 0.1875 4.5625 2.1875 C4.19568342 5.12203261 3.69812754 6.05187246 1.5625 8.1875 C-1.97321429 7.65178571 -1.97321429 7.65178571 -3.4375 6.1875 C-3.5625 3.6875 -3.5625 3.6875 -3.4375 1.1875 C-2.4375 0.1875 -2.4375 0.1875 0 0 Z " fill="#DAE4E1" transform="translate(128.4375,245.8125)"/>
<path d="M0 0 C2.93453261 0.36681658 3.86437246 0.86437246 6 3 C5.46428571 6.53571429 5.46428571 6.53571429 4 8 C1.5 8.125 1.5 8.125 -1 8 C-2 7 -2 7 -2.1875 4.5625 C-2 2 -2 2 0 0 Z " fill="#6BAC44" transform="translate(381,229)"/>
<path d="M0 0 C2.625 0.375 2.625 0.375 5 1 C5.625 3.375 5.625 3.375 6 6 C5.34 6.66 4.68 7.32 4 8 C1.375 7.625 1.375 7.625 -1 7 C-1.625 4.625 -1.625 4.625 -2 2 C-1.34 1.34 -0.68 0.68 0 0 Z " fill="#D8DAE2" transform="translate(178,217)"/>
<path d="M0 0 C2.93453261 0.36681658 3.86437246 0.86437246 6 3 C5.46428571 6.53571429 5.46428571 6.53571429 4 8 C1.5 8.125 1.5 8.125 -1 8 C-2 7 -2 7 -2.1875 4.5625 C-2 2 -2 2 0 0 Z " fill="#6AA244" transform="translate(165,211)"/>
<path d="M0 0 C2.93453261 0.36681658 3.86437246 0.86437246 6 3 C5.46428571 6.53571429 5.46428571 6.53571429 4 8 C1.5 8.125 1.5 8.125 -1 8 C-2 7 -2 7 -2.1875 4.5625 C-2 2 -2 2 0 0 Z " fill="#6BAA43" transform="translate(237,202)"/>
<path d="M0 0 C2.625 0.375 2.625 0.375 5 1 C5.625 3.375 5.625 3.375 6 6 C5.34 6.66 4.68 7.32 4 8 C1.375 7.625 1.375 7.625 -1 7 C-1.625 4.625 -1.625 4.625 -2 2 C-1.34 1.34 -0.68 0.68 0 0 Z " fill="#DAE4E2" transform="translate(185,166)"/>
<path d="M0 0 C2.475 0.99 2.475 0.99 5 2 C5.125 4.375 5.125 4.375 5 7 C4.34 7.66 3.68 8.32 3 9 C0.06546739 8.63318342 -0.86437246 8.13562754 -3 6 C-2.63318342 3.06546739 -2.13562754 2.13562754 0 0 Z " fill="#6AA942" transform="translate(272,290)"/>
<path d="M0 0 C2.5 0.125 2.5 0.125 3.5 1.125 C3.54063832 2.79117115 3.542721 4.45888095 3.5 6.125 C1.85 6.785 0.2 7.445 -1.5 8.125 C-3.0625 6.875 -3.0625 6.875 -4.5 5.125 C-4.08147866 1.5675686 -3.71072057 0.18553603 0 0 Z " fill="#D6E3E3" transform="translate(186.5,176.875)"/>
<path d="M0 0 C0.598125 0.20625 1.19625 0.4125 1.8125 0.625 C2.4375 3 2.4375 3 2.8125 5.625 C0.8125 7.625 0.8125 7.625 -1.8125 7.75 C-2.59625 7.70875 -3.38 7.6675 -4.1875 7.625 C-4.5175 5.645 -4.8475 3.665 -5.1875 1.625 C-2.1875 -0.375 -2.1875 -0.375 0 0 Z " fill="#6AAC45" transform="translate(327.1875,112.375)"/>
<path d="M0 0 C2.625 0.375 2.625 0.375 5 1 C5.04254356 2.99954746 5.04080783 5.00041636 5 7 C4 8 4 8 1.5 8.125 C-1 8 -1 8 -2 7 C-2.1875 4.5625 -2.1875 4.5625 -2 2 C-1.34 1.34 -0.68 0.68 0 0 Z " fill="#D9E4E4" transform="translate(363,278)"/>
<path d="M0 0 C2.00720923 0.28674418 4.0085944 0.61866701 6 1 C6.125 3.375 6.125 3.375 6 6 C5.34 6.66 4.68 7.32 4 8 C1.375 7.625 1.375 7.625 -1 7 C-1.04254356 5.00045254 -1.04080783 2.99958364 -1 1 C-0.67 0.67 -0.34 0.34 0 0 Z " fill="#D9E4E4" transform="translate(271,172)"/>
<path d="M0 0 C2.5625 0.1875 2.5625 0.1875 4.5625 2.1875 C4.02678571 5.72321429 4.02678571 5.72321429 2.5625 7.1875 C0.0625 7.3125 0.0625 7.3125 -2.4375 7.1875 C-3.4375 6.1875 -3.4375 6.1875 -3.5625 3.6875 C-3.39599509 0.35740177 -3.31519894 0.2550153 0 0 Z " fill="#D8E2E4" transform="translate(282.4375,346.8125)"/>
<path d="M0 0 C2.5 0.125 2.5 0.125 3.5 1.125 C3.6875 3.5625 3.6875 3.5625 3.5 6.125 C2.84 6.785 2.18 7.445 1.5 8.125 C-2.03571429 7.58928571 -2.03571429 7.58928571 -3.5 6.125 C-3.625 3.625 -3.625 3.625 -3.5 1.125 C-2.5 0.125 -2.5 0.125 0 0 Z " fill="#67AC45" transform="translate(166.5,345.875)"/>
<path d="M0 0 C2.5625 0.1875 2.5625 0.1875 4.5625 2.1875 C4.02678571 5.72321429 4.02678571 5.72321429 2.5625 7.1875 C0.0625 7.3125 0.0625 7.3125 -2.4375 7.1875 C-3.4375 6.1875 -3.4375 6.1875 -3.5625 3.6875 C-3.39599509 0.35740177 -3.31519894 0.2550153 0 0 Z " fill="#67AA44" transform="translate(134.4375,330.8125)"/>
<path d="M0 0 C2.625 0.375 2.625 0.375 5 1 C5.38218767 2.65614657 5.71395102 4.32457024 6 6 C5 7 5 7 1.9375 7.0625 C0.968125 7.041875 -0.00125 7.02125 -1 7 C-1.625 4.625 -1.625 4.625 -2 2 C-1.34 1.34 -0.68 0.68 0 0 Z " fill="#D8E4E6" transform="translate(178,324)"/>
<path d="M0 0 C3.53571429 0.53571429 3.53571429 0.53571429 5 2 C5.125 4.5 5.125 4.5 5 7 C4 8 4 8 1.5 8.125 C-1 8 -1 8 -2 7 C-2.1875 4.5625 -2.1875 4.5625 -2 2 C-1.34 1.34 -0.68 0.68 0 0 Z " fill="#D8E5E6" transform="translate(288,321)"/>
<path d="M0 0 C2.5625 0.1875 2.5625 0.1875 4.5625 2.1875 C4.02678571 5.72321429 4.02678571 5.72321429 2.5625 7.1875 C0.0625 7.3125 0.0625 7.3125 -2.4375 7.1875 C-3.4375 6.1875 -3.4375 6.1875 -3.5625 3.6875 C-3.39599509 0.35740177 -3.31519894 0.2550153 0 0 Z " fill="#67AC45" transform="translate(206.4375,321.8125)"/>
<path d="M0 0 C2.5625 0.1875 2.5625 0.1875 4.5625 2.1875 C4.02678571 5.72321429 4.02678571 5.72321429 2.5625 7.1875 C0.0625 7.3125 0.0625 7.3125 -2.4375 7.1875 C-3.4375 6.1875 -3.4375 6.1875 -3.5625 3.6875 C-3.39599509 0.35740177 -3.31519894 0.2550153 0 0 Z " fill="#D8E4E5" transform="translate(155.4375,308.8125)"/>
<path d="M0 0 C2.5 0.125 2.5 0.125 3.5 1.125 C3.6875 3.5625 3.6875 3.5625 3.5 6.125 C2.84 6.785 2.18 7.445 1.5 8.125 C-2.03571429 7.58928571 -2.03571429 7.58928571 -3.5 6.125 C-3.625 3.625 -3.625 3.625 -3.5 1.125 C-2.5 0.125 -2.5 0.125 0 0 Z " fill="#66A943" transform="translate(374.5,297.875)"/>
<path d="M0 0 C3.53571429 0.53571429 3.53571429 0.53571429 5 2 C5.125 4.5 5.125 4.5 5 7 C4 8 4 8 1.5 8.125 C-1 8 -1 8 -2 7 C-2.1875 4.5625 -2.1875 4.5625 -2 2 C-1.34 1.34 -0.68 0.68 0 0 Z " fill="#D8E3E6" transform="translate(315,297)"/>
<path d="M0 0 C0 1.98 0 3.96 0 6 C-2.375 6.625 -2.375 6.625 -5 7 C-7 5 -7 5 -7.125 2.375 C-7.08375 1.59125 -7.0425 0.8075 -7 0 C-4.3333581 -1.33332095 -2.83319697 -0.67102033 0 0 Z " fill="#D9E4E6" transform="translate(192,286)"/>
<path d="M0 0 C2.5625 0.1875 2.5625 0.1875 4.5625 2.1875 C4.02678571 5.72321429 4.02678571 5.72321429 2.5625 7.1875 C0.0625 7.3125 0.0625 7.3125 -2.4375 7.1875 C-3.4375 6.1875 -3.4375 6.1875 -3.5625 3.6875 C-3.39599509 0.35740177 -3.31519894 0.2550153 0 0 Z " fill="#67AA44" transform="translate(342.4375,282.8125)"/>
<path d="M0 0 C2.5625 0.1875 2.5625 0.1875 4.5625 2.1875 C4.02678571 5.72321429 4.02678571 5.72321429 2.5625 7.1875 C0.0625 7.3125 0.0625 7.3125 -2.4375 7.1875 C-3.4375 6.1875 -3.4375 6.1875 -3.5625 3.6875 C-3.39599509 0.35740177 -3.31519894 0.2550153 0 0 Z " fill="#67AC45" transform="translate(414.4375,273.8125)"/>
<path d="M0 0 C2.125 0.375 2.125 0.375 4 1 C5.125 5.75 5.125 5.75 4 8 C1.625 8.125 1.625 8.125 -1 8 C-1.66 7.34 -2.32 6.68 -3 6 C-2.63318342 3.06546739 -2.13562754 2.13562754 0 0 Z " fill="#D8E4E6" transform="translate(339,252)"/>
<path d="M0 0 C2.5625 0.1875 2.5625 0.1875 4.5625 2.1875 C4.02678571 5.72321429 4.02678571 5.72321429 2.5625 7.1875 C0.0625 7.3125 0.0625 7.3125 -2.4375 7.1875 C-3.4375 6.1875 -3.4375 6.1875 -3.5625 3.6875 C-3.39599509 0.35740177 -3.31519894 0.2550153 0 0 Z " fill="#D9E4E6" transform="translate(312.4375,242.8125)"/>
<path d="M0 0 C2.5 0.125 2.5 0.125 3.5 1.125 C3.6875 3.5625 3.6875 3.5625 3.5 6.125 C2.84 6.785 2.18 7.445 1.5 8.125 C-2.03571429 7.58928571 -2.03571429 7.58928571 -3.5 6.125 C-3.625 3.625 -3.625 3.625 -3.5 1.125 C-2.5 0.125 -2.5 0.125 0 0 Z " fill="#67A943" transform="translate(198.5,226.875)"/>
<path d="M0 0 C2.375 -0.125 2.375 -0.125 5 0 C5.66 0.66 6.32 1.32 7 2 C6.625 4.625 6.625 4.625 6 7 C4.02 7 2.04 7 0 7 C-1.125 2.25 -1.125 2.25 0 0 Z " fill="#D8E2E5" transform="translate(354,223)"/>
<path d="M0 0 C3.53571429 0.53571429 3.53571429 0.53571429 5 2 C5.125 4.5 5.125 4.5 5 7 C4 8 4 8 1.5 8.125 C-1 8 -1 8 -2 7 C-2.1875 4.5625 -2.1875 4.5625 -2 2 C-1.34 1.34 -0.68 0.68 0 0 Z " fill="#D6E3E6" transform="translate(210,191)"/>
<path d="M0 0 C2.5 0.125 2.5 0.125 3.5 1.125 C3.625 3.625 3.625 3.625 3.5 6.125 C2.5 7.125 2.5 7.125 0.0625 7.3125 C-2.5 7.125 -2.5 7.125 -4.5 5.125 C-3.7519084 0.18759542 -3.7519084 0.18759542 0 0 Z " fill="#D8E3E6" transform="translate(155.5,191.875)"/>
<path d="M0 0 C3.53571429 0.53571429 3.53571429 0.53571429 5 2 C5.125 4.5 5.125 4.5 5 7 C4 8 4 8 1.5 8.125 C-1 8 -1 8 -2 7 C-2.1875 4.5625 -2.1875 4.5625 -2 2 C-1.34 1.34 -0.68 0.68 0 0 Z " fill="#67AC45" transform="translate(180,186)"/>
<path d="M0 0 C1.4540625 0.0309375 1.4540625 0.0309375 2.9375 0.0625 C3.5625 2.4375 3.5625 2.4375 3.9375 5.0625 C1.9375 7.0625 1.9375 7.0625 -0.6875 7.1875 C-1.47125 7.14625 -2.255 7.105 -3.0625 7.0625 C-3.44383299 5.0710944 -3.77575582 3.06970923 -4.0625 1.0625 C-3.0625 0.0625 -3.0625 0.0625 0 0 Z " fill="#67AC45" transform="translate(335.0625,184.9375)"/>
<path d="M0 0 C2.375 -0.125 2.375 -0.125 5 0 C5.66 0.66 6.32 1.32 7 2 C6.625 4.625 6.625 4.625 6 7 C4.02 7 2.04 7 0 7 C-1.125 2.25 -1.125 2.25 0 0 Z " fill="#67AA44" transform="translate(307,170)"/>
<path d="M0 0 C3.53571429 0.53571429 3.53571429 0.53571429 5 2 C5.125 4.5 5.125 4.5 5 7 C4 8 4 8 1.5 8.125 C-1 8 -1 8 -2 7 C-2.1875 4.5625 -2.1875 4.5625 -2 2 C-1.34 1.34 -0.68 0.68 0 0 Z " fill="#66A943" transform="translate(223,160)"/>
<path d="M0 0 C2.5 0.125 2.5 0.125 3.5 1.125 C3.625 3.625 3.625 3.625 3.5 6.125 C2.5 7.125 2.5 7.125 0.0625 7.3125 C-2.5 7.125 -2.5 7.125 -4.5 5.125 C-3.7519084 0.18759542 -3.7519084 0.18759542 0 0 Z " fill="#67AC45" transform="translate(350.5,152.875)"/>
<path d="M0 0 C3.53571429 0.53571429 3.53571429 0.53571429 5 2 C5.125 4.5 5.125 4.5 5 7 C4 8 4 8 1.5 8.125 C-1 8 -1 8 -2 7 C-2.1875 4.5625 -2.1875 4.5625 -2 2 C-1.34 1.34 -0.68 0.68 0 0 Z " fill="#D9E4E6" transform="translate(306,150)"/>
<path d="M0 0 C2.5 0.125 2.5 0.125 3.5 1.125 C3.6875 3.5625 3.6875 3.5625 3.5 6.125 C2.84 6.785 2.18 7.445 1.5 8.125 C-2.03571429 7.58928571 -2.03571429 7.58928571 -3.5 6.125 C-3.625 3.625 -3.625 3.625 -3.5 1.125 C-2.5 0.125 -2.5 0.125 0 0 Z " fill="#D8E3E6" transform="translate(161.5,150.875)"/>
<path d="M0 0 C3.53571429 0.53571429 3.53571429 0.53571429 5 2 C5.125 4.5 5.125 4.5 5 7 C4 8 4 8 1.5 8.125 C-1 8 -1 8 -2 7 C-2.1875 4.5625 -2.1875 4.5625 -2 2 C-1.34 1.34 -0.68 0.68 0 0 Z " fill="#D8E0E5" transform="translate(263,148)"/>
<path d="M0 0 C2.5625 0.1875 2.5625 0.1875 4.5625 2.1875 C4.02678571 5.72321429 4.02678571 5.72321429 2.5625 7.1875 C0.0625 7.3125 0.0625 7.3125 -2.4375 7.1875 C-3.4375 6.1875 -3.4375 6.1875 -3.5625 3.6875 C-3.39599509 0.35740177 -3.31519894 0.2550153 0 0 Z " fill="#66A545" transform="translate(281.4375,144.8125)"/>
<path d="M0 0 C1.67542976 0.28604898 3.34385343 0.61781233 5 1 C5 2.98 5 4.96 5 7 C2.625 7.625 2.625 7.625 0 8 C-0.66 7.34 -1.32 6.68 -2 6 C-1.44444444 1.44444444 -1.44444444 1.44444444 0 0 Z " fill="#D8E4E7" transform="translate(217,127)"/>
<path d="M0 0 C2.625 0.375 2.625 0.375 5 1 C5.38218767 2.65614657 5.71395102 4.32457024 6 6 C5 7 5 7 1.9375 7.0625 C0.968125 7.041875 -0.00125 7.02125 -1 7 C-1.625 4.625 -1.625 4.625 -2 2 C-1.34 1.34 -0.68 0.68 0 0 Z " fill="#66A943" transform="translate(170,107)"/>
<path d="M0 0 C2.625 0.375 2.625 0.375 5 1 C6.125 4.75 6.125 4.75 5 7 C3.02 7 1.04 7 -1 7 C-1.625 4.625 -1.625 4.625 -2 2 C-1.34 1.34 -0.68 0.68 0 0 Z " fill="#D8E1E7" transform="translate(296,198)"/>
<path d="M0 0 C2.625 0.375 2.625 0.375 5 1 C6.125 4.75 6.125 4.75 5 7 C3.02 7 1.04 7 -1 7 C-1.625 4.625 -1.625 4.625 -2 2 C-1.34 1.34 -0.68 0.68 0 0 Z " fill="#D8E3E8" transform="translate(238,123)"/>
<path d="M0 0 C2.5 0.125 2.5 0.125 3.5 1.125 C3.625 3.625 3.625 3.625 3.5 6.125 C2.5 7.125 2.5 7.125 0 7.25 C-2.5 7.125 -2.5 7.125 -3.5 6.125 C-3.625 3.625 -3.625 3.625 -3.5 1.125 C-2.5 0.125 -2.5 0.125 0 0 Z " fill="#D7E5EB" transform="translate(330.5,326.875)"/>
<path d="M0 0 C2.5 0.125 2.5 0.125 3.5 1.125 C3.625 3.625 3.625 3.625 3.5 6.125 C2.5 7.125 2.5 7.125 0 7.25 C-2.5 7.125 -2.5 7.125 -3.5 6.125 C-3.625 3.625 -3.625 3.625 -3.5 1.125 C-2.5 0.125 -2.5 0.125 0 0 Z " fill="#62A944" transform="translate(357.5,257.875)"/>
<path d="M0 0 C1.32 0 2.64 0 4 0 C4.33 2.31 4.66 4.62 5 7 C2.625 7.625 2.625 7.625 0 8 C-0.66 7.34 -1.32 6.68 -2 6 C-1.44444444 1.44444444 -1.44444444 1.44444444 0 0 Z " fill="#6CAE4B" transform="translate(154,152)"/>
<path d="M0 0 C1.2065625 0.0309375 1.2065625 0.0309375 2.4375 0.0625 C3.37173645 3.07281744 3.48199911 3.92900268 2.4375 7.0625 C0.77138095 7.105221 -0.89632885 7.10313832 -2.5625 7.0625 C-3.5625 6.0625 -3.5625 6.0625 -3.6875 3.5625 C-3.51717518 0.15600356 -3.41884482 0.08338646 0 0 Z " fill="#64A948" transform="translate(149.5625,305.9375)"/>
<path d="M0 0 C1.32 0 2.64 0 4 0 C5.125 4.75 5.125 4.75 4 7 C2.02 7 0.04 7 -2 7 C-1.34 4.69 -0.68 2.38 0 0 Z " fill="#D5E1E3" transform="translate(264,296)"/>
<path d="M0 0 C2.64 0 5.28 0 8 0 C7.67 1.32 7.34 2.64 7 4 C4.625 4.625 4.625 4.625 2 5 C1.34 4.34 0.68 3.68 0 3 C0 2.01 0 1.02 0 0 Z " fill="#62AA45" transform="translate(216,296)"/>
<path d="M0 0 C-0.33 0.66 -0.66 1.32 -1 2 C-6.33354906 3.11115605 -11.56912592 3.11083416 -17 3 C-17 2.67 -17 2.34 -17 2 C-14.73139163 1.4695592 -12.46001511 0.95094566 -10.1875 0.4375 C-8.29064453 0.00244141 -8.29064453 0.00244141 -6.35546875 -0.44140625 C-3 -1 -3 -1 0 0 Z " fill="#BCCCCA" transform="translate(282,445)"/>
<path d="M0 0 C0.33 0 0.66 0 1 0 C1.10251672 5.12583611 1.03590199 9.94997778 0 15 C-0.99 15 -1.98 15 -3 15 C-2 10 -1 5 0 0 Z " fill="#B2C6C6" transform="translate(446,270)"/>
<path d="M0 0 C-5.445 2.475 -5.445 2.475 -11 5 C-11.33 4.34 -11.66 3.68 -12 3 C-12.66 2.67 -13.32 2.34 -14 2 C-12.04396149 1.47061343 -10.08507711 0.95173199 -8.125 0.4375 C-7.03445313 0.14746094 -5.94390625 -0.14257812 -4.8203125 -0.44140625 C-2 -1 -2 -1 0 0 Z " fill="#B7C8C5" transform="translate(340,429)"/>
<path d="M0 0 C0.33 0.66 0.66 1.32 1 2 C1.66 2.33 2.32 2.66 3 3 C1.35 6.63 -0.3 10.26 -2 14 C-3.49341969 11.01316063 -2.40648676 9.04839022 -1.5625 5.875 C-1.27503906 4.77929688 -0.98757813 3.68359375 -0.69140625 2.5546875 C-0.46324219 1.71164062 -0.23507812 0.86859375 0 0 Z " fill="#B7C8C5" transform="translate(431,326)"/>
<path d="M0 0 C0.66 0.33 1.32 0.66 2 1 C1.79375 1.598125 1.5875 2.19625 1.375 2.8125 C0.69328085 5.28450846 0.69328085 5.28450846 3 8 C1.35 7.67 -0.3 7.34 -2 7 C-2.6875 5.1875 -2.6875 5.1875 -3 3 C-1.5625 1.25 -1.5625 1.25 0 0 Z " fill="#77AF51" transform="translate(336,253)"/>
<path d="M0 0 C0.66 0.33 1.32 0.66 2 1 C1.95875 1.78375 1.9175 2.5675 1.875 3.375 C1.71271266 6.16116119 1.71271266 6.16116119 4 8 C2.35 7.67 0.7 7.34 -1 7 C-1.625 4.625 -1.625 4.625 -2 2 C-1.34 1.34 -0.68 0.68 0 0 Z " fill="#7AAC49" transform="translate(207,192)"/>
<path d="M0 0 C0.33 0 0.66 0 1 0 C1.99 4.62 2.98 9.24 4 14 C1.26430498 12.63215249 0.66368786 10.66237461 -0.46875 7.921875 C-1.25126587 5.09100878 -0.74933629 2.79298073 0 0 Z " fill="#B8C8C2" transform="translate(80,326)"/>
<path d="M0 0 C3.10819813 0.93968781 5.82843953 2.2832351 8.6875 3.8125 C5.70066063 5.30591969 3.73589022 4.21898676 0.5625 3.375 C-0.53320312 3.08753906 -1.62890625 2.80007812 -2.7578125 2.50390625 C-3.60085938 2.27574219 -4.44390625 2.04757813 -5.3125 1.8125 C-2.3125 -0.1875 -2.3125 -0.1875 0 0 Z " fill="#B8C8C2" transform="translate(331.3125,79.1875)"/>
<path d="M0 0 C1.32 0.33 2.64 0.66 4 1 C4.33 2.65 4.66 4.3 5 6 C4.01 6.33 3.02 6.66 2 7 C1.34 4.69 0.68 2.38 0 0 Z " fill="#6EA443" transform="translate(264,359)"/>
<path d="M0 0 C0.66 0.33 1.32 0.66 2 1 C1.79375 1.598125 1.5875 2.19625 1.375 2.8125 C0.69328085 5.28450846 0.69328085 5.28450846 3 8 C1.68 7.67 0.36 7.34 -1 7 C-1.625 4.625 -1.625 4.625 -2 2 C-1.34 1.34 -0.68 0.68 0 0 Z " fill="#7FB252" transform="translate(182,177)"/>
<path d="M0 0 C0.99 0.33 1.98 0.66 3 1 C3 1.66 3 2.32 3 3 C-1.455 3.495 -1.455 3.495 -6 4 C-4.03617993 2.49440461 -2.21736634 1.10868317 0 0 Z " fill="#B2C8CE" transform="translate(182,78)"/>
</svg>
