<?xml version="1.0" encoding="UTF-8"?>
<svg version="1.1" xmlns="http://www.w3.org/2000/svg" width="512" height="512">
<path d="M0 0 C3.22002303 2.49359701 4.65310784 5.54729899 5.80078125 9.39453125 C6.60315865 16.04280113 4.4106744 19.97969153 0.80078125 25.39453125 C2.01765625 25.60078125 3.23453125 25.80703125 4.48828125 26.01953125 C9.33275641 27.20488155 11.01872584 29.3479052 13.80078125 33.39453125 C15.77527794 37.34352462 15.23848623 42.09043229 14.80078125 46.39453125 C12.63822111 50.87984117 10.33729426 53.34229917 5.80078125 55.39453125 C0.34992973 57.1288931 -4.19613902 55.87740291 -9.19921875 53.39453125 C-10.04484375 52.48703125 -10.89046875 51.57953125 -11.76171875 50.64453125 C-14.07239389 47.97990521 -14.07239389 47.97990521 -17.671875 48.53125 C-23.00001005 49.37014528 -28.00115075 51.17297878 -33.07421875 52.95703125 C-34.94573005 53.6067203 -36.81808589 54.25398327 -38.69140625 54.8984375 C-39.5097998 55.18533447 -40.32819336 55.47223145 -41.17138672 55.76782227 C-43.19921875 56.39453125 -43.19921875 56.39453125 -45.19921875 56.39453125 C-45.17601562 57.15636719 -45.1528125 57.91820312 -45.12890625 58.703125 C-45.01357037 65.30198519 -45.49857742 71.01712627 -47.19921875 77.39453125 C-46.59335937 77.54148437 -45.9875 77.6884375 -45.36328125 77.83984375 C-34.81646875 80.66314433 -26.13300557 85.86726547 -19.19921875 94.39453125 C-18.94946289 95.05976807 -18.69970703 95.72500488 -18.44238281 96.41040039 C-17.31052877 99.07356899 -16.43922053 100.52988989 -14.19921875 102.39453125 C-9.39229741 103.36102745 -4.773276 103.33643317 0.11230469 103.1628418 C2.42643804 103.08200831 4.73536426 103.06037573 7.05078125 103.04882812 C8.52219384 103.02557802 9.99355841 102.99899974 11.46484375 102.96875 C12.50084213 102.95433113 12.50084213 102.95433113 13.55776978 102.93962097 C16.37421933 102.82774041 18.33229695 102.73859576 20.64208984 101.04223633 C21.69627696 99.54314049 22.68975164 98.00181098 23.67578125 96.45703125 C26.47669545 92.42041962 29.12183945 89.95417852 33.80078125 88.39453125 C39.06605706 87.99715194 42.30759671 88.59877198 46.80078125 91.39453125 C50.18792809 94.32395554 51.60396602 96.33926396 52.0390625 100.8828125 C52.1978746 106.92603091 52.02736204 110.68491265 47.80078125 115.39453125 C46.31578125 116.38453125 46.31578125 116.38453125 44.80078125 117.39453125 C45.57394085 120.55948872 45.57394085 120.55948872 48.23828125 122.51953125 C51.57247929 126.26033881 52.60118525 129.41294777 52.80078125 134.39453125 C52.07375527 139.01279855 50.3195847 142.26187524 46.80078125 145.33203125 C42.33609201 148.4015051 39.1584112 148.83368125 33.80078125 148.39453125 C29.67506105 147.23588497 26.72619388 145.73123839 24.25390625 142.16015625 C23.39334866 140.57065576 22.57486724 138.95735133 21.80859375 137.3203125 C20.9519949 135.22634265 20.9519949 135.22634265 18.80078125 134.39453125 C16.55103964 134.23957362 14.29706589 134.14442197 12.04296875 134.078125 C11.3799173 134.0573439 10.71686584 134.03656281 10.03372192 134.01515198 C7.91451431 133.94973894 5.79518225 133.8908102 3.67578125 133.83203125 C2.23957044 133.78883816 0.80337223 133.74522361 -0.6328125 133.70117188 C-4.15481469 133.59406626 -7.676957 133.4927755 -11.19921875 133.39453125 C-11.31821533 133.99128662 -11.43721191 134.58804199 -11.55981445 135.20288086 C-14.16583114 147.67860039 -20.90355399 156.89448013 -31.5 163.97265625 C-34.08411323 165.33389679 -36.65383535 166.40977905 -39.36791992 167.48339844 C-40.27168869 167.84181824 -41.17545746 168.20023804 -42.10661316 168.56951904 C-42.797173 168.84177307 -43.48773285 169.1140271 -44.19921875 169.39453125 C-43.00984711 169.39817688 -41.82047546 169.40182251 -40.59506226 169.40557861 C-29.38306514 169.44252944 -18.17134266 169.50030333 -6.95955467 169.57843399 C-1.1955184 169.61793294 4.56836455 169.6501097 10.33251953 169.66552734 C15.89589775 169.68067778 21.4588545 169.71509521 27.02204514 169.76284027 C29.14385692 169.77767062 31.26572887 169.78557321 33.38759232 169.7864151 C36.36122759 169.78878147 39.33369501 169.81583535 42.30712891 169.84863281 C43.62127777 169.84108727 43.62127777 169.84108727 44.9619751 169.83338928 C50.39205416 169.92597144 53.48337048 170.80209483 57.80078125 174.39453125 C61.21005471 178.07295788 62.09968265 180.93863203 62.30078125 185.83203125 C62.06643686 191.22195222 61.22685695 194.19758852 57.80078125 198.39453125 C53.96716228 201.16796798 50.72420495 202.34911697 45.98828125 202.58203125 C39.64157632 203.11819689 35.2274736 208.24653256 30.80078125 212.39453125 C30.07503906 213.05453125 29.34929687 213.71453125 28.6015625 214.39453125 C23.35321027 219.67381679 20.75488066 225.57337922 17.80664062 232.28149414 C14.80577036 238.88385089 11.23490677 243.2717606 4.59814817 246.44900858 C1.28249013 247.56971599 -1.41374003 247.64763702 -4.91412067 247.65180016 C-5.57933561 247.65530623 -6.24455054 247.6588123 -6.9299235 247.66242462 C-9.16286368 247.67174145 -11.39554322 247.66681466 -13.62849426 247.66195679 C-15.2440319 247.66569291 -16.85956774 247.67029428 -18.4751007 247.67568743 C-22.91779666 247.68793757 -27.36041744 247.6876546 -31.80312645 247.68529868 C-36.5932959 247.68489102 -41.38344107 247.69592478 -46.17359924 247.70541382 C-55.55968642 247.7220358 -64.94574848 247.72752391 -74.33184914 247.72863857 C-81.96038422 247.72958848 -89.58891101 247.73369587 -97.21744347 247.74003983 C-118.83969276 247.75765546 -140.4619222 247.76687819 -162.08417872 247.76537888 C-163.83313892 247.76525901 -163.83313892 247.76525901 -165.61743164 247.76513672 C-167.36852414 247.76501408 -167.36852414 247.76501408 -169.15499225 247.76488896 C-188.07682699 247.76407595 -206.99858214 247.78321641 -225.92039386 247.81141345 C-245.34324961 247.84012905 -264.76606652 247.85395448 -284.18894404 247.8522259 C-295.09579782 247.85156154 -306.00256817 247.85707384 -316.90940285 247.878582 C-326.19541624 247.89677637 -335.48130839 247.90115548 -344.76733188 247.88756315 C-349.50554107 247.88102471 -354.24351753 247.8809479 -358.98170471 247.89826965 C-363.3200747 247.91396671 -367.65802678 247.91117131 -371.99638637 247.89370139 C-373.56501137 247.89062406 -375.13366729 247.89429148 -376.70225582 247.90542154 C-386.38857324 247.96959433 -393.90568546 247.74714029 -401.19921875 240.64453125 C-404.17572784 236.92591149 -406.08301583 232.72391486 -408.13671875 228.45703125 C-411.1313594 222.25429991 -414.07458251 217.11164175 -419.19921875 212.39453125 C-420.02292969 211.60175781 -420.84664063 210.80898438 -421.6953125 209.9921875 C-427.25801668 204.99758928 -431.38965041 202.57261684 -438.8203125 201.6953125 C-441.97940841 201.29588658 -443.80451676 200.49896633 -446.19921875 198.39453125 C-450.0845778 193.35406546 -450.84245505 189.31744795 -450.58203125 182.98046875 C-449.85293551 178.05535265 -447.42061937 175.52721527 -443.88671875 172.25 C-438.87109648 168.99038253 -432.55449861 169.98311492 -426.82421875 170.14453125 C-425.61121094 170.16257812 -424.39820313 170.180625 -423.1484375 170.19921875 C-420.16455085 170.24620909 -417.18229596 170.31189753 -414.19921875 170.39453125 C-414.26923096 169.65920166 -414.33924316 168.92387207 -414.41137695 168.16625977 C-414.50249756 167.19100342 -414.59361816 166.21574707 -414.6875 165.2109375 C-414.77813721 164.24873291 -414.86877441 163.28652832 -414.9621582 162.29516602 C-417.65455424 129.35144068 -406.25982566 95.64047339 -385.19921875 70.39453125 C-381.31640911 65.95143727 -377.30120214 61.63543165 -373.19921875 57.39453125 C-372.65104492 56.82154297 -372.10287109 56.24855469 -371.53808594 55.65820312 C-367.52533001 51.53943285 -363.31881891 47.93889884 -358.69921875 44.51953125 C-358.00562256 44.00487305 -357.31202637 43.49021484 -356.59741211 42.95996094 C-312.77369872 10.92365815 -258.06451371 1.50168603 -205.0078125 9.1015625 C-186.13038304 12.13221722 -167.03515599 18.1358697 -150.21484375 27.27734375 C-144.03263324 29.56764453 -137.59228586 26.7185503 -131.59765625 24.70703125 C-130.79816559 24.44446533 -129.99867493 24.18189941 -129.17495728 23.91137695 C-126.63952521 23.0779256 -124.10674191 22.23677609 -121.57421875 21.39453125 C-119.03423175 20.55332918 -116.49370546 19.71385429 -113.95205688 18.87768555 C-112.37612047 18.35888036 -110.80117554 17.83705071 -109.22738647 17.31176758 C-95.6055359 12.81517129 -82.89464511 13.55764946 -69.82421875 19.76953125 C-66.80389705 21.33971439 -64.52896005 22.92668178 -62.13671875 25.33203125 C-59.24622534 27.8701335 -59.24622534 27.8701335 -55.26171875 26.76953125 C-49.49543899 25.30768217 -43.87862082 23.40560644 -38.26171875 21.45703125 C-37.22208984 21.10962891 -36.18246094 20.76222656 -35.11132812 20.40429688 C-34.12068359 20.06205078 -33.13003906 19.71980469 -32.109375 19.3671875 C-30.76564819 18.90711304 -30.76564819 18.90711304 -29.39477539 18.43774414 C-26.88117456 17.4737255 -26.88117456 17.4737255 -25.19921875 14.39453125 C-24.88103107 12.96676602 -24.61383402 11.52708336 -24.38671875 10.08203125 C-23.37297841 5.21924554 -21.79414131 2.82224811 -18.19921875 -0.60546875 C-12.17643612 -4.09234291 -5.90108242 -3.24273073 0 0 Z " fill="#FE955B" transform="translate(450.19921875,224.60546875)"/>
<path d="M0 0 C1.76181358 -0.00956978 1.76181358 -0.00956978 3.55921936 -0.01933289 C4.82801437 -0.02044571 6.09680939 -0.02155853 7.40405273 -0.02270508 C8.7046312 -0.02603348 10.00520966 -0.02936188 11.34519958 -0.03279114 C14.0965152 -0.03877557 16.84779943 -0.04063163 19.59912109 -0.04003906 C23.12895862 -0.03993723 26.65859597 -0.05361437 30.18838596 -0.07081127 C33.55194491 -0.08458044 36.91546592 -0.08401914 40.27905273 -0.08520508 C42.1852816 -0.09598335 42.1852816 -0.09598335 44.13002014 -0.10697937 C45.30141037 -0.10390274 46.4728006 -0.10082611 47.6796875 -0.09765625 C48.71432632 -0.09908127 49.74896515 -0.10050629 50.81495667 -0.10197449 C53.27514648 0.14526367 53.27514648 0.14526367 55.27514648 2.14526367 C53.77775065 3.31713867 52.28035482 4.48901367 50.78295898 5.66088867 C48.35955717 8.04662103 47.39615583 10.17876047 46.97436523 13.54760742 C46.95075488 18.65531441 47.10250661 21.91507717 50.27514648 26.14526367 C50.27514648 26.80526367 50.27514648 27.46526367 50.27514648 28.14526367 C51.92514648 28.80526367 53.57514648 29.46526367 55.27514648 30.14526367 C55.27514648 30.80526367 55.27514648 31.46526367 55.27514648 32.14526367 C56.0303853 32.14374479 56.78562412 32.14222591 57.56374896 32.140661 C102.30581447 32.05118688 147.04787026 31.98253676 191.79000727 31.94100235 C197.15989107 31.93599941 202.52977468 31.93082213 207.8996582 31.92553711 C209.50325754 31.92396325 209.50325754 31.92396325 211.13925283 31.92235759 C228.45905196 31.90494303 245.7787981 31.87339955 263.09856577 31.83665249 C280.8646464 31.79927231 298.63069923 31.77703401 316.39681756 31.76890969 C327.36321551 31.76341585 338.32946366 31.74605182 349.29581551 31.7135978 C356.81153488 31.69248601 364.32717659 31.68605606 371.84292348 31.69125816 C376.18189053 31.69382514 380.52059546 31.68983597 384.85951614 31.66844177 C388.83097726 31.64900211 392.80199954 31.64797662 396.7734807 31.66166809 C398.21100264 31.66336069 399.64855177 31.65826434 401.08602007 31.64573094 C414.39839901 31.53639843 414.39839901 31.53639843 419.27514648 36.14526367 C422.68441995 39.8236903 423.57404789 42.68936445 423.77514648 47.58276367 C423.54080209 52.97268465 422.70122218 55.94832094 419.27514648 60.14526367 C415.44152751 62.9187004 412.19857018 64.09984939 407.46264648 64.33276367 C401.11594156 64.86892931 396.70183884 69.99726498 392.27514648 74.14526367 C391.5494043 74.80526367 390.82366211 75.46526367 390.07592773 76.14526367 C384.8275755 81.42454922 382.2292459 87.32411164 379.28100586 94.03222656 C376.2801356 100.63458332 372.709272 105.02249302 366.0725134 108.19974101 C362.75685537 109.32044841 360.0606252 109.39836945 356.56024456 109.40253258 C355.89502963 109.40603865 355.22981469 109.40954473 354.54444173 109.41315705 C352.31150155 109.42247387 350.07882202 109.41754708 347.84587097 109.41268921 C346.23033333 109.41642533 344.6147975 109.4210267 342.99926454 109.42641985 C338.55656857 109.43866999 334.11394779 109.43838702 329.67123878 109.4360311 C324.88106934 109.43562345 320.09092416 109.4466572 315.30076599 109.45614624 C305.91467882 109.47276823 296.52861676 109.47825633 287.1425161 109.479371 C279.51398101 109.4803209 271.88545423 109.48442829 264.25692177 109.49077225 C242.63467247 109.50838789 221.01244304 109.51761061 199.39018651 109.5161113 C197.64122632 109.51599143 197.64122632 109.51599143 195.85693359 109.51586914 C194.10584109 109.5157465 194.10584109 109.5157465 192.31937299 109.51562138 C173.39753825 109.51480838 154.47578309 109.53394883 135.55397137 109.56214587 C116.13111563 109.59086148 96.70829871 109.6046869 77.28542119 109.60295832 C66.37856741 109.60229396 55.47179706 109.60780626 44.56496239 109.62931442 C35.27894899 109.64750879 25.99305684 109.6518879 16.70703336 109.63829558 C11.96882417 109.63175714 7.2308477 109.63168032 2.49266052 109.64900208 C-1.84570947 109.66469913 -6.18366155 109.66190374 -10.52202114 109.64443381 C-12.09064613 109.64135648 -13.65930206 109.6450239 -15.22789059 109.65615396 C-24.91420801 109.72032675 -32.43132023 109.49787271 -39.72485352 102.39526367 C-42.7013626 98.67664392 -44.60865059 94.47464728 -46.66235352 90.20776367 C-49.65699417 84.00503233 -52.60021727 78.86237417 -57.72485352 74.14526367 C-58.96041992 72.95610352 -58.96041992 72.95610352 -60.22094727 71.74291992 C-65.78365144 66.7483217 -69.91528518 64.32334926 -77.34594727 63.44604492 C-80.50504318 63.046619 -82.33015153 62.24969875 -84.72485352 60.14526367 C-88.61021256 55.10479788 -89.36808982 51.06818037 -89.10766602 44.73120117 C-88.35694521 39.6600055 -85.9349022 37.09658291 -82.02059937 34.01922607 C-78.21576159 31.8557938 -75.96670908 31.63076443 -71.61791992 31.59936523 C-70.93429382 31.58902756 -70.25066772 31.57868988 -69.54632568 31.56803894 C-67.30611156 31.5387441 -65.06680613 31.53711471 -62.82641602 31.53588867 C-61.26555675 31.52089788 -59.7047133 31.50416884 -58.14389038 31.48577881 C-54.05042774 31.4421934 -49.95717905 31.42212597 -45.86352539 31.40704346 C-41.68045446 31.38744039 -37.49761351 31.34547406 -33.31469727 31.30541992 C-25.11814301 31.23021339 -16.9216793 31.17986436 -8.72485352 31.14526367 C-9.52173584 30.68587402 -10.31861816 30.22648437 -11.13964844 29.75317383 C-15.02037919 27.3394905 -16.33821031 24.41642137 -17.72485352 20.14526367 C-18.51981187 15.39157333 -18.23747089 12.15151258 -16.03735352 7.83276367 C-11.14721094 2.149625 -7.46229961 0.02747135 0 0 Z " fill="#D4E9F4" transform="translate(88.724853515625,362.854736328125)"/>
<path d="M0 0 C48.63872035 -0.09154467 97.277432 -0.16203322 145.91622156 -0.20426132 C151.65777089 -0.20926418 157.39932006 -0.21444146 163.14086914 -0.21972656 C164.85543614 -0.22130043 164.85543614 -0.22130043 166.60464085 -0.22290608 C185.11548564 -0.24031387 203.62628077 -0.27185364 222.1370961 -0.30861118 C241.12925487 -0.34601016 260.12138763 -0.36823365 279.11358172 -0.37635398 C290.83388422 -0.3818439 302.55404635 -0.3991868 314.27430565 -0.43166587 C322.3100586 -0.45280085 330.34573891 -0.45920233 338.38151764 -0.45400551 C343.01856406 -0.45144217 347.65536509 -0.45538661 352.29236794 -0.4768219 C356.53968979 -0.49631235 360.78660164 -0.49725389 365.03394253 -0.48359558 C366.56842109 -0.48190795 368.10292542 -0.48696111 369.63735341 -0.49953273 C378.52535947 -0.56810347 386.87772369 -0.5985661 393.83326191 5.6458261 C398.16432344 10.15228274 401.01616265 15.33107834 400.98828125 21.66015625 C400.41732112 28.16535777 400.41732112 28.16535777 399 31 C351.36341086 31.09153551 303.72683101 31.16202856 256.09017128 31.20426132 C250.46750336 31.2092642 244.84483562 31.21444149 239.22216797 31.21972656 C238.10278591 31.2207758 236.98340386 31.22182505 235.83010113 31.22290608 C217.70010529 31.24031604 199.57016013 31.27185701 181.44019437 31.30861118 C162.84015479 31.34600412 144.24014177 31.36823237 125.64006615 31.37635398 C114.16082879 31.38184516 102.68173468 31.39919486 91.20254141 31.43166587 C83.33312476 31.45279339 75.46378227 31.45920403 67.59433931 31.45400551 C63.05260233 31.451441 58.51111585 31.45539984 53.96942329 31.4768219 C49.81035443 31.496296 45.65170438 31.49726453 41.49261618 31.48359558 C39.98911062 31.48190635 38.48557886 31.48697343 36.98212481 31.49953273 C27.47762155 31.57430444 20.14738724 31.22310727 13 24.25 C8.63956754 18.775501 5.84658707 12.10357963 2.86621094 5.81176758 C1.93420476 3.86238263 0.96831885 1.93156085 0 0 Z " fill="#E4F1FB" transform="translate(36,441)"/>
<path d="M0 0 C1.76181358 -0.00956978 1.76181358 -0.00956978 3.55921936 -0.01933289 C4.82801437 -0.02044571 6.09680939 -0.02155853 7.40405273 -0.02270508 C8.7046312 -0.02603348 10.00520966 -0.02936188 11.34519958 -0.03279114 C14.0965152 -0.03877557 16.84779943 -0.04063163 19.59912109 -0.04003906 C23.12895862 -0.03993723 26.65859597 -0.05361437 30.18838596 -0.07081127 C33.55194491 -0.08458044 36.91546592 -0.08401914 40.27905273 -0.08520508 C42.1852816 -0.09598335 42.1852816 -0.09598335 44.13002014 -0.10697937 C45.30141037 -0.10390274 46.4728006 -0.10082611 47.6796875 -0.09765625 C48.71432632 -0.09908127 49.74896515 -0.10050629 50.81495667 -0.10197449 C53.27514648 0.14526367 53.27514648 0.14526367 55.27514648 2.14526367 C53.77775065 3.31713867 52.28035482 4.48901367 50.78295898 5.66088867 C48.35955717 8.04662103 47.39615583 10.17876047 46.97436523 13.54760742 C46.95075488 18.65531441 47.10250661 21.91507717 50.27514648 26.14526367 C50.27514648 26.80526367 50.27514648 27.46526367 50.27514648 28.14526367 C51.92514648 28.80526367 53.57514648 29.46526367 55.27514648 30.14526367 C55.27514648 30.80526367 55.27514648 31.46526367 55.27514648 32.14526367 C56.0303853 32.14374479 56.78562412 32.14222591 57.56374896 32.140661 C102.30581447 32.05118688 147.04787026 31.98253676 191.79000727 31.94100235 C197.15989107 31.93599941 202.52977468 31.93082213 207.8996582 31.92553711 C209.50325754 31.92396325 209.50325754 31.92396325 211.13925283 31.92235759 C228.45905196 31.90494303 245.7787981 31.87339955 263.09856577 31.83665249 C280.8646464 31.79927231 298.63069923 31.77703401 316.39681756 31.76890969 C327.36321551 31.76341585 338.32946366 31.74605182 349.29581551 31.7135978 C356.81153488 31.69248601 364.32717659 31.68605606 371.84292348 31.69125816 C376.18189053 31.69382514 380.52059546 31.68983597 384.85951614 31.66844177 C388.83097726 31.64900211 392.80199954 31.64797662 396.7734807 31.66166809 C398.21100264 31.66336069 399.64855177 31.65826434 401.08602007 31.64573094 C414.44233031 31.53603763 414.44233031 31.53603763 419.27514648 36.14526367 C423.0521137 40.71738188 423.27514648 41.89924948 423.27514648 48.14526367 C254.31514648 48.14526367 85.35514648 48.14526367 -88.72485352 48.14526367 C-88.72485352 41.89924948 -88.50182073 40.71738188 -84.72485352 36.14526367 C-80.25388656 32.597976 -77.29596917 31.64036198 -71.61791992 31.59936523 C-70.93429382 31.58902756 -70.25066772 31.57868988 -69.54632568 31.56803894 C-67.30611156 31.5387441 -65.06680613 31.53711471 -62.82641602 31.53588867 C-61.26555675 31.52089788 -59.7047133 31.50416884 -58.14389038 31.48577881 C-54.05042774 31.4421934 -49.95717905 31.42212597 -45.86352539 31.40704346 C-41.68045446 31.38744039 -37.49761351 31.34547406 -33.31469727 31.30541992 C-25.11814301 31.23021339 -16.9216793 31.17986436 -8.72485352 31.14526367 C-9.52173584 30.68587402 -10.31861816 30.22648437 -11.13964844 29.75317383 C-15.02037919 27.3394905 -16.33821031 24.41642137 -17.72485352 20.14526367 C-18.51981187 15.39157333 -18.23747089 12.15151258 -16.03735352 7.83276367 C-11.14721094 2.149625 -7.46229961 0.02747135 0 0 Z " fill="#E4F1FB" transform="translate(88.724853515625,362.854736328125)"/>
<path d="M0 0 C168.96 0 337.92 0 512 0 C511 8 511 8 508.8125 10.8125 C503.2181851 15.16363381 498.67494681 16.44208593 491.66278267 16.38031673 C490.83433002 16.38497665 490.00587736 16.38963657 489.15232009 16.3944377 C486.37003229 16.40640995 483.5882308 16.39698365 480.80593872 16.38768005 C478.79355632 16.39185199 476.78117628 16.39732874 474.76880062 16.40399987 C469.23378691 16.41849158 463.69892163 16.41419809 458.16389966 16.40683305 C452.19650185 16.40211289 446.22913669 16.41460104 440.26174927 16.42485046 C429.24515717 16.44107105 418.22860754 16.44347903 407.21200693 16.43854547 C397.03380701 16.43398959 386.85562473 16.43458585 376.67742538 16.44038582 C375.3125228 16.44114268 373.94762021 16.44189866 372.58271762 16.44265376 C370.52596612 16.44379895 368.46921462 16.44494883 366.41246312 16.44611301 C347.28824475 16.45681949 328.16403226 16.46154177 309.03981209 16.45364285 C308.31877412 16.45334567 307.59773616 16.4530485 306.85484856 16.45274232 C300.99939256 16.45029335 295.14393663 16.44768178 289.2884807 16.44505819 C266.44896572 16.43495612 243.60952426 16.44330977 220.77001953 16.46655273 C195.11225887 16.49262146 169.45454247 16.50547425 143.79676807 16.49836498 C141.06124744 16.49764892 138.3257268 16.49697453 135.59020615 16.49632454 C134.9166471 16.49615473 134.24308805 16.49598492 133.54911812 16.49580997 C123.37874839 16.49350638 113.20841975 16.50148682 103.03805923 16.51461601 C91.47203202 16.52952024 79.90609946 16.5300051 68.34007372 16.5125451 C62.43734978 16.50401275 56.53480984 16.50194013 50.63209534 16.51719666 C45.22979396 16.53098707 39.82783518 16.52635332 34.4255539 16.50695742 C32.47001941 16.50317972 30.51445784 16.50617001 28.55894734 16.51656907 C25.90185094 16.52969552 23.24594458 16.51819466 20.58889961 16.50057125 C19.82871023 16.51022176 19.06852085 16.51987227 18.28529543 16.52981523 C12.86786691 16.45597969 8.46661411 15.14923543 4 12 C0.72672119 8.13455444 0 5.14042077 0 0 Z " fill="#C3D8E7" transform="translate(0,411)"/>
<path d="M0 0 C3.22002303 2.49359701 4.65310784 5.54729899 5.80078125 9.39453125 C6.60315865 16.04280113 4.4106744 19.97969153 0.80078125 25.39453125 C2.01765625 25.60078125 3.23453125 25.80703125 4.48828125 26.01953125 C9.33275641 27.20488155 11.01872584 29.3479052 13.80078125 33.39453125 C15.77527794 37.34352462 15.23848623 42.09043229 14.80078125 46.39453125 C12.63822111 50.87984117 10.33729426 53.34229917 5.80078125 55.39453125 C0.34992973 57.1288931 -4.19613902 55.87740291 -9.19921875 53.39453125 C-10.04484375 52.48703125 -10.89046875 51.57953125 -11.76171875 50.64453125 C-14.07239389 47.97990521 -14.07239389 47.97990521 -17.671875 48.53125 C-23.00001005 49.37014528 -28.00115075 51.17297878 -33.07421875 52.95703125 C-34.94573005 53.6067203 -36.81808589 54.25398327 -38.69140625 54.8984375 C-39.91899658 55.32878296 -39.91899658 55.32878296 -41.17138672 55.76782227 C-43.19921875 56.39453125 -43.19921875 56.39453125 -45.19921875 56.39453125 C-45.17601562 57.15636719 -45.1528125 57.91820312 -45.12890625 58.703125 C-45.11085938 59.73566406 -45.0928125 60.76820313 -45.07421875 61.83203125 C-45.05101562 62.84136719 -45.0278125 63.85070312 -45.00390625 64.890625 C-45.16709584 67.81824624 -45.55712076 70.27782631 -46.21142578 73.11352539 C-46.39528839 73.91722061 -46.579151 74.72091583 -46.76858521 75.54896545 C-46.91069427 76.15800217 -47.05280334 76.76703888 -47.19921875 77.39453125 C-53.44434344 77.52413623 -59.68444241 77.58065914 -65.9309082 77.5715332 C-68.05215853 77.57847965 -70.17344262 77.60487717 -72.29418945 77.65161133 C-90.92668512 78.0411561 -90.92668512 78.0411561 -95.50830078 74.00634766 C-97.75545568 71.23689851 -99.45612247 68.4957202 -101.19921875 65.39453125 C-102.52563728 64.05431879 -103.85732642 62.71925028 -105.19921875 61.39453125 C-105.19921875 60.73453125 -105.19921875 60.07453125 -105.19921875 59.39453125 C-105.80121094 59.12511719 -106.40320313 58.85570312 -107.0234375 58.578125 C-109.21833939 57.3841299 -110.36819426 56.30882606 -112.01171875 54.45703125 C-121.73599393 44.48394733 -134.20831991 37.28291995 -146.19921875 30.39453125 C-143.69156136 28.72275966 -142.04834207 27.89263537 -139.26611328 26.98999023 C-138.48164825 26.73309921 -137.69718323 26.47620819 -136.88894653 26.21153259 C-136.04516449 25.94063309 -135.20138245 25.66973358 -134.33203125 25.390625 C-133.46029266 25.10727798 -132.58855408 24.82393097 -131.69039917 24.53199768 C-129.84688828 23.93391146 -128.00263927 23.33809629 -126.15771484 22.74438477 C-123.3402576 21.83719558 -120.52545691 20.92211718 -117.7109375 20.00585938 C-115.91812134 19.42530983 -114.12515733 18.84521661 -112.33203125 18.265625 C-111.49229767 17.99270126 -110.65256409 17.71977753 -109.78738403 17.43858337 C-95.88080004 12.97629511 -83.19658964 13.41414658 -69.82421875 19.76953125 C-66.80389705 21.33971439 -64.52896005 22.92668178 -62.13671875 25.33203125 C-59.24622534 27.8701335 -59.24622534 27.8701335 -55.26171875 26.76953125 C-49.49543899 25.30768217 -43.87862082 23.40560644 -38.26171875 21.45703125 C-37.22208984 21.10962891 -36.18246094 20.76222656 -35.11132812 20.40429688 C-34.12068359 20.06205078 -33.13003906 19.71980469 -32.109375 19.3671875 C-31.21355713 19.06047119 -30.31773926 18.75375488 -29.39477539 18.43774414 C-26.88117456 17.4737255 -26.88117456 17.4737255 -25.19921875 14.39453125 C-24.88103107 12.96676602 -24.61383402 11.52708336 -24.38671875 10.08203125 C-23.37297841 5.21924554 -21.79414131 2.82224811 -18.19921875 -0.60546875 C-12.17643612 -4.09234291 -5.90108242 -3.24273073 0 0 Z " fill="#FE7B4D" transform="translate(450.19921875,224.60546875)"/>
<path d="M0 0 C3.38101147 2.70480917 3.91986876 4.4090321 4.5 8.6875 C4.07009487 16.06522674 0.96070927 22.0734339 -3.75 27.625 C-6.50670071 31.03948179 -8.15590816 33.43573377 -7.765625 37.90625 C-6.37910774 41.69795027 -3.59050561 44.47101209 -0.98046875 47.4921875 C3.26353807 52.86625531 4.57844728 58.98503526 4.2734375 65.75390625 C3.44848581 72.53029515 1.27922939 76.89216191 -3.1875 82.0625 C-6.60097108 86.06959223 -6.60097108 86.06959223 -8 91 C-7.50561588 95.81782168 -4.02601255 98.96690317 -0.98046875 102.4921875 C3.26353807 107.86625531 4.57844728 113.98503526 4.2734375 120.75390625 C3.30130262 128.73929993 0.02878697 133.41309334 -5.1484375 139.4375 C-7.10004036 142.13845248 -7.84886229 144.2207365 -8.625 147.4375 C-9.5348861 151.11761258 -9.7031092 151.76248736 -12.8125 154.25 C-16.71170005 155.16745883 -18.44989191 154.81449969 -22 153 C-24.80606966 150.56807296 -24.98824493 149.09739914 -25.4375 145.375 C-25.11247404 138.08900133 -22.27162512 132.06978461 -17.25 126.875 C-14.66795374 124.06891502 -14.01235743 123.05025356 -13.0625 119.1875 C-13.50108369 114.11388417 -17.00207033 110.54280065 -20.01953125 106.66015625 C-24.78876447 100.25414477 -25.90754453 93.89059549 -25 86 C-23.76492646 80.3804154 -20.95364151 76.21665462 -17.40234375 71.76171875 C-14.64116846 68.29294422 -13.33566078 65.82407919 -13.41015625 61.3046875 C-14.44159904 57.27454679 -17.34810289 54.60004993 -20.01953125 51.5078125 C-24.26353807 46.13374469 -25.57844728 40.01496474 -25.2734375 33.24609375 C-24.30148843 25.26222643 -21.02654298 20.59807763 -15.86328125 14.56640625 C-13.43287685 11.21886811 -12.51200358 8.04200198 -11.66796875 4.03125 C-9.99170822 -1.06615044 -4.49517505 -0.85923869 0 0 Z " fill="#E5F2FC" transform="translate(210,40)"/>
<path d="M0 0 C2.5 1.375 2.5 1.375 4 4 C5.21105827 11.02666098 3.66874781 16.98409941 0 23 C-1.80526497 25.2923386 -3.64326163 27.50794658 -5.609375 29.6640625 C-7.60082466 33.00925041 -7.5067177 35.16638985 -7 39 C-5.15331171 42.18189473 -5.15331171 42.18189473 -2.625 45.0625 C3.19583839 52.0937032 4.53278017 57.66658184 4.37890625 66.68359375 C3.49762626 74.39706501 -0.85130842 80.30929826 -5.86328125 86.015625 C-7.5040493 88.87992112 -7.4256912 90.74591821 -7 94 C-5.39419068 96.82479847 -5.39419068 96.82479847 -3.1875 99.4375 C3.23089797 107.90069732 5.13750838 114.37463763 4 125 C2.35844994 131.31215083 -1.31422541 135.76652085 -5.390625 140.72265625 C-7.49831348 143.70513777 -8.47275613 146.64464916 -9.39453125 150.15234375 C-10 152 -10 152 -12 154 C-14.90297416 154.94150513 -16.64282934 155.08504063 -19.625 154.375 C-22.78359794 152.54633804 -23.70819738 151.44480699 -25 148 C-25.37161982 139.36355528 -22.5483682 132.67618214 -16.8125 126.375 C-14.08426411 123.30660238 -12.82245205 121.26115074 -13 117 C-14.91627476 112.86084651 -17.29552715 109.61498311 -20.125 106.0625 C-25.01581215 99.59919887 -25.48953966 93.61410014 -24.53515625 85.671875 C-23.37007951 79.85499553 -20.75994431 75.72098436 -16.8125 71.375 C-14.08426411 68.30660238 -12.82245205 66.26115074 -13 62 C-14.80178167 58.11923948 -16.84766812 55.09868879 -19.625 51.875 C-24.61498365 45.83449347 -25.44372671 38.49235058 -24.82421875 30.82421875 C-23.84604983 25.89385217 -21.3892409 22.23210537 -18.5234375 18.1640625 C-15.75789697 14.23557672 -13.43899191 10.34279879 -11.9375 5.75 C-9.8463016 -0.38418197 -6.20770568 -1.06168005 0 0 Z " fill="#E5F2FC" transform="translate(267,40)"/>
<path d="M0 0 C3.22002303 2.49359701 4.65310784 5.54729899 5.80078125 9.39453125 C6.60315865 16.04280113 4.4106744 19.97969153 0.80078125 25.39453125 C2.01765625 25.60078125 3.23453125 25.80703125 4.48828125 26.01953125 C9.33275641 27.20488155 11.01872584 29.3479052 13.80078125 33.39453125 C15.77527794 37.34352462 15.23848623 42.09043229 14.80078125 46.39453125 C12.63822111 50.87984117 10.33729426 53.34229917 5.80078125 55.39453125 C0.34992973 57.1288931 -4.19613902 55.87740291 -9.19921875 53.39453125 C-10.04484375 52.48703125 -10.89046875 51.57953125 -11.76171875 50.64453125 C-14.07287095 47.97948836 -14.07287095 47.97948836 -17.67578125 48.53125 C-22.98429367 49.36686592 -27.96035987 51.17191142 -33.01171875 52.95703125 C-34.87098143 53.60821921 -36.73160499 54.25553826 -38.59375 54.8984375 C-39.40690674 55.18533447 -40.22006348 55.47223145 -41.05786133 55.76782227 C-43.19921875 56.39453125 -43.19921875 56.39453125 -46.19921875 56.39453125 C-46.35777344 55.71648437 -46.51632812 55.0384375 -46.6796875 54.33984375 C-48.94918372 45.28693617 -52.14173429 37.57377209 -58.19921875 30.39453125 C-58.19921875 29.73453125 -58.19921875 29.07453125 -58.19921875 28.39453125 C-57.27061035 28.07701904 -56.34200195 27.75950684 -55.38525391 27.43237305 C-51.94136266 26.2517983 -48.50226464 25.05777079 -45.06445312 23.85961914 C-43.57581855 23.34291239 -42.08590881 22.82986429 -40.59472656 22.32055664 C-38.45161793 21.58787603 -36.31343829 20.84216402 -34.17578125 20.09375 C-33.50801666 19.86862228 -32.84025208 19.64349457 -32.1522522 19.4115448 C-28.60586088 18.1541366 -27.35401283 17.62672237 -25.19921875 14.39453125 C-24.88103107 12.96676602 -24.61383402 11.52708336 -24.38671875 10.08203125 C-23.37297841 5.21924554 -21.79414131 2.82224811 -18.19921875 -0.60546875 C-12.17643612 -4.09234291 -5.90108242 -3.24273073 0 0 Z " fill="#FEE3CB" transform="translate(450.19921875,224.60546875)"/>
<path d="M0 0 C3.91259565 2.43450396 6.33867368 4.32852105 7.8125 8.75 C8.32767313 14.12975879 8.4814224 18.43522149 6 23.3125 C3.8125 25.75 3.8125 25.75 0.8125 27.75 C1.5856596 30.91495747 1.5856596 30.91495747 4.25 32.875 C7.58419804 36.61580756 8.612904 39.76841652 8.8125 44.75 C8.08547402 49.3682673 6.33130345 52.61734399 2.8125 55.6875 C-1.65218924 58.75697385 -4.82987005 59.18915 -10.1875 58.75 C-14.3132202 57.59135372 -17.26208737 56.08670714 -19.734375 52.515625 C-20.59493259 50.92612451 -21.41341401 49.31282008 -22.1796875 47.67578125 C-23.03628635 45.5818114 -23.03628635 45.5818114 -25.1875 44.75 C-27.43724161 44.59504237 -29.69121536 44.49989072 -31.9453125 44.43359375 C-32.93988968 44.4024221 -32.93988968 44.4024221 -33.95455933 44.37062073 C-36.07376694 44.30520769 -38.193099 44.24627895 -40.3125 44.1875 C-41.74871081 44.14430691 -43.18490902 44.10069236 -44.62109375 44.05664062 C-48.14309594 43.94953501 -51.66523825 43.84824425 -55.1875 43.75 C-55 36.625 -55 36.625 -54.91723633 34.47998047 C-54.83064385 27.37567319 -56.56248096 20.62991902 -58.1875 13.75 C-57.20354248 13.73541748 -56.21958496 13.72083496 -55.20581055 13.70581055 C-51.55456226 13.64783002 -47.90393089 13.57059815 -44.25317383 13.48754883 C-42.67319757 13.45429812 -41.09310248 13.42626654 -39.51293945 13.40356445 C-37.24118421 13.37001984 -34.97051797 13.31770773 -32.69921875 13.26171875 C-31.99286789 13.25532883 -31.28651703 13.2489389 -30.5587616 13.24235535 C-26.69467069 13.13635954 -26.69467069 13.13635954 -23.33520508 11.40161133 C-22.28993883 9.89741516 -21.29802876 8.35649505 -20.3125 6.8125 C-15.22994208 -0.51236288 -8.58373828 -3.36617187 0 0 Z " fill="#FEE3CB" transform="translate(494.1875,314.25)"/>
<path d="M0 0 C1.28068863 -0.0038269 2.56137726 -0.00765381 3.88087463 -0.01159668 C6.58329721 -0.01747041 9.2851884 -0.00900034 11.98754883 0.00976562 C15.43183277 0.03253237 18.87486808 0.01943514 22.3191061 -0.00452423 C25.62950092 -0.02255281 28.93956984 -0.00988472 32.25 0 C33.47730331 -0.00809692 34.70460663 -0.01619385 35.96910095 -0.02453613 C43.70583812 0.05970181 49.8188717 0.69098657 55.56640625 6.390625 C58.54703495 11.39973712 59.44391957 14.69927179 58.69140625 20.53125 C56.83283798 25.79719344 54.08826429 28.32520768 49.69140625 31.53125 C46.50792614 32.59241004 44.19250945 32.6771447 40.84643555 32.70825195 C39.64476242 32.72108719 38.44308929 32.73392242 37.20500183 32.74714661 C35.90500748 32.75453354 34.60501312 32.76192047 33.265625 32.76953125 C32.60287882 32.77360678 31.94013264 32.7776823 31.25730324 32.78188133 C27.74909403 32.80272092 24.24092368 32.81703148 20.73266602 32.82641602 C17.11783092 32.83747397 13.50361249 32.87187168 9.88899517 32.91158772 C7.10163769 32.93779075 4.31442635 32.94611106 1.52695656 32.94969749 C-0.45056818 32.95690798 -2.42799286 32.98333039 -4.40534973 33.01008606 C-15.55000105 32.98316538 -15.55000105 32.98316538 -20.30859375 28.53125 C-24.27536599 24.13563752 -25.74811899 20.73677253 -25.6484375 14.72265625 C-24.80810818 9.30398099 -21.81491598 5.66019776 -17.52929688 2.44824219 C-12.06654079 -0.58276454 -6.08532126 -0.04008076 0 0 Z " fill="#FFC72C" transform="translate(123.30859375,330.46875)"/>
<path d="M0 0 C1.27837738 -0.01906403 2.55675476 -0.03812805 3.87387085 -0.05776978 C5.26178091 -0.05724683 6.64969102 -0.05537228 8.03759766 -0.05224609 C9.47100315 -0.06002746 10.90440406 -0.06869834 12.33779907 -0.07821655 C15.33879557 -0.09311627 18.33932144 -0.09257791 21.34033203 -0.08203125 C25.17295973 -0.07045262 29.00365082 -0.1042812 32.83595848 -0.1507206 C35.79587939 -0.18029086 38.75533915 -0.18192609 41.71538162 -0.17570114 C43.12750708 -0.17672314 44.53965987 -0.18711563 45.95164108 -0.20732498 C58.33784783 -0.36284031 58.33784783 -0.36284031 62.90722656 3.45019531 C66.57585423 7.2902093 67.65866925 10.67711567 67.95166016 15.92431641 C67.8083801 20.70827822 66.70931571 23.92927685 63.57666016 27.54931641 C56.36337731 32.36177324 49.71429335 32.07310855 41.23291016 31.93994141 C39.85429714 31.93246796 38.4756734 31.92678025 37.0970459 31.92279053 C33.4932245 31.9076206 29.89006243 31.86841609 26.28649902 31.82397461 C22.59945593 31.78283321 18.91230482 31.76473954 15.22509766 31.74462891 C8.00865337 31.70191112 0.79274964 31.63376775 -6.42333984 31.54931641 C-6.42333984 30.88931641 -6.42333984 30.22931641 -6.42333984 29.54931641 C-7.16583984 29.36369141 -7.90833984 29.17806641 -8.67333984 28.98681641 C-12.44462684 27.01546184 -14.07695811 24.47326316 -15.42333984 20.54931641 C-16.21116037 15.51203969 -16.02981721 11.76227113 -13.73583984 7.17431641 C-9.42357319 2.27931102 -6.65473556 0.05462972 0 0 Z " fill="#FE6464" transform="translate(150.42333984375,363.45068359375)"/>
<path d="M0 0 C1.17454239 -0.00637985 2.34908478 -0.0127597 3.55921936 -0.01933289 C4.82801437 -0.02044571 6.09680939 -0.02155853 7.40405273 -0.02270508 C8.7046312 -0.02603348 10.00520966 -0.02936188 11.34519958 -0.03279114 C14.0965152 -0.03877557 16.84779943 -0.04063163 19.59912109 -0.04003906 C23.12895862 -0.03993723 26.65859597 -0.05361437 30.18838596 -0.07081127 C33.55194491 -0.08458044 36.91546592 -0.08401914 40.27905273 -0.08520508 C42.1852816 -0.09598335 42.1852816 -0.09598335 44.13002014 -0.10697937 C45.30141037 -0.10390274 46.4728006 -0.10082611 47.6796875 -0.09765625 C48.71432632 -0.09908127 49.74896515 -0.10050629 50.81495667 -0.10197449 C53.27514648 0.14526367 53.27514648 0.14526367 55.27514648 2.14526367 C53.77775065 3.31713867 52.28035482 4.48901367 50.78295898 5.66088867 C48.35955717 8.04662103 47.39615583 10.17876047 46.97436523 13.54760742 C46.95075488 18.65531441 47.10250661 21.91507717 50.27514648 26.14526367 C50.27514648 26.80526367 50.27514648 27.46526367 50.27514648 28.14526367 C51.92514648 28.80526367 53.57514648 29.46526367 55.27514648 30.14526367 C55.27514648 30.80526367 55.27514648 31.46526367 55.27514648 32.14526367 C47.31230551 32.23818253 39.34969325 32.30913862 31.38644314 32.35251236 C27.68825996 32.37333582 23.9904493 32.40155591 20.29248047 32.44702148 C16.71980725 32.49066878 13.147491 32.51444016 9.57457161 32.52477264 C8.21545865 32.53213041 6.85636396 32.54649839 5.4974041 32.5681839 C-7.73258027 32.77079278 -7.73258027 32.77079278 -13.72485352 28.14526367 C-17.35249048 23.89938282 -18.3850278 18.7292727 -18.11157227 13.25073242 C-17.09037262 7.69086768 -13.1858624 4.23365444 -8.72485352 1.14526367 C-5.56506519 0.0920009 -3.31830476 0.01221585 0 0 Z " fill="#F2C9FB" transform="translate(88.724853515625,362.854736328125)"/>
<path d="M0 0 C34.70132611 0.14265704 69.61676094 5.85342034 100.11328125 23.265625 C101.03077148 23.77512695 101.03077148 23.77512695 101.96679688 24.29492188 C115.50868627 31.84631814 128.59463444 40.79813119 139.11328125 52.265625 C140.31984375 53.44125 140.31984375 53.44125 141.55078125 54.640625 C144.03492324 57.18535582 146.45893582 59.77045644 148.86328125 62.390625 C149.641875 63.23882812 150.42046875 64.08703125 151.22265625 64.9609375 C153.11328125 67.265625 153.11328125 67.265625 154.11328125 70.265625 C130.49233975 72.64406329 130.49233975 72.64406329 123.64013672 68.92236328 C119.71883692 65.55837642 116.93407771 61.43705635 114.2421875 57.05957031 C97.43493968 30.35116699 54.67761733 13.91502292 25.4699707 7.17553711 C15.40395337 4.94771063 5.37576999 3.26357383 -4.88671875 2.265625 C-2.88671875 0.265625 -2.88671875 0.265625 0 0 Z " fill="#FF8955" transform="translate(203.88671875,230.734375)"/>
<path d="M0 0 C10.58777241 -0.09274882 21.1754479 -0.16378987 31.76354408 -0.20724869 C36.68023673 -0.22810857 41.5966511 -0.25639707 46.51318359 -0.30175781 C51.25942082 -0.34527251 56.00539064 -0.36914914 60.75181198 -0.37950897 C62.56110213 -0.38689024 64.37037791 -0.40130427 66.17955399 -0.42292023 C68.71719037 -0.45202938 71.25372697 -0.45595293 73.79150391 -0.45410156 C74.90928726 -0.47567322 74.90928726 -0.47567322 76.0496521 -0.49768066 C81.18188376 -0.4572624 84.04765701 0.77366667 88 4 C91.77696721 8.57211821 92 9.75398581 92 16 C-76.96 16 -245.92 16 -420 16 C-420 15.67 -420 15.34 -420 15 C-277.44 15 -134.88 15 12 15 C8.77723856 6.72412016 8.77723856 6.72412016 3 2 C2.01 1.34 1.02 0.68 0 0 Z " fill="#D5E9F4" transform="translate(420,395)"/>
<path d="M0 0 C26.4 0 52.8 0 80 0 C79 8 79 8 76.8125 10.8125 C71.33219558 15.07495899 66.94911993 16.44202612 60.06689453 16.2487793 C59.2954863 16.23946381 58.52407806 16.23014832 57.72929382 16.22055054 C55.19667173 16.1863606 52.66503318 16.13043774 50.1328125 16.07421875 C48.37020928 16.04616636 46.60758387 16.01947801 44.84494019 15.99409485 C40.21851987 15.92382012 35.59263303 15.83507382 30.96661377 15.74243164 C26.24094626 15.65107909 21.5150081 15.57726183 16.7890625 15.50195312 C7.52569363 15.35176253 -1.73720629 15.18204958 -11 15 C-6.25 11 -6.25 11 -4 11 C-2.50065891 7.35874308 -1.25091475 3.75274424 0 0 Z " fill="#B2CAD8" transform="translate(432,411)"/>
<path d="M0 0 C4.46663013 2.4544783 6.37622801 5.68532722 7.8125 10.5 C8.6148774 17.14826988 6.42239315 21.08516028 2.8125 26.5 C4.029375 26.70625 5.24625 26.9125 6.5 27.125 C11.34447516 28.3103503 13.03044459 30.45337395 15.8125 34.5 C17.78699669 38.44899337 17.25020498 43.19590104 16.8125 47.5 C14.64993986 51.98530992 12.34901301 54.44776792 7.8125 56.5 C2.91092063 57.88522895 -0.40914738 57.12463989 -5.1875 55.5 C-4.17096583 53.31054179 -3.24103822 51.55996281 -1.625 49.75 C0.45551302 46.49354484 0.91882949 43.29241865 0.8125 39.5 C-0.43425062 35.09970368 -1.48961349 33.0613435 -5.0625 30.1875 C-7.73878729 28.74230486 -10.32240567 27.51120976 -13.1875 26.5 C-12.5275 25.365625 -11.8675 24.23125 -11.1875 23.0625 C-8.90697842 18.47710963 -8.39498193 14.55346817 -9.1875 9.5 C-10.73822796 5.16303391 -10.73822796 5.16303391 -14.1875 2.5 C-14.1875 1.51 -14.1875 0.52 -14.1875 -0.5 C-9.16626084 -2.17374639 -4.86517993 -2.06044001 0 0 Z " fill="#F7D4BC" transform="translate(448.1875,223.5)"/>
<path d="M0 0 C3.91259565 2.43450396 6.33867368 4.32852105 7.8125 8.75 C8.32767313 14.12975879 8.4814224 18.43522149 6 23.3125 C3.8125 25.75 3.8125 25.75 0.8125 27.75 C1.5856596 30.91495747 1.5856596 30.91495747 4.25 32.875 C7.58419804 36.61580756 8.612904 39.76841652 8.8125 44.75 C8.08547402 49.3682673 6.33130345 52.61734399 2.8125 55.6875 C-1.6784639 58.77503768 -4.82414996 58.94154822 -10.1875 58.75 C-11.1775 58.42 -12.1675 58.09 -13.1875 57.75 C-12.17298404 55.5648887 -11.27120965 53.84040643 -9.625 52.0625 C-7.38609074 48.4607764 -6.9529429 44.95823028 -7.1875 40.75 C-8.64390038 36.02078978 -10.79430511 32.26039708 -15.1875 29.75 C-14.12198551 27.26379951 -13.14912941 25.71282849 -11.1875 23.8125 C-8.39112322 20.92873644 -7.2525097 18.70029111 -7.1171875 14.640625 C-7.45618397 8.69821626 -9.13531432 6.00999007 -13.1875 1.75 C-13.1875 1.09 -13.1875 0.43 -13.1875 -0.25 C-8.46564921 -1.82395026 -4.65153281 -1.82413051 0 0 Z " fill="#F7D4BC" transform="translate(494.1875,314.25)"/>
<path d="M0 0 C1.9375 0.1875 1.9375 0.1875 4 1 C5.88282023 4.05607015 6.56327105 7.14085558 7.3125 10.625 C9.57667677 19.87320463 13.12390802 28.25112602 21 34 C27.77137526 37.9798778 34.06047356 41.21009813 42 42 C42 42.33 42 42.66 42 43 C29.95096755 43.74071921 20.4174096 42.62421428 10.625 34.8125 C4.18514969 28.6678095 -0.65880988 20.34916717 -1.23046875 11.38671875 C-1.21628906 10.16597656 -1.20210938 8.94523437 -1.1875 7.6875 C-1.18105469 6.45386719 -1.17460937 5.22023438 -1.16796875 3.94921875 C-1 1 -1 1 0 0 Z " fill="#FF7C4D" transform="translate(272,352)"/>
<path d="M0 0 C2.76980599 2.42358024 3.81860489 3.93754294 4.4375 7.5625 C3.88080993 10.66405897 3.39225446 11.90677735 1 14 C-1.71022453 14.89765398 -4.15183512 15.22969072 -7 15 C-10.39817543 12.90881512 -10.90473773 11.33341795 -12 7.5 C-12 4 -12 4 -10.5625 1.5625 C-7.0171059 -0.59932567 -4.04819669 -0.96227626 0 0 Z " fill="#FF7C4D" transform="translate(165,300)"/>
<path d="M0 0 C2.4375 1.5625 2.4375 1.5625 4 4 C4.56288002 7.94016013 4.60396028 10.05782196 2.4375 13.4375 C-0.94217804 15.60396028 -3.05983987 15.56288002 -7 15 C-9.4375 13.4375 -9.4375 13.4375 -11 11 C-11.56288002 7.05983987 -11.60396028 4.94217804 -9.4375 1.5625 C-6.05782196 -0.60396028 -3.94016013 -0.56288002 0 0 Z " fill="#FF7B4D" transform="translate(127,292)"/>
<path d="M0 0 C3.06243788 0.04948284 4.03476301 0.21322096 6.6875 1.9375 C8.66948314 5.07563998 8.85814058 6.66123465 8.1875 10.3125 C5.70147551 13.67594489 4.27324477 15.11307749 0.125 15.875 C-3.49687046 15.18145034 -4.65175205 14.27352497 -6.8125 11.3125 C-7.75 8.875 -7.75 8.875 -7.8125 6.3125 C-4.85523504 0.39797009 -4.85523504 0.39797009 0 0 Z " fill="#FF7C4D" transform="translate(149.8125,269.6875)"/>
<path d="M0 0 C0 1.32 0 2.64 0 4 C-2.43572059 4.83887056 -4.87333217 5.67126529 -7.3125 6.5 C-8.34793945 6.85771484 -8.34793945 6.85771484 -9.40429688 7.22265625 C-12.38931489 8.23208263 -14.82658914 9 -18 9 C-18.33 7.02 -18.66 5.04 -19 3 C-16.77518771 2.29853686 -14.54492632 1.61434046 -12.3125 0.9375 C-11.07113281 0.55464844 -9.82976562 0.17179687 -8.55078125 -0.22265625 C-5.1468214 -0.96785758 -3.28440924 -0.99851065 0 0 Z " fill="#F8D4BC" transform="translate(422,272)"/>
</svg>
