<?xml version="1.0" encoding="UTF-8"?>
<svg version="1.1" xmlns="http://www.w3.org/2000/svg" width="512" height="512">
<path d="M0 0 C2.89453125 1.51171875 2.89453125 1.51171875 5.8125 3.6875 C6.63210205 4.28655151 6.63210205 4.28655151 7.46826172 4.89770508 C8.67294203 5.77943493 9.87261179 6.66804074 11.06787109 7.5625 C13.08769055 9.06524159 15.12799738 10.53562098 17.17578125 12 C25.98332133 18.30311904 34.70476905 24.72122807 43.41381836 31.15942383 C48.88269179 35.19574077 54.38872838 39.1629865 60 43 C61.4540625 41.7315625 61.4540625 41.7315625 62.9375 40.4375 C64.29115614 39.29106359 65.64535502 38.14526782 67 37 C67.64066406 36.43539062 68.28132813 35.87078125 68.94140625 35.2890625 C83.66018014 22.9442844 101.79359817 18.73200512 120.6484375 19.79296875 C139.54636936 21.45674016 156.24677756 30.90215551 168.6875 45.0625 C182.51562608 62.81314659 185.99066885 82.63510404 183.6015625 104.67578125 C181.33240778 116.50780227 175.10772267 127.41571891 168 137 C169.59714844 136.20335937 169.59714844 136.20335937 171.2265625 135.390625 C185.80140755 128.24341018 202.55280182 120.73565984 219.0703125 125.2734375 C224.96387619 127.4924716 229.26727965 131.25196972 231.91015625 136.96875 C237.78490522 152.48901706 231.24607762 168.61608235 225 183 C224.36771484 184.45792969 224.36771484 184.45792969 223.72265625 185.9453125 C222.83069383 187.97047985 221.91836246 189.98666691 221 192 C222.03898437 192.47308594 223.07796875 192.94617188 224.1484375 193.43359375 C234.75358823 198.40463884 245.25147888 203.61234287 250 215 C250.92927077 220.41656027 250.58939304 225.61300859 247.4453125 230.28515625 C241.53774166 237.29440922 234.33014184 242.2407565 226 246 C225.34 246 224.68 246 224 246 C225.45703623 249.44150441 225.45703623 249.44150441 228 252 C231.17618229 252.64122119 234.18102585 252.8123356 237.41796875 252.89453125 C240 253 240 253 241 254 C240.64453388 262.15838105 238.17433322 269.50311907 235.5625 277.1875 C235.34102295 277.84551605 235.1195459 278.5035321 234.89135742 279.18148804 C223.78427099 312.03630932 206.63304842 340.90802955 183.25390625 366.5234375 C181.7257804 368.20252205 180.21314142 369.89580823 178.71484375 371.6015625 C174.09880848 376.84309826 169.35442442 381.52726468 164 386 C163.03191406 386.84433594 162.06382812 387.68867188 161.06640625 388.55859375 C138.31971582 408.33635958 110.6658774 424.44470753 82 434 C82.95261719 434.03738281 83.90523438 434.07476562 84.88671875 434.11328125 C86.76810547 434.21189453 86.76810547 434.21189453 88.6875 434.3125 C89.92886719 434.37050781 91.17023438 434.42851562 92.44921875 434.48828125 C97.9699267 435.28389483 101.37454449 437.85662227 105 442 C106.53796708 446.61390124 106.92229404 451.38349192 105.28125 456.0390625 C102.88966724 460.57149757 100.12517009 462.96024909 95.31219959 464.56153488 C92.04746196 465.18063091 88.81482303 465.14449691 85.50480652 465.14044189 C84.3677773 465.14489858 84.3677773 465.14489858 83.2077778 465.1494453 C80.66609525 465.15812147 78.12445986 465.15963962 75.58276367 465.16113281 C73.76104125 465.16576173 71.93931981 465.17078649 70.11759949 465.17617798 C65.16711137 465.18929633 60.21663681 465.19574576 55.26613402 465.20018864 C52.17315663 465.20312008 49.08018294 465.20722502 45.98720741 465.21169281 C36.30961728 465.22536583 26.63203561 465.23503362 16.95443648 465.2388947 C5.78362315 465.24337606 -5.38706785 465.2609284 -16.55784398 465.2898953 C-25.19320928 465.31151033 -33.82854015 465.32159888 -42.46393222 465.32293582 C-47.62123898 465.32398391 -52.77843072 465.32989275 -57.935709 465.34775543 C-62.78745093 465.36423313 -67.63899133 465.36639305 -72.49075127 465.35761642 C-74.26969569 465.35684591 -76.04865093 465.36119069 -77.82756805 465.37107468 C-80.25990333 465.38379476 -82.69152491 465.37791736 -85.12385559 465.36749268 C-85.8244536 465.37554908 -86.52505162 465.38360548 -87.24687988 465.39190602 C-93.59790759 465.32843405 -98.06113514 463.68596944 -102.875 459.5 C-106.18372279 455.60738495 -106.33694199 452.19280392 -106.2890625 447.28515625 C-105.7041285 442.66101587 -102.52040831 438.90816338 -99 436 C-95.53287889 434.84429296 -92.4585044 434.67164707 -88.8125 434.4375 C-86.90404297 434.31181641 -86.90404297 434.31181641 -84.95703125 434.18359375 C-83.98121094 434.12300781 -83.00539062 434.06242187 -82 434 C-82.78310547 433.69932617 -82.78310547 433.69932617 -83.58203125 433.39257812 C-95.38711538 428.83387226 -106.8276679 423.94574187 -118 418 C-118.64356445 417.66419922 -119.28712891 417.32839844 -119.95019531 416.98242188 C-136.84192674 408.12917229 -151.8514693 396.72871033 -166 384 C-166.8647998 383.227771 -166.8647998 383.227771 -167.74707031 382.43994141 C-174.24420079 376.62207277 -180.42593599 370.72310352 -186 364 C-186.7940625 363.10539062 -187.588125 362.21078125 -188.40625 361.2890625 C-211.96825558 334.59870701 -238.85287406 292.63830632 -241.1875 256.0625 C-241 254 -241 254 -240 253 C-236.26188984 252.86379356 -232.52969694 252.75203126 -228.7890625 252.74609375 C-224.60952713 252.61675959 -222.63670856 252.5387534 -219.359375 249.765625 C-218.58078125 248.85296875 -217.8021875 247.9403125 -217 247 C-212.16479533 242.83769273 -207.08195997 240.64240602 -201.0625 238.6875 C-199.89364258 238.29208008 -199.89364258 238.29208008 -198.70117188 237.88867188 C-196.80429017 237.24861977 -194.90261851 236.62279188 -193 236 C-194.85625 235.4121875 -194.85625 235.4121875 -196.75 234.8125 C-217.55990622 227.75664117 -233.56842731 216.74843956 -244 197 C-252.07623342 178.78926979 -253.64306264 159.37392307 -246.8125 140.5 C-238.28481313 119.61842071 -224.51514381 106.72814471 -204 98 C-187.56485289 91.35032613 -166.78063918 93.77015007 -150.7734375 100.3203125 C-143.70318666 103.59589707 -137.80966257 107.83810468 -132 113 C-131.36320312 113.55429688 -130.72640625 114.10859375 -130.0703125 114.6796875 C-118.88747835 125.06729789 -110.74095769 141.70976708 -109.8203125 156.98046875 C-109.81368495 159.32993378 -109.85993208 161.6551593 -110 164 C-109.32195312 163.55269531 -108.64390625 163.10539063 -107.9453125 162.64453125 C-86.94029851 149 -86.94029851 149 -77 149 C-77.39832031 147.94683594 -77.79664063 146.89367187 -78.20703125 145.80859375 C-82.45543459 134.33937755 -85.8932312 123.15544136 -86.1875 110.8125 C-86.27826068 108.21199706 -86.27826068 108.21199706 -87 106 C-88.87167499 104.48376329 -90.61292238 103.77753224 -92.8671875 102.9453125 C-98.33666234 100.52111303 -101.89996479 94.36675665 -104 89 C-104.1875 86.125 -104.1875 86.125 -104 84 C-94.65752062 80.49657023 -86.33501635 80.24564507 -77.125 84.25 C-76.42375 84.4975 -75.7225 84.745 -75 85 C-74.401875 84.7009375 -73.80375 84.401875 -73.1875 84.09375 C-65.00816806 80.00408403 -55.26248798 82.35590245 -47.01171875 84.93359375 C-37.93164995 88.13767175 -30.09929684 92.89973524 -22 98 C-20.33607286 99.00455176 -18.67056234 100.00652164 -17 101 C-16.37351563 100.02417969 -15.74703125 99.04835938 -15.1015625 98.04296875 C-14.27605512 96.75780386 -13.45053355 95.47264808 -12.625 94.1875 C-12.2125 93.54490234 -11.8 92.90230469 -11.375 92.24023438 C-9.60185508 89.48042011 -7.81964862 86.72947292 -6 84 C-6.53109375 83.12859375 -7.0621875 82.2571875 -7.609375 81.359375 C-19.17961528 62.01546501 -22.43226361 42.18903486 -17.56103516 20.16894531 C-15.0901933 10.6167438 -11.7241746 -1.55899835 0 0 Z M77 55 C80.90768019 59.12687308 85.11897444 62.50519245 89.6875 65.875 C90.74336304 66.66173096 90.74336304 66.66173096 91.82055664 67.46435547 C96.56520355 70.98522568 101.3708523 74.40247517 106.27734375 77.6953125 C108.64707472 79.49007473 108.94511415 80.71184927 109.5 83.625 C108.42918692 90.85298826 101.41377066 95.97195088 95.8203125 100.19140625 C89.84350045 104.02418184 83.39663925 106.93606355 77 110 C77.33 115.61 77.66 121.22 78 127 C79.98 126.505 79.98 126.505 82 126 C91.48934 124.99961777 100.54854726 126.62501166 108.15625 132.73046875 C108.7646875 133.14941406 109.373125 133.56835938 110 134 C113.22599258 133.28666948 113.22599258 133.28666948 114.61328125 130.3046875 C115.17402344 129.17289062 115.73476563 128.04109375 116.3125 126.875 C120.19137863 119.37392573 123.88522948 113.15920899 131.86328125 109.6640625 C136.49629919 108.22418489 140.69193588 107.9497478 145.171875 109.98828125 C149.02331899 112.32665796 152.55789854 115.09572689 156 118 C162.41520462 109.98099423 164.35288591 100.250517 164.375 90.1875 C164.37661133 89.49487061 164.37822266 88.80224121 164.37988281 88.08862305 C164.27366315 83.1440976 163.33256349 78.7599168 162 74 C161.62875 74.804375 161.62875 74.804375 161.25 75.625 C157.32069752 83.0906747 153.01834976 87.1699942 145 90 C143.09205888 82.30516307 141.88524339 76.07286459 145.6875 68.75 C148.27273316 65.67566867 150.56527426 64.02961067 154 62 C151.54749986 54.5375798 145.40648236 49.9209793 138.73046875 46.15625 C135.52497166 44.63373217 132.31432357 43.26648375 129 42 C128.31421875 41.73316406 127.6284375 41.46632812 126.921875 41.19140625 C108.90532697 35.51227698 90.39720167 43.01303009 77 55 Z M-199 118 C-199.8146875 118.32871094 -200.629375 118.65742188 -201.46875 118.99609375 C-213.56621314 124.39141296 -222.02346447 133.89518846 -227.28125 145.93359375 C-232.37882908 159.3511501 -232.35762409 172.55287558 -226.78125 185.921875 C-220.67580583 197.92924854 -211.56506822 207.07353908 -199 212 C-199.02094727 211.32533691 -199.04189453 210.65067383 -199.06347656 209.95556641 C-199.14754586 206.84553433 -199.19894444 203.73574241 -199.25 200.625 C-199.28351563 199.56410156 -199.31703125 198.50320312 -199.3515625 197.41015625 C-199.44447719 189.8376089 -198.71249768 182.3354172 -193.5871582 176.35009766 C-187.50754711 170.96655093 -181.55867002 170.55312772 -173.75 170.69140625 C-161.73819391 171.67987779 -149.63387734 177.43267597 -139.77734375 184.21875 C-137.12903386 186.26992987 -137.12903386 186.26992987 -134 186 C-133.51801537 184.75108386 -133.03954323 183.50081192 -132.5625 182.25 C-132.29566406 181.55390625 -132.02882813 180.8578125 -131.75390625 180.140625 C-127.74002605 168.74370091 -128.92819732 154.80927947 -134 144 C-140.4375243 130.60190255 -150.47118293 122.48002717 -164 117 C-169.39346692 115.13351087 -174.17071142 114.64626235 -179.8125 114.6875 C-180.60785156 114.69241455 -181.40320313 114.6973291 -182.22265625 114.70239258 C-188.24440764 114.82231103 -193.43843886 115.58150422 -199 118 Z " fill="#FEC638" transform="translate(256,47)"/>
<path d="M0 0 C2.89453125 1.51171875 2.89453125 1.51171875 5.8125 3.6875 C6.35890137 4.08686768 6.90530273 4.48623535 7.46826172 4.89770508 C8.67294203 5.77943493 9.87261179 6.66804074 11.06787109 7.5625 C13.08769055 9.06524159 15.12799738 10.53562098 17.17578125 12 C25.98332133 18.30311904 34.70476905 24.72122807 43.41381836 31.15942383 C48.88269179 35.19574077 54.38872838 39.1629865 60 43 C60.969375 42.154375 61.93875 41.30875 62.9375 40.4375 C64.29115614 39.29106359 65.64535502 38.14526782 67 37 C67.64066406 36.43539062 68.28132812 35.87078125 68.94140625 35.2890625 C83.66018014 22.9442844 101.79359817 18.73200512 120.6484375 19.79296875 C139.54636936 21.45674016 156.24677756 30.90215551 168.6875 45.0625 C182.51562608 62.81314659 185.99066885 82.63510404 183.6015625 104.67578125 C181.33240778 116.50780227 175.10772267 127.41571891 168 137 C169.59714844 136.20335937 169.59714844 136.20335937 171.2265625 135.390625 C185.80140755 128.24341018 202.55280182 120.73565984 219.0703125 125.2734375 C224.96387619 127.4924716 229.26727965 131.25196972 231.91015625 136.96875 C237.78490522 152.48901706 231.24607762 168.61608235 225 183 C224.36771484 184.45792969 224.36771484 184.45792969 223.72265625 185.9453125 C222.83069383 187.97047985 221.91836246 189.98666691 221 192 C222.03898437 192.47308594 223.07796875 192.94617188 224.1484375 193.43359375 C234.75358823 198.40463884 245.25147888 203.61234287 250 215 C250.92927077 220.41656027 250.58939304 225.61300859 247.4453125 230.28515625 C241.53774166 237.29440922 234.33014184 242.2407565 226 246 C225.34 246 224.68 246 224 246 C225.98 249.465 225.98 249.465 228 253 C191.7 253 155.4 253 118 253 C121.10701593 250.92865605 124.03201903 249.74838184 127.5 248.375 C138.27307826 243.90107937 148.1239318 236.62153968 156 228 C156.81593646 225.85412903 156.81593646 225.85412903 157 224 C156.21302734 223.67708984 156.21302734 223.67708984 155.41015625 223.34765625 C152.05462894 221.47138895 149.30916687 218.96506735 146.4375 216.4375 C145.17664893 215.34144897 143.91492167 214.24640511 142.65234375 213.15234375 C142.03085449 212.61335449 141.40936523 212.07436523 140.76904297 211.51904297 C138.38119681 209.46864567 135.94585215 207.48066779 133.5 205.5 C129.2720752 202.06791987 125.1247211 198.55448829 121 195 C115.98685227 190.68065728 110.91462485 186.44902723 105.77734375 182.27734375 C102.65603633 179.71795946 99.5754997 177.11406209 96.5 174.5 C92.53096457 171.12716411 88.53982979 167.78823355 84.5 164.5 C79.8954642 160.75212202 75.35980809 156.93016556 70.8359375 153.0859375 C66.53986956 149.44140593 62.18631659 145.8721266 57.81640625 142.31640625 C55.22753651 140.18714168 52.66457934 138.03196206 50.11132812 135.86035156 C48.4620794 134.45839393 46.80773694 133.06266229 45.15234375 131.66796875 C43.12589449 129.96021739 41.12392726 128.23358534 39.12890625 126.48828125 C38.26136719 125.74964844 37.39382813 125.01101562 36.5 124.25 C35.7471875 123.59515625 34.994375 122.9403125 34.21875 122.265625 C32.06287593 120.81390478 32.06287593 120.81390478 29.5 120.87890625 C25.84137888 122.51956916 24.39560724 125.32062558 22.5 128.6875 C22.11126709 129.36014893 21.72253418 130.03279785 21.32202148 130.72583008 C12.00709203 147.34338426 10.69993297 164.3596799 10 183 C8.93072266 182.69255859 8.93072266 182.69255859 7.83984375 182.37890625 C6.88207031 182.10949219 5.92429687 181.84007812 4.9375 181.5625 C3.99777344 181.29566406 3.05804688 181.02882812 2.08984375 180.75390625 C-14.79439271 176.63423793 -33.62158792 177.84649728 -49 186 C-49.84433594 186.4434375 -50.68867188 186.886875 -51.55859375 187.34375 C-68.82372461 197.04023535 -79.88015062 212.55513653 -85.26513672 231.40258789 C-86.22295899 234.92468887 -87.12797657 238.4556467 -88 242 C-93.23000919 240.08145391 -96.56624049 237.59442197 -99.3125 232.625 C-100.99020018 226.21923568 -99.8138265 221.71617341 -96.8125 215.9375 C-96.22082031 214.77089844 -95.62914062 213.60429687 -95.01953125 212.40234375 C-93.51178385 209.86221224 -92.15521189 207.89346865 -90.26171875 205.69140625 C-87.78555053 203.33073258 -87.78555053 203.33073258 -88 201 C-89.75120777 199.65144983 -89.75120777 199.65144983 -92 198.3125 C-99.83166314 193.21453059 -106.6785415 188.05021261 -110 179 C-111.2466932 173.09353548 -109.95541533 168.2095905 -106.7890625 163.1328125 C-100.21758815 155.29869679 -89.56688654 151.73159787 -80 149 C-79.01 149 -78.02 149 -77 149 C-77.39832031 147.94683594 -77.79664063 146.89367187 -78.20703125 145.80859375 C-82.45543459 134.33937755 -85.8932312 123.15544136 -86.1875 110.8125 C-86.27826068 108.21199706 -86.27826068 108.21199706 -87 106 C-88.87167499 104.48376329 -90.61292238 103.77753224 -92.8671875 102.9453125 C-98.33666234 100.52111303 -101.89996479 94.36675665 -104 89 C-104.1875 86.125 -104.1875 86.125 -104 84 C-94.65752062 80.49657023 -86.33501635 80.24564507 -77.125 84.25 C-76.073125 84.62125 -76.073125 84.62125 -75 85 C-74.401875 84.7009375 -73.80375 84.401875 -73.1875 84.09375 C-65.00816806 80.00408403 -55.26248798 82.35590245 -47.01171875 84.93359375 C-37.93164995 88.13767175 -30.09929684 92.89973524 -22 98 C-20.33607286 99.00455176 -18.67056234 100.00652164 -17 101 C-16.06027344 99.53626953 -16.06027344 99.53626953 -15.1015625 98.04296875 C-14.27605512 96.75780386 -13.45053355 95.47264808 -12.625 94.1875 C-12.2125 93.54490234 -11.8 92.90230469 -11.375 92.24023438 C-9.60185508 89.48042011 -7.81964862 86.72947292 -6 84 C-6.53109375 83.12859375 -7.0621875 82.2571875 -7.609375 81.359375 C-19.17961528 62.01546501 -22.43226361 42.18903486 -17.56103516 20.16894531 C-15.0901933 10.6167438 -11.7241746 -1.55899835 0 0 Z M77 55 C80.90768019 59.12687308 85.11897444 62.50519245 89.6875 65.875 C90.74336304 66.66173096 90.74336304 66.66173096 91.82055664 67.46435547 C96.56520355 70.98522568 101.3708523 74.40247517 106.27734375 77.6953125 C108.64707472 79.49007473 108.94511415 80.71184927 109.5 83.625 C108.42918692 90.85298826 101.41377066 95.97195088 95.8203125 100.19140625 C89.84350045 104.02418184 83.39663925 106.93606355 77 110 C77.33 115.61 77.66 121.22 78 127 C79.98 126.505 79.98 126.505 82 126 C91.48934 124.99961777 100.54854726 126.62501166 108.15625 132.73046875 C108.7646875 133.14941406 109.373125 133.56835938 110 134 C113.22599258 133.28666948 113.22599258 133.28666948 114.61328125 130.3046875 C115.17402344 129.17289062 115.73476563 128.04109375 116.3125 126.875 C120.19137863 119.37392573 123.88522948 113.15920899 131.86328125 109.6640625 C136.49629919 108.22418489 140.69193588 107.9497478 145.171875 109.98828125 C149.02331899 112.32665796 152.55789854 115.09572689 156 118 C162.41520462 109.98099423 164.35288591 100.250517 164.375 90.1875 C164.37661133 89.49487061 164.37822266 88.80224121 164.37988281 88.08862305 C164.27366315 83.1440976 163.33256349 78.7599168 162 74 C161.62875 74.804375 161.62875 74.804375 161.25 75.625 C157.32069752 83.0906747 153.01834976 87.1699942 145 90 C143.09205888 82.30516307 141.88524339 76.07286459 145.6875 68.75 C148.27273316 65.67566867 150.56527426 64.02961067 154 62 C151.54749986 54.5375798 145.40648236 49.9209793 138.73046875 46.15625 C135.52497166 44.63373217 132.31432357 43.26648375 129 42 C128.31421875 41.73316406 127.6284375 41.46632812 126.921875 41.19140625 C108.90532697 35.51227698 90.39720167 43.01303009 77 55 Z " fill="#A1DA33" transform="translate(256,47)"/>
<path d="M0 0 C1.57803258 1.33603397 3.14182255 2.68916289 4.6875 4.0625 C5.32429688 4.61679688 5.96109375 5.17109375 6.6171875 5.7421875 C17.80002165 16.12979789 25.94654231 32.77226708 26.8671875 48.04296875 C26.87381505 50.39243378 26.82756792 52.7176593 26.6875 55.0625 C28.0075 54.7325 29.3275 54.4025 30.6875 54.0625 C28.8125 58.8125 28.8125 58.8125 27.6875 61.0625 C26.58727684 67.52457018 28.09416837 72.15383792 31.640625 77.56640625 C36.59469842 83.60772861 42.95600332 88.17941241 49.6875 92.0625 C48.60712365 95.51970431 47.03310845 98.00870145 44.8125 100.8125 C40.82870325 105.9972943 38.10245817 111.10592307 37.1875 117.625 C37.81593907 121.94551862 38.88546958 125.65652317 41.6875 129.0625 C43.95971504 130.5568163 46.27474318 131.79277617 48.6875 133.0625 C48.89503906 131.92554688 49.10257813 130.78859375 49.31640625 129.6171875 C52.10372454 115.29420424 56.79866853 103.13112698 66.6875 92.0625 C67.29207031 91.37671875 67.89664063 90.6909375 68.51953125 89.984375 C79.95579065 77.77948717 96.17149739 69.80933545 112.86083984 68.95068359 C125.06917854 68.63820664 135.24094247 69.68305189 146.6875 74.0625 C146.65269531 72.804375 146.61789062 71.54625 146.58203125 70.25 C146.17974444 49.5627058 149.12827415 28.08045368 163.6875 12.0625 C166.01953125 10.90234375 166.01953125 10.90234375 168.6875 11.0625 C171.1374061 12.77440969 173.15028199 14.41387422 175.3125 16.4375 C176.56284812 17.5596576 177.81415979 18.68074246 179.06640625 19.80078125 C179.6814502 20.35846191 180.29649414 20.91614258 180.93017578 21.49072266 C183.30652518 23.61616548 185.76822412 25.62427319 188.25 27.625 C192.27108091 30.89028303 196.24095162 34.20807844 200.1875 37.5625 C204.15653543 40.93533589 208.14767021 44.27426645 212.1875 47.5625 C213.05761719 48.29082031 213.92773438 49.01914063 214.82421875 49.76953125 C216.96222861 51.48168922 219.07756376 53.03342102 221.33203125 54.57421875 C222.55475303 55.46605599 223.77741027 56.35798174 225 57.25 C225.59425781 57.62253906 226.18851562 57.99507813 226.80078125 58.37890625 C228.72992969 59.83504233 229.67687856 60.85489354 230.6875 63.0625 C230.75797892 67.07131149 229.96691064 70.84754057 229.15054321 74.76150513 C228.4429538 78.27772039 227.87121999 81.81509594 227.28056335 85.3525238 C226.59764229 89.42252959 225.8852109 93.4871773 225.17358398 97.55224609 C224.62012764 100.71534641 224.07058587 103.87910984 223.52148438 107.04296875 C223.16949958 109.06253988 222.81729418 111.08207258 222.46484375 113.1015625 C222.21951149 114.51400742 222.21951149 114.51400742 221.96922302 115.95498657 C221.81558792 116.83045135 221.66195282 117.70591614 221.50366211 118.60791016 C221.36979599 119.3739859 221.23592987 120.14006165 221.0980072 120.92935181 C220.70008117 122.99712358 220.21879496 125.02532463 219.6875 127.0625 C204.86069912 126.1059322 194.52404006 118.72115527 183.6875 109.0625 C184.10322266 110.27486328 184.10322266 110.27486328 184.52734375 111.51171875 C184.88957031 112.58035156 185.25179688 113.64898437 185.625 114.75 C185.98464844 115.80574219 186.34429687 116.86148438 186.71484375 117.94921875 C188.57225766 123.89443518 188.81293912 129.19304167 188.75 135.375 C188.729375 138.241875 188.70875 141.10875 188.6875 144.0625 C182.7475 144.0625 176.8075 144.0625 170.6875 144.0625 C170.44 141.46375 170.1925 138.865 169.9375 136.1875 C168.36462895 122.35564066 162.49520982 109.40444377 152.19921875 99.72265625 C138.76917283 89.9339306 124.93488791 87.56522334 108.6875 89.0625 C100.5016077 90.97117037 93.24397979 94.84484337 86.6875 100.0625 C86.01203125 100.58972656 85.3365625 101.11695313 84.640625 101.66015625 C74.84792603 110.2951912 70.09192915 122.85376683 68.84375 135.5625 C68.7921875 136.3875 68.740625 137.2125 68.6875 138.0625 C69.3475 138.0625 70.0075 138.0625 70.6875 138.0625 C70.3575 140.3725 70.0275 142.6825 69.6875 145.0625 C91.4675 145.0625 113.2475 145.0625 135.6875 145.0625 C135.6875 155.9525 135.6875 166.8425 135.6875 178.0625 C130.4075 178.7225 125.1275 179.3825 119.6875 180.0625 C107.30186852 184.35455051 97.66807162 191.03405465 87.88818359 199.57055664 C71.87039599 213.53280878 58.74309363 218.27939768 37.6875 217.0625 C25.16936774 215.31317126 15.26437638 206.95923703 6.12109375 198.83813477 C-11.55461379 183.1423065 -28.23719502 177.68855087 -51.66845703 178.82421875 C-63.90255704 179.92675629 -74.65831296 186.17910932 -83.875 194 C-86.3125 196.0625 -86.3125 196.0625 -88.3125 196.0625 C-93.37912751 183.98227685 -98.34665908 171.92563945 -101.9375 159.3125 C-102.3080249 158.02049683 -102.3080249 158.02049683 -102.68603516 156.70239258 C-104.74748509 149.15458195 -104.74748509 149.15458195 -104.3125 145.0625 C-102.03399565 142.78399565 -95.37209002 143.81378506 -92.1015625 143.80859375 C-87.92202713 143.67925959 -85.94920856 143.6012534 -82.671875 140.828125 C-81.89328125 139.91546875 -81.1146875 139.0028125 -80.3125 138.0625 C-75.47729533 133.90019273 -70.39445997 131.70490602 -64.375 129.75 C-63.20614258 129.35458008 -63.20614258 129.35458008 -62.01367188 128.95117188 C-60.11679017 128.31111977 -58.21511851 127.68529188 -56.3125 127.0625 C-58.16875 126.4746875 -58.16875 126.4746875 -60.0625 125.875 C-80.87240622 118.81914117 -96.88092731 107.81093956 -107.3125 88.0625 C-115.38873342 69.85176979 -116.95556264 50.43642307 -110.125 31.5625 C-101.59731313 10.68092071 -87.82764381 -2.20935529 -67.3125 -10.9375 C-45.74605164 -19.66330252 -17.9041566 -13.94043518 0 0 Z M-62.3125 9.0625 C-63.1271875 9.39121094 -63.941875 9.71992188 -64.78125 10.05859375 C-76.87871314 15.45391296 -85.33596447 24.95768846 -90.59375 36.99609375 C-95.69132908 50.4136501 -95.67012409 63.61537558 -90.09375 76.984375 C-83.98830583 88.99174854 -74.87756822 98.13603908 -62.3125 103.0625 C-62.33344727 102.38783691 -62.35439453 101.71317383 -62.37597656 101.01806641 C-62.46004586 97.90803433 -62.51144444 94.79824241 -62.5625 91.6875 C-62.59601562 90.62660156 -62.62953125 89.56570312 -62.6640625 88.47265625 C-62.75697719 80.9001089 -62.02499768 73.3979172 -56.8996582 67.41259766 C-50.82004711 62.02905093 -44.87117002 61.61562772 -37.0625 61.75390625 C-25.05069391 62.74237779 -12.94637734 68.49517597 -3.08984375 75.28125 C-0.44153386 77.33242987 -0.44153386 77.33242987 2.6875 77.0625 C3.16948463 75.81358386 3.64795677 74.56331192 4.125 73.3125 C4.39183594 72.61640625 4.65867187 71.9203125 4.93359375 71.203125 C8.94747395 59.80620091 7.75930268 45.87177947 2.6875 35.0625 C-3.7500243 21.66440255 -13.78368293 13.54252717 -27.3125 8.0625 C-32.70596692 6.19601087 -37.48321142 5.70876235 -43.125 5.75 C-43.92035156 5.75491455 -44.71570313 5.7598291 -45.53515625 5.76489258 C-51.55690764 5.88481103 -56.75093886 6.64400422 -62.3125 9.0625 Z " fill="#FEDB4A" transform="translate(119.3125,155.9375)"/>
<path d="M0 0 C4.14413986 1.70042103 7.24383235 4.64149405 10.5625 7.5625 C11.82335107 8.65855103 13.08507833 9.75359489 14.34765625 10.84765625 C15.27989014 11.65614014 15.27989014 11.65614014 16.23095703 12.48095703 C18.61880319 14.53135433 21.05414785 16.51933221 23.5 18.5 C27.75149534 21.95003525 31.91710035 25.48673122 36.0625 29.0625 C41.60804853 33.8410791 47.25052419 38.46783991 53 43 C54.87600798 44.49873916 56.75102468 45.99872005 58.625 47.5 C59.88183594 48.50546875 59.88183594 48.50546875 61.1640625 49.53125 C62.07285156 50.25828125 62.07285156 50.25828125 63 51 C61.92155335 58.72009981 55.84782592 62.48650148 49.9375 67 C42.96047547 71.96423521 35.13940348 76.28686551 27 79 C27.61237235 79.00423194 28.2247447 79.00846388 28.85567379 79.01282406 C43.73556257 79.11599477 58.61540404 79.22461187 73.49520779 79.33933926 C80.69088024 79.39468764 87.88655765 79.44817222 95.08227539 79.49731445 C101.35187803 79.54013658 107.62144392 79.58640949 113.89098984 79.63687855 C117.21263457 79.66349547 120.53427101 79.68783428 123.85595512 79.70907402 C127.55823763 79.7330399 131.26042217 79.76310479 134.96264648 79.79467773 C136.07178909 79.8004332 137.1809317 79.80618866 138.32368469 79.81211853 C139.82767319 79.82680176 139.82767319 79.82680176 141.36204529 79.84178162 C142.23867042 79.84823417 143.11529554 79.85468672 144.01848507 79.8613348 C146 80 146 80 147 81 C146.69477182 88.68020104 144.43690465 95.61134962 141.98168945 102.8371582 C141.31872077 104.79413727 140.67507204 106.75671709 140.03320312 108.72070312 C137.33227525 116.8464962 134.06031661 124.45790246 130 132 C129.48937012 131.60111572 128.97874023 131.20223145 128.45263672 130.79125977 C110.55653719 116.92333653 93.41929472 112.98863214 71 115 C66.60433582 115.79157333 62.97655428 116.99601767 59 119 C57.66775391 119.60134766 57.66775391 119.60134766 56.30859375 120.21484375 C49.50722341 123.55264285 44.00143981 128.16965945 38.33984375 133.11328125 C30.85237432 139.64087516 23.18806018 146.06225992 14 150 C13.175 150.391875 12.35 150.78375 11.5 151.1875 C-1.06870834 155.27233021 -15.77678794 153.96049684 -27.6875 148.625 C-35.41666857 144.60780156 -41.56948217 138.7842944 -48 133 C-62.27158878 120.26063701 -76.06976681 115.57751943 -95 114 C-95 103.11 -95 92.22 -95 81 C-116.78 81 -138.56 81 -161 81 C-160.67 78.69 -160.34 76.38 -160 74 C-160.66 74 -161.32 74 -162 74 C-162.98729533 61.35713476 -158.06005342 50.18831672 -149.96484375 40.5859375 C-144.90345687 35.24782576 -139.56754412 31.29378356 -133 28 C-132.21625 27.58621094 -131.4325 27.17242187 -130.625 26.74609375 C-120.24601123 22.09176597 -104.89481303 21.94230093 -94.2265625 25.95703125 C-81.39320308 31.96844698 -74.20632955 37.7618194 -67 50 C-66.59652344 50.62003906 -66.19304687 51.24007812 -65.77734375 51.87890625 C-60.21789039 60.65142772 -59.64326823 69.89259982 -60 80 C-54.06 80 -48.12 80 -42 80 C-42.48300807 67.24858693 -43.63732974 56.08124073 -48 44 C-47.30777344 44.52787109 -47.30777344 44.52787109 -46.6015625 45.06640625 C-45.20434001 46.1239877 -43.80141672 47.17405746 -42.39453125 48.21875 C-40.81822371 49.39133767 -39.25268544 50.57856611 -37.69921875 51.78125 C-29.68143559 57.76506198 -20.94127482 61.60107809 -11 63 C-10.87689453 61.76628662 -10.75378906 60.53257324 -10.62695312 59.26147461 C-9.97438134 53.40538501 -8.97765203 47.6200446 -7.96875 41.81640625 C-7.77277222 40.67968979 -7.57679443 39.54297333 -7.37487793 38.37181091 C-6.96269015 35.98567819 -6.54913438 33.59978142 -6.13427734 31.21411133 C-5.49789564 27.55038492 -4.86783841 23.88560767 -4.23828125 20.22070312 C-3.83631641 17.89837188 -3.43398571 15.57610393 -3.03125 13.25390625 C-2.84268433 12.15502579 -2.65411865 11.05614532 -2.45983887 9.92396545 C-2.19451355 8.40614723 -2.19451355 8.40614723 -1.92382812 6.85766602 C-1.76918091 5.96547867 -1.61453369 5.07329132 -1.4552002 4.15406799 C-1 2 -1 2 0 0 Z " fill="#FEC638" transform="translate(350,220)"/>
<path d="M0 0 C0.83144531 0.42410156 1.66289063 0.84820312 2.51953125 1.28515625 C8.12752823 4.3777383 12.63213678 8.22975721 17.3125 12.56640625 C26.07649822 20.50241045 34.85834483 26.73747283 46 31 C46.8559375 31.33902344 47.711875 31.67804688 48.59375 32.02734375 C64.35745269 37.30623802 81.41174735 34.19278233 96.19921875 27.56640625 C103.0262592 23.91134187 108.60523376 19.03227211 114.35498047 13.92016602 C127.06272001 2.65892846 137.50633068 -4 155 -4 C155 40.88 155 85.76 155 132 C142.563125 132.165 130.12625 132.33 117.3125 132.5 C113.43153564 132.57283203 109.55057129 132.64566406 105.55200195 132.72070312 C87.56867993 132.91675655 72.25394368 132.65232514 56 124 C54.54267316 123.30060388 53.08166743 122.60881766 51.61694336 121.92504883 C48.35893294 120.40276991 45.17552928 118.76971625 42.00537109 117.07275391 C40.62704438 116.33543134 39.24427392 115.60637472 37.85791016 114.88427734 C20.27776683 105.71995379 4.71625113 94.2394594 -10 81 C-10.8647998 80.227771 -10.8647998 80.227771 -11.74707031 79.43994141 C-18.24420079 73.62207277 -24.42593599 67.72310352 -30 61 C-30.7940625 60.10539062 -31.588125 59.21078125 -32.40625 58.2890625 C-44.33106991 44.77528656 -53.99389343 29.56869585 -63 14 C-47.05079459 -2.22706614 -21.69661377 -11.82447032 0 0 Z " fill="#FFDB49" transform="translate(100,350)"/>
<path d="M0 0 C2.05393842 5.0064749 2.89362688 9.65629179 2 15 C0.00632374 19.57512959 -2.6422479 23.41762839 -7 26 C-5.63875 26.7734375 -5.63875 26.7734375 -4.25 27.5625 C-0.08304783 30.33061716 2.09640391 34.07552346 3.578125 38.87109375 C5.315035 47.63605623 4.12288785 53.54585518 -0.53125 61.04296875 C-3.17188776 66.35935913 -3.50445844 72.14748335 -4 78 C-7.42673696 76.47260916 -10.05841282 74.45668829 -12.9375 72.0625 C-13.90429688 71.26070313 -14.87109375 70.45890625 -15.8671875 69.6328125 C-18.55610589 67.3787413 -21.23387857 65.11164538 -23.90844727 62.84057617 C-25.55205342 61.44636148 -27.19955645 60.05686673 -28.84765625 58.66796875 C-30.87410551 56.96021739 -32.87607274 55.23358534 -34.87109375 53.48828125 C-35.73863281 52.74964844 -36.60617187 52.01101562 -37.5 51.25 C-38.2528125 50.59515625 -39.005625 49.9403125 -39.78125 49.265625 C-41.93712407 47.81390478 -41.93712407 47.81390478 -44.5 47.87890625 C-48.15862112 49.51956916 -49.60439276 52.32062558 -51.5 55.6875 C-51.88873291 56.36014893 -52.27746582 57.03279785 -52.67797852 57.72583008 C-61.99290797 74.34338426 -63.30006703 91.3596799 -64 110 C-64.71285156 109.79503906 -65.42570312 109.59007812 -66.16015625 109.37890625 C-67.11792969 109.10949219 -68.07570313 108.84007812 -69.0625 108.5625 C-70.00222656 108.29566406 -70.94195312 108.02882813 -71.91015625 107.75390625 C-88.79439271 103.63423793 -107.62158792 104.84649728 -123 113 C-123.84433594 113.4434375 -124.68867188 113.886875 -125.55859375 114.34375 C-142.82372461 124.04023535 -153.88015062 139.55513653 -159.26513672 158.40258789 C-160.22295899 161.92468887 -161.12797657 165.4556467 -162 169 C-167.23000919 167.08145391 -170.56624049 164.59442197 -173.3125 159.625 C-174.99020018 153.21923568 -173.8138265 148.71617341 -170.8125 142.9375 C-170.22082031 141.77089844 -169.62914062 140.60429687 -169.01953125 139.40234375 C-167.51178385 136.86221224 -166.15521189 134.89346865 -164.26171875 132.69140625 C-161.78555053 130.33073258 -161.78555053 130.33073258 -162 128 C-163.75120777 126.65144983 -163.75120777 126.65144983 -166 125.3125 C-173.83166314 120.21453059 -180.6785415 115.05021261 -184 106 C-185.2466932 100.09353548 -183.95541533 95.2095905 -180.7890625 90.1328125 C-174.21758815 82.29869679 -163.56688654 78.73159787 -154 76 C-153.01 76 -152.02 76 -151 76 C-151.39832031 74.94683594 -151.79664063 73.89367187 -152.20703125 72.80859375 C-156.45543459 61.33937755 -159.8932312 50.15544136 -160.1875 37.8125 C-160.27826068 35.21199706 -160.27826068 35.21199706 -161 33 C-162.87167499 31.48376329 -164.61292238 30.77753224 -166.8671875 29.9453125 C-172.33666234 27.52111303 -175.89996479 21.36675665 -178 16 C-178.1875 13.125 -178.1875 13.125 -178 11 C-168.65752062 7.49657023 -160.33501635 7.24564507 -151.125 11.25 C-150.073125 11.62125 -150.073125 11.62125 -149 12 C-148.401875 11.7009375 -147.80375 11.401875 -147.1875 11.09375 C-139.00816806 7.00408403 -129.26248798 9.35590245 -121.01171875 11.93359375 C-111.93164995 15.13767175 -104.09929684 19.89973524 -96 25 C-94.33607286 26.00455176 -92.67056234 27.00652164 -91 28 C-90.48953125 27.10539062 -89.9790625 26.21078125 -89.453125 25.2890625 C-84.0510064 16.18285043 -77.73775557 7.86887778 -68 3 C-62.62432414 2.50910744 -57.68681061 2.26798785 -52.6875 4.4375 C-44.53004049 12.21554279 -40.7485799 20.57812401 -37 31 C-32.13684959 29.40764102 -27.36252194 27.6377185 -22.5859375 25.8046875 C-20 25 -20 25 -16 25 C-16.165 24.484375 -16.33 23.96875 -16.5 23.4375 C-17.41390987 18.98218939 -17.43543646 15.25508157 -15.9375 10.9375 C-12.36268705 5.51762231 -6.82029099 0 0 0 Z " fill="#5EB106" transform="translate(330,120)"/>
<path d="M0 0 C1.57803258 1.33603397 3.14182255 2.68916289 4.6875 4.0625 C5.32429688 4.61679688 5.96109375 5.17109375 6.6171875 5.7421875 C17.80002165 16.12979789 25.94654231 32.77226708 26.8671875 48.04296875 C26.87381505 50.39243378 26.82756792 52.7176593 26.6875 55.0625 C28.0075 54.7325 29.3275 54.4025 30.6875 54.0625 C28.8125 58.8125 28.8125 58.8125 27.6875 61.0625 C26.58727684 67.52457018 28.09416837 72.15383792 31.640625 77.56640625 C36.59469842 83.60772861 42.95600332 88.17941241 49.6875 92.0625 C48.60712365 95.51970431 47.03310845 98.00870145 44.8125 100.8125 C40.82870325 105.9972943 38.10245817 111.10592307 37.1875 117.625 C37.92450498 122.69190923 39.3107065 127.24555079 43.51171875 130.45703125 C45.6188675 131.70441352 45.6188675 131.70441352 48.6875 133.0625 C49.0175 132.4025 49.3475 131.7425 49.6875 131.0625 C49.3575 135.3525 49.0275 139.6425 48.6875 144.0625 C4.4675 144.0625 -39.7525 144.0625 -85.3125 144.0625 C-78.88461614 133.34936024 -67.6196508 130.72336857 -56.3125 127.0625 C-58.16875 126.4746875 -58.16875 126.4746875 -60.0625 125.875 C-80.87240622 118.81914117 -96.88092731 107.81093956 -107.3125 88.0625 C-115.38873342 69.85176979 -116.95556264 50.43642307 -110.125 31.5625 C-101.59731313 10.68092071 -87.82764381 -2.20935529 -67.3125 -10.9375 C-45.74605164 -19.66330252 -17.9041566 -13.94043518 0 0 Z M-62.3125 9.0625 C-63.1271875 9.39121094 -63.941875 9.71992188 -64.78125 10.05859375 C-76.87871314 15.45391296 -85.33596447 24.95768846 -90.59375 36.99609375 C-95.69132908 50.4136501 -95.67012409 63.61537558 -90.09375 76.984375 C-83.98830583 88.99174854 -74.87756822 98.13603908 -62.3125 103.0625 C-62.33344727 102.38783691 -62.35439453 101.71317383 -62.37597656 101.01806641 C-62.46004586 97.90803433 -62.51144444 94.79824241 -62.5625 91.6875 C-62.59601562 90.62660156 -62.62953125 89.56570312 -62.6640625 88.47265625 C-62.75697719 80.9001089 -62.02499768 73.3979172 -56.8996582 67.41259766 C-50.82004711 62.02905093 -44.87117002 61.61562772 -37.0625 61.75390625 C-25.05069391 62.74237779 -12.94637734 68.49517597 -3.08984375 75.28125 C-0.44153386 77.33242987 -0.44153386 77.33242987 2.6875 77.0625 C3.16948463 75.81358386 3.64795677 74.56331192 4.125 73.3125 C4.39183594 72.61640625 4.65867187 71.9203125 4.93359375 71.203125 C8.94747395 59.80620091 7.75930268 45.87177947 2.6875 35.0625 C-3.7500243 21.66440255 -13.78368293 13.54252717 -27.3125 8.0625 C-32.70596692 6.19601087 -37.48321142 5.70876235 -43.125 5.75 C-43.92035156 5.75491455 -44.71570313 5.7598291 -45.53515625 5.76489258 C-51.55690764 5.88481103 -56.75093886 6.64400422 -62.3125 9.0625 Z " fill="#A1DA32" transform="translate(119.3125,155.9375)"/>
<path d="M0 0 C4.86163642 0.27880352 7.65894144 2.88430115 11.125 6 C12.28313703 7.01123856 13.4420021 8.02164389 14.6015625 9.03125 C15.17551758 9.53527344 15.74947266 10.03929687 16.34082031 10.55859375 C18.68343809 12.59373433 21.08806467 14.54781774 23.5 16.5 C28.1045358 20.24787798 32.64019191 24.06983444 37.1640625 27.9140625 C40.5805954 30.81244823 44.02504838 33.671551 47.5 36.5 C48.37011719 37.22832031 49.24023438 37.95664063 50.13671875 38.70703125 C52.27472861 40.41918922 54.39006376 41.97092102 56.64453125 43.51171875 C57.86725303 44.40355599 59.08991027 45.29548174 60.3125 46.1875 C60.90675781 46.56003906 61.50101563 46.93257812 62.11328125 47.31640625 C64.04242969 48.77254233 64.98937856 49.79239354 66 52 C66.07047892 56.00881149 65.27941064 59.78504057 64.46304321 63.69900513 C63.7554538 67.21522039 63.18371999 70.75259594 62.59306335 74.2900238 C61.91014229 78.36002959 61.1977109 82.4246773 60.48608398 86.48974609 C59.93262764 89.65284641 59.38308587 92.81660984 58.83398438 95.98046875 C58.48199958 98.00003988 58.12979418 100.01957258 57.77734375 102.0390625 C57.53201149 103.45150742 57.53201149 103.45150742 57.28172302 104.89248657 C57.12808792 105.76795135 56.97445282 106.64341614 56.81616211 107.54541016 C56.68229599 108.3114859 56.54842987 109.07756165 56.4105072 109.86685181 C56.01258117 111.93462358 55.53129496 113.96282463 55 116 C40.17319912 115.0434322 29.83654006 107.65865527 19 98 C19.27714844 98.80824219 19.55429687 99.61648438 19.83984375 100.44921875 C20.20207031 101.51785156 20.56429687 102.58648437 20.9375 103.6875 C21.47697266 105.27111328 21.47697266 105.27111328 22.02734375 106.88671875 C23.88475766 112.83193518 24.12543912 118.13054167 24.0625 124.3125 C24.041875 127.179375 24.02125 130.04625 24 133 C18.06 133 12.12 133 6 133 C5.7525 130.40125 5.505 127.8025 5.25 125.125 C3.67712895 111.29314066 -2.19229018 98.34194377 -12.48828125 88.66015625 C-25.91832717 78.8714306 -39.75261209 76.50272334 -56 78 C-64.1858923 79.90867037 -71.44352021 83.78234337 -78 89 C-78.67546875 89.52722656 -79.3509375 90.05445313 -80.046875 90.59765625 C-88.2595142 97.83942144 -94.43005702 109.99181222 -95.31640625 120.890625 C-95.40295589 122.34348788 -95.48408847 123.79667518 -95.5625 125.25 C-95.706875 127.8075 -95.85125 130.365 -96 133 C-102.27 133 -108.54 133 -115 133 C-115.48531207 112.94043446 -111.71868427 96.35540366 -98 81 C-97.39542969 80.31421875 -96.79085937 79.6284375 -96.16796875 78.921875 C-84.73170935 66.71698717 -68.51600261 58.74683545 -51.82666016 57.88818359 C-39.61832146 57.57570664 -29.44655753 58.62055189 -18 63 C-18.03480469 61.741875 -18.06960938 60.48375 -18.10546875 59.1875 C-18.53473855 37.11262581 -14.28498137 19.10435409 -1 1 C-0.67 0.67 -0.34 0.34 0 0 Z " fill="#FDC637" transform="translate(284,167)"/>
<path d="M0 0 C5.85576747 4.85192162 6.65043161 14.01444366 7.6875 21.1875 C9.35226097 41.49758386 4.25936842 60.96205263 -8.4375 77.09765625 C-21.54930744 92.53888631 -39.59068348 102.17406517 -59.8828125 103.87109375 C-60.93082031 103.93490234 -60.93082031 103.93490234 -62 104 C-62.65742188 104.05285156 -63.31484375 104.10570313 -63.9921875 104.16015625 C-77.99173125 104.76768362 -94.87656832 100.58093301 -106 92 C-106.51949219 92.63808594 -107.03898437 93.27617188 -107.57421875 93.93359375 C-108.27160156 94.75988281 -108.96898438 95.58617188 -109.6875 96.4375 C-110.37199219 97.26121094 -111.05648437 98.08492188 -111.76171875 98.93359375 C-114.24022612 101.22177944 -115.69136813 101.68130516 -119 102 C-123.33039645 95.85363085 -124.7219515 91.57312391 -124 84 C-123.54625 83.01 -123.0925 82.02 -122.625 81 C-121.64785697 78.06690282 -121.64785697 78.06690282 -123.203125 76.1328125 C-124.32656264 74.78363739 -125.45026467 73.4346824 -126.57421875 72.0859375 C-129.02697743 68.49751795 -128.77620882 66.2338663 -128 62 C-124.06945424 58.16506469 -119.30975051 55.96842212 -114.4296875 53.5859375 C-113.59398224 53.17139313 -112.75827698 52.75684875 -111.89724731 52.32974243 C-109.22596139 51.00574882 -106.55076625 49.68991206 -103.875 48.375 C-100.39159628 46.65693529 -96.91003025 44.93519404 -93.4296875 43.2109375 C-92.56035583 42.78061218 -91.69102417 42.35028687 -90.79534912 41.90692139 C-84.12895026 38.59361449 -77.53779481 35.15117415 -70.9616394 31.66293335 C-63.45673816 27.6905103 -55.86950916 23.89341783 -48.26217651 20.12179565 C-36.83496346 14.45513001 -25.42436245 8.77057372 -14.18945312 2.72851562 C-8.9913534 -0.06033827 -5.84862589 -1.67103597 0 0 Z " fill="#FE5C5B" transform="translate(216,1)"/>
<path d="M0 0 C2.89453125 1.51171875 2.89453125 1.51171875 5.8125 3.6875 C6.35890137 4.08686768 6.90530273 4.48623535 7.46826172 4.89770508 C8.67294203 5.77943493 9.87261179 6.66804074 11.06787109 7.5625 C13.08769055 9.06524159 15.12799738 10.53562098 17.17578125 12 C28.19879307 19.88792569 39.1102115 27.92954963 50 36 C50.60634277 36.44891602 51.21268555 36.89783203 51.83740234 37.36035156 C57.02166242 41.20356799 62.13626567 45.09319099 67.125 49.1875 C70.18358227 51.66049927 73.21185136 53.79881669 76.625 55.75 C83.54097474 59.73621536 89.73721972 64.71917353 96.07421875 69.54882812 C99.68128216 72.26692966 103.36981637 74.87077937 107.05859375 77.4765625 C109.55050547 79.43198619 109.90887585 80.52159819 110.5 83.625 C109.73486462 88.78966379 106.62733498 91.42314483 103 95 C102.50628906 95.515625 102.01257813 96.03125 101.50390625 96.5625 C97.61070815 100.28379065 93.08049715 102.76935559 88.375 105.3125 C87.72917969 105.66248047 87.08335937 106.01246094 86.41796875 106.37304688 C82.9729791 108.17367549 79.86499043 109.48911046 76 110 C75.54560547 109.18595703 75.54560547 109.18595703 75.08203125 108.35546875 C72.56674772 104.06013842 70.68485228 101.14164676 66 99 C66.7425 98.484375 67.485 97.96875 68.25 97.4375 C72.01674603 94.09879329 74.64908465 90.79757513 75.28125 85.7578125 C75.33963212 81.42294032 74.87206371 77.25131057 74 73 C67.62440901 75.79783216 62.937616 78.15708593 59 84 C57.95023036 87.14930893 57.89868405 89.38814456 57.9375 92.6875 C57.94652344 93.68136719 57.95554687 94.67523438 57.96484375 95.69921875 C57.97644531 96.45847656 57.98804688 97.21773438 58 98 C57.13117188 98.25394531 56.26234375 98.50789063 55.3671875 98.76953125 C54.21476562 99.11371094 53.06234375 99.45789063 51.875 99.8125 C50.73804688 100.14894531 49.60109375 100.48539062 48.4296875 100.83203125 C44.95733634 101.9163579 44.95733634 101.9163579 41.7578125 103.69921875 C39 105 39 105 36 104 C34.96458497 101.66734086 34.08698742 99.40226633 33.25 97 C30.13322489 88.66354153 26.32818762 81.09039304 18 77 C13.05373054 76.11990516 8.08080412 75.87051666 3.58203125 78.3125 C1.5034973 79.88728471 1.5034973 79.88728471 -0.28125 81.58984375 C-2.18432934 83.15123384 -3.59869848 83.58398504 -6 84 C-18.36269355 63.71558048 -22.74111037 43.58515768 -17.56103516 20.16894531 C-15.0901933 10.6167438 -11.7241746 -1.55899835 0 0 Z " fill="#DF0F5A" transform="translate(256,47)"/>
<path d="M0 0 C1.17461625 -0.00445668 1.17461625 -0.00445668 2.37296212 -0.0090034 C5.0053355 -0.01769723 7.63766344 -0.01919922 10.27005005 -0.02069092 C12.15398252 -0.02531856 14.03791405 -0.03034315 15.92184448 -0.03573608 C21.04580573 -0.04886618 26.16975386 -0.05530609 31.29372931 -0.05974674 C34.49338934 -0.06267613 37.69304578 -0.06678066 40.89270401 -0.07125092 C50.89919801 -0.08492667 60.90568381 -0.09459328 70.9121865 -0.09845281 C82.47186157 -0.10293566 94.03141852 -0.12049377 105.59105766 -0.1494534 C114.52106116 -0.17105045 123.45103137 -0.18115601 132.38106072 -0.18249393 C137.71716927 -0.18354326 143.05316679 -0.18947841 148.38924789 -0.20731354 C153.40758585 -0.22376032 158.42572891 -0.22596625 163.44408417 -0.21717453 C165.28675736 -0.21640237 167.12944089 -0.22077039 168.97208786 -0.23063278 C171.48618283 -0.24330073 173.99958213 -0.23750383 176.51367188 -0.22705078 C177.24412338 -0.23510719 177.97457489 -0.24316359 178.72716129 -0.25146413 C184.43225547 -0.19592456 187.45694511 1.42766459 191.63381958 5.14044189 C194.73165154 8.68082128 194.72362183 12.29499401 194.66506958 16.78887939 C194.19124325 20.75059402 192.76147803 22.92738993 190.38381958 26.14044189 C185.13579647 30.07645922 180.2698911 30.28870131 173.8886261 30.28088379 C172.75159688 30.28534047 172.75159688 30.28534047 171.59159738 30.28988719 C169.04991483 30.29856336 166.50827944 30.30008152 163.96658325 30.30157471 C162.14486084 30.30620362 160.32313939 30.31122838 158.50141907 30.31661987 C153.55093095 30.32973822 148.60045639 30.33618765 143.6499536 30.34063053 C140.55697621 30.34356198 137.46400252 30.34766691 134.37102699 30.3521347 C124.69343686 30.36580773 115.01585519 30.37547552 105.33825606 30.3793366 C94.16744273 30.38381795 82.99675173 30.4013703 71.8259756 30.43033719 C63.1906103 30.45195222 54.55527943 30.46204077 45.91988736 30.46337771 C40.7625806 30.46442581 35.60538886 30.47033464 30.44811058 30.48819733 C25.59636865 30.50467502 20.74482825 30.50683495 15.89306831 30.49805832 C14.11412389 30.4972878 12.33516865 30.50163258 10.55625153 30.51151657 C8.12391625 30.52423665 5.69229467 30.51835925 3.25996399 30.50793457 C2.55936598 30.51599097 1.85876796 30.52404738 1.1369397 30.53234792 C-5.21408801 30.46887595 -9.67731556 28.82641134 -14.49118042 24.64044189 C-17.79990321 20.74782684 -17.95312241 17.33324581 -17.90524292 12.42559814 C-17.32030892 7.80145776 -14.13658873 4.04860528 -10.61618042 1.14044189 C-7.01959769 -0.05841902 -3.74338028 -0.00441355 0 0 Z " fill="#F79D42" transform="translate(167.61618041992188,481.85955810546875)"/>
<path d="M0 0 C0.97001953 0.01345459 1.94003906 0.02690918 2.93945312 0.04077148 C21.22465104 0.42402184 33.89111402 6.50252113 47.52490234 18.61132812 C60.3666694 29.99205582 72.68104057 38.74665635 90.4375 38.625 C91.69203979 38.61871582 91.69203979 38.61871582 92.97192383 38.61230469 C99.08781835 38.50040316 104.41864807 37.79579485 110.0625 35.3125 C110.72894531 35.04566406 111.39539063 34.77882813 112.08203125 34.50390625 C119.33678432 31.28434128 125.21340494 25.84799748 131.09765625 20.62890625 C149.31541528 4.58978312 166.83262127 -1.00417673 191.0625 0.3125 C205.9931137 2.12277463 217.68922261 10.95734936 228.60888672 20.69091797 C242.90965147 33.42638162 255.61498143 39.37569008 275.0625 38.3125 C287.88857002 36.88341142 298.39773087 30.72710228 307.75 22.0625 C325.70237984 5.5596912 342.61983396 -0.9395655 367.01220703 0.07421875 C381.56881493 1.21134451 393.48144106 8.67197963 404.0625 18.3125 C402.83722971 22.36531712 401.36369506 25.75610764 399.0625 29.3125 C395.99230886 27.91446653 393.63876301 26.22890298 391.0625 24.0625 C377.41442731 13.26154181 363.86224089 12.16143641 347.0625 13.3125 C342.95663436 14.0723369 339.69820311 15.28466559 336.0625 17.3125 C334.70511719 18.05886719 334.70511719 18.05886719 333.3203125 18.8203125 C327.49667238 22.28868543 322.60867584 26.38431245 317.65234375 30.98046875 C300.83865122 46.12040004 283.69824457 52.59586313 261.22900391 51.47216797 C245.18745946 50.28993109 232.65005727 40.93897953 221.01171875 30.60546875 C205.3518948 16.81904479 191.23915597 12.20242106 170.44238281 13.13037109 C158.24372906 14.063916 147.73464279 22.7869027 139.0625 30.8125 C122.72570892 45.86230914 105.52156023 52.34311627 83.45263672 51.48730469 C66.68563427 50.26103566 53.6823472 40.51332103 41.65673828 29.734375 C29.64272709 19.01927528 18.58854717 12.94431306 2.25 13 C1.31607422 12.98388672 0.38214844 12.96777344 -0.58007812 12.95117188 C-15.28210403 12.94096922 -27.30935531 19.40900154 -37.9375 29.3125 C-40.80983318 26.58580625 -42.49102126 24.04289255 -43.9375 20.3125 C-41.69231365 13.1908261 -32.09565695 8.75327543 -25.875 5.5 C-17.47721819 1.29351616 -9.32167738 -0.18158054 0 0 Z " fill="#E1135A" transform="translate(75.9375,333.6875)"/>
<path d="M0 0 C1.57803258 1.33603397 3.14182255 2.68916289 4.6875 4.0625 C5.32429688 4.61679688 5.96109375 5.17109375 6.6171875 5.7421875 C17.49965964 15.85079495 24.11295974 30.6185719 26.6875 45.0625 C26.8628125 46.01511719 27.038125 46.96773437 27.21875 47.94921875 C27.5232532 50.98156313 27.53185657 53.12714522 26.6875 56.0625 C24.43732413 58.73322897 22.0279067 60.77742093 19.29296875 62.9453125 C13.36840572 67.75957511 9.58094359 74.58491243 5.6875 81.0625 C3.7075 80.0725 3.7075 80.0725 1.6875 79.0625 C1.89246094 78.38703125 2.09742187 77.7115625 2.30859375 77.015625 C2.57800781 76.12359375 2.84742187 75.2315625 3.125 74.3125 C3.39183594 73.43078125 3.65867187 72.5490625 3.93359375 71.640625 C7.84579845 58.26210117 6.46853681 44.87161808 0.40234375 32.42578125 C-6.69137356 19.52272442 -17.04060424 12.6250072 -30.69140625 7.890625 C-34.91744318 6.92415269 -38.80582825 6.71842978 -43.125 6.75 C-43.92035156 6.75491455 -44.71570313 6.7598291 -45.53515625 6.76489258 C-51.555007 6.88477318 -56.75401403 7.6398207 -62.3125 10.0625 C-63.13878906 10.4028125 -63.96507812 10.743125 -64.81640625 11.09375 C-77.62334404 16.88131273 -85.75015784 26.85032678 -90.6875 39.875 C-94.81373626 52.3595097 -94.1778463 64.79558003 -89.09375 76.984375 C-83.4434675 88.09659725 -75.10713745 97.29560477 -63.29125977 101.83984375 C-60.65062659 103.47146509 -60.32206479 104.85134829 -59.390625 107.78125 C-59.08769531 108.71324219 -58.78476562 109.64523437 -58.47265625 110.60546875 C-58.17230469 111.58128906 -57.87195312 112.55710937 -57.5625 113.5625 C-57.24667969 114.53832031 -56.93085937 115.51414062 -56.60546875 116.51953125 C-54.3125 123.69622565 -54.3125 123.69622565 -54.3125 126.0625 C-71.28823769 123.82357397 -87.40020473 115.48439912 -98.3125 102.0625 C-111.0776541 84.80470283 -116.58870827 65.48587689 -113.625 44.0625 C-110.23700569 26.1814189 -100.69263415 10.18204416 -86.30859375 -0.91796875 C-60.17235888 -18.53522224 -25.5390171 -19.88504795 0 0 Z " fill="#FECDB2" transform="translate(119.3125,155.9375)"/>
<path d="M0 0 C6.52018555 4.34679037 10.08884821 10.32574595 14 17 C14.41507812 17.67804688 14.83015625 18.35609375 15.2578125 19.0546875 C21.07203703 28.74506171 20 34.71008844 20 47 C-13 47 -46 47 -80 47 C-79.505 44.03 -79.505 44.03 -79 41 C-79.66 41 -80.32 41 -81 41 C-81.98729533 28.35713476 -77.06005342 17.18831672 -68.96484375 7.5859375 C-63.90345687 2.24782576 -58.56754412 -1.70621644 -52 -5 C-50.824375 -5.62068359 -50.824375 -5.62068359 -49.625 -6.25390625 C-33.27964339 -13.5837771 -14.48496322 -9.0614716 0 0 Z " fill="#5EB206" transform="translate(269,253)"/>
<path d="M0 0 C4.14413986 1.70042103 7.24383235 4.64149405 10.5625 7.5625 C11.82335107 8.65855103 13.08507833 9.75359489 14.34765625 10.84765625 C15.27989014 11.65614014 15.27989014 11.65614014 16.23095703 12.48095703 C18.61880319 14.53135433 21.05414785 16.51933221 23.5 18.5 C27.75149534 21.95003525 31.91710035 25.48673122 36.0625 29.0625 C41.60804853 33.8410791 47.25052419 38.46783991 53 43 C54.87600798 44.49873916 56.75102468 45.99872005 58.625 47.5 C59.88183594 48.50546875 59.88183594 48.50546875 61.1640625 49.53125 C61.76992188 50.0159375 62.37578125 50.500625 63 51 C61.92155335 58.72009981 55.84782592 62.48650148 49.9375 67 C40.42622447 73.75248014 29.23897192 80.27330339 17.35205078 80.22705078 C15.40070724 80.22682419 15.40070724 80.22682419 13.40994263 80.22659302 C12.00506433 80.21638202 10.60018763 80.20595007 9.1953125 80.1953125 C7.74657385 80.19157846 6.29783266 80.18873333 4.84909058 80.18673706 C1.0514824 80.17913136 -2.74597078 80.15950952 -6.54351807 80.1373291 C-10.42482405 80.11680438 -14.30615529 80.10772122 -18.1875 80.09765625 C-25.79173704 80.07626045 -33.39584673 80.04216191 -41 80 C-41.0617189 79.04339478 -41.12343781 78.08678955 -41.18702698 77.10119629 C-41.31403236 75.21515686 -41.31403236 75.21515686 -41.44360352 73.29101562 C-41.52594742 72.0456604 -41.60829132 70.80030518 -41.69313049 69.51721191 C-42.06008311 65.31135209 -42.84025462 61.57429984 -43.9375 57.5 C-44.10701172 56.8503125 -44.27652344 56.200625 -44.45117188 55.53125 C-45.48438059 51.63412814 -46.68832595 47.81150128 -48 44 C-47.30777344 44.52787109 -47.30777344 44.52787109 -46.6015625 45.06640625 C-45.20434001 46.1239877 -43.80141672 47.17405746 -42.39453125 48.21875 C-40.81822371 49.39133767 -39.25268544 50.57856611 -37.69921875 51.78125 C-29.68143559 57.76506198 -20.94127482 61.60107809 -11 63 C-10.87689453 61.76628662 -10.75378906 60.53257324 -10.62695312 59.26147461 C-9.97438134 53.40538501 -8.97765203 47.6200446 -7.96875 41.81640625 C-7.67478333 40.11133156 -7.67478333 40.11133156 -7.37487793 38.37181091 C-6.96269015 35.98567819 -6.54913438 33.59978142 -6.13427734 31.21411133 C-5.49789564 27.55038492 -4.86783841 23.88560767 -4.23828125 20.22070312 C-3.83631641 17.89837188 -3.43398571 15.57610393 -3.03125 13.25390625 C-2.84268433 12.15502579 -2.65411865 11.05614532 -2.45983887 9.92396545 C-2.28295532 8.91208664 -2.10607178 7.90020782 -1.92382812 6.85766602 C-1.76918091 5.96547867 -1.61453369 5.07329132 -1.4552002 4.15406799 C-1 2 -1 2 0 0 Z " fill="#FDC737" transform="translate(350,220)"/>
<path d="M0 0 C13.06582489 11.3990701 23.28668115 27.21401429 25.1875 44.75 C26.57873661 66.22666824 22.71434676 86.14788941 8.1875 102.75 C7.5275 102.75 6.8675 102.75 6.1875 102.75 C4.86747444 100.19113496 3.55636218 97.62832932 2.25 95.0625 C1.87681641 94.34126953 1.50363281 93.62003906 1.11914062 92.87695312 C-2.64802131 85.44444444 -2.64802131 85.44444444 -2.8125 81.75 C-1.88671875 79.35546875 -1.88671875 79.35546875 -0.5 76.9375 C3.54615868 69.83063675 4.52296966 63.01990289 4.4375 55 C4.44523437 54.25878906 4.45296875 53.51757812 4.4609375 52.75390625 C4.44724942 48.94177582 4.32919103 45.97953409 2.1875 42.75 C1.671875 43.636875 1.15625 44.52375 0.625 45.4375 C-2.42575002 50.00280677 -6.4516264 53.09699241 -11.75 54.5625 C-12.7709375 54.6553125 -12.7709375 54.6553125 -13.8125 54.75 C-16.61909287 49.7143025 -17.38195525 44.22796326 -16.44921875 38.53125 C-14.77731544 33.19757074 -11.50159834 29.73294449 -6.8125 26.75 C-6.1525 26.75 -5.4925 26.75 -4.8125 26.75 C-11.25863074 15.73785999 -21.71026561 10.11461685 -33.6875 6.375 C-47.93285275 3.49593923 -61.5390819 6.46174011 -73.64453125 14.22265625 C-76.52520233 16.252102 -79.18659965 18.40051021 -81.8125 20.75 C-85.80682374 19.35378594 -88.80156046 17.48451549 -92.125 14.875 C-93.00800781 14.19695312 -93.89101563 13.51890625 -94.80078125 12.8203125 C-96.8125 10.75 -96.8125 10.75 -96.8125 6.75 C-89.31447748 -4.3340333 -72.93652221 -11.34340406 -60.375 -14.5 C-38.7429214 -18.23552378 -17.40602594 -13.51384514 0 0 Z " fill="#F9B991" transform="translate(414.8125,82.25)"/>
<path d="M0 0 C12.70048434 10.87781941 24.89642317 25.84701759 26.55859375 43.19140625 C26.76231368 49.19635882 26.64761925 55.18218509 26.55859375 61.19140625 C20.61859375 61.19140625 14.67859375 61.19140625 8.55859375 61.19140625 C8.31109375 58.59265625 8.06359375 55.99390625 7.80859375 53.31640625 C6.2357227 39.48454691 0.36630357 26.53335002 -9.9296875 16.8515625 C-23.35973342 7.06283685 -37.19401834 4.69412959 -53.44140625 6.19140625 C-61.62729855 8.10007662 -68.88492646 11.97374962 -75.44140625 17.19140625 C-76.116875 17.71863281 -76.79234375 18.24585938 -77.48828125 18.7890625 C-85.70092045 26.03082769 -91.87146327 38.18321847 -92.7578125 49.08203125 C-92.84436214 50.53489413 -92.92549472 51.98808143 -93.00390625 53.44140625 C-93.14828125 55.99890625 -93.29265625 58.55640625 -93.44140625 61.19140625 C-99.71140625 61.19140625 -105.98140625 61.19140625 -112.44140625 61.19140625 C-112.92671832 41.13184071 -109.16009052 24.54680991 -95.44140625 9.19140625 C-94.83683594 8.505625 -94.23226562 7.81984375 -93.609375 7.11328125 C-69.70950049 -18.39289847 -27.46930956 -21.51014285 0 0 Z " fill="#F6B98D" transform="translate(281.44140625,238.80859375)"/>
<path d="M0 0 C12.5608692 -0.06776135 25.12161711 -0.12280791 37.68262768 -0.15543652 C43.51513138 -0.17109614 49.34750361 -0.19234008 55.17993164 -0.22631836 C60.80795396 -0.25890085 66.43584977 -0.27685078 72.06395912 -0.28463173 C74.21177474 -0.2901772 76.3595834 -0.30100605 78.5073452 -0.31719017 C81.51440805 -0.33894939 84.52094733 -0.34196752 87.52807617 -0.34057617 C88.86164406 -0.35675491 88.86164406 -0.35675491 90.22215271 -0.3732605 C96.35623196 -0.3425248 99.60073319 0.86731839 104.25 5 C107.34783196 8.54037938 107.33980225 12.15455212 107.28125 16.6484375 C106.72315949 21.31469424 104.6172551 24.6772867 100.95320129 27.67402649 C96.74801557 29.56213513 92.99525617 29.39530965 88.4362793 29.34057617 C87.47969925 29.34101425 86.5231192 29.34145233 85.53755188 29.34190369 C82.38289825 29.33981746 79.22877929 29.31649386 76.07421875 29.29296875 C73.88418366 29.28737222 71.69414481 29.28310239 69.50410461 29.28010559 C63.74516395 29.26866141 57.98645093 29.23919766 52.2276001 29.20599365 C46.34903035 29.17528372 40.47042375 29.16159826 34.59179688 29.14648438 C23.0610819 29.1143277 11.53059551 29.06156302 0 29 C0 19.43 0 9.86 0 0 Z " fill="#F4832C" transform="translate(255,482)"/>
<path d="M0 0 C0.97001953 0.01345459 1.94003906 0.02690918 2.93945312 0.04077148 C21.22465104 0.42402184 33.89111402 6.50252113 47.52490234 18.61132812 C60.3666694 29.99205582 72.68104057 38.74665635 90.4375 38.625 C91.69203979 38.61871582 91.69203979 38.61871582 92.97192383 38.61230469 C99.08781835 38.50040316 104.41864807 37.79579485 110.0625 35.3125 C110.72894531 35.04566406 111.39539063 34.77882813 112.08203125 34.50390625 C119.33678432 31.28434128 125.21340494 25.84799748 131.09765625 20.62890625 C138.58756515 14.0347049 146.16113689 8.83541484 155.0625 4.3125 C155.75472656 3.94253906 156.44695312 3.57257813 157.16015625 3.19140625 C160.37552937 1.71445464 163.59213852 1.17548736 167.1015625 0.921875 C167.83262207 0.86894287 168.56368164 0.81601074 169.31689453 0.76147461 C172.56456279 0.56410055 175.81085256 0.42693905 179.0625 0.3125 C179.0625 4.2725 179.0625 8.2325 179.0625 12.3125 C178.11890625 12.38726562 177.1753125 12.46203125 176.203125 12.5390625 C161.47855862 14.04700002 151.63109011 19.91551056 140.55908203 29.63183594 C124.21952104 43.96478417 107.77461735 52.72935229 85.57421875 51.7265625 C67.80344805 50.38466503 54.48745586 41.23496621 41.65673828 29.734375 C29.64272709 19.01927528 18.58854717 12.94431306 2.25 13 C1.31607422 12.98388672 0.38214844 12.96777344 -0.58007812 12.95117188 C-15.28210403 12.94096922 -27.30935531 19.40900154 -37.9375 29.3125 C-40.80983318 26.58580625 -42.49102126 24.04289255 -43.9375 20.3125 C-41.69231365 13.1908261 -32.09565695 8.75327543 -25.875 5.5 C-17.47721819 1.29351616 -9.32167738 -0.18158054 0 0 Z " fill="#FE5F5B" transform="translate(75.9375,333.6875)"/>
<path d="M0 0 C13.80002739 11.38950583 22.50103624 24.93839856 25.41650391 42.78271484 C25.62919922 43.98798828 25.84189453 45.19326172 26.06103516 46.43505859 C27.22894922 55.33209497 27.22894922 55.33209497 25.12353516 59.09130859 C23.35400391 61.03271484 23.35400391 61.03271484 21.40869141 62.82958984 C17.93041235 66.23966735 15.77943795 70.55886205 13.41650391 74.78271484 C11.43650391 73.79271484 11.43650391 73.79271484 9.41650391 72.78271484 C9.62146484 72.10724609 9.82642578 71.43177734 10.03759766 70.73583984 C10.30701172 69.84380859 10.57642578 68.95177734 10.85400391 68.03271484 C11.12083984 67.15099609 11.38767578 66.26927734 11.66259766 65.36083984 C15.57480235 51.98231601 14.19754072 38.59183293 8.13134766 26.14599609 C1.03763035 13.24293926 -9.31160033 6.34522204 -22.96240234 1.61083984 C-27.18843927 0.64436754 -31.07682434 0.43864463 -35.39599609 0.47021484 C-36.19134766 0.47512939 -36.98669922 0.48004395 -37.80615234 0.48510742 C-43.82600309 0.60498803 -49.02501012 1.36003554 -54.58349609 3.78271484 C-55.40978516 4.12302734 -56.23607422 4.46333984 -57.08740234 4.81396484 C-69.89434014 10.60152757 -78.02115393 20.57054162 -82.95849609 33.59521484 C-87.08473235 46.07972454 -86.44884239 58.51579487 -81.36474609 70.70458984 C-75.75631371 81.73450687 -67.31729876 91.33496363 -55.39990234 95.55615234 C-52.5981173 97.44811042 -52.51979432 99.68211317 -51.83349609 102.90771484 C-51.59115234 104.00341797 -51.34880859 105.09912109 -51.09912109 106.22802734 C-50.92896484 107.07107422 -50.75880859 107.91412109 -50.58349609 108.78271484 C-64.51682171 106.692716 -76.1495039 97.81395639 -84.83349609 86.97021484 C-95.0920168 72.3234884 -98.1346209 57.34627659 -96.58349609 39.78271484 C-93.74207594 23.66442075 -84.5929541 9.44057889 -71.33349609 0.03271484 C-50.10215742 -14.38769918 -21.14573555 -16.25541743 0 0 Z " fill="#F9B991" transform="translate(111.58349609375,162.21728515625)"/>
<path d="M0 0 C0.99 0 1.98 0 3 0 C-0.44916824 21.04332008 -4.00459237 42.05226552 -8 63 C-19.70341864 61.94632624 -27.62845093 58.05481844 -37 51 C-37.79792969 50.4534375 -38.59585937 49.906875 -39.41796875 49.34375 C-45.41242802 45.08637859 -48.59394843 40.44865251 -52 34 C-52.76797001 32.72743431 -53.53845553 31.45638004 -54.3125 30.1875 C-55.82416286 27.33213681 -56.61448869 25.18046829 -57 22 C-51.89522593 19.25854726 -47.07340928 17.34581268 -41.50390625 15.78125 C-39.05626535 15.01755549 -36.82250009 14.0813757 -34.5 13 C-30.57149946 11.17407721 -26.62946288 9.96268699 -22.46875 8.78125 C-19.28165141 7.7726745 -16.33804733 6.39058992 -13.3125 4.98046875 C-9.94872724 3.55427456 -6.48647515 2.58499854 -2.96875 1.61328125 C-1.01797952 1.1729154 -1.01797952 1.1729154 0 0 Z " fill="#FEDB49" transform="translate(347,220)"/>
<path d="M0 0 C13.06582489 11.3990701 23.28668115 27.21401429 25.1875 44.75 C26.57873661 66.22666824 22.71434676 86.14788941 8.1875 102.75 C7.5275 102.75 6.8675 102.75 6.1875 102.75 C4.30001069 99.49781518 2.87177382 96.46388309 2.1875 92.75 C3.2256195 90.14336806 4.64274837 88.35268664 6.38671875 86.16015625 C14.24880684 75.63757848 16.29620604 61.5211708 15.1875 48.75 C12.38055933 31.84112387 5.14456045 16.8350856 -8.95703125 6.4296875 C-24.65932084 -3.665972 -42.14721318 -7.05209011 -60.57421875 -3.53125 C-63.43477294 -2.60390694 -66.09238335 -1.52782224 -68.8125 -0.25 C-69.65425781 0.08902344 -70.49601562 0.42804688 -71.36328125 0.77734375 C-78.7326526 3.99786218 -84.13230312 9.18859051 -89.8125 14.75 C-93.16844194 13.4867158 -95.44540296 12.49084921 -97.8125 9.75 C-92.70774017 -1.32636567 -80.28146537 -7.06986306 -69.5625 -11.625 C-46.03427517 -20.18760678 -19.62053065 -15.23316199 0 0 Z " fill="#FECDB2" transform="translate(414.8125,82.25)"/>
<path d="M0 0 C3.9520518 0.58172725 6.22095053 2.55157741 9.25 5.0625 C10.14203125 5.79597656 11.0340625 6.52945312 11.953125 7.28515625 C12.62859375 7.85105469 13.3040625 8.41695313 14 9 C12.92155335 16.72009981 6.84782592 20.48650148 0.9375 25 C-8.57377553 31.75248014 -19.76102808 38.27330339 -31.64794922 38.22705078 C-33.59929276 38.22682419 -33.59929276 38.22682419 -35.59005737 38.22659302 C-36.99493567 38.21638202 -38.39981237 38.20595007 -39.8046875 38.1953125 C-41.25342615 38.19157846 -42.70216734 38.18873333 -44.15090942 38.18673706 C-47.9485176 38.17913136 -51.74597078 38.15950952 -55.54351807 38.1373291 C-59.42482405 38.11680438 -63.30615529 38.10772122 -67.1875 38.09765625 C-74.79173704 38.07626045 -82.39584673 38.04216191 -90 38 C-90.0617189 37.04339478 -90.12343781 36.08678955 -90.18702698 35.10119629 C-90.27169724 33.84383667 -90.35636749 32.58647705 -90.44360352 31.29101562 C-90.56711937 29.42298279 -90.56711937 29.42298279 -90.69313049 27.51721191 C-91.06008311 23.31135209 -91.84025462 19.57429984 -92.9375 15.5 C-93.10701172 14.8503125 -93.27652344 14.200625 -93.45117188 13.53125 C-94.48438059 9.63412814 -95.68832595 5.81150128 -97 2 C-96.53851563 2.35191406 -96.07703125 2.70382812 -95.6015625 3.06640625 C-94.20434001 4.1239877 -92.80141672 5.17405746 -91.39453125 6.21875 C-89.81822371 7.39133767 -88.25268544 8.57856611 -86.69921875 9.78125 C-73.48018701 19.64684489 -58.27974231 23.13620884 -42 22 C-28.80914773 20.0389906 -17.52973981 15.09534125 -7 7 C-6.01 6.2575 -5.02 5.515 -4 4.75 C-1.79344702 2.97282198 -1.79344702 2.97282198 0 0 Z " fill="#F3832C" transform="translate(399,262)"/>
<path d="M0 0 C12.70048434 10.87781941 24.89642317 25.84701759 26.55859375 43.19140625 C26.76215067 49.19155381 26.67511964 55.19032267 26.55859375 61.19140625 C23.91859375 61.19140625 21.27859375 61.19140625 18.55859375 61.19140625 C18.460625 60.03125 18.36265625 58.87109375 18.26171875 57.67578125 C16.50078686 38.5942414 11.1436745 22.45057057 -3.44140625 9.19140625 C-17.58032831 -1.26367755 -33.03620144 -5.96762939 -50.5703125 -4.40625 C-61.69245521 -2.68910789 -71.36211674 1.51013506 -80.44140625 8.19140625 C-81.07304687 8.62839844 -81.7046875 9.06539062 -82.35546875 9.515625 C-94.25799496 18.56480588 -100.91476299 34.19089302 -103.171875 48.53515625 C-103.6024723 52.77872386 -103.56494991 56.92915013 -103.44140625 61.19140625 C-106.41140625 61.19140625 -109.38140625 61.19140625 -112.44140625 61.19140625 C-113.07944114 41.24690831 -109.06981985 24.44576941 -95.44140625 9.19140625 C-94.83683594 8.505625 -94.23226562 7.81984375 -93.609375 7.11328125 C-69.70950049 -18.39289847 -27.46930956 -21.51014285 0 0 Z " fill="#FDCDB0" transform="translate(281.44140625,238.80859375)"/>
<path d="M0 0 C3.24198482 11.12649192 4.68999015 26.46898113 -0.75390625 37.07421875 C-1.37072266 38.02748047 -1.37072266 38.02748047 -2 39 C-2.40089844 39.62519531 -2.80179687 40.25039062 -3.21484375 40.89453125 C-9.5144841 49.27579189 -20.05674218 54.39581343 -30 57 C-33.6875 57.25 -33.6875 57.25 -36 57 C-39.77630849 44.91581283 -40.36662621 33.03284591 -36 21 C-34.32505067 17.9698644 -32.38094367 15.5050687 -30 13 C-29.49726563 12.46890625 -28.99453125 11.9378125 -28.4765625 11.390625 C-21.82933715 5.10008004 -9.38265137 -2.7703087 0 0 Z " fill="#5DB105" transform="translate(510,49)"/>
<path d="M0 0 C4.74626203 0.32878192 7.27481553 2.53628798 10.8125 5.5625 C11.78832031 6.38878906 12.76414062 7.21507812 13.76953125 8.06640625 C14.50558594 8.70449219 15.24164063 9.34257812 16 10 C14.9368977 12.24665462 13.79284292 14.32299806 12.44921875 16.41796875 C3.12889301 31.07009947 -0.88144272 48.10031324 2.6875 65.31640625 C3.44505979 67.93799144 3.44505979 67.93799144 4.34375 70.1875 C5 72 5 72 5 75 C3.2578125 75.6953125 3.2578125 75.6953125 1 76 C-1.0078125 74.7421875 -1.0078125 74.7421875 -3.125 72.875 C-7.74250806 69.0411622 -12.55230226 66.46795493 -18 64 C-18.67987786 40.09619172 -15.50938295 20.77292999 -1 1 C-0.67 0.67 -0.34 0.34 0 0 Z " fill="#F2832B" transform="translate(284,167)"/>
<path d="M0 0 C7.34345341 0.66369404 11.11620387 4.80625454 16 10 C20.61077574 16.30821537 21.79074858 22.34555375 21 30 C19.54032265 35.24376982 17.49454491 40.16822382 15 45 C7.65654659 44.33630596 3.88379613 40.19374546 -1 35 C-5.41387251 28.96117704 -6.6422072 23.32341544 -6 16 C-4.76086875 10.30854199 -2.82180848 5.10612963 0 0 Z " fill="#A1DB32" transform="translate(273,10)"/>
<path d="M0 0 C3.24255379 8.55030552 5.30463438 18.5751312 1.5625 27.3125 C-2.20872286 33.64708075 -9.0237338 39.62172743 -16 42 C-18.875 41.6875 -18.875 41.6875 -21 41 C-24.4664092 32.76727814 -26.08808078 23.17723898 -23.15625 14.50390625 C-18.61423565 6.63210435 -9.42894604 -2.28196341 0 0 Z " fill="#A1DB32" transform="translate(24,46)"/>
<path d="M0 0 C0.46148437 0.35191406 0.92296875 0.70382812 1.3984375 1.06640625 C2.79565999 2.1239877 4.19858328 3.17405746 5.60546875 4.21875 C7.18177629 5.39133767 8.74731456 6.57856611 10.30078125 7.78125 C18.46638659 13.87538426 27.41285278 16.82820429 37 20 C36.85764543 21.72945653 36.71095618 23.45855654 36.5625 25.1875 C36.48128906 26.15042969 36.40007812 27.11335938 36.31640625 28.10546875 C36.02650639 30.75751558 35.52320735 33.38396323 35 36 C25.76 36 16.52 36 7 36 C6.87625 33.03 6.87625 33.03 6.75 30 C6.02337742 19.63773023 3.37550739 9.80864927 0 0 Z " fill="#F59E42" transform="translate(302,264)"/>
<path d="M0 0 C4.83647042 4.20562645 9.44311414 9.49181141 11.875 15.5 C11.875 16.82 11.875 18.14 11.875 19.5 C3.82039898 22.37909143 -4.2059377 24.54058451 -12.375 20.9375 C-18.41814886 17.48252802 -22.60638577 11.93645859 -25.125 5.5 C-25.3125 2.625 -25.3125 2.625 -25.125 0.5 C-16.76230859 -2.55952125 -8.24233047 -3.95631863 0 0 Z " fill="#A0DA32" transform="translate(177.125,130.5)"/>
<path d="M0 0 C5.4568031 0.79695578 8.26589264 3.08149227 12 7 C15.53042314 12.01092317 15.84334611 17.06106789 15 23 C13.92395209 26.15361228 12.58449465 29.07151436 11 32 C5.13148197 31.22162763 1.98605262 28.17415848 -2 24 C-4.66782509 19.77594361 -4.65507328 14.85972968 -4 10 C-2.89552668 6.55212241 -1.53287537 3.27788974 0 0 Z " fill="#A1DB32" transform="translate(54,174)"/>
<path d="M0 0 C2.5836609 5.63238077 2.65511895 10.89661334 2 17 C-0.33127725 22.12880994 -4.1312286 25.30478726 -9 28 C-11.9375 28.8125 -11.9375 28.8125 -14 29 C-16.80659287 23.9643025 -17.56945525 18.47796326 -16.63671875 12.78125 C-14.93164995 7.34176672 -11.60683939 4.20813635 -7 1 C-4.53721199 -0.231394 -2.7204945 -0.07159196 0 0 Z " fill="#5EB206" transform="translate(415,108)"/>
<path d="M0 0 C3.410734 1.13691133 3.63146566 1.5160113 5.1875 4.5625 C7.82303696 10.23904114 7.71418788 14.56335901 5.9375 20.625 C3.6770346 24.5625849 1.06439072 27.83232495 -3 30 C-5.1171875 29.80078125 -5.1171875 29.80078125 -7 29 C-10.80815558 23.78141643 -11.87052006 18.41697645 -11 12 C-8.58725127 7.17450255 -4.68134011 2.79142554 0 0 Z " fill="#A2D933" transform="translate(103,73)"/>
<path d="M0 0 C2.32500063 5.66718904 3.35778897 11.32210562 1.1953125 17.1796875 C-1.83385691 22.71575573 -6.16657274 25.72780361 -12 28 C-12.99 28 -13.98 28 -15 28 C-15 27.34 -15 26.68 -15 26 C-16.65 26 -18.3 26 -20 26 C-18.68 25.67 -17.36 25.34 -16 25 C-16.165 24.484375 -16.33 23.96875 -16.5 23.4375 C-17.41390987 18.98218939 -17.43543646 15.25508157 -15.9375 10.9375 C-12.36268705 5.51762231 -6.82029099 0 0 0 Z " fill="#A2D134" transform="translate(330,120)"/>
<path d="M0 0 C4.78162597 4.28697501 7.13826588 8.44242683 7.5625 14.875 C7.3676036 22.05368421 2.86976759 26.21797597 -2 31 C-5.71097537 29.76300821 -5.95812034 28.83913266 -7.6875 25.4375 C-10.00513852 20.46305635 -10.94996281 17.4406961 -10 12 C-7.46901033 7.01940297 -4.61841539 3.18269061 0 0 Z " fill="#9ED931" transform="translate(260,180)"/>
<path d="M0 0 C2.5 1.79296875 2.5 1.79296875 5 4.1875 C6.29357422 5.425 6.29357422 5.425 7.61328125 6.6875 C8.40089844 7.450625 9.18851563 8.21375 10 9 C10.59167969 9.495 11.18335938 9.99 11.79296875 10.5 C13.1875 11.6875 13.1875 11.6875 15 14 C14.8 19.2 14.8 19.2 13 21 C9.69685526 21.45716841 7.13607582 21.71168686 4.22363281 19.88720703 C2.43723991 18.34940437 0.77533353 16.74530537 -0.875 15.0625 C-1.45507812 14.49853516 -2.03515625 13.93457031 -2.6328125 13.35351562 C-4.10420132 11.91822396 -5.55390149 10.46076908 -7 9 C-7.33 8.67 -7.66 8.34 -8 8 C-8.29573841 5.19048514 -8.38243085 3.58371024 -6.8125 1.1875 C-4.315007 -0.44878852 -2.95579228 -0.36786995 0 0 Z " fill="#E1115B" transform="translate(196,30)"/>
<path d="M0 0 C3.0625 0.3125 3.0625 0.3125 4.51953125 1.40625 C6.6989316 4.09877499 8.2490664 7.0528208 9.8125 10.125 C10.14121094 10.72892578 10.46992188 11.33285156 10.80859375 11.95507812 C12.38199065 15.03880328 13.0676178 17.15695546 12.953125 20.63671875 C12.0625 23.3125 12.0625 23.3125 9.0625 25.3125 C6.6875 25.4375 6.6875 25.4375 4.0625 24.3125 C2.0321303 21.84047888 0.56526174 19.1277387 -0.9375 16.3125 C-1.33453125 15.62027344 -1.7315625 14.92804688 -2.140625 14.21484375 C-4.36719279 10.14586951 -5.61655739 7.06590174 -4.9375 2.3125 C-2.9375 0.3125 -2.9375 0.3125 0 0 Z " fill="#E0115B" transform="translate(161.9375,49.6875)"/>
<path d="M0 0 C2.9375 0.875 2.9375 0.875 4.9375 3.875 C4.75757489 8.77581726 1.99276761 12.26510514 -0.75 16.125 C-1.17216797 16.76179688 -1.59433594 17.39859375 -2.02929688 18.0546875 C-4.27484244 21.23841726 -5.41781447 22.66037177 -9.20703125 23.921875 C-12.0625 23.875 -12.0625 23.875 -15.0625 21.875 C-15.66796489 17.59017154 -15.38801651 15.43458813 -13.19921875 11.671875 C-12.39097656 10.66640625 -11.58273437 9.6609375 -10.75 8.625 C-9.54923828 7.10132812 -9.54923828 7.10132812 -8.32421875 5.546875 C-3.50764622 -0.14316923 -3.50764622 -0.14316923 0 0 Z " fill="#C60554" transform="translate(295.0625,103.125)"/>
<path d="M0 0 C2 2 2 2 2.6875 4.6875 C1.5703734 10.0700191 -2.58482824 12.09176086 -7 15 C-7.65355469 15.43957031 -8.30710937 15.87914063 -8.98046875 16.33203125 C-12.36200821 18.44456032 -15.00741652 19.77633568 -19 19 C-20.8125 17.8125 -20.8125 17.8125 -22 16 C-22.29296875 13.57421875 -22.29296875 13.57421875 -22 11 C-20.53125 9.375 -20.53125 9.375 -18.5 8 C-17.77039063 7.50242187 -17.04078125 7.00484375 -16.2890625 6.4921875 C-15.53367187 5.99976562 -14.77828125 5.50734375 -14 5 C-13.30648438 4.50757812 -12.61296875 4.01515625 -11.8984375 3.5078125 C-7.87546836 0.75852471 -5.04104645 -0.84017441 0 0 Z " fill="#C60554" transform="translate(273,82)"/>
<path d="M0 0 C3.0625 0.3125 3.0625 0.3125 4.7109375 1.51171875 C7.41385424 5.11300378 6.87093984 9.95886005 7.0625 14.3125 C7.11535156 15.17617187 7.16820312 16.03984375 7.22265625 16.9296875 C7.44500182 22.82667872 7.44500182 22.82667872 5.703125 25.0390625 C4.0625 26.3125 4.0625 26.3125 1.5625 26.6875 C-0.9375 26.3125 -0.9375 26.3125 -2.6875 25.1875 C-5.65102295 20.74221558 -5.09953716 14.71617919 -5.125 9.5625 C-5.13917969 8.24765625 -5.15335937 6.9328125 -5.16796875 5.578125 C-4.86815041 1.32985153 -4.25858239 0.45304068 0 0 Z " fill="#E0105B" transform="translate(131.9375,61.6875)"/>
<path d="M0 0 C1.98244892 0.78341119 3.96088859 1.57697486 5.9375 2.375 C7.03964844 2.81585938 8.14179688 3.25671875 9.27734375 3.7109375 C12 5 12 5 13 7 C8.71 7 4.42 7 0 7 C0 4.69 0 2.38 0 0 Z " fill="#62B107" transform="translate(309,293)"/>
<path d="M0 0 C0.66 0.33 1.32 0.66 2 1 C-2.62 5.62 -7.24 10.24 -12 15 C-12 10.09687565 -8.29800369 7.38658643 -5 4 C-3.37458956 2.61667196 -1.72614587 1.25537882 0 0 Z " fill="#E9BB87" transform="translate(202,245)"/>
</svg>
