<?xml version="1.0" encoding="UTF-8"?>
<svg version="1.1" xmlns="http://www.w3.org/2000/svg" width="512" height="512">
<path d="M0 0 C18.89096654 18.8661915 32.6704945 43.93561999 32.90689087 71.0227356 C32.90673546 73.3029093 32.88814639 75.5822624 32.86425781 77.86230469 C32.85727875 79.04900253 32.85727875 79.04900253 32.85015869 80.25967407 C32.47455605 134.90435447 13.1662607 190.08493935 -21.51074219 232.48730469 C-22.64962891 233.92976562 -22.64962891 233.92976562 -23.81152344 235.40136719 C-28.0757011 240.7481599 -32.55401216 245.66627134 -37.45605469 250.43261719 C-39.28097006 252.25753256 -40.935715 254.12071757 -42.57324219 256.11230469 C-45.19799189 259.23632743 -48.05413502 261.87761093 -51.17089844 264.50683594 C-52.8300665 265.91117352 -54.46036728 267.34994122 -56.06933594 268.81152344 C-76.76484266 287.19836806 -104.83913267 305.88577065 -131.85839844 313.42089844 C-135.29529424 314.80274314 -136.24939883 316.43603474 -138.19824219 319.54980469 C-150.83866873 337.78439363 -174.63913622 346.35062317 -195.76074219 350.29980469 C-228.99938462 355.80523429 -267.34314089 352.41642048 -295.73681641 332.82470703 C-300.85086031 328.96911489 -307.86083954 323.46659482 -310.34838867 317.46704102 C-311.93389975 314.76657696 -313.51985366 314.28023399 -316.40136719 313.11230469 C-317.91452515 312.48001953 -317.91452515 312.48001953 -319.45825195 311.83496094 C-320.54807373 311.39023437 -321.63789551 310.94550781 -322.76074219 310.48730469 C-341.18142017 302.66484315 -358.39395199 293.37028532 -374.51074219 281.48730469 C-375.08614746 281.06739258 -375.66155273 280.64748047 -376.25439453 280.21484375 C-383.44836784 274.93830221 -390.1664653 269.24906367 -396.66699219 263.14355469 C-399.30116217 260.68306624 -401.98787677 258.30055709 -404.69824219 255.92480469 C-412.8556926 248.58962528 -419.86475673 240.19309043 -426.51074219 231.48730469 C-427.21457031 230.56763916 -427.21457031 230.56763916 -427.93261719 229.62939453 C-452.50466851 197.27774489 -469.16622571 159.46676474 -476.51074219 119.48730469 C-476.67300293 118.62911133 -476.83526367 117.77091797 -477.00244141 116.88671875 C-479.33601601 104.01232266 -479.83419115 91.1626415 -479.94824219 78.11230469 C-479.96656601 76.98776886 -479.96656601 76.98776886 -479.98526001 75.84051514 C-480.36017859 48.56602971 -470.23903214 24.41295277 -451.51855469 4.61621094 C-449.78464568 2.77772765 -448.20938145 0.89859793 -446.63574219 -1.07519531 C-443.30637104 -4.99318456 -439.34783512 -8.08776825 -435.33105469 -11.27441406 C-433.63417905 -12.62110346 -431.95547828 -13.99188213 -430.31542969 -15.40722656 C-413.90499804 -29.37668002 -393.99183565 -38.69958603 -374.51074219 -47.51269531 C-373.77162598 -47.84881836 -373.03250977 -48.18494141 -372.27099609 -48.53125 C-335.89545478 -64.80427209 -293.15787249 -72.43913663 -253.51074219 -74.51269531 C-252.61613281 -74.56312988 -251.72152344 -74.61356445 -250.79980469 -74.66552734 C-164.04590916 -79.38347458 -64.65916324 -62.74641629 0 0 Z " fill="#DBDADC" transform="translate(479.5107421875,117.5126953125)"/>
<path d="M0 0 C0.74233887 0.35819824 1.48467773 0.71639648 2.24951172 1.08544922 C33.03903914 16.12571692 61.27315419 39.67572328 73.3203125 72.609375 C75.96864894 81.09145953 78.39257102 89.00426491 74.40234375 97.3359375 C69.55685491 105.66748958 63.11535874 112.72706278 56.39306641 119.57177734 C55.16060448 120.83534242 53.95868702 122.12854339 52.76171875 123.42578125 C13.04172518 165.53944675 -55.91198724 181.39242951 -111.50244141 184.76635742 C-113.99829498 184.95005732 -113.99829498 184.95005732 -116.39770508 185.51635742 C-119.56671957 186.10532615 -122.56159839 186.12974974 -125.78515625 186.1328125 C-126.43371582 186.13431305 -127.08227539 186.1358136 -127.75048828 186.13735962 C-129.85455549 186.13971043 -131.95844984 186.13345921 -134.0625 186.125 C-134.78573456 186.12278442 -135.50896912 186.12056885 -136.25411987 186.11828613 C-181.89999863 185.9541491 -227.61653146 179.62973762 -270 162 C-270.7724707 161.68450195 -271.54494141 161.36900391 -272.34082031 161.04394531 C-304.5886213 147.78483668 -333.86351939 127.50696601 -353 98 C-353.56976563 97.16210938 -354.13953125 96.32421875 -354.7265625 95.4609375 C-357.98589515 89.16222717 -356.33505691 81.30727003 -354.5 74.75 C-345.59601607 48.72297006 -327.02623771 27.6992621 -304 13 C-303.44086914 12.63390625 -302.88173828 12.2678125 -302.30566406 11.890625 C-220.05983764 -41.65164366 -97.66029767 -43.94484789 0 0 Z " fill="#FEB657" transform="translate(396,136)"/>
<path d="M0 0 C0.67675781 0.33370605 1.35351562 0.66741211 2.05078125 1.01123047 C33.91217744 16.86064949 62.7435908 40.46087244 75.34765625 74.65625 C82.08117462 95.70151172 79.46862878 115.84934969 71 136 C70.67 136 70.34 136 70 136 C69.91363281 135.319375 69.82726562 134.63875 69.73828125 133.9375 C65.55897892 105.10414817 50.00124408 82.29039841 26.95703125 64.90234375 C17.74629086 58.14531907 8.14724227 52.23560811 -2 47 C-3.07773682 46.4416748 -3.07773682 46.4416748 -4.17724609 45.87207031 C-28.95330682 33.20599089 -56.13758682 25.09674952 -83.51367188 20.42919922 C-85.83177383 20.02903983 -88.14200229 19.59852604 -90.453125 19.16015625 C-161.88127337 6.13857295 -248.05667433 16.36508063 -309.43798828 57.49707031 C-312.00071991 59.2764241 -314.50508877 61.12709832 -317 63 C-317.83273437 63.60972656 -318.66546875 64.21945313 -319.5234375 64.84765625 C-338.71648481 79.47536706 -356.66223342 100.58136569 -361 125 C-361.44935783 128.3297415 -361.78906804 131.64690924 -362 135 C-364.98311178 131.57203822 -366.27517222 127.82445623 -367.625 123.5625 C-367.8415625 122.90701172 -368.058125 122.25152344 -368.28125 121.57617188 C-374.79463754 101.53343306 -371.26001688 79.39340261 -361.96923828 60.83984375 C-351.46924999 40.90837984 -334.5721871 25.27963686 -316 13 C-315.44570313 12.63197266 -314.89140625 12.26394531 -314.3203125 11.88476562 C-297.33141923 0.77817695 -278.37276253 -8.0010354 -259 -14 C-258.21318848 -14.24943359 -257.42637695 -14.49886719 -256.61572266 -14.75585938 C-177.15149424 -39.87430816 -81.92001331 -39.02718084 0 0 Z " fill="#C6C4CA" transform="translate(402,92)"/>
<path d="M0 0 C0.74233887 0.35819824 1.48467773 0.71639648 2.24951172 1.08544922 C19.25892682 9.39431843 33.92611974 20.42049371 48 33 C45 34 45 34 43.33691406 33.23071289 C42.73588867 32.8155542 42.13486328 32.40039551 41.515625 31.97265625 C40.83580566 31.51415283 40.15598633 31.05564941 39.45556641 30.58325195 C38.36381104 29.83047974 38.36381104 29.83047974 37.25 29.0625 C18.21375038 16.38041087 -2.20939035 7.80987149 -24 1 C-24.69270996 0.77715332 -25.38541992 0.55430664 -26.09912109 0.32470703 C-43.72526235 -5.33712404 -61.89502564 -8.23995342 -80.22045898 -10.61889648 C-82.20853919 -10.89148262 -84.19223759 -11.19682519 -86.17211914 -11.52368164 C-96.70193124 -13.16000762 -107.04957199 -13.27262076 -117.6862793 -13.20581055 C-120.66529034 -13.1876355 -123.64398622 -13.18530126 -126.62304688 -13.18554688 C-151.2847919 -13.16274394 -151.2847919 -13.16274394 -175.75 -10.375 C-176.76312256 -10.20605225 -177.77624512 -10.03710449 -178.82006836 -9.86303711 C-229.67441669 -1.07636413 -290.25327435 15.68079247 -322.28173828 59.76416016 C-328.7943343 69.00548433 -334.48508063 78.14136288 -337.6875 89.0625 C-337.90172607 89.78622803 -338.11595215 90.50995605 -338.33666992 91.25561523 C-340.34490069 98.47566429 -340.88025762 105.52154435 -341 113 C-344.26503668 109.85838395 -347.06662504 106.73826478 -349.625 103 C-350.19476563 102.175 -350.76453125 101.35 -351.3515625 100.5 C-351.89554687 99.675 -352.43953125 98.85 -353 98 C-353.55558594 97.1853125 -354.11117187 96.370625 -354.68359375 95.53125 C-357.97802657 89.19655426 -356.34904309 81.35724731 -354.5 74.75 C-345.59601607 48.72297006 -327.02623771 27.6992621 -304 13 C-303.44086914 12.63390625 -302.88173828 12.2678125 -302.30566406 11.890625 C-220.05983764 -41.65164366 -97.66029767 -43.94484789 0 0 Z " fill="#FEA835" transform="translate(396,136)"/>
<path d="M0 0 C0.57363281 0.15855469 1.14726562 0.31710937 1.73828125 0.48046875 C4.82350166 1.32785099 7.91165912 2.16405811 11 3 C11.68626465 3.18755859 12.3725293 3.37511719 13.07958984 3.56835938 C21.90433036 5.97457585 30.74511472 8.25793444 39.6875 10.1875 C40.38552734 10.34210693 41.08355469 10.49671387 41.80273438 10.65600586 C56.93869423 13.82539873 71.90245402 14.40615684 87.3125 14.375 C88.3261261 14.37445618 89.3397522 14.37391235 90.38409424 14.37335205 C106.57447162 14.33349077 122.13477383 13.48941925 138 10 C139.07411133 9.76442383 140.14822266 9.52884766 141.25488281 9.28613281 C151.30261163 7.02206432 161.07608156 4.49954393 170.6875 0.76953125 C173 0 173 0 176 0 C171.39012197 13.13815239 158.11114842 20.30801158 146.30444336 26.14941406 C113.44383687 41.740129 72.93216779 41.54139159 38.89331055 30.03564453 C24.39816937 24.84215134 11.82283707 16.98151847 2 5 C0.67578125 2.140625 0.67578125 2.140625 0 0 Z " fill="#C6C5CB" transform="translate(168,432)"/>
<path d="M0 0 C3.77808565 3.0714437 6.4643125 5.87582876 7.67578125 10.6796875 C8.0405919 15.84426174 7.33557069 19.3124064 4.0625 23.375 C-5.79939331 33.0006803 -18.59960089 35.48947542 -32.03491211 35.42822266 C-42.10152541 35.08508414 -53.03194441 31.73613981 -60.75 25.0625 C-61.32234375 24.57910156 -61.8946875 24.09570312 -62.484375 23.59765625 C-65.3563556 20.57023341 -66.30247643 17.75884373 -66.375 13.625 C-66.2385493 8.99325663 -65.13601766 6.52801987 -62 3 C-46.12880773 -11.59125741 -17.38062265 -12.70377571 0 0 Z " fill="#FEC276" transform="translate(157,193)"/>
<path d="M0 0 C1.49783964 10.94372786 -3.71066224 20.16059563 -10.04296875 28.78125 C-18.49404669 38.04096767 -30.93058076 43.42178437 -43.30859375 44.2109375 C-49.97703361 44.39756768 -55.5293268 43.88842995 -61.8125 41.65625 C-64.24793732 40.81142795 -64.24793732 40.81142795 -67.9375 41 C-71 41 -71 41 -72.9375 39.75 C-74 38 -74 38 -74 34 C-74.515625 33.236875 -75.03125 32.47375 -75.5625 31.6875 C-77.57734082 27.92062368 -77.19372858 26.07272105 -76 22 C-68.87699363 10.50494144 -54.70622689 6.2610239 -42.27514648 3.27856445 C-28.14963516 0.08464988 -14.42145943 -0.13576688 0 0 Z " fill="#90CB05" transform="translate(309,207)"/>
<path d="M0 0 C2.80341156 2.32776847 4.58833772 4.0845939 6.51953125 7.26171875 C6.76002239 11.83105041 6.11826893 13.58621983 3.08203125 17.01171875 C-4.06480366 22.16764965 -12.91614548 23.16454639 -21.48046875 22.26171875 C-27.76493664 21.05894978 -33.55344708 18.4936824 -37.48046875 13.26171875 C-38.29625072 9.03448492 -38.04086972 7.17496477 -35.79296875 3.51171875 C-27.7116165 -4.35121857 -9.76882846 -6.28468648 0 0 Z " fill="#FEC276" transform="translate(222.48046875,194.73828125)"/>
<path d="M0 0 C3.37395642 2.22808443 4.97065197 3.56372184 5.8125 7.5625 C5.1875933 10.84326019 3.72179677 12.14957425 1.0859375 14.1171875 C-4.45615154 17.46197251 -10.7934294 18.13822627 -17.0234375 16.6171875 C-24.14794873 14.42680379 -24.14794873 14.42680379 -26.6875 11.1875 C-27.18586194 7.27179908 -27.36437167 5.11506488 -25 1.875 C-17.96958099 -3.25530576 -7.82478847 -3.74042086 0 0 Z " fill="#FEC276" transform="translate(175.6875,253.8125)"/>
<path d="M0 0 C0.33 0 0.66 0 1 0 C1 1.98 1 3.96 1 6 C3.31 5.34 5.62 4.68 8 4 C7.67 4.66 7.34 5.32 7 6 C8.32 6.66 9.64 7.32 11 8 C10.03900391 8.03867188 10.03900391 8.03867188 9.05859375 8.078125 C2.9410516 8.4792753 -0.9125022 9.57146888 -6 13 C-4.50256881 14.49743119 -3.01175761 14.33202693 -0.9375 14.5625 C0.361875 14.706875 1.66125 14.85125 3 15 C3 15.33 3 15.66 3 16 C1.37191406 16.03867188 1.37191406 16.03867188 -0.2890625 16.078125 C-1.73441349 16.13443738 -3.17972444 16.191784 -4.625 16.25 C-5.33785156 16.26417969 -6.05070312 16.27835938 -6.78515625 16.29296875 C-12.03432075 16.53375611 -14.87003566 17.74293033 -19 21 C-16.36 21.66 -13.72 22.32 -11 23 C-11 23.33 -11 23.66 -11 24 C-11.74121094 23.88398438 -12.48242188 23.76796875 -13.24609375 23.6484375 C-22.45264514 22.85962649 -27.59509201 25.41103487 -35.08569336 30.53076172 C-40.33762164 34.03618343 -40.33762164 34.03618343 -44.50390625 33.80859375 C-45.32761719 33.54175781 -46.15132812 33.27492187 -47 33 C-47 32.01 -47 31.02 -47 30 C-40.4 26.7 -33.8 23.4 -27 20 C-27.66 18.35 -28.32 16.7 -29 15 C-28.67 14.01 -28.34 13.02 -28 12 C-25 16.75 -25 16.75 -25 19 C-21.42439923 17.65022693 -18.1147866 16.23394405 -15 14 C-13.77340262 11.07669963 -13.89019141 9.23935341 -14 6 C-12 9 -12 9 -12 12 C-11.37351562 11.71125 -10.74703125 11.4225 -10.1015625 11.125 C-9.28429687 10.75375 -8.46703125 10.3825 -7.625 10 C-6.81289063 9.62875 -6.00078125 9.2575 -5.1640625 8.875 C-3 8 -3 8 -1 8 C-0.67 5.36 -0.34 2.72 0 0 Z " fill="#9ADA03" transform="translate(283,214)"/>
<path d="M0 0 C1.78807093 1.05616625 3.53379952 2.18399135 5.26171875 3.3359375 C2.68874093 4.8976752 0.10580413 6.43500492 -2.48828125 7.9609375 C-3.21789062 8.40695313 -3.9475 8.85296875 -4.69921875 9.3125 C-5.76269531 9.93125 -5.76269531 9.93125 -6.84765625 10.5625 C-7.49702148 10.95002441 -8.14638672 11.33754883 -8.81542969 11.73681641 C-10.73828125 12.3359375 -10.73828125 12.3359375 -12.93457031 11.57958984 C-14.73828125 10.3359375 -14.73828125 10.3359375 -15.48828125 8.2109375 C-15.57078125 7.5921875 -15.65328125 6.9734375 -15.73828125 6.3359375 C-13.6867862 5.10443974 -11.62571962 3.90173276 -9.55078125 2.7109375 C-8.97263672 2.3603125 -8.39449219 2.0096875 -7.79882812 1.6484375 C-4.87028692 -0.00610556 -3.33155312 -0.80793728 0 0 Z " fill="#FBAA33" transform="translate(235.73828125,245.6640625)"/>
</svg>
