<?xml version="1.0" encoding="UTF-8"?>
<svg version="1.1" xmlns="http://www.w3.org/2000/svg" width="512" height="512">
<path d="M0 0 C7.09711055 5.34558006 12.31972383 10.9382197 16.6875 18.6875 C17.43773437 18.21699219 18.18796875 17.74648438 18.9609375 17.26171875 C32.88004878 8.79455156 46.14341564 6.40675739 62.296875 9.34375 C75.26823341 13.24187843 85.76724946 22.41750106 92.3984375 34.06640625 C95.32683086 40.02080608 97.21581179 45.99555063 96.6875 52.6875 C97.56639893 52.96352051 98.44529785 53.23954102 99.35083008 53.52392578 C125.61635878 62.68332505 150.56411652 80.72771352 170.6875 99.6875 C171.44546875 100.38101563 172.2034375 101.07453125 172.984375 101.7890625 C185.18294877 113.35667556 195.82299384 129.47811985 196.94476891 146.61848736 C196.95816176 148.01665024 196.96101632 149.41494237 196.95492554 150.81315613 C196.95945665 151.59077767 196.96398776 152.36839922 196.96865618 153.16958505 C196.98123346 155.75398767 196.97968415 158.33817774 196.97802734 160.92260742 C196.98401684 162.7844469 196.99082336 164.64628391 196.99838257 166.50811768 C197.01600872 171.55175775 197.02073657 176.5953299 197.02201414 181.63899779 C197.02343843 184.79503247 197.02771334 187.95105004 197.03300858 191.10708046 C197.05149899 202.1317008 197.05968059 213.15627287 197.05810547 224.1809082 C197.05690495 234.43397653 197.07799222 244.68683406 197.1095928 254.93984908 C197.13580598 263.76138199 197.14647062 272.58284628 197.14519465 281.40441781 C197.14468642 286.66472404 197.15029237 291.92484289 197.17155075 297.18511009 C197.19101773 302.13711424 197.19100006 307.08875394 197.17651749 312.04077148 C197.17443862 313.84945017 197.17907474 315.65815218 197.1912384 317.46679115 C197.33049244 339.62295997 190.08113741 355.94075353 174.57421875 371.7734375 C174.07841309 372.27198242 173.58260742 372.77052734 173.07177734 373.28417969 C171.86180532 374.51079683 170.68739998 375.77229317 169.51953125 377.0390625 C130.13540692 418.9370671 45.14202168 462.45326002 -13.23974609 464.84863281 C-14.60507597 464.86811574 -15.97049647 464.88190396 -17.3359375 464.890625 C-18.07513931 464.89768463 -18.81434113 464.90474426 -19.57594299 464.91201782 C-49.84665114 465.13560253 -49.84665114 465.13560253 -63.3125 461.6875 C-64.06756836 461.51009277 -64.82263672 461.33268555 -65.60058594 461.14990234 C-91.26056507 455.05294237 -115.62039578 443.01084769 -139.3125 431.6875 C-140.7363501 431.00953369 -140.7363501 431.00953369 -142.18896484 430.31787109 C-181.70967706 411.38359949 -231.89965897 384.79141795 -249.3125 341.6875 C-250.88533836 336.22070368 -251.60475877 331.26261405 -251.57992554 325.56184387 C-251.58445665 324.78422233 -251.58898776 324.00660078 -251.59365618 323.20541495 C-251.60623346 320.62101233 -251.60468415 318.03682226 -251.60302734 315.45239258 C-251.60901684 313.5905531 -251.61582336 311.72871609 -251.62338257 309.86688232 C-251.64100872 304.82324225 -251.64573657 299.7796701 -251.64701414 294.73600221 C-251.64843843 291.57996753 -251.65271334 288.42394996 -251.65800858 285.26791954 C-251.67649899 274.2432992 -251.68468059 263.21872713 -251.68310547 252.1940918 C-251.68190495 241.94102347 -251.70299222 231.68816594 -251.7345928 221.43515092 C-251.76080598 212.61361801 -251.77147062 203.79215372 -251.77019465 194.97058219 C-251.76968642 189.71027596 -251.77529237 184.45015711 -251.79655075 179.18988991 C-251.81601773 174.23788576 -251.81600006 169.28624606 -251.80151749 164.33422852 C-251.79943862 162.52554983 -251.80407474 160.71684782 -251.8162384 158.90820885 C-251.97260306 134.02963592 -242.40603251 116.80087293 -225.0625 99.125 C-218.92049977 93.01791784 -212.37505382 87.68860695 -205.3125 82.6875 C-204.75401367 82.28998535 -204.19552734 81.8924707 -203.62011719 81.48291016 C-189.87304613 71.79446104 -175.1354586 63.4954795 -160.125 55.9375 C-159.45992432 55.60218262 -158.79484863 55.26686523 -158.10961914 54.92138672 C-153.57139698 52.6875 -153.57139698 52.6875 -151.3125 52.6875 C-151.28671875 52.08164063 -151.2609375 51.47578125 -151.234375 50.8515625 C-150.33776273 37.60615393 -144.52255683 28.42167906 -135 19.4375 C-123.30682948 9.43754838 -110.52132777 7.82107801 -95.68701172 8.4921875 C-86.49946659 9.24789757 -78.8505141 13.68439329 -71.3125 18.6875 C-70.88839844 18.04683594 -70.46429688 17.40617187 -70.02734375 16.74609375 C-62.55105217 5.72061759 -53.78665814 -3.32071296 -40.46875 -6.83984375 C-26.09954114 -8.99166834 -12.33514878 -8.18655614 0 0 Z " fill="#373737" transform="translate(283.3125,31.3125)"/>
<path d="M0 0 C7.09711055 5.34558006 12.31972383 10.9382197 16.6875 18.6875 C17.43773437 18.21699219 18.18796875 17.74648438 18.9609375 17.26171875 C32.88004878 8.79455156 46.14341564 6.40675739 62.296875 9.34375 C75.24311359 13.23432947 85.84604056 22.41977688 92.3984375 34.10546875 C98.38265811 46.09204397 98.1300292 59.90096298 94.6875 72.6875 C95.47511719 72.64109375 96.26273437 72.5946875 97.07421875 72.546875 C111.92537063 72.05476583 124.44140013 76.68297549 135.375 86.75 C142.83404833 94.59258095 148.64503516 105.03882738 148.69921875 116.07421875 C148.84626676 123.27957101 151.62935495 126.51910968 156.3203125 131.83203125 C161.6610649 138.27442399 165.75364931 145.63272964 165.13671875 154.1875 C161.77418608 172.90072527 145.77261848 186.49744812 130.8359375 196.9140625 C99.97394654 217.81004773 65.7478254 232.76353482 30.86914062 245.51855469 C28.15897368 246.51427901 25.46151682 247.53684932 22.765625 248.5703125 C-2.68389933 258.04328608 -31.90427342 259.8165536 -58.3125 253.6875 C-59.53839844 253.43226563 -60.76429688 253.17703125 -62.02734375 252.9140625 C-111.12268655 241.86887702 -182.39383544 212.71682548 -213.390625 170.8828125 C-218.09033145 163.37697064 -220.72271408 155.58074193 -219.3125 146.6875 C-216.91932115 139.88104457 -213.38842085 134.62179256 -208.5625 129.3125 C-204.02466335 124.06135793 -203.2247653 119.77847002 -202.6171875 112.9765625 C-201.55567137 101.517632 -195.1347437 91.59695691 -186.93359375 83.796875 C-175.25326066 74.396905 -163.7768404 72.53702849 -149.3125 71.6875 C-149.8075 69.955 -149.8075 69.955 -150.3125 68.1875 C-153.02115357 55.72376801 -152.21169193 43.11556533 -145.734375 31.97265625 C-138.60197337 21.29011777 -129.17886334 12.51868303 -116.46875 9.16015625 C-99.55200388 6.62683165 -85.61850986 9.19236071 -71.3125 18.6875 C-70.88839844 18.04683594 -70.46429688 17.40617187 -70.02734375 16.74609375 C-62.55105217 5.72061759 -53.78665814 -3.32071296 -40.46875 -6.83984375 C-26.09954114 -8.99166834 -12.33514878 -8.18655614 0 0 Z " fill="#FE700E" transform="translate(283.3125,31.3125)"/>
<path d="M0 0 C0.13277344 1.02480469 0.26554687 2.04960938 0.40234375 3.10546875 C0.58064088 4.4661574 0.75903123 5.82683385 0.9375 7.1875 C1.02451172 7.86103516 1.11152344 8.53457031 1.20117188 9.22851562 C1.67825477 12.85081166 2.23012035 16.42803585 3 20 C1.67548828 20.05607422 1.67548828 20.05607422 0.32421875 20.11328125 C-15.35463119 20.97216562 -28.85789832 24.59568439 -39.92578125 36.37890625 C-46.06020529 44.13069256 -50.96229509 53.32076642 -51.01171875 63.38671875 C-51.15876676 70.59207101 -53.94185495 73.83160968 -58.6328125 79.14453125 C-63.9735649 85.58692399 -68.06614931 92.94522964 -67.44921875 101.5 C-65.82738721 110.52584511 -62.1036208 117.2538928 -56 124 C-54.87851563 125.26070312 -54.87851563 125.26070312 -53.734375 126.546875 C-40.23686217 140.87245611 -23.16584497 150.71161096 -6 160 C-5.08589355 160.49886719 -4.17178711 160.99773437 -3.22998047 161.51171875 C26.97694235 177.92588739 61.84152286 194.95477123 96 201 C96.91523438 201.18433594 97.83046875 201.36867188 98.7734375 201.55859375 C130.31441156 207.09544755 160.62536224 200.32331002 190 189 C190.64042236 188.75531982 191.28084473 188.51063965 191.94067383 188.25854492 C262.75466656 162.36076818 262.75466656 162.36076818 313.08984375 110.26171875 C315.62713697 103.95659955 316.23983433 97.55387627 313.9765625 91.06640625 C311.36622076 85.52123277 308.36765678 81.15508767 304.25 76.625 C299.71216335 71.37385793 298.9122653 67.09097002 298.3046875 60.2890625 C297.29568831 49.39704561 291.32739647 39.33732011 283.46875 31.88671875 C272.13121079 23.22211204 259.96416874 20.80890002 246 20 C246.66666667 13.33333333 247.33333333 6.66666667 248 0 C275.27874561 8.56696145 301.33872963 27.53342894 322 47 C322.75796875 47.69351563 323.5159375 48.38703125 324.296875 49.1015625 C336.24760989 60.43415593 347.29761797 76.57839561 348.1796875 93.43359375 C348.61325677 117.35216514 339.12751103 133.92381185 323 151 C322.33742188 151.72703125 321.67484375 152.4540625 320.9921875 153.203125 C279.31412013 197.25826845 195.71383394 234.04368502 135.27978516 235.94140625 C134.52745605 235.96074219 133.77512695 235.98007812 133 236 C132.15099121 236.02191406 131.30198242 236.04382813 130.42724609 236.06640625 C107.81003901 236.5521884 86.40761798 233.88655475 64.9375 226.5625 C64.30503357 226.34890839 63.67256714 226.13531677 63.02093506 225.91525269 C13.70477444 209.22783198 -37.06367096 187.5377547 -75 151 C-75.66386719 150.38769531 -76.32773438 149.77539062 -77.01171875 149.14453125 C-88.88504014 137.91156877 -99.02423518 121.58800188 -100 105 C-100.11988281 103.20949219 -100.11988281 103.20949219 -100.2421875 101.3828125 C-100.93181971 81.54574495 -91.70184386 65.63595899 -78.53808594 51.42138672 C-70.99212574 43.39635577 -62.9856842 36.36290623 -54 30 C-53.44151367 29.60248535 -52.88302734 29.2049707 -52.30761719 28.79541016 C-38.56054613 19.10696104 -23.8229586 10.8079795 -8.8125 3.25 C-8.14742432 2.91468262 -7.48234863 2.57936523 -6.79711914 2.23388672 C-2.25889698 0 -2.25889698 0 0 0 Z " fill="#4D4D4D" transform="translate(132,84)"/>
<path d="M0 0 C12.53500153 -0.59863249 24.04268642 4.37096694 33.6328125 12.17578125 C41.99097254 19.87149016 47.80336741 29.91889909 49.26171875 41.24609375 C49.51115234 42.45072266 49.51115234 42.45072266 49.765625 43.6796875 C51.58474298 54.70911455 47.05752917 66.84191949 40.96484375 76.01171875 C33.0443165 86.40286918 22.29395156 93.77313466 9.23828125 96.046875 C6.21542206 96.35155053 3.29753707 96.37527751 0.26171875 96.24609375 C0.18695313 96.84035156 0.1121875 97.43460937 0.03515625 98.046875 C-1.89287457 110.20103006 -8.10468492 119.65285697 -17.73828125 127.24609375 C-30.01433231 135.08066529 -42.20011603 138.05749436 -56.69921875 135.78125 C-65.74216092 133.59176973 -73.61176323 129.15931569 -80.73828125 123.24609375 C-81.12757813 124.14070313 -81.516875 125.0353125 -81.91796875 125.95703125 C-88.37802514 140.18178725 -97.28717942 148.40089572 -111.73828125 154.24609375 C-123.23012885 158.35295595 -136.01599497 156.97169342 -147.0703125 152.25 C-160.02060516 145.69547359 -168.40454801 135.17132891 -172.9765625 121.62890625 C-173.22792969 120.84257812 -173.47929687 120.05625 -173.73828125 119.24609375 C-174.06828125 118.25609375 -174.39828125 117.26609375 -174.73828125 116.24609375 C-175.68909337 101.32565744 -173.17169564 88.44359743 -163.58203125 76.578125 C-154.94005313 67.30483355 -144.47438236 61.24535989 -131.73828125 60.24609375 C-130.78308594 60.16488281 -129.82789063 60.08367187 -128.84375 60 C-117.73757607 59.51965434 -108.10440645 62.86106116 -98.859375 68.87890625 C-96.87089646 70.16061433 -94.87224144 71.22992223 -92.73828125 72.24609375 C-92.34898437 71.42367187 -91.9596875 70.60125 -91.55859375 69.75390625 C-84.65917177 55.98685686 -75.10289126 46.4750938 -60.19140625 41.375 C-55.35540957 40.16600083 -50.70386066 40.06552723 -45.73828125 40.24609375 C-45.62613281 39.35470703 -45.62613281 39.35470703 -45.51171875 38.4453125 C-43.56833447 26.1943704 -37.30967012 17.00882017 -27.73828125 9.24609375 C-18.75433303 3.15910249 -10.63942956 0.95618269 0 0 Z " fill="#FE640A" transform="translate(382.73828125,103.75390625)"/>
<path d="M0 0 C1.68749368 3.12334356 2.72884347 6.23010242 3.75 9.625 C8.27559997 23.33539695 16.15185233 32.49661661 29 39 C35.71297342 41.93101656 42.78984532 42.96300652 50 44 C50.21914062 44.75023437 50.43828125 45.50046875 50.6640625 46.2734375 C55.03241474 60.37291587 61.5817114 70.34814479 74.5078125 77.71484375 C86.4746858 83.88584895 99.13485239 84.66694854 112.07421875 81.05078125 C119.15219493 78.50875776 125.22779527 74.78091375 131 70 C131.4846875 70.99 131.969375 71.98 132.46875 73 C139.19697508 86.3970735 147.21621807 95.80588811 161.875 100.8125 C163.24381865 101.22920678 164.61877234 101.62647734 166 102 C166.62132812 102.18433594 167.24265625 102.36867188 167.8828125 102.55859375 C180.1003082 105.10578381 192.83662372 102.0110778 203.40625 95.76953125 C213.173714 89.10588488 217.98320505 80.37533342 223 70 C223.46148437 70.37511719 223.92296875 70.75023437 224.3984375 71.13671875 C236.59586711 80.70663882 248.50492899 84.33578198 264 83 C276.08350893 80.58329821 287.41807503 74.93656005 295 65 C298.93346266 58.28906272 302.02326567 51.5327012 304 44 C304.99257813 43.86464844 305.98515625 43.72929687 307.0078125 43.58984375 C321.06957275 41.45383606 334.17126257 36.8828136 343 25 C347.75589339 17.13555789 351.07069619 9.0034178 353 0 C360.6428051 5.77109773 367.89876373 14.49622728 369.3359375 24.2890625 C369.56431276 37.9459029 363.00099678 46.79396273 353.98828125 56.34204102 C322.97542702 88.28589136 276.15726653 105.84640358 235.18164062 120.83105469 C232.47147368 121.82677901 229.77401682 122.84934932 227.078125 123.8828125 C201.62860067 133.35578608 172.40822658 135.1290536 146 129 C144.77410156 128.74476563 143.54820312 128.48953125 142.28515625 128.2265625 C93.18981345 117.18137702 21.91866456 88.02932548 -9.078125 46.1953125 C-13.77851775 38.68837457 -16.40834684 30.89415437 -15 22 C-11.92562289 13.15093737 -6.53714101 6.56619497 0 0 Z " fill="#E8F2F1" transform="translate(79,156)"/>
<path d="M0 0 C12.94346416 -0.55980907 24.52681221 4.0782909 34.4765625 12.17578125 C43.47828372 20.46404396 49.1690053 31.00396243 50.10546875 43.24609375 C50.18667969 44.28636719 50.26789063 45.32664063 50.3515625 46.3984375 C50.90338478 60.46154476 45.50059226 72.61464548 36.10546875 82.93359375 C25.68269047 92.86340278 12.49439597 96.75931967 -1.62109375 96.49609375 C-15.24816357 95.45536288 -25.57616923 88.92957047 -34.89453125 79.24609375 C-39.90076227 73.22146456 -42.52746812 66.65075278 -44.89453125 59.24609375 C-45.38953125 57.76109375 -45.38953125 57.76109375 -45.89453125 56.24609375 C-46.84534337 41.32565744 -44.32794564 28.44359743 -34.73828125 16.578125 C-24.99963445 6.12805108 -14.0278013 1.19264707 0 0 Z " fill="#FE7D14" transform="translate(253.89453125,163.75390625)"/>
<path d="M0 0 C6.09042257 5.60770779 10.66566026 12.33064554 13.62890625 20.0703125 C13.40530762 23.40011914 11.88929435 25.2803686 9.81640625 27.8203125 C1.13551856 39.08256728 -0.03454778 50.04520279 0.62890625 64.0703125 C0.86480469 65.13765625 1.10070312 66.205 1.34375 67.3046875 C1.62890625 70.0703125 1.62890625 70.0703125 0.36328125 72.01171875 C-11.43617178 81.65103569 -24.28080226 85.222793 -39.37109375 84.0703125 C-53.11247355 81.74986842 -64.66521573 74.05332241 -72.74609375 62.6953125 C-75.78759298 57.80134207 -77.62378569 52.53625054 -79.37109375 47.0703125 C-79.86609375 45.5853125 -79.86609375 45.5853125 -80.37109375 44.0703125 C-81.32190587 29.14987619 -78.80450814 16.26781618 -69.21484375 4.40234375 C-50.25564413 -15.94186233 -21.51184494 -17.5071687 0 0 Z " fill="#F95046" transform="translate(208.37109375,155.9296875)"/>
<path d="M0 0 C12.53500153 -0.59863249 24.04268642 4.37096694 33.6328125 12.17578125 C41.99097254 19.87149016 47.80336741 29.91889909 49.26171875 41.24609375 C49.51115234 42.45072266 49.51115234 42.45072266 49.765625 43.6796875 C51.58474298 54.70911455 47.05752917 66.84191949 40.96484375 76.01171875 C33.00291891 86.45717978 22.43214671 93.51674949 9.421875 96.0546875 C6.36570435 96.32548743 3.32768233 96.27929913 0.26171875 96.24609375 C0.29652344 95.3746875 0.33132813 94.50328125 0.3671875 93.60546875 C0.70812285 78.60431325 -2.43585637 65.81344153 -12.73828125 54.49609375 C-22.06124276 45.78216992 -33.41239726 42.21299013 -45.73828125 40.24609375 C-44.10069632 27.23011696 -37.88436541 17.47491787 -27.73828125 9.24609375 C-18.75433303 3.15910249 -10.63942956 0.95618269 0 0 Z " fill="#FE7D14" transform="translate(382.73828125,103.75390625)"/>
<path d="M0 0 C8.42584161 7.73957397 14.15527883 17.36961495 15.33984375 28.87890625 C13.94185547 29.08193359 13.94185547 29.08193359 12.515625 29.2890625 C-1.14724664 31.59613992 -12.93186058 36.61549157 -21.66015625 47.87890625 C-29.5730263 60.12031366 -30.94812281 70.65697515 -31.66015625 84.87890625 C-45.66490749 85.20741276 -56.32766055 79.69420453 -66.3671875 70.26171875 C-72.7068731 63.67362979 -75.94216954 56.52469256 -78.66015625 47.87890625 C-78.91023438 47.2240625 -79.1603125 46.56921875 -79.41796875 45.89453125 C-82.75710708 36.00391898 -78.92117433 23.48509772 -74.44921875 14.42578125 C-67.79664365 2.44379516 -58.13490919 -5.3182661 -45.25 -9.99609375 C-29.54109336 -14.10150674 -12.53871016 -9.99782616 0 0 Z " fill="#FE7D14" transform="translate(159.66015625,115.12109375)"/>
<path d="M0 0 C10.1490883 7.63629152 18.15768428 18.90057435 20.5390625 31.50390625 C21.23349406 37.68434709 21.42429923 43.90752194 19.8125 49.9375 C18.64074219 49.90269531 17.46898437 49.86789063 16.26171875 49.83203125 C0.43191585 49.49799086 -12.7899695 51.86059931 -24.9375 62.9375 C-30.18007458 68.44456483 -33.14470647 75.05941688 -36.1875 81.9375 C-38.76295984 79.41802841 -41.1420178 76.83713625 -43.4375 74.0625 C-51.86070303 64.42062079 -61.67763454 59.92236383 -74.1875 57.9375 C-73.8575 57.2775 -73.5275 56.6175 -73.1875 55.9375 C-73.496875 54.74125 -73.80625 53.545 -74.125 52.3125 C-77.00939453 39.95933446 -76.03144761 27.27052869 -69.609375 16.22265625 C-62.47697337 5.54011777 -53.05386334 -3.23131697 -40.34375 -6.58984375 C-26.05581492 -8.72949739 -12.4018901 -7.87662028 0 0 Z " fill="#F95045" transform="translate(207.1875,47.0625)"/>
<path d="M0 0 C5.93705461 5.54125097 12.1661357 12.63413026 12.8359375 21.0390625 C12.60593758 23.850997 12.11890041 26.04827183 11.15625 28.6875 C10.88941406 29.43386719 10.62257813 30.18023437 10.34765625 30.94921875 C10.09886719 31.62597656 9.85007812 32.30273438 9.59375 33 C9.26375 33.99 8.93375 34.98 8.59375 36 C6.97919922 36.20302734 6.97919922 36.20302734 5.33203125 36.41015625 C-9.01725118 38.43318066 -21.25045457 43.15942246 -30.40625 55 C-33.35012276 59.512942 -35.91425916 64.22651346 -38.40625 69 C-41.38536702 67.58137285 -44.08076369 65.92350374 -46.84375 64.125 C-55.99861755 58.61861643 -65.81070477 56.42467115 -76.40625 56 C-81.64638193 41.91714543 -82.15671852 29.13146089 -76.22265625 15.2265625 C-69.85730836 2.35160954 -59.42311945 -5.89170253 -46.0703125 -10.87109375 C-29.74304272 -15.27156609 -12.78535235 -10.62678637 0 0 Z " fill="#FA5045" transform="translate(328.40625,108)"/>
<path d="M0 0 C7.61038961 6.83116883 7.61038961 6.83116883 9 11 C8.07421875 13.1640625 8.07421875 13.1640625 6.6875 15.625 C0.22448768 28.08425153 0.81626891 41.19416411 4.44140625 54.55078125 C4.62574219 55.35902344 4.81007813 56.16726562 5 57 C3.40519983 58.59480017 1.45587127 58.35085993 -0.75 58.625 C-9.94058674 60.20875646 -17.91893849 65.06863113 -25 71 C-25.47308594 70.02160156 -25.94617188 69.04320312 -26.43359375 68.03515625 C-33.19571603 54.44846008 -41.10970965 45.12688542 -56 40 C-61.2636263 38.59300797 -66.6069976 37.73540942 -72 37 C-77.15401786 21.53794643 -77.15401786 21.53794643 -74.1875 15.4375 C-67.78536164 2.8464109 -57.87534456 -4.88250961 -44.69921875 -9.87109375 C-29.08438911 -14.13503028 -12.39548872 -10.2108432 0 0 Z " fill="#FE640A" transform="translate(247,107)"/>
<path d="M0 0 C4.42484878 2.21242439 7.19476657 4.94799616 10 9 C11.66026461 13.98079383 11.59903425 18.30273629 9.875 23.1875 C7.28535548 27.07196678 4.22685959 29.88657021 0 32 C-4.95482094 32.54360446 -8.87125852 32.56437074 -13.375 30.3125 C-16.96775803 27.14745126 -20.69412413 23.78798338 -21.23828125 18.828125 C-21.40659218 12.98153463 -21.02425335 9.56807137 -17 5 C-11.37343316 0.04326255 -7.41017624 -0.82081952 0 0 Z " fill="#FF9018" transform="translate(261,36)"/>
<path d="M0 0 C4.42484878 2.21242439 7.19476657 4.94799616 10 9 C11.66026461 13.98079383 11.59903425 18.30273629 9.875 23.1875 C7.05299253 27.42051121 3.92271008 30.35909664 -1 32 C-6.61599916 32.36826224 -10.17665989 32.21556007 -15 29 C-19.04042313 25.00325712 -21.12471251 21.41007672 -21.3125 15.6875 C-21.25237316 11.05773338 -20.06591027 8.5630849 -17 5 C-11.37343316 0.04326255 -7.41017624 -0.82081952 0 0 Z " fill="#FF9018" transform="translate(133,112)"/>
<path d="M0 0 C3.6032454 3.08849606 7.81583725 6.88341951 8.42578125 11.79296875 C8.62089091 17.75921668 7.77725645 21.05716898 4.1875 25.875 C0.25034224 29.35434871 -3.35135319 30.6741262 -8.50390625 31.0390625 C-13.85050109 30.65910145 -17.6347824 28.11311337 -21.25 24.3125 C-24.22658776 19.66902309 -24.4369498 15.23634758 -23.8125 9.875 C-22.40575387 5.52764601 -20.27939433 3.23917757 -16.6875 0.4375 C-11.40237704 -2.20506148 -5.42763914 -2.17105565 0 0 Z " fill="#FF9018" transform="translate(391.8125,113.125)"/>
<path d="M0 0 C4.98669007 2.49334503 8.49675474 5.99350949 11 11 C11.3962444 16.84460492 10.95926533 20.77196458 8 26 C4.55253791 29.8678843 2.1936339 31.26698087 -2.9375 32 C-9.22037897 32.31131382 -13.17151175 30.62973953 -17.875 26.4375 C-20.90540637 22.40364781 -21.25800786 17.9256047 -21 13 C-19.35395187 7.09359202 -16.80402955 4.47525542 -12 1 C-8.28795513 -0.85602244 -4.0512695 -0.44875601 0 0 Z " fill="#FE685E" transform="translate(181,156)"/>
<path d="M0 0 C3.80867049 3.16191513 6.48304533 6.05503815 7.19921875 11.1015625 C7.28889833 16.85899178 6.82199343 20.24070172 2.86328125 24.734375 C-1.98791412 29.22173072 -5.50934632 30.11382478 -12.11328125 30.015625 C-16.52504263 29.4024072 -19.29362667 26.50910827 -22.44921875 23.609375 C-24.9054269 19.42472408 -25.31751257 15.54801034 -25.13671875 10.734375 C-23.49595084 4.84691369 -21.01073611 2.11634623 -16.13671875 -1.265625 C-10.92126 -3.02207082 -4.77402409 -2.82775833 0 0 Z " fill="#FF7C13" transform="translate(341.13671875,54.265625)"/>
<path d="M0 0 C4.36629252 2.18314626 7.52338687 4.78058503 10 9 C11.22367828 13.92823855 11.30336272 17.91146317 9.9375 22.8125 C7.18641638 27.33847628 4.77184506 30.25901172 -0.3671875 31.6328125 C-6.00222896 32.43781842 -10.02277453 32.02537234 -15 29 C-19.64684783 24.679035 -20.81685854 21.27095408 -21.3125 15.125 C-21.24767391 10.76544549 -19.82676897 8.3615631 -17 5 C-11.37343316 0.04326255 -7.41017624 -0.82081952 0 0 Z " fill="#FE685E" transform="translate(185,52)"/>
<path d="M0 0 C3.97909678 3.92547014 5.8786401 7.14926152 6.25 12.8125 C6.16359188 17.53038314 4.94986054 20.97913614 1.60546875 24.4453125 C-2.51976779 28.10058538 -5.06232687 28.85646866 -10.375 29.25 C-14.98491429 28.93207488 -18.11139066 27.86315639 -21.44921875 24.5703125 C-25.61447637 19.7725086 -26.41781432 16.26721482 -26 10 C-24.18126531 4.13963267 -21.9082092 1.40569618 -17 -2 C-11.19690939 -4.43355413 -5.13542379 -3.34918943 0 0 Z " fill="#FF9018" transform="translate(266,179)"/>
<path d="M0 0 C3.12397912 2.5934921 5.31350642 4.93633529 6.86328125 8.734375 C7.34293106 14.58610274 6.82337102 18.50488306 3.86328125 23.734375 C-0.43411795 28.39290018 -3.88107289 29.55246808 -10.01171875 30.046875 C-15.49634504 29.96531922 -18.52626845 27.21424825 -22.44921875 23.609375 C-24.9054269 19.42472408 -25.31751257 15.54801034 -25.13671875 10.734375 C-23.49595084 4.84691369 -21.01073611 2.11634623 -16.13671875 -1.265625 C-10.92126 -3.02207082 -4.77402409 -2.82775833 0 0 Z " fill="#FF7C13" transform="translate(345.13671875,158.265625)"/>
<path d="M0 0 C4.45146251 2.18526342 7.18885145 4.9394521 10 9 C11.51957394 13.55872181 11.9048513 17.66176277 10.1640625 22.16015625 C7.67954293 26.62061923 4.90275613 29.43632994 0.1796875 31.44140625 C-5.12443317 32.80070599 -9.48455801 31.74342437 -14.3125 29.375 C-18.14690939 25.98645217 -20.52335264 22.79179171 -21.3828125 17.7578125 C-21.73798088 10.72547849 -19.03616479 7.28447757 -14.4375 2.125 C-10.18816103 -1.21608331 -5.11463654 -0.82322019 0 0 Z " fill="#FF7C13" transform="translate(221,106)"/>
<path d="M0 0 C4.45146251 2.18526342 7.18885145 4.9394521 10 9 C11.69179466 14.07538397 11.56371867 18.31964436 9.375 23.1875 C6.75792293 27.99323582 3.14792809 30.28402397 -2 32 C-7.44629387 32.64074046 -10.78761982 31.65428634 -15.19921875 28.61328125 C-19.31784264 24.92349455 -21.16520922 20.34673677 -21.5 14.875 C-20.72936965 8.90261478 -17.64343428 4.64569642 -12.90234375 0.91796875 C-8.80367727 -1.05982719 -4.39594635 -0.70754427 0 0 Z " fill="#FE685E" transform="translate(301,104)"/>
</svg>
