<?xml version="1.0" encoding="UTF-8"?>
<svg version="1.1" xmlns="http://www.w3.org/2000/svg" width="512" height="512">
<path d="M0 0 C0.76618652 0.2254248 1.53237305 0.45084961 2.32177734 0.68310547 C33.28107992 9.92759213 60.94650507 28.56689004 84.34375 50.53125 C86.47549623 52.51252002 88.63790094 54.39207027 90.875 56.25 C101.8937085 65.84841759 111.27817502 77.32873344 120 89 C120.41701172 89.54946289 120.83402344 90.09892578 121.26367188 90.66503906 C144.14310956 120.91515363 163.0951752 159.85791638 158.09912109 198.70776367 C154.36008376 223.43704169 139.73268841 239.83978952 120.6875 254.87109375 C117.8531103 257.11635885 115.12002994 259.45908438 112.375 261.8125 C94.53477489 276.68319087 74.48758853 289.1443592 54 300 C53.33677734 300.3515918 52.67355469 300.70318359 51.99023438 301.06542969 C17.67881371 319.08323602 -18.47742826 329.9962646 -57 334 C-115.63189089 337.0905409 -115.63189089 337.0905409 -165.265625 362.58203125 C-166.06989929 363.39621017 -166.87417358 364.2103891 -167.70281982 365.04924011 C-170.23565413 367.62085804 -172.74286748 370.21584427 -175.25 372.8125 C-176.97621967 374.57387921 -178.7040708 376.33366109 -180.43359375 378.09179688 C-184.64141454 382.3762645 -188.82854788 386.68013065 -193 391 C-192.64993896 391.80751709 -192.29987793 392.61503418 -191.93920898 393.44702148 C-191.48360596 394.51509033 -191.02800293 395.58315918 -190.55859375 396.68359375 C-190.10540771 397.73861084 -189.65222168 398.79362793 -189.18530273 399.88061523 C-185.85264106 408.65124721 -186.37568467 418.11465021 -190.19140625 426.671875 C-194.93708612 435.20634017 -201.77970702 441.57689722 -211 445 C-221.76379063 447.62488511 -231.66766783 446.18082718 -241.25390625 440.71484375 C-248.57237715 435.72939583 -254.07404667 427.69148169 -256 419 C-256.21242204 415.97888659 -256.18883189 413.02131018 -256 410 C-257.27875 410.0825 -258.5575 410.165 -259.875 410.25 C-268.67516781 410.22236996 -276.74134339 406.05676446 -283 400 C-289.77804008 391.85405614 -292.61231671 383.54272267 -292.27734375 372.984375 C-291.35340727 363.04229799 -287.39474276 355.94158436 -280.046875 349.2109375 C-271.06211937 342.03020761 -262.17661478 341.07126142 -251 341.76220703 C-247.32124482 342.19959809 -244.16899841 343.47618198 -240.8828125 345.125 C-238.89260593 346.21072147 -238.89260593 346.21072147 -236 346 C-234.22021328 344.71938567 -234.22021328 344.71938567 -232.44995117 342.93334961 C-231.39821968 341.92485207 -231.39821968 341.92485207 -230.32524109 340.89598083 C-229.57209122 340.1555806 -228.81894135 339.41518036 -228.04296875 338.65234375 C-227.26238602 337.88886124 -226.48180328 337.12537872 -225.67756653 336.33876038 C-224.02159916 334.71119077 -222.37000106 333.07916578 -220.72241211 331.44311523 C-218.22844328 328.97797008 -215.70439178 326.54679853 -213.17773438 324.11523438 C-203.95985386 315.08139446 -197.37186177 307.61254931 -194 295 C-193.59793335 293.77349731 -193.59793335 293.77349731 -193.18774414 292.5222168 C-192.52425169 290.48489918 -191.96047311 288.45242774 -191.4375 286.375 C-191.23825928 285.58657715 -191.03901855 284.7981543 -190.83374023 283.98583984 C-185.20909662 260.83021177 -182.72553226 237.23365096 -180.31860352 213.57275391 C-176.39231294 175.91034085 -166.87079862 139.55563868 -149.04052734 105.97949219 C-147.91326955 103.83500458 -146.82468334 101.67326682 -145.73828125 99.5078125 C-132.94602538 74.26035162 -116.2346635 50.08790242 -97.05078125 29.234375 C-95.13614309 27.14833114 -93.28177042 25.02317954 -91.4375 22.875 C-67.69391325 -4.12113287 -33.97448308 -10.55227338 0 0 Z " fill="#D98756" transform="translate(323,36)"/>
<path d="M0 0 C3.44089631 0.41550446 6.86726297 0.84627371 10.29296875 1.375 C11.36160156 1.519375 12.43023437 1.66375 13.53125 1.8125 C42.43862051 6.61372417 70.03233708 19.79251157 93.29296875 37.375 C93.90172852 37.83116699 94.51048828 38.28733398 95.13769531 38.75732422 C102.27409205 44.13692461 109.06013794 49.79454683 115.59765625 55.890625 C117.75134659 57.87576566 119.93527605 59.79150377 122.15625 61.69921875 C126.21072451 65.23689052 129.94032617 69.00126266 133.60546875 72.9375 C134.25427002 73.63367432 134.90307129 74.32984863 135.5715332 75.04711914 C141.55082285 81.53679098 147.03848447 88.29130312 152.29296875 95.375 C152.76798828 96.00422363 153.24300781 96.63344727 153.73242188 97.28173828 C170.59194692 119.71112617 189.00745703 150.2024652 190.19921875 179.15234375 C190.24263473 181.43474949 190.24263473 181.43474949 190.76171875 183.87890625 C191.14791928 186.75346704 191.15941659 188.59792358 190.29296875 191.375 C179.08085374 204.25928512 158.74652778 210.17180268 142.29296875 211.375 C103.03586894 213.66770115 66.492822 199.21734675 37.05078125 173.58984375 C34.06119094 170.92398227 31.17201334 168.15990689 28.29296875 165.375 C27.79313477 164.90094727 27.29330078 164.42689453 26.77832031 163.93847656 C6.43485379 144.62701849 -8.04097651 120.60829155 -16.64453125 93.9375 C-17.06835083 92.62531494 -17.06835083 92.62531494 -17.50073242 91.28662109 C-20.8846553 80.25592492 -22.07608323 69.51529383 -22.01953125 58 C-22.0146167 56.8126123 -22.00970215 55.62522461 -22.00463867 54.40185547 C-21.89232133 46.00743023 -21.32375558 38.40382485 -18.70703125 30.375 C-18.35511719 29.28703125 -18.00320313 28.1990625 -17.640625 27.078125 C-14.88679832 19.33469158 -11.22012049 12.24054963 -6.70703125 5.375 C-6.09601563 4.4365625 -5.485 3.498125 -4.85546875 2.53125 C-2.70703125 0.375 -2.70703125 0.375 0 0 Z " fill="#9E5528" transform="translate(278.70703125,44.625)"/>
<path d="M0 0 C2 3.75 2 3.75 2 6 C9.26 6 16.52 6 24 6 C23.01 8.97 22.02 11.94 21 15 C20.46822882 18.04559856 20 20.91222241 20 24 C25.94 24 31.88 24 38 24 C38 29.94 38 35.88 38 42 C40.97 42.495 40.97 42.495 44 43 C39.82222235 47.98592875 35.46872723 52.66704284 30.8515625 57.24609375 C30.19417084 57.90207047 29.53677917 58.55804718 28.85946655 59.23390198 C26.78367138 61.30415268 24.70440573 63.37087651 22.625 65.4375 C21.2067992 66.85067862 19.78882824 68.26408794 18.37109375 69.67773438 C14.91671223 73.12116065 11.4592163 76.56143099 8 80 C8.35006104 80.80751709 8.70012207 81.61503418 9.06079102 82.44702148 C9.51639404 83.51509033 9.97199707 84.58315918 10.44140625 85.68359375 C10.89459229 86.73861084 11.34777832 87.79362793 11.81469727 88.88061523 C15.14735894 97.65124721 14.62431533 107.11465021 10.80859375 115.671875 C6.06291388 124.20634017 -0.77970702 130.57689722 -10 134 C-20.76379063 136.62488511 -30.66766783 135.18082718 -40.25390625 129.71484375 C-47.57237715 124.72939583 -53.07404667 116.69148169 -55 108 C-55.21242204 104.97888659 -55.18883189 102.02131018 -55 99 C-56.27875 99.0825 -57.5575 99.165 -58.875 99.25 C-67.67516781 99.22236996 -75.74134339 95.05676446 -82 89 C-88.77804008 80.85405614 -91.61231671 72.54272267 -91.27734375 61.984375 C-90.35340727 52.04229799 -86.39474276 44.94158436 -79.046875 38.2109375 C-70.06211937 31.03020761 -61.17661478 30.07126142 -50 30.76220703 C-46.32124482 31.19959809 -43.16899841 32.47618198 -39.8828125 34.125 C-37.89260593 35.21072147 -37.89260593 35.21072147 -35 35 C-33.21523201 33.65286513 -33.21523201 33.65286513 -31.4465332 31.78710938 C-30.74603348 31.08638306 -30.04553375 30.38565674 -29.32380676 29.66369629 C-28.57370834 28.89811401 -27.82360992 28.13253174 -27.05078125 27.34375 C-25.89185616 26.17845764 -25.89185616 26.17845764 -24.70951843 24.98962402 C-22.23673885 22.50001473 -19.7745763 20.00019042 -17.3125 17.5 C-15.64066155 15.81312034 -13.96814401 14.12691343 -12.29492188 12.44140625 C-8.18869475 8.30205286 -4.09114359 4.15425893 0 0 Z " fill="#F3EFF2" transform="translate(122,347)"/>
<path d="M0 0 C13.87229504 6.9945982 23.83761669 18.42916847 31 32 C31.38027344 32.70640625 31.76054687 33.4128125 32.15234375 34.140625 C34.84177441 40.04002129 34.85298754 46.66577769 34 53 C32.19460658 57.59945466 29.40140367 61.58632702 25 64 C18.23563793 66.13290696 9.84345462 66.18564297 3.3125 63.375 C1.85924648 62.6126375 0.42169271 61.81971471 -1 61 C-1.78761719 60.5875 -2.57523437 60.175 -3.38671875 59.75 C-18.98971458 51.12793637 -29.40541122 37.78376635 -35 21 C-35.62909175 13.36839511 -36.03959486 7.04751384 -31 1 C-21.85091555 -7.41715769 -10.4414984 -4.60250258 0 0 Z " fill="#E09973" transform="translate(351,132)"/>
</svg>
