<?xml version="1.0" encoding="UTF-8"?>
<svg version="1.1" xmlns="http://www.w3.org/2000/svg" width="512" height="512">
<path d="M0 0 C0.83371205 -0.00445784 1.6674241 -0.00891569 2.52640015 -0.01350862 C3.89257309 -0.01323207 3.89257309 -0.01323207 5.28634548 -0.01294994 C6.25797097 -0.01662663 7.22959646 -0.02030332 8.23066515 -0.02409142 C11.49544131 -0.03512869 14.76018565 -0.03897221 18.02497768 -0.04278088 C20.36237088 -0.04904555 22.69976309 -0.05569235 25.0371542 -0.0626936 C32.721809 -0.08373781 40.40646402 -0.09409704 48.09113979 -0.10406017 C50.73698277 -0.10810774 53.38282564 -0.11222466 56.0286684 -0.11641026 C67.03569774 -0.13342162 78.04272608 -0.1479142 89.04976654 -0.155159 C91.90494761 -0.15706878 94.76012867 -0.15898913 97.61530972 -0.16094494 C98.67972398 -0.16167055 98.67972398 -0.16167055 99.76564156 -0.16241082 C111.25225677 -0.17070519 122.73876765 -0.19603244 134.22533733 -0.22852562 C146.02849869 -0.26164105 157.83160711 -0.27961186 169.63481516 -0.28280324 C176.25773158 -0.28496434 182.88051328 -0.2941003 189.5033884 -0.31926441 C195.73734844 -0.34256776 201.97103526 -0.34676901 208.20502758 -0.33650303 C210.48863859 -0.3360081 212.77226315 -0.34231582 215.05583286 -0.35605907 C231.38739183 -0.44881949 243.73456815 0.3400006 255.93488979 12.20453358 C269.1278338 26.15066592 268.09634524 43.31611532 267.93098354 61.38422108 C267.92093161 63.30478932 267.91180968 65.22536266 267.90363979 67.14593983 C267.88180642 71.80882829 267.8473991 76.47146711 267.80598354 81.13422108 C268.90039761 81.1314557 268.90039761 81.1314557 270.01692104 81.12863445 C287.78665007 81.08442651 305.55636808 81.05135044 323.3261404 81.03059673 C331.91953922 81.02029312 340.51290129 81.00625027 349.10627651 80.98334217 C356.59803893 80.96338029 364.08977472 80.95049799 371.581563 80.94604409 C375.54678424 80.94344145 379.51192933 80.93734318 383.47712612 80.92276096 C387.21335086 80.90913281 390.94946844 80.90500897 394.68571568 80.90800571 C396.70237632 80.90719772 398.71902543 80.89646356 400.73565578 80.88538074 C417.17713499 80.92260874 417.17713499 80.92260874 423.11848354 86.38422108 C424.07174526 87.22726795 424.07174526 87.22726795 425.04426479 88.08734608 C429.68608819 93.48050674 430.24173982 98.32770559 430.18693447 105.12946033 C430.19161444 106.02465146 430.19629441 106.91984258 430.2011162 107.8421607 C430.21306421 110.83615008 430.20360963 113.82968158 430.19416714 116.8236742 C430.19823292 118.97243485 430.20357483 121.12119341 430.21009731 123.26994801 C430.22377587 129.10250631 430.21846995 134.93490545 430.20896006 140.76746655 C430.20136631 146.87055739 430.20840828 152.97363458 430.21311855 159.07672596 C430.21857692 169.32589636 430.21138231 179.57500192 430.19709682 189.82416248 C430.1807702 201.67461389 430.18605865 213.52491045 430.20257604 225.3753581 C430.21618854 235.54875054 430.21811171 245.72209634 430.21026003 255.89549494 C430.20558224 261.97213085 430.20496165 268.04869397 430.2148695 274.1253252 C430.22353339 279.83809695 430.21752761 285.55066899 430.20018673 291.26341915 C430.19621883 293.36045023 430.1973611 295.45749811 430.20397472 297.55452251 C430.21216815 300.4162361 430.20189502 303.27730908 430.18693447 306.13898182 C430.19362664 306.96952973 430.2003188 307.80007764 430.20721376 308.65579367 C430.14342654 314.94307783 428.67764018 319.01629383 424.43098354 323.82172108 C418.45684236 329.08465498 413.5799587 330.2613126 405.73791409 330.25447559 C404.51940258 330.25585026 403.30089108 330.25722492 402.04545498 330.25864124 C400.70350527 330.25510261 399.36155581 330.25146781 398.01960659 330.24774647 C396.60016793 330.24746426 395.18072913 330.24762299 393.76129055 330.24818897 C389.91458905 330.24847563 386.06791879 330.24260013 382.22122455 330.23561502 C378.19868265 330.22935961 374.17614002 330.22877595 370.15359402 330.22758961 C362.53932066 330.22448275 354.92506168 330.21627804 347.31079465 330.20624012 C338.64095446 330.19505896 329.97111359 330.18956348 321.30126798 330.18454468 C303.46949836 330.1740949 285.63774211 330.15650793 267.80598354 330.13422108 C267.80874892 331.21537378 267.80874892 331.21537378 267.81157017 332.31836796 C267.85583699 349.89756149 267.88888269 367.47674076 267.90960789 385.05597782 C267.91989813 393.55733975 267.93391517 402.05866436 267.95686245 410.56000233 C267.97686553 417.97416166 267.98971633 425.38829394 267.99416053 432.80247951 C267.99675625 436.72423354 268.00280982 440.64591023 268.01744366 444.56763935 C268.03113718 448.26776268 268.03518271 451.96777767 268.03219891 455.66792393 C268.03300138 457.65518809 268.04370087 459.64244077 268.05482388 461.62967396 C268.02103636 476.51585776 266.12619097 489.69199996 255.68098354 501.00922108 C248.93189916 507.31142211 240.00882115 512.24505188 230.61196709 512.26844215 C229.77825504 512.2729 228.94454299 512.27735784 228.08556694 512.28195077 C226.719394 512.28167423 226.719394 512.28167423 225.3256216 512.2813921 C224.35399612 512.28506879 223.38237063 512.28874547 222.38130194 512.29253358 C219.11652577 512.30357085 215.85178144 512.30741436 212.5869894 512.31122303 C210.2495962 512.3174877 207.912204 512.3241345 205.57481289 512.33113575 C197.89015808 512.35217996 190.20550307 512.3625392 182.52082729 512.37250233 C179.87498432 512.37654989 177.22914145 512.38066682 174.58329868 512.38485241 C163.57626935 512.40186378 152.569241 512.41635635 141.56220055 512.42360115 C138.70701947 512.42551093 135.85183841 512.42743128 132.99665737 512.42938709 C132.28704786 512.42987083 131.57743835 512.43035457 130.84632552 512.43085297 C119.35971031 512.43914734 107.87319944 512.46447459 96.38662975 512.49696777 C84.58346839 512.53008321 72.78035997 512.54805401 60.97715193 512.55124539 C54.35423551 512.55340649 47.7314538 512.56254246 41.10857868 512.58770657 C34.87461865 512.61100991 28.64093183 512.61521117 22.40693951 512.60494518 C20.1233285 512.60445025 17.83970393 512.61075798 15.55613422 512.62450123 C-1.27956263 512.72012506 -13.43856136 511.7456299 -25.94401646 499.40765858 C-33.19431524 491.46858141 -36.51489753 482.07636664 -36.45128536 471.34105873 C-36.45479144 470.58356232 -36.45829751 469.8260659 -36.46190983 469.04561505 C-36.4712037 466.51077099 -36.46630573 463.97615769 -36.46144199 461.44130421 C-36.46517927 459.60415227 -36.4697811 457.76700192 -36.47517264 455.92985409 C-36.48740855 450.88371675 -36.48714146 445.83764567 -36.48478389 440.79149687 C-36.48437587 435.34824802 -36.49541349 429.90502045 -36.50489902 424.4617815 C-36.52151352 413.79792598 -36.52700879 403.13409257 -36.52812378 392.47022519 C-36.52907409 383.80153613 -36.53318355 375.13285435 -36.53952503 366.46416759 C-36.55713908 341.88577127 -36.56637586 317.30739224 -36.56486408 292.72898958 C-36.56480425 291.73553906 -36.56480425 291.73553906 -36.5647432 290.72201884 C-36.56466233 289.3826858 -36.56457873 288.04335276 -36.56449242 286.70401972 C-36.56326723 265.87156217 -36.57827484 245.03916976 -36.60563755 224.20673084 C-36.63637738 200.79357748 -36.65354355 177.38046382 -36.65171111 153.96728867 C-36.6510472 141.57363119 -36.65653994 129.18004716 -36.67806721 116.78640652 C-36.69627963 106.23354452 -36.70062582 95.68078925 -36.68704836 85.12791834 C-36.68051894 79.74517506 -36.68040077 74.36263655 -36.69775486 68.97991276 C-36.71349155 64.04806175 -36.71061565 59.11657777 -36.6931866 54.18473568 C-36.69011803 52.40479538 -36.69374365 50.62482765 -36.70490675 48.84491972 C-36.7951845 33.42371984 -34.63382103 21.88571731 -23.53776646 10.42328358 C-17.15708765 4.49406789 -8.82445416 0.02196548 0 0 Z " fill="#2FD9E6" transform="translate(59.194016456604004,-0.13422107696533203)"/>
<path d="M0 0 C1.04980545 -0.00145523 2.0996109 -0.00291046 3.18122864 -0.00440979 C5.39257595 -0.00275437 7.6039352 0.00876676 9.81518555 0.02954102 C13.20606094 0.05858544 16.5953809 0.05012409 19.98632812 0.03710938 C22.13672637 0.04334433 24.28711967 0.05173336 26.4375 0.0625 C27.45313522 0.05956436 28.46877045 0.05662872 29.5151825 0.05360413 C30.45658585 0.0662883 31.3979892 0.07897247 32.36791992 0.09204102 C33.1958757 0.097444 34.02383148 0.10284698 34.87687683 0.1084137 C37.51584202 0.58589348 38.37244943 1.42277732 40.01953125 3.49609375 C40.98681641 5.47314453 40.98681641 5.47314453 41.80859375 7.69140625 C42.11023438 8.48933594 42.411875 9.28726563 42.72265625 10.109375 C43.026875 10.93824219 43.33109375 11.76710938 43.64453125 12.62109375 C44.25951052 14.27035634 44.87658707 15.91883893 45.49609375 17.56640625 C45.76502441 18.29617676 46.03395508 19.02594727 46.31103516 19.77783203 C46.89034273 21.49496085 46.89034273 21.49496085 48.01953125 22.49609375 C49.45452693 22.60247589 50.89468783 22.64014058 52.33358765 22.6499939 C53.73010307 22.66289459 53.73010307 22.66289459 55.15483093 22.67605591 C56.69926628 22.68244583 56.69926628 22.68244583 58.27490234 22.68896484 C59.35287582 22.69714233 60.4308493 22.70531982 61.54148865 22.71374512 C65.12530958 22.7386532 68.70909083 22.75512749 72.29296875 22.76953125 C74.12289808 22.77751677 74.12289808 22.77751677 75.98979568 22.7856636 C82.44468814 22.8124166 88.89956109 22.83178609 95.35449219 22.84619141 C100.71109713 22.85856347 106.0673714 22.8867585 111.42382812 22.92822266 C117.87648579 22.97737142 124.32879839 23.00229078 130.78163528 23.00941849 C133.24651475 23.01615757 135.71138573 23.03144778 138.17615891 23.0553093 C141.61964317 23.08674781 145.06178243 23.08702937 148.50537109 23.07958984 C149.5309462 23.09599518 150.5565213 23.11240051 151.61317444 23.12930298 C154.17972415 23.10650919 156.51349104 23.0490433 159.01953125 22.49609375 C161.24239163 20.31386527 161.24239163 20.31386527 162.01953125 17.49609375 C162.44234375 16.35914063 162.86515625 15.2221875 163.30078125 14.05078125 C164.11483593 11.5929623 164.92733033 9.13462603 165.73828125 6.67578125 C166.95375614 3.65932833 167.521029 2.42708271 170.01953125 0.49609375 C172.20014954 0.1084137 172.20014954 0.1084137 174.76293945 0.09204102 C175.72436356 0.07935684 176.68578766 0.06667267 177.67634583 0.05360413 C178.71385483 0.05653976 179.75136383 0.0594754 180.8203125 0.0625 C181.88944382 0.05725815 182.95857513 0.0520163 184.06010437 0.0466156 C186.32383353 0.04018822 188.58759606 0.04154161 190.85131836 0.05004883 C194.30838956 0.05853571 197.76379622 0.02984302 201.22070312 -0.00195312 C203.42057242 -0.00356582 205.62044464 -0.0029863 207.8203125 0 C208.85174881 -0.01123398 209.88318512 -0.02246796 210.94587708 -0.03404236 C216.77774969 0.02230701 220.52952051 0.37801048 225.01953125 4.49609375 C228.94988047 9.25710852 228.40515197 14.18045356 228.3125 20.046875 C228.30825516 21.06081833 228.30401031 22.07476166 228.29963684 23.11943054 C228.28287984 26.34942474 228.24523247 29.57878897 228.20703125 32.80859375 C228.19198059 35.0019441 228.17829285 37.19530425 228.16601562 39.38867188 C228.13298612 44.75802648 228.08281619 50.1270151 228.01953125 55.49609375 C226.55266577 55.49829359 226.55266577 55.49829359 225.05616665 55.50053787 C201.26145646 55.53713285 177.46688703 55.59658246 153.67229366 55.67999649 C142.16539717 55.71980581 130.65856926 55.75218872 119.15161133 55.76708984 C109.12214404 55.78009651 99.09282753 55.80703608 89.06344515 55.85070682 C83.75293988 55.87334367 78.44262072 55.88900309 73.13206291 55.8879776 C68.13252275 55.88723231 63.13339436 55.90513059 58.13396072 55.93726158 C56.30021734 55.94577288 54.46642783 55.94750217 52.63267326 55.94189644 C50.12543909 55.93525345 47.61951391 55.95318325 45.1124115 55.97711182 C44.38963026 55.9693514 43.66684903 55.96159098 42.92216533 55.9535954 C37.03162739 56.05286795 32.86695679 57.82573141 28.55187649 61.87248445 C24.08469536 66.85042467 22.77688175 71.90095299 22.74105835 78.45663452 C22.72989487 79.62603577 22.71873138 80.79543701 22.70722961 82.00027466 C22.70506943 83.26910492 22.70290924 84.53793518 22.70068359 85.84521484 C22.69137741 87.20569449 22.68120771 88.56616846 22.67024231 89.92663574 C22.64300596 93.60796921 22.62781187 97.28926455 22.61481428 100.97067213 C22.5991558 104.82242155 22.57237427 108.67409343 22.54678345 112.52578735 C22.50004369 119.81416437 22.46327638 127.10255606 22.43011057 134.39100611 C22.3918552 142.69091439 22.342454 150.9907447 22.29212642 159.29058719 C22.18887803 176.35903292 22.09959462 193.42752384 22.01953125 210.49609375 C23.20224106 210.4872113 24.38495087 210.47832886 25.60350037 210.46917725 C36.770197 210.38795616 47.93683339 210.32806337 59.10375881 210.28884506 C64.84428188 210.26800443 70.58456575 210.23975086 76.32495117 210.19433594 C81.86871238 210.15075298 87.41224405 210.12693015 92.95616341 210.11658478 C95.06719639 210.10921578 97.17821735 210.09482591 99.28915215 210.07317352 C102.25480804 210.04397436 105.21952535 210.04014468 108.18530273 210.04199219 C109.05061615 210.02761108 109.91592957 210.01322998 110.8074646 209.99841309 C119.76262868 210.05845397 126.83634824 213.47474622 133.2890625 219.60546875 C139.20091247 226.06446511 139.6740495 232.21376362 139.390625 240.87109375 C138.5086098 249.48698965 135.015839 254.10520768 128.62890625 259.76953125 C122.0224662 264.14085835 116.00772843 264.93236107 108.29882812 264.83666992 C107.36131714 264.837108 106.42380615 264.83754608 105.45788574 264.83799744 C102.38446629 264.83592114 99.31160444 264.81264491 96.23828125 264.7890625 C94.09737445 264.78346243 91.95646379 264.77919427 89.81555176 264.77619934 C84.19967913 264.76478302 78.58404182 264.73534346 72.96826172 264.7020874 C67.2301756 264.67131719 61.49205121 264.65767917 55.75390625 264.64257812 C44.50901159 264.61047071 33.26429104 264.55931327 22.01953125 264.49609375 C22.07192232 267.99726218 22.16711295 271.49605972 22.26953125 274.99609375 C22.28371094 275.97835938 22.29789063 276.960625 22.3125 277.97265625 C22.50254388 283.67397251 23.17672989 287.90028577 26.07324219 292.85742188 C27.01953125 294.49609375 27.01953125 294.49609375 28.01953125 297.49609375 C29.80182061 298.63819192 29.80182061 298.63819192 32.01953125 299.49609375 C32.72898234 299.83968618 33.43843344 300.18327862 34.16938305 300.53728294 C37.76563396 301.74708819 41.12253284 301.78452268 44.87190247 301.77456665 C45.65613309 301.78035905 46.44036372 301.78615145 47.24835891 301.79211938 C49.87240156 301.80910524 52.49626817 301.81199466 55.12036133 301.81494141 C57.00285269 301.82424056 58.88533992 301.83440921 60.76782227 301.84538269 C65.87685862 301.87269819 70.98586739 301.88783673 76.09495759 301.90081072 C81.4348125 301.91643443 86.77461101 301.94322709 92.11442566 301.96884155 C102.22549661 302.01564275 112.33657815 302.0523804 122.44770211 302.08551443 C133.95912121 302.12372631 145.47048367 302.17313893 156.98185503 302.22349858 C180.66103847 302.3268384 204.34025828 302.41609217 228.01953125 302.49609375 C228.13639245 321.54154818 228.22453305 340.58692974 228.27859211 359.6326685 C228.30436116 368.4761816 228.33948671 377.31947178 228.39672852 386.1628418 C228.44660343 393.87177269 228.47883171 401.58054212 228.48997372 409.28962988 C228.49648563 413.37068417 228.51176282 417.4512766 228.54818153 421.53218269 C228.58220601 425.37606916 228.59257147 429.21930503 228.58506966 433.06332779 C228.58644135 434.47141116 228.59633617 435.87951704 228.61555862 437.28746986 C228.77056871 449.23046983 228.77056871 449.23046983 225.73405457 453.7641449 C222.95963423 456.55637527 220.99086326 458.24223447 217.05487454 458.74909341 C216.0140034 458.75120669 216.0140034 458.75120669 214.95210457 458.75336266 C213.74393709 458.76303599 213.74393709 458.76303599 212.5113622 458.77290475 C211.63218817 458.76980755 210.75301415 458.76671035 209.84719849 458.76351929 C208.43959647 458.77031596 208.43959647 458.77031596 207.00355804 458.77724993 C203.85144341 458.78993493 200.69950065 458.78827091 197.54736328 458.78662109 C195.29052507 458.79260376 193.03368892 458.7994087 190.77685547 458.80697632 C184.64051062 458.82466966 178.50422153 458.82933309 172.36785364 458.83060789 C167.24843628 458.83250524 162.12903195 458.83986084 157.00961959 458.84695208 C145.62339615 458.86231507 134.23720727 458.86828886 122.85097696 458.86694138 C122.16780593 458.86686147 121.4846349 458.86678155 120.78076172 458.86669922 C120.09675619 458.86661746 119.41275066 458.8665357 118.70801769 458.86645146 C107.62217413 458.86563852 96.53646642 458.88477824 85.45066215 458.91297595 C74.06674754 458.94170338 62.68291983 458.95515005 51.29896057 458.9537884 C44.90814948 458.95327795 38.51749213 458.9590072 32.1267128 458.9801445 C26.11682358 458.99947882 20.10723552 458.99968411 14.09733582 458.98511124 C11.8906447 458.98301611 9.68393497 458.98776571 7.47727585 458.99983215 C4.46643818 459.01523061 1.45664589 459.00601179 -1.5541687 458.99057007 C-2.42888128 459.00085719 -3.30359386 459.01114432 -4.20481288 459.02174318 C-9.60084558 458.96052087 -12.78103184 458.19560966 -16.98046875 454.49609375 C-20.57589949 449.99282712 -21.56090663 446.57372536 -21.48383331 440.93415833 C-21.49255396 439.81720858 -21.49255396 439.81720858 -21.50145078 438.6776942 C-21.5160587 436.1803891 -21.5021624 433.68406565 -21.48840332 431.18676758 C-21.49301193 429.37919773 -21.49936458 427.57163162 -21.5073123 425.76407337 C-21.5240342 420.79522202 -21.51574622 415.82667736 -21.50336742 410.8578248 C-21.49433098 405.49987093 -21.50827968 400.14197043 -21.51928711 394.7840271 C-21.53709193 384.28711689 -21.53322359 373.79032097 -21.52163655 363.29340625 C-21.51261023 354.76384209 -21.51137475 346.23431 -21.51573181 337.70474243 C-21.51634474 336.49167949 -21.51695768 335.27861654 -21.51758918 334.02879411 C-21.51886806 331.56463169 -21.52016491 329.10046928 -21.52147955 326.63630688 C-21.5328911 303.51916249 -21.51976261 280.40208151 -21.49827808 257.28494751 C-21.4804066 237.44090981 -21.48351054 217.5969657 -21.50195312 197.75292969 C-21.52334966 174.71961647 -21.53179241 151.68635884 -21.51950407 128.65303707 C-21.51822985 126.19783975 -21.51697236 123.74264241 -21.51573181 121.28744507 C-21.51511471 120.07937897 -21.51449761 118.87131287 -21.51386181 117.62663871 C-21.51040526 109.10537783 -21.51624382 100.58415216 -21.52565002 92.06289673 C-21.53685786 81.68110428 -21.53385552 71.29943283 -21.51252705 60.91765428 C-21.50200032 55.61870426 -21.4979225 50.31995614 -21.51112366 45.02100754 C-21.52301968 40.17268331 -21.51653107 35.32474862 -21.49521345 30.47645986 C-21.49073554 28.72015499 -21.4930402 26.9638174 -21.5027166 25.20753348 C-21.51484472 22.82389457 -21.50244315 20.44159756 -21.48383331 18.05802917 C-21.49319798 17.37280304 -21.50256264 16.6875769 -21.51221108 15.98158634 C-21.4352142 11.06237883 -20.01388996 8.3062713 -16.98046875 4.49609375 C-11.72127853 -0.31235166 -6.76388364 -0.07526559 0 0 Z " fill="#D4F9EB" transform="translate(70.98046875,26.50390625)"/>
<path d="M0 0 C0.83371205 -0.00445784 1.6674241 -0.00891569 2.52640015 -0.01350862 C3.89257309 -0.01323207 3.89257309 -0.01323207 5.28634548 -0.01294994 C6.25797097 -0.01662663 7.22959646 -0.02030332 8.23066515 -0.02409142 C11.49544131 -0.03512869 14.76018565 -0.03897221 18.02497768 -0.04278088 C20.36237088 -0.04904555 22.69976309 -0.05569235 25.0371542 -0.0626936 C32.721809 -0.08373781 40.40646402 -0.09409704 48.09113979 -0.10406017 C50.73698277 -0.10810774 53.38282564 -0.11222466 56.0286684 -0.11641026 C67.03569774 -0.13342162 78.04272608 -0.1479142 89.04976654 -0.155159 C91.90494761 -0.15706878 94.76012867 -0.15898913 97.61530972 -0.16094494 C98.67972398 -0.16167055 98.67972398 -0.16167055 99.76564156 -0.16241082 C111.25225677 -0.17070519 122.73876765 -0.19603244 134.22533733 -0.22852562 C146.02849869 -0.26164105 157.83160711 -0.27961186 169.63481516 -0.28280324 C176.25773158 -0.28496434 182.88051328 -0.2941003 189.5033884 -0.31926441 C195.73734844 -0.34256776 201.97103526 -0.34676901 208.20502758 -0.33650303 C210.48863859 -0.3360081 212.77226315 -0.34231582 215.05583286 -0.35605907 C231.38739183 -0.44881949 243.73456815 0.3400006 255.93488979 12.20453358 C268.42739057 25.41023421 268.12799577 41.27211223 268.01179409 58.50165272 C267.99327478 61.35387371 267.9912867 64.20577373 267.99153042 67.0580492 C267.98662362 68.86859891 267.98079899 70.67914642 267.97395229 72.48968983 C267.97283947 73.34370884 267.97172665 74.19772785 267.9705801 75.07762623 C267.92211824 81.01808638 267.92211824 81.01808638 266.80598354 82.13422108 C264.80633372 82.22180111 262.80362245 82.24118684 260.80207729 82.23187733 C258.97966518 82.22704334 258.97966518 82.22704334 257.12043667 82.2221117 C255.84104214 82.2137328 254.56164761 82.20535389 253.24348354 82.19672108 C251.96022182 82.19220936 250.67696011 82.18769764 249.35481167 82.1830492 C246.17182332 82.17121653 242.98892592 82.15473176 239.80598354 82.13422108 C239.80233791 81.57125324 239.79869228 81.00828541 239.79493618 80.42825794 C239.75304271 74.55525274 239.68364956 68.68302406 239.59846401 62.81049061 C239.57028295 60.62046554 239.54905421 58.43033931 239.53498745 56.24017811 C239.51351878 53.08714581 239.46684679 49.93532623 239.41535854 46.78265858 C239.41351559 45.31981937 239.41351559 45.31981937 239.4116354 43.82742786 C239.28986404 38.14291937 238.76977223 34.54163909 234.80598354 30.13422108 C231.77145302 28.25298051 229.44555513 27.87538563 225.90144253 27.84369373 C224.93041088 27.83093403 223.95937923 27.81817432 222.95892239 27.80502796 C221.91716351 27.80280231 220.87540462 27.80057667 219.80207729 27.79828358 C218.7272459 27.79162678 217.65241451 27.78496998 216.54501247 27.77811146 C214.27467974 27.76799302 212.00431732 27.76329419 209.73396206 27.76361561 C206.25291803 27.75923296 202.77313218 27.72287743 199.29231167 27.68500233 C197.08723789 27.67913604 194.88215808 27.67516539 192.67707729 27.67328358 C191.63329418 27.65891254 190.58951107 27.64454151 189.51409817 27.62973499 C188.54621868 27.63588825 187.5783392 27.64204151 186.58113003 27.64838123 C185.72937695 27.6455312 184.87762386 27.64268116 184.00006008 27.63974476 C181.65877681 27.95393406 181.65877681 27.95393406 180.08761501 29.94168568 C177.93971109 33.61618611 176.90568009 37.67903236 175.70051479 41.73383045 C174.59230051 45.28788073 173.78870685 47.84259498 170.80598354 50.13422108 C168.71169186 50.51453781 168.71169186 50.51453781 166.25141811 50.52190113 C165.3176585 50.53180576 164.38389889 50.5417104 163.42184353 50.55191517 C162.39941051 50.54741352 161.3769775 50.54291187 160.32356167 50.53827381 C158.70616337 50.54856869 158.70616337 50.54856869 157.05609035 50.55907154 C153.48300509 50.57741043 149.91035588 50.57349214 146.33723354 50.56781483 C143.86005923 50.57237292 141.38288618 50.57767737 138.90571499 50.58369923 C133.04445036 50.59379079 127.1833418 50.58765257 121.32208395 50.57644564 C116.64522215 50.56926057 111.96863994 50.58005648 107.29182339 50.60077381 C100.84980426 50.62897324 94.40807778 50.63774338 87.96600246 50.63054562 C85.50673588 50.63039186 83.04746092 50.63648106 80.58822536 50.64883709 C77.15461088 50.663658 73.72198813 50.65313509 70.28840542 50.63593006 C68.7547559 50.65043201 68.7547559 50.65043201 67.19012356 50.66522694 C65.78948414 50.65047573 65.78948414 50.65047573 64.36054897 50.63542652 C63.54865864 50.63521724 62.7367683 50.63500795 61.90027523 50.63479233 C59.80598354 50.13422108 59.80598354 50.13422108 58.07703304 48.22109032 C56.88803105 46.26893055 55.99260058 44.45375879 55.20051479 42.31390858 C54.80896206 41.26396717 54.80896206 41.26396717 54.40949917 40.19281483 C54.14846401 39.47222889 53.88742886 38.75164295 53.61848354 38.00922108 C53.34584682 37.28090076 53.07321011 36.55258045 52.79231167 35.80218983 C50.80598354 30.41570604 50.80598354 30.41570604 50.80598354 28.13422108 C43.79520473 28.0326473 36.7846163 27.96268247 29.7732687 27.91449451 C27.38908198 27.89440214 25.00494439 27.86712326 22.62092495 27.83246326 C19.19030016 27.78384249 15.76032799 27.76122796 12.32942104 27.74359608 C11.26669979 27.72295094 10.20397854 27.70230579 9.10905361 27.68103504 C3.19118637 27.67924816 -0.65047375 27.92067643 -5.19401646 32.13422108 C-8.23930891 36.20238259 -8.62265698 39.63968708 -8.57433319 44.57310867 C-8.57899311 45.31658799 -8.58365303 46.06006731 -8.58845416 46.8260763 C-8.60043537 49.32532699 -8.59099687 51.82403719 -8.58169651 54.32329273 C-8.58586806 56.12999779 -8.59134459 57.93670022 -8.59801632 59.74339777 C-8.61251307 64.71445865 -8.60821302 69.68535432 -8.60084951 74.6564244 C-8.59613059 80.0150722 -8.60861634 85.3736836 -8.61886692 90.73231983 C-8.63608523 101.2326891 -8.63688867 111.73299862 -8.63165402 122.23337834 C-8.6276168 130.76582346 -8.62905054 139.29825088 -8.63440228 147.83069515 C-8.63552491 149.65049281 -8.63552491 149.65049281 -8.63667022 151.50705405 C-8.63820166 153.971458 -8.63974 156.43586194 -8.64128519 158.90026588 C-8.65502115 182.02406928 -8.64956479 205.14783887 -8.63809998 228.2716415 C-8.62816595 249.43871147 -8.64110928 270.60569406 -8.66503417 291.77275055 C-8.68940102 313.49404529 -8.69903902 335.21529928 -8.69238144 356.93660742 C-8.68888391 369.13671507 -8.69115646 381.33675549 -8.70863247 393.53685284 C-8.72332425 403.92232331 -8.72402952 414.3076792 -8.70656156 424.69314735 C-8.69802433 429.99411972 -8.69596829 435.29488713 -8.71121311 440.59584904 C-8.72498921 445.44605672 -8.72038869 450.2958825 -8.70097388 455.14606769 C-8.69719172 456.90307816 -8.70019911 458.66011872 -8.71058553 460.41710257 C-8.7236825 462.80169599 -8.7122386 465.18495702 -8.69458771 467.56949234 C-8.70423822 468.25500432 -8.71388873 468.94051631 -8.72383168 469.64680138 C-8.64890382 474.56148942 -7.2252752 477.32703432 -4.19401646 481.13422108 C0.18862924 484.87506375 4.61765793 484.55704952 10.10529995 484.515172 C11.04526129 484.51985198 11.98522263 484.52453195 12.95366764 484.52935374 C16.10510372 484.54132515 19.25610668 484.53183796 22.40754604 484.52240467 C24.66615458 484.52646941 26.92476114 484.53181074 29.18336391 484.53833485 C35.31962097 484.55202579 41.45572692 484.54670238 47.59198666 484.53719759 C54.00918903 484.52961025 60.42637833 484.53664403 66.8435812 484.54135609 C78.31140327 484.54716623 89.77914153 484.53783444 101.24694943 484.52257808 C111.6436147 484.5091749 122.04017947 484.51150301 132.43684292 484.52533436 C144.51168675 484.54139079 156.58645467 484.54736396 168.66131306 484.53849757 C175.05259902 484.53381684 181.44381577 484.53320723 187.83509731 484.54310703 C193.84332843 484.55176318 199.85136949 484.54577934 205.85958004 484.52842426 C208.06668437 484.52445222 210.27380465 484.52560569 212.48090267 484.53221226 C215.48970791 484.54038929 218.49790107 484.53015235 221.50666714 484.515172 C222.38361044 484.52186417 223.26055374 484.52855633 224.16407108 484.53545129 C228.83873042 484.49019312 232.09337345 484.28701678 235.80598354 481.13422108 C238.70269009 477.40532915 239.18479003 474.61774293 239.20471096 469.95226002 C239.21724911 468.70850605 239.22978725 467.46475208 239.24270535 466.1833086 C239.2415314 464.8130233 239.24007229 463.44273823 239.23835659 462.0724535 C239.24737675 460.62345005 239.2577046 459.17445424 239.26924038 457.72546864 C239.29680693 453.79818383 239.30609439 449.87104382 239.31209445 445.9436748 C239.32147904 441.83699133 239.34768249 437.73041597 239.37209988 433.62379932 C239.41576625 425.85018246 239.44431235 418.07658658 239.46742326 410.3028844 C239.4944742 401.45160501 239.53838577 392.60043438 239.58371198 383.74923265 C239.67656023 365.54428621 239.74824014 347.33931101 239.80598354 329.13422108 C244.28513682 329.10535769 248.76426646 329.0874692 253.24348354 329.07172108 C254.52287807 329.06334217 255.80227261 329.05496326 257.12043667 329.04633045 C258.94284878 329.04149647 258.94284878 329.04149647 260.80207729 329.03656483 C261.92799282 329.03132801 263.05390835 329.02609119 264.21394253 329.02069569 C266.80598354 329.13422108 266.80598354 329.13422108 267.80598354 330.13422108 C267.9067786 331.94208678 267.93675215 333.75392425 267.93969631 335.56459522 C267.9439613 336.74343784 267.94822628 337.92228046 267.95262051 339.13684559 C267.95216732 340.44220264 267.95171413 341.7475597 267.95124722 343.09247303 C267.95423743 344.47214824 267.95763964 345.8518226 267.96142483 347.23149586 C267.97029121 350.99245745 267.97260427 354.75339631 267.97324061 358.51436734 C267.97395057 360.86680765 267.97608404 363.21924215 267.97873783 365.57168102 C267.98800571 373.7875998 267.99207164 382.00350232 267.99128628 390.21942616 C267.99068772 397.85990674 268.00119194 405.50031622 268.01702994 413.14077884 C268.03015493 419.70823919 268.03546798 426.27567649 268.03483087 432.84314984 C268.03457698 436.76152679 268.03736636 440.6798408 268.04800892 444.59820461 C268.05777146 448.29424796 268.05771389 451.99016938 268.05049229 455.68621731 C268.04896617 457.67107841 268.05723933 459.6559397 268.06593227 461.64078236 C268.01434089 476.52183007 266.12318832 489.69525329 255.68098354 501.00922108 C248.93189916 507.31142211 240.00882115 512.24505188 230.61196709 512.26844215 C229.77825504 512.2729 228.94454299 512.27735784 228.08556694 512.28195077 C226.719394 512.28167423 226.719394 512.28167423 225.3256216 512.2813921 C224.35399612 512.28506879 223.38237063 512.28874547 222.38130194 512.29253358 C219.11652577 512.30357085 215.85178144 512.30741436 212.5869894 512.31122303 C210.2495962 512.3174877 207.912204 512.3241345 205.57481289 512.33113575 C197.89015808 512.35217996 190.20550307 512.3625392 182.52082729 512.37250233 C179.87498432 512.37654989 177.22914145 512.38066682 174.58329868 512.38485241 C163.57626935 512.40186378 152.569241 512.41635635 141.56220055 512.42360115 C138.70701947 512.42551093 135.85183841 512.42743128 132.99665737 512.42938709 C132.28704786 512.42987083 131.57743835 512.43035457 130.84632552 512.43085297 C119.35971031 512.43914734 107.87319944 512.46447459 96.38662975 512.49696777 C84.58346839 512.53008321 72.78035997 512.54805401 60.97715193 512.55124539 C54.35423551 512.55340649 47.7314538 512.56254246 41.10857868 512.58770657 C34.87461865 512.61100991 28.64093183 512.61521117 22.40693951 512.60494518 C20.1233285 512.60445025 17.83970393 512.61075798 15.55613422 512.62450123 C-1.27956263 512.72012506 -13.43856136 511.7456299 -25.94401646 499.40765858 C-33.19431524 491.46858141 -36.51489753 482.07636664 -36.45128536 471.34105873 C-36.45479144 470.58356232 -36.45829751 469.8260659 -36.46190983 469.04561505 C-36.4712037 466.51077099 -36.46630573 463.97615769 -36.46144199 461.44130421 C-36.46517927 459.60415227 -36.4697811 457.76700192 -36.47517264 455.92985409 C-36.48740855 450.88371675 -36.48714146 445.83764567 -36.48478389 440.79149687 C-36.48437587 435.34824802 -36.49541349 429.90502045 -36.50489902 424.4617815 C-36.52151352 413.79792598 -36.52700879 403.13409257 -36.52812378 392.47022519 C-36.52907409 383.80153613 -36.53318355 375.13285435 -36.53952503 366.46416759 C-36.55713908 341.88577127 -36.56637586 317.30739224 -36.56486408 292.72898958 C-36.56480425 291.73553906 -36.56480425 291.73553906 -36.5647432 290.72201884 C-36.56466233 289.3826858 -36.56457873 288.04335276 -36.56449242 286.70401972 C-36.56326723 265.87156217 -36.57827484 245.03916976 -36.60563755 224.20673084 C-36.63637738 200.79357748 -36.65354355 177.38046382 -36.65171111 153.96728867 C-36.6510472 141.57363119 -36.65653994 129.18004716 -36.67806721 116.78640652 C-36.69627963 106.23354452 -36.70062582 95.68078925 -36.68704836 85.12791834 C-36.68051894 79.74517506 -36.68040077 74.36263655 -36.69775486 68.97991276 C-36.71349155 64.04806175 -36.71061565 59.11657777 -36.6931866 54.18473568 C-36.69011803 52.40479538 -36.69374365 50.62482765 -36.70490675 48.84491972 C-36.7951845 33.42371984 -34.63382103 21.88571731 -23.53776646 10.42328358 C-17.15708765 4.49406789 -8.82445416 0.02196548 0 0 Z " fill="#7B727B" transform="translate(59.194016456604004,-0.13422107696533203)"/>
<path d="M0 0 C4.41079226 -0.04980916 8.82143112 -0.08591133 13.23242188 -0.10986328 C14.72984676 -0.11985901 16.22725244 -0.13346014 17.72460938 -0.15087891 C19.88937143 -0.17541288 22.05387323 -0.18654744 24.21875 -0.1953125 C25.51748047 -0.20578613 26.81621094 -0.21625977 28.15429688 -0.22705078 C34.20307303 0.1300697 39.71405544 1.02285842 44.3125 5.25 C44.94800781 5.81203125 45.58351563 6.3740625 46.23828125 6.953125 C50.88010464 12.34628566 51.43575627 17.19348451 51.38095093 23.99523926 C51.38797089 25.33802594 51.38797089 25.33802594 51.39513266 26.70793962 C51.40708067 29.701929 51.39762609 32.6954605 51.38818359 35.68945312 C51.39224937 37.83821377 51.39759129 39.98697233 51.40411377 42.13572693 C51.41779233 47.96828523 51.41248641 53.80068437 51.40297651 59.63324547 C51.39538277 65.73633631 51.40242474 71.8394135 51.40713501 77.94250488 C51.41259338 88.19167529 51.40539877 98.44078085 51.39111328 108.68994141 C51.37478666 120.54039281 51.3800751 132.39068937 51.3965925 144.24113703 C51.410205 154.41452946 51.41212816 164.58787527 51.40427649 174.76127386 C51.3995987 180.83790977 51.39897811 186.91447289 51.40888596 192.99110413 C51.41754985 198.70387587 51.41154407 204.41644791 51.39420319 210.12919807 C51.39023529 212.22622915 51.39137756 214.32327703 51.39799118 216.42030144 C51.4061846 219.28201503 51.39591147 222.143088 51.38095093 225.00476074 C51.39098918 226.25058261 51.39098918 226.25058261 51.40123022 227.52157259 C51.337443 233.80885675 49.87165664 237.88207275 45.625 242.6875 C39.22835374 248.32264076 34.10993465 249.13213965 25.73046875 249.09765625 C25.04946609 249.0962413 24.36846344 249.09482635 23.66682434 249.09336853 C21.50700353 249.08780298 19.34728911 249.07525703 17.1875 249.0625 C15.71679838 249.05748054 14.24609512 249.05291841 12.77539062 249.04882812 C9.1835596 249.03784488 5.5917902 249.02060422 2 249 C4 247 4 247 7.3125 245.6875 C12.0613386 243.71293094 14.91593682 240.75305512 17.61723614 236.38474274 C19.35190882 232.13859419 19.4152703 228.69317413 19.3742218 224.15661621 C19.37819621 223.2777593 19.38217061 222.39890239 19.38626546 221.49341345 C19.39587376 218.55468815 19.38407912 215.61644601 19.37231445 212.67773438 C19.3747429 210.56838298 19.37846273 208.45903274 19.38337708 206.34968567 C19.39278243 200.6245526 19.3833635 194.89959061 19.37004495 189.1744709 C19.35872847 183.18349304 19.36283811 177.19252357 19.36479187 171.20153809 C19.36567478 161.14067795 19.35459501 151.0798852 19.33618164 141.01904297 C19.3150141 129.38674294 19.31150418 117.75454163 19.3177436 106.12222624 C19.32343809 94.93305883 19.31779058 83.74392619 19.30657005 72.55476379 C19.30192521 67.79254005 19.30104973 63.03033758 19.3031559 58.26811218 C19.3050394 52.66043237 19.29692998 47.05285305 19.2810955 41.44519615 C19.27685267 39.3868673 19.2760021 37.32852826 19.27878571 35.27019691 C19.28200825 32.46114889 19.27292369 29.65240096 19.26069641 26.84338379 C19.26447573 26.02839967 19.26825506 25.21341556 19.27214891 24.37373495 C19.21644113 17.14136202 17.50988753 11.79842682 13 6 C9.02530897 2.90857364 4.8345385 2.0652373 0 1 C0 0.67 0 0.34 0 0 Z " fill="#00D0E4" transform="translate(438,81)"/>
<path d="M0 0 C23.59734949 -0.16043524 23.59734949 -0.16043524 33.68554688 -0.1953125 C40.55896413 -0.21918844 47.43216747 -0.24738023 54.30541992 -0.30175781 C59.84918113 -0.34534077 65.3927128 -0.3691636 70.93663216 -0.37950897 C73.04766514 -0.38687797 75.1586861 -0.40126784 77.2696209 -0.42292023 C80.23527679 -0.45211939 83.1999941 -0.45594907 86.16577148 -0.45410156 C87.0310849 -0.46848267 87.89639832 -0.48286377 88.78793335 -0.49768066 C97.74309743 -0.43763978 104.81681699 2.97865247 111.26953125 9.109375 C117.18138122 15.56837136 117.65451825 21.71766987 117.37109375 30.375 C116.48907855 38.9908959 112.99630775 43.60911393 106.609375 49.2734375 C100.00293495 53.6447646 93.98819718 54.43626732 86.27929688 54.34057617 C85.34178589 54.34101425 84.4042749 54.34145233 83.43835449 54.34190369 C80.36493504 54.33982739 77.29207319 54.31655116 74.21875 54.29296875 C72.0778432 54.28736868 69.93693254 54.28310052 67.79602051 54.28010559 C62.18014788 54.26868927 56.56451057 54.23924971 50.94873047 54.20599365 C44.20054995 54.16980686 37.45229045 54.15611633 30.70404053 54.13863373 C20.46919703 54.10961054 10.23486918 54.05210058 0 54 C0 36.18 0 18.36 0 0 Z " fill="#FD6268" transform="translate(93,237)"/>
<path d="M0 0 C4.47915328 -0.02886338 8.95828291 -0.04675187 13.4375 -0.0625 C14.71689453 -0.07087891 15.99628906 -0.07925781 17.31445312 -0.08789062 C19.13686523 -0.09272461 19.13686523 -0.09272461 20.99609375 -0.09765625 C22.12200928 -0.10289307 23.2479248 -0.10812988 24.40795898 -0.11352539 C27 0 27 0 28 1 C28.10079505 2.80786571 28.1307686 4.61970317 28.13371277 6.43037415 C28.14011024 8.19863808 28.14011024 8.19863808 28.14663696 10.00262451 C28.14595718 11.9606601 28.14595718 11.9606601 28.14526367 13.95825195 C28.14825389 15.33792716 28.1516561 16.71760153 28.15544128 18.09727478 C28.16430767 21.85823637 28.16662073 25.61917523 28.16725707 29.38014627 C28.16796703 31.73258657 28.1701005 34.08502108 28.17275429 36.43745995 C28.18202216 44.65337872 28.18608809 52.86928125 28.18530273 61.08520508 C28.18470418 68.72568567 28.1952084 76.36609514 28.2110464 84.00655776 C28.22417139 90.57401812 28.22948443 97.14145541 28.22884732 103.70892876 C28.22859344 107.62730571 28.23138282 111.54561972 28.24202538 115.46398354 C28.25178792 119.16002688 28.25173035 122.8559483 28.24450874 126.55199623 C28.24298262 128.53685733 28.25125578 130.52171863 28.25994873 132.50656128 C28.20835735 147.387609 26.31720477 160.56103222 15.875 171.875 C7.4951579 179.69997989 -1.79288176 183.17562937 -13.046875 183.09765625 C-13.81807678 183.0962413 -14.58927856 183.09482635 -15.3838501 183.09336853 C-17.83927338 183.08778534 -20.29460442 183.07523595 -22.75 183.0625 C-24.41796743 183.05748283 -26.08593629 183.0529203 -27.75390625 183.04882812 C-31.83597287 183.03782141 -35.91797081 183.02056836 -40 183 C-40 182.67 -40 182.34 -40 182 C-39.23816406 181.85304688 -38.47632813 181.70609375 -37.69140625 181.5546875 C-31.1383757 180.13118274 -26.22175643 178.33360537 -20.83984375 174.3046875 C-19 173 -19 173 -16 172 C-14.93876156 170.17021205 -14.93876156 170.17021205 -14 168 C-13.0398768 166.52905917 -12.0595792 165.07114541 -11.0625 163.625 C-8.73787023 160.18589881 -6.82458308 156.73210176 -5 153 C-4.32289978 152.2443576 -3.64579956 151.48871521 -2.94818115 150.71017456 C0.5241197 145.50343179 -0.43018808 138.83522428 -0.45410156 132.82470703 C-0.445361 131.37555331 -0.43487352 129.92640924 -0.42277527 128.47727966 C-0.39495338 124.55412931 -0.39150973 120.63129446 -0.39249516 116.70805979 C-0.38936275 112.60403817 -0.36373775 108.50015797 -0.34051514 104.39620972 C-0.2999766 96.62968976 -0.2796195 88.86325373 -0.26654124 81.09664428 C-0.25066391 72.25258369 -0.2122452 63.40866576 -0.17194796 54.56468797 C-0.08957842 36.37650377 -0.03546793 18.18833309 0 0 Z " fill="#69636B" transform="translate(299,329)"/>
<path d="M0 0 C0.89320953 -0.00978378 1.78641907 -0.01956757 2.70669556 -0.02964783 C5.66097536 -0.05954646 8.61521004 -0.08097283 11.56958008 -0.09985352 C13.08627006 -0.10971126 13.08627006 -0.10971126 14.63360023 -0.11976814 C19.98667629 -0.15233871 25.33973265 -0.17679433 30.69287109 -0.19628906 C35.11504168 -0.21409286 39.53657351 -0.24890214 43.95849609 -0.29882812 C49.30593454 -0.35912687 54.65278137 -0.38977802 60.00054359 -0.39946175 C62.03345947 -0.4080012 64.06636017 -0.42678185 66.09908104 -0.45620537 C85.30404511 -0.7192117 85.30404511 -0.7192117 91.62495422 4.57627869 C96.65875966 9.95895027 98.46205319 13.65934504 98.77661133 21.20874023 C98.48405994 29.01568309 96.23764094 33.12271062 90.83911133 38.52124023 C84.44924121 42.53348426 78.70544695 43.65645293 71.32397461 43.62866211 C70.05884537 43.64136642 70.05884537 43.64136642 68.76815796 43.65432739 C66.00258973 43.67757037 63.23758201 43.67872258 60.47192383 43.67749023 C58.53433006 43.68459955 56.59673837 43.69229967 54.65914917 43.70056152 C50.60595848 43.71397725 46.55296248 43.71558822 42.49975586 43.7097168 C37.32604808 43.70382396 32.15327973 43.73440888 26.97975349 43.77483368 C22.98008257 43.80078327 18.98063567 43.80358151 14.98089218 43.79994202 C13.07444778 43.80162651 11.16799228 43.81120395 9.26163101 43.8290863 C-11.49365186 44.00236743 -11.49365186 44.00236743 -19.46969604 36.73059082 C-24.53963404 31.13421063 -25.36654809 25.50482916 -25.22338867 18.21264648 C-24.34214886 11.15354837 -19.82705555 6.77264495 -14.59448242 2.33764648 C-10.21973239 -0.49077132 -5.02944756 0.03486713 0 0 Z " fill="#30D9E7" transform="translate(137.848388671875,375.791259765625)"/>
<path d="M0 0 C0.66700928 -0.00686325 1.33401855 -0.0137265 2.02124023 -0.02079773 C4.22604666 -0.03909843 6.43014368 -0.03522379 8.63500977 -0.02954102 C10.16813896 -0.03410149 11.7012661 -0.03940666 13.23439026 -0.04542542 C16.44817405 -0.05436305 19.66170945 -0.05192639 22.87548828 -0.04199219 C26.99277523 -0.03050502 31.10920423 -0.05070583 35.22637844 -0.07990932 C38.39286237 -0.09826209 41.55914037 -0.09798073 44.72566414 -0.0922718 C46.24351263 -0.09211846 47.76137496 -0.09817411 49.2791729 -0.11056328 C51.40280713 -0.12545418 53.52485275 -0.11481288 55.6484375 -0.09765625 C56.85628403 -0.09749008 58.06413055 -0.09732391 59.30857849 -0.09715271 C62.38891602 0.40405273 62.38891602 0.40405273 64.77685547 2.14707947 C66.60348223 4.70445721 66.89817254 5.9099145 66.92236328 9.01733398 C66.93819962 9.92507568 66.95403595 10.83281738 66.97035217 11.76806641 C66.9653923 12.74106689 66.96043243 13.71406738 66.95532227 14.71655273 C66.96152084 15.72242432 66.96771942 16.7282959 66.97410583 17.76464844 C66.98120411 19.88955721 66.97802989 22.0145216 66.96533203 24.1394043 C66.95146431 27.39272213 66.98554044 30.64316528 67.02368164 33.89624023 C67.02463281 35.96134511 67.02277412 38.02645358 67.01782227 40.09155273 C67.03108047 41.06455322 67.04433868 42.03755371 67.05799866 43.04003906 C67.03919899 44.40165161 67.03919899 44.40165161 67.02001953 45.79077148 C67.01905777 46.58700928 67.01809601 47.38324707 67.0171051 48.20361328 C66.05403085 51.57709847 64.34220289 52.61447481 61.38891602 54.40405273 C58.27098083 54.90525818 58.27098083 54.90525818 54.734375 54.90576172 C53.76268372 54.9138662 53.76268372 54.9138662 52.7713623 54.9221344 C50.6421053 54.93458481 48.51421022 54.91815954 46.38500977 54.90014648 C44.89958119 54.90030154 43.41415221 54.90179165 41.9287262 54.90455627 C38.82095376 54.90593853 35.71364382 54.89341048 32.60595703 54.87060547 C28.62557692 54.842196 24.64596346 54.8449669 20.66552639 54.85769558 C17.60026008 54.86465466 14.53517056 54.85686138 11.46992683 54.84443855 C10.00233704 54.83992799 8.53472825 54.83958381 7.06713676 54.84350395 C5.01571693 54.84641921 2.96534924 54.82989739 0.9140625 54.80810547 C-0.835364 54.80000099 -0.835364 54.80000099 -2.62013245 54.79173279 C-5.93866361 54.36159264 -7.35324801 53.86341755 -9.61108398 51.40405273 C-10.11228943 49.24121094 -10.11228943 49.24121094 -10.11279297 46.70483398 C-10.12217392 45.75374756 -10.13155487 44.80266113 -10.14122009 43.82275391 C-10.12998611 42.79770752 -10.11875214 41.77266113 -10.10717773 40.71655273 C-10.10863297 39.66250244 -10.1100882 38.60845215 -10.11158752 37.52246094 C-10.109927 35.29318478 -10.09834864 33.06389735 -10.07763672 30.8347168 C-10.04869558 27.41723061 -10.05702237 24.00129606 -10.07006836 20.58374023 C-10.06383078 18.41967017 -10.05543969 16.25560502 -10.04467773 14.09155273 C-10.04761337 13.06650635 -10.05054901 12.04145996 -10.05357361 10.98535156 C-10.04088943 10.03426514 -10.02820526 9.08317871 -10.01513672 8.10327148 C-10.00973373 7.26626709 -10.00433075 6.4292627 -9.99876404 5.56689453 C-9.61108398 3.40405273 -9.61108398 3.40405273 -8.49902344 1.63560486 C-5.67545103 -0.20628503 -3.35033161 0.01499671 0 0 Z " fill="#FCE489" transform="translate(149.611083984375,121.595947265625)"/>
<path d="M0 0 C6.0315233 4.34614512 7.78661262 11.18952617 10.30078125 17.9296875 C10.78603138 19.20646927 11.27214533 20.48292305 11.75907898 21.75906372 C12.77365781 24.42715511 13.77859296 27.09862074 14.77661133 29.77294922 C16.05171789 33.18781378 17.3491232 36.59367151 18.65372944 39.99735832 C19.66006757 42.62965434 20.65506274 45.26612602 21.64668846 47.90399551 C22.34981868 49.76897936 23.06182661 51.63060844 23.77400208 53.49215698 C27.78097733 64.30039106 27.78097733 64.30039106 27 70 C25.4375 72.4375 25.4375 72.4375 23 74 C19.5 74.5625 19.5 74.5625 16 74 C11.75511779 70.22677137 11.10298553 66.60796142 9 61 C-3.87 60.505 -3.87 60.505 -17 60 C-17.99 63.3 -18.98 66.6 -20 70 C-21.75 72.625 -21.75 72.625 -24 74 C-27.5 74.5625 -27.5 74.5625 -31 74 C-33.5 71.9375 -33.5 71.9375 -35 69 C-34.69244381 62.24108656 -32.02994659 56.19341148 -29.6328125 49.93359375 C-29.19742157 48.78133804 -28.76203064 47.62908234 -28.31344604 46.44190979 C-27.39383412 44.01247666 -26.47075433 41.58435375 -25.54443359 39.1574707 C-24.12968013 35.44976542 -22.72606365 31.73799318 -21.32421875 28.02539062 C-20.42773542 25.66121096 -19.53062114 23.29727044 -18.6328125 20.93359375 C-18.21395782 19.82721054 -17.79510315 18.72082733 -17.36355591 17.58091736 C-10.09845601 -1.41732716 -10.09845601 -1.41732716 0 0 Z " fill="#F4F6F6" transform="translate(380,227)"/>
<path d="M0 0 C1.06992187 -0.00515625 2.13984375 -0.0103125 3.2421875 -0.015625 C4.3559375 -0.00015625 5.4696875 0.0153125 6.6171875 0.03125 C7.70773437 0.01578125 8.79828125 0.0003125 9.921875 -0.015625 C18.13603034 0.02367718 25.31263663 1.23518142 31.89453125 6.42578125 C37.03039324 12.84234164 40.20532583 18.50020759 39.8984375 26.9140625 C38.69545366 34.66405457 34.48706298 40.17217772 28.65234375 45.15625 C23.51857504 48.42403768 18.564747 48.80609162 12.6171875 48.65625 C11.92882812 48.64722656 11.24046875 48.63820313 10.53125 48.62890625 C8.85140912 48.60557513 7.17175004 48.56971326 5.4921875 48.53125 C5.51313477 49.14121826 5.53408203 49.75118652 5.55566406 50.37963867 C5.63911611 53.15917294 5.69093761 55.9384432 5.7421875 58.71875 C5.79246094 60.15831055 5.79246094 60.15831055 5.84375 61.62695312 C5.90497776 66.050659 5.92957705 68.76771997 3.6953125 72.66796875 C1.4921875 74.53125 1.4921875 74.53125 -2.0078125 75.15625 C-5.5078125 74.53125 -5.5078125 74.53125 -7.69421387 72.3966217 C-9.8543192 68.98379123 -10.01410316 67.07376359 -10.02539062 63.06030273 C-10.03799927 61.77224228 -10.05060791 60.48418182 -10.06359863 59.15708923 C-10.05643935 57.75966848 -10.0482355 56.36225274 -10.0390625 54.96484375 C-10.04175887 53.52425373 -10.04564251 52.08366548 -10.05065918 50.64308167 C-10.05654565 47.62947192 -10.04801827 44.61633754 -10.02929688 41.6027832 C-10.00648635 37.74332398 -10.01964767 33.88497616 -10.04358673 30.02555752 C-10.0580508 27.05291895 -10.05343649 24.08054335 -10.04307556 21.1078968 C-10.04041098 19.68495616 -10.04366867 18.26199149 -10.05299377 16.8390789 C-10.06316955 14.85032493 -10.04490533 12.861487 -10.02539062 10.87280273 C-10.02220825 9.74204819 -10.01902588 8.61129364 -10.01574707 7.4462738 C-8.99873158 1.60964734 -5.54439076 0.02598208 0 0 Z " fill="#F5F6F6" transform="translate(311.5078125,226.46875)"/>
<path d="M0 0 C4.78306186 -0.09992737 9.56549757 -0.17195954 14.34936523 -0.21972656 C15.97186893 -0.23966813 17.59430242 -0.26683174 19.21655273 -0.30175781 C32.58788917 -0.58213119 43.71270586 0.5331649 54 10 C65.12634626 20.82011655 67.98522562 32.14870699 68.21392822 47.4103241 C68.23634523 51.06299404 68.2304452 54.71478503 68.20581055 58.36743164 C68.18729123 61.21965263 68.18530315 64.07155265 68.18554688 66.92382812 C68.18064007 68.73437783 68.17481545 70.54492534 68.16796875 72.35546875 C68.16685593 73.20948776 68.1657431 74.06350677 68.16459656 74.94340515 C68.1161347 80.8838653 68.1161347 80.8838653 67 82 C65.00035018 82.08758003 62.9976389 82.10696576 60.99609375 82.09765625 C59.17368164 82.09282227 59.17368164 82.09282227 57.31445312 82.08789062 C56.03505859 82.07951172 54.75566406 82.07113281 53.4375 82.0625 C52.15423828 82.05798828 50.87097656 82.05347656 49.54882812 82.04882812 C46.36583978 82.03699545 43.18294238 82.02051068 40 82 C39.99453156 81.15554825 39.99453156 81.15554825 39.98895264 80.29403687 C39.94705917 74.42103166 39.87766601 68.54880298 39.79248047 62.67626953 C39.7642994 60.48624447 39.74307066 58.29611823 39.72900391 56.10595703 C39.70753523 52.95292473 39.66086325 49.80110515 39.609375 46.6484375 C39.60814636 45.67321136 39.60691772 44.69798523 39.60565186 43.69320679 C39.4817435 37.90893955 38.78039518 34.63156281 35 30 C33.21166049 26.69784678 31.49481676 23.36489268 29.78125 20.0234375 C28.10300176 17.17483193 26.35287081 15.28063355 24 13 C24 12.34 24 11.68 24 11 C23.4121875 10.72027344 22.824375 10.44054688 22.21875 10.15234375 C20.16437026 9.08536836 18.38912429 7.89234407 16.5 6.5625 C11.41125021 3.30492911 5.85746794 2.20078093 0 1 C0 0.67 0 0.34 0 0 Z " fill="#69626A" transform="translate(259,0)"/>
<path d="M0 0 C4.25556409 3.70600449 7.24882984 8.00802751 10.3125 12.6875 C10.9940918 13.70166992 10.9940918 13.70166992 11.68945312 14.73632812 C15 19.73948543 15 19.73948543 15 22 C19.57048525 17.94912908 22.28760779 12.85513105 25.37695312 7.66796875 C25.80041016 6.97058594 26.22386719 6.27320313 26.66015625 5.5546875 C27.22682007 4.60311768 27.22682007 4.60311768 27.80493164 3.63232422 C29 2 29 2 32 0 C35.5772533 -0.45667063 37.33458305 -0.43777431 40.375 1.5625 C42.68345641 5.02518461 42.48036144 6.85739582 42 11 C40.41346982 14.3769059 38.39442114 17.41006781 36.3125 20.5 C35.78205078 21.31597656 35.25160156 22.13195312 34.70507812 22.97265625 C30.35677401 29.62049297 30.35677401 29.62049297 28.50952148 31.58544922 C23.15304736 37.45684033 24.36212763 45.66230754 24.4375 53.125 C24.45414803 55.30951095 24.46313442 57.49268282 24.44776917 59.67721558 C24.43430495 61.65342678 24.44962691 63.62977244 24.46655273 65.60595703 C23.91768577 69.59881343 22.90124487 71.24321947 20 74 C16.5 74.5625 16.5 74.5625 13 74 C10.79736328 72.39379883 10.79736328 72.39379883 9 70 C8.61279297 66.84643555 8.61279297 66.84643555 8.7421875 63.13671875 C8.7650994 61.76794781 8.78509427 60.39912559 8.80249023 59.03027344 C8.81625702 58.31995972 8.8300238 57.609646 8.84420776 56.87780762 C9.02478754 44.03284071 8.40142843 34.28604439 -0.65576172 24.49414062 C-2.90407874 21.99510318 -4.731506 19.27757618 -6.625 16.5 C-7.27726562 15.6028125 -7.92953125 14.705625 -8.6015625 13.78125 C-10.35393503 10.29608453 -10.3639747 7.85358218 -10 4 C-7.27238925 -0.09141613 -4.79563536 -0.88083098 0 0 Z " fill="#F4F6F6" transform="translate(412,227)"/>
<path d="M0 0 C2.64870655 1.99821538 4.66040953 3.59546807 5.46508789 6.92358398 C5.63707001 9.13628393 5.63336601 11.28208554 5.5625 13.5 C5.57345703 14.24636719 5.58441406 14.99273437 5.59570312 15.76171875 C5.54486745 19.59133981 5.21524347 21.63795671 3.21875 24.99609375 C0.86396323 27.1228642 0.04712663 27.66435675 -3.0625 27.5625 C-7 27 -7 27 -8.71875 25.55859375 C-10.69184974 21.61840982 -10.4735467 17.84526612 -10.4375 13.5 C-10.45748047 12.64535156 -10.47746094 11.79070312 -10.49804688 10.91015625 C-10.4931906 4.68440644 -10.4931906 4.68440644 -8.15625 1.44140625 C-5.1569019 -0.56359275 -3.53891197 -0.65000424 0 0 Z " fill="#F1F6F6" transform="translate(440,133)"/>
<path d="M0 0 C3.83673978 1.20786252 4.53855599 1.58034058 6.375 5.0625 C6.8361039 8.06984673 6.83918843 11.02487174 6.8125 14.0625 C6.83248047 14.86945313 6.85246094 15.67640625 6.87304688 16.5078125 C6.86988378 20.34147912 6.83748635 22.41281679 4.5703125 25.59765625 C1.38435526 27.7235174 -0.88648424 27.5383111 -4.625 27.0625 C-6.72858381 25.51987187 -7.46554159 24.38141683 -8.625 22.0625 C-8.82893196 19.27445878 -8.94870547 16.54088867 -9 13.75 C-9.05607422 12.61014648 -9.05607422 12.61014648 -9.11328125 11.44726562 C-9.17984481 7.19089596 -8.9830705 5.53627355 -6.328125 2.0234375 C-3.625 0.0625 -3.625 0.0625 0 0 Z " fill="#F3F6F6" transform="translate(410.625,132.9375)"/>
<path d="M0 0 C2.80127859 2.55429811 3.01177955 4.10686494 3.43359375 7.93359375 C3.45078816 9.43479793 3.45160214 10.93626359 3.4375 12.4375 C3.45748047 13.18837891 3.47746094 13.93925781 3.49804688 14.71289062 C3.49462954 18.5983969 3.24234699 20.59800758 1.19140625 24 C-1 26 -1 26 -4.5 26.5625 C-8 26 -8 26 -10.18359375 24.55859375 C-12.92854212 20.69205357 -12.62185261 17.12950392 -12.5625 12.5 C-12.58634766 11.64535156 -12.61019531 10.79070312 -12.63476562 9.91015625 C-12.6247373 5.62471685 -12.61806588 3.69440905 -9.69140625 0.40625 C-5.99789115 -1.52359824 -3.94898533 -1.17006973 0 0 Z " fill="#F3F6F6" transform="translate(356,134)"/>
<path d="M0 0 C2.64870655 1.99821538 4.66040953 3.59546807 5.46508789 6.92358398 C5.63707001 9.13628393 5.63336601 11.28208554 5.5625 13.5 C5.57345703 14.24636719 5.58441406 14.99273437 5.59570312 15.76171875 C5.54486745 19.59133981 5.21524347 21.63795671 3.21875 24.99609375 C0.86396323 27.1228642 0.04712663 27.66435675 -3.0625 27.5625 C-7 27 -7 27 -8.71875 25.55859375 C-10.69184974 21.61840982 -10.4735467 17.84526612 -10.4375 13.5 C-10.45748047 12.64535156 -10.47746094 11.79070312 -10.49804688 10.91015625 C-10.4931906 4.68440644 -10.4931906 4.68440644 -8.15625 1.44140625 C-5.1569019 -0.56359275 -3.53891197 -0.65000424 0 0 Z " fill="#F1F6F6" transform="translate(325,133)"/>
<path d="M0 0 C2.64870655 1.99821538 4.66040953 3.59546807 5.46508789 6.92358398 C5.63707001 9.13628393 5.63336601 11.28208554 5.5625 13.5 C5.57345703 14.24636719 5.58441406 14.99273437 5.59570312 15.76171875 C5.54486745 19.59133981 5.21524347 21.63795671 3.21875 24.99609375 C0.86396323 27.1228642 0.04712663 27.66435675 -3.0625 27.5625 C-7 27 -7 27 -8.71875 25.55859375 C-10.69184974 21.61840982 -10.4735467 17.84526612 -10.4375 13.5 C-10.45748047 12.64535156 -10.47746094 11.79070312 -10.49804688 10.91015625 C-10.4931906 4.68440644 -10.4931906 4.68440644 -8.15625 1.44140625 C-5.1569019 -0.56359275 -3.53891197 -0.65000424 0 0 Z " fill="#F1F6F6" transform="translate(285,133)"/>
<path d="M0 0 C11.9162669 -0.60183166 11.9162669 -0.60183166 14.94140625 1.078125 C16.25 2.4375 16.25 2.4375 18 5 C18.33 5.33 18.66 5.66 19 6 C18.84783778 9.95621778 18.28423344 12.52289386 16.25 15.9375 C11.00985612 19.26297592 6.11415226 18.30879557 0 18 C0 12.06 0 6.12 0 0 Z " fill="#32D9E7" transform="translate(317,242)"/>
<path d="M0 0 C2.56679483 2.56679483 3.33348554 5.05010682 4.625 8.4375 C5.07101562 9.59121094 5.51703125 10.74492187 5.9765625 11.93359375 C7 15 7 15 7 18 C2.38 18 -2.24 18 -7 18 C-5.02989474 11.79416842 -2.74844552 5.90148454 0 0 Z " fill="#3DDBE8" transform="translate(376,254)"/>
</svg>
