<?xml version="1.0" encoding="UTF-8"?>
<svg version="1.1" xmlns="http://www.w3.org/2000/svg" width="512" height="512">
<path d="M0 0 C1.62111443 0.00033989 1.62111443 0.00033989 3.27497864 0.00068665 C4.43035629 0.0161705 5.58573395 0.03165436 6.77612305 0.04760742 C8.56339058 0.05397469 8.56339058 0.05397469 10.38676453 0.06047058 C14.18735476 0.07724524 17.98741218 0.11489659 21.7878418 0.15307617 C24.36661017 0.16812452 26.94538687 0.18181266 29.52416992 0.1940918 C35.84140859 0.2271449 42.15833712 0.27733299 48.4753418 0.34057617 C46.09071334 3.43397011 43.73481049 6.15698307 40.74487305 8.66870117 C36.43450364 12.35789081 32.28786796 16.19614153 28.1628418 20.09057617 C27.42372559 20.78795898 26.68460937 21.4853418 25.9230957 22.20385742 C18.08515224 29.62334454 10.40277257 37.09404503 3.32250977 45.24829102 C0.3351728 48.63204436 -2.78839825 51.88371226 -5.8996582 55.15307617 C-11.00234394 60.55142452 -15.85514004 66.02301593 -20.4855957 71.83276367 C-22.58647727 74.41660651 -24.78052385 76.88051137 -27.0246582 79.34057617 C-31.73092472 84.51256698 -36.12949496 89.90405021 -40.5246582 95.34057617 C-41.98244203 97.1118619 -43.440779 98.88269252 -44.8996582 100.65307617 C-49.15798303 105.86014694 -53.33094696 111.129273 -57.46606445 116.43432617 C-59.72244239 119.32754253 -62.00736146 122.19637336 -64.30200195 125.05932617 C-65.58468408 126.6738062 -66.86723764 128.28838838 -68.1496582 129.90307617 C-68.76607178 130.66499268 -69.38248535 131.42690918 -70.01757812 132.21191406 C-70.58968018 132.93628662 -71.16178223 133.66065918 -71.7512207 134.40698242 C-72.26249512 135.04579346 -72.77376953 135.68460449 -73.30053711 136.34277344 C-74.75963993 138.72407347 -75.25883855 140.56469482 -75.5246582 143.34057617 C-74.44066263 145.9433406 -73.31695128 148.26330838 -71.9621582 150.71557617 C-71.21036155 152.15077949 -70.46304581 153.58833794 -69.7199707 155.02807617 C-69.34646484 155.75124023 -68.97295898 156.4744043 -68.58813477 157.21948242 C-49.05602392 196.17608918 -47.79730431 244.42562168 -61.1262207 285.44995117 C-64.7060192 295.83250787 -69.24301479 305.72017687 -74.5246582 315.34057617 C-74.87254395 315.97447266 -75.22042969 316.60836914 -75.57885742 317.26147461 C-85.00935528 334.18889457 -97.48604165 350.0565577 -112.5246582 362.34057617 C-113.2995459 362.99195557 -113.2995459 362.99195557 -114.09008789 363.65649414 C-145.74188339 390.25217744 -185.00923266 404.82761806 -226.3996582 404.71557617 C-227.16134308 404.71503235 -227.92302795 404.71448853 -228.70779419 404.71392822 C-277.93271579 404.55333746 -320.97056391 384.11917561 -355.36450195 349.50854492 C-388.68274831 314.56501826 -402.73471184 268.1580171 -401.66088867 220.68969727 C-399.91870124 177.85936191 -380.93445674 139.62719372 -352.5246582 108.34057617 C-351.82727539 107.5697168 -351.12989258 106.79885742 -350.41137695 106.00463867 C-336.28678224 91.18440011 -318.01518399 79.81132017 -299.5246582 71.34057617 C-298.87335938 71.03522949 -298.22206055 70.72988281 -297.55102539 70.4152832 C-256.24988251 51.25801708 -207.96597868 51.82375385 -165.5402832 66.71166992 C-148.92107836 73.00628292 -133.86735939 81.93469917 -119.5246582 92.34057617 C-116.27258729 90.92319128 -114.21104753 89.21531206 -111.7746582 86.65307617 C-108.56417607 83.2874657 -105.153527 80.25136353 -101.64331055 77.20751953 C-98.24844202 74.21598235 -94.98955112 71.08447685 -91.7121582 67.96557617 C-86.31034335 62.85961379 -80.83593843 58.00323769 -75.02075195 53.37182617 C-72.49742489 51.31841448 -70.10533547 49.1686956 -67.7121582 46.96557617 C-62.20874178 41.96325575 -56.38291038 37.41911527 -50.50219727 32.87670898 C-48.43439783 31.2704628 -46.38097958 29.64709749 -44.3293457 28.02026367 C-33.37406283 19.36435818 -22.16714764 11.05615793 -10.5246582 3.34057617 C-9.76992218 2.82365204 -9.01518616 2.30672791 -8.23757935 1.7741394 C-5.19194169 0.16476194 -3.41781868 -0.02401278 0 0 Z " fill="#AFEE8E" transform="translate(432.524658203125,53.659423828125)"/>
<path d="M0 0 C1.62111443 0.00033989 1.62111443 0.00033989 3.27497864 0.00068665 C4.43035629 0.0161705 5.58573395 0.03165436 6.77612305 0.04760742 C8.56339058 0.05397469 8.56339058 0.05397469 10.38676453 0.06047058 C14.18735476 0.07724524 17.98741218 0.11489659 21.7878418 0.15307617 C24.36661017 0.16812452 26.94538687 0.18181266 29.52416992 0.1940918 C35.84140859 0.2271449 42.15833712 0.27733299 48.4753418 0.34057617 C46.09071334 3.43397011 43.73481049 6.15698307 40.74487305 8.66870117 C36.43450364 12.35789081 32.28786796 16.19614153 28.1628418 20.09057617 C27.42372559 20.78795898 26.68460937 21.4853418 25.9230957 22.20385742 C18.08515224 29.62334454 10.40277257 37.09404503 3.32250977 45.24829102 C0.3351728 48.63204436 -2.78839825 51.88371226 -5.8996582 55.15307617 C-11.00234394 60.55142452 -15.85514004 66.02301593 -20.4855957 71.83276367 C-22.58647727 74.41660651 -24.78052385 76.88051137 -27.0246582 79.34057617 C-31.73092472 84.51256698 -36.12949496 89.90405021 -40.5246582 95.34057617 C-41.98244203 97.1118619 -43.440779 98.88269252 -44.8996582 100.65307617 C-51.43488352 108.64433615 -57.7804188 116.78465481 -64.09106445 124.95385742 C-64.70248291 125.74397217 -65.31390137 126.53408691 -65.94384766 127.34814453 C-67.12827567 128.8797352 -68.31055209 130.41299322 -69.49023438 131.94824219 C-72.28123005 135.55688854 -75.12893241 139.0685 -78.1574707 142.48120117 C-81.06603021 145.76664672 -83.63610035 149.11843508 -86.1496582 152.71557617 C-87.00974885 153.93734339 -87.87045752 155.15867569 -88.73168945 156.37963867 C-89.40772217 157.34111816 -89.40772217 157.34111816 -90.09741211 158.32202148 C-92.64956773 161.93153614 -95.24558105 165.50931899 -97.8371582 169.09057617 C-98.38670166 169.85208984 -98.93624512 170.61360352 -99.50244141 171.39819336 C-102.21566722 175.15684974 -104.93770625 178.90842061 -107.6809082 182.64526367 C-114.65547985 192.17580815 -121.30739356 201.88478401 -127.79345703 211.75512695 C-130.92541863 216.50820246 -134.11106568 221.18940378 -137.4855957 225.77416992 C-141.83137106 231.69293332 -145.84502714 237.80463652 -149.8371582 243.96557617 C-150.58864061 245.12099701 -151.34035269 246.27626849 -152.09228516 247.43139648 C-153.57188108 249.70561573 -155.04969353 251.98097559 -156.52563477 254.25756836 C-158.20780915 256.85191352 -159.89275672 259.44441304 -161.5793457 262.03588867 C-183.39198028 295.59561414 -204.69558394 329.5647483 -224.5246582 364.34057617 C-228.52826622 360.82588802 -230.78811126 356.71447931 -233.3996582 352.15307617 C-241.18954216 338.86563084 -249.86480811 326.16570913 -258.46009827 313.39285278 C-261.33966636 309.11248762 -264.20048377 304.82063847 -267.04418945 300.51635742 C-273.98805036 290.00983689 -281.08000665 279.6631526 -288.51293945 269.49682617 C-291.42955676 265.49753222 -294.23921085 261.43192282 -297.0246582 257.34057617 C-301.44652139 250.85286622 -306.00579868 244.47504307 -310.6184082 238.12182617 C-314.29412339 233.05576954 -317.92529579 227.96112246 -321.5246582 222.84057617 C-331.62131166 208.49576784 -341.94475755 194.33273307 -352.5246582 180.34057617 C-350.86363929 176.09366749 -347.71213013 173.18669426 -344.5637207 170.00854492 C-343.97674408 169.41253983 -343.38976746 168.81653473 -342.78500366 168.20246887 C-341.54535976 166.94834877 -340.30291212 165.69699466 -339.05786133 164.44824219 C-337.15104274 162.52946939 -335.26367026 160.59283377 -333.3762207 158.6550293 C-332.1690395 157.43839025 -330.96074347 156.22285613 -329.7512207 155.00854492 C-329.18754791 154.42533981 -328.62387512 153.8421347 -328.04312134 153.24125671 C-326.42553711 151.64208984 -326.42553711 151.64208984 -323.5246582 149.34057617 C-319.18756651 149.84477502 -315.99533833 152.56903503 -312.5246582 155.02807617 C-311.82824219 155.51429443 -311.13182617 156.0005127 -310.41430664 156.50146484 C-308.90430945 157.55683386 -307.39624299 158.61496948 -305.88989258 159.67553711 C-303.50643763 161.35340279 -301.11786016 163.02372197 -298.7277832 164.69213867 C-294.50698765 167.64010909 -290.29074024 170.59450887 -286.07592773 173.55102539 C-281.95589758 176.44096042 -277.83435205 179.32872846 -273.7121582 182.21557617 C-272.89956543 182.78477783 -272.08697266 183.35397949 -271.24975586 183.94042969 C-265.72191272 187.80991989 -260.18358944 191.66409216 -254.64135742 195.51293945 C-245.22037025 202.05550522 -235.82872382 208.63261898 -226.5246582 215.34057617 C-223.01734107 211.96270308 -220.00064637 208.48869206 -217.0871582 204.59057617 C-208.39916441 193.11608763 -199.11584062 182.10945386 -189.70605469 171.22314453 C-186.80213421 167.85777651 -183.98440879 164.44123362 -181.2121582 160.96557617 C-176.7431404 155.45079187 -171.90583687 150.31234908 -167.015625 145.1730957 C-163.33647232 141.30333103 -159.77181384 137.36185766 -156.27124023 133.33007812 C-153.34391629 129.9956131 -150.315632 126.75874641 -147.2746582 123.52807617 C-146.59862549 122.80885986 -145.92259277 122.08964355 -145.22607422 121.34863281 C-138.97882895 114.74395632 -132.56240517 108.31475668 -126.08422852 101.93701172 C-122.57409682 98.46630705 -119.15778007 94.98250483 -115.94262695 91.23510742 C-112.50490379 87.23850121 -108.77628484 83.65716822 -104.8996582 80.09057617 C-104.20525635 79.44652832 -103.51085449 78.80248047 -102.79541016 78.13891602 C-101.38165367 76.82851045 -99.96638792 75.51973116 -98.54956055 74.21264648 C-96.68600878 72.48974861 -94.83194793 70.75741281 -92.98168945 69.02026367 C-87.19822684 63.60630242 -81.30850515 58.43915723 -75.1262207 53.47729492 C-72.57479091 51.38175124 -70.14139047 49.20094463 -67.7121582 46.96557617 C-62.20874178 41.96325575 -56.38291038 37.41911527 -50.50219727 32.87670898 C-48.43439783 31.2704628 -46.38097958 29.64709749 -44.3293457 28.02026367 C-33.37406283 19.36435818 -22.16714764 11.05615793 -10.5246582 3.34057617 C-9.76992218 2.82365204 -9.01518616 2.30672791 -8.23757935 1.7741394 C-5.19194169 0.16476194 -3.41781868 -0.02401278 0 0 Z " fill="#009045" transform="translate(432.524658203125,53.659423828125)"/>
</svg>
