<?xml version="1.0" encoding="UTF-8"?>
<svg version="1.1" xmlns="http://www.w3.org/2000/svg" width="512" height="512">
<path d="M0 0 C1.1270982 -0.00523668 2.25419639 -0.01047336 3.41544908 -0.01586872 C7.19451797 -0.03087767 10.97345156 -0.03157409 14.75254822 -0.03224182 C17.46137639 -0.03878287 20.17019287 -0.04824156 22.87901306 -0.0574646 C30.24086553 -0.08029013 37.60268913 -0.08823291 44.96457219 -0.09329104 C49.56553211 -0.0965516 54.16648369 -0.10307633 58.76743889 -0.11029243 C71.51766852 -0.12985694 84.26789042 -0.14626144 97.01813602 -0.14916897 C97.83368331 -0.14935654 98.64923059 -0.14954411 99.48949143 -0.14973736 C101.14266678 -0.1501036 102.79584212 -0.1504673 104.44901747 -0.15082847 C105.26960742 -0.15101128 106.09019737 -0.1511941 106.93565369 -0.15138245 C107.75725093 -0.151563 108.57884818 -0.15174354 109.42534231 -0.15192956 C122.72759601 -0.15546852 136.02968755 -0.1824741 149.33188505 -0.21988034 C163.00416647 -0.258018 176.67636756 -0.27732685 190.34870332 -0.27762848 C198.01908016 -0.2782119 205.68926365 -0.28662905 213.35959053 -0.31562614 C219.89332161 -0.34021349 226.42678887 -0.34737382 232.96055377 -0.33237862 C236.29002962 -0.32523864 239.6185641 -0.32869297 242.94804955 -0.34878922 C267.03688211 -0.48527524 279.32001422 3.66664193 296.68998718 20.7849884 C298.06081451 22.15247726 298.06081451 22.15247726 299.45933533 23.54759216 C300.43944464 24.52124963 301.41969257 25.49476759 302.40007019 26.46815491 C304.43718806 28.49340723 306.47024395 30.52263714 308.50083923 32.5544281 C311.08147287 35.13526546 313.6756377 37.70202441 316.27347946 40.26552391 C318.29662546 42.26626528 320.31044664 44.27620193 322.32189178 46.2887001 C323.73039688 47.69375522 325.14793223 49.08973969 326.5657196 50.48542786 C339.50016135 63.51154045 343.96208858 76.0318377 344.05528259 94.15452576 C344.06518219 95.34533752 344.07508179 96.53614929 344.08528137 97.76304626 C344.11138635 101.01464089 344.13328231 104.26623071 344.15328336 107.51786757 C344.17522036 110.92116342 344.20257114 114.32441573 344.2293396 117.72767639 C344.27916255 124.16607555 344.32413974 130.60449902 344.36736196 137.0429455 C344.41682346 144.37550106 344.47170841 151.70801292 344.52704155 159.04052615 C344.64070189 174.11836155 344.74757536 189.19623817 344.84996033 204.27415466 C347.54177308 201.61181266 350.2275818 198.94348799 352.91246033 196.27415466 C353.6646283 195.5303656 354.41679626 194.78657654 355.1917572 194.02024841 C359.41311203 189.81716785 363.4664099 185.54114274 367.32621765 181.00262451 C369.72826591 178.27784161 372.39150067 175.87562507 375.09996033 173.46165466 C378.40810058 170.4798438 381.68221209 167.50300549 384.74839783 164.27024841 C394.22127144 154.29523107 404.1685225 148.46922165 418.04527283 147.30931091 C431.44445851 147.14135455 442.99676151 151.28173716 452.84996033 160.27415466 C461.31973103 168.62675462 466.00472272 178.05092732 466.23008728 190.08738708 C466.21230519 198.53895832 465.83214068 205.61408015 461.84996033 213.27415466 C461.53414001 213.92770935 461.2183197 214.58126404 460.89292908 215.25462341 C458.42457477 219.73833817 455.01747526 223.40384223 451.55308533 227.13352966 C451.02974609 227.69835052 450.50640686 228.26317139 449.96720886 228.84510803 C444.25202022 234.97354295 438.35652115 240.91876238 432.42124939 246.83323669 C430.58380273 248.66526461 428.75184383 250.50266072 426.92027283 252.34056091 C425.7252812 253.53489246 424.52997978 254.72891416 423.33433533 255.92259216 C422.80080444 256.45814728 422.26727356 256.99370239 421.71757507 257.54548645 C420.11245144 259.1409033 418.48760994 260.71216221 416.84996033 262.27415466 C416.3004924 262.80505203 415.75102448 263.3359494 415.18490601 263.88293457 C411.10735742 267.64545444 406.7390941 270.72399552 402.08262634 273.72215271 C378.67021186 288.91586762 349.55815606 310.28402053 343.40762931 339.12948281 C336.56118102 375.66704984 340.02275186 415.35965549 342.70863342 452.2052002 C342.80273772 453.55045509 342.89670406 454.89571965 342.99052334 456.24099445 C343.16747071 458.69796558 343.36087404 461.15384038 343.57524967 463.60782909 C344.45854778 475.75627576 341.77337412 485.28597637 334.84996033 495.27415466 C334.23121033 496.18165466 333.61246033 497.08915466 332.97496033 498.02415466 C325.78487371 505.63718755 315.73303203 511.72981645 305.12464285 512.46234202 C301.73896154 512.53810183 298.35826042 512.55022491 294.97172546 512.5415802 C293.67085251 512.54611131 292.36997956 512.55064243 291.02968621 512.55531085 C287.42961069 512.5675165 283.82962826 512.56728326 280.22953677 512.56492209 C276.34255471 512.56451331 272.45560224 512.57555898 268.56863403 512.58503723 C260.95716256 512.60163499 253.34572206 512.60714623 245.73423401 512.60826199 C239.54551259 512.60921307 233.35680138 512.61332638 227.16808319 512.61966324 C209.61248578 512.63727255 192.05691281 512.64650263 174.5013065 512.64500229 C173.5553027 512.64492238 172.60929889 512.64484247 171.6346283 512.64476013 C170.68746611 512.64467837 169.74030392 512.64459661 168.76443985 512.64451237 C153.41750683 512.64369963 138.07067199 512.66283517 122.72376737 512.69103687 C106.95642262 512.71978196 91.18912573 512.73357625 75.42175412 512.73184931 C66.57330506 512.73118596 57.72495893 512.73665428 48.87653351 512.75820541 C41.34221656 512.77643864 33.80804919 512.78074702 26.2737197 512.76718657 C22.43229811 512.7606676 18.59116331 512.76050061 14.74976921 512.77789307 C10.57834029 512.79658492 6.40757204 512.78404142 2.23612976 512.76863098 C1.03173335 512.77891811 -0.17266306 512.78920523 -1.41355634 512.79980409 C-14.05664453 512.69678565 -23.67041803 508.60383776 -33.15003967 500.27415466 C-41.21050408 491.70523795 -46.47810145 481.55049848 -46.40730858 469.66371632 C-46.41081465 468.91382764 -46.41432073 468.16393897 -46.41793305 467.3913264 C-46.42724339 464.87634977 -46.42232468 462.36160489 -46.41746521 459.84661865 C-46.42120166 458.02611626 -46.42580316 456.20561547 -46.43119586 454.38511723 C-46.44344205 449.38039609 -46.44316347 444.37574171 -46.4408071 439.37100899 C-46.44039934 433.97411512 -46.45143425 428.57724276 -46.46092224 423.18035889 C-46.47754248 412.60560299 -46.48303227 402.03086938 -46.484147 391.45610151 C-46.48509706 382.86032042 -46.48920525 374.26454669 -46.49554825 365.66876793 C-46.51316403 341.30074782 -46.52238668 316.93274534 -46.5208873 292.56471882 C-46.52080739 291.25074915 -46.52072748 289.93677948 -46.52064514 288.58299255 C-46.52056338 287.26741925 -46.52048162 285.95184594 -46.52039738 284.59640678 C-46.51958455 263.27757839 -46.53872056 241.95884303 -46.56692187 220.64003203 C-46.59564702 198.75257374 -46.60946235 176.86514991 -46.60773432 154.97767228 C-46.60707026 142.68854838 -46.61256971 130.39949854 -46.63409042 118.11039162 C-46.6522974 107.64640916 -46.65665353 97.18253434 -46.64307158 86.71854291 C-46.63653933 81.38048572 -46.63643413 76.04263505 -46.65377808 70.70459747 C-46.6695024 65.81470065 -46.66665151 60.9251742 -46.64920981 56.03528645 C-46.64613851 54.26946585 -46.64977719 52.50361765 -46.66092996 50.7378296 C-46.74891985 35.81422831 -44.25032714 24.7688181 -34.15003967 13.27415466 C-29.1299834 8.55197258 -23.53385712 4.87954244 -17.15003967 2.27415466 C-16.34835641 1.93280959 -15.54667315 1.59146452 -14.72069645 1.23977566 C-9.78086034 -0.09611568 -5.09583465 -0.01170469 0 0 Z " fill="#B7DFF5" transform="translate(46.15003967285156,-0.2741546630859375)"/>
<path d="M0 0 C0.65849493 -0.00170885 1.31698985 -0.0034177 1.99543917 -0.00517833 C4.18804122 -0.00845606 6.38033294 0.00250175 8.57290649 0.01345825 C10.15012607 0.01402274 11.72734616 0.01370507 13.30456543 0.01257324 C17.57684741 0.01200019 21.84901673 0.02374682 26.12127256 0.03772116 C30.58957057 0.05023641 35.05787125 0.05139964 39.52618408 0.05377197 C47.98334212 0.0599844 56.44044836 0.07639202 64.8975836 0.09647095 C76.32869472 0.12302071 87.75982003 0.13380451 99.19095421 0.14547539 C117.19542631 0.16427277 135.19978911 0.20412004 153.20425415 0.24050903 C153.20425415 49.74050903 153.20425415 99.24050903 153.20425415 150.24050903 C91.07925415 150.49050903 91.07925415 150.49050903 71.46939087 150.5383606 C65.66421342 150.57158408 65.66421342 150.57158408 59.85906982 150.6100769 C57.27492019 150.62468439 54.69148494 150.63294123 52.10736084 150.63204956 C48.19134624 150.63113265 44.27589904 150.66177891 40.36001587 150.6946106 C39.21055922 150.68958652 38.06110256 150.68456245 36.87681389 150.67938614 C30.7022095 150.76055905 26.85072877 151.01027173 22.20425415 155.24050903 C19.25482152 159.66465798 18.66324879 164.21724379 19.60269165 169.46707153 C20.92082107 173.60754865 22.3968978 175.95117142 26.16762161 178.37801361 C30.62674853 180.26641345 35.59684811 179.80729223 40.36001587 179.78640747 C42.19012459 179.80191399 42.19012459 179.80191399 44.0572052 179.81773376 C47.38965701 179.84211746 50.72127231 179.8490001 54.05375433 179.84801388 C57.54118964 179.85114919 61.02845906 179.87678019 64.51580811 179.8999939 C71.11360083 179.94051031 77.71129483 179.96088427 84.30919278 179.97396779 C91.82318303 179.98985268 99.33700563 180.0282745 106.8508985 180.06856108 C122.30199282 180.15090041 137.75297882 180.20205488 153.20425415 180.24050903 C153.20425415 190.14050903 153.20425415 200.04050903 153.20425415 210.24050903 C147.57145386 210.25452759 147.57145386 210.25452759 141.82485962 210.26882935 C129.42353562 210.30258274 117.02238697 210.35792142 104.62119865 210.42441177 C97.10167972 210.46420069 89.58226541 210.49659386 82.06265259 210.51150513 C75.5076166 210.52452249 68.95281084 210.55148904 62.39790452 210.5951221 C58.92791005 210.61773538 55.45819953 210.63341982 51.98812485 210.63239288 C48.11185141 210.63150733 44.23615745 210.66176804 40.36001587 210.6946106 C39.21274521 210.68958023 38.06547455 210.68454987 36.88343811 210.67936707 C30.7064139 210.760441 26.85264982 211.00852277 22.20425415 215.24050903 C19.25482152 219.66465798 18.66324879 224.21724379 19.60269165 229.46707153 C20.92082107 233.60754865 22.3968978 235.95117142 26.16762161 238.37801361 C30.62674853 240.26641345 35.59684811 239.80729223 40.36001587 239.78640747 C42.19012459 239.80191399 42.19012459 239.80191399 44.0572052 239.81773376 C47.38965701 239.84211746 50.72127231 239.8490001 54.05375433 239.84801388 C57.54118964 239.85114919 61.02845906 239.87678019 64.51580811 239.8999939 C71.11360083 239.94051031 77.71129483 239.96088427 84.30919278 239.97396779 C91.82318303 239.98985268 99.33700563 240.0282745 106.8508985 240.06856108 C122.30199282 240.15090041 137.75297882 240.20205488 153.20425415 240.24050903 C153.20425415 250.14050903 153.20425415 260.04050903 153.20425415 270.24050903 C147.57145386 270.25452759 147.57145386 270.25452759 141.82485962 270.26882935 C129.42353562 270.30258274 117.02238697 270.35792142 104.62119865 270.42441177 C97.10167972 270.46420069 89.58226541 270.49659386 82.06265259 270.51150513 C75.5076166 270.52452249 68.95281084 270.55148904 62.39790452 270.5951221 C58.92791005 270.61773538 55.45819953 270.63341982 51.98812485 270.63239288 C48.11185141 270.63150733 44.23615745 270.66176804 40.36001587 270.6946106 C38.63910988 270.68706505 38.63910988 270.68706505 36.88343811 270.67936707 C30.7064139 270.760441 26.85264982 271.00852277 22.20425415 275.24050903 C19.25482152 279.66465798 18.66324879 284.21724379 19.60269165 289.46707153 C20.92082107 293.60754865 22.3968978 295.95117142 26.16762161 298.37801361 C30.62674853 300.26641345 35.59684811 299.80729223 40.36001587 299.78640747 C41.58008835 299.79674515 42.80016083 299.80708282 44.0572052 299.81773376 C47.38965701 299.84211746 50.72127231 299.8490001 54.05375433 299.84801388 C57.54118964 299.85114919 61.02845906 299.87678019 64.51580811 299.8999939 C71.11360083 299.94051031 77.71129483 299.96088427 84.30919278 299.97396779 C91.82318303 299.98985268 99.33700563 300.0282745 106.8508985 300.06856108 C122.30199282 300.15090041 137.75297882 300.20205488 153.20425415 300.24050903 C153.20425415 310.14050903 153.20425415 320.04050903 153.20425415 330.24050903 C147.57145386 330.25452759 147.57145386 330.25452759 141.82485962 330.26882935 C129.42353562 330.30258274 117.02238697 330.35792142 104.62119865 330.42441177 C97.10167972 330.46420069 89.58226541 330.49659386 82.06265259 330.51150513 C75.5076166 330.52452249 68.95281084 330.55148904 62.39790452 330.5951221 C58.92791005 330.61773538 55.45819953 330.63341982 51.98812485 330.63239288 C48.11185141 330.63150733 44.23615745 330.66176804 40.36001587 330.6946106 C38.63910988 330.68706505 38.63910988 330.68706505 36.88343811 330.67936707 C30.7064139 330.760441 26.85264982 331.00852277 22.20425415 335.24050903 C19.25482152 339.66465798 18.66324879 344.21724379 19.60269165 349.46707153 C20.92082107 353.60754865 22.3968978 355.95117142 26.16762161 358.37801361 C30.62674853 360.26641345 35.59684811 359.80729223 40.36001587 359.78640747 C41.58008835 359.79674515 42.80016083 359.80708282 44.0572052 359.81773376 C47.38965701 359.84211746 50.72127231 359.8490001 54.05375433 359.84801388 C57.54118964 359.85114919 61.02845906 359.87678019 64.51580811 359.8999939 C71.11360083 359.94051031 77.71129483 359.96088427 84.30919278 359.97396779 C92.56076576 359.99141196 100.8121654 360.03583859 109.06362915 360.08035278 C123.7771661 360.15960911 138.49046207 360.1981428 153.20425415 360.24050903 C153.20425415 380.70050903 153.20425415 401.16050903 153.20425415 422.24050903 C150.23425415 423.23050903 147.26425415 424.22050903 144.20425415 425.24050903 C140.55807819 428.14256745 139.48798547 429.53108645 138.7315979 434.08816528 C138.50996796 438.67420012 138.37395581 442.95509427 141.14175415 446.80300903 C144.82249922 450.01886453 144.82249922 450.01886453 153.20425415 452.24050903 C153.20425415 472.04050903 153.20425415 491.84050903 153.20425415 512.24050903 C132.53281821 512.33092157 111.86154321 512.40455628 91.18995953 512.44775772 C81.59105521 512.46835309 71.99228278 512.49641566 62.39346313 512.54226685 C54.02380796 512.58222745 45.65424834 512.60796382 37.28450042 512.61686301 C32.85575737 512.62206219 28.4272876 512.63421858 23.99863243 512.66342926 C19.82321053 512.6907444 15.64817237 512.69892181 11.4726696 512.69293976 C9.94695189 512.69403284 8.42122026 512.7018905 6.89558029 512.71733093 C-7.41281085 512.85493799 -17.9098802 509.80584977 -28.79574585 500.24050903 C-36.85621026 491.67159232 -42.12380763 481.51685285 -42.05301476 469.63007069 C-42.05652083 468.88018201 -42.0600269 468.13029334 -42.06363922 467.35768077 C-42.07294957 464.84270414 -42.06803086 462.32795926 -42.06317139 459.81297302 C-42.06690784 457.99247063 -42.07150934 456.17196984 -42.07690203 454.3514716 C-42.08914823 449.34675046 -42.08886965 444.34209608 -42.08651328 439.33736336 C-42.08610552 433.94046949 -42.09714042 428.54359713 -42.10662842 423.14671326 C-42.12324866 412.57195736 -42.12873844 401.99722375 -42.12985317 391.42245588 C-42.13080323 382.82667479 -42.13491143 374.23090106 -42.14125443 365.6351223 C-42.15887021 341.26710219 -42.16809286 316.89909971 -42.16659348 292.53107319 C-42.16651356 291.21710352 -42.16643365 289.90313385 -42.16635132 288.54934692 C-42.16626956 287.23377362 -42.1661878 285.91820031 -42.16610356 284.56276115 C-42.16529073 263.24393276 -42.18442674 241.9251974 -42.21262805 220.6063864 C-42.2413532 198.71892811 -42.25516852 176.83150428 -42.2534405 154.94402665 C-42.25277643 142.65490275 -42.25827589 130.36585291 -42.2797966 118.07674599 C-42.29800358 107.61276353 -42.30235971 97.14888871 -42.28877775 86.68489728 C-42.28224551 81.34684009 -42.2821403 76.00898942 -42.29948425 70.67095184 C-42.31520857 65.78105502 -42.31235769 60.89152857 -42.29491599 56.00164082 C-42.29184469 54.23582022 -42.29548337 52.46997202 -42.30663614 50.70418397 C-42.39462603 35.78058268 -39.89603332 24.73517247 -29.79574585 13.24050903 C-21.53308117 5.46812463 -11.5009403 -0.01805485 0 0 Z " fill="#C9E7F8" transform="translate(41.795745849609375,-0.240509033203125)"/>
<path d="M0 0 C9.83641261 10.31679555 11.90719916 22.48200247 11.62890625 36.12890625 C11.35363864 41.89800855 9.97595978 46.68910062 7.3125 51.8125 C6.99667969 52.46605469 6.68085938 53.11960937 6.35546875 53.79296875 C3.88711444 58.27668351 0.48001493 61.94218757 -2.984375 65.671875 C-3.50771423 66.23669586 -4.03105347 66.80151672 -4.57025146 67.38345337 C-10.28544011 73.51188829 -16.18093918 79.45710772 -22.11621094 85.37158203 C-23.9536576 87.20360995 -25.7856165 89.04100605 -27.6171875 90.87890625 C-28.81217913 92.0732378 -30.00748054 93.2672595 -31.203125 94.4609375 C-31.73665588 94.99649261 -32.27018677 95.53204773 -32.81988525 96.08383179 C-35.55252501 98.79994625 -38.3404899 101.39390046 -41.27320862 103.89324951 C-46.28125773 108.26134344 -50.93318877 112.95623664 -55.60424805 117.67919922 C-56.57241985 118.65421723 -57.54085189 119.6289769 -58.50952148 120.60350037 C-60.57930132 122.6865119 -62.64762797 124.77095158 -64.71491051 126.8564415 C-67.98509498 130.15465774 -71.26086042 133.44729296 -74.53779602 136.73880005 C-75.66308453 137.86923076 -76.78836581 138.99966866 -77.91364002 140.1301136 C-78.47666659 140.69572573 -79.03969316 141.26133786 -79.61978114 141.84408975 C-87.23728085 149.49756086 -94.84988054 157.15585871 -102.45239258 164.82421875 C-107.59688579 170.01317999 -112.74844594 175.1950112 -117.90815765 180.36884129 C-120.63389556 183.10264984 -123.35579402 185.84005503 -126.06897545 188.58633041 C-128.61566044 191.16403365 -131.17145377 193.73233642 -133.73456573 196.29370308 C-135.12034942 197.68347091 -136.49612969 199.08319101 -137.87159729 200.48316956 C-138.69991058 201.30742935 -139.52822388 202.13168915 -140.38163757 202.98092651 C-141.45422837 204.06099629 -141.45422837 204.06099629 -142.54848766 205.16288567 C-144.98233182 207.03987541 -146.64437279 207.55174363 -149.6875 207.8125 C-151.38058472 206.84767151 -151.38058472 206.84767151 -152.89794922 205.29907227 C-153.47560028 204.72419571 -154.05325134 204.14931915 -154.64840698 203.55702209 C-155.25685455 202.92074387 -155.86530212 202.28446564 -156.4921875 201.62890625 C-157.45549484 200.65642189 -157.45549484 200.65642189 -158.43826294 199.66429138 C-160.49409216 197.581491 -162.52795865 195.47857817 -164.5625 193.375 C-165.92444747 191.99152425 -167.2877152 190.60934689 -168.65234375 189.22851562 C-173.64468836 184.15325666 -178.61197043 179.09042168 -183.27001953 173.70361328 C-186.18385353 170.34260523 -189.21805826 167.24542335 -192.4375 164.17578125 C-193.46816653 163.17717344 -194.49809494 162.17780334 -195.52734375 161.17773438 C-197.11826194 159.63654784 -198.71317253 158.10066674 -200.32080078 156.5769043 C-201.89436278 155.08180705 -203.44827167 153.5684835 -205 152.05078125 C-205.92425781 151.16430908 -206.84851563 150.27783691 -207.80078125 149.36450195 C-209.6875 146.8125 -209.6875 146.8125 -209.71508789 144.24633789 C-208.51065769 141.39364968 -207.14511619 139.7981286 -204.93359375 137.6328125 C-204.16080078 136.86839844 -203.38800781 136.10398437 -202.59179688 135.31640625 C-201.77775391 134.53136719 -200.96371094 133.74632812 -200.125 132.9375 C-199.33802734 132.16019531 -198.55105469 131.38289062 -197.74023438 130.58203125 C-194.23902825 127.14721238 -190.69540252 123.80952045 -186.97988892 120.60786438 C-182.98872474 117.12056213 -179.20507116 113.47178137 -175.46459961 109.71899414 C-174.79192551 109.04807236 -174.1192514 108.37715057 -173.42619324 107.68589783 C-171.22824095 105.49230618 -169.03391931 103.29512496 -166.83984375 101.09765625 C-165.29877557 99.55726277 -163.75755905 98.01701767 -162.21620178 96.47691345 C-158.99626703 93.25844784 -155.77813454 90.03819389 -152.5612793 86.81665039 C-148.45379846 82.70347277 -144.34184395 78.59480147 -140.2285223 74.48746586 C-137.0481366 71.31070696 -133.87015287 68.13155373 -130.692873 64.95168877 C-129.17826124 63.4364136 -127.66291648 61.92187074 -126.1468029 60.40809822 C-124.02243045 58.28628722 -121.90132674 56.16125915 -119.78100586 54.03540039 C-118.85578125 53.11321213 -118.85578125 53.11321213 -117.91186523 52.1723938 C-114.21162498 48.45437995 -110.70479188 44.61708557 -107.2898035 40.63510799 C-104.72747884 37.72048327 -101.96207492 35.02306558 -99.1875 32.3125 C-95.71911769 28.89163649 -92.31294014 25.49271457 -89.1875 21.75 C-85.69189925 17.6314209 -81.73253622 14.07341255 -77.73095703 10.45825195 C-74.99809398 7.98054468 -72.32829182 5.48576736 -69.7890625 2.80859375 C-50.00284517 -18.02646318 -21.4445331 -19.61447448 0 0 Z " fill="#E50027" transform="translate(500.6875,161.1875)"/>
<path d="M0 0 C5.74333023 -0.12488006 11.48584661 -0.2149354 17.23022461 -0.2746582 C19.17860709 -0.29959004 21.12689813 -0.33354849 23.07495117 -0.37719727 C43.68147012 -0.82689023 55.06292363 3.43808681 70.17089844 17.88037109 C71.98929432 19.67242517 73.80190238 21.47036675 75.609375 23.2734375 C76.58948432 24.24709497 77.56973225 25.22061293 78.55010986 26.19400024 C80.58722773 28.21925256 82.62028362 30.24848247 84.65087891 32.28027344 C87.23151254 34.86111079 89.82567738 37.42786974 92.42351913 39.99136925 C94.44666513 41.99211062 96.46048631 44.00204727 98.47193146 46.01454544 C99.88043656 47.41960056 101.2979719 48.81558503 102.71575928 50.21127319 C113.57301619 61.14547923 120.11485036 72.83161218 120.11329651 88.47348022 C120.10813522 89.27371613 120.10297394 90.07395203 120.09765625 90.8984375 C120.0962413 91.73339752 120.09482635 92.56835754 120.09336853 93.42861938 C120.08780174 96.07745042 120.07525547 98.7261948 120.0625 101.375 C120.0574807 103.17838419 120.05291855 104.98176971 120.04882812 106.78515625 C120.0378432 111.19013721 120.02060163 115.59505394 120 120 C105.89182631 120.07014135 91.78367973 120.12281367 77.67536736 120.15543652 C71.12433704 120.17109368 64.57342385 120.19233324 58.02246094 120.22631836 C51.70066298 120.25890945 45.37897769 120.27685264 39.0571022 120.28463173 C36.64496207 120.29017564 34.23282811 120.30100145 31.82073593 120.31719017 C28.44269218 120.3389606 25.06511431 120.34196702 21.68701172 120.34057617 C20.68935287 120.351362 19.69169403 120.36214783 18.6638031 120.3732605 C13.35250006 120.34959074 9.56986294 120.02407877 5 117 C1.50780184 113.13026691 -0.12614637 110.75651173 -0.12025452 105.58346558 C-0.12231651 104.19100616 -0.12231651 104.19100616 -0.12442017 102.77041626 C-0.12082489 101.74902557 -0.11722961 100.72763489 -0.11352539 99.67529297 C-0.11367142 98.60210815 -0.11381744 97.52892334 -0.1139679 96.42321777 C-0.11326917 92.86285405 -0.10547861 89.30254213 -0.09765625 85.7421875 C-0.09579193 83.27881906 -0.09436809 80.81545024 -0.09336853 78.3520813 C-0.08954446 71.85832705 -0.07971511 65.36459505 -0.06866455 58.87084961 C-0.05844806 52.24853822 -0.0538704 45.62622324 -0.04882812 39.00390625 C-0.03809276 26.00259466 -0.021209 13.00129851 0 0 Z " fill="#C9E7F8" transform="translate(270,0)"/>
<path d="M0 0 C2.85779017 1.29719924 4.91008536 2.6636826 7.11621094 4.88916016 C7.98666046 5.75983627 7.98666046 5.75983627 8.87469482 6.64810181 C9.48838928 7.27211884 10.10208374 7.89613586 10.734375 8.5390625 C11.37240051 9.17991791 12.01042603 9.82077332 12.66778564 10.48104858 C14.69994069 12.52437821 16.72502218 14.57455982 18.75 16.625 C20.1284453 18.0134786 21.50734636 19.4015049 22.88671875 20.7890625 C26.26311894 24.18748697 29.63319288 27.59207254 33 31 C31.4096944 34.87088272 28.93139985 37.31497432 25.98950195 40.25100708 C25.47467664 40.76754125 24.95985132 41.28407541 24.42942524 41.81626213 C22.70376123 43.54521935 20.97104804 45.26693299 19.23828125 46.98876953 C17.9994382 48.22704842 16.76103541 49.46576791 15.52304077 50.70489502 C12.15982764 54.06868259 8.79047779 57.42626229 5.42000961 60.78277826 C1.8966332 64.29365719 -1.62108516 67.81019577 -5.1394043 71.32614136 C-11.80532451 77.98584191 -18.47632632 84.64042811 -25.14916134 91.29319942 C-32.73725397 98.85896778 -40.31969656 106.43038771 -47.9016552 114.00230241 C-62.85919489 128.93979089 -77.82317591 143.87081044 -92.79170227 158.79728889 C-94.19531171 160.19734744 -95.59816488 161.59816488 -97 163 C-97.36609375 162.55809326 -97.7321875 162.11618652 -98.109375 161.66088867 C-101.78337691 157.33792244 -105.66750371 153.2997518 -109.75 149.36328125 C-110.256521 148.87173553 -110.76304199 148.38018982 -111.28491211 147.87374878 C-113.39296606 145.82862366 -115.50159425 143.78490521 -117.63330078 141.7644043 C-119.20686278 140.26930705 -120.76077167 138.7559835 -122.3125 137.23828125 C-123.23675781 136.35180908 -124.16101563 135.46533691 -125.11328125 134.55200195 C-127 132 -127 132 -127.02758789 129.43383789 C-125.82315769 126.58114968 -124.45761619 124.9856286 -122.24609375 122.8203125 C-121.47330078 122.05589844 -120.70050781 121.29148437 -119.90429688 120.50390625 C-119.09025391 119.71886719 -118.27621094 118.93382812 -117.4375 118.125 C-116.65052734 117.34769531 -115.86355469 116.57039063 -115.05273438 115.76953125 C-111.55152825 112.33471238 -108.00790252 108.99702045 -104.29238892 105.79536438 C-100.30122474 102.30806213 -96.51757116 98.65928137 -92.77709961 94.90649414 C-92.10442551 94.23557236 -91.4317514 93.56465057 -90.73869324 92.87339783 C-88.54074095 90.67980618 -86.34641931 88.48262496 -84.15234375 86.28515625 C-82.61127557 84.74476277 -81.07005905 83.20451767 -79.52870178 81.66441345 C-76.30876703 78.44594784 -73.09063454 75.22569389 -69.8737793 72.00415039 C-65.76629846 67.89097277 -61.65434395 63.78230147 -57.5410223 59.67496586 C-54.3606366 56.49820696 -51.18265287 53.31905373 -48.005373 50.13918877 C-46.49076124 48.6239136 -44.97541648 47.10937074 -43.4593029 45.59559822 C-41.33493045 43.47378722 -39.21382674 41.34875915 -37.09350586 39.22290039 C-36.47668945 38.60810822 -35.85987305 37.99331604 -35.22436523 37.3598938 C-31.52412498 33.64187995 -28.01729188 29.80458557 -24.6023035 25.82260799 C-22.03996254 22.90796472 -19.27442696 20.21074334 -16.5 17.5 C-12.27953434 13.33266753 -8.19280633 9.12514326 -4.3671875 4.5859375 C-2.98032408 2.97717593 -1.51930632 1.48334641 0 0 Z " fill="#FC003A" transform="translate(418,176)"/>
<path d="M0 0 C0.89277671 -0.00453111 1.78555341 -0.00906223 2.70538396 -0.01373065 C5.70315231 -0.02641188 8.70073986 -0.02475187 11.6985321 -0.02310181 C13.8453749 -0.02908475 15.99221555 -0.03588976 18.13905334 -0.04345703 C23.97588867 -0.06114862 29.81266538 -0.06581376 35.64952493 -0.0670886 C40.52031551 -0.06898633 45.3910924 -0.07634247 50.26187772 -0.08343279 C61.7533021 -0.09972658 73.24469515 -0.10460087 84.73612976 -0.10317993 C96.59335914 -0.10197843 108.45040651 -0.12307985 120.30758983 -0.15466726 C130.48434981 -0.18081278 140.66105028 -0.19154794 150.8378436 -0.19026911 C156.91737491 -0.18975895 162.99674455 -0.19547234 169.07624245 -0.21662521 C174.79476423 -0.23597825 180.51296964 -0.23615195 186.23150253 -0.22159195 C188.3297325 -0.21949908 190.42798212 -0.22423312 192.52617836 -0.23631287 C195.39217368 -0.25174351 198.2570752 -0.24247135 201.12304688 -0.22705078 C201.95204618 -0.23733791 202.78104549 -0.24762503 203.63516599 -0.25822389 C209.29500818 -0.19099592 212.58610246 1.0263977 217.2519989 4.26742554 C220.8665318 8.76896037 220.75728564 12.8058644 220.59965515 18.38461304 C220.12442064 22.32532165 219.01666675 24.43000327 216.2519989 27.26742554 C211.16726791 30.4684186 207.06979525 30.69717012 201.25675964 30.65510559 C200.36156852 30.66049113 199.4663774 30.66587667 198.54405928 30.6714254 C195.55008084 30.68571141 192.55654413 30.67859964 189.56254578 30.67147827 C187.41378423 30.67718144 185.26502571 30.6841455 183.11627197 30.692276 C177.28372214 30.71022698 171.4513226 30.70903549 165.61875343 30.70333362 C160.75024883 30.70024499 155.88177324 30.7063305 151.01327276 30.71237236 C139.52950983 30.72642197 128.04582129 30.72485227 116.5620575 30.71347046 C104.71157362 30.70198481 92.86131594 30.71607157 81.01086187 30.74286693 C70.8374667 30.76500967 60.66414261 30.77166463 50.49072504 30.76579052 C44.41405985 30.76241683 38.33753972 30.76486367 32.26089478 30.78204155 C26.54808042 30.79748608 20.8356018 30.7935826 15.12280083 30.7747364 C13.02576703 30.77104384 10.9287085 30.77417834 8.83169746 30.78462219 C5.96982198 30.79778769 3.10906527 30.78632384 0.24723816 30.76863098 C-0.99858371 30.78303849 -0.99858371 30.78303849 -2.26957369 30.79773706 C-7.5571055 30.73044006 -10.53833731 29.74808729 -14.7480011 26.26742554 C-17.92256688 22.32658526 -18.7480011 18.23671904 -18.7480011 13.26742554 C-17.65807751 8.21414343 -15.45089197 4.18274013 -11.16193867 1.14351463 C-7.50021838 -0.18543159 -3.84660304 -0.01425612 0 0 Z " fill="#17ACE8" transform="translate(78.74800109863281,149.73257446289063)"/>
<path d="M0 0 C9.83641261 10.31679555 11.90719916 22.48200247 11.62890625 36.12890625 C11.35363864 41.89800855 9.97595978 46.68910062 7.3125 51.8125 C6.99667969 52.46605469 6.68085938 53.11960937 6.35546875 53.79296875 C1.09998516 63.33944643 -8.01945576 71.20159469 -15.6875 78.8125 C-19.86365799 77.17506066 -22.6523153 74.11468208 -25.74121094 70.98583984 C-26.33676285 70.39057999 -26.93231476 69.79532013 -27.5459137 69.18202209 C-29.50934643 67.21719823 -31.46560373 65.24538961 -33.421875 63.2734375 C-34.7833564 61.90822521 -36.14528061 60.54345439 -37.50762939 59.17910767 C-41.08933824 55.58976841 -44.6649999 51.9944632 -48.23944092 48.39788818 C-51.88907121 44.72778681 -55.54438092 41.06335171 -59.19921875 37.3984375 C-66.36755329 30.20866348 -73.529513 23.01257484 -80.6875 15.8125 C-74.4871374 2.8486507 -60.28116862 -7.71393033 -47.0625 -12.5 C-29.22062135 -16.13445676 -13.58795201 -12.42836748 0 0 Z " fill="#136EF0" transform="translate(500.6875,161.1875)"/>
<path d="M0 0 C0.64776356 -0.00453111 1.29552713 -0.00906223 1.96291989 -0.01373065 C4.13153651 -0.02638181 6.29990222 -0.02475385 8.46855164 -0.02310181 C10.02426985 -0.02908668 11.57998508 -0.03589213 13.13569641 -0.04345703 C17.36101728 -0.06112984 21.58625716 -0.06581299 25.81161141 -0.0670886 C28.45231929 -0.06851019 31.09300657 -0.07277995 33.73370934 -0.07808304 C42.94888491 -0.09658848 52.16400262 -0.10475312 61.37919617 -0.10317993 C69.96456012 -0.10197882 78.54967256 -0.1230739 87.13497287 -0.15466726 C94.50921157 -0.1808354 101.88336817 -0.19154698 109.25765294 -0.19026911 C113.66046849 -0.18975958 118.0630606 -0.19543776 122.46582985 -0.21662521 C126.60850056 -0.23601641 130.75073491 -0.23612624 134.89342117 -0.22159195 C136.41113231 -0.21950373 137.92887082 -0.22420558 139.44653511 -0.23631287 C153.73741032 -0.3429057 153.73741032 -0.3429057 159.52983093 4.26742554 C163.14436383 8.76896037 163.03511767 12.8058644 162.87748718 18.38461304 C162.40225268 22.32532165 161.29449878 24.43000327 158.52983093 27.26742554 C154.13471819 29.8899223 150.90488686 30.64443083 145.81242371 30.65510559 C145.16224573 30.66049113 144.51206775 30.66587667 143.8421874 30.6714254 C141.6773256 30.68566072 139.51307909 30.67861272 137.34819031 30.67147827 C135.79055288 30.67718413 134.23291964 30.68414923 132.67529297 30.692276 C128.45424518 30.7101973 124.23340539 30.70904117 120.01233101 30.70333362 C116.48589952 30.70024074 112.95950792 30.70633521 109.4330821 30.71237236 C101.11357261 30.72641215 92.79416583 30.72486042 84.47465515 30.71347046 C75.89603318 30.7019852 67.31772369 30.71607292 58.73914289 30.74286693 C51.36826614 30.7650256 43.99748746 30.77166108 36.62657976 30.76579052 C32.22663417 30.76242068 27.82688897 30.76483795 23.42697144 30.78204155 C19.2900026 30.79751171 15.1534968 30.79355465 11.01654625 30.7747364 C9.50003332 30.77105092 7.98348608 30.7741579 6.46700478 30.78462219 C4.39321685 30.79783767 2.32096079 30.78628277 0.24723816 30.76863098 C-0.91195885 30.7684217 -2.07115585 30.76821241 -3.26548004 30.76799679 C-8.07042045 30.01746686 -11.25654778 27.7739899 -14.28266907 24.01742554 C-16.32632419 19.28475052 -16.87223694 15.13155838 -15.78266907 10.07992554 C-12.18491311 2.37044849 -8.31863347 0.0240411 0 0 Z " fill="#17ACE8" transform="translate(76.47016906738281,329.7325744628906)"/>
<path d="M0 0 C0.64776356 -0.00453111 1.29552713 -0.00906223 1.96291989 -0.01373065 C4.13153651 -0.02638181 6.29990222 -0.02475385 8.46855164 -0.02310181 C10.02426985 -0.02908668 11.57998508 -0.03589213 13.13569641 -0.04345703 C17.36101728 -0.06112984 21.58625716 -0.06581299 25.81161141 -0.0670886 C28.45231929 -0.06851019 31.09300657 -0.07277995 33.73370934 -0.07808304 C42.94888491 -0.09658848 52.16400262 -0.10475312 61.37919617 -0.10317993 C69.96456012 -0.10197882 78.54967256 -0.1230739 87.13497287 -0.15466726 C94.50921157 -0.1808354 101.88336817 -0.19154698 109.25765294 -0.19026911 C113.66046849 -0.18975958 118.0630606 -0.19543776 122.46582985 -0.21662521 C126.60850056 -0.23601641 130.75073491 -0.23612624 134.89342117 -0.22159195 C136.41113231 -0.21950373 137.92887082 -0.22420558 139.44653511 -0.23631287 C153.73741032 -0.3429057 153.73741032 -0.3429057 159.52983093 4.26742554 C163.14436383 8.76896037 163.03511767 12.8058644 162.87748718 18.38461304 C162.40225268 22.32532165 161.29449878 24.43000327 158.52983093 27.26742554 C154.13471819 29.8899223 150.90488686 30.64443083 145.81242371 30.65510559 C145.16224573 30.66049113 144.51206775 30.66587667 143.8421874 30.6714254 C141.6773256 30.68566072 139.51307909 30.67861272 137.34819031 30.67147827 C135.79055288 30.67718413 134.23291964 30.68414923 132.67529297 30.692276 C128.45424518 30.7101973 124.23340539 30.70904117 120.01233101 30.70333362 C116.48589952 30.70024074 112.95950792 30.70633521 109.4330821 30.71237236 C101.11357261 30.72641215 92.79416583 30.72486042 84.47465515 30.71347046 C75.89603318 30.7019852 67.31772369 30.71607292 58.73914289 30.74286693 C51.36826614 30.7650256 43.99748746 30.77166108 36.62657976 30.76579052 C32.22663417 30.76242068 27.82688897 30.76483795 23.42697144 30.78204155 C19.2900026 30.79751171 15.1534968 30.79355465 11.01654625 30.7747364 C9.50003332 30.77105092 7.98348608 30.7741579 6.46700478 30.78462219 C4.39321685 30.79783767 2.32096079 30.78628277 0.24723816 30.76863098 C-0.91195885 30.7684217 -2.07115585 30.76821241 -3.26548004 30.76799679 C-8.07042045 30.01746686 -11.25654778 27.7739899 -14.28266907 24.01742554 C-16.32632419 19.28475052 -16.87223694 15.13155838 -15.78266907 10.07992554 C-12.18491311 2.37044849 -8.31863347 0.0240411 0 0 Z " fill="#17ACE8" transform="translate(76.47016906738281,269.7325744628906)"/>
<path d="M0 0 C0.64776356 -0.00453111 1.29552713 -0.00906223 1.96291989 -0.01373065 C4.13153651 -0.02638181 6.29990222 -0.02475385 8.46855164 -0.02310181 C10.02426985 -0.02908668 11.57998508 -0.03589213 13.13569641 -0.04345703 C17.36101728 -0.06112984 21.58625716 -0.06581299 25.81161141 -0.0670886 C28.45231929 -0.06851019 31.09300657 -0.07277995 33.73370934 -0.07808304 C42.94888491 -0.09658848 52.16400262 -0.10475312 61.37919617 -0.10317993 C69.96456012 -0.10197882 78.54967256 -0.1230739 87.13497287 -0.15466726 C94.50921157 -0.1808354 101.88336817 -0.19154698 109.25765294 -0.19026911 C113.66046849 -0.18975958 118.0630606 -0.19543776 122.46582985 -0.21662521 C126.60850056 -0.23601641 130.75073491 -0.23612624 134.89342117 -0.22159195 C136.41113231 -0.21950373 137.92887082 -0.22420558 139.44653511 -0.23631287 C153.73741032 -0.3429057 153.73741032 -0.3429057 159.52983093 4.26742554 C163.14436383 8.76896037 163.03511767 12.8058644 162.87748718 18.38461304 C162.40225268 22.32532165 161.29449878 24.43000327 158.52983093 27.26742554 C154.13471819 29.8899223 150.90488686 30.64443083 145.81242371 30.65510559 C145.16224573 30.66049113 144.51206775 30.66587667 143.8421874 30.6714254 C141.6773256 30.68566072 139.51307909 30.67861272 137.34819031 30.67147827 C135.79055288 30.67718413 134.23291964 30.68414923 132.67529297 30.692276 C128.45424518 30.7101973 124.23340539 30.70904117 120.01233101 30.70333362 C116.48589952 30.70024074 112.95950792 30.70633521 109.4330821 30.71237236 C101.11357261 30.72641215 92.79416583 30.72486042 84.47465515 30.71347046 C75.89603318 30.7019852 67.31772369 30.71607292 58.73914289 30.74286693 C51.36826614 30.7650256 43.99748746 30.77166108 36.62657976 30.76579052 C32.22663417 30.76242068 27.82688897 30.76483795 23.42697144 30.78204155 C19.2900026 30.79751171 15.1534968 30.79355465 11.01654625 30.7747364 C9.50003332 30.77105092 7.98348608 30.7741579 6.46700478 30.78462219 C4.39321685 30.79783767 2.32096079 30.78628277 0.24723816 30.76863098 C-0.91195885 30.7684217 -2.07115585 30.76821241 -3.26548004 30.76799679 C-8.07042045 30.01746686 -11.25654778 27.7739899 -14.28266907 24.01742554 C-16.32632419 19.28475052 -16.87223694 15.13155838 -15.78266907 10.07992554 C-12.18491311 2.37044849 -8.31863347 0.0240411 0 0 Z " fill="#17ACE8" transform="translate(76.47016906738281,209.73257446289063)"/>
<path d="M0 0 C4.40240462 3.69447164 8.6179436 7.49009743 12.6875 11.5546875 C13.19369873 12.0599295 13.69989746 12.56517151 14.22143555 13.08572388 C15.28133819 14.14495233 16.34000457 15.20541921 17.39746094 16.26708984 C18.99303722 17.86801389 20.5938734 19.46353684 22.1953125 21.05859375 C30.70959676 29.56799449 30.70959676 29.56799449 34.50390625 34.015625 C39.78547164 40.19747542 45.75265042 45.77653349 51.55786133 51.46191406 C53.11449651 52.98853669 54.66500464 54.52117047 56.21484375 56.0546875 C57.13386475 56.95687012 58.05288574 57.85905273 58.99975586 58.78857422 C61 61 61 61 61 63 C53.24664548 65.59217774 45.49275085 68.18273082 37.73816299 70.77121639 C34.13734945 71.97322648 30.53672394 73.17579355 26.93652344 74.37963867 C23.4615978 75.54157117 19.98618449 76.70203383 16.51042938 77.86148262 C15.18500068 78.30390768 13.85974801 78.74686047 12.5346756 79.19035149 C10.67755643 79.81181367 8.81974956 80.43121966 6.96191406 81.05053711 C5.90490295 81.40361435 4.84789185 81.75669159 3.7588501 82.12046814 C-2.44092501 84.09697993 -8.55010034 85.30329543 -14.8125 82.9375 C-18.47185353 79.6963583 -20.63343063 76.55537455 -21.32629395 71.72538757 C-21.54581223 63.2905592 -19.14008645 56.0014694 -16.40625 48.14453125 C-15.93397414 46.74826714 -15.46317419 45.35150303 -14.99377441 43.95426941 C-13.76553303 40.31117159 -12.5176085 36.67513102 -11.26519775 33.0402832 C-9.98625247 29.31678454 -8.72640351 25.5868388 -7.46484375 21.85742188 C-4.99501228 14.56524057 -2.50431205 7.28042166 0 0 Z " fill="#FDD9AA" transform="translate(290,307)"/>
<path d="M0 0 C0.82838379 -0.00852997 1.65676758 -0.01705994 2.51025391 -0.02584839 C3.4105986 -0.02494202 4.3109433 -0.02403564 5.23857117 -0.02310181 C6.67098648 -0.03317764 6.67098648 -0.03317764 8.13233948 -0.04345703 C11.29109392 -0.06246363 14.44963614 -0.06636272 17.60844421 -0.06851196 C19.80556323 -0.07493851 22.00268138 -0.08166676 24.19979858 -0.08868408 C28.80730676 -0.10066385 33.41473992 -0.10436423 38.02226257 -0.10317993 C43.92037405 -0.10297681 49.81800331 -0.13026874 55.71600056 -0.16472435 C60.25510864 -0.18698584 64.79410059 -0.19101768 69.33325768 -0.18996048 C71.50732776 -0.19231796 73.68140097 -0.2011497 75.85541725 -0.21662521 C78.90014299 -0.23626751 81.94382791 -0.23045341 84.98857117 -0.21841431 C86.32997917 -0.23527283 86.32997917 -0.23527283 87.69848633 -0.25247192 C93.56604061 -0.19365233 96.98819683 0.87081771 101.80766296 4.26742554 C105.42219586 8.76896037 105.3129497 12.8058644 105.15531921 18.38461304 C104.68008471 22.32532165 103.57233081 24.43000327 100.80766296 27.26742554 C95.57083406 30.61702711 91.14568154 30.70172579 85.13383484 30.67147827 C83.69857201 30.68177315 83.69857201 30.68177315 82.23431396 30.692276 C79.081528 30.71052968 75.92924027 30.70670886 72.77641296 30.70101929 C70.57975605 30.70558137 68.38310056 30.71088702 66.18644714 30.71690369 C61.58665664 30.72583169 56.9870398 30.72341463 52.38725281 30.71347046 C46.49579927 30.70197425 40.60494452 30.72220428 34.71356964 30.7513876 C30.1787791 30.76974087 25.64413233 30.76945896 21.10931396 30.76375008 C18.93721679 30.76359679 16.76510991 30.76964686 14.5930481 30.78204155 C11.55548091 30.79693492 8.51902376 30.78628651 5.48149109 30.76913452 C4.5867659 30.77880249 3.69204071 30.78847046 2.77020264 30.7984314 C-3.98851258 30.71859971 -7.39723843 28.62119279 -12.56733704 24.26742554 C-15.1948289 19.41667133 -15.14520441 14.64330414 -14.19233704 9.26742554 C-11.16249912 3.59869653 -6.52700234 0.03049917 0 0 Z " fill="#1689FB" transform="translate(194.1923370361328,421.7325744628906)"/>
<path d="M0 0 C12.26555479 -0.09043086 24.53088753 -0.16379113 36.79670048 -0.20724869 C42.49244146 -0.22810794 48.1879422 -0.25639569 53.88354492 -0.30175781 C59.38191013 -0.34527415 64.8800445 -0.36914961 70.37856865 -0.37950897 C72.47450837 -0.38688989 74.5704357 -0.40130315 76.66627693 -0.42292023 C79.60600033 -0.4520307 82.54477439 -0.45595275 85.48461914 -0.45410156 C86.77934898 -0.47567322 86.77934898 -0.47567322 88.10023499 -0.49768066 C93.88879222 -0.45833508 97.23947513 0.66286546 102 4 C105.6145329 8.50153484 105.50528674 12.53843886 105.34765625 18.1171875 C104.87242174 22.05789611 103.76466785 24.16257774 101 27 C95.81397892 30.30311961 91.54085798 30.41452736 85.59814453 30.34057617 C84.67067917 30.34101425 83.74321381 30.34145233 82.78764343 30.34190369 C79.73581563 30.33982118 76.68454381 30.31651532 73.6328125 30.29296875 C71.51146749 30.28737089 69.39011859 30.28310169 67.26876831 30.28010559 C61.69560976 30.26867185 56.12268715 30.23921714 50.54962158 30.20599365 C44.85863435 30.17526117 39.16760886 30.16159345 33.4765625 30.14648438 C22.31758819 30.11434614 11.15885066 30.06159003 0 30 C0 20.1 0 10.2 0 0 Z " fill="#1689FB" transform="translate(194,150)"/>
<path d="M0 0 C0.99 1.485 0.99 1.485 2 3 C-3.91385659 9.02957891 -9.84100488 15.04563291 -15.78571701 21.04477787 C-18.54551433 23.83069699 -21.30045834 26.62108659 -24.04492188 29.42211914 C-26.69242467 32.12384895 -29.35186819 34.81326925 -32.02011871 37.49450493 C-33.03721351 38.52085632 -34.04988841 39.55160684 -35.05806732 40.58671761 C-36.46810956 42.03291819 -37.89529925 43.46234046 -39.32324219 44.89086914 C-40.1315448 45.71027481 -40.93984741 46.52968048 -41.77264404 47.37391663 C-44 49 -44 49 -46.09753418 48.93029785 C-48.17795353 47.91298147 -49.49048486 46.87148245 -51.11621094 45.22436523 C-51.98666046 44.35357582 -51.98666046 44.35357582 -52.87469482 43.4651947 C-53.48838928 42.83601639 -54.10208374 42.20683807 -54.734375 41.55859375 C-55.37240051 40.91632339 -56.01042603 40.27405304 -56.66778564 39.61231995 C-58.70234118 37.56098274 -60.72621379 35.49945727 -62.75 33.4375 C-64.12821491 32.04423766 -65.50711325 30.65165102 -66.88671875 29.25976562 C-70.26579046 25.84763135 -73.63531864 22.42632293 -77 19 C-72.31980102 8.45526106 -59.6641009 -2.34794447 -49.28125 -7.1328125 C-32.35706283 -13.56632201 -14.24540396 -11.74071755 0 0 Z " fill="#1688FB" transform="translate(497,158)"/>
<path d="M0 0 C4.19406961 1.92280443 7.07985411 4.79137788 10.296875 8.03125 C10.89050842 8.62296997 11.48414185 9.21468994 12.09576416 9.82434082 C13.34543718 11.07265581 14.59259992 12.32348823 15.83740234 13.57666016 C17.75007952 15.50007997 19.67323119 17.41256099 21.59765625 19.32421875 C22.81053798 20.53842139 24.02279952 21.75324393 25.234375 22.96875 C25.81241882 23.54274536 26.39046265 24.11674072 26.98602295 24.70812988 C31 28.77006566 31 28.77006566 31 31 C23.24664548 33.59217774 15.49275085 36.18273082 7.73816299 38.77121639 C4.13734945 39.97322648 0.53672394 41.17579355 -3.06347656 42.37963867 C-6.5384022 43.54157117 -10.01381551 44.70203383 -13.48957062 45.86148262 C-14.81499932 46.30390768 -16.14025199 46.74686047 -17.4653244 47.19035149 C-19.32244357 47.81181367 -21.18025044 48.43121966 -23.03808594 49.05053711 C-24.09509705 49.40361435 -25.15210815 49.75669159 -26.2411499 50.12046814 C-32.56725586 52.13725468 -38.87646521 53.52989459 -45.0625 50.5 C-45.701875 50.005 -46.34125 49.51 -47 49 C-45.4819272 45.4252101 -43.38425289 43.14188276 -40.64208984 40.41503906 C-39.74130707 39.51440735 -38.84052429 38.61377563 -37.91244507 37.68585205 C-36.92871592 36.71233519 -35.9448775 35.73892875 -34.9609375 34.765625 C-33.95444872 33.76286839 -32.94840211 32.75966778 -31.94277954 31.75604248 C-29.30037853 29.12126187 -26.65202572 26.49254389 -24.00238037 23.86505127 C-21.29743948 21.18060312 -18.59818179 18.49045378 -15.8984375 15.80078125 C-10.60449826 10.52826382 -5.30425717 5.26213943 0 0 Z " fill="#FDC478" transform="translate(320,339)"/>
<path d="M0 0 C4.85732792 -0.09217913 9.71158383 -0.17170375 14.5690918 -0.21972656 C16.21893637 -0.23975797 17.8687107 -0.26699142 19.51831055 -0.30175781 C21.89910274 -0.35065357 24.278951 -0.3730528 26.66015625 -0.390625 C27.38960953 -0.41127014 28.11906281 -0.43191528 28.87062073 -0.45318604 C34.3390569 -0.45554558 37.48212244 0.90228111 42 4 C45.6145329 8.50153484 45.50528674 12.53843886 45.34765625 18.1171875 C44.87242174 22.05789611 43.76466785 24.16257774 41 27 C36.24897517 29.94813732 32.22205074 30.40814136 26.7578125 30.29296875 C25.98944061 30.28872391 25.22106873 30.28447906 24.42941284 30.28010559 C21.99424015 30.26341826 19.5599192 30.22578641 17.125 30.1875 C15.46615785 30.17244023 13.80730263 30.15875409 12.1484375 30.14648438 C8.09837249 30.11610889 4.05013068 30.05737331 0 30 C0 20.1 0 10.2 0 0 Z " fill="#1689FB" transform="translate(194,330)"/>
<path d="M0 0 C4.85732792 -0.09217913 9.71158383 -0.17170375 14.5690918 -0.21972656 C16.21893637 -0.23975797 17.8687107 -0.26699142 19.51831055 -0.30175781 C21.89910274 -0.35065357 24.278951 -0.3730528 26.66015625 -0.390625 C27.38960953 -0.41127014 28.11906281 -0.43191528 28.87062073 -0.45318604 C34.3390569 -0.45554558 37.48212244 0.90228111 42 4 C45.6145329 8.50153484 45.50528674 12.53843886 45.34765625 18.1171875 C44.87242174 22.05789611 43.76466785 24.16257774 41 27 C36.24897517 29.94813732 32.22205074 30.40814136 26.7578125 30.29296875 C25.98944061 30.28872391 25.22106873 30.28447906 24.42941284 30.28010559 C21.99424015 30.26341826 19.5599192 30.22578641 17.125 30.1875 C15.46615785 30.17244023 13.80730263 30.15875409 12.1484375 30.14648438 C8.09837249 30.11610889 4.05013068 30.05737331 0 30 C0 20.1 0 10.2 0 0 Z " fill="#1689FB" transform="translate(194,270)"/>
<path d="M0 0 C4.85732792 -0.09217913 9.71158383 -0.17170375 14.5690918 -0.21972656 C16.21893637 -0.23975797 17.8687107 -0.26699142 19.51831055 -0.30175781 C21.89910274 -0.35065357 24.278951 -0.3730528 26.66015625 -0.390625 C27.38960953 -0.41127014 28.11906281 -0.43191528 28.87062073 -0.45318604 C34.3390569 -0.45554558 37.48212244 0.90228111 42 4 C45.6145329 8.50153484 45.50528674 12.53843886 45.34765625 18.1171875 C44.87242174 22.05789611 43.76466785 24.16257774 41 27 C36.24897517 29.94813732 32.22205074 30.40814136 26.7578125 30.29296875 C25.98944061 30.28872391 25.22106873 30.28447906 24.42941284 30.28010559 C21.99424015 30.26341826 19.5599192 30.22578641 17.125 30.1875 C15.46615785 30.17244023 13.80730263 30.15875409 12.1484375 30.14648438 C8.09837249 30.11610889 4.05013068 30.05737331 0 30 C0 20.1 0 10.2 0 0 Z " fill="#1689FB" transform="translate(194,210)"/>
<path d="M0 0 C0 9.9 0 19.8 0 30 C-7.4802239 28.93139659 -8.13961538 28.74735242 -13 24 C-16.12757404 19.30863893 -15.82171265 14.48280679 -15 9 C-11.60571683 2.58612725 -7.15298864 0 0 0 Z " fill="#1AABE9" transform="translate(195,422)"/>
</svg>
