<?xml version="1.0" encoding="UTF-8"?>
<svg version="1.1" xmlns="http://www.w3.org/2000/svg" width="512" height="512">
<path d="M0 0 C1.85781912 -0.00461378 3.71563458 -0.01096989 5.57344246 -0.01890898 C10.65816123 -0.03555983 15.74257851 -0.0273752 20.82729816 -0.0149641 C26.31886621 -0.00589857 31.8103831 -0.01989081 37.30194092 -0.03088379 C48.05184083 -0.04865751 58.80162895 -0.0448341 69.55153322 -0.03323323 C78.28926796 -0.02419469 87.0269714 -0.02297673 95.76470947 -0.02732849 C97.00895569 -0.02794142 98.25320191 -0.02855436 99.53515255 -0.02918586 C102.06292265 -0.03046478 104.59069273 -0.03176163 107.1184628 -0.03307623 C130.1384765 -0.04415371 153.15844071 -0.03267166 176.17844227 -0.01170584 C197.17937825 0.00727567 218.18021721 0.00557712 239.18115234 -0.0135498 C262.79246202 -0.03498245 286.40373038 -0.04338006 310.01505089 -0.03110075 C312.53345107 -0.02982657 315.05185126 -0.02856909 317.57025146 -0.02732849 C318.80930839 -0.02671139 320.04836531 -0.02609429 321.32496941 -0.02545848 C330.05082702 -0.02200677 338.77665017 -0.02783011 347.50250244 -0.0372467 C358.13838433 -0.04847237 368.77414815 -0.04541458 379.41001654 -0.02412373 C384.83518566 -0.01362108 390.26015802 -0.00947826 395.68532562 -0.02272034 C400.65460224 -0.03466609 405.62350026 -0.02804551 410.59274268 -0.00681013 C412.38734494 -0.00235335 414.18197938 -0.0045895 415.97656083 -0.01431328 C429.96581032 -0.08428008 441.16264311 1.47968718 451.66748047 11.50793457 C460.8327577 21.10878933 463.27612199 31.38208615 463.17541504 44.37365723 C463.181655 45.6248617 463.18789496 46.87606617 463.19432402 48.16518593 C463.21089927 51.60812693 463.2028256 55.05061991 463.19037914 58.49356174 C463.18128207 62.2182513 463.19532132 65.94286692 463.20629883 69.6675415 C463.22403923 76.95231921 463.22026413 84.23693159 463.20864826 91.52171564 C463.19959652 97.44480903 463.19839746 103.36785626 463.20274353 109.29095459 C463.20335646 110.13554879 463.20396939 110.98014299 463.2046009 111.85033095 C463.20587987 113.56637304 463.20717672 115.28241513 463.20849127 116.99845719 C463.21988394 133.07112259 463.206804 149.14369658 463.1852898 165.21634698 C463.16742001 178.99262506 463.17052448 192.7687683 463.18896484 206.54504395 C463.21039478 222.56213537 463.21878543 238.57914677 463.20651579 254.59625053 C463.20524166 256.30580519 463.20398417 258.01535987 463.20274353 259.72491455 C463.20212643 260.56593959 463.20150933 261.40696464 463.20087352 262.27347529 C463.19742699 268.18605963 463.20323391 274.09859299 463.21266174 280.01116943 C463.22390674 287.22151782 463.22078933 294.43169213 463.19953877 301.6420207 C463.18906181 305.31739088 463.18484869 308.99247134 463.19813538 312.66783905 C463.21234688 316.65954637 463.19532222 320.65052895 463.17541504 324.64221191 C463.18433793 325.79329752 463.19326081 326.94438313 463.20245409 328.13035011 C463.09029441 339.75424761 459.74284936 349.04878577 451.66748047 357.50793457 C440.37487669 368.2882085 428.20028337 369.0964156 413.33496094 369.01586914 C411.47714182 369.02048292 409.61932636 369.02683903 407.76151848 369.03477812 C402.67679971 369.05142898 397.59238242 369.04324434 392.50766277 369.03083324 C387.01609473 369.02176771 381.52457784 369.03575995 376.03302002 369.04675293 C365.2831201 369.06452665 354.53333199 369.06070324 343.78342772 369.04910237 C335.04569298 369.04006383 326.30798954 369.03884587 317.57025146 369.04319763 C316.32600525 369.04381056 315.08175903 369.0444235 313.79980838 369.045055 C311.27203829 369.04633392 308.74426821 369.04763077 306.21649814 369.04894537 C283.19648444 369.06002285 260.17652023 369.0485408 237.15651867 369.02757498 C216.15558268 369.00859347 195.15474373 369.01029202 174.15380859 369.02941895 C150.54249892 369.05085159 126.93123055 369.0592492 103.31991005 369.04696989 C100.80150987 369.04569571 98.28310967 369.04443823 95.76470947 369.04319763 C94.52565255 369.04258053 93.28659563 369.04196343 92.00999153 369.04132763 C83.28413392 369.03787591 74.55831077 369.04369925 65.8324585 369.05311584 C55.19657661 369.06434151 44.56081279 369.06128372 33.9249444 369.03999287 C28.49977528 369.02949022 23.07480292 369.0253474 17.64963531 369.03858948 C12.6803587 369.05053523 7.71146067 369.04391465 2.74221826 369.02267927 C0.947616 369.01822249 -0.84701844 369.02045864 -2.64159989 369.03018242 C-16.63084938 369.10014922 -27.82768217 367.53618196 -38.33251953 357.50793457 C-47.49779676 347.90707981 -49.94116105 337.63378299 -49.8404541 324.64221191 C-49.84669406 323.39100744 -49.85293403 322.13980297 -49.85936308 320.85068321 C-49.87593833 317.40774221 -49.86786466 313.96524923 -49.85541821 310.5223074 C-49.84632113 306.79761784 -49.86036039 303.07300222 -49.87133789 299.34832764 C-49.88907829 292.06354994 -49.8853032 284.77893755 -49.87368733 277.4941535 C-49.86463558 271.57106011 -49.86343652 265.64801288 -49.86778259 259.72491455 C-49.86839552 258.88032035 -49.86900846 258.03572615 -49.86963996 257.16553819 C-49.87091893 255.4494961 -49.87221578 253.73345402 -49.87353033 252.01741195 C-49.884923 235.94474655 -49.87184306 219.87217257 -49.85032886 203.79952216 C-49.83245907 190.02324408 -49.83556355 176.24710084 -49.85400391 162.4708252 C-49.87543385 146.45373377 -49.88382449 130.43672237 -49.87155485 114.41961861 C-49.87028072 112.71006395 -49.86902324 111.00050927 -49.86778259 109.29095459 C-49.86716549 108.44992955 -49.86654839 107.6089045 -49.86591259 106.74239385 C-49.86246605 100.82980952 -49.86827298 94.91727615 -49.87770081 89.00469971 C-49.8889458 81.79435132 -49.88582839 74.58417701 -49.86457783 67.37384844 C-49.85410088 63.69847826 -49.84988775 60.0233978 -49.86317444 56.34803009 C-49.87738595 52.35632277 -49.86036128 48.36534019 -49.8404541 44.37365723 C-49.84937699 43.22257162 -49.85829988 42.07148602 -49.86749315 40.88551903 C-49.75533347 29.26162153 -46.40788842 19.96708337 -38.33251953 11.50793457 C-27.03991575 0.72766064 -14.86532243 -0.08054646 0 0 Z " fill="#5D647E" transform="translate(49.33251953125,71.4920654296875)"/>
<path d="M0 0 C0.87756454 -0.00571014 1.75512909 -0.01142029 2.6592865 -0.01730347 C3.62449722 -0.01842133 4.58970795 -0.01953918 5.58416748 -0.02069092 C6.59894669 -0.02565582 7.61372589 -0.03062073 8.65925598 -0.03573608 C12.02843903 -0.05038367 15.39757497 -0.05716457 18.76678467 -0.06268311 C21.1036784 -0.06843309 23.44057212 -0.07419084 25.77746582 -0.07995605 C30.68357565 -0.09047389 35.58966905 -0.09631121 40.49578857 -0.09979248 C46.78181927 -0.10527422 53.06763304 -0.1292923 59.35359573 -0.15776443 C64.18345777 -0.17639194 69.01326761 -0.18159652 73.84316254 -0.18312836 C76.16039972 -0.18615591 78.47763596 -0.19418788 80.79483795 -0.20731354 C84.038584 -0.22437352 87.28180098 -0.22249349 90.52557373 -0.21600342 C91.96124443 -0.22982559 91.96124443 -0.22982559 93.42591858 -0.243927 C99.36996139 -0.20668392 103.91890757 0.43821488 108.45819092 4.67559814 C112.23340625 9.61241819 112.94148206 11.75678188 112.97479248 17.97344971 C112.97975739 18.67611465 112.98472229 19.3787796 112.98983765 20.10273743 C113.00447068 22.43302381 113.0112642 24.76324206 113.01678467 27.09356689 C113.02253652 28.71301272 113.02829425 30.33245852 113.03405762 31.9519043 C113.04457176 35.3515047 113.05041128 38.75108142 113.05389404 42.1506958 C113.05937045 46.49967603 113.08337826 50.84834186 113.111866 55.19722366 C113.13052535 58.54474793 113.13569979 61.89219711 113.13722992 65.23976898 C113.14025107 66.84249332 113.14826146 68.4452165 113.1614151 70.04788971 C113.1785401 72.29545182 113.17657969 74.54225441 113.17010498 76.78985596 C113.17557343 78.70607758 113.17557343 78.70607758 113.18115234 80.66101074 C112.71214604 85.10157584 111.33653747 88.47082847 108.31365967 91.78497314 C104.30457678 94.90662883 101.55002417 96.2593955 96.50706482 96.28761292 C95.18865601 96.29834587 95.18865601 96.29834587 93.84361267 96.30929565 C92.88199722 96.31198456 91.92038177 96.31467346 90.92962646 96.31744385 C89.91470123 96.32401505 88.899776 96.33058624 87.85409546 96.33735657 C84.49035572 96.35709185 81.12666061 96.36875204 77.76287842 96.37872314 C76.6146995 96.38279867 75.46652058 96.3868742 74.28354836 96.39107323 C68.20773117 96.41193383 62.13193657 96.42623625 56.05609131 96.43560791 C49.7778717 96.446679 43.50000587 96.48108737 37.22191143 96.52077961 C32.39634029 96.54691037 27.57085395 96.55529657 22.74521828 96.55888939 C20.43075989 96.5637636 18.11630549 96.57540121 15.80191612 96.59392738 C12.56294988 96.61824524 9.32490583 96.61736701 6.08587646 96.6104126 C5.13033371 96.62322266 4.17479095 96.63603271 3.19029236 96.64923096 C-2.45176682 96.60508234 -5.72619644 95.93805705 -10.18634033 92.14044189 C-14.67084068 87.1711307 -15.3122752 83.79284712 -15.36334229 77.19390869 C-15.36991348 76.49109772 -15.37648468 75.78828674 -15.383255 75.06417847 C-15.40295825 72.73933806 -15.41464378 70.41456216 -15.42462158 68.08966064 C-15.42869711 67.29452372 -15.43277264 66.49938679 -15.43697166 65.6801548 C-15.45781952 61.4716887 -15.47212689 57.26325508 -15.48150635 53.05474854 C-15.49256944 48.71355035 -15.52697143 44.37286493 -15.56667805 40.03184795 C-15.59285258 36.68861453 -15.60119889 33.34550316 -15.60478783 30.00217628 C-15.60965148 28.40222523 -15.62125928 26.80227954 -15.63982582 25.20242882 C-15.66423689 22.95959462 -15.6632495 20.71808573 -15.65631104 18.47515869 C-15.66217728 17.20069382 -15.66804352 15.92622894 -15.67408752 14.61314392 C-14.93300841 9.33674873 -12.49213679 6.29078639 -8.56134033 2.82794189 C-5.40714188 0.58680089 -3.80566829 0.01480454 0 0 Z " fill="#FF9500" transform="translate(79.18634033203125,135.85955810546875)"/>
<path d="M0 0 C9.29557491 8.55882614 14.96195769 19.52306739 15.83984375 32.08984375 C16.29290962 46.77963339 12.14281958 59.43490917 2.12890625 70.3203125 C-8.52102213 80.42326571 -21.39194474 84.56728513 -35.83984375 84.3203125 C-49.58748278 83.34702832 -59.96876029 76.84105085 -69.37109375 67.0703125 C-78.47603245 56.1131914 -81.2342318 43.00839368 -80.37109375 29.0703125 C-78.3039931 16.03706773 -71.57731437 5.31379839 -61.37109375 -2.9296875 C-41.58742521 -15.894713 -18.58093375 -15.12188019 0 0 Z " fill="#FE4F19" transform="translate(432.37109375,147.9296875)"/>
<path d="M0 0 C0 31.68 0 63.36 0 96 C-21 96 -21 96 -27 92 C-31.48450035 87.0306888 -32.12593487 83.65240523 -32.17700195 77.0534668 C-32.18357315 76.35065582 -32.19014435 75.64784485 -32.19691467 74.92373657 C-32.21661792 72.59889617 -32.22830345 70.27412027 -32.23828125 67.94921875 C-32.24235678 67.15408182 -32.2464323 66.35894489 -32.25063133 65.53971291 C-32.27147919 61.3312468 -32.28578656 57.12281319 -32.29516602 52.91430664 C-32.30622911 48.57310846 -32.3406311 44.23242303 -32.38033772 39.89140606 C-32.40651225 36.54817263 -32.41485856 33.20506127 -32.41844749 29.86173439 C-32.42331115 28.26178333 -32.43491894 26.66183764 -32.45348549 25.06198692 C-32.47789656 22.81915272 -32.47690917 20.57764383 -32.4699707 18.3347168 C-32.47583694 17.06025192 -32.48170319 15.78578705 -32.48774719 14.47270203 C-31.74666808 9.19630684 -29.30579646 6.1503445 -25.375 2.6875 C-16.8420116 -3.37541281 -16.23371745 0 0 0 Z " fill="#FED000" transform="translate(96,136)"/>
<path d="M0 0 C0.67453043 -0.00638882 1.34906087 -0.01277764 2.04403162 -0.01936007 C4.29766372 -0.03458527 6.54953056 -0.01416828 8.80310059 0.00622559 C10.42132652 0.0027236 12.039549 -0.00293586 13.65776062 -0.0105896 C18.04838486 -0.02483627 22.43838272 -0.00777747 26.82894707 0.01569557 C31.42437378 0.03580428 36.01977448 0.029925 40.61523438 0.02758789 C48.33242115 0.02764146 56.04936309 0.04739822 63.76647949 0.07946777 C72.68759387 0.11636058 81.6083875 0.12514332 90.5295682 0.11817026 C99.11262625 0.11186423 107.69557436 0.12262141 116.27861023 0.14213562 C119.93081733 0.15030875 123.58296823 0.15301933 127.23518372 0.15144348 C131.53625924 0.1505643 135.83703013 0.16478968 140.13802528 0.19067001 C141.71622046 0.19782995 143.29444804 0.19991626 144.87265587 0.19655228 C147.02765731 0.19283514 149.18177086 0.20759174 151.33666992 0.22705078 C153.14516544 0.23264385 153.14516544 0.23264385 154.99019623 0.23834991 C158.50636641 0.6622081 160.39848025 1.43427944 163.16833496 3.62145996 C164.3401441 7.57631579 164.57314826 9.69038938 162.91833496 13.49645996 C161.16833496 15.62145996 161.16833496 15.62145996 158.16833496 16.62145996 C155.97074418 16.71987241 153.77023639 16.75648856 151.57044983 16.76190186 C150.5601591 16.76635854 150.5601591 16.76635854 149.52945846 16.77090526 C147.26787678 16.77959138 145.00634803 16.78110041 142.74475098 16.78259277 C141.1252023 16.78722092 139.50565471 16.79224558 137.8861084 16.79763794 C133.48326574 16.81076221 129.08043833 16.81720668 124.67757916 16.8216486 C121.92819275 16.82457862 119.17881051 16.82868324 116.42942619 16.83315277 C107.83092345 16.84682632 99.23243025 16.85649429 90.63391739 16.86035466 C80.70086854 16.8648385 70.76795709 16.88240207 60.83495003 16.91135526 C53.16100231 16.93294915 45.48709332 16.94305768 37.81311554 16.94439578 C33.22765221 16.94544524 28.64231807 16.95138317 24.05688667 16.96921539 C19.74523011 16.98565703 15.4338004 16.98787071 11.12212372 16.97907639 C9.53865134 16.97830397 7.95516696 16.98267557 6.37172508 16.99253464 C4.21194566 17.00519496 2.05297694 16.99941048 -0.10679626 16.98895264 C-1.31597938 16.9904192 -2.52516249 16.99188576 -3.77098751 16.99339676 C-7.09592615 16.58934667 -8.46240748 15.93975153 -10.83166504 13.62145996 C-11.61682129 11.75427246 -11.61682129 11.75427246 -11.89416504 9.74645996 C-12.0088916 9.08903809 -12.12361816 8.43161621 -12.24182129 7.75427246 C-11.01608552 1.38044644 -5.678386 -0.00335575 0 0 Z " fill="#898794" transform="translate(75.8316650390625,367.3785400390625)"/>
<path d="M0 0 C0.96149963 -0.00960754 1.92299927 -0.01921509 2.91363525 -0.02911377 C3.95630554 -0.03336365 4.99897583 -0.03761353 6.07324219 -0.04199219 C7.67906158 -0.0505423 7.67906158 -0.0505423 9.31732178 -0.05926514 C11.58702605 -0.06872482 13.85674412 -0.07525295 16.12646484 -0.07910156 C19.59204265 -0.08878871 23.05702288 -0.11979594 26.52246094 -0.15136719 C28.7268845 -0.15789899 30.9313123 -0.16314877 33.13574219 -0.16699219 C34.68760223 -0.18551239 34.68760223 -0.18551239 36.27081299 -0.20440674 C42.49284482 -0.18523748 47.25059142 0.24908145 52.01464844 4.69628906 C55.99733775 9.90442124 56.57669689 12.95236365 56.62011719 19.41113281 C56.64074219 20.16265625 56.66136719 20.91417969 56.68261719 21.68847656 C56.72186547 27.31079349 55.79703965 31.50036626 51.87011719 35.80566406 C47.68383148 39.06529799 44.87379008 40.27705862 39.62670898 40.33813477 C38.18457283 40.35738762 38.18457283 40.35738762 36.71330261 40.37702942 C35.15703911 40.38810982 35.15703911 40.38810982 33.56933594 40.39941406 C31.96563896 40.41152168 31.96563896 40.41152168 30.32954407 40.4238739 C28.06582254 40.43770872 25.80208021 40.44843357 23.53833008 40.45629883 C20.08146545 40.47351405 16.62555658 40.51740697 13.16894531 40.56152344 C10.96908255 40.57165034 8.76921166 40.58016645 6.56933594 40.58691406 C5.53789963 40.60442215 4.50646332 40.62193024 3.44377136 40.63996887 C-2.59308941 40.62177792 -6.03025329 40.17553034 -10.62988281 36.16113281 C-15.36906117 30.90961085 -15.8547036 26.72852822 -15.94238281 19.84863281 C-15.97138672 19.10162109 -16.00039063 18.35460937 -16.03027344 17.58496094 C-16.09073809 12.28732687 -15.10476138 9.37655927 -11.62988281 5.16113281 C-7.61924887 1.62795529 -5.30912114 0.04275142 0 0 Z " fill="#B7B9BF" transform="translate(391.6298828125,295.8388671875)"/>
<path d="M0 0 C0.96149963 -0.00960754 1.92299927 -0.01921509 2.91363525 -0.02911377 C3.95630554 -0.03336365 4.99897583 -0.03761353 6.07324219 -0.04199219 C7.67906158 -0.0505423 7.67906158 -0.0505423 9.31732178 -0.05926514 C11.58702605 -0.06872482 13.85674412 -0.07525295 16.12646484 -0.07910156 C19.59204265 -0.08878871 23.05702288 -0.11979594 26.52246094 -0.15136719 C28.7268845 -0.15789899 30.9313123 -0.16314877 33.13574219 -0.16699219 C34.68760223 -0.18551239 34.68760223 -0.18551239 36.27081299 -0.20440674 C42.49284482 -0.18523748 47.25059142 0.24908145 52.01464844 4.69628906 C55.99733775 9.90442124 56.57669689 12.95236365 56.62011719 19.41113281 C56.64074219 20.16265625 56.66136719 20.91417969 56.68261719 21.68847656 C56.72186547 27.31079349 55.79703965 31.50036626 51.87011719 35.80566406 C47.68383148 39.06529799 44.87379008 40.27705862 39.62670898 40.33813477 C38.18457283 40.35738762 38.18457283 40.35738762 36.71330261 40.37702942 C35.15703911 40.38810982 35.15703911 40.38810982 33.56933594 40.39941406 C31.96563896 40.41152168 31.96563896 40.41152168 30.32954407 40.4238739 C28.06582254 40.43770872 25.80208021 40.44843357 23.53833008 40.45629883 C20.08146545 40.47351405 16.62555658 40.51740697 13.16894531 40.56152344 C10.96908255 40.57165034 8.76921166 40.58016645 6.56933594 40.58691406 C5.53789963 40.60442215 4.50646332 40.62193024 3.44377136 40.63996887 C-2.59308941 40.62177792 -6.03025329 40.17553034 -10.62988281 36.16113281 C-15.36906117 30.90961085 -15.8547036 26.72852822 -15.94238281 19.84863281 C-15.97138672 19.10162109 -16.00039063 18.35460937 -16.03027344 17.58496094 C-16.09073809 12.28732687 -15.10476138 9.37655927 -11.62988281 5.16113281 C-7.61924887 1.62795529 -5.30912114 0.04275142 0 0 Z " fill="#B7B9BF" transform="translate(287.6298828125,295.8388671875)"/>
<path d="M0 0 C0.96149963 -0.00960754 1.92299927 -0.01921509 2.91363525 -0.02911377 C3.95630554 -0.03336365 4.99897583 -0.03761353 6.07324219 -0.04199219 C7.67906158 -0.0505423 7.67906158 -0.0505423 9.31732178 -0.05926514 C11.58702605 -0.06872482 13.85674412 -0.07525295 16.12646484 -0.07910156 C19.59204265 -0.08878871 23.05702288 -0.11979594 26.52246094 -0.15136719 C28.7268845 -0.15789899 30.9313123 -0.16314877 33.13574219 -0.16699219 C34.68760223 -0.18551239 34.68760223 -0.18551239 36.27081299 -0.20440674 C42.49284482 -0.18523748 47.25059142 0.24908145 52.01464844 4.69628906 C55.99733775 9.90442124 56.57669689 12.95236365 56.62011719 19.41113281 C56.64074219 20.16265625 56.66136719 20.91417969 56.68261719 21.68847656 C56.72186547 27.31079349 55.79703965 31.50036626 51.87011719 35.80566406 C47.68383148 39.06529799 44.87379008 40.27705862 39.62670898 40.33813477 C38.18457283 40.35738762 38.18457283 40.35738762 36.71330261 40.37702942 C35.15703911 40.38810982 35.15703911 40.38810982 33.56933594 40.39941406 C31.96563896 40.41152168 31.96563896 40.41152168 30.32954407 40.4238739 C28.06582254 40.43770872 25.80208021 40.44843357 23.53833008 40.45629883 C20.08146545 40.47351405 16.62555658 40.51740697 13.16894531 40.56152344 C10.96908255 40.57165034 8.76921166 40.58016645 6.56933594 40.58691406 C5.53789963 40.60442215 4.50646332 40.62193024 3.44377136 40.63996887 C-2.59308941 40.62177792 -6.03025329 40.17553034 -10.62988281 36.16113281 C-15.36906117 30.90961085 -15.8547036 26.72852822 -15.94238281 19.84863281 C-15.97138672 19.10162109 -16.00039062 18.35460937 -16.03027344 17.58496094 C-16.09073809 12.28732687 -15.10476138 9.37655927 -11.62988281 5.16113281 C-7.61924887 1.62795529 -5.30912114 0.04275142 0 0 Z " fill="#B7B9BF" transform="translate(183.6298828125,295.8388671875)"/>
<path d="M0 0 C0.96149963 -0.00960754 1.92299927 -0.01921509 2.91363525 -0.02911377 C3.95630554 -0.03336365 4.99897583 -0.03761353 6.07324219 -0.04199219 C7.67906158 -0.0505423 7.67906158 -0.0505423 9.31732178 -0.05926514 C11.58702605 -0.06872482 13.85674412 -0.07525295 16.12646484 -0.07910156 C19.59204265 -0.08878871 23.05702288 -0.11979594 26.52246094 -0.15136719 C28.7268845 -0.15789899 30.9313123 -0.16314877 33.13574219 -0.16699219 C34.68760223 -0.18551239 34.68760223 -0.18551239 36.27081299 -0.20440674 C42.49284482 -0.18523748 47.25059142 0.24908145 52.01464844 4.69628906 C55.99733775 9.90442124 56.57669689 12.95236365 56.62011719 19.41113281 C56.64074219 20.16265625 56.66136719 20.91417969 56.68261719 21.68847656 C56.72186547 27.31079349 55.79703965 31.50036626 51.87011719 35.80566406 C47.68383148 39.06529799 44.87379008 40.27705862 39.62670898 40.33813477 C38.18457283 40.35738762 38.18457283 40.35738762 36.71330261 40.37702942 C35.15703911 40.38810982 35.15703911 40.38810982 33.56933594 40.39941406 C31.96563896 40.41152168 31.96563896 40.41152168 30.32954407 40.4238739 C28.06582254 40.43770872 25.80208021 40.44843357 23.53833008 40.45629883 C20.08146545 40.47351405 16.62555658 40.51740697 13.16894531 40.56152344 C10.96908255 40.57165034 8.76921166 40.58016645 6.56933594 40.58691406 C5.53789963 40.60442215 4.50646332 40.62193024 3.44377136 40.63996887 C-2.59308941 40.62177792 -6.03025329 40.17553034 -10.62988281 36.16113281 C-15.36906117 30.90961085 -15.8547036 26.72852822 -15.94238281 19.84863281 C-15.97138672 19.10162109 -16.00039063 18.35460937 -16.03027344 17.58496094 C-16.09073809 12.28732687 -15.10476138 9.37655927 -11.62988281 5.16113281 C-7.61924887 1.62795529 -5.30912114 0.04275142 0 0 Z " fill="#B7B9BF" transform="translate(79.6298828125,295.8388671875)"/>
<path d="M0 0 C8.7624653 -0.06786404 17.52475511 -0.12286684 26.28742409 -0.15543652 C30.35659195 -0.17107087 34.42557017 -0.19226809 38.49462891 -0.22631836 C42.42389151 -0.25899183 46.35297207 -0.27686979 50.28236008 -0.28463173 C51.77903482 -0.29016095 53.27569997 -0.30095824 54.77229691 -0.31719017 C56.87396777 -0.33907143 58.97489312 -0.34196258 61.07666016 -0.34057617 C62.27134918 -0.34723801 63.46603821 -0.35389984 64.69692993 -0.36076355 C69.04906335 0.11457941 72.42844211 1.53296377 75.64453125 4.53515625 C81.44662997 12.12251612 80 11.66073738 80 24 C53.6 24 27.2 24 0 24 C0 16.08 0 8.16 0 0 Z " fill="#FED000" transform="translate(112,136)"/>
<path d="M0 0 C26.4 0 52.8 0 80 0 C80 13.9 80 13.9 77 18 C73.39562323 21.60437677 70.29919936 23.90602981 65.05769348 24.12025452 C63.25566719 24.1169236 63.25566719 24.1169236 61.41723633 24.11352539 C60.75355545 24.11367142 60.08987457 24.11381744 59.40608215 24.1139679 C57.21469848 24.11327182 55.02340005 24.1054937 52.83203125 24.09765625 C51.31174262 24.09579099 49.79145339 24.09436759 48.27116394 24.09336853 C44.27135557 24.08955188 40.27158356 24.07972885 36.27178955 24.06866455 C32.18966158 24.05843213 28.10752773 24.05386698 24.02539062 24.04882812 C16.01690855 24.03810583 8.00846299 24.02051591 0 24 C0 16.08 0 8.16 0 0 Z " fill="#FED000" transform="translate(112,208)"/>
<path d="M0 0 C0.7437236 -0.00554901 1.4874472 -0.01109802 2.25370789 -0.01681519 C4.70300491 -0.02859027 7.15044281 -0.00436063 9.59960938 0.02148438 C11.30684322 0.02319615 13.01407969 0.02312912 14.72131348 0.0213623 C18.29574806 0.02301432 21.86955455 0.04168994 25.44384766 0.07324219 C30.02049387 0.11291968 34.59631776 0.11728675 39.17310333 0.10977936 C42.6973623 0.10670656 46.22143716 0.11884115 49.74565125 0.13591003 C51.43290553 0.14293026 53.12018067 0.14606575 54.80744934 0.1452179 C57.16758777 0.14702014 59.52674969 0.16843711 61.88671875 0.1953125 C62.58089401 0.1923819 63.27506927 0.18945129 63.99028015 0.18643188 C68.27627896 0.26155526 71.08104234 0.90523394 74.44335938 3.61523438 C75.61516851 7.57009021 75.84817267 9.68416379 74.19335938 13.49023438 C72.44335938 15.61523438 72.44335938 15.61523438 69.44335938 16.61523438 C66.9856926 16.7212069 64.55595821 16.77245821 62.09790039 16.77636719 C61.35286255 16.78133209 60.60782471 16.786297 59.84020996 16.79141235 C57.37588579 16.80601618 54.91162595 16.81283228 52.44726562 16.81835938 C50.7347768 16.82411141 49.02228799 16.82986914 47.30979919 16.83563232 C43.7194692 16.84613663 40.12916156 16.85198332 36.53881836 16.85546875 C31.93745242 16.86095843 27.33638165 16.88499883 22.73510838 16.9134407 C19.19808587 16.93205812 15.66113468 16.93727216 12.12406731 16.93880463 C10.42758504 16.9418327 8.73110408 16.94986647 7.03466988 16.96298981 C4.66228825 16.98003514 2.29063081 16.97817429 -0.08178711 16.97167969 C-0.78269974 16.98089447 -1.48361237 16.99010925 -2.20576477 16.99960327 C-6.26464023 16.96477638 -8.65631329 16.53853023 -11.55664062 13.61523438 C-12.34179688 11.74804688 -12.34179688 11.74804688 -12.61914062 9.74023438 C-12.73386719 9.0828125 -12.84859375 8.42539062 -12.96679688 7.74804688 C-11.67816412 1.04715657 -5.85994384 -0.11196289 0 0 Z " fill="#898794" transform="translate(268.556640625,367.384765625)"/>
<path d="M0 0 C26.4 0 52.8 0 80 0 C80 5.28 80 10.56 80 16 C53.6 16 27.2 16 0 16 C0 10.72 0 5.44 0 0 Z " fill="#FFD100" transform="translate(112,176)"/>
</svg>
