<?xml version="1.0" encoding="UTF-8"?>
<svg version="1.1" xmlns="http://www.w3.org/2000/svg" width="512" height="512">
<path d="M0 0 C10.70730549 9.08113037 18.13729005 20.2413286 20.2421875 34.3203125 C20.48343635 38.55486466 20.25652085 41.6343827 17.703125 45.11328125 C14.58289823 47.75869091 12.86280416 48.36312175 8.828125 48.55078125 C8.786875 49.78828125 8.745625 51.02578125 8.703125 52.30078125 C7.35171428 63.93387084 -0.24695649 74.03207225 -9.2109375 81.17578125 C-13.85206166 84.28219105 -18.81441057 86.06605758 -24.171875 87.55078125 C-24.97625 87.77765625 -25.780625 88.00453125 -26.609375 88.23828125 C-30.78637629 88.74767165 -34.96977393 88.62421603 -39.171875 88.55078125 C-39.543125 89.69546875 -39.543125 89.69546875 -39.921875 90.86328125 C-41.36324252 93.96222141 -42.15895831 94.96503562 -45.171875 96.55078125 C-50.19077261 97.8239188 -53.39635108 97.70184333 -58.171875 95.55078125 C-58.09997526 108.06133668 -53.93860951 115.22287894 -45.85644531 124.49633789 C-44.171875 126.55078125 -44.171875 126.55078125 -42.60449219 128.99389648 C-36.58609893 137.90561793 -28.38058124 140.45720947 -18.671875 143.98828125 C-17.08879283 144.58903481 -15.50674988 145.19253433 -13.92578125 145.79882812 C-10.35652439 147.16080717 -6.77753635 148.49301362 -3.19067383 149.80783081 C0.15507591 151.03912053 3.4910789 152.29612101 6.828125 153.55078125 C6.79710693 152.92139648 6.76608887 152.29201172 6.73413086 151.64355469 C6.51681701 146.48930145 6.88090072 142.97161767 9.828125 138.55078125 C12.99424616 135.65110699 15.66533077 134.96535879 19.8671875 134.3046875 C21.07528076 134.1089917 22.28337402 133.9132959 23.52807617 133.71166992 C24.82334229 133.51420166 26.1186084 133.3167334 27.453125 133.11328125 C28.79871991 132.90100634 30.14417781 132.68786121 31.48950195 132.47387695 C34.24710696 132.03716945 37.00567753 131.60744417 39.76513672 131.18261719 C43.58321662 130.59281313 47.3952843 129.96936345 51.20703125 129.33984375 C53.47645568 128.97199661 55.74598201 128.60477743 58.015625 128.23828125 C59.04574707 128.0669165 60.07586914 127.89555176 61.13720703 127.71899414 C72.05237615 126.00339605 81.42927747 124.94748837 90.828125 131.55078125 C99.64426892 139.30142629 104.22329094 150.0723038 105.046875 161.6171875 C105.40047604 174.09635745 102.36839157 186.13035458 93.94140625 195.69140625 C88.63062475 200.65787382 83.11475834 203.64501927 75.765625 203.80078125 C72.07123273 203.56621666 68.4872075 203.0954706 64.828125 202.55078125 C65.07242249 203.68377655 65.07242249 203.68377655 65.32165527 204.83966064 C66.85622316 211.96015736 68.38685957 219.08148241 69.91309357 226.20376968 C70.69787155 229.8653205 71.48416245 233.52653268 72.27392578 237.18701172 C73.03611746 240.71996963 73.79431539 244.25376309 74.54975891 247.78816986 C74.83858851 249.13605993 75.12885271 250.48364341 75.420578 251.83090973 C75.82911061 253.7188109 76.2320597 255.60791769 76.63476562 257.49707031 C76.86570923 258.57184631 77.09665283 259.64662231 77.33459473 260.75396729 C77.828125 263.55078125 77.828125 263.55078125 77.828125 267.55078125 C78.900625 267.61265625 79.973125 267.67453125 81.078125 267.73828125 C100.22887348 270.17012233 119.55978823 285.36470965 131.07568359 300.15283203 C143.43346314 317.14038514 149.47280308 335.49129746 148.828125 356.55078125 C144.208125 356.55078125 139.588125 356.55078125 134.828125 356.55078125 C134.76625 358.53078125 134.704375 360.51078125 134.640625 362.55078125 C133.13234061 383.02625833 123.2120087 401.62478862 107.875 415.15625 C89.67689896 429.37649388 68.71638136 434.62411453 45.94921875 432.125 C30.98966022 429.53920144 18.31385711 423.40061448 6.828125 413.55078125 C6.10238281 412.9371875 5.37664062 412.32359375 4.62890625 411.69140625 C-7.78749194 400.27515015 -15.83424304 383.0852512 -18.171875 366.55078125 C-18.171875 363.25078125 -18.171875 359.95078125 -18.171875 356.55078125 C-64.701875 356.55078125 -111.231875 356.55078125 -159.171875 356.55078125 C-159.171875 360.18078125 -159.171875 363.81078125 -159.171875 367.55078125 C-161.51840247 382.78134774 -167.80517007 396.09489156 -178.171875 407.55078125 C-178.84863281 408.32035156 -179.52539062 409.08992188 -180.22265625 409.8828125 C-193.04296121 423.64061691 -211.86302077 431.8643941 -230.5703125 432.8359375 C-251.33490222 433.4563051 -272.72755036 427.12238999 -288.1796875 412.6640625 C-303.40700918 396.51115853 -310.96739912 378.71313737 -312.171875 356.55078125 C-316.791875 356.55078125 -321.411875 356.55078125 -326.171875 356.55078125 C-326.26502798 345.84040678 -326.33586808 335.13013052 -326.37912369 324.41943169 C-326.3998963 319.44467618 -326.4280226 314.47020018 -326.47363281 309.49560547 C-326.51746227 304.68449323 -326.54108951 299.87364789 -326.55138397 295.06235123 C-326.55870937 293.23734467 -326.57301179 291.41235081 -326.59479523 289.58745956 C-326.82769922 269.24575907 -322.08385922 251.12254667 -308.171875 235.55078125 C-307.56730469 234.865 -306.96273437 234.17921875 -306.33984375 233.47265625 C-299.88412888 226.58305423 -291.82162582 221.32118545 -283.171875 217.55078125 C-282.511875 217.55078125 -281.851875 217.55078125 -281.171875 217.55078125 C-281.18758545 216.95128662 -281.2032959 216.35179199 -281.21948242 215.73413086 C-281.2823163 212.98561248 -281.32101735 210.23724583 -281.359375 207.48828125 C-281.38451172 206.54533203 -281.40964844 205.60238281 -281.43554688 204.63085938 C-281.52888914 195.70111629 -279.36521474 190.04623513 -273.171875 183.55078125 C-271.86056639 182.84177352 -270.53015184 182.16503384 -269.171875 181.55078125 C-270.52371384 181.54864372 -270.52371384 181.54864372 -271.90286255 181.54646301 C-280.40718326 181.52861382 -288.91098477 181.48694348 -297.41505623 181.41869068 C-301.78686472 181.38443849 -306.15832443 181.3593135 -310.53027344 181.35522461 C-314.75163469 181.35093778 -318.9722094 181.32244405 -323.19332504 181.27734947 C-324.80156748 181.26438661 -326.4099041 181.26006253 -328.01819229 181.26462746 C-330.27616948 181.26954258 -332.53185575 181.24340671 -334.78955078 181.21020508 C-336.07306427 181.20354324 -337.35657776 181.19688141 -338.6789856 181.1900177 C-343.26454805 180.35081029 -344.892815 178.80800855 -348.171875 175.55078125 C-349.36441443 173.16570239 -349.3079202 171.68560747 -349.32577515 169.02276611 C-349.33437561 168.06947418 -349.34297607 167.11618225 -349.35183716 166.13400269 C-349.35609711 165.08463531 -349.36035706 164.03526794 -349.36474609 162.95410156 C-349.37292358 161.85154022 -349.38110107 160.74897888 -349.38952637 159.61300659 C-349.41440937 155.9516454 -349.43090381 152.29032304 -349.4453125 148.62890625 C-349.45063618 147.3805172 -349.45595985 146.13212814 -349.46144485 144.84590912 C-349.48268066 139.59932415 -349.50181021 134.35274504 -349.51306725 129.10612869 C-349.52929825 121.59095629 -349.562453 114.0763016 -349.61946809 106.56132436 C-349.66287317 100.63787047 -349.67881599 94.71453183 -349.68519974 88.79091644 C-349.69192435 86.27269557 -349.70717752 83.75448258 -349.73109055 81.23636627 C-349.76264804 77.712189 -349.76279218 74.18932007 -349.75537109 70.66503906 C-349.77177643 69.62376862 -349.78818176 68.58249817 -349.80508423 67.50967407 C-349.76538123 62.90590514 -349.72319525 59.59408787 -346.76040649 55.91864014 C-343.43280298 52.8747152 -342.01679128 52.42620258 -337.64385986 52.3968811 C-336.69056793 52.38828064 -335.737276 52.37968018 -334.75509644 52.37081909 C-333.70572906 52.36655914 -332.65636169 52.36229919 -331.57519531 52.35791016 C-329.9213533 52.34564392 -329.9213533 52.34564392 -328.23410034 52.33312988 C-324.57273915 52.30824688 -320.91141679 52.29175244 -317.25 52.27734375 C-316.00161095 52.27202007 -314.75322189 52.2666964 -313.46700287 52.2612114 C-308.2204179 52.23997559 -302.97383879 52.22084604 -297.72722244 52.209589 C-290.21205004 52.193358 -282.69739535 52.16020325 -275.18241811 52.10318816 C-269.25896422 52.05978308 -263.33562558 52.04384026 -257.41201019 52.03745651 C-254.89378932 52.0307319 -252.37557633 52.01547873 -249.85746002 51.9915657 C-246.33328275 51.96000821 -242.81041382 51.95986407 -239.28613281 51.96728516 C-237.72422714 51.94267715 -237.72422714 51.94267715 -236.13076782 51.91757202 C-231.52699889 51.95727502 -228.21518162 51.999461 -224.53973389 54.96224976 C-221.49580895 58.28985327 -221.04729633 59.70586497 -221.01797485 64.07879639 C-221.00937439 65.03208832 -221.00077393 65.98538025 -220.99191284 66.96755981 C-220.98552292 68.54161087 -220.98552292 68.54161087 -220.97900391 70.14746094 C-220.96673767 71.80130295 -220.96673767 71.80130295 -220.95422363 73.48855591 C-220.92934063 77.1499171 -220.91284619 80.81123946 -220.8984375 84.47265625 C-220.89311382 85.7210453 -220.88779015 86.96943436 -220.88230515 88.25565338 C-220.86106934 93.50223835 -220.84193979 98.74881746 -220.83068275 103.99543381 C-220.81445175 111.51060621 -220.781297 119.0252609 -220.72428191 126.54023814 C-220.68087683 132.46369203 -220.66493401 138.38703067 -220.65855026 144.31064606 C-220.65182565 146.82886693 -220.63657248 149.34707992 -220.61265945 151.86519623 C-220.58110196 155.3893735 -220.58095782 158.91224243 -220.58837891 162.43652344 C-220.57197357 163.47779388 -220.55556824 164.51906433 -220.53866577 165.59188843 C-220.57920715 170.29287289 -220.6397404 173.5284871 -223.70834351 177.24542236 C-224.5213089 178.0061908 -225.33427429 178.76695923 -226.171875 179.55078125 C-221.881875 179.55078125 -217.591875 179.55078125 -213.171875 179.55078125 C-213.914375 177.32328125 -213.914375 177.32328125 -214.671875 175.05078125 C-219.46176817 158.56249516 -209.25757152 142.91772345 -202.41210938 128.23681641 C-201.26950187 125.76221646 -200.15968626 123.27624313 -199.0625 120.78125 C-195.0359718 111.72977387 -190.5245391 104.2244152 -184.171875 96.55078125 C-183.70652344 95.92300781 -183.24117187 95.29523438 -182.76171875 94.6484375 C-164.81475585 71.3228741 -132.49710907 62.54034487 -104.83691406 58.84667969 C-99.60393708 58.26566392 -94.42828832 58.18118969 -89.171875 58.55078125 C-89.32785156 57.83535156 -89.48382813 57.11992188 -89.64453125 56.3828125 C-92.51436763 41.69153091 -90.71776185 27.466708 -82.734375 14.61328125 C-81.56662529 12.91205431 -80.38141794 11.22255228 -79.171875 9.55078125 C-78.429375 8.49890625 -77.686875 7.44703125 -76.921875 6.36328125 C-56.70236303 -14.31576509 -23.25741658 -18.59596987 0 0 Z M-100.33032227 135.44677734 C-101.18783585 135.86075775 -102.04534943 136.27473816 -102.92884827 136.70126343 C-104.31951759 137.38087631 -104.31951759 137.38087631 -105.73828125 138.07421875 C-106.68750961 138.53559235 -107.63673798 138.99696594 -108.61473083 139.47232056 C-110.62394251 140.45055067 -112.63214018 141.43086577 -114.6394043 142.41308594 C-117.72155359 143.91951467 -120.80877091 145.41517211 -123.89648438 146.91015625 C-125.84406828 147.86002478 -127.79134451 148.81052445 -129.73828125 149.76171875 C-130.66741837 150.21074554 -131.59655548 150.65977234 -132.55384827 151.12240601 C-133.40820969 151.54269073 -134.26257111 151.96297546 -135.14282227 152.39599609 C-136.27627831 152.94892838 -136.27627831 152.94892838 -137.43263245 153.51303101 C-139.34095538 154.43982206 -139.34095538 154.43982206 -140.171875 156.55078125 C-135.68351911 158.58372536 -131.19495693 160.61621177 -126.70605469 162.64794922 C-122.8766351 164.38123331 -119.04796459 166.11615876 -115.21972656 167.85205078 C-106.54223235 171.78407036 -97.8615028 175.70511927 -89.13671875 179.53125 C-87.80423074 180.11813226 -86.47179075 180.70512354 -85.1394043 181.29223633 C-82.7245401 182.35607294 -80.30538846 183.40713564 -77.88208008 184.4519043 C-69.10278902 188.31937252 -63.47235312 191.79054803 -59.171875 200.55078125 C-58.26692869 203.47206338 -58.04337962 206.09294552 -58.0390625 209.14453125 C-58.03712891 210.07297852 -58.03519531 211.00142578 -58.03320312 211.95800781 C-58.03771484 212.97862305 -58.04222656 213.99923828 -58.046875 215.05078125 C-58.04880859 216.14100586 -58.05074219 217.23123047 -58.05273438 218.35449219 C-58.10381232 228.59562055 -58.42050924 238.8247398 -58.74307251 249.05993652 C-59.29676881 266.89015344 -59.27206494 284.71388915 -59.171875 302.55078125 C-53.0523819 302.79901331 -46.93584879 302.97990001 -40.8125 303.10009766 C-38.73255344 303.15022075 -36.65295637 303.21834327 -34.57421875 303.30517578 C-22.81714375 304.26101397 -22.81714375 304.26101397 -12.16503906 300.45385742 C-10.16684771 297.91325274 -8.67032236 295.40691944 -7.171875 292.55078125 C-5.53113113 290.71381328 -3.79114561 289.23231079 -1.921875 287.61328125 C-1.11234375 286.90300781 -0.3028125 286.19273437 0.53125 285.4609375 C2.828125 283.55078125 2.828125 283.55078125 4.94329834 282.52067566 C8.06975505 279.2531128 7.35053304 275.46802701 7.28222656 271.12231445 C7.28281067 270.15627289 7.28339478 269.19023132 7.28399658 268.19491577 C7.28120633 264.99676782 7.25006934 261.79954795 7.21875 258.6015625 C7.21129097 256.38625091 7.20559645 254.17093273 7.20159912 251.95561218 C7.18631626 246.12093941 7.14701125 240.28666404 7.1027832 234.45214844 C7.06188787 228.50005469 7.04360036 222.54789682 7.0234375 216.59570312 C6.98051985 204.91388776 6.9122362 193.23236753 6.828125 181.55078125 C6.0596373 181.33939514 5.2911496 181.12800903 4.49937439 180.91021729 C-2.8204651 178.88976373 -10.12914423 176.83419271 -17.42838383 174.74065018 C-21.17945966 173.6660678 -24.93313677 172.60441433 -28.6965332 171.57373047 C-59.91483675 163.00514379 -59.91483675 163.00514379 -70.6960907 151.98487854 C-73.45889194 149.30011914 -76.55664885 147.01802332 -79.609375 144.67578125 C-80.75973407 143.77683384 -81.90949415 142.8771193 -83.05859375 141.9765625 C-84.08597656 141.17605469 -85.11335938 140.37554687 -86.171875 139.55078125 C-87.02394531 138.88433594 -87.87601562 138.21789062 -88.75390625 137.53125 C-94.24781598 133.29684765 -94.24781598 133.29684765 -100.33032227 135.44677734 Z M-112.171875 221.55078125 C-112.171875 248.28078125 -112.171875 275.01078125 -112.171875 302.55078125 C-106.561875 302.55078125 -100.951875 302.55078125 -95.171875 302.55078125 C-94.46816096 277.54380005 -94.01117555 252.56797678 -94.171875 227.55078125 C-96.79541018 226.54678601 -99.42055295 225.5474368 -102.046875 224.55078125 C-102.79324219 224.26460937 -103.53960937 223.9784375 -104.30859375 223.68359375 C-108.13172511 222.11741477 -108.13172511 222.11741477 -112.171875 221.55078125 Z " fill="#F6524A" transform="translate(356.171875,45.44921875)"/>
<path d="M0 0 C8.81614392 7.75064504 13.39516594 18.52152255 14.21875 30.06640625 C14.57235104 42.5455762 11.54026657 54.57957333 3.11328125 64.140625 C-2.19750025 69.10709257 -7.71336666 72.09423802 -15.0625 72.25 C-18.75689227 72.01543541 -22.3409175 71.54468935 -26 71 C-25.83713501 71.7553302 -25.67427002 72.5106604 -25.50646973 73.28887939 C-23.97190184 80.40937611 -22.44126543 87.53070116 -20.91503143 94.65298843 C-20.13025345 98.31453925 -19.34396255 101.97575143 -18.55419922 105.63623047 C-17.79200754 109.16918838 -17.03380961 112.70298184 -16.27836609 116.23738861 C-15.98953649 117.58527868 -15.69927229 118.93286216 -15.407547 120.28012848 C-14.99901439 122.16802965 -14.5960653 124.05713644 -14.19335938 125.94628906 C-13.96241577 127.02106506 -13.73147217 128.09584106 -13.49353027 129.20318604 C-13 132 -13 132 -13 136 C-11.9275 136.061875 -10.855 136.12375 -9.75 136.1875 C9.40074848 138.61934108 28.73166323 153.8139284 40.24755859 168.60205078 C52.60533814 185.58960389 58.64467808 203.94051621 58 225 C53.38 225 48.76 225 44 225 C43.938125 226.98 43.87625 228.96 43.8125 231 C42.30421561 251.47547708 32.3838837 270.07400737 17.046875 283.60546875 C-1.15122604 297.82571263 -22.11174364 303.07333328 -44.87890625 300.57421875 C-59.83846478 297.98842019 -72.51426789 291.84983323 -84 282 C-85.08861328 281.07960938 -85.08861328 281.07960938 -86.19921875 280.140625 C-99.11527873 268.26495492 -108.14872223 249.41620397 -109.1796875 231.95703125 C-109.18623129 229.63725669 -109.10376695 227.31746181 -109 225 C-113.62 225 -118.24 225 -123 225 C-124.33413078 200.18516741 -113.94762406 178.03364356 -97.734375 159.65234375 C-95 157 -95 157 -92.5874939 155.77980042 C-88.70700648 153.5483624 -85.64921459 151.37860553 -84.41993713 146.87475395 C-83.47009599 140.14542148 -83.70650619 133.34027301 -83.8046875 126.5625 C-83.80089791 124.35431772 -83.79270569 122.14613899 -83.78030396 119.93798828 C-83.75953644 114.14396005 -83.79836281 108.35182165 -83.84979248 102.55804443 C-83.89172734 96.63893458 -83.87704333 90.71999137 -83.8671875 84.80078125 C-83.85618431 73.19998816 -83.90816539 61.60040307 -84 50 C-80.37 50.66 -76.74 51.32 -73 52 C-73.33 51.01 -73.66 50.02 -74 49 C-74.54375046 40.70780551 -72.23169055 36.43152041 -67 30 C-68.14339844 29.57847656 -69.28679687 29.15695313 -70.46484375 28.72265625 C-71.95578259 28.16941479 -73.44666511 27.61602153 -74.9375 27.0625 C-75.69224609 26.78470703 -76.44699219 26.50691406 -77.22460938 26.22070312 C-82.88671875 24.11328125 -82.88671875 24.11328125 -84 23 C-84.58349008 17.04166864 -84.46857688 12.07898758 -81 7 C-77.82987307 4.10380707 -75.164372 3.41482561 -70.9609375 2.75390625 C-69.75284424 2.55821045 -68.54475098 2.36251465 -67.30004883 2.16088867 C-66.00478271 1.96342041 -64.7095166 1.76595215 -63.375 1.5625 C-62.02940509 1.35022509 -60.68394719 1.13707996 -59.33862305 0.9230957 C-56.58101804 0.4863882 -53.82244747 0.05666292 -51.06298828 -0.36816406 C-47.24490838 -0.95796812 -43.4328407 -1.5814178 -39.62109375 -2.2109375 C-37.35166932 -2.57878464 -35.08214299 -2.94600382 -32.8125 -3.3125 C-31.78237793 -3.48386475 -30.75225586 -3.65522949 -29.69091797 -3.83178711 C-18.77574885 -5.5473852 -9.39884753 -6.60329288 0 0 Z " fill="#E04743" transform="translate(447,177)"/>
<path d="M0 0 C10.70730549 9.08113037 18.13729005 20.2413286 20.2421875 34.3203125 C20.48343635 38.55486466 20.25652085 41.6343827 17.703125 45.11328125 C14.58289823 47.75869091 12.86280416 48.36312175 8.828125 48.55078125 C8.786875 49.78828125 8.745625 51.02578125 8.703125 52.30078125 C7.35171428 63.93387084 -0.24695649 74.03207225 -9.2109375 81.17578125 C-13.85206166 84.28219105 -18.81441057 86.06605758 -24.171875 87.55078125 C-24.97625 87.77765625 -25.780625 88.00453125 -26.609375 88.23828125 C-30.78637629 88.74767165 -34.96977393 88.62421603 -39.171875 88.55078125 C-39.543125 89.69546875 -39.543125 89.69546875 -39.921875 90.86328125 C-41.36324252 93.96222141 -42.15895831 94.96503562 -45.171875 96.55078125 C-50.19077261 97.8239188 -53.39635108 97.70184333 -58.171875 95.55078125 C-58.09996436 108.06323318 -53.93648166 115.21697157 -45.859375 124.49511719 C-44.171875 126.55078125 -44.171875 126.55078125 -42.578125 129.00488281 C-36.64220349 137.72079423 -28.95328369 140.223276 -19.421875 143.67578125 C-17.84359343 144.27281056 -16.26644649 144.87284769 -14.69042969 145.47583008 C-11.59694373 146.65558283 -8.49866101 147.82072029 -5.39453125 148.97216797 C-0.0321554 150.96655283 5.27534456 153.09122592 10.578125 155.23828125 C12.05203067 155.825653 13.5259846 156.41290367 15 157 C18.63492343 158.45964322 22.23396203 159.99362425 25.828125 161.55078125 C25.065 162.25203125 24.301875 162.95328125 23.515625 163.67578125 C19.73530241 167.71984728 17.67116695 171.10360195 17.578125 176.67578125 C17.76470154 179.56771765 18.07332384 181.81158348 18.828125 184.55078125 C4.80583131 181.91524967 -8.83929938 178.24257375 -22.54150391 174.29321289 C-25.29002993 173.50316919 -28.04306523 172.73365908 -30.80224609 171.98168945 C-59.47843126 164.1511331 -59.47843126 164.1511331 -70.65687561 152.99598694 C-73.45265226 150.32900744 -76.54749136 148.02621153 -79.609375 145.67578125 C-85.70304942 140.95209594 -85.70304942 140.95209594 -88.61328125 138.4609375 C-89.29261719 137.89246094 -89.97195313 137.32398438 -90.671875 136.73828125 C-91.2184375 136.25746094 -91.765 135.77664062 -92.328125 135.28125 C-95.30186257 134.1030955 -97.22821282 135.42184838 -100.171875 136.55078125 C-103.17757939 137.9412105 -106.1262963 139.43669843 -109.078125 140.9375 C-110.80823443 141.80215164 -112.5387146 142.66606178 -114.26953125 143.52929688 C-116.97893972 144.88498546 -119.6856192 146.24526955 -122.38623047 147.6184082 C-125.00568601 148.94764509 -127.63451538 150.25651715 -130.265625 151.5625 C-131.06891235 151.97698898 -131.87219971 152.39147797 -132.6998291 152.81852722 C-137.28026601 155.06973886 -140.10728461 156.20263639 -145.171875 154.55078125 C-147.79616014 153.5165733 -150.33511338 152.44288964 -152.89453125 151.26953125 C-153.62931198 150.93969238 -154.36409271 150.60985352 -155.12113953 150.27001953 C-157.49504389 149.203092 -159.86461973 148.12688814 -162.234375 147.05078125 C-164.6718738 145.95319193 -167.11053439 144.85821648 -169.54934692 143.7635498 C-171.16106743 143.04008505 -172.77245851 142.31588593 -174.3835144 141.59094238 C-180.86775863 138.6759245 -187.38035324 135.83525673 -193.921875 133.05078125 C-194.78304932 132.68404297 -195.64422363 132.31730469 -196.53149414 131.93945312 C-198.4106878 131.14102896 -200.2911006 130.34547466 -202.171875 129.55078125 C-200.39446188 123.78840296 -198.35669424 118.4175022 -195.484375 113.11328125 C-195.13914795 112.47076416 -194.7939209 111.82824707 -194.43823242 111.16625977 C-191.27549134 105.44555611 -187.4630831 100.47582049 -183.171875 95.55078125 C-182.39457031 94.57753906 -181.61726563 93.60429687 -180.81640625 92.6015625 C-162.05600871 70.12532027 -129.96885616 61.63707121 -102.171875 58.55078125 C-97.82822 58.24663434 -93.51718146 58.24525189 -89.171875 58.55078125 C-89.40583984 57.47763672 -89.40583984 57.47763672 -89.64453125 56.3828125 C-92.51436763 41.69153091 -90.71776185 27.466708 -82.734375 14.61328125 C-81.56662529 12.91205431 -80.38141794 11.22255228 -79.171875 9.55078125 C-78.429375 8.49890625 -77.686875 7.44703125 -76.921875 6.36328125 C-56.70236303 -14.31576509 -23.25741658 -18.59596987 0 0 Z " fill="#FEDB6D" transform="translate(356.171875,45.44921875)"/>
<path d="M0 0 C1.4299379 -0.0129007 1.4299379 -0.0129007 2.88876343 -0.02606201 C3.9381308 -0.03032196 4.98749817 -0.03458191 6.06866455 -0.03897095 C7.72250656 -0.05123718 7.72250656 -0.05123718 9.40975952 -0.06375122 C13.07112072 -0.08863423 16.73244307 -0.10512867 20.39385986 -0.11953735 C22.26644344 -0.12752287 22.26644344 -0.12752287 24.17685699 -0.13566971 C29.42344196 -0.15690551 34.67002107 -0.17603507 39.91663742 -0.1872921 C47.43180983 -0.2035231 54.94646452 -0.23667785 62.46144176 -0.29369295 C68.38489564 -0.33709802 74.30823428 -0.35304084 80.23184967 -0.35942459 C82.75007054 -0.3661492 85.26828353 -0.38140237 87.78639984 -0.4053154 C91.31057711 -0.43687289 94.83344604 -0.43701704 98.35772705 -0.42959595 C99.91963272 -0.45420395 99.91963272 -0.45420395 101.51309204 -0.47930908 C106.11686098 -0.43960609 109.42867825 -0.3974201 113.10412598 2.56536865 C116.14805091 5.89297217 116.59656353 7.30898386 116.62588501 11.68191528 C116.63448547 12.63520721 116.64308594 13.58849915 116.65194702 14.57067871 C116.65833694 16.14472977 116.65833694 16.14472977 116.66485596 17.75057983 C116.67712219 19.40442184 116.67712219 19.40442184 116.68963623 21.0916748 C116.71451924 24.753036 116.73101368 28.41435836 116.74542236 32.07577515 C116.75074604 33.3241642 116.75606972 34.57255325 116.76155472 35.85877228 C116.78279052 41.10535724 116.80192008 46.35193635 116.81317711 51.5985527 C116.82940811 59.11372511 116.86256286 66.6283798 116.91957796 74.14335704 C116.96298303 80.06681092 116.97892585 85.99014957 116.9853096 91.91376495 C116.99203421 94.43198583 117.00728738 96.95019881 117.03120041 99.46831512 C117.0627579 102.99249239 117.06290204 106.51536133 117.05548096 110.03964233 C117.07188629 111.08091278 117.08829163 112.12218323 117.10519409 113.19500732 C117.0654911 117.79877626 117.02330511 121.11059353 114.06051636 124.78604126 C110.73291284 127.82996619 109.31690115 128.27847881 104.94396973 128.30780029 C103.9906778 128.31640076 103.03738586 128.32500122 102.0552063 128.3338623 C101.00583893 128.33812225 99.95647156 128.3423822 98.87530518 128.34677124 C97.22146317 128.35903748 97.22146317 128.35903748 95.53421021 128.37155151 C91.87284901 128.39643452 88.21152665 128.41292896 84.55010986 128.42733765 C83.30172081 128.43266132 82.05333176 128.437985 80.76711273 128.44347 C75.52052777 128.4647058 70.27394866 128.48383536 65.02733231 128.49509239 C57.5121599 128.51132339 49.99750521 128.54447815 42.48252797 128.60149324 C36.55907409 128.64489831 30.63573544 128.66084113 24.71212006 128.66722488 C22.19389918 128.67394949 19.6756862 128.68920267 17.15756989 128.71311569 C13.63339261 128.74467319 10.11052368 128.74481733 6.58624268 128.73739624 C5.54497223 128.75380157 4.50370178 128.77020691 3.43087769 128.78710938 C-1.17289125 128.74740638 -4.48470852 128.7052204 -8.16015625 125.74243164 C-11.20408118 122.41482812 -11.6525938 120.99881643 -11.68191528 116.62588501 C-11.69481598 115.19594711 -11.69481598 115.19594711 -11.70797729 113.73712158 C-11.71223724 112.68775421 -11.71649719 111.63838684 -11.72088623 110.55722046 C-11.72906372 109.45465912 -11.73724121 108.35209778 -11.7456665 107.21612549 C-11.77054951 103.55476429 -11.78704395 99.89344194 -11.80145264 96.23202515 C-11.80677631 94.98363609 -11.81209999 93.73524704 -11.81758499 92.44902802 C-11.83882079 87.20244305 -11.85795035 81.95586394 -11.86920738 76.70924759 C-11.88543838 69.19407518 -11.91859314 61.67942049 -11.97560823 54.16444325 C-12.0190133 48.24098937 -12.03495612 42.31765073 -12.04133987 36.39403534 C-12.04806449 33.87581447 -12.06331766 31.35760148 -12.08723068 28.83948517 C-12.11878818 25.3153079 -12.11893232 21.79243897 -12.11151123 18.26815796 C-12.12791656 17.22688751 -12.1443219 16.18561707 -12.16122437 15.11279297 C-12.12152137 10.50902403 -12.07933539 7.19720676 -9.11654663 3.52175903 C-5.78894312 0.4778341 -4.37293142 0.02932148 0 0 Z " fill="#FEDB6D" transform="translate(18.52801513671875,97.84609985351563)"/>
<path d="M0 0 C4.49603741 0.50829327 8.40880959 2.35978058 12.484375 4.2109375 C13.20800232 4.53458282 13.93162964 4.85822815 14.67718506 5.19168091 C17.03688753 6.2481782 19.39338548 7.31163505 21.75 8.375 C23.39622425 9.11321056 25.04271095 9.85083613 26.68945312 10.58789062 C29.96755271 12.05528808 33.24478939 13.52458625 36.52148438 14.99511719 C42.16805225 17.52630656 47.83197878 20.0172851 53.5 22.5 C67.39842425 28.60279646 81.27307904 34.75869491 95.13426208 40.94555664 C99.66702532 42.96679346 104.20657027 44.97164901 108.75280762 46.96238708 C111.60230354 48.21223858 114.44750229 49.47166766 117.29193115 50.73300171 C118.62015744 51.31935915 119.95023644 51.90154084 121.2822876 52.47915649 C131.35747652 56.85144778 139.09133581 60.80508207 144 71 C144.89590149 73.90870227 145.12780581 76.51259914 145.13061523 79.54980469 C145.13231216 80.47190735 145.13400909 81.39401001 145.13575745 82.34405518 C145.13091843 83.35973572 145.12607941 84.37541626 145.12109375 85.421875 C145.11822861 86.50797058 145.11536346 87.59406616 145.1124115 88.71307373 C145.03339796 103.26642394 144.61380912 117.81390945 144.20043945 132.36083984 C144.08382478 136.464957 143.97327258 140.56921215 143.86443424 144.67354202 C143.7784203 147.89268629 143.68928603 151.11173858 143.59924126 154.3307724 C143.55725977 155.84393525 143.51618609 157.35712362 143.4761219 158.87033844 C143.41960305 160.98690274 143.35885452 163.10330875 143.29711914 165.21972656 C143.26380997 166.41229065 143.23050079 167.60485474 143.19618225 168.83355713 C142.92639325 174.56323172 142.43993286 180.28087279 142 186 C130.45 186 118.9 186 107 186 C106.90281276 156.64945412 106.81082075 127.33097962 108 98 C107.34878174 97.83636963 106.69756348 97.67273926 106.02661133 97.50415039 C98.71836042 95.5982973 91.73097321 93.15129578 84.6875 90.4375 C82.60843516 89.64358197 80.52901881 88.85058373 78.44921875 88.05859375 C77.54518311 87.71111084 76.64114746 87.36362793 75.7097168 87.00561523 C74.81551025 86.67376221 73.92130371 86.34190918 73 86 C72.20148117 85.65492401 71.40296234 85.30984802 70.58024597 84.95431519 C65.38517104 83.56956706 60.3607618 83.71361816 55.00634766 83.7253418 C53.80222229 83.72023087 52.59809692 83.71511993 51.35748291 83.70985413 C48.06343329 83.69835433 44.76954015 83.69588251 41.47547579 83.69841743 C38.71298861 83.69949128 35.9505243 83.69459228 33.18804204 83.689812 C26.65643106 83.67872473 20.12487756 83.67827246 13.59326172 83.68432617 C6.89394131 83.69034103 0.19483225 83.6781169 -6.50445211 83.6567561 C-12.28313276 83.63901979 -18.06174694 83.63315822 -23.84045374 83.63639385 C-27.27936902 83.63819071 -30.71813416 83.63573469 -34.15702438 83.62167931 C-54.76417327 83.54197848 -54.76417327 83.54197848 -75 87 C-75.79288422 87.19675827 -76.58576843 87.39351654 -77.40267944 87.59623718 C-77.92979523 87.72947891 -78.45691101 87.86272064 -79 88 C-79.0878954 84.64600151 -79.14068879 81.2923036 -79.1875 77.9375 C-79.21263672 76.99455078 -79.23777344 76.05160156 -79.26367188 75.08007812 C-79.34257031 67.53212787 -78.09643344 63.02818163 -73.75 56.75 C-67.30016314 50.30016314 -60.38896626 50.537585 -51.72265625 50.48828125 C-50.5561705 50.47033005 -49.38968475 50.45237885 -48.18785095 50.43388367 C-44.47943688 50.37990621 -40.77115062 50.34592426 -37.0625 50.3125 C-34.54099789 50.27931595 -32.01951262 50.24482529 -29.49804688 50.20898438 C-23.33214588 50.12418677 -17.16622809 50.05578369 -11 50 C-11.21076172 49.32163086 -11.42152344 48.64326172 -11.63867188 47.94433594 C-11.91259766 47.05004883 -12.18652344 46.15576172 -12.46875 45.234375 C-12.74138672 44.34975586 -13.01402344 43.46513672 -13.29492188 42.55371094 C-17.10843705 28.74160266 -7.0722837 13.0736295 -1 1 C-0.67 0.67 -0.34 0.34 0 0 Z " fill="#45464D" transform="translate(154,175)"/>
<path d="M0 0 C0.91136719 0.42796875 1.82273437 0.8559375 2.76171875 1.296875 C25.0459488 12.35766072 41.85626939 32.68608828 50 56 C51.56765072 61.27849687 52.82816443 66.6215752 54 72 C54.29777344 73.33417969 54.29777344 73.33417969 54.6015625 74.6953125 C55.20116547 78.16360421 55.05958173 81.48467819 55 85 C50.71 85 46.42 85 42 85 C41.9175 86.093125 41.835 87.18625 41.75 88.3125 C40.19413869 99.92004427 35.16958608 108.39077412 25.91796875 115.62890625 C23.99328033 116.90064317 22.06380007 117.9722777 20 119 C18.865625 119.598125 17.73125 120.19625 16.5625 120.8125 C7.84942687 123.81462817 -4.42961845 123.42717909 -12.73046875 119.3828125 C-23.47415137 112.8367477 -29.59775799 105.11939548 -33.5546875 93.203125 C-34 91 -34 91 -34 85 C-51.49 85 -68.98 85 -87 85 C-87 78.1193575 -86.84658689 72.63082482 -85.3125 66.125 C-85.13315918 65.34761475 -84.95381836 64.57022949 -84.76904297 63.76928711 C-83.17967757 57.18915091 -80.98571052 51.08458208 -78 45 C-77.54753906 44.06800781 -77.09507813 43.13601563 -76.62890625 42.17578125 C-64.95061895 19.48382462 -44.24130606 4.04840943 -20.3125 -3.8125 C-12.300038 -5.72504351 -7.10988193 -3.76029699 0 0 Z " fill="#E04844" transform="translate(117,317)"/>
<path d="M0 0 C10.70730549 9.08113037 18.13729005 20.2413286 20.2421875 34.3203125 C20.48343635 38.55486466 20.25652085 41.6343827 17.703125 45.11328125 C14.58289823 47.75869091 12.86280416 48.36312175 8.828125 48.55078125 C8.786875 49.78828125 8.745625 51.02578125 8.703125 52.30078125 C7.35171428 63.93387084 -0.24695649 74.03207225 -9.2109375 81.17578125 C-13.85206166 84.28219105 -18.81441057 86.06605758 -24.171875 87.55078125 C-24.97625 87.77765625 -25.780625 88.00453125 -26.609375 88.23828125 C-30.78637629 88.74767165 -34.96977393 88.62421603 -39.171875 88.55078125 C-39.419375 89.31390625 -39.666875 90.07703125 -39.921875 90.86328125 C-41.36324252 93.96222141 -42.15895831 94.96503562 -45.171875 96.55078125 C-51.47634699 98.28994594 -54.99228919 97.28143319 -60.65625 94.13671875 C-64.752658 91.55420066 -68.50500182 88.71046076 -72.171875 85.55078125 C-72.78933594 85.02871094 -73.40679687 84.50664062 -74.04296875 83.96875 C-84.57197654 74.33083864 -90.53699519 59.95973923 -91.203125 45.87109375 C-91.05001894 29.60357497 -85.43967367 15.22715278 -74.171875 3.55078125 C-53.68893363 -14.74494849 -22.03953907 -17.62218959 0 0 Z " fill="#E14844" transform="translate(356.171875,45.44921875)"/>
<path d="M0 0 C8.81614392 7.75064504 13.39516594 18.52152255 14.21875 30.06640625 C14.57235104 42.5455762 11.54026657 54.57957333 3.11328125 64.140625 C-2.19750025 69.10709257 -7.71336666 72.09423802 -15.0625 72.25 C-18.75689227 72.01543541 -22.3409175 71.54468935 -26 71 C-25.77280273 72.05127075 -25.77280273 72.05127075 -25.54101562 73.1237793 C-24.85539921 76.31057711 -24.17762619 79.49899406 -23.5 82.6875 C-23.26152344 83.79029297 -23.02304687 84.89308594 -22.77734375 86.02929688 C-22.43896484 87.6293457 -22.43896484 87.6293457 -22.09375 89.26171875 C-21.88427734 90.24100342 -21.67480469 91.22028809 -21.45898438 92.22924805 C-21.0199519 94.87955633 -20.91444333 97.31993732 -21 100 C-25.30684683 99.29129141 -29.26654041 97.90462281 -33.3359375 96.375 C-34.39866631 95.98032784 -34.39866631 95.98032784 -35.48286438 95.5776825 C-37.78174923 94.72243472 -40.07843454 93.86145452 -42.375 93 C-43.95283896 92.41110192 -45.53072003 91.82231666 -47.10864258 91.23364258 C-59.45753778 86.61729321 -71.74214415 81.85378185 -84 77 C-84 68.09 -84 59.18 -84 50 C-80.37 50.66 -76.74 51.32 -73 52 C-73.495 50.515 -73.495 50.515 -74 49 C-74.54375046 40.70780551 -72.23169055 36.43152041 -67 30 C-68.14339844 29.57847656 -69.28679687 29.15695313 -70.46484375 28.72265625 C-71.95578259 28.16941479 -73.44666511 27.61602153 -74.9375 27.0625 C-75.69224609 26.78470703 -76.44699219 26.50691406 -77.22460938 26.22070312 C-82.88671875 24.11328125 -82.88671875 24.11328125 -84 23 C-84.58349008 17.04166864 -84.46857688 12.07898758 -81 7 C-77.82987307 4.10380707 -75.164372 3.41482561 -70.9609375 2.75390625 C-69.75284424 2.55821045 -68.54475098 2.36251465 -67.30004883 2.16088867 C-66.00478271 1.96342041 -64.7095166 1.76595215 -63.375 1.5625 C-62.02940509 1.35022509 -60.68394719 1.13707996 -59.33862305 0.9230957 C-56.58101804 0.4863882 -53.82244747 0.05666292 -51.06298828 -0.36816406 C-47.24490838 -0.95796812 -43.4328407 -1.5814178 -39.62109375 -2.2109375 C-37.35166932 -2.57878464 -35.08214299 -2.94600382 -32.8125 -3.3125 C-31.78237793 -3.48386475 -30.75225586 -3.65522949 -29.69091797 -3.83178711 C-18.77574885 -5.5473852 -9.39884753 -6.60329288 0 0 Z " fill="#EE464E" transform="translate(447,177)"/>
<path d="M0 0 C12.54 0 25.08 0 38 0 C38.99 3.63 39.98 7.26 41 11 C45.01872396 21.65570748 51.00964303 28.55760523 61 34 C70.53985624 37.9281761 81.45256229 37.29707172 91.0625 33.9375 C99.81704386 30.04659162 105.77308507 24.57124417 110 16 C111.32 10.72 112.64 5.44 114 0 C126.87 0 139.74 0 153 0 C151.33060504 23.37152946 143.86888155 42.88155556 126.046875 58.60546875 C107.84877396 72.82571263 86.88825636 78.07333328 64.12109375 75.57421875 C49.16153522 72.98842019 36.48573211 66.84983323 25 57 C24.27425781 56.38640625 23.54851562 55.7728125 22.80078125 55.140625 C10.38438306 43.7243689 2.33763196 26.53446995 0 10 C0 6.7 0 3.4 0 0 Z " fill="#404049" transform="translate(338,402)"/>
<path d="M0 0 C12.87 0 25.74 0 39 0 C39.99 4.29 40.98 8.58 42 13 C45.61605589 20.41755054 49.24835068 26.2458208 56.375 30.6875 C57.29023437 31.26886719 58.20546875 31.85023438 59.1484375 32.44921875 C68.01137744 37.26920116 78.79424933 37.55317112 88.49609375 35.125 C98.83043155 31.1229125 105.70134481 24.63391853 111 15 C112.32 10.05 113.64 5.1 115 0 C127.54 0 140.08 0 153 0 C153 19.81715969 147.43975056 36.1481931 134 51 C133.32324219 51.76957031 132.64648438 52.53914063 131.94921875 53.33203125 C119.12891379 67.08983566 100.30885423 75.31361285 81.6015625 76.28515625 C60.83697278 76.90552385 39.44432464 70.57160874 23.9921875 56.11328125 C8.50588548 39.68565499 1.73520556 22.55767231 0 0 Z " fill="#404049" transform="translate(44,402)"/>
<path d="M0 0 C1.51460815 0.00833862 1.51460815 0.00833862 3.05981445 0.0168457 C4.09340088 0.02176025 5.1269873 0.0266748 6.19189453 0.03173828 C20.11887561 0.240981 33.00315638 2.0061073 45.55981445 8.3293457 C46.49180664 8.7830957 47.42379883 9.2368457 48.3840332 9.7043457 C70.32909381 20.96764041 85.48335318 40.35091983 93.55981445 63.3293457 C96.45183233 72.90079277 96.55981445 81.12033697 96.55981445 91.3293457 C79.06981445 91.3293457 61.57981445 91.3293457 43.55981445 91.3293457 C43.22981445 94.6293457 42.89981445 97.9293457 42.55981445 101.3293457 C38.59236094 112.20310719 32.48064868 120.10664931 22.20043945 125.5871582 C13.18213482 129.49509021 1.91673457 130.53822364 -7.3972168 127.0012207 C-18.91651567 121.8996018 -24.45772786 115.03283389 -30.05737305 104.12231445 C-31.44018555 100.3293457 -31.44018555 100.3293457 -32.44018555 90.3293457 C-3.07018555 90.3293457 26.29981445 90.3293457 56.55981445 90.3293457 C52.13345815 62.29575578 43.74688711 35.79816866 19.91723633 18.11010742 C10.72851846 11.68570496 0.90864275 6.60386174 -9.44018555 2.3293457 C-6.51312196 -0.59771788 -4.00764939 0.04021743 0 0 Z " fill="#CB423E" transform="translate(408.440185546875,310.670654296875)"/>
<path d="M0 0 C0.91313965 -0.00435059 1.8262793 -0.00870117 2.76708984 -0.01318359 C4.21462646 0.00107666 4.21462646 0.00107666 5.69140625 0.015625 C6.68479004 0.02384277 7.67817383 0.03206055 8.70166016 0.04052734 C34.0674153 0.42529577 54.65417644 10.09476937 72.94140625 27.640625 C89.36376197 44.61039258 98.25390625 67.84590409 98.25390625 91.265625 C85.05390625 91.265625 71.85390625 91.265625 58.25390625 91.265625 C57.71765625 87.800625 57.18140625 84.335625 56.62890625 80.765625 C52.19240428 54.37942712 39.68596953 31.70007372 17.9140625 15.7421875 C9.74181325 10.04925933 0.72508904 5.35825612 -8.74609375 2.265625 C-5.7044875 0.50962816 -3.4993438 0.00965051 0 0 Z " fill="#CB413D" transform="translate(113.74609375,310.734375)"/>
<path d="M0 0 C11.24819067 3.3744572 11.24819067 3.3744572 15.66162109 5.06884766 C16.64899261 5.44578766 17.63636414 5.82272766 18.65365601 6.21109009 C19.6831839 6.60807098 20.71271179 7.00505188 21.7734375 7.4140625 C22.85960358 7.82917084 23.94576965 8.24427917 25.06484985 8.67196655 C28.50286864 9.98627299 31.93907373 11.30523385 35.375 12.625 C38.83252027 13.95144887 42.29043478 15.27683295 45.74942017 16.59945679 C47.89385049 17.41956651 50.03742007 18.24193133 52.18002319 19.06680298 C53.63271103 19.6227565 53.63271103 19.6227565 55.11474609 20.18994141 C55.96394623 20.51620514 56.81314636 20.84246887 57.68807983 21.17861938 C59.77944355 21.92164055 61.8379217 22.50642584 64 23 C65.00228624 27.48286991 65.99903835 31.96692126 66.99072266 36.45214844 C67.32872816 37.97722408 67.66823313 39.5019682 68.00927734 41.02636719 C68.49973536 43.21984413 68.98475649 45.41446382 69.46875 47.609375 C69.62186646 48.2886908 69.77498291 48.96800659 69.93273926 49.66790771 C70.64025097 52.90072174 71 55.66450614 71 59 C70.40791748 58.93143799 69.81583496 58.86287598 69.20581055 58.79223633 C45.34178008 56.1959451 24.70846646 58.6021033 3.7421875 71.08203125 C2 72 2 72 0 72 C0 48.24 0 24.48 0 0 Z " fill="#F6514A" transform="translate(363,254)"/>
<path d="M0 0 C16 0 16 0 22 5 C23.19253943 7.38507886 23.1360452 8.86517378 23.15390015 11.52801514 C23.16250061 12.48130707 23.17110107 13.434599 23.17996216 14.41677856 C23.18422211 15.46614594 23.18848206 16.51551331 23.19287109 17.59667969 C23.20104858 18.69924103 23.20922607 19.80180237 23.21765137 20.93777466 C23.24253437 24.59913585 23.25902881 28.26045821 23.2734375 31.921875 C23.27876118 33.17026405 23.28408485 34.41865311 23.28956985 35.70487213 C23.31080566 40.9514571 23.32993521 46.19803621 23.34119225 51.44465256 C23.35742325 58.95982496 23.390578 66.47447965 23.44759309 73.98945689 C23.49099817 79.91291078 23.50694099 85.83624942 23.51332474 91.75986481 C23.52004935 94.27808568 23.53530252 96.79629867 23.55921555 99.31441498 C23.59077304 102.83859225 23.59091718 106.36146118 23.58349609 109.88574219 C23.59990143 110.92701263 23.61630676 111.96828308 23.63320923 113.04110718 C23.59350623 117.64487611 23.55132025 120.95669338 20.58853149 124.63214111 C13.77872296 130.86141269 13.08429085 128 0 128 C0 85.76 0 43.52 0 0 Z " fill="#FFCA29" transform="translate(112,98)"/>
<path d="M0 0 C24.75 0 49.5 0 75 0 C73.81109267 11.88907327 70.87502473 20.45739405 62.22265625 28.69140625 C52.87591099 36.31789164 41.92620674 38.5192969 30.12353516 37.36523438 C22.1333128 35.99096757 13.87734765 31.24866711 8.53125 25.20703125 C2.70077779 16.80341697 0 10.50282911 0 0 Z " fill="#EEEEFA" transform="translate(377,402)"/>
<path d="M0 0 C24.75 0 49.5 0 75 0 C75 11.57673358 72.43371423 18.50523948 64.36328125 26.83984375 C61.12674525 29.79819815 57.91836304 32.04875039 54 34 C52.865625 34.598125 51.73125 35.19625 50.5625 35.8125 C41.84942687 38.81462817 29.57038155 38.42717909 21.26953125 34.3828125 C10.52584863 27.8367477 4.40224201 20.11939548 0.4453125 8.203125 C0 6 0 6 0 0 Z " fill="#EEEEFA" transform="translate(83,402)"/>
<path d="M0 0 C12.54 0 25.08 0 38 0 C38.09186037 7.02986961 38.17149334 14.05765474 38.21972656 21.08764648 C38.23983418 23.47866881 38.2671243 25.86964201 38.30175781 28.26049805 C38.35031151 31.69852831 38.37297774 35.13590804 38.390625 38.57421875 C38.41127014 39.64210129 38.43191528 40.70998383 38.45318604 41.81022644 C38.4545124 46.20327093 38.39718839 49.21120375 36.40136719 53.17480469 C33.1953113 55.61161577 31.19527834 55.63130708 27.1875 55.62890625 C26.53676514 55.63131821 25.88603027 55.63373016 25.21557617 55.63621521 C23.84385058 55.63523852 22.47208472 55.62188652 21.10058594 55.59692383 C19.00579409 55.56259495 16.9152204 55.57626939 14.8203125 55.59570312 C13.48435712 55.58880427 12.14841259 55.57913149 10.8125 55.56640625 C8.99685547 55.55009155 8.99685547 55.55009155 7.14453125 55.53344727 C3.34206913 54.88838673 2.37908212 53.97103862 0 51 C-0.48101807 48.58282471 -0.48101807 48.58282471 -0.45410156 45.86425781 C-0.45379944 44.84350159 -0.45349731 43.82274536 -0.45318604 42.77105713 C-0.43254089 41.67613953 -0.41189575 40.58122192 -0.390625 39.453125 C-0.38496521 38.3267865 -0.37930542 37.200448 -0.37347412 36.03997803 C-0.35108545 32.44288618 -0.30088213 28.84679074 -0.25 25.25 C-0.22993833 22.8112123 -0.21168698 20.37240899 -0.1953125 17.93359375 C-0.15461436 11.95503656 -0.07632298 5.9786334 0 0 Z " fill="#F7524B" transform="translate(52,98)"/>
<path d="M0 0 C9.58604257 0 13.1440984 0.47700891 19.65234375 6.5390625 C28.63871895 16.18855444 31.5002349 27.87782285 31.24609375 40.734375 C30.4215376 51.67610418 26.14594298 62.58197555 17.9375 70.0625 C11.53434465 75.11253573 8.78494049 75 0 75 C0 50.25 0 25.5 0 0 Z " fill="#FED96D" transform="translate(430,173)"/>
<path d="M0 0 C0.35191406 0.90621094 0.70382812 1.81242187 1.06640625 2.74609375 C5.62498043 13.99375067 12.21010626 26.3928348 23.7980957 31.84619141 C25.70703125 32.74609375 25.70703125 32.74609375 29 35 C29.72511213 37.80170986 30.03541594 39.92098133 30.1875 42.75 C31.29178577 52.54062937 35.95600902 58.71977611 42.32861328 65.9765625 C44 68 44 68 45.58935547 70.4453125 C51.52875712 79.16721084 59.21241185 81.6702564 68.75 85.125 C70.32828157 85.72202931 71.90542851 86.32206644 73.48144531 86.92504883 C76.57493127 88.10480158 79.67321399 89.26993904 82.77734375 90.42138672 C88.1397196 92.41577158 93.44721956 94.54044467 98.75 96.6875 C100.22390567 97.27487175 101.6978596 97.86212242 103.171875 98.44921875 C106.80679843 99.90886197 110.40583703 101.442843 114 103 C110.78005171 106.58794238 108.86830349 108.62813084 104 109 C100.97094727 108.20239258 100.97094727 108.20239258 97.56640625 106.89453125 C96.94401062 106.6592572 96.32161499 106.42398315 95.68035889 106.18157959 C93.63591565 105.40466971 91.59924033 104.60936408 89.5625 103.8125 C88.14179639 103.26547677 86.72081249 102.71918097 85.29956055 102.17358398 C82.3493523 101.03757106 79.40294196 99.89234527 76.45898438 98.74023438 C72.81285752 97.31386987 69.15881248 95.90937843 65.5014801 94.51203918 C62.75575874 93.45983387 60.01509652 92.39495031 57.27584839 91.32601929 C55.97655317 90.82074118 54.67572134 90.31939512 53.37332153 89.82217407 C51.55246586 89.12485952 49.73894383 88.40848674 47.92578125 87.69140625 C46.89880127 87.29123291 45.87182129 86.89105957 44.8137207 86.47875977 C38.69291116 83.26194906 34.88285298 77.43315807 30.8203125 72.00756836 C28.90630533 69.46161128 27.00743934 67.00821598 24.8671875 64.64453125 C18.28596899 57.30605956 17.8382073 48.56374603 18 39 C17.41734375 38.731875 16.8346875 38.46375 16.234375 38.1875 C5.61362022 32.54290305 -2.69412819 20.99568123 -7 10 C-7.35014275 8.33678356 -7.68567187 6.67035527 -8 5 C-23.71244012 6.30490117 -38.80927718 7.79360096 -53.94335938 12.41455078 C-57.58778217 13.45198263 -61.2927061 14.22306421 -65 15 C-61.61542426 12.12694704 -57.93059828 10.58416681 -53.8125 9.0625 C-53.1127002 8.80307617 -52.41290039 8.54365234 -51.69189453 8.27636719 C-35.03810124 2.2992219 -17.67787417 -0.48358926 0 0 Z " fill="#FECA2A" transform="translate(268,104)"/>
<path d="M0 0 C7.29561453 -0.10155026 14.59104629 -0.17152891 21.88720703 -0.21972656 C24.36839611 -0.23982241 26.84953795 -0.26710384 29.33056641 -0.30175781 C32.90018382 -0.35036294 36.46917416 -0.37298972 40.0390625 -0.390625 C41.14553131 -0.41127014 42.25200012 -0.43191528 43.39199829 -0.45318604 C49.58541622 -0.45498416 53.33417351 -0.22647777 58 4 C61.4345749 8.60956105 62.6654071 12.09485832 62.390625 17.85546875 C61.60158007 22.18732539 59.17565501 24.93456265 56 27.8125 C49.86879275 31.45290431 41.67167199 30.29983264 34.75683594 30.35009766 C33.09263091 30.36662949 31.42849607 30.39388329 29.76464844 30.43212891 C12.73981191 30.82074665 12.73981191 30.82074665 6 25 C5.21625 24.360625 4.4325 23.72125 3.625 23.0625 C-0.13643 18.2883773 -0.27247825 12.97875226 -0.125 7.125 C-0.11146484 6.09246094 -0.11146484 6.09246094 -0.09765625 5.0390625 C-0.07432513 3.35922162 -0.03846326 1.67956254 0 0 Z " fill="#FEC72A" transform="translate(261,361)"/>
<path d="M0 0 C1.33879539 0.31066992 2.67457387 0.63649694 4 1 C3.6126986 12.61904191 -1.77495005 21.59396962 -9.7109375 29.875 C-15.43948563 35.1929696 -21.52095817 37.9273198 -29 40 C-30.2065625 40.3403125 -30.2065625 40.3403125 -31.4375 40.6875 C-35.61450129 41.1968904 -39.79789893 41.07343478 -44 41 C-43.61647453 31.71464648 -43.19065265 22.42973277 -42.1875 13.1875 C-42.05730469 11.94355469 -41.92710937 10.69960937 -41.79296875 9.41796875 C-37.62592547 -8.5434247 -13.75200011 -1.78958342 0 0 Z " fill="#F5DACB" transform="translate(361,93)"/>
<path d="M0 0 C9.73989464 0.34957543 19.02081811 1.18261203 28.5859375 3.1953125 C31.97720855 3.86912746 35.34878032 4.27506619 38.7890625 4.6171875 C39.78591064 4.72369629 40.78275879 4.83020508 41.80981445 4.93994141 C43.77973734 5.14335649 45.7525254 5.32101959 47.72729492 5.47021484 C50.32286128 5.75110522 52.55771601 6.07630258 55 7 C56.80245004 9.71071588 57.35208763 10.96346246 58 14 C58.19231201 14.74958984 58.38462402 15.49917969 58.58276367 16.27148438 C59.17998242 18.7131797 59.69270227 21.16063774 60.1875 23.625 C60.36474609 24.45773437 60.54199219 25.29046875 60.72460938 26.1484375 C61.54998121 30.15101288 62.24329974 33.88907333 62 38 C57.66623973 37.28999877 53.68607079 35.88285848 49.59375 34.33984375 C48.879841 34.07404007 48.16593201 33.80823639 47.4303894 33.53437805 C45.1188193 32.67255261 42.80935786 31.80523409 40.5 30.9375 C38.91626263 30.34515231 37.33244071 29.75303063 35.74853516 29.16113281 C31.86777867 27.7095316 27.98894729 26.25287058 24.11096191 24.79388428 C22.18084156 24.06801036 20.25011954 23.34373679 18.31933594 22.61962891 C15.33642365 21.50025605 12.35515934 20.37667831 9.375 19.25 C8.51841797 18.92765381 7.66183594 18.60530762 6.77929688 18.27319336 C1.11802175 16.11802175 1.11802175 16.11802175 0 15 C-0.07313567 12.46950598 -0.09247527 9.96695163 -0.0625 7.4375 C-0.05798828 6.72658203 -0.05347656 6.01566406 -0.04882812 5.28320312 C-0.03700864 3.52209987 -0.01907263 1.76103964 0 0 Z " fill="#CC413D" transform="translate(364,239)"/>
<path d="M0 0 C11.49447332 9.19065446 19.62650354 20.80493248 21.83789062 35.59619141 C22.07694413 39.79220954 21.85350261 42.9149699 19.36132812 46.38916016 C15.9133478 49.25025021 13.7923956 49.36870668 9.42382812 49.82666016 C9.33746094 48.81087891 9.25109375 47.79509766 9.16210938 46.74853516 C7.54655201 30.08695671 1.85519628 17.68953675 -11.06445312 6.67822266 C-23.49744418 -2.48699937 -37.64571199 -5.84103854 -52.84570312 -3.71630859 C-55.43746605 -3.25385025 -58.00764208 -2.74984353 -60.57617188 -2.17333984 C-58.13981044 -5.02526795 -55.77561757 -6.06454426 -52.26367188 -7.29833984 C-50.87728516 -7.79720703 -50.87728516 -7.79720703 -49.46289062 -8.30615234 C-33.11205069 -13.21804201 -13.74682175 -10.23346117 0 0 Z " fill="#CC413D" transform="translate(354.576171875,44.17333984375)"/>
<path d="M0 0 C3.81923882 1.93441966 6.387132 4.37791181 8.33203125 8.29296875 C10.07205305 13.71895388 9.82416859 18.62360177 7.3671875 23.7265625 C3.24288091 28.28500663 -0.757481 31.01963928 -6.921875 31.515625 C-12.11277325 31.1073521 -15.9417489 28.47229603 -19.4453125 24.7890625 C-22.21346965 20.47073734 -22.52228822 16.36293706 -22.0078125 11.3515625 C-18.61183662 1.72963085 -9.85551839 -3.18291061 0 0 Z " fill="#48474E" transform="translate(395.0078125,206.6484375)"/>
<path d="M0 0 C8.91 0 17.82 0 27 0 C27 9.57 27 19.14 27 29 C23.473125 29.12375 23.473125 29.12375 19.875 29.25 C19.14651855 29.28641602 18.41803711 29.32283203 17.66748047 29.36035156 C11.48339803 29.4643421 8.31167652 26.9263971 3.75 23.125 C-0.15788658 18.37970915 -0.27260506 13.03050883 -0.125 7.125 C-0.08375 4.77375 -0.0425 2.4225 0 0 Z " fill="#FEDA6C" transform="translate(261,361)"/>
<path d="M0 0 C-0.99 0.33 -1.98 0.66 -3 1 C-2.67 1.66 -2.34 2.32 -2 3 C-18.70842825 7.22323462 -18.70842825 7.22323462 -27 9 C-23.3811257 5.84411484 -19.38689344 4.46893212 -14.9375 2.875 C-14.21755859 2.61074219 -13.49761719 2.34648438 -12.75585938 2.07421875 C-3.833722 -1.18977579 -3.833722 -1.18977579 0 0 Z " fill="#FFD03C" transform="translate(230,110)"/>
</svg>
