<?xml version="1.0" encoding="UTF-8"?>
<svg version="1.1" xmlns="http://www.w3.org/2000/svg" width="512" height="512">
<path d="M0 0 C10.0790798 4.55121239 14.47042317 15.39384307 19.265625 24.66015625 C20.32400693 26.68070079 21.38567001 28.69949726 22.44761658 30.71817017 C23.14918123 32.05210072 23.84976078 33.38654985 24.54933167 34.7215271 C28.17775609 41.63798969 31.97118504 48.45850659 35.79296875 55.26953125 C36.73095342 56.94556736 37.65668236 58.62977097 38.515625 60.34765625 C42.80781887 59.85539257 46.10926263 58.14675967 49.89575195 56.21166992 C71.30730547 45.31477333 94.79814601 38.06929219 118.515625 34.34765625 C119.67336426 34.16436768 120.83110352 33.9810791 122.02392578 33.79223633 C133.23480018 32.19745795 144.32919396 31.98901937 155.640625 32.03515625 C157.06710358 32.03838898 157.06710358 32.03838898 158.5223999 32.04168701 C172.38697075 32.09211847 185.9113545 32.43912128 199.515625 35.34765625 C200.50046875 35.55165039 201.4853125 35.75564453 202.5 35.96582031 C257.36574937 47.57073713 308.77602096 76.74527132 343.515625 121.34765625 C344.66224609 122.75144531 344.66224609 122.75144531 345.83203125 124.18359375 C368.61381421 152.63339655 383.74117998 186.87496837 391.515625 222.34765625 C391.72880371 223.32009277 391.94198242 224.2925293 392.16162109 225.29443359 C398.07073695 253.80908067 398.46669904 286.81153047 392.515625 315.34765625 C392.34401855 316.22856934 392.17241211 317.10948242 391.99560547 318.01708984 C381.21799641 372.84901866 350.82009912 424.84008697 306.515625 459.34765625 C305.57976562 460.11207031 304.64390625 460.87648438 303.6796875 461.6640625 C266.17728108 491.6949098 216.24118623 511.29140001 167.90625 511.55078125 C167.02517075 511.55779556 166.14409149 511.56480988 165.23631287 511.57203674 C162.41269752 511.58942493 159.5892919 511.59588792 156.765625 511.59765625 C155.80065094 511.59833099 154.83567688 511.59900574 153.84146118 511.59970093 C139.84595061 511.584135 126.26246556 511.19537484 112.515625 508.34765625 C111.63326172 508.1760498 110.75089844 508.00444336 109.84179688 507.82763672 C55.024353 497.05098182 3.0047664 466.655328 -31.484375 422.34765625 C-32.27199219 421.37699219 -33.05960937 420.40632813 -33.87109375 419.40625 C-63.84617695 381.80799023 -83.42783066 332.07064817 -83.6875 283.73828125 C-83.69455963 282.85733795 -83.70161926 281.97639465 -83.70889282 281.0687561 C-83.87741172 253.87674996 -81.2645025 229.73271299 -74.484375 203.34765625 C-74.14991851 202.01460421 -73.81615952 200.68137583 -73.484375 199.34765625 C-74.54180908 199.3336377 -74.54180908 199.3336377 -75.62060547 199.31933594 C-78.86752652 199.26508763 -82.11308988 199.18154901 -85.359375 199.09765625 C-86.46796875 199.08347656 -87.5765625 199.06929687 -88.71875 199.0546875 C-96.52226984 198.82517221 -104.42688395 198.06523672 -110.42529297 192.56933594 C-115.96315211 186.45392995 -117.13783565 181.40698787 -116.96875 173.1640625 C-116.11029487 166.40026685 -112.86113073 161.12133531 -109.484375 155.34765625 C-108.5376511 153.67861958 -107.59383856 152.00792944 -106.65234375 150.3359375 C-105.04547177 147.48541145 -103.43548888 144.63693401 -101.81445312 141.79443359 C-97.34396572 133.94323502 -93.04367583 126.00851979 -88.796875 118.03515625 C-84.00305147 109.04009221 -79.15891849 100.07969618 -74.18359375 91.18359375 C-71.06159954 85.60115651 -67.97463581 79.99940888 -64.88656616 74.39816284 C-63.85741952 72.53160962 -62.82781275 70.66531087 -61.7980957 68.79907227 C-58.3007674 62.45978963 -54.80761006 56.11824376 -51.3203125 49.7734375 C-48.00416568 43.74029182 -44.6730967 37.71555834 -41.33447266 31.69482422 C-39.5645482 28.49270435 -37.81096712 25.28205955 -36.05859375 22.0703125 C-35.01387553 20.18312035 -33.96835544 18.29637179 -32.921875 16.41015625 C-32.46973633 15.57033203 -32.01759766 14.73050781 -31.55175781 13.86523438 C-24.57994439 1.42624131 -14.32607407 -3.76172071 0 0 Z " fill="#030302" transform="translate(116.484375,0.65234375)"/>
<path d="M0 0 C10.0790798 4.55121239 14.47042317 15.39384307 19.265625 24.66015625 C20.32400693 26.68070079 21.38567001 28.69949726 22.44761658 30.71817017 C23.14918123 32.05210072 23.84976078 33.38654985 24.54933167 34.7215271 C28.17775609 41.63798969 31.97118504 48.45850659 35.79296875 55.26953125 C36.73095342 56.94556736 37.65668236 58.62977097 38.515625 60.34765625 C42.80781887 59.85539257 46.10926263 58.14675967 49.89575195 56.21166992 C71.30730547 45.31477333 94.79814601 38.06929219 118.515625 34.34765625 C119.67336426 34.16436768 120.83110352 33.9810791 122.02392578 33.79223633 C133.23480018 32.19745795 144.32919396 31.98901937 155.640625 32.03515625 C157.06710358 32.03838898 157.06710358 32.03838898 158.5223999 32.04168701 C172.38697075 32.09211847 185.9113545 32.43912128 199.515625 35.34765625 C200.50046875 35.55165039 201.4853125 35.75564453 202.5 35.96582031 C257.36574937 47.57073713 308.77602096 76.74527132 343.515625 121.34765625 C344.66224609 122.75144531 344.66224609 122.75144531 345.83203125 124.18359375 C368.61381421 152.63339655 383.74117998 186.87496837 391.515625 222.34765625 C391.72880371 223.32009277 391.94198242 224.2925293 392.16162109 225.29443359 C398.07073695 253.80908067 398.46669904 286.81153047 392.515625 315.34765625 C392.34401855 316.22856934 392.17241211 317.10948242 391.99560547 318.01708984 C381.21799641 372.84901866 350.82009912 424.84008697 306.515625 459.34765625 C305.57976562 460.11207031 304.64390625 460.87648438 303.6796875 461.6640625 C266.17728108 491.6949098 216.24118623 511.29140001 167.90625 511.55078125 C167.02517075 511.55779556 166.14409149 511.56480988 165.23631287 511.57203674 C162.41269752 511.58942493 159.5892919 511.59588792 156.765625 511.59765625 C155.80065094 511.59833099 154.83567688 511.59900574 153.84146118 511.59970093 C139.84595061 511.584135 126.26246556 511.19537484 112.515625 508.34765625 C111.63326172 508.1760498 110.75089844 508.00444336 109.84179688 507.82763672 C55.024353 497.05098182 3.0047664 466.655328 -31.484375 422.34765625 C-32.27199219 421.37699219 -33.05960937 420.40632813 -33.87109375 419.40625 C-63.84617695 381.80799023 -83.42783066 332.07064817 -83.6875 283.73828125 C-83.69455963 282.85733795 -83.70161926 281.97639465 -83.70889282 281.0687561 C-83.87741172 253.87674996 -81.2645025 229.73271299 -74.484375 203.34765625 C-74.14991851 202.01460421 -73.81615952 200.68137583 -73.484375 199.34765625 C-74.54180908 199.3336377 -74.54180908 199.3336377 -75.62060547 199.31933594 C-78.86752652 199.26508763 -82.11308988 199.18154901 -85.359375 199.09765625 C-86.46796875 199.08347656 -87.5765625 199.06929687 -88.71875 199.0546875 C-96.52226984 198.82517221 -104.42688395 198.06523672 -110.42529297 192.56933594 C-115.96315211 186.45392995 -117.13783565 181.40698787 -116.96875 173.1640625 C-116.11029487 166.40026685 -112.86113073 161.12133531 -109.484375 155.34765625 C-108.5376511 153.67861958 -107.59383856 152.00792944 -106.65234375 150.3359375 C-105.04547177 147.48541145 -103.43548888 144.63693401 -101.81445312 141.79443359 C-97.34396572 133.94323502 -93.04367583 126.00851979 -88.796875 118.03515625 C-84.00305147 109.04009221 -79.15891849 100.07969618 -74.18359375 91.18359375 C-71.06159954 85.60115651 -67.97463581 79.99940888 -64.88656616 74.39816284 C-63.85741952 72.53160962 -62.82781275 70.66531087 -61.7980957 68.79907227 C-58.3007674 62.45978963 -54.80761006 56.11824376 -51.3203125 49.7734375 C-48.00416568 43.74029182 -44.6730967 37.71555834 -41.33447266 31.69482422 C-39.5645482 28.49270435 -37.81096712 25.28205955 -36.05859375 22.0703125 C-35.01387553 20.18312035 -33.96835544 18.29637179 -32.921875 16.41015625 C-32.46973633 15.57033203 -32.01759766 14.73050781 -31.55175781 13.86523438 C-24.57994439 1.42624131 -14.32607407 -3.76172071 0 0 Z M112.515625 86.34765625 C111.68160156 86.56196289 110.84757813 86.77626953 109.98828125 86.99707031 C93.83086506 91.22086975 78.24450945 97.47205737 63.515625 105.34765625 C64.10992613 109.18079129 65.23952766 112.06156772 67.10546875 115.453125 C67.6375293 116.42765625 68.16958984 117.4021875 68.71777344 118.40625 C69.29043945 119.43878906 69.86310547 120.47132812 70.453125 121.53515625 C71.0399707 122.60507813 71.62681641 123.675 72.23144531 124.77734375 C73.98586171 127.97135467 75.74951262 131.16010087 77.515625 134.34765625 C78.4389076 136.02077511 79.36209472 137.69394667 80.28515625 139.3671875 C83.52708136 145.22995048 86.79297009 151.07861803 90.09765625 156.90625 C90.5143457 157.64230469 90.93103516 158.37835938 91.36035156 159.13671875 C92.15013658 160.53008445 92.94231157 161.92209923 93.73730469 163.3125 C96.80867056 168.72758033 98.29644514 173.09025043 97.515625 179.34765625 C95.76381769 185.06959209 93.26764017 189.5902489 88.515625 193.34765625 C82.74560826 196.39091939 78.00281436 196.79022035 71.54125977 196.7800293 C70.0766909 196.79531677 70.0766909 196.79531677 68.58253479 196.81091309 C65.37397466 196.84096694 62.16571347 196.85029755 58.95703125 196.859375 C56.72500116 196.87622729 54.49298052 196.89437827 52.26097107 196.91377258 C46.4002681 196.9612187 40.5396035 196.99106308 34.67877197 197.01721191 C28.69267198 197.04704449 22.70670407 197.09356561 16.72070312 197.13867188 C4.98574625 197.2246438 -6.74923785 197.2920164 -18.484375 197.34765625 C-19.13242365 198.62936112 -19.77883336 199.91189476 -20.42454529 201.19477844 C-20.7846894 201.9089005 -21.14483351 202.62302256 -21.51589108 203.35878468 C-22.5477512 205.47780516 -23.37446663 207.58026531 -24.08203125 209.828125 C-24.32469727 210.59302246 -24.56736328 211.35791992 -24.81738281 212.14599609 C-25.05811523 212.93441895 -25.29884766 213.7228418 -25.546875 214.53515625 C-25.80436523 215.36740723 -26.06185547 216.1996582 -26.32714844 217.05712891 C-31.58643001 234.31810437 -33.90048412 251.04937274 -33.859375 269.03515625 C-33.85916351 269.88982483 -33.85895203 270.74449341 -33.85873413 271.62506104 C-33.80763186 292.39874132 -31.56287823 312.69675055 -24.484375 332.34765625 C-24.06696045 333.50974609 -24.06696045 333.50974609 -23.64111328 334.6953125 C-10.97844528 369.26597128 10.14594984 399.83457192 39.515625 422.34765625 C40.09070801 422.79334961 40.66579102 423.23904297 41.25830078 423.69824219 C72.6937529 447.81061583 111.63819956 461.80655043 151.2800293 461.60839844 C153.81388518 461.59771628 156.34702541 461.60833255 158.88085938 461.62109375 C210.35672336 461.66712284 256.8197298 439.66521263 293.03808594 403.84179688 C327.4972442 369.18086084 345.64464203 321.29304898 345.75585938 272.84399414 C345.76551387 270.31427463 345.79660747 267.78538768 345.828125 265.25585938 C345.92599223 250.33169761 344.02598237 236.03572762 339.703125 221.72265625 C339.44160645 220.84206543 339.18008789 219.96147461 338.91064453 219.05419922 C338.13247 216.47851161 337.3309712 213.91179369 336.515625 211.34765625 C336.29567871 210.64962891 336.07573242 209.95160156 335.84912109 209.23242188 C324.69219237 174.70520597 301.12484133 143.38091004 272.515625 121.34765625 C272.0004834 120.95078613 271.4853418 120.55391602 270.95458984 120.14501953 C256.7488476 109.31566477 241.09920665 100.92676967 224.515625 94.34765625 C223.84740723 94.07969238 223.17918945 93.81172852 222.49072266 93.53564453 C211.10179124 89.0392282 199.58168593 86.33560184 187.515625 84.34765625 C186.5054834 84.16960449 185.4953418 83.99155273 184.45458984 83.80810547 C174.45724477 82.18467939 164.61679773 81.94855861 154.515625 81.97265625 C153.22620499 81.97347198 153.22620499 81.97347198 151.91073608 81.9743042 C138.41298246 82.01350767 125.61000437 82.83908886 112.515625 86.34765625 Z " fill="#010101" transform="translate(116.484375,0.65234375)"/>
<path d="M0 0 C1.18059494 -0.0146228 1.18059494 -0.0146228 2.38504028 -0.02954102 C26.84247544 -0.2695816 50.54542663 0.86281729 73.796875 9.23828125 C74.57160156 9.51655762 75.34632813 9.79483398 76.14453125 10.08154297 C110.71519003 22.74421097 141.28379067 43.86860609 163.796875 73.23828125 C164.24256836 73.81336426 164.68826172 74.38844727 165.14746094 74.98095703 C189.41923965 106.62422654 203.29445952 145.38388482 203.00268555 185.27734375 C202.98435585 187.86598557 202.9821772 190.45426849 202.98242188 193.04296875 C202.88042688 244.28316663 181.19504689 290.82930252 145.24267578 326.79296875 C119.48929601 352.08890301 87.13955222 368.01666828 52.171875 376.11328125 C51.29635986 376.31655029 50.42084473 376.51981934 49.51879883 376.72924805 C37.84686572 379.2859783 26.19003784 379.45120584 14.29321289 379.47851562 C11.76349338 379.48817012 9.23460643 379.51926372 6.70507812 379.55078125 C-8.21908364 379.64864848 -22.51505363 377.74863862 -36.828125 373.42578125 C-37.70871582 373.1642627 -38.58930664 372.90274414 -39.49658203 372.63330078 C-42.07226964 371.85512625 -44.63898756 371.05362745 -47.203125 370.23828125 C-47.90115234 370.01833496 -48.59917969 369.79838867 -49.31835938 369.57177734 C-95.27900604 354.72031465 -134.39270399 318.89538576 -156.32617188 276.32324219 C-163.95008807 261.01419587 -169.61741809 244.95768206 -173.203125 228.23828125 C-173.36683594 227.49900391 -173.53054687 226.75972656 -173.69921875 225.99804688 C-178.97422427 200.95266944 -178.89385553 170.94442324 -172.203125 146.23828125 C-171.96754883 145.35640137 -171.73197266 144.47452148 -171.48925781 143.56591797 C-164.71871551 118.75387176 -164.71871551 118.75387176 -161.203125 115.23828125 C-158.14591798 115.13418146 -155.11055866 115.09467314 -152.05273438 115.09643555 C-151.09168793 115.09296112 -150.13064148 115.08948669 -149.14047241 115.08590698 C-147.04461755 115.07853345 -144.94875479 115.07319663 -142.85289001 115.06961632 C-139.5317854 115.06246752 -136.21082999 115.04681053 -132.88977051 115.02827454 C-123.44378778 114.97574705 -113.99788326 114.92786917 -104.55175781 114.91235352 C-98.7797606 114.90224966 -93.00813322 114.87285658 -87.23628235 114.83103371 C-85.03879092 114.81874564 -82.84124718 114.81359842 -80.64372253 114.81583214 C-77.55830755 114.81819532 -74.47394432 114.79593814 -71.38867188 114.76831055 C-70.03695389 114.77821266 -70.03695389 114.77821266 -68.65792847 114.78831482 C-62.53940891 114.69881606 -57.44308829 113.51325831 -52.203125 110.23828125 C-47.00941014 104.86292679 -44.89829185 98.82532581 -44.98608398 91.34594727 C-45.33785552 87.92992516 -46.77266771 85.1405298 -48.390625 82.17578125 C-48.74229736 81.50224609 -49.09396973 80.82871094 -49.45629883 80.13476562 C-53.69433874 72.11631873 -58.23953921 64.25949297 -62.7265625 56.37890625 C-66.37998864 49.94637818 -69.96664526 43.47896541 -73.515625 36.98828125 C-74.36966919 35.44333984 -74.36966919 35.44333984 -75.2409668 33.8671875 C-75.76086182 32.91199219 -76.28075684 31.95679687 -76.81640625 30.97265625 C-77.27829346 30.12928711 -77.74018066 29.28591797 -78.21606445 28.41699219 C-79.203125 26.23828125 -79.203125 26.23828125 -79.203125 23.23828125 C-58.37906788 12.58961568 -37.30381412 5.06375537 -14.203125 1.23828125 C-13.29739746 1.06393555 -12.39166992 0.88958984 -11.45849609 0.70996094 C-7.63154163 0.15546296 -3.85863768 0.03951057 0 0 Z M5.796875 59.23828125 C4.72158102 62.4641632 4.80266126 65.05466362 4.94151306 68.42030334 C5.08413263 71.94782638 5.12429822 75.47523502 5.1730957 79.00512695 C5.21369124 80.85715686 5.28107445 82.70880817 5.3762207 84.55883789 C6.11108098 99.57175122 6.11108098 99.57175122 2.24517822 104.0262146 C-1.58720761 107.13797409 -5.81111577 109.21593741 -10.28160095 111.2520752 C-14.09457563 113.20905238 -16.98606419 116.23854826 -20.05078125 119.17578125 C-22.0081357 121.05143125 -24.03071405 122.72766378 -26.140625 124.42578125 C-38.52334736 135.28562848 -48.09814174 151.10854012 -54.203125 166.23828125 C-56.62013915 163.8382286 -59.02036637 161.43300226 -61.3515625 158.94921875 C-72.07483695 147.69918696 -89.41235654 132.14544556 -105.765625 131.55078125 C-112.8262418 132.23673732 -118.22220501 135.25736126 -123.203125 140.23828125 C-127.05179065 145.95269155 -127.76180744 150.97321413 -127.515625 157.73828125 C-127.48698364 159.06400146 -127.48698364 159.06400146 -127.45776367 160.41650391 C-127.41338919 162.20406931 -127.35863982 163.99141055 -127.29296875 165.77832031 C-127.21673031 167.86576207 -127.17493386 169.95441702 -127.140625 172.04296875 C-126.64409196 186.2251938 -123.67485489 200.29309441 -121.203125 214.23828125 C-121.87424316 214.21362793 -122.54536133 214.18897461 -123.23681641 214.16357422 C-124.12546387 214.14439941 -125.01411133 214.12522461 -125.9296875 214.10546875 C-126.80705566 214.08081543 -127.68442383 214.05616211 -128.58837891 214.03076172 C-134.14010659 214.47137503 -137.72049903 217.66348493 -141.40234375 221.57421875 C-144.60919909 226.62400502 -143.73546453 232.99284148 -143.640625 238.73828125 C-143.64771484 239.94871094 -143.65480469 241.15914062 -143.66210938 242.40625 C-143.61382445 249.15871063 -143.50096543 254.62268015 -138.703125 259.8828125 C-132.546142 264.67692166 -127.95521403 264.33692427 -120.36987305 264.26733398 C-119.32484619 264.25774658 -118.27981934 264.24815918 -117.203125 264.23828125 C-117.15124023 265.20258057 -117.09935547 266.16687988 -117.04589844 267.16040039 C-116.52686946 276.34833153 -115.78551835 285.4847086 -114.69335938 294.62280273 C-114.53185007 296.00301789 -114.3789914 297.38427015 -114.234375 298.76635742 C-113.06903443 309.88521513 -111.05398618 318.52647208 -102.2421875 325.94921875 C-96.22393891 329.75385866 -91.32617072 330.67911158 -84.34233093 330.63269043 C-83.03924798 330.64182709 -83.03924798 330.64182709 -81.70984012 330.65114832 C-78.811227 330.66774079 -75.91305498 330.66300784 -73.0144043 330.65820312 C-70.93109685 330.66554567 -68.84779348 330.67413245 -66.76449585 330.68386841 C-61.11355663 330.70607471 -55.46276327 330.70901548 -49.81178641 330.7071209 C-45.09024094 330.70700114 -40.36872632 330.71556741 -35.64718944 330.72389841 C-24.50508776 330.74312974 -13.363061 330.74601745 -2.22094727 330.73925781 C9.26313737 330.73261872 20.74690067 330.75547692 32.23092014 330.79257154 C42.09951988 330.82328841 51.96801637 330.83462635 61.83666295 330.83073473 C67.72680699 330.82866911 73.61670103 330.83411771 79.5067997 330.85862732 C85.04815424 330.88092415 90.58898726 330.87899176 96.13034439 330.8586998 C98.15958882 330.85529487 100.18886855 330.86035643 102.21806526 330.87468338 C113.80598505 330.95082813 122.97887028 331.00736216 132.234375 323.17578125 C132.75 322.53640625 133.265625 321.89703125 133.796875 321.23828125 C134.333125 320.59890625 134.869375 319.95953125 135.421875 319.30078125 C138.76305811 314.28900658 139.38332362 309.126876 140.0859375 303.28125 C140.19408783 302.41945633 140.30223816 301.55766266 140.41366577 300.66975403 C140.64037033 298.85047103 140.86373984 297.03076972 141.08398438 295.21069336 C141.41958783 292.44463221 141.76755423 289.68033446 142.1171875 286.91601562 C142.33667933 285.14201871 142.55545264 283.36793272 142.7734375 281.59375 C142.87653229 280.77577438 142.97962708 279.95779877 143.08584595 279.11503601 C143.68278479 274.11706137 143.891152 269.27202526 143.796875 264.23828125 C144.6425 264.2846875 145.488125 264.33109375 146.359375 264.37890625 C153.39739132 264.60284313 159.04707628 264.62852165 164.796875 260.23828125 C170.83700516 253.88840082 170.10750093 247.37634502 170.234375 239.05078125 C170.28013672 237.84357422 170.32589844 236.63636719 170.37304688 235.39257812 C170.45923839 228.53847875 170.11200501 223.88406241 165.42504883 218.6628418 C163.35577123 216.85234025 161.59735811 215.88688322 158.921875 215.23828125 C158.14070313 215.03203125 157.35953125 214.82578125 156.5546875 214.61328125 C155.68457031 214.42765625 155.68457031 214.42765625 154.796875 214.23828125 C155.23257812 213.36429688 155.66828125 212.4903125 156.1171875 211.58984375 C168.12144803 187.01178986 175.78552038 157.62609174 166.609375 130.76171875 C161.41139597 117.56902196 153.91741336 108.29105374 141.16015625 101.921875 C128.71764843 96.94140116 114.25438555 97.60831757 102 102.6953125 C92.24145652 107.3960743 83.90243764 113.05151686 75.796875 120.23828125 C75.11109375 120.84027344 74.4253125 121.44226563 73.71875 122.0625 C54.50986867 140.06106564 39.48230328 169.19938418 38.546875 195.73046875 C38.50960553 199.23865985 38.61083302 202.73449068 38.796875 206.23828125 C38.136875 206.23828125 37.476875 206.23828125 36.796875 206.23828125 C36.64037476 205.37662354 36.64037476 205.37662354 36.48071289 204.49755859 C35.68535183 201.86982877 34.51453641 200.27302315 32.85546875 198.08984375 C22.87085086 184.01573745 19.67025226 170.98650814 21.98046875 153.76220703 C23.93886137 145.30902547 28.8441177 138.47656985 34.37646484 131.9387207 C35.9772823 130.08434246 35.9772823 130.08434246 37.796875 127.23828125 C40.35856234 126.2115592 42.84344098 125.34243563 45.47265625 124.53125 C47.0385713 124.0219756 48.6043214 123.51219378 50.16992188 123.00195312 C52.63632866 122.21151669 55.10439487 121.42734139 57.57592773 120.65307617 C59.96405475 119.90040359 62.34328966 119.12360242 64.72265625 118.34375 C65.45615799 118.12164352 66.18965973 117.89953705 66.94538879 117.67070007 C72.20632017 115.92604065 74.60735184 113.78095838 77.796875 109.23828125 C80.70059221 103.43084683 79.43786844 93.25644464 78.11328125 87.01953125 C73.43200863 73.50017132 65.0285042 62.67477505 52.796875 55.23828125 C43.72467293 50.90162547 35.2694202 49.05722956 25.296875 48.92578125 C24.19666016 48.88227539 24.19666016 48.88227539 23.07421875 48.83789062 C14.89551699 48.74278944 10.47670835 52.9539336 5.796875 59.23828125 Z " fill="#CACFD7" transform="translate(259.203125,82.76171875)"/>
<path d="M0 0 C1.01617401 -0.0000705 2.03234802 -0.00014099 3.07931519 -0.00021362 C19.81049153 0.04430822 35.56439741 1.1277677 51.8125 5.4375 C52.99505371 5.74864746 54.17760742 6.05979492 55.39599609 6.38037109 C85.2677174 14.48430918 112.38587983 27.46459945 136.8125 46.4375 C137.76511719 47.17613281 138.71773438 47.91476563 139.69921875 48.67578125 C150.12310412 56.9996722 160.42006877 66.03232296 168.8125 76.4375 C169.72245815 77.53532048 170.63263593 78.63295894 171.54296875 79.73046875 C211.44994879 128.27571279 228.49644183 188.29792466 222.4375 250.74951172 C216.98641224 295.40868384 196.67074119 338.0562534 166.8125 371.4375 C166.31186035 371.99985352 165.8112207 372.56220703 165.29541016 373.14160156 C159.47726963 379.64755613 153.60913791 385.93545978 146.8125 391.4375 C145.71352882 392.34894285 144.61457184 393.26040281 143.515625 394.171875 C113.16238337 419.11897341 77.70592643 436.11236628 39 443.125 C38.34322266 443.24447998 37.68644531 443.36395996 37.00976562 443.48706055 C24.86971843 445.56816844 12.71946406 445.67787841 0.4375 445.6875 C-0.45422913 445.68850708 -1.34595825 445.68951416 -2.26470947 445.69055176 C-15.47906642 445.68045608 -28.21542774 445.13783267 -41.1875 442.4375 C-42.68994923 442.15542348 -44.19255475 441.87417823 -45.6953125 441.59375 C-83.87634388 434.11400979 -119.31623101 415.26173968 -148.1875 389.4375 C-148.74985352 388.93686035 -149.31220703 388.4362207 -149.89160156 387.92041016 C-156.39755613 382.10226963 -162.68545978 376.23413791 -168.1875 369.4375 C-169.09894285 368.33852882 -170.01040281 367.23957184 -170.921875 366.140625 C-195.33934733 336.43486604 -211.53971119 302.16239407 -219.1875 264.4375 C-219.39067841 263.44740181 -219.39067841 263.44740181 -219.59796143 262.43730164 C-222.08795438 249.99431621 -222.6727827 237.91713559 -222.5625 225.25 C-222.55817963 224.30728241 -222.55385925 223.36456482 -222.54940796 222.39328003 C-222.41128626 196.66750093 -218.81693403 172.72775875 -210.1875 148.4375 C-204.2475 148.4375 -198.3075 148.4375 -192.1875 148.4375 C-192.620625 149.70722656 -193.05375 150.97695312 -193.5 152.28515625 C-212.00340476 207.89309978 -208.23146273 265.88574618 -182.1875 318.4375 C-168.2896328 345.95830131 -146.91327897 370.19550844 -122.1875 388.4375 C-120.94806641 389.36949219 -120.94806641 389.36949219 -119.68359375 390.3203125 C-106.85004958 399.65774735 -92.73816173 407.16877503 -78.1875 413.4375 C-77.55585938 413.71045898 -76.92421875 413.98341797 -76.2734375 414.26464844 C-33.58558462 432.32661129 17.94742563 434.1057256 61.8125 419.4375 C62.94727783 419.06069092 62.94727783 419.06069092 64.10498047 418.67626953 C94.28381145 408.47928402 120.88819292 392.57780205 143.8125 370.4375 C144.7952632 369.51789807 145.7783395 368.59863063 146.76171875 367.6796875 C159.68576544 355.40290076 169.89192337 340.80510104 178.8125 325.4375 C179.1935791 324.78910156 179.5746582 324.14070313 179.96728516 323.47265625 C206.57316721 277.67471697 212.76829556 221.13999302 199.55419922 170.18408203 C190.3350158 136.04457792 172.80258868 105.26250975 148.20898438 79.88085938 C146.90317534 78.53121898 145.61494773 77.16462998 144.328125 75.796875 C137.71780629 68.9273281 130.42747231 63.13546474 122.8125 57.4375 C121.98105469 56.81101563 121.14960938 56.18453125 120.29296875 55.5390625 C92.20788365 35.15704163 59.74599757 23.30720042 25.48950195 18.79125977 C23.46233167 18.52337379 21.43944206 18.22283312 19.41918945 17.90698242 C13.19754871 17.09711204 6.95314088 17.19281712 0.6875 17.1875 C-0.02580475 17.18682526 -0.7391095 17.18615051 -1.47402954 17.18545532 C-13.59389525 17.20361331 -25.295189 18.01025612 -37.1875 20.4375 C-38.04311523 20.60910645 -38.89873047 20.78071289 -39.78027344 20.95751953 C-58.30520499 24.77790258 -75.61589934 30.74000054 -92.47460938 39.32495117 C-93.30927734 39.74365479 -94.14394531 40.1623584 -95.00390625 40.59375 C-95.74068604 40.97337891 -96.47746582 41.35300781 -97.23657227 41.74414062 C-99.1875 42.4375 -99.1875 42.4375 -102.1875 41.4375 C-103.86328125 39.07421875 -103.86328125 39.07421875 -105.5 36.125 C-106.32951172 34.67673828 -106.32951172 34.67673828 -107.17578125 33.19921875 C-108.1875 30.4375 -108.1875 30.4375 -107.50830078 28.41064453 C-105.91740196 26.03400048 -104.64080305 25.3213024 -102.06640625 24.10546875 C-101.22319824 23.70287842 -100.37999023 23.30028809 -99.51123047 22.88549805 C-98.60002441 22.46953369 -97.68881836 22.05356934 -96.75 21.625 C-95.80785645 21.18776611 -94.86571289 20.75053223 -93.89501953 20.30004883 C-75.79368949 12.0317834 -56.85402419 5.71890816 -37.1875 2.4375 C-36.209021 2.2720166 -35.23054199 2.1065332 -34.22241211 1.93603516 C-22.82509167 0.2091929 -11.51387282 -0.00574387 0 0 Z " fill="#A7AFBA" transform="translate(272.1875,49.5625)"/>
<path d="M0 0 C4.05001277 0.39706008 4.61123897 1.21323861 7.1875 4.3125 C8.81019694 7.01194331 10.21313692 9.8108115 11.625 12.625 C15.37818592 19.93331639 19.29548093 27.11891127 23.375 34.25 C28.34896535 42.96854463 33.1554432 51.76713895 37.875 60.625 C42.66917848 69.619878 47.51295288 78.58045358 52.48828125 87.4765625 C55.95640708 93.67791764 59.38205056 99.90275894 62.8125 106.125 C63.49370917 107.36012096 64.17494299 108.59522833 64.85620117 109.83032227 C68.07934799 115.67412427 71.30123421 121.51862025 74.52218628 127.3636322 C75.9771276 130.00367926 77.43247478 132.64350247 78.88787842 135.28329468 C79.91215409 137.14151789 80.9358213 139.00007539 81.95947266 140.85864258 C82.58644043 141.9958374 83.2134082 143.13303223 83.859375 144.3046875 C84.43937256 145.35720703 85.01937012 146.40972656 85.61694336 147.49414062 C86.92121297 149.83464869 88.25565412 152.15125895 89.61328125 154.4609375 C91.26552991 157.45384449 91.83871424 158.9633982 91.1875 162.3125 C90.09667206 163.92973614 90.09667206 163.92973614 88.1875 165.3125 C85.09369659 165.68723011 85.09369659 165.68723011 81.20324707 165.6867218 C80.48817883 165.69069621 79.77311059 165.69467061 79.03637362 165.69876546 C76.63407444 165.70840993 74.23236103 165.69655777 71.83007812 165.68481445 C70.11038493 165.68724172 68.39069313 165.6909604 66.67100525 165.69587708 C61.99543569 165.7052987 57.32007499 165.69584999 52.64452171 165.68254495 C47.75719538 165.6712466 42.86987958 165.6753367 37.98254395 165.67729187 C29.77429788 165.67817536 21.56613431 165.66708301 13.35791016 165.64868164 C3.86085874 165.62751319 -5.63607177 165.62400382 -15.13314199 165.6302436 C-24.25972182 165.63593353 -33.38625897 165.63029598 -42.51283264 165.61907005 C-46.40113614 165.61441914 -50.28941358 165.61355234 -54.17771912 165.6156559 C-58.75446478 165.61753622 -63.33108698 165.60945468 -67.90780449 165.5935955 C-69.59005154 165.58934424 -71.2723111 165.58850773 -72.95456123 165.59128571 C-75.24592644 165.59449612 -77.53692008 165.58545479 -79.82824707 165.57319641 C-81.11209541 165.57114354 -82.39594376 165.56909067 -83.71869659 165.56697559 C-86.8125 165.3125 -86.8125 165.3125 -89.8125 163.3125 C-90.44463499 158.52633511 -89.27099498 155.57350524 -86.98828125 151.41015625 C-86.07357056 149.72188721 -86.07357056 149.72188721 -85.14038086 147.99951172 C-84.46892607 146.7911528 -83.79712376 145.58298694 -83.125 144.375 C-82.43599055 143.11525965 -81.7479326 141.85499845 -81.06079102 140.59423828 C-76.35027654 131.97900676 -71.52390455 123.42776273 -66.65942383 114.89868164 C-62.59777653 107.76214991 -58.68472995 100.55332458 -54.8125 93.3125 C-50.43493461 85.12673016 -45.97560895 77.00002311 -41.375 68.9375 C-36.48557878 60.36431966 -31.76664162 51.708879 -27.125 43 C-4.46618775 0.49624308 -4.46618775 0.49624308 0 0 Z " fill="#FD816D" transform="translate(106.8125,16.6875)"/>
<path d="M0 0 C75.57 0 151.14 0 229 0 C228.01 8.91 227.02 17.82 226 27 C225.3878182 33.86922415 225.3878182 33.86922415 224.8203125 40.7421875 C223.76116646 44.94851033 222.40662717 46.32958984 219 49 C215.97602826 49.49225125 213.5174659 49.67726902 210.4979248 49.63491821 C209.64371807 49.64271817 208.78951133 49.65051812 207.90941954 49.65855443 C205.0478979 49.67849384 202.18770332 49.66270243 199.32617188 49.64697266 C197.27445194 49.65374791 195.22273808 49.66265052 193.17103577 49.67352295 C187.59870837 49.69633366 182.0268434 49.68747243 176.45450783 49.67162752 C170.62586842 49.65897782 164.79726888 49.67070605 158.96862793 49.67855835 C149.18002201 49.6876576 139.39160464 49.67565966 129.60302734 49.65185547 C118.2824548 49.62464381 106.96233248 49.63345777 95.64177084 49.6609875 C85.92613413 49.68366961 76.21063305 49.686883 66.49497843 49.67379415 C60.69050115 49.66599476 54.88623557 49.66497163 49.08177185 49.68147659 C43.62495766 49.69590887 38.16872453 49.68592187 32.71197319 49.65700531 C30.70805769 49.65038792 28.70409337 49.65230326 26.70019722 49.66331863 C23.96682741 49.67695983 21.23532558 49.65987613 18.5020752 49.63491821 C17.70684181 49.64607182 16.91160842 49.65722543 16.09227705 49.66871703 C12.02892009 49.59662431 10.22016161 49.17805775 7.01806355 46.58833122 C5.09928752 44.12734436 4.32632072 42.95887607 3.97338867 39.93164062 C3.87366257 39.16734741 3.77393646 38.4030542 3.67118835 37.61560059 C3.58762589 36.80401489 3.50406342 35.9924292 3.41796875 35.15625 C3.31406326 34.30953735 3.21015778 33.46282471 3.10310364 32.5904541 C2.77766967 29.89558455 2.48257865 27.19834369 2.1875 24.5 C1.9713126 22.68596909 1.7532329 20.87216262 1.53320312 19.05859375 C1.13753353 15.72971529 0.74572243 12.40063264 0.37963867 9.06835938 C0.30589523 8.40171265 0.23215179 7.73506592 0.15617371 7.04821777 C-0.02249053 4.70503675 0 2.3499826 0 0 Z " fill="#CE9D75" transform="translate(158,347)"/>
<path d="M0 0 C8.54816134 6.100974 13.25652554 16.88107736 15 27 C16.19190916 39.77615002 15.0393916 51.86030637 11 64 C10.67854004 64.99507568 10.67854004 64.99507568 10.35058594 66.01025391 C3.17974599 87.82025401 3.17974599 87.82025401 -4 95 C-6.49492388 95.09502416 -8.96206014 95.12557566 -11.45727539 95.11352539 C-12.23770706 95.11367142 -13.01813873 95.11381744 -13.82221985 95.1139679 C-16.4140598 95.11326858 -19.00582878 95.10547536 -21.59765625 95.09765625 C-23.3898464 95.09579213 -25.18203706 95.0943682 -26.97422791 95.09336853 C-31.70070797 95.08954284 -36.42715752 95.07971212 -41.15362549 95.06866455 C-45.9728555 95.05845153 -50.79209042 95.05387115 -55.61132812 95.04882812 C-65.07423219 95.03808989 -74.53711356 95.02101286 -84 95 C-84.40164615 73.10281001 -84.40164615 73.10281001 -82.0625 64.9375 C-81.84360107 64.12716309 -81.62470215 63.31682617 -81.39916992 62.48193359 C-77.07418446 47.46716367 -69.67998578 34.17906708 -60 22 C-59.03320312 20.75863281 -59.03320312 20.75863281 -58.046875 19.4921875 C-49.9731815 9.75626299 -39.77714154 2.49494235 -28 -2 C-27.030625 -2.433125 -26.06125 -2.86625 -25.0625 -3.3125 C-16.25198282 -5.2903712 -7.84981651 -4.57337136 0 0 Z " fill="#E2E5E9" transform="translate(398,202)"/>
<path d="M0 0 C92.73 0 185.46 0 281 0 C281 5.28 281 10.56 281 16 C188.27 16 95.54 16 0 16 C0 10.72 0 5.44 0 0 Z " fill="#DEB18A" transform="translate(132,314)"/>
<path d="M0 0 C7.99590888 4.8688639 13.82325801 11.215689 16.87890625 20.14453125 C18.71616786 30.4836309 18.36580971 40.60800038 12.27734375 49.38671875 C11.41109375 50.74796875 11.41109375 50.74796875 10.52734375 52.13671875 C3.45816996 59.20589254 -5.18726405 63.33768809 -15.22265625 63.76171875 C-25.92144348 63.30886003 -33.80208346 58.80051094 -40.97265625 51.07421875 C-47.64973909 42.62752653 -48.98072333 34.0304904 -48.03613281 23.44775391 C-46.80255984 15.33729986 -42.14839834 8.7711799 -35.8125 3.78515625 C-25.19302903 -3.32095704 -11.89897744 -5.64260993 0 0 Z " fill="#030302" transform="translate(386.72265625,217.61328125)"/>
<path d="M0 0 C25.53863402 8.41488804 42.77569779 32.84486312 54.40234375 55.640625 C55.71484375 58.89453125 55.71484375 58.89453125 56.71484375 65.89453125 C51.43484375 65.89453125 46.15484375 65.89453125 40.71484375 65.89453125 C40.09609375 64.24453125 39.47734375 62.59453125 38.83984375 60.89453125 C33.88380904 49.03093542 26.79100698 38.0213993 17.71484375 28.89453125 C14.4996007 30.30297843 12.39300507 31.99797911 9.96484375 34.51953125 C9.35125 35.15117187 8.73765625 35.7828125 8.10546875 36.43359375 C7.6465625 36.91570312 7.18765625 37.3978125 6.71484375 37.89453125 C8.76046824 42.52591704 11.92538966 46.44248466 14.90625 50.49804688 C22.71484375 61.24951905 22.71484375 61.24951905 22.71484375 65.89453125 C15.45484375 65.89453125 8.19484375 65.89453125 0.71484375 65.89453125 C0.09609375 62.69765625 -0.52265625 59.50078125 -1.16015625 56.20703125 C-1.35077637 55.22903564 -1.54139648 54.25104004 -1.73779297 53.2434082 C-2.27133305 50.46348419 -2.78190283 47.68009709 -3.28515625 44.89453125 C-3.47263428 43.87939453 -3.6601123 42.86425781 -3.85327148 41.81835938 C-5.2870643 33.44033488 -5.6193594 25.25980308 -5.59765625 16.76953125 C-5.61376953 15.47015625 -5.62988281 14.17078125 -5.64648438 12.83203125 C-5.64712891 11.59195313 -5.64777344 10.351875 -5.6484375 9.07421875 C-5.65141846 7.95772949 -5.65439941 6.84124023 -5.6574707 5.69091797 C-5.28515625 2.89453125 -5.28515625 2.89453125 -3.90527344 1.00170898 C-2.28515625 -0.10546875 -2.28515625 -0.10546875 0 0 Z " fill="#5AD2B0" transform="translate(154.28515625,231.10546875)"/>
<path d="M0 0 C5.61 0 11.22 0 17 0 C17 21.78 17 43.56 17 66 C11.39 66 5.78 66 0 66 C0 44.22 0 22.44 0 0 Z " fill="#070303" transform="translate(99,58)"/>
<path d="M0 0 C10.88399226 0.50745302 21.27735112 2.10291597 32 4 C32 10.6 32 17.2 32 24 C25.95047853 25.5710393 19.90034958 27.1391241 13.84814453 28.69970703 C11.78942761 29.23150168 9.73115497 29.76501936 7.67333984 30.30029297 C4.71567005 31.06931565 1.75645866 31.83213079 -1.203125 32.59375 C-2.12305237 32.83436157 -3.04297974 33.07497314 -3.99078369 33.32287598 C-5.28166901 33.65321838 -5.28166901 33.65321838 -6.59863281 33.99023438 C-7.35364075 34.18564819 -8.10864868 34.38106201 -8.88653564 34.58239746 C-11 35 -11 35 -15 35 C-14.49289834 29.15532834 -13.3052723 24.50951366 -10.875 19.1875 C-10.56876709 18.50042969 -10.26253418 17.81335938 -9.94702148 17.10546875 C-7.16588728 11.03187391 -3.82242675 5.48384628 0 0 Z " fill="#FB806C" transform="translate(232,234)"/>
<path d="M0 0 C1.66918945 1.91772461 1.66918945 1.91772461 3.11328125 4.40234375 C3.63857422 5.29244141 4.16386719 6.18253906 4.70507812 7.09960938 C5.23552734 8.03611328 5.76597656 8.97261719 6.3125 9.9375 C6.86228516 10.87013672 7.41207031 11.80277344 7.97851562 12.76367188 C12 19.67263199 12 19.67263199 12 22 C-5.49 22 -22.98 22 -41 22 C-45 12 -45 12 -45 9 C-39.39835867 7.54391586 -33.79336218 6.10185916 -28.18481445 4.67260742 C-26.27790579 4.18457495 -24.37196527 3.69274309 -22.46704102 3.19702148 C-19.72658854 2.4845753 -16.98292933 1.78592661 -14.23828125 1.08984375 C-13.38913651 0.86594467 -12.53999176 0.64204559 -11.66511536 0.41136169 C-3.69807929 -1.58208881 -3.69807929 -1.58208881 0 0 Z " fill="#FB806C" transform="translate(270,275)"/>
<path d="M0 0 C14.74628653 0 21.50006194 0.70311 31.73046875 10.41796875 C38.26710478 17.85465794 41.15927752 25.2840711 41 35 C36.87945153 36.53309295 32.75291994 38.04937902 28.625 39.5625 C26.8615625 40.21895508 26.8615625 40.21895508 25.0625 40.88867188 C23.38027344 41.50258789 23.38027344 41.50258789 21.6640625 42.12890625 C20.10872803 42.70233765 20.10872803 42.70233765 18.52197266 43.28735352 C16 44 16 44 14 43 C14.41362793 42.47567383 14.82725586 41.95134766 15.25341797 41.41113281 C17.13093121 39.0269388 19.00300741 36.63853066 20.875 34.25 C21.52597656 33.425 22.17695313 32.6 22.84765625 31.75 C23.47285156 30.95078125 24.09804688 30.1515625 24.7421875 29.328125 C25.3182373 28.5949707 25.89428711 27.86181641 26.48779297 27.10644531 C27.90451325 25.13300931 28.98584875 23.20240573 30 21 C28.42982807 19.63059432 26.84334609 18.27987105 25.25 16.9375 C24.36828125 16.18339844 23.4865625 15.42929688 22.578125 14.65234375 C20.23501865 12.79008554 20.23501865 12.79008554 18.05029297 13.13085938 C15.29421391 14.2991901 14.32603842 15.8096667 12.6171875 18.25390625 C12.00746094 19.10791016 11.39773438 19.96191406 10.76953125 20.84179688 C10.14433594 21.73962891 9.51914062 22.63746094 8.875 23.5625 C7.62821027 25.33873098 6.37589642 27.11110168 5.1171875 28.87890625 C4.56659668 29.6685376 4.01600586 30.45816895 3.44873047 31.27172852 C2.97064941 31.84205811 2.49256836 32.4123877 2 33 C1.34 33 0.68 33 0 33 C0 22.11 0 11.22 0 0 Z " fill="#F66B4F" transform="translate(281,149)"/>
<path d="M0 0 C4.68146686 2.01649521 7.56329786 4.63552012 10.0234375 9.10546875 C11.55817311 13.23581712 11.6527866 17.07293229 10.87109375 21.38671875 C8.65866936 25.81156753 5.92309759 28.58148532 1.87109375 31.38671875 C-3.71131077 33.24752026 -9.18022594 33.32497223 -14.50390625 30.76171875 C-19.36240792 26.36593152 -21.90524205 22.11542196 -22.44140625 15.57421875 C-22.36870741 11.16382232 -21.00244403 8.78959243 -18.12890625 5.38671875 C-12.52118851 0.09371986 -7.69060114 -2.21545757 0 0 Z " fill="#F7D26D" transform="translate(377.12890625,231.61328125)"/>
<path d="M0 0 C0.66 0.66 1.32 1.32 2 2 C1.72271533 9.10376904 -3.82528886 16.35439375 -8.31298828 21.54882812 C-11.14915718 23.988508 -13.49763503 23.89281848 -17.125 23.625 C-20.671875 22.91796875 -20.671875 22.91796875 -24 22 C-25.79133388 21.64415395 -27.58294795 21.28971149 -29.375 20.9375 C-30.57125 20.628125 -31.7675 20.31875 -33 20 C-27.37227413 12.38601794 -10.24053379 -4.21669038 0 0 Z " fill="#F87E6A" transform="translate(279,199)"/>
<path d="M0 0 C5.61 0 11.22 0 17 0 C17 5.61 17 11.22 17 17 C11.39 17 5.78 17 0 17 C0 11.39 0 5.78 0 0 Z " fill="#0E0706" transform="translate(99,140)"/>
</svg>
