<?xml version="1.0" encoding="UTF-8"?>
<svg version="1.1" xmlns="http://www.w3.org/2000/svg" width="512" height="512">
<path d="M0 0 C10.0790798 4.55121239 14.47042317 15.39384307 19.265625 24.66015625 C20.32400693 26.68070079 21.38567001 28.69949726 22.44761658 30.71817017 C23.14918123 32.05210072 23.84976078 33.38654985 24.54933167 34.7215271 C28.17775609 41.63798969 31.97118504 48.45850659 35.79296875 55.26953125 C36.73095342 56.94556736 37.65668236 58.62977097 38.515625 60.34765625 C42.80781887 59.85539257 46.10926263 58.14675967 49.89575195 56.21166992 C71.30730547 45.31477333 94.79814601 38.06929219 118.515625 34.34765625 C119.67336426 34.16436768 120.83110352 33.9810791 122.02392578 33.79223633 C133.23480018 32.19745795 144.32919396 31.98901937 155.640625 32.03515625 C157.06710358 32.03838898 157.06710358 32.03838898 158.5223999 32.04168701 C172.38697075 32.09211847 185.9113545 32.43912128 199.515625 35.34765625 C200.50046875 35.55165039 201.4853125 35.75564453 202.5 35.96582031 C257.36574937 47.57073713 308.77602096 76.74527132 343.515625 121.34765625 C344.66224609 122.75144531 344.66224609 122.75144531 345.83203125 124.18359375 C368.61381421 152.63339655 383.74117998 186.87496837 391.515625 222.34765625 C391.72880371 223.32009277 391.94198242 224.2925293 392.16162109 225.29443359 C398.07073695 253.80908067 398.46669904 286.81153047 392.515625 315.34765625 C392.34401855 316.22856934 392.17241211 317.10948242 391.99560547 318.01708984 C381.21799641 372.84901866 350.82009912 424.84008697 306.515625 459.34765625 C305.57976562 460.11207031 304.64390625 460.87648438 303.6796875 461.6640625 C266.17728108 491.6949098 216.24118623 511.29140001 167.90625 511.55078125 C167.02517075 511.55779556 166.14409149 511.56480988 165.23631287 511.57203674 C162.41269752 511.58942493 159.5892919 511.59588792 156.765625 511.59765625 C155.80065094 511.59833099 154.83567688 511.59900574 153.84146118 511.59970093 C139.84595061 511.584135 126.26246556 511.19537484 112.515625 508.34765625 C111.63326172 508.1760498 110.75089844 508.00444336 109.84179688 507.82763672 C55.024353 497.05098182 3.0047664 466.655328 -31.484375 422.34765625 C-32.27199219 421.37699219 -33.05960937 420.40632813 -33.87109375 419.40625 C-63.84617695 381.80799023 -83.42783066 332.07064817 -83.6875 283.73828125 C-83.69455963 282.85733795 -83.70161926 281.97639465 -83.70889282 281.0687561 C-83.87741172 253.87674996 -81.2645025 229.73271299 -74.484375 203.34765625 C-74.14991851 202.01460421 -73.81615952 200.68137583 -73.484375 199.34765625 C-74.54180908 199.3336377 -74.54180908 199.3336377 -75.62060547 199.31933594 C-78.86752652 199.26508763 -82.11308988 199.18154901 -85.359375 199.09765625 C-86.46796875 199.08347656 -87.5765625 199.06929687 -88.71875 199.0546875 C-96.52226984 198.82517221 -104.42688395 198.06523672 -110.42529297 192.56933594 C-115.96315211 186.45392995 -117.13783565 181.40698787 -116.96875 173.1640625 C-116.11029487 166.40026685 -112.86113073 161.12133531 -109.484375 155.34765625 C-108.5376511 153.67861958 -107.59383856 152.00792944 -106.65234375 150.3359375 C-105.04547177 147.48541145 -103.43548888 144.63693401 -101.81445312 141.79443359 C-97.34396572 133.94323502 -93.04367583 126.00851979 -88.796875 118.03515625 C-84.00305147 109.04009221 -79.15891849 100.07969618 -74.18359375 91.18359375 C-71.06159954 85.60115651 -67.97463581 79.99940888 -64.88656616 74.39816284 C-63.85741952 72.53160962 -62.82781275 70.66531087 -61.7980957 68.79907227 C-58.3007674 62.45978963 -54.80761006 56.11824376 -51.3203125 49.7734375 C-48.00416568 43.74029182 -44.6730967 37.71555834 -41.33447266 31.69482422 C-39.5645482 28.49270435 -37.81096712 25.28205955 -36.05859375 22.0703125 C-35.01387553 20.18312035 -33.96835544 18.29637179 -32.921875 16.41015625 C-32.46973633 15.57033203 -32.01759766 14.73050781 -31.55175781 13.86523438 C-24.57994439 1.42624131 -14.32607407 -3.76172071 0 0 Z M-15.484375 21.34765625 C-17.27369695 24.11891585 -17.27369695 24.11891585 -18.796875 27.15234375 C-19.68729492 28.84520508 -19.68729492 28.84520508 -20.59570312 30.57226562 C-20.9032251 31.16676514 -21.21074707 31.76126465 -21.52758789 32.3737793 C-23.17108412 35.54963971 -24.84511727 38.70938306 -26.515625 41.87109375 C-26.85203003 42.50960266 -27.18843506 43.14811157 -27.53503418 43.80596924 C-30.57081095 49.55232664 -33.75402885 55.20851126 -36.984375 60.84765625 C-41.85596145 69.37764504 -46.55242536 77.99201487 -51.171875 86.66015625 C-55.96490041 95.65235565 -60.80669844 104.61068401 -65.78125 113.50390625 C-67.90935779 117.30900221 -70.01963578 121.12367913 -72.125 124.94140625 C-72.45106232 125.53264786 -72.77712463 126.12388947 -73.11306763 126.73304749 C-74.81553348 129.82113152 -76.51556743 132.91052724 -78.21240234 136.00170898 C-81.36401644 141.73648982 -84.53284797 147.45843533 -87.78990173 153.13417053 C-89.2101937 155.60967251 -90.62073026 158.09067624 -92.03115845 160.57180786 C-93.02768923 162.31411243 -94.03946566 164.04766872 -95.05151367 165.78100586 C-95.64939697 166.83425049 -96.24728027 167.88749512 -96.86328125 168.97265625 C-97.3951001 169.89304688 -97.92691895 170.8134375 -98.47485352 171.76171875 C-99.65759873 174.79137711 -99.48158896 176.29065078 -98.484375 179.34765625 C-96.58499561 181.24703564 -93.22086851 180.48230509 -90.70266724 180.48809814 C-89.98522429 180.49106927 -89.26778135 180.49404039 -88.52859771 180.49710155 C-86.10645592 180.50582529 -83.68436333 180.50729987 -81.26220703 180.50878906 C-79.5329579 180.51341464 -77.80370979 180.51843894 -76.07446289 180.52383423 C-71.3637275 180.53698525 -66.65300638 180.54340842 -61.9422555 180.54784489 C-59.00226173 180.55077122 -56.06227191 180.55487517 -53.12228012 180.55934906 C-43.93270546 180.57303101 -34.74313975 180.58269429 -25.55355561 180.58655095 C-14.92884433 180.5910338 -4.30426157 180.60858926 6.32041061 180.63755155 C14.52168636 180.6591353 22.72292587 180.66925346 30.92422974 180.67059207 C35.82770921 180.67164247 40.73106799 180.67759982 45.63451767 180.69541168 C50.24572334 180.71183537 54.85671687 180.71407578 59.46794128 180.70527267 C61.16309805 180.70449923 62.85826596 180.70888522 64.55339432 180.71873093 C66.86250223 180.73135914 69.17084837 180.72562419 71.47994995 180.71514893 C72.77377028 180.71661549 74.0675906 180.71808205 75.4006176 180.71959305 C78.51250922 180.6218116 78.51250922 180.6218116 80.45535469 178.82468796 C80.80524389 178.33726749 81.15513309 177.84984703 81.515625 177.34765625 C80.25226201 173.27640452 78.74273363 169.62958994 76.71484375 165.8828125 C76.15667969 164.84769531 75.59851563 163.81257812 75.0234375 162.74609375 C74.12238281 161.09480469 74.12238281 161.09480469 73.203125 159.41015625 C72.57792969 158.25644531 71.95273438 157.10273438 71.30859375 155.9140625 C66.77679629 147.56913831 62.12065293 139.29689003 57.41943359 131.04638672 C52.65623303 122.66205641 48.08502234 114.1800914 43.53076172 105.6809082 C39.50634038 98.17392232 35.41351913 90.71048129 31.26171875 83.2734375 C27.72278766 76.93391345 24.21245795 70.57859341 20.703125 64.22265625 C20.36149323 63.60422852 20.01986145 62.98580078 19.6678772 62.34863281 C14.30418616 52.63613574 8.99635914 42.89512636 3.7644043 33.11083984 C-0.71132688 23.29691324 -0.71132688 23.29691324 -7.984375 16.03515625 C-11.73021855 16.50338669 -13.00514097 18.58414558 -15.484375 21.34765625 Z M47.515625 77.34765625 C48.41479918 79.33483119 49.3355712 81.3122451 50.265625 83.28515625 C50.77609375 84.38730469 51.2865625 85.48945312 51.8125 86.625 C53.23177227 89.41283643 53.23177227 89.41283643 55.45996094 90.33959961 C58.01686345 90.34962072 59.39686379 89.73346418 61.65625 88.5390625 C62.46674805 88.12551514 63.27724609 87.71196777 64.11230469 87.28588867 C64.98790039 86.83189697 65.86349609 86.37790527 66.765625 85.91015625 C90.85535175 73.99753868 118.00973519 66.39196984 145.01171875 66.109375 C146.18567451 66.09468422 146.18567451 66.09468422 147.38334656 66.07969666 C193.32734275 65.62370993 237.81262308 75.71306962 275.515625 103.34765625 C277.0934375 104.50007813 277.0934375 104.50007813 278.703125 105.67578125 C285.89228872 111.02353243 292.60636761 116.7955764 299.08349609 122.98291016 C300.46261553 124.29714092 301.85797713 125.59426286 303.25390625 126.890625 C333.41469479 155.74197265 352.50873547 196.63678554 359.515625 237.34765625 C359.79164551 238.87773315 359.79164551 238.87773315 360.07324219 240.4387207 C361.75010138 250.6814609 361.91412074 260.80921517 361.890625 271.16015625 C361.88980927 272.51385315 361.88980927 272.51385315 361.88897705 273.89489746 C361.84802952 288.71004174 360.95433921 302.87836335 357.515625 317.34765625 C357.19416504 318.70528076 357.19416504 318.70528076 356.86621094 320.09033203 C345.31098489 367.11017836 317.86575919 409.86343683 278.515625 438.34765625 C277.96567871 438.75258301 277.41573242 439.15750977 276.84912109 439.57470703 C253.02052888 456.94841234 225.29207106 468.38434454 196.515625 474.34765625 C195.76216797 474.51136719 195.00871094 474.67507813 194.23242188 474.84375 C142.6072577 485.62311991 85.9463724 472.89910265 42.140625 444.34765625 C31.39460968 436.8747666 21.45529815 428.8268726 12.00732422 419.77636719 C10.63397004 418.46100407 9.2491426 417.15764775 7.86328125 415.85546875 C1.000415 409.24196415 -4.84592867 402.00719892 -10.484375 394.34765625 C-11.1026416 393.51186035 -11.1026416 393.51186035 -11.73339844 392.65917969 C-29.09740144 368.83089838 -40.51245031 341.11358418 -46.484375 312.34765625 C-46.64808594 311.5995166 -46.81179687 310.85137695 -46.98046875 310.08056641 C-54.02855556 276.60943515 -50.37588948 239.98600999 -40.19873047 207.67333984 C-39.24811703 204.57848557 -38.37380089 201.46064685 -37.484375 198.34765625 C-42.764375 198.34765625 -48.044375 198.34765625 -53.484375 198.34765625 C-74.67139633 248.4551905 -69.51701098 307.9440191 -49.83203125 357.5859375 C-40.34629323 380.59102912 -26.40330552 401.83440632 -9.55078125 420.09375 C-7.71696942 422.09395685 -5.97400133 424.14108863 -4.234375 426.22265625 C31.02261586 466.51636009 86.68737774 489.90602902 139.23730469 494.13818359 C176.9267654 496.54640204 214.1971596 490.20740764 248.515625 474.34765625 C249.20462891 474.03070801 249.89363281 473.71375977 250.60351562 473.38720703 C270.46952062 464.13080036 288.19703147 452.22421651 304.296875 437.37890625 C306.28578299 435.558075 308.32245476 433.82678219 310.390625 432.09765625 C350.85166501 396.69424624 374.15280019 341.22338512 378.31494141 288.50292969 C381.78297824 233.97627761 366.444659 179.44097265 332.515625 136.34765625 C331.79117187 135.41179687 331.06671875 134.4759375 330.3203125 133.51171875 C292.9689059 86.51234734 238.78511283 57.06148219 179.2578125 50.17260742 C132.24582248 45.43175107 89.283827 56.42745927 47.515625 77.34765625 Z M63.515625 107.34765625 C63.91652344 108.07428467 64.31742187 108.80091309 64.73046875 109.54956055 C65.29894531 110.57992432 65.86742187 111.61028809 66.453125 112.671875 C66.76514862 113.2373555 67.07717224 113.802836 67.39865112 114.38545227 C69.15711773 117.57241354 70.91512768 120.75962542 72.67236328 123.94726562 C76.09017127 130.14613386 79.51065157 136.34343548 82.94720459 142.53193665 C84.4115687 145.16930011 85.87382595 147.8078289 87.3359375 150.44644165 C88.03573029 151.70791129 88.73656705 152.96880238 89.43847656 154.22909546 C90.42257997 155.9963048 91.40277638 157.76568809 92.3828125 159.53515625 C92.94081543 160.53933594 93.49881836 161.54351562 94.07373047 162.578125 C97.83382593 169.80036051 98.92553783 176.66069241 96.93359375 184.6953125 C94.51720429 190.42182451 90.00604999 193.67188421 84.515625 196.34765625 C79.71793403 197.65480397 74.88643337 197.52136607 69.9519043 197.55297852 C68.51703423 197.56782791 68.51703423 197.56782791 67.05317688 197.58297729 C63.89875748 197.61450537 60.74432303 197.63931536 57.58984375 197.6640625 C55.39980178 197.68463953 53.20976371 197.7056362 51.01972961 197.72703552 C45.26092698 197.7821788 39.50208897 197.83162223 33.7432251 197.87988281 C27.86459206 197.93015439 21.98601029 197.98581092 16.10742188 198.04101562 C4.57686673 198.14850248 -6.95373296 198.24996847 -18.484375 198.34765625 C-19.28479365 200.23970732 -20.08222325 202.13302304 -20.87841797 204.02685547 C-21.32281219 205.08105682 -21.76720642 206.13525818 -22.22506714 207.22140503 C-23.97526674 211.56630258 -25.34888814 215.96498386 -26.609375 220.47265625 C-26.86162842 221.36645996 -27.11388184 222.26026367 -27.3737793 223.18115234 C-40.18649313 270.016116 -33.31005388 319.81296781 -10.484375 362.34765625 C-9.57945313 364.08402344 -9.57945313 364.08402344 -8.65625 365.85546875 C-0.45368109 380.98541728 10.60889749 394.01568847 22.515625 406.34765625 C23.11375 406.99734375 23.711875 407.64703125 24.328125 408.31640625 C54.7815681 440.59705594 102.48384161 459.49875595 146.2734375 461.47192383 C181.83969698 462.44613531 215.14238844 455.18368936 246.515625 438.34765625 C247.67320312 437.744375 248.83078125 437.14109375 250.0234375 436.51953125 C265.15338603 428.31696234 278.18365722 417.25438376 290.515625 405.34765625 C291.1653125 404.74953125 291.815 404.15140625 292.484375 403.53515625 C324.76502469 373.08171315 343.6667247 325.37943964 345.63989258 281.58984375 C346.61410406 246.02358427 339.35165811 212.72089281 322.515625 181.34765625 C321.91234375 180.19007813 321.3090625 179.0325 320.6875 177.83984375 C312.48493109 162.70989522 301.42235251 149.67962403 289.515625 137.34765625 C288.9175 136.69796875 288.319375 136.04828125 287.703125 135.37890625 C256.87059574 102.69642523 209.00787284 84.22511684 164.76928711 82.22338867 C135.32129001 81.38483599 86.04904977 84.81423148 63.515625 107.34765625 Z " fill="#000000" transform="translate(116.484375,0.65234375)"/>
<path d="M0 0 C12.88683476 4.76180199 23.87607055 13.58218107 30.58984375 25.64453125 C35.01419565 35.2597641 38.04324166 46.29304227 35.25 56.78515625 C32.94294733 62.29530437 29.16846531 64.9508139 23.875 67.4375 C21.6183652 68.11394313 19.34367249 68.73163333 17.05859375 69.3046875 C3.86940546 72.62106861 -7.55916273 75.8525522 -15.5 87.8125 C-22.27375362 99.35583753 -24.11544113 111.80396252 -22.02978516 124.97070312 C-19.44026019 134.89279014 -13.31437953 143.40917868 -7.125 151.4375 C-6.97804688 150.29796875 -6.83109375 149.1584375 -6.6796875 147.984375 C-2.7047817 119.15630138 7.7006887 95.49146977 26.875 73.4375 C27.41382813 72.81359375 27.95265625 72.1896875 28.5078125 71.546875 C40.9609447 58.15506449 58.54029199 48.95620561 76.71484375 47.15625 C88.08185371 46.7648465 97.59587559 50.02803073 106.875 56.4375 C107.761875 57.015 108.64875 57.5925 109.5625 58.1875 C122.16654648 70.45089657 126.85594787 88.05479863 127.25 105.1875 C127.00991066 125.37975623 121.62661479 144.8016009 111.875 162.4375 C112.47828125 162.66824219 113.0815625 162.89898437 113.703125 163.13671875 C119.65922667 165.5671925 123.15642467 167.73574329 125.95166016 173.7565918 C127.57847885 178.48004396 127.24401678 183.29888892 127.25 188.25 C127.27449219 189.30509766 127.29898437 190.36019531 127.32421875 191.44726562 C127.34858726 197.9658419 126.72395533 203.03966759 122.875 208.4375 C116.28054252 214.71027662 109.4736379 213.51638659 100.875 213.4375 C100.82456543 214.26467529 100.77413086 215.09185059 100.72216797 215.9440918 C100.16631047 224.4159029 99.33696367 232.8229257 98.25537109 241.24389648 C97.99808261 243.26506229 97.75480974 245.2876304 97.51171875 247.31054688 C95.18075024 265.62400879 95.18075024 265.62400879 89.75 271.75 C88.97269531 272.67232422 88.97269531 272.67232422 88.1796875 273.61328125 C81.96305731 278.5339021 75.47175875 280.03189272 67.69776917 279.9521637 C66.81917124 279.95910922 65.94057332 279.96605475 65.03535122 279.97321075 C62.11518132 279.99138835 59.19583235 279.98124232 56.27563477 279.97094727 C54.17232662 279.9780104 52.06902356 279.98675707 49.96572876 279.99705505 C44.26940731 280.01951416 38.57336416 280.01661738 32.87701535 280.00773358 C28.11559832 280.00261549 23.35423322 280.00992293 18.59282154 280.01720566 C7.35765172 280.03419359 -3.87738224 280.03064983 -15.11254883 280.01391602 C-26.69097993 279.9969936 -38.26903404 280.01283366 -49.84742397 280.0451389 C-59.80099854 280.07185528 -69.7544559 280.07910529 -79.70806271 280.07062382 C-85.64734806 280.0657009 -91.5864066 280.06787615 -97.52566338 280.08841133 C-103.1113834 280.10680054 -108.69656212 280.10076963 -114.28225327 280.07621193 C-116.32761809 280.07121448 -118.3730244 280.07466596 -120.41835594 280.08736038 C-141.6706842 280.20879059 -141.6706842 280.20879059 -150.00134659 272.75971699 C-156.29629116 266.42016143 -157.52650847 257.51388126 -158.51171875 248.984375 C-158.61845413 248.1211261 -158.72518951 247.2578772 -158.8351593 246.36846924 C-159.0569709 244.5606275 -159.27438691 242.75224138 -159.48754883 240.94335938 C-159.8134163 238.17972897 -160.15259655 235.4179827 -160.49414062 232.65625 C-160.70910402 230.89071866 -160.92332298 229.1250965 -161.13671875 227.359375 C-161.23667648 226.53846375 -161.33663422 225.71755249 -161.43962097 224.87176514 C-161.88912604 221.03691638 -162.24805331 217.30711314 -162.125 213.4375 C-163.06601563 213.47230469 -164.00703125 213.50710938 -164.9765625 213.54296875 C-166.22179687 213.57003906 -167.46703125 213.59710938 -168.75 213.625 C-169.97976562 213.65980469 -171.20953125 213.69460938 -172.4765625 213.73046875 C-177.60092405 213.31898361 -180.84942826 211.78393684 -184.375 208.0625 C-188.599688 201.725468 -188.49105404 196.02778484 -188.5 188.625 C-188.52449219 187.56990234 -188.54898438 186.51480469 -188.57421875 185.42773438 C-188.60425667 177.39259178 -187.43731937 171.88899245 -181.80078125 166.015625 C-178.5887268 164.12121625 -176.00425017 163.63498487 -172.3125 163.1875 C-170.57033203 162.96320313 -170.57033203 162.96320313 -168.79296875 162.734375 C-167.47232422 162.58742188 -167.47232422 162.58742188 -166.125 162.4375 C-166.24093506 161.73778076 -166.35687012 161.03806152 -166.47631836 160.31713867 C-167.00911395 157.08708205 -167.53583512 153.85606168 -168.0625 150.625 C-168.33610352 148.97467773 -168.33610352 148.97467773 -168.61523438 147.29101562 C-170.57086306 135.23723155 -171.34685951 123.46229482 -171.4375 111.25 C-171.46650391 109.93580078 -171.49550781 108.62160156 -171.52539062 107.26757812 C-171.58502782 98.17061238 -170.93742234 92.3365683 -164.375 85.625 C-158.58119593 81.72532418 -153.20414659 79.59760125 -146.125 80.4375 C-128.4708672 85.07896214 -112.15557468 99.0439844 -100.125 112.4375 C-99.795 113.0975 -99.465 113.7575 -99.125 114.4375 C-98.51914063 113.30054688 -97.91328125 112.16359375 -97.2890625 110.9921875 C-84.48257531 87.26586007 -66.76134833 62.58373841 -41.125 51.4375 C-40.465 51.4375 -39.805 51.4375 -39.125 51.4375 C-39.14594727 50.19661621 -39.16689453 48.95573242 -39.18847656 47.67724609 C-39.2610537 43.05920011 -39.30686421 38.44120423 -39.34472656 33.82275391 C-39.36480169 31.82657382 -39.39206789 29.83045225 -39.42675781 27.83447266 C-39.47545657 24.9598138 -39.49800986 22.0859346 -39.515625 19.2109375 C-39.53627014 18.32320648 -39.55691528 17.43547546 -39.57818604 16.52084351 C-39.58017951 10.97560071 -38.83479474 7.83049975 -35.125 3.4375 C-26.12703023 -4.48928289 -11.10424131 -3.14194978 0 0 Z M-22.125 15.4375 C-22.125 26.3275 -22.125 37.2175 -22.125 48.4375 C-17.7848089 44.10124089 -17.7848089 44.10124089 -14.01171875 39.44921875 C-13.48642578 38.74345703 -12.96113281 38.03769531 -12.41992188 37.31054688 C-11.88947266 36.58931641 -11.35902344 35.86808594 -10.8125 35.125 C-10.26271484 34.38443359 -9.71292969 33.64386719 -9.14648438 32.88085938 C-7.80227821 31.06910324 -6.46191256 29.254641 -5.125 27.4375 C-1.28836928 28.78679464 1.52672569 30.51501025 4.6875 33.0625 C5.47769531 33.69414062 6.26789063 34.32578125 7.08203125 34.9765625 C7.67371094 35.45867187 8.26539063 35.94078125 8.875 36.4375 C5.07024166 42.40405284 0.95263424 47.94010621 -3.5859375 53.37109375 C-5.32410946 55.27540278 -5.32410946 55.27540278 -5.125 57.4375 C3.13718593 55.84304307 10.93788986 53.17731931 18.875 50.4375 C17.5764875 40.24320786 14.75436704 31.19841844 7.03515625 24.0390625 C-2.53552535 16.94325879 -10.35022501 15.4375 -22.125 15.4375 Z M-53.125 81.4375 C-54.115 82.7575 -55.105 84.0775 -56.125 85.4375 C-49.195 86.4275 -42.265 87.4175 -35.125 88.4375 C-33.13536447 85.71833144 -31.14773714 82.99764205 -29.17578125 80.265625 C-28.02523191 78.67896267 -26.86434371 77.09927575 -25.66796875 75.546875 C-23.7928075 73.02899064 -23.09985763 71.81463562 -23.3125 68.625 C-23.93206046 66.49155464 -23.93206046 66.49155464 -25.125 65.4375 C-34.47653708 64.22868372 -46.64545949 75.48332764 -53.125 81.4375 Z M47.875 78.4375 C46.72257812 79.34628906 46.72257812 79.34628906 45.546875 80.2734375 C26.53365267 96.02914971 13.75167755 122.20371492 11.44140625 146.625 C10.98800312 152.39016023 10.62616948 157.75568628 11.875 163.4375 C21.94090997 163.6462139 32.00630379 163.80603488 42.07393837 163.90380955 C46.74912669 163.95074289 51.42283282 164.0143726 56.09716797 164.11645508 C60.61010615 164.21439373 65.12162102 164.26808665 69.63554001 164.29139519 C71.35570056 164.30799985 73.07578482 164.34042864 74.79533768 164.38907051 C84.0819814 165.00086679 84.0819814 165.00086679 92.2297821 161.49154663 C93.79646398 159.18039662 94.86469127 157.03236674 95.875 154.4375 C96.51566406 153.3340625 97.15632813 152.230625 97.81640625 151.09375 C105.15979403 136.79626247 109.04206392 122.29783283 109.125 106.1875 C109.145625 105.20136719 109.16625 104.21523437 109.1875 103.19921875 C109.2456113 92.17259912 106.43227017 81.4056589 98.76171875 73.16796875 C91.78714076 66.66226996 85.95039331 64.8823671 76.4453125 65.06640625 C65.24744188 66.23029871 56.38871221 71.37799329 47.875 78.4375 Z M-152.8515625 99.5390625 C-160.73157164 111.28656079 -151.95972497 143.11414651 -149.5 156.1875 C-148.99508904 160.13217128 -148.99508904 160.13217128 -147.125 163.4375 C-145.56327255 163.52435603 -143.99770656 163.54452219 -142.43359375 163.53515625 C-141.48935547 163.53193359 -140.54511719 163.52871094 -139.57226562 163.52539062 C-138.08243164 163.51282227 -138.08243164 163.51282227 -136.5625 163.5 C-135.56541016 163.49548828 -134.56832031 163.49097656 -133.54101562 163.48632812 C-131.06895151 163.47450007 -128.59700482 163.45801849 -126.125 163.4375 C-130.61313865 153.39120289 -135.7181697 145.57458118 -143.125 137.4375 C-141.64778578 133.98548361 -139.68705999 131.78788064 -137 129.1875 C-136.27554688 128.48109375 -135.55109375 127.7746875 -134.8046875 127.046875 C-134.25039062 126.51578125 -133.69609375 125.9846875 -133.125 125.4375 C-128.87955138 126.99482578 -126.55906217 130.16498787 -123.875 133.625 C-123.39482422 134.23996338 -122.91464844 134.85492676 -122.41992188 135.48852539 C-115.91865811 144.05768447 -111.2686382 153.54582711 -107.125 163.4375 C-102.175 163.4375 -97.225 163.4375 -92.125 163.4375 C-95.57343376 149.42823786 -103.02036026 137.49095895 -112.125 126.4375 C-112.89585937 125.50164062 -113.66671875 124.56578125 -114.4609375 123.6015625 C-123.36639162 113.31273687 -134.69543425 104.16838375 -147.125 98.4375 C-150.90431785 98.07892504 -150.90431785 98.07892504 -152.8515625 99.5390625 Z M-71.125 101.4375 C-76.98031654 111.33949086 -82.81659847 121.34716268 -86.125 132.4375 C-85.795 133.4275 -85.465 134.4175 -85.125 135.4375 C-78.73340967 133.89420825 -72.3431705 132.3454172 -65.95385742 130.79272461 C-63.77838655 130.26475137 -61.60260514 129.73805601 -59.42651367 129.21264648 C-56.30565939 128.45889588 -53.1859367 127.70061447 -50.06640625 126.94140625 C-49.08724747 126.70595596 -48.10808868 126.47050568 -47.09925842 126.22792053 C-46.19840012 126.00776779 -45.29754181 125.78761505 -44.36938477 125.56079102 C-43.57218521 125.36759781 -42.77498566 125.1744046 -41.95362854 124.97535706 C-40.12351088 124.59562456 -40.12351088 124.59562456 -39.125 123.4375 C-39.03868126 122.09482587 -39.01793527 120.74775678 -39.02734375 119.40234375 C-39.03056641 118.59345703 -39.03378906 117.78457031 -39.03710938 116.95117188 C-39.04548828 116.10103516 -39.05386719 115.25089844 -39.0625 114.375 C-39.06701172 113.52099609 -39.07152344 112.66699219 -39.07617188 111.78710938 C-39.08799627 109.67054337 -39.10593231 107.55401315 -39.125 105.4375 C-41.81224704 104.95687876 -44.49978033 104.47796504 -47.1875 104 C-48.31575195 103.79793945 -48.31575195 103.79793945 -49.46679688 103.59179688 C-56.75110694 102.29891067 -63.71320815 101.30746856 -71.125 101.4375 Z M-47.41796875 143.37109375 C-48.20520828 143.56848648 -48.99244781 143.76587921 -49.80354309 143.96925354 C-51.46079201 144.38599418 -53.11733226 144.80556198 -54.77319336 145.2277832 C-57.31271877 145.87505576 -59.85435108 146.51344596 -62.39648438 147.15039062 C-64.00794281 147.55677529 -65.61927549 147.96365903 -67.23046875 148.37109375 C-68.37264107 148.65864784 -68.37264107 148.65864784 -69.53788757 148.95201111 C-73.42832281 149.921194 -73.42832281 149.921194 -77.125 151.4375 C-76.64994322 153.25108154 -76.16983958 155.06334179 -75.6875 156.875 C-75.42066406 157.88433594 -75.15382813 158.89367187 -74.87890625 159.93359375 C-74.36521923 162.35502001 -74.36521923 162.35502001 -73.125 163.4375 C-71.52889018 163.53083705 -69.92866572 163.55495372 -68.32983398 163.55102539 C-66.79835976 163.55091209 -66.79835976 163.55091209 -65.23594666 163.55079651 C-64.1255452 163.54563522 -63.01514374 163.54047394 -61.87109375 163.53515625 C-60.74051041 163.5337413 -59.60992706 163.53232635 -58.44508362 163.53086853 C-54.81752935 163.52525019 -51.19003576 163.51269458 -47.5625 163.5 C-45.11002693 163.49498736 -42.6575529 163.49042405 -40.20507812 163.48632812 C-34.17836455 163.4752748 -28.15168661 163.45851884 -22.125 163.4375 C-24.0394805 158.58258577 -26.3586217 154.15607778 -28.9375 149.625 C-29.36353516 148.83673828 -29.78957031 148.04847656 -30.22851562 147.23632812 C-30.65455078 146.49189453 -31.08058594 145.74746094 -31.51953125 144.98046875 C-31.89956299 144.30008545 -32.27959473 143.61970215 -32.67114258 142.91870117 C-34.03694768 141.23371332 -34.03694768 141.23371332 -36.26953125 141.09521484 C-40.06769153 141.55050047 -43.71968309 142.42261499 -47.41796875 143.37109375 Z M-170.125 180.4375 C-170.125 185.7175 -170.125 190.9975 -170.125 196.4375 C-78.055 196.4375 14.015 196.4375 108.875 196.4375 C108.875 191.1575 108.875 185.8775 108.875 180.4375 C16.805 180.4375 -75.265 180.4375 -170.125 180.4375 Z M-144.125 213.4375 C-143.44770777 223.59688352 -142.67753127 233.49939554 -141.375 243.5625 C-141.230625 244.83609375 -141.08625 246.1096875 -140.9375 247.421875 C-140.77765625 248.64648438 -140.6178125 249.87109375 -140.453125 251.1328125 C-140.3180957 252.22609863 -140.18306641 253.31938477 -140.04394531 254.44580078 C-138.83412355 258.38447132 -137.3543625 259.8786543 -134.125 262.4375 C-131.12486087 262.92985029 -128.6943711 263.11484729 -125.69885254 263.07241821 C-124.42979309 263.08411814 -124.42979309 263.08411814 -123.13509607 263.09605443 C-120.30120914 263.11599231 -117.46866243 263.1002031 -114.63476562 263.08447266 C-112.60274979 263.09124798 -110.5707401 263.10015063 -108.53874207 263.11102295 C-103.02013048 263.13383282 -97.50198584 263.12497279 -91.98336601 263.10912752 C-86.21078092 263.09647739 -80.43823606 263.10820618 -74.66564941 263.11605835 C-64.97119969 263.12515747 -55.27694036 263.11316 -45.58251953 263.08935547 C-34.37100864 263.06214383 -23.15995235 263.0709578 -11.94845247 263.0984875 C-2.32623287 263.12116997 7.29584979 263.12438282 16.91808748 263.11129415 C22.66667413 263.10349495 28.41504704 263.10247108 34.16362 263.11897659 C39.5679066 263.13340941 44.97160654 263.12342092 50.3758297 263.09450531 C52.36039442 263.0878882 54.34500843 263.08980279 56.3295536 263.10081863 C59.03665535 263.114461 61.74187134 263.09737488 64.44885254 263.07241821 C65.63002978 263.08914863 65.63002978 263.08914863 66.83506918 263.10621703 C70.8764979 263.03382711 72.66560717 262.60674414 75.85092926 260.03217125 C77.82567873 257.5007253 78.56762703 256.25854293 78.94921875 253.13671875 C79.11296997 251.92967285 79.11296997 251.92967285 79.2800293 250.69824219 C79.37324463 249.84907227 79.46645996 248.99990234 79.5625 248.125 C79.7322937 246.80290527 79.7322937 246.80290527 79.90551758 245.45410156 C80.134843 243.65135349 80.35517052 241.84743759 80.56640625 240.04248047 C80.85104921 237.63967957 81.1673354 235.24420994 81.5 232.84765625 C82.39149568 226.28327887 82.875 220.1074114 82.875 213.4375 C7.965 213.4375 -66.945 213.4375 -144.125 213.4375 Z " fill="#000000" transform="translate(303.125,133.5625)"/>
<path d="M0 0 C7.32541618 5.25096204 12.77011724 12.39369151 14.3125 21.375 C15.45974198 32.12555969 14.07060933 41.34142791 7.2578125 49.98046875 C1.00482686 56.61209539 -5.77570198 60.95074155 -15.0078125 61.61328125 C-27.43521725 61.85570496 -35.31225976 59.62228079 -44.484375 50.8828125 C-51.06152621 43.39605527 -53.08308021 35.10873263 -52.96484375 25.34765625 C-52.10003005 16.07831505 -47.7507186 7.65103874 -40.65234375 1.65625 C-27.97657962 -7.46493477 -13.34765957 -8.15816205 0 0 Z M-33.125 19.5 C-35.34743696 23.97373674 -35.47739543 28.49860472 -34.6875 33.375 C-32.34690814 38.23622924 -29.46016043 40.89688785 -24.6875 43.375 C-20.37542573 44.65720538 -17.34125078 44.56336887 -13 43.3125 C-7.59114946 40.1488327 -4.85939159 36.885381 -3.1875 30.9375 C-2.36927117 26.30086997 -3.250708 23.46252207 -5.6875 19.375 C-8.90774212 15.65933601 -11.84242406 12.82726716 -16.80078125 12.0390625 C-24.22341338 11.90722179 -28.52055809 13.59686934 -33.125 19.5 Z " fill="#000000" transform="translate(390.6875,219.625)"/>
<path d="M0 0 C5.61 0 11.22 0 17 0 C17 22.11 17 44.22 17 67 C11.39 67 5.78 67 0 67 C0 44.89 0 22.78 0 0 Z " fill="#000000" transform="translate(99,57)"/>
<path d="M0 0 C5.61 0 11.22 0 17 0 C17 5.61 17 11.22 17 17 C11.39 17 5.78 17 0 17 C0 11.39 0 5.78 0 0 Z " fill="#000000" transform="translate(99,140)"/>
</svg>
