<?xml version="1.0" encoding="UTF-8"?>
<svg version="1.1" xmlns="http://www.w3.org/2000/svg" width="512" height="512">
<path d="M0 0 C1.04040069 -0.10436975 1.04040069 -0.10436975 2.10181957 -0.21084797 C4.41194064 -0.43800522 6.72294798 -0.65257124 9.03456116 -0.86398315 C9.84916337 -0.93950519 10.66376558 -1.01502723 11.50305271 -1.09283781 C34.20270966 -3.17215338 56.94150318 -4.40654923 79.71839905 -5.23849487 C81.29877394 -5.29837869 81.29877394 -5.29837869 82.91107559 -5.35947227 C132.50946852 -7.19293364 178.27559178 -8.11672438 216.69923455 26.86696208 C224.03183036 33.69868192 230.73531402 41.05665856 237.28089905 48.63650513 C237.77521596 49.20604259 238.26953288 49.77558004 238.7788291 50.36237621 C274.87498792 92.04725956 274.87498792 92.04725956 274.92616272 107.22805786 C274.9357325 109.1554203 274.9357325 109.1554203 274.94549561 111.12171936 C274.94702431 112.52117882 274.94813825 113.92063878 274.9488678 115.32009888 C274.95208254 116.75972019 274.95544678 118.19934117 274.95895386 119.63896179 C274.96493598 122.65418251 274.96679467 125.6693746 274.96620178 128.68460083 C274.96610014 132.54256109 274.97975857 136.40033739 274.99697399 140.25825405 C275.00810759 143.23085875 275.01012058 146.20341914 275.00959206 149.17604256 C275.01076988 150.5981618 275.01518056 152.02028226 275.02292442 153.44238091 C275.03275249 155.43341566 275.02857475 157.42450453 275.02381897 159.41555786 C275.02524399 160.547108 275.02666901 161.67865814 275.02813721 162.84449768 C274.71908896 166.64701372 273.65613455 169.47640349 271.65589905 172.69900513 C269.13637542 174.29470342 266.74626536 174.29791072 263.8160553 174.38259888 C260.83429363 173.6557587 259.70002398 172.25021594 257.78089905 169.88650513 C257.29988098 167.12765503 257.29988098 167.12765503 257.32679749 163.92459106 C257.32725067 162.12317657 257.32725067 162.12317657 257.32771301 160.28536987 C257.34835815 158.99358826 257.3690033 157.70180664 257.39027405 156.37088013 C257.39773834 155.03139084 257.40343039 153.6918906 257.40742493 152.35238647 C257.42266692 148.83399076 257.46193487 145.31625997 257.50624084 141.79812622 C257.54722541 138.20528152 257.56544265 134.61232893 257.58558655 131.01931763 C257.6284316 123.97477546 257.69666458 116.9306838 257.78089905 109.88650513 C256.84701103 109.8998288 256.84701103 109.8998288 255.89425659 109.91342163 C249.35566991 110.00260329 242.81725878 110.06253026 236.2782135 110.10623169 C233.84487376 110.12622335 231.4115813 110.15342586 228.97840881 110.18826294 C209.30378362 110.46269874 193.34700449 109.75108073 178.09339905 95.88650513 C167.60534294 84.89636123 164.44705416 71.44090828 164.58558655 56.73025513 C164.58841644 55.58738037 164.59124634 54.44450562 164.59416199 53.26699829 C164.6052988 49.64005781 164.63039164 46.01337016 164.65589905 42.38650513 C164.66593724 39.91775871 164.67506162 37.4490084 164.6832428 34.98025513 C164.70521685 28.94891981 164.73862948 22.91773054 164.78089905 16.88650513 C143.9962914 16.970542 123.21176108 17.06572546 102.42726517 17.17403221 C92.77579062 17.22406804 83.12432417 17.27051172 73.47279358 17.30838013 C65.05657258 17.34141096 56.64041623 17.38130278 48.22426677 17.42929518 C43.77158205 17.45445032 39.31893961 17.47626351 34.86620331 17.48984909 C30.66700116 17.50276983 26.46794483 17.52492992 22.26882362 17.55388832 C20.73550058 17.56288647 19.20215411 17.56863595 17.66880608 17.57071877 C2.93902717 17.59429029 -9.04322998 18.71043813 -21.46910095 27.07400513 C-31.68205431 37.51907106 -33.67288314 49.1841161 -33.60678101 63.25805664 C-33.61095874 64.70991843 -33.61643867 66.16177695 -33.62310082 67.61362946 C-33.6375166 71.58547816 -33.63332287 75.55711867 -33.625934 79.52897859 C-33.62119502 83.81947909 -33.63371866 88.10993502 -33.64395142 92.40042114 C-33.66113058 100.79904444 -33.66198124 109.19759288 -33.65673851 117.59622918 C-33.65269385 124.42420816 -33.65414389 131.25216505 -33.65948677 138.08014297 C-33.6606094 139.53894067 -33.6606094 139.53894067 -33.66175472 141.02720902 C-33.66328623 143.00303618 -33.66482457 144.97886333 -33.66636968 146.95469047 C-33.68009159 165.47569466 -33.67465926 183.99665658 -33.66318447 202.5176598 C-33.65325296 219.45199776 -33.66619191 236.38622645 -33.69011866 253.32054757 C-33.71451647 270.71969791 -33.72411582 288.11879738 -33.71746594 305.51796448 C-33.71397517 315.28187432 -33.71619639 325.04570013 -33.73371696 334.80959702 C-33.74844747 343.12157176 -33.7490633 351.4334033 -33.73164605 359.74537526 C-33.72314058 363.98374793 -33.72097533 368.22186489 -33.73629761 372.46022415 C-33.75016835 376.34526232 -33.74535129 380.22982628 -33.72605837 384.11483718 C-33.72230532 385.51515702 -33.72520024 386.91551505 -33.73567002 388.31580077 C-33.8202015 400.49398655 -31.47202684 411.52022949 -23.21910095 420.88650513 C-12.49829646 430.27405795 -0.92383311 432.04659976 12.86911011 432.0202179 C13.75023159 432.02248345 14.63135308 432.02474901 15.53917521 432.02708322 C18.47368591 432.03338246 21.40814994 432.03259649 24.34266663 432.0317688 C26.4540513 432.03476282 28.56543543 432.03816591 30.67681885 432.04194641 C36.4000446 432.05076556 42.12325539 432.05312364 47.84648728 432.0537622 C51.42529534 432.05447385 55.00409961 432.05661035 58.58290672 432.05925941 C71.07704789 432.06850573 83.5711784 432.07259517 96.06532288 432.07180786 C107.69755674 432.07120717 119.32974421 432.08175924 130.96196634 432.09755152 C140.96136976 432.11064156 150.96075805 432.11599115 160.96016997 432.11535245 C166.92682031 432.11509791 172.8934294 432.11792508 178.86007118 432.1285305 C184.47352325 432.13823617 190.08689484 432.13827372 195.70034981 432.13101387 C197.75497302 432.12997112 199.80960131 432.13231244 201.86421585 432.13837433 C224.96726079 432.32070034 224.96726079 432.32070034 245.14027405 421.91384888 C254.51384084 412.20551184 256.90203058 400.49777699 256.90687561 387.43240356 C256.90874374 386.73540344 256.91061188 386.03840332 256.91253662 385.32028198 C256.91650721 383.82313146 256.91861235 382.32597501 256.91899872 380.82881927 C256.92334451 376.81411169 256.95441997 372.79955983 256.9801178 368.78494263 C257.01053787 363.69342048 257.03320767 358.60215029 257.03138733 353.51052856 C257.03060116 349.37724165 257.05390557 345.24470214 257.09326935 341.11161041 C257.10373039 339.54077767 257.10525253 337.96985872 257.0976181 336.3990097 C257.08801313 334.20618705 257.10913419 332.01564496 257.13734436 329.82302856 C257.14098999 328.57696838 257.14463562 327.3309082 257.14839172 326.04708862 C257.78089905 322.88650513 257.78089905 322.88650513 260.13362122 320.48422241 C263.39478252 318.51600671 265.03145132 318.26159717 268.78089905 318.88650513 C273.36654958 321.73979879 273.36654958 321.73979879 274.40853882 324.62348938 C274.8907991 327.55442165 274.91634713 330.37343529 274.92616272 333.34475708 C274.9357325 335.31379753 274.9357325 335.31379753 274.94549561 337.32261658 C274.94702589 338.7566728 274.94813899 340.19072952 274.9488678 341.62478638 C274.95208544 343.10771211 274.95544989 344.59063754 274.95895386 346.07356262 C274.9649429 349.18805677 274.96679436 352.3025232 274.96620178 355.41702271 C274.96610102 359.36591925 274.97966406 363.31463247 274.99697399 367.26348591 C275.00822477 370.33257321 275.01011691 373.40161832 275.00959206 376.47072411 C275.01075603 377.92365326 275.01508637 379.37658409 275.02292442 380.82949257 C275.1229044 401.30452201 272.77582882 419.65720166 257.78089905 434.88650513 C250.77955486 441.12707333 242.80410156 445.35579057 233.78089905 447.88650513 C233.15843953 448.06227197 232.53598001 448.23803882 231.89465809 448.41913193 C229.73292234 448.89711326 227.83223009 449.01517071 225.62091064 449.0207262 C224.79478209 449.02518405 223.96865353 449.02964189 223.11749077 449.03423482 C222.21517282 449.03405046 221.31285488 449.0338661 220.38319397 449.03367615 C218.93906474 449.03919118 218.93906474 449.03919118 217.46576118 449.04481763 C214.23095802 449.0558544 210.99618698 449.05969834 207.7613678 449.06350708 C205.44530129 449.06977183 203.12923579 449.07641864 200.81317139 449.0834198 C193.1982544 449.10446459 185.5833372 449.1148239 177.96839905 449.12478638 C175.34610483 449.12883405 172.72381072 449.13295097 170.10151672 449.13713646 C159.1914245 449.154007 148.28133435 449.16864063 137.37123108 449.1758852 C134.54115294 449.17779496 131.71107481 449.17971531 128.8809967 449.18167114 C128.17763073 449.18215488 127.47426476 449.18263862 126.74958467 449.18313702 C115.36710896 449.19142923 103.98473862 449.21675247 92.60230887 449.24925182 C80.90423382 449.28237875 69.2062122 449.30033913 57.50809002 449.30352944 C50.94493381 449.30587792 44.3819441 449.31481213 37.8188324 449.33999062 C31.63986054 449.36331184 25.46116431 449.36748805 19.28215981 449.35722923 C17.01993199 449.35673472 14.75769043 449.36303 12.49550438 449.37678528 C-9.46149946 449.50277476 -9.46149946 449.50277476 -19.21910095 444.88650513 C-20.03774628 444.50852941 -20.8563916 444.13055368 -21.69984436 443.74112415 C-35.53081461 437.01920603 -44.10179656 424.92725648 -49.27378845 410.86697388 C-50.79496389 406.07087116 -51.34468617 401.77427307 -51.35052872 396.74220848 C-51.35436986 395.4989481 -51.35821101 394.25568772 -51.36216855 392.97475278 C-51.36138836 391.59787387 -51.36050958 390.22099501 -51.35954285 388.84411621 C-51.36212729 387.37921083 -51.36514067 385.91430615 -51.36854625 384.44940245 C-51.37661031 380.42297213 -51.37840549 376.39655964 -51.37914371 372.37012219 C-51.38099532 368.0277593 -51.38854324 363.68540564 -51.39527893 359.3430481 C-51.4088589 349.84704194 -51.41488654 340.35104001 -51.41928959 330.85502577 C-51.42205277 324.92456568 -51.42629028 318.99410721 -51.43079376 313.06364822 C-51.44298635 296.64105774 -51.45328545 280.21846856 -51.45666885 263.79587364 C-51.45688842 262.74484682 -51.45710799 261.69382001 -51.45733421 260.61094389 C-51.45755248 259.55741296 -51.45777076 258.50388203 -51.45799565 257.41842592 C-51.45843912 255.28359946 -51.45888568 253.14877299 -51.45933533 251.01394653 C-51.45955676 249.9550006 -51.45977819 248.89605466 -51.46000633 247.80501945 C-51.4639534 230.65058769 -51.4814047 213.49619844 -51.50469485 196.34178309 C-51.5284184 178.72580668 -51.54087117 161.10985158 -51.54203677 143.49385893 C-51.542953 133.60470174 -51.54869226 123.71559991 -51.56685638 113.82645798 C-51.58227095 105.40462117 -51.58736985 96.98285685 -51.57911828 88.56100862 C-51.57521649 84.26599135 -51.57611829 79.97111999 -51.59017563 75.67612076 C-51.60294286 71.73919319 -51.60169242 67.80252074 -51.58958492 63.86559339 C-51.58763278 62.44630778 -51.59068388 61.02700391 -51.59942928 59.6077439 C-51.69675016 42.73689608 -47.38149974 28.44629553 -35.50035095 16.07009888 C-25.593078 6.58693864 -13.66862743 1.36167015 0 0 Z M181.78089905 29.88650513 C181.68105416 34.95440099 181.60897645 40.02170814 181.56117249 45.09036255 C181.54121756 46.80986522 181.51404347 48.52930145 181.47914124 50.24856567 C181.22514128 63.09423976 181.43934092 74.34552143 190.85902405 84.16775513 C198.58158839 91.07411348 206.39864428 93.21745273 216.5582428 93.08181763 C217.77526634 93.07757278 217.77526634 93.07757278 219.01687622 93.07324219 C221.58420657 93.06213175 224.15117582 93.03704484 226.71839905 93.01150513 C228.46904502 93.00146349 230.21969651 92.99233972 231.97035217 92.98416138 C236.24067159 92.96222246 240.5107243 92.92775672 244.78089905 92.88650513 C238.98185715 85.79135066 232.45788073 79.41831892 225.9801178 72.95291138 C224.73540896 71.70752816 223.49084854 70.46199659 222.24642944 69.21632385 C219.65171109 66.62013813 217.05520965 64.02575282 214.45741272 61.43264771 C211.12035236 58.1013199 207.78784947 54.76547456 204.45663738 51.4282999 C201.89435778 48.8624191 199.32971662 46.29890945 196.76433754 43.73612785 C195.53354716 42.50600612 194.30350349 41.2751368 193.07420921 40.04351997 C191.36515079 38.33193843 189.65294869 36.62356703 187.93983459 34.91604614 C187.42921478 34.4034021 186.91859497 33.89075806 186.39250183 33.36257935 C184.42532063 30.94510492 184.42532063 30.94510492 181.78089905 29.88650513 Z " fill="#000000" transform="translate(107.21910095214844,31.113494873046875)"/>
<path d="M0 0 C8.12168105 6.56297459 11.85635309 14.07374447 13.13671875 24.35546875 C13.71016488 35.02156683 10.08510984 42.63469295 3.05540466 50.47822571 C-3.54451712 57.75355511 -10.44725271 64.73446417 -17.32788086 71.74291992 C-18.84057398 73.28649202 -20.35321703 74.83011318 -21.86581421 76.3737793 C-35.67335154 90.45504143 -49.5388729 104.47916461 -63.42064571 118.48720837 C-72.72359575 127.87681684 -82.00787611 137.28344719 -91.24731445 146.7355957 C-99.34201085 155.01660711 -107.47084804 163.26232198 -115.64078432 171.46913606 C-119.9469402 175.7969369 -124.23584069 180.1388536 -128.48411369 184.52355003 C-147.09637652 203.70844657 -163.84525101 219.33085479 -189.42071122 228.16154093 C-196.4739629 230.60091585 -203.21089675 233.70231039 -209.98531902 236.8197664 C-226.09820378 244.21873565 -226.09820378 244.21873565 -233.25 243.25 C-236.28233665 241.22844223 -237.06976183 239.95631064 -237.96826172 236.43530273 C-238.28475484 232.85706546 -237.77547959 231.16214091 -236.3203125 227.91015625 C-235.65700251 226.41985445 -235.65700251 226.41985445 -234.98029232 224.89944553 C-233.91738792 222.52443873 -232.84443689 220.15390055 -231.76107883 217.78815365 C-228.9075779 211.51754795 -226.19232419 205.26252811 -223.92241031 198.75440234 C-213.68815463 169.47336328 -196.57246966 150.49920798 -174.53731847 129.17492557 C-169.95044473 124.71310742 -165.42658216 120.18814704 -160.89439392 115.6709137 C-153.30569449 108.12413622 -145.67911618 100.61827148 -138.02124023 93.1418457 C-130.1714738 85.47790669 -122.35178793 77.78501367 -114.56616211 70.0559082 C-114.08342817 69.57669257 -113.60069423 69.09747693 -113.10333199 68.60373961 C-111.16181796 66.67622035 -109.22040121 64.74860318 -107.27913809 62.82083121 C-98.44454105 54.04899897 -89.58477875 45.30260389 -80.72265625 36.55859375 C-79.83157268 35.67872763 -78.94048911 34.79886152 -78.022403 33.89233279 C-72.90286754 28.8391758 -67.77288954 23.79707615 -62.62632751 18.77144241 C-61.07436169 17.25338775 -59.52554396 15.7321066 -57.98020744 14.207304 C-41.33889322 -2.20113947 -22.50500979 -15.57057388 0 0 Z M-37.125 18.9375 C-37.62257813 19.44861328 -38.12015625 19.95972656 -38.6328125 20.48632812 C-39.84558176 21.73408112 -41.04880719 22.99109864 -42.25 24.25 C-40.7108199 27.91752005 -38.49514548 30.23580573 -35.6796875 33.015625 C-34.78378906 33.90507812 -33.88789063 34.79453125 -32.96484375 35.7109375 C-31.55912109 37.09152344 -31.55912109 37.09152344 -30.125 38.5 C-29.17011363 39.44484856 -28.21568141 40.39015633 -27.26171875 41.3359375 C-24.92890913 43.64518338 -22.59155914 45.94963203 -20.25 48.25 C-13.53485389 45.0410695 -7.81171788 39.25496 -4.8203125 32.3828125 C-3.68516075 28.13765595 -3.8856792 24.41546253 -5.25 20.25 C-7.75383074 16.24387081 -10.6651928 13.22526597 -14.6875 10.75 C-24.62778322 8.81043254 -30.37832321 11.83332267 -37.125 18.9375 Z M-58.88627869 40.75719738 C-59.66399003 41.53927799 -59.66399003 41.53927799 -60.45741272 42.3371582 C-61.00546316 42.88435422 -61.5535136 43.43155024 -62.11817163 43.99532795 C-63.96927347 45.84477176 -65.81675911 47.69778726 -67.66430664 49.55078125 C-68.98441973 50.87117617 -70.30475257 52.19135141 -71.62528992 53.51132202 C-75.22240051 57.10814447 -78.81640905 60.70805246 -82.40989232 64.30849838 C-86.16108599 68.06592278 -89.915092 71.82053518 -93.66880798 75.57543945 C-100.78230392 82.69204954 -107.89324587 89.81120599 -115.00328678 96.93126774 C-123.09550891 105.03464843 -131.19055432 113.13520621 -139.28584492 121.23552132 C-155.94371953 137.9038622 -172.59802336 154.57576708 -189.25 171.25 C-187.55145963 174.87083128 -185.53895218 177.19255354 -182.6796875 180.015625 C-181.78378906 180.90507812 -180.88789063 181.79453125 -179.96484375 182.7109375 C-179.02769531 183.63132812 -178.09054687 184.55171875 -177.125 185.5 C-176.17011363 186.44484856 -175.21568141 187.39015633 -174.26171875 188.3359375 C-171.92890913 190.64518338 -169.59155914 192.94963203 -167.25 195.25 C-163.32429348 193.65821971 -160.68359082 190.95805719 -157.75775146 187.9982605 C-157.21530485 187.45752274 -156.67285824 186.91678498 -156.11397386 186.35966122 C-154.2974326 184.54641438 -152.48813228 182.72611144 -150.67871094 180.90576172 C-149.37807444 179.6045611 -148.07699743 178.30380068 -146.7755127 177.00344849 C-143.24244401 173.47095427 -139.71558124 169.93232188 -136.18978405 166.39257193 C-132.50446442 162.69476067 -128.81349072 159.00260198 -125.12310791 155.30984497 C-118.13519806 148.31571575 -111.15240266 141.31650331 -104.17142129 134.31545937 C-96.22379013 126.34548347 -88.27048791 118.38117714 -80.3166995 110.41734672 C-63.95480599 94.03454084 -47.6000626 77.64461256 -31.25 61.25 C-32.20287388 60.13175701 -33.15668396 59.01431174 -34.11088562 57.89720154 C-34.64193751 57.27483832 -35.17298941 56.65247511 -35.72013378 56.0112524 C-37.57612741 53.87454711 -39.52012082 51.85041058 -41.51953125 49.84765625 C-42.26267578 49.10322266 -43.00582031 48.35878906 -43.77148438 47.59179688 C-44.90553711 46.46354492 -44.90553711 46.46354492 -46.0625 45.3125 C-46.83787109 44.53326172 -47.61324219 43.75402344 -48.41210938 42.95117188 C-49.5171582 41.84805664 -49.5171582 41.84805664 -50.64453125 40.72265625 C-51.31331299 40.05500244 -51.98209473 39.38734863 -52.67114258 38.69946289 C-55.63198835 35.98127186 -56.40233156 38.28380063 -58.88627869 40.75719738 Z M-199.25 187.25 C-202.83190911 194.81651807 -206.37898457 202.39926072 -209.75 210.0625 C-210.2553125 211.20332031 -210.760625 212.34414063 -211.28125 213.51953125 C-211.6009375 214.42058594 -211.920625 215.32164062 -212.25 216.25 C-211.92 216.91 -211.59 217.57 -211.25 218.25 C-196.4 211.815 -196.4 211.815 -181.25 205.25 C-185.0969986 200.76183497 -188.88337852 196.45722542 -193.0625 192.3125 C-193.55169922 191.81943359 -194.04089844 191.32636719 -194.54492188 190.81835938 C-196.5509598 188.34095022 -196.5509598 188.34095022 -199.25 187.25 Z " fill="#000000" transform="translate(443.25,201.75)"/>
<path d="M0 0 C0.67846513 -0.00709439 1.35693026 -0.01418877 2.05595493 -0.02149814 C4.32881428 -0.03909715 6.59996765 -0.02096629 8.87280273 -0.00291443 C10.50235778 -0.00805259 12.13190728 -0.01533309 13.76144409 -0.02459717 C18.18716327 -0.04313283 22.61228106 -0.0301592 27.03797531 -0.01050687 C31.66725124 0.0058632 36.29648858 -0.00293097 40.92578125 -0.00802612 C48.7002118 -0.01254893 56.47440191 0.00333427 64.2487793 0.03126526 C73.23981078 0.06331805 82.23040855 0.06330207 91.22147083 0.04605049 C99.86701209 0.03019223 108.51239418 0.03691443 117.15792847 0.0539875 C120.83890005 0.06086401 124.51974429 0.05981942 128.20071411 0.05244255 C132.53466878 0.04478701 136.86812929 0.05688159 141.20199966 0.08429146 C142.79351459 0.09118411 144.38507559 0.09126382 145.9765892 0.08407593 C148.14754377 0.07540015 150.31696664 0.09130238 152.48779297 0.11352539 C154.31068092 0.11773577 154.31068092 0.11773577 156.1703949 0.12203121 C159.83313001 0.72522668 161.00836339 1.72393488 163.24389648 4.62818909 C163.77514648 6.62818909 163.77514648 6.62818909 163.74389648 8.62818909 C163.75936523 9.61818909 163.75936523 9.61818909 163.77514648 10.62818909 C162.98810033 13.59118639 161.62828532 14.72474625 159.24389648 16.62818909 C156.1703949 17.13434696 156.1703949 17.13434696 152.48779297 17.14285278 C151.80932784 17.14979831 151.13086271 17.15674384 150.43183804 17.16389984 C148.1592207 17.18219127 145.88764476 17.17190054 143.61499023 17.16163635 C141.98543516 17.16869375 140.35588664 17.17743802 138.72634888 17.18774414 C134.30073127 17.21026692 129.87547079 17.20729193 125.44981766 17.19842267 C121.75677143 17.19331705 118.06379257 17.20060178 114.37075329 17.20789474 C105.66011366 17.22490256 96.94964918 17.22131861 88.23901367 17.2046051 C79.24793708 17.18767679 70.25734573 17.20352595 61.26632214 17.23582798 C53.54985806 17.26250222 45.83354524 17.26980595 38.11703968 17.2613129 C33.50694319 17.25637806 28.89713882 17.25862941 24.28707886 17.27910042 C19.95307119 17.29742405 15.61976312 17.29154007 11.2857933 17.26690102 C9.69426703 17.26188277 8.10268775 17.2654092 6.51120377 17.27804947 C4.33999317 17.29393151 2.17110025 17.27908034 0 17.25637817 C-1.21525864 17.25579186 -2.43051727 17.25520555 -3.68260193 17.25460148 C-6.75610352 16.62818909 -6.75610352 16.62818909 -9.14710999 14.27642727 C-11.12878224 11.01479817 -11.38212826 9.38433756 -10.75610352 5.62818909 C-7.74889839 0.67863815 -5.69442704 0.00274731 0 0 Z " fill="#000000" transform="translate(183.756103515625,183.37181091308594)"/>
<path d="M0 0 C1.03090004 -0.00058631 2.06180008 -0.00117262 3.12393951 -0.0017767 C4.31005325 -0.01443066 5.49616699 -0.02708462 6.71822357 -0.04012203 C8.01601242 -0.02842983 9.31380127 -0.01673763 10.65091705 -0.00469112 C12.03417122 -0.00983029 13.41741885 -0.01711155 14.80065155 -0.02637386 C18.55494215 -0.04489718 22.30852309 -0.03194418 26.06278419 -0.01228356 C29.99138089 0.00409696 33.91993243 -0.00470911 37.84854889 -0.00980282 C44.44603568 -0.01432447 51.04323903 0.00155026 57.64066315 0.02948856 C65.26842928 0.06154101 72.89568418 0.06152511 80.52348661 0.04427379 C87.86089457 0.02841044 95.19811508 0.03514096 102.53551483 0.05221081 C105.65827676 0.05908378 108.78088855 0.0580464 111.90364838 0.05066586 C115.58101659 0.04300501 119.25780296 0.05512159 122.93507195 0.08251476 C124.92857169 0.09268764 126.92214128 0.08321397 128.91564178 0.07318974 C130.69481239 0.09227642 130.69481239 0.09227642 132.50992584 0.1117487 C134.0562759 0.11595908 134.0562759 0.11595908 135.63386536 0.12025452 C139.01305288 0.75773475 140.19969307 1.97352228 142.31693268 4.62641239 C142.84818268 6.62641239 142.84818268 6.62641239 142.81693268 8.62641239 C142.83240143 9.61641239 142.83240143 9.61641239 142.84818268 10.62641239 C142.07023782 13.55514599 140.64438663 14.72111306 138.31693268 16.62641239 C135.63386536 17.13257027 135.63386536 17.13257027 132.50992584 17.14107609 C130.73075523 17.16016277 130.73075523 17.16016277 128.91564178 17.17963505 C127.61785294 17.17310917 126.32006409 17.16658329 124.9829483 17.15985966 C123.59969411 17.16691844 122.21644764 17.17566329 120.83321381 17.18596745 C117.07904309 17.20847502 113.32529367 17.20551894 109.57108116 17.19664598 C106.43722942 17.19153745 103.30345694 17.19882742 100.16961336 17.20611805 C92.77740588 17.223121 85.38540482 17.21954688 77.99320221 17.20282841 C70.36538291 17.18590025 62.73813558 17.20174981 55.11037874 17.23405129 C48.56162673 17.26073346 42.01305291 17.26802715 35.464252 17.25953621 C31.55277785 17.25460366 27.64164801 17.25684003 23.73021698 17.27732372 C20.05278629 17.29566013 16.37617963 17.2897486 12.69879341 17.26512432 C10.70526232 17.25771781 8.71168752 17.27498705 6.71822357 17.29294682 C5.53210983 17.28029285 4.34599609 17.26763889 3.12393951 17.25460148 C2.09303947 17.25401517 1.06213943 17.25342886 0 17.25282478 C-3.67159322 16.39562248 -4.71076799 14.75719259 -6.68306732 11.62641239 C-7.31472396 7.83647255 -7.06894838 6.23895064 -5.01475525 2.97817421 C-2.68306732 0.62641239 -2.68306732 0.62641239 0 0 Z " fill="#000000" transform="translate(179.68306732177734,247.3735876083374)"/>
<path d="M0 0 C0.74518387 -0.0071553 1.49036774 -0.01431061 2.25813293 -0.02168274 C4.71763705 -0.03857079 7.17531852 -0.0191688 9.63476562 0.00219727 C11.34582673 0.00136857 13.05688776 -0.00109086 14.76794434 -0.00511169 C18.35253892 -0.00796974 21.9365087 0.0067316 25.52099609 0.03417969 C30.11471159 0.06826298 34.70730982 0.06224462 39.3010788 0.04351711 C42.83389591 0.03294609 46.36645325 0.04188577 49.89924622 0.05690193 C51.59291309 0.06208349 53.2866071 0.06160225 54.98027039 0.05535698 C57.34811688 0.04990331 59.71436673 0.07028209 62.08203125 0.09765625 C62.78137283 0.09113037 63.48071442 0.08460449 64.20124817 0.07788086 C67.58334765 0.14433369 69.27826723 0.42501358 71.97399902 2.53944397 C73.67535143 4.81041545 74.08477297 5.83063357 74.04101562 8.63110352 C74.05648437 9.62110352 74.05648437 9.62110352 74.07226562 10.63110352 C73.27812317 13.6208163 71.96865288 14.72695637 69.54101562 16.63110352 C66.91546157 17.03120704 64.7060798 17.18903699 62.08203125 17.16455078 C60.96425545 17.17747414 60.96425545 17.17747414 59.82389832 17.19065857 C57.36466581 17.21333159 54.90657153 17.20657829 52.44726562 17.19750977 C50.73620261 17.20274454 49.02514248 17.20902048 47.31408691 17.21629333 C43.7295981 17.22669976 40.14550622 17.22213241 36.56103516 17.20751953 C31.96721111 17.19032487 27.37463702 17.21383315 22.78095245 17.24900913 C19.24814565 17.27096714 15.71563874 17.26954573 12.18278503 17.26124382 C10.48909636 17.26042353 8.79538583 17.26730175 7.10176086 17.28201485 C4.73372487 17.29943397 2.3679451 17.28494419 0 17.26220703 C-0.69934158 17.27389923 -1.39868317 17.28559143 -2.11921692 17.29763794 C-5.79341558 17.22584578 -7.21105799 16.87057956 -9.8939209 14.27915955 C-11.82174827 11.01731428 -12.08086383 9.36238022 -11.45898438 5.63110352 C-8.42965199 0.50553384 -5.63534251 -0.09421655 0 0 Z " fill="#000000" transform="translate(184.458984375,311.368896484375)"/>
<path d="M0 0 C2.82847039 2.60517009 3.8665852 4.1995112 4.5 8 C3.28295203 15.30228783 -3.91311117 19.17016876 -9.5 23.25 C-11.30773462 24.5788247 -13.11502787 25.90825006 -14.921875 27.23828125 C-15.79521484 27.87975098 -16.66855469 28.5212207 -17.56835938 29.18212891 C-19.65279284 30.74043127 -21.68793384 32.33442501 -23.703125 33.98046875 C-25.21132812 35.19669922 -25.21132812 35.19669922 -26.75 36.4375 C-27.59046875 37.13746094 -28.4309375 37.83742188 -29.296875 38.55859375 C-33.58181965 40.84348476 -37.52711713 40.72179087 -42.07519531 39.39428711 C-44.18009921 38.59437387 -46.20901011 37.70065118 -48.25 36.75 C-48.94351563 36.44964844 -49.63703125 36.14929688 -50.3515625 35.83984375 C-54.23227358 34.09278033 -57.31964291 32.4230253 -60 29 C-60.72125695 24.59231863 -60.52001338 22.74062512 -57.9375 19.0625 C-54.16200282 16.411619 -52.54877343 16.31768399 -48 17 C-45.66614342 18.00652578 -43.43584607 19.09139188 -41.2109375 20.3203125 C-38.15207937 21.26066818 -36.85869991 20.34606877 -34 19 C-31.85857243 17.58390446 -31.85857243 17.58390446 -29.8203125 15.91796875 C-29.05589844 15.31533203 -28.29148437 14.71269531 -27.50390625 14.09179688 C-26.71886719 13.46337891 -25.93382812 12.83496094 -25.125 12.1875 C-7.18093513 -2.05169575 -7.18093513 -2.05169575 0 0 Z " fill="#000000" transform="translate(151,288)"/>
<path d="M0 0 C2.82847039 2.60517009 3.8665852 4.1995112 4.5 8 C3.28295203 15.30228783 -3.91311117 19.17016876 -9.5 23.25 C-11.30773462 24.5788247 -13.11502787 25.90825006 -14.921875 27.23828125 C-15.79521484 27.87975098 -16.66855469 28.5212207 -17.56835938 29.18212891 C-19.65279284 30.74043127 -21.68793384 32.33442501 -23.703125 33.98046875 C-25.21132812 35.19669922 -25.21132812 35.19669922 -26.75 36.4375 C-27.59046875 37.13746094 -28.4309375 37.83742188 -29.296875 38.55859375 C-33.58181965 40.84348476 -37.52711713 40.72179087 -42.07519531 39.39428711 C-44.18009921 38.59437387 -46.20901011 37.70065118 -48.25 36.75 C-48.94351563 36.44964844 -49.63703125 36.14929688 -50.3515625 35.83984375 C-54.23227358 34.09278033 -57.31964291 32.4230253 -60 29 C-60.72125695 24.59231863 -60.52001338 22.74062512 -57.9375 19.0625 C-54.16200282 16.411619 -52.54877343 16.31768399 -48 17 C-45.66614342 18.00652578 -43.43584607 19.09139188 -41.2109375 20.3203125 C-38.15207937 21.26066818 -36.85869991 20.34606877 -34 19 C-31.85857243 17.58390446 -31.85857243 17.58390446 -29.8203125 15.91796875 C-29.05589844 15.31533203 -28.29148437 14.71269531 -27.50390625 14.09179688 C-26.71886719 13.46337891 -25.93382812 12.83496094 -25.125 12.1875 C-7.18093513 -2.05169575 -7.18093513 -2.05169575 0 0 Z " fill="#000000" transform="translate(151,224)"/>
<path d="M0 0 C2.82847039 2.60517009 3.8665852 4.1995112 4.5 8 C3.28295203 15.30228783 -3.91311117 19.17016876 -9.5 23.25 C-11.30773462 24.5788247 -13.11502787 25.90825006 -14.921875 27.23828125 C-15.79521484 27.87975098 -16.66855469 28.5212207 -17.56835938 29.18212891 C-19.65279284 30.74043127 -21.68793384 32.33442501 -23.703125 33.98046875 C-25.21132812 35.19669922 -25.21132812 35.19669922 -26.75 36.4375 C-27.59046875 37.13746094 -28.4309375 37.83742187 -29.296875 38.55859375 C-33.58181965 40.84348476 -37.52711713 40.72179087 -42.07519531 39.39428711 C-44.18009921 38.59437387 -46.20901011 37.70065118 -48.25 36.75 C-48.94351563 36.44964844 -49.63703125 36.14929688 -50.3515625 35.83984375 C-54.23227358 34.09278033 -57.31964291 32.4230253 -60 29 C-60.72125695 24.59231863 -60.52001338 22.74062512 -57.9375 19.0625 C-54.16200282 16.411619 -52.54877343 16.31768399 -48 17 C-45.66614342 18.00652578 -43.43584607 19.09139188 -41.2109375 20.3203125 C-38.15207937 21.26066818 -36.85869991 20.34606877 -34 19 C-31.85857243 17.58390446 -31.85857243 17.58390446 -29.8203125 15.91796875 C-29.05589844 15.31533203 -28.29148437 14.71269531 -27.50390625 14.09179688 C-26.71886719 13.46337891 -25.93382812 12.83496094 -25.125 12.1875 C-7.18093513 -2.05169575 -7.18093513 -2.05169575 0 0 Z " fill="#000000" transform="translate(151,160)"/>
</svg>
