<?xml version="1.0" encoding="UTF-8"?>
<svg version="1.1" xmlns="http://www.w3.org/2000/svg" width="512" height="512">
<path d="M0 0 C0.79506917 -0.00453111 1.59013833 -0.00906223 2.40930051 -0.01373065 C5.0645272 -0.02635695 7.71954831 -0.02475542 10.37480164 -0.02310181 C12.2822445 -0.02908817 14.18968493 -0.03589396 16.09712219 -0.04345703 C21.27283894 -0.0611134 26.44848953 -0.06581227 31.62423348 -0.0670886 C34.85962565 -0.06851098 38.09500103 -0.07278223 41.33038902 -0.07808304 C52.62271059 -0.0965822 63.91498495 -0.1047538 75.20732117 -0.10317993 C85.72513039 -0.10197861 96.24273438 -0.12307957 106.76049167 -0.15466726 C115.79763099 -0.18083882 124.83470331 -0.19154685 133.87188023 -0.19026911 C139.26622591 -0.18975974 144.66038918 -0.19542967 150.05469704 -0.21662521 C155.12977603 -0.23602229 160.20449888 -0.2361219 165.27959061 -0.22159195 C167.13832432 -0.21950458 168.99708041 -0.22420044 170.85577583 -0.23631287 C188.85739261 -0.34599049 188.85739261 -0.34599049 195.93608093 4.26742554 C196.65028356 4.71273432 197.36448618 5.1580431 198.10033131 5.61684608 C205.04719441 10.13617671 210.3332349 17.08410264 212.52833557 25.09803772 C213.37067333 29.57965163 213.17667885 34.1261844 213.13139343 38.66976929 C213.12714859 40.28632164 213.12714859 40.28632164 213.12281799 41.93553162 C213.11167286 45.35877852 213.08657849 48.78175844 213.06108093 52.20492554 C213.05104382 54.53369779 213.04191925 56.86247416 213.03373718 59.19125366 C213.01175209 64.88340119 212.97833106 70.57539428 212.93608093 76.26742554 C214.02155212 75.66438599 214.02155212 75.66438599 215.12895203 75.04916382 C216.14553894 74.48439331 217.16212585 73.9196228 218.20951843 73.33773804 C219.33648132 72.71149536 220.46344421 72.08525269 221.6245575 71.44003296 C224.09197303 70.06916859 226.56014109 68.69967208 229.02885437 67.33114624 C234.52871499 64.28102466 240.02521454 61.22647811 245.49076843 58.11508179 C246.2959491 57.65923706 247.10112976 57.20339233 247.93070984 56.73373413 C249.38693709 55.90804477 250.83999434 55.07672765 252.28910828 54.23861694 C261.61120236 48.97261324 271.45029861 47.65851222 281.97123718 49.91976929 C291.90415664 53.17486104 298.59810431 58.6932615 303.74467468 67.74008179 C307.92393825 76.60560156 308.32725961 86.76137436 306.28373718 96.31820679 C301.35964429 109.90701249 289.0089141 116.95331463 276.87358093 123.32992554 C274.72159353 124.47789399 272.57057458 125.6276795 270.42045593 126.77914429 C269.33570984 127.35970581 268.25096375 127.94026733 267.13334656 128.53842163 C261.31839823 131.68300502 255.56813498 134.94194363 249.84355164 138.24789429 C245.09730273 140.97565167 240.33010759 143.60393208 235.43121338 146.0453186 C232.90987541 147.30589672 230.40608943 148.59945032 227.90254211 149.89492798 C226.10246696 150.80891188 224.27848124 151.67531195 222.45439148 152.54037476 C219.1966038 154.23736356 216.56822566 155.70117037 213.93608093 158.26742554 C212.66992066 162.36236382 212.5629002 166.01711655 212.93608093 170.26742554 C213.62137878 170.23616577 214.30667664 170.20490601 215.01274109 170.17269897 C223.12905745 169.86197963 228.72147105 171.25610388 235.12358093 176.32992554 C241.55732451 182.37105878 244.68202019 189.69215473 245.05326843 198.47836304 C244.68383336 207.27091775 242.02074414 213.48240919 235.89701843 219.82992554 C230.14408075 224.56585313 223.55623362 227.90455043 216.93608093 231.26742554 C217.70951843 231.41437866 218.48295593 231.56133179 219.27983093 231.71273804 C228.69093548 233.73938679 234.6129968 236.73136254 240.31108093 244.57992554 C245.12480233 252.43665337 245.77816678 260.2955398 243.93608093 269.26742554 C241.19677613 276.91411052 236.73871949 282.1251212 229.74858093 286.26742554 C229.17849304 286.61353882 228.60840515 286.9596521 228.02104187 287.31625366 C224.65587063 289.34027459 221.22905175 291.08408788 217.68608093 292.76742554 C215.16457605 294.1088477 214.16496311 294.64816563 213.16654968 297.34945679 C212.78717833 299.8144785 212.78717833 299.8144785 212.93608093 303.26742554 C213.95315125 303.37957397 214.97022156 303.49172241 216.01811218 303.60726929 C235.07300293 306.81791389 252.65510158 321.53707745 264.06498718 336.55258179 C278.97962794 358.19282256 285.47644951 383.54321898 280.74858093 409.57992554 C275.21546513 435.43560685 261.05662677 456.60945933 238.92778015 471.03744507 C217.51358496 484.26185244 191.61147082 488.40236422 166.93608093 482.82992554 C148.80129539 478.06934923 131.03433524 467.74820051 118.93608093 453.26742554 C118.49944232 452.43712405 118.49944232 452.43712405 118.05398273 451.59004879 C116.38086646 448.65677787 115.11214569 446.6305915 111.79425621 445.60603523 C109.06699554 445.34717954 106.41265352 445.31021272 103.67314148 445.34579468 C102.64162964 445.33192215 101.6101178 445.31804962 100.54734802 445.30375671 C97.13835797 445.26785878 93.7318932 445.28337939 90.32279968 445.30258179 C87.95013786 445.29532552 85.57748123 445.28613762 83.20483398 445.27510071 C78.23057621 445.26026527 73.25719609 445.27127316 68.28300476 445.29989624 C61.91687422 445.3341293 55.55320092 445.30089116 49.18727398 445.24768925 C44.28596925 445.21483311 39.3852478 445.21978123 34.483881 445.23583794 C32.13758979 445.23865385 29.79125102 445.22936615 27.44505882 445.20762825 C24.15763291 445.18249406 20.87440765 445.20878382 17.58720398 445.24813843 C16.62329239 445.23037354 15.6593808 445.21260864 14.66625977 445.19430542 C9.21414274 445.3216306 6.42241706 446.1998463 2.48913574 450.08113098 C1.27852147 451.45384032 0.09316078 452.84929858 -1.06391907 454.26742554 C-2.22884424 455.60228067 -3.39526281 456.93583572 -4.56391907 458.26742554 C-5.13110657 458.92742554 -5.69829407 459.58742554 -6.28266907 460.26742554 C-8.13817117 462.35079632 -10.07615007 464.31023761 -12.06391907 466.26742554 C-14.60206705 468.76682317 -17.00520209 471.30524346 -19.31391907 474.01742554 C-36.5925304 493.97245047 -58.4549752 508.56027596 -85.06391907 512.26742554 C-100.62996759 513.32946635 -116.19777413 513.30626624 -131.06391907 508.26742554 C-132.02443176 507.94596558 -132.02443176 507.94596558 -133.00434875 507.61801147 C-162.06945877 497.6590436 -181.94281205 475.73290574 -196.00141907 449.20492554 C-206.9120998 426.36985779 -209.28254692 397.33443544 -201.06391907 373.26742554 C-200.85492981 372.63385132 -200.64594055 372.0002771 -200.43061829 371.34750366 C-195.59632125 356.96411204 -187.6301781 345.11772379 -177.06391907 334.26742554 C-176.07778625 333.20588257 -176.07778625 333.20588257 -175.07173157 332.12289429 C-166.99137892 323.63690144 -156.83434202 317.75883688 -147.00141907 311.51742554 C-144.79158426 310.10888414 -142.58194954 308.70002878 -140.37251282 307.29086304 C-138.76352112 306.26557495 -138.76352112 306.26557495 -137.12202454 305.21957397 C-132.92670628 302.54148322 -128.74250762 299.84652699 -124.56391907 297.14242554 C-123.884422 296.70341919 -123.20492493 296.26441284 -122.50483704 295.81210327 C-118.16849502 293.0037693 -113.87354938 290.14104346 -109.63032532 287.19320679 C-108.06391907 286.26742554 -108.06391907 286.26742554 -106.06391907 286.26742554 C-105.8048175 284.98738647 -105.8048175 284.98738647 -105.54048157 283.68148804 C-103.49926186 274.59899669 -100.5753109 266.16431715 -97.12641907 257.51742554 C-93.99332321 249.60758637 -91.10764677 241.78320476 -89.06391907 233.51742554 C-88.88095276 232.78169312 -88.69798645 232.04596069 -88.50947571 231.28793335 C-85.70932339 219.2046235 -84.71272083 207.23529375 -84.74824524 194.87411499 C-84.75139251 192.59912502 -84.72788047 190.32545823 -84.70259094 188.05062866 C-84.67046743 180.38604501 -85.08145133 172.94828997 -86.32221985 165.37997437 C-86.52015876 164.15399379 -86.52015876 164.15399379 -86.72209644 162.90324593 C-88.07772337 154.77016564 -89.84362236 146.74583867 -91.71463585 138.71796799 C-92.31387157 136.14469476 -92.90407536 133.5694824 -93.49221802 130.99365234 C-95.16217907 123.68710244 -96.84809064 116.38426 -98.5382843 109.08236694 C-99.58088028 104.57544916 -100.61393053 100.0664249 -101.64145851 95.55604935 C-102.03121195 93.85447035 -102.42468129 92.15373769 -102.82208824 90.4539299 C-103.37668538 88.08169746 -103.91913476 85.70697081 -104.45918274 83.33139038 C-104.70458298 82.30261276 -104.70458298 82.30261276 -104.9549408 81.25305176 C-106.97882469 72.20047131 -106.63717612 64.47627644 -101.96235657 56.35336304 C-97.30590214 49.29357728 -91.50356968 46.61850529 -83.39204407 44.81039429 C-66.01542111 41.97547575 -50.50362613 46.64095416 -36.06391907 56.26742554 C-36.04933655 55.50188354 -36.03475403 54.73634155 -36.01972961 53.94760132 C-35.94457204 50.42873985 -35.84813671 46.91075784 -35.75141907 43.39242554 C-35.71758118 41.58644897 -35.71758118 41.58644897 -35.68305969 39.74398804 C-35.30534842 27.10782925 -32.84717213 17.70238709 -24.06391907 8.26742554 C-16.66369597 2.55477257 -9.33844502 -0.03934476 0 0 Z " fill="#09CC66" transform="translate(205.0639190673828,-0.267425537109375)"/>
<path d="M0 0 C1.14081456 -0.00657338 1.14081456 -0.00657338 2.30467588 -0.01327956 C4.8609414 -0.02666666 7.41717245 -0.03284623 9.97346497 -0.03897095 C11.80327002 -0.04687201 13.63307351 -0.05514097 15.46287537 -0.06375122 C21.47916679 -0.08997183 27.49546517 -0.10527937 33.51179504 -0.11953735 C35.58285845 -0.12489711 37.65392181 -0.13027461 39.72498512 -0.13566971 C48.34033066 -0.1572989 56.95567433 -0.17603543 65.57104015 -0.1872921 C77.91760911 -0.20352995 90.2638633 -0.23670344 102.61031359 -0.29369295 C111.29153136 -0.3323978 119.97266494 -0.35192547 128.65396672 -0.35721266 C133.83880222 -0.36086549 139.02330198 -0.37287957 144.20804405 -0.4053154 C149.08777629 -0.43540529 153.96696982 -0.4417045 158.84677505 -0.42993164 C160.63498887 -0.42971098 162.42322775 -0.43800979 164.21135521 -0.45558548 C181.03075793 -0.61186831 181.03075793 -0.61186831 186.18247318 3.58506584 C192.53324098 10.64446316 192.14787422 18.1227426 192.04792786 27.28085327 C192.04679799 28.70073413 192.04743595 30.12061732 192.04969788 31.54049683 C192.05084056 35.37481905 192.02740433 39.20863571 191.99940205 43.04284096 C191.97431345 47.05733264 191.97204054 51.07183728 191.96730042 55.08639526 C191.95489246 62.6794234 191.92210059 70.27221983 191.88190246 77.86514616 C191.83711665 86.5132601 191.81518063 95.16138539 191.79512072 103.80958652 C191.75336585 121.59115553 191.68305648 139.37250917 191.59382629 157.15390015 C192.51888977 156.65583862 193.44395325 156.1577771 194.39704895 155.6446228 C195.64198331 154.99340832 196.88728306 154.34289204 198.13288879 153.69296265 C198.73882874 153.36433228 199.34476868 153.0357019 199.96907043 152.69711304 C207.52558649 148.79616803 215.85978957 148.72984006 223.96882629 151.21640015 C231.33922831 154.62540836 236.39926639 160.12664049 239.68367004 167.4859314 C242.52495781 175.81468482 242.28461314 184.13196912 238.59382629 192.15390015 C232.60410921 201.61509222 223.27131656 206.23797258 213.59382629 211.15390015 C214.36726379 211.30085327 215.14070129 211.4478064 215.93757629 211.59921265 C225.34868084 213.6258614 231.27074217 216.61783715 236.96882629 224.46640015 C241.78254769 232.32312798 242.43591214 240.18201441 240.59382629 249.15390015 C237.93902925 256.5646843 233.59719312 261.89552548 226.84382629 265.96640015 C226.29033508 266.30042847 225.73684387 266.63445679 225.1665802 266.97860718 C219.25588878 270.47670486 213.10554518 273.49358261 206.92976379 276.48983765 C203.57306394 278.07748947 203.57306394 278.07748947 200.59382629 280.15390015 C198.24397278 280.40927124 198.24397278 280.40927124 195.46492004 280.42733765 C194.43842346 280.44506226 193.41192688 280.46278687 192.35432434 280.48104858 C191.25773499 280.4968396 190.16114563 280.51263062 189.03132629 280.52890015 C163.54131885 281.23842901 141.79405841 288.83714614 122.59382629 306.15390015 C122.11251975 306.72739386 121.63121321 307.30088757 121.13532162 307.89175987 C118.1031226 311.38628908 115.8835229 313.57017512 111.16134644 314 C109.47886612 314.02257241 107.79559628 314.00732926 106.11360168 313.96102905 C105.18908707 313.96377335 104.26457245 313.96651764 103.31204224 313.96934509 C101.31445368 313.97059838 99.31680276 313.95572789 97.3194294 313.92638016 C94.1529274 313.87989667 90.98877001 313.87561381 87.82196045 313.8817749 C82.24009658 313.8856979 76.65918735 313.85230049 71.07752991 313.80667114 C62.14819456 313.73418889 53.21937729 313.69308172 44.28974724 313.69990158 C41.17837606 313.69307108 38.06845876 313.65483981 34.95736694 313.61450195 C33.03939566 313.61018215 31.12142094 313.60713471 29.20344543 313.6055603 C28.34553406 313.58593735 27.48762268 313.56631439 26.60371399 313.5460968 C20.46585368 313.5853492 16.34181333 315.23139267 11.59382629 319.15390015 C7.54627604 324.43820186 8.07827147 330.64364365 8.09382629 337.02890015 C8.05128723 338.60477905 8.05128723 338.60477905 8.00788879 340.2124939 C7.99284375 346.22298826 8.62856389 350.46918142 11.93171692 355.53720093 C16.39655726 359.88005826 21.14098565 360.53561024 27.15974426 360.58627319 C27.89213821 360.59646484 28.62453217 360.60665649 29.37911987 360.61715698 C31.78149687 360.64716683 34.18347437 360.65653419 36.58601379 360.6656189 C38.25897026 360.68247455 39.93191413 360.70062599 41.60484314 360.72001648 C45.99417688 360.76742656 50.38345953 360.79729393 54.77296448 360.82345581 C59.25762518 360.85330684 63.74211004 360.89982153 68.22663879 360.94491577 C77.01561471 361.03084653 85.8046068 361.0982371 94.59382629 361.15390015 C94.61920975 361.81332611 94.6445932 362.47275208 94.67074585 363.15216064 C94.78886895 366.17111238 94.91201136 369.18983986 95.03523254 372.20858765 C95.09499268 373.76452637 95.09499268 373.76452637 95.15596008 375.35189819 C95.54050459 387.28201191 95.54050459 387.28201191 98.66023254 398.70858765 C99.59382629 401.15390015 99.59382629 401.15390015 99.59382629 405.15390015 C85.91136681 405.24665902 72.22898238 405.31769539 58.54627228 405.36114883 C52.19254433 405.38200634 45.83903182 405.41029113 39.48542786 405.45565796 C33.35164274 405.49918017 27.2180646 405.52305107 21.08413696 405.53340912 C18.74620303 405.54078895 16.40828018 405.55520004 14.07043457 405.57682037 C10.79087512 405.60593818 7.51216648 405.60985252 4.23249817 405.60800171 C3.27008209 405.62238281 2.30766602 405.63676392 1.31608582 405.65158081 C-4.70117834 405.6149356 -9.43082782 404.69963645 -14.40617371 401.15390015 C-18.86403374 395.64023116 -20.65526002 390.74858595 -20.6606493 383.70449352 C-20.66648149 382.39319853 -20.67231369 381.08190354 -20.67832261 379.73087233 C-20.67468947 378.27725121 -20.6708651 376.82363055 -20.66687012 375.37001038 C-20.66989041 373.82459462 -20.67377927 372.27918037 -20.67846268 370.73376876 C-20.68876742 366.48489454 -20.68655457 362.23610447 -20.68228209 357.98722327 C-20.67981932 353.40564726 -20.68882348 348.82409174 -20.69631958 344.24252319 C-20.70908155 335.2655114 -20.71085837 326.2885295 -20.70851932 317.31151017 C-20.70673752 310.0152599 -20.70848284 302.71901872 -20.71274376 295.42276955 C-20.71333895 294.38499631 -20.71393414 293.34722308 -20.71454736 292.27800218 C-20.7157591 290.16986069 -20.71697323 288.06171921 -20.71818974 285.95357773 C-20.72907124 266.17417054 -20.72690001 246.39478038 -20.72080489 226.61537222 C-20.71563631 208.51803231 -20.72688854 190.42074623 -20.74590311 172.32341697 C-20.76527279 153.74581108 -20.77353897 135.16823067 -20.76977986 116.59061462 C-20.76786635 106.15885352 -20.77036988 95.72713823 -20.7844944 85.29538536 C-20.79639815 76.41379039 -20.79782446 67.53226944 -20.78570423 58.65067347 C-20.77980822 54.11907824 -20.77873603 49.58761845 -20.79070663 45.05603218 C-20.8015407 40.9064612 -20.79849165 36.75713914 -20.78444495 32.60757992 C-20.78179116 31.1075971 -20.78418594 29.60759492 -20.79218081 28.10763105 C-20.87549179 11.30919703 -20.87549179 11.30919703 -15.68742371 5.0953064 C-15.09961121 4.64026733 -14.51179871 4.18522827 -13.90617371 3.71640015 C-13.02445496 3.00677124 -13.02445496 3.00677124 -12.12492371 2.2828064 C-8.28560109 -0.23893051 -4.40904212 0.00307625 0 0 Z " fill="#AB6BAC" transform="translate(208.4061737060547,19.846099853515625)"/>
<path d="M0 0 C4.80500497 4.08378648 4.80500497 4.08378648 5.6205005 7.91551501 C5.61838723 9.00070608 5.61627396 10.08589716 5.61409664 11.20397282 C5.62383509 12.46055008 5.63357353 13.71712734 5.64360708 15.01178271 C5.62912607 16.40369814 5.61419476 17.79560895 5.59886169 19.18751526 C5.60087632 20.66821084 5.60510338 22.14890479 5.61135346 23.62958854 C5.62223014 27.69993651 5.6020329 31.76963265 5.57691681 35.83989584 C5.55533163 40.22930923 5.5626783 44.61868182 5.56677246 49.00813293 C5.57015858 56.61630227 5.5559348 64.2242745 5.53045464 71.83239937 C5.49412278 82.84555309 5.49099931 93.858529 5.49714971 104.87173199 C5.50679223 122.75671697 5.49854253 140.64164049 5.47485352 158.52661133 C5.47344276 159.59725741 5.472032 160.6679035 5.4705785 161.7709934 C5.45458483 173.70904739 5.43588047 185.64709614 5.41589355 197.58514404 C5.40874704 201.91035953 5.40171318 206.23557519 5.39477539 210.56079102 C5.39219683 212.16162094 5.39219683 212.16162094 5.38956618 213.79479087 C5.36156672 231.60402131 5.35696101 249.41317893 5.36978775 267.22242588 C5.3766279 278.20381626 5.36285121 289.18480876 5.3223641 300.16612857 C5.29600346 307.69635828 5.29103455 315.22640821 5.30272751 322.7566743 C5.30872444 327.09856772 5.30493699 331.43987244 5.274683 335.78167725 C5.24710828 339.76268545 5.24753512 343.7427075 5.26947523 347.72374164 C5.27252583 349.15786342 5.26556566 350.59205209 5.24713998 352.02605874 C5.10956752 363.40663261 7.60215685 372.29537757 15.25 380.9375 C22.3069163 387.36573779 30.44466606 389.91112662 39.75 390.5625 C40.92046875 390.64628906 42.0909375 390.73007812 43.296875 390.81640625 C44.18890625 390.87699219 45.0809375 390.93757813 46 391 C36.07876912 402.79822051 25.38687883 413.9545347 14.77539062 425.12939453 C13.28885672 426.69565178 11.80782151 428.26712538 10.328125 429.83984375 C-5.68991049 446.45429546 -29.58087178 457.57303937 -52.72265625 458.3359375 C-66.337353 458.50374698 -79.03907326 458.39307201 -92 454 C-92.9605127 453.67854004 -92.9605127 453.67854004 -93.94042969 453.35058594 C-123.0055397 443.39161807 -142.87889298 421.4654802 -156.9375 394.9375 C-167.84818074 372.10243225 -170.21862785 343.0670099 -162 319 C-161.79101074 318.36642578 -161.58202148 317.73285156 -161.36669922 317.08007812 C-156.53240218 302.6966865 -148.56625903 290.85029825 -138 280 C-137.01386719 278.93845703 -137.01386719 278.93845703 -136.0078125 277.85546875 C-127.92745985 269.36947591 -117.77042296 263.49141134 -107.9375 257.25 C-105.7276652 255.8414586 -103.51803047 254.43260325 -101.30859375 253.0234375 C-99.69960205 251.99814941 -99.69960205 251.99814941 -98.05810547 250.95214844 C-93.86278721 248.27405768 -89.67858855 245.57910146 -85.5 242.875 C-84.82050293 242.43599365 -84.14100586 241.9969873 -83.44091797 241.54467773 C-79.10457596 238.73634376 -74.80963031 235.87361793 -70.56640625 232.92578125 C-69 232 -69 232 -67 232 C-66.82726562 231.14664063 -66.65453125 230.29328125 -66.4765625 229.4140625 C-64.43534279 220.33157115 -61.51139183 211.89689161 -58.0625 203.25 C-54.92940414 195.34016084 -52.04372771 187.51577922 -50 179.25 C-49.81703369 178.51426758 -49.63406738 177.77853516 -49.44555664 177.02050781 C-46.64540433 164.93719796 -45.64880176 152.96786821 -45.68432617 140.60668945 C-45.68747344 138.33169948 -45.6639614 136.05803269 -45.63867188 133.78320312 C-45.60654836 126.11861947 -46.01753226 118.68086443 -47.25830078 111.11254883 C-47.39026006 110.29522844 -47.52221933 109.47790806 -47.65817738 108.63582039 C-49.01380431 100.50274011 -50.77970329 92.47841313 -52.65071678 84.45054245 C-53.2499525 81.87726923 -53.84015629 79.30205686 -54.42829895 76.72622681 C-56.09826 69.4196769 -57.78417158 62.11683446 -59.47436523 54.81494141 C-60.51696122 50.30802362 -61.55001147 45.79899936 -62.57753944 41.28862381 C-62.96729288 39.58704481 -63.36076222 37.88631216 -63.75816917 36.18650436 C-64.31276631 33.81427192 -64.85521569 31.43954527 -65.39526367 29.06396484 C-65.55886383 28.3781131 -65.72246399 27.69226135 -65.89102173 26.98562622 C-67.91490562 17.93304577 -67.57325705 10.20885091 -62.8984375 2.0859375 C-58.24198307 -4.97384825 -52.43965061 -7.64892025 -44.328125 -9.45703125 C-29.18579706 -11.92743452 -12.64537294 -9.00214992 0 0 Z " fill="#F2A98C" transform="translate(166,54)"/>
<path d="M0 0 C0.74507812 0.00515625 1.49015625 0.0103125 2.2578125 0.015625 C3.41023438 0.0465625 3.41023438 0.0465625 4.5859375 0.078125 C5.74996094 0.08585937 5.74996094 0.08585937 6.9375 0.09375 C12.65089286 0.17310268 12.65089286 0.17310268 14.9609375 1.328125 C16.85374181 1.50907594 18.75058689 1.6489441 20.6484375 1.765625 C25.3769327 2.11841285 29.48292726 2.8015306 33.9609375 4.328125 C34.27160156 3.67714844 34.58226562 3.02617188 34.90234375 2.35546875 C37.57908707 -0.28064089 39.67052029 -0.16349344 43.32250977 -0.17651367 C44.17256592 -0.15435791 45.02262207 -0.13220215 45.8984375 -0.109375 C46.77491943 -0.09688721 47.65140137 -0.08439941 48.55444336 -0.0715332 C55.09796018 0.09914697 61.5449072 0.72056531 68.0234375 1.640625 C68.87349365 1.75801025 69.7235498 1.87539551 70.59936523 1.99633789 C71.78574585 2.18570923 71.78574585 2.18570923 72.99609375 2.37890625 C73.690979 2.48887939 74.38586426 2.59885254 75.10180664 2.7121582 C77.59402409 3.5378791 78.48265301 4.12126539 79.9609375 6.328125 C80.36092825 9.03975303 80.58875507 11.55305507 80.69140625 14.27734375 C80.75162712 15.43626884 80.75162712 15.43626884 80.81306458 16.61860657 C80.93811533 19.08383733 81.0435098 21.54946378 81.1484375 24.015625 C81.22982596 25.6882145 81.31249295 27.36074231 81.39648438 29.03320312 C81.59947214 33.13094246 81.78483789 37.22914568 81.9609375 41.328125 C82.91733549 37.2029801 83.19568139 33.20662435 83.390625 28.98046875 C83.46423283 27.55660891 83.53847053 26.13278152 83.61328125 24.70898438 C83.72693576 22.48189715 83.83641216 20.25490532 83.93505859 18.02709961 C84.03270234 15.86488606 84.14777625 13.70416279 84.265625 11.54296875 C84.32733887 10.25511475 84.38905273 8.96726074 84.45263672 7.64038086 C84.97862543 4.2128646 85.43326259 2.6732819 87.9609375 0.328125 C90.9380454 -0.02317373 93.49786791 -0.14086218 96.4609375 -0.046875 C97.61916016 -0.04494141 97.61916016 -0.04494141 98.80078125 -0.04296875 C102.67321652 0.01743319 104.67726818 0.13901212 107.9609375 2.328125 C110.15046493 2.66116488 110.15046493 2.66116488 112.55859375 2.671875 C113.44224609 2.70152344 114.32589844 2.73117188 115.23632812 2.76171875 C117.09830508 2.8060826 118.96028426 2.85035305 120.82226562 2.89453125 C121.70462891 2.92417969 122.58699219 2.95382813 123.49609375 2.984375 C124.70857788 3.01241211 124.70857788 3.01241211 125.94555664 3.04101562 C127.9609375 3.328125 127.9609375 3.328125 129.9609375 5.328125 C130.0078125 8.26196289 130.0078125 8.26196289 129.7109375 11.98828125 C129.6586499 12.65457047 129.6063623 13.32085968 129.55249023 14.00733948 C128.94543237 21.29198054 127.97545715 28.52798299 126.9609375 35.765625 C126.60657001 38.3476287 126.25239759 40.92965917 125.8984375 43.51171875 C125.73472656 44.69491699 125.57101562 45.87811523 125.40234375 47.09716797 C124.89134201 50.83754244 124.41576285 54.58055359 123.9609375 58.328125 C124.8890625 58.699375 124.8890625 58.699375 125.8359375 59.078125 C128.45091994 60.61634996 129.02801996 61.45162924 129.9609375 64.328125 C130.28921387 70.52434141 129.25695828 76.35822729 128.2109375 82.453125 C126.63768597 91.91440689 125.23466656 101.38450391 123.9609375 110.890625 C122.63304889 120.73934871 121.16414137 130.5456702 119.45874023 140.33618164 C118.52811527 145.72656066 117.70490856 151.11465029 116.99609375 156.5390625 C116.83302734 157.75319824 116.66996094 158.96733398 116.50195312 160.21826172 C116.19167409 162.5589688 115.8964621 164.90174184 115.61914062 167.24658203 C114.58421301 174.9400854 112.8660835 181.01402813 106.79296875 186.16796875 C106.12652344 186.53019531 105.46007812 186.89242187 104.7734375 187.265625 C103.76216797 187.83603516 103.76216797 187.83603516 102.73046875 188.41796875 C98.81521477 190.43177488 95.62909291 190.49636171 91.2734375 190.52099609 C90.08277428 190.53326233 90.08277428 190.53326233 88.86805725 190.54577637 C86.23235833 190.57065149 83.59671361 190.58715768 80.9609375 190.6015625 C80.05955048 190.60688618 79.15816345 190.61220985 78.22946167 190.61769485 C73.4522995 190.64444409 68.67516354 190.66380753 63.89794922 190.67822266 C59.95402659 190.69152781 56.01062554 190.71931411 52.06689453 190.76025391 C47.29883451 190.80975058 42.5312454 190.83436555 37.76293945 190.84144974 C35.95136377 190.8481371 34.13979755 190.86329315 32.32836914 190.88734055 C21.17299667 191.02690239 12.3500517 190.898122 3.5234375 183.203125 C-2.3024155 172.48355548 -2.83660912 158.69595987 -4.61328125 146.80859375 C-4.94485572 144.61901777 -5.27687915 142.42950973 -5.60932922 140.24006653 C-6.30168944 135.67082621 -6.98957518 131.10094229 -7.67407227 126.53051758 C-8.55089106 120.67750721 -9.43748573 114.82602902 -10.32722759 108.97497082 C-11.01261944 104.46218838 -11.69358915 99.94874755 -12.37314796 95.43508339 C-12.69849499 93.27676744 -13.02504173 91.11863197 -13.35281944 88.96068382 C-13.80950275 85.94863068 -14.26040055 82.93576714 -14.7097168 79.92260742 C-14.91303871 78.59230247 -14.91303871 78.59230247 -15.12046814 77.23512268 C-16.81390665 65.76712128 -16.81390665 65.76712128 -14.2890625 61.078125 C-12.2001474 58.52500655 -11.1221386 57.32266568 -8.0390625 56.328125 C-7.0490625 56.328125 -6.0590625 56.328125 -5.0390625 56.328125 C-5.12994141 55.326604 -5.22082031 54.32508301 -5.31445312 53.29321289 C-5.65751946 49.48983013 -5.99049483 45.68561385 -6.32080078 41.88110352 C-6.46366173 40.25098657 -6.60907003 38.62109037 -6.75732422 36.99145508 C-7.5480207 28.28034658 -8.20429004 19.57176041 -8.3828125 10.82421875 C-8.41064819 10.11225845 -8.43848389 9.40029816 -8.46716309 8.66676331 C-8.49145124 5.48790481 -8.45021605 3.78087054 -6.27001953 1.38012695 C-3.94757163 0.28498272 -2.54743962 -0.03508703 0 0 Z " fill="#ED5351" transform="translate(237.0390625,53.671875)"/>
<path d="M0 0 C0.79506917 -0.00453111 1.59013833 -0.00906223 2.40930051 -0.01373065 C5.0645272 -0.02635695 7.71954831 -0.02475542 10.37480164 -0.02310181 C12.2822445 -0.02908817 14.18968493 -0.03589396 16.09712219 -0.04345703 C21.27283894 -0.0611134 26.44848953 -0.06581227 31.62423348 -0.0670886 C34.85962565 -0.06851098 38.09500103 -0.07278223 41.33038902 -0.07808304 C52.62271059 -0.0965822 63.91498495 -0.1047538 75.20732117 -0.10317993 C85.72513039 -0.10197861 96.24273438 -0.12307957 106.76049167 -0.15466726 C115.79763099 -0.18083882 124.83470331 -0.19154685 133.87188023 -0.19026911 C139.26622591 -0.18975974 144.66038918 -0.19542967 150.05469704 -0.21662521 C155.12977603 -0.23602229 160.20449888 -0.2361219 165.27959061 -0.22159195 C167.13832432 -0.21950458 168.99708041 -0.22420044 170.85577583 -0.23631287 C188.85739261 -0.34599049 188.85739261 -0.34599049 195.93608093 4.26742554 C196.65028356 4.71273432 197.36448618 5.1580431 198.10033131 5.61684608 C205.04719441 10.13617671 210.3332349 17.08410264 212.52833557 25.09803772 C213.37067333 29.57965163 213.17667885 34.1261844 213.13139343 38.66976929 C213.12856354 39.74747086 213.12573364 40.82517242 213.12281799 41.93553162 C213.11167286 45.35877852 213.08657849 48.78175844 213.06108093 52.20492554 C213.05104382 54.53369779 213.04191925 56.86247416 213.03373718 59.19125366 C213.01175209 64.88340119 212.97833106 70.57539428 212.93608093 76.26742554 C213.65972839 75.86539917 214.38337585 75.4633728 215.12895203 75.04916382 C216.14553894 74.48439331 217.16212585 73.9196228 218.20951843 73.33773804 C219.89996277 72.39837402 219.89996277 72.39837402 221.6245575 71.44003296 C224.09197303 70.06916859 226.56014109 68.69967208 229.02885437 67.33114624 C234.52871499 64.28102466 240.02521454 61.22647811 245.49076843 58.11508179 C246.2959491 57.65923706 247.10112976 57.20339233 247.93070984 56.73373413 C249.38693709 55.90804477 250.83999434 55.07672765 252.28910828 54.23861694 C261.61120236 48.97261324 271.45029861 47.65851222 281.97123718 49.91976929 C291.90415664 53.17486104 298.59810431 58.6932615 303.74467468 67.74008179 C307.92393825 76.60560156 308.32725961 86.76137436 306.28373718 96.31820679 C301.35964429 109.90701249 289.0089141 116.95331463 276.87358093 123.32992554 C274.72159353 124.47789399 272.57057458 125.6276795 270.42045593 126.77914429 C269.33570984 127.35970581 268.25096375 127.94026733 267.13334656 128.53842163 C261.31839823 131.68300502 255.56813498 134.94194363 249.84355164 138.24789429 C245.09730273 140.97565167 240.33010759 143.60393208 235.43121338 146.0453186 C232.90987541 147.30589672 230.40608943 148.59945032 227.90254211 149.89492798 C226.10246696 150.80891188 224.27848124 151.67531195 222.45439148 152.54037476 C219.1966038 154.23736356 216.56822566 155.70117037 213.93608093 158.26742554 C212.66992066 162.36236382 212.5629002 166.01711655 212.93608093 170.26742554 C210.23425802 171.21143595 207.5324351 172.15544637 204.83061218 173.09945679 C201.98823799 174.24637971 199.55432619 175.68924316 196.93608093 177.26742554 C196.27608093 177.26742554 195.61608093 177.26742554 194.93608093 177.26742554 C194.93461437 176.53266243 194.93314781 175.79789932 194.93163681 175.04087067 C194.89455267 157.14583655 194.83551667 139.25099738 194.75217819 121.35611725 C194.7124029 112.70220131 194.68000276 104.0483761 194.66508484 95.39437866 C194.65206047 87.84977469 194.62507586 80.30537049 194.58146787 72.76087904 C194.55887057 68.76768678 194.5431692 64.77474075 194.54419708 60.78147888 C194.54494473 57.01878928 194.52695257 53.25664365 194.4949131 49.49409485 C194.48240313 47.46317315 194.48946996 45.43216003 194.4972229 43.4012146 C194.50600802 33.59997507 194.50600802 33.59997507 189.93608093 25.26742554 C184.92027885 21.80463751 181.15939716 20.6825639 175.03543091 20.76622009 C173.8873731 20.7579185 173.8873731 20.7579185 172.71612221 20.74944919 C170.16727912 20.73590284 167.61942552 20.75077842 165.07060242 20.76571655 C163.23695969 20.76193121 161.40331983 20.75642939 159.56968689 20.74934387 C154.60072675 20.7354011 149.63211332 20.74655039 144.66317248 20.76305509 C139.45962941 20.77692122 134.25610615 20.7704438 129.05255127 20.766922 C120.3158358 20.76422136 111.57925783 20.77768379 102.84257507 20.8008728 C92.74448163 20.82748991 82.64661794 20.82922643 72.54850143 20.81748444 C62.82924108 20.80670283 53.11006377 20.81289622 43.39081001 20.82703972 C39.25656736 20.83279534 35.12238555 20.83272018 30.98814201 20.82797432 C26.11990937 20.82319961 21.25192812 20.83332679 16.38374329 20.85492897 C14.59794017 20.86048995 12.81211286 20.86096846 11.02630806 20.8559761 C8.58717618 20.85001277 6.14881024 20.86254797 3.70974731 20.87974548 C3.00439187 20.87373544 2.29903643 20.86772539 1.57230657 20.86153322 C-3.02684287 20.92043325 -6.14617319 21.87628563 -10.06391907 24.26742554 C-15.08667958 29.42970718 -16.31181012 34.77547616 -16.32398129 41.83429337 C-16.33104688 43.14634601 -16.33811247 44.45839865 -16.34539217 45.81021047 C-16.34314098 47.25951114 -16.34069451 48.70881152 -16.33807373 50.15811157 C-16.34252739 51.70296575 -16.34784186 53.24781765 -16.35394245 54.7926662 C-16.36811746 59.03541177 -16.36978584 63.27808408 -16.36934555 67.52084994 C-16.37099418 72.09768103 -16.38406153 76.67448196 -16.39553833 81.251297 C-16.41838329 91.25749194 -16.4263083 101.26366567 -16.43136477 111.26988316 C-16.43462218 117.51844409 -16.4411449 123.76699888 -16.44836617 130.01555634 C-16.46793092 147.31832811 -16.48433603 164.62109417 -16.4872427 181.92387772 C-16.48743027 183.03100559 -16.48761784 184.13813346 -16.48781109 185.27881067 C-16.48817734 187.52319352 -16.48854104 189.76757637 -16.4889022 192.01195922 C-16.48908501 193.12606291 -16.48926783 194.2401666 -16.48945618 195.38803101 C-16.48963673 196.50349543 -16.48981727 197.61895986 -16.4900033 198.76822624 C-16.49354533 216.84478384 -16.5205701 234.92122234 -16.55795407 252.99773863 C-16.59603434 271.55956695 -16.61540015 290.12133616 -16.61570221 308.68320441 C-16.61628682 319.10387766 -16.62478121 329.5244088 -16.65369987 339.94504547 C-16.6782099 348.81780761 -16.68549912 357.69037581 -16.67045235 366.56316265 C-16.6632821 371.08903067 -16.66414587 375.6145157 -16.68686295 380.14034081 C-16.70747737 384.28703361 -16.70482995 388.43304958 -16.6839881 392.57973525 C-16.6804979 394.07636427 -16.68538336 395.57304237 -16.69969254 397.06960705 C-16.77612518 405.61734747 -16.39440788 413.17712573 -11.06391907 420.26742554 C-5.45580708 424.81191618 0.70562719 424.84935729 7.66654968 424.81332397 C8.71134995 424.82366165 9.75615021 424.83399933 10.83261108 424.84465027 C14.26309332 424.87399082 17.69298329 424.87557564 21.12358093 424.87680054 C23.51112487 424.89178802 25.89865846 424.90851635 28.28617859 424.9269104 C34.5529682 424.97053188 40.81961796 424.99057169 47.08653259 425.00564575 C53.4882889 425.0252354 59.88989458 425.06720343 66.29154968 425.10726929 C78.83967565 425.18251523 91.38777842 425.23360145 103.93608093 425.26742554 C107.26941427 431.9340922 110.6027476 438.60075887 113.93608093 445.26742554 C98.48006713 445.36110993 83.02407475 445.43152235 67.56784344 445.47467422 C60.39028078 445.49524822 53.21289515 445.52326911 46.03544617 445.56918335 C39.77529916 445.60921031 33.51528043 445.63489583 27.255009 445.64377952 C23.94403119 445.64896771 20.6335031 445.66319127 17.3226223 445.69034576 C13.6150253 445.71953471 9.9081793 445.7233749 6.20048523 445.7215271 C5.11794464 445.7359082 4.03540405 445.75028931 2.9200592 445.7651062 C-8.3916507 445.70441337 -16.76283032 442.49530166 -24.89985657 434.64242554 C-30.8396846 428.1236251 -34.30445329 421.50273837 -34.33401203 412.58934498 C-34.33890688 411.92810598 -34.34380174 411.26686699 -34.34884492 410.58559045 C-34.36283981 408.36617628 -34.36267279 406.14699104 -34.36257935 403.92753601 C-34.36972986 402.32167157 -34.37774329 400.71581077 -34.38654631 399.10995454 C-34.40819736 394.69394243 -34.41740579 390.27797808 -34.42457044 385.86192191 C-34.43442521 381.100329 -34.45567116 376.338785 -34.47541809 371.57722473 C-34.5121975 362.24663363 -34.53805239 352.91604275 -34.55980823 343.58540569 C-34.57760826 336.00073975 -34.59889634 328.41609138 -34.62267113 320.83144188 C-34.62604168 319.75261567 -34.62941223 318.67378947 -34.63288492 317.56227156 C-34.63973396 315.37070654 -34.6465851 313.17914152 -34.65343829 310.98757651 C-34.71721114 290.42364562 -34.76797799 269.8596975 -34.81485882 249.29572221 C-34.85815241 230.48514798 -34.91791314 211.67466827 -34.98545388 192.86416683 C-35.05464338 173.55207295 -35.11261663 154.23997509 -35.15849227 134.92781132 C-35.18445089 124.0846087 -35.21486785 113.24146252 -35.25704384 102.39830971 C-35.29283674 93.16509747 -35.31804387 83.93193036 -35.32961939 74.69865475 C-35.33581485 69.98856965 -35.34685052 65.27862953 -35.37107658 60.5685997 C-35.39314195 56.25365527 -35.40114665 51.93891779 -35.39812251 47.62392011 C-35.39946639 46.06601499 -35.40587657 44.50810392 -35.41797135 42.95024518 C-35.52033509 29.12152748 -33.76844599 18.69201854 -24.06391907 8.26742554 C-16.66369597 2.55477257 -9.33844502 -0.03934476 0 0 Z " fill="#424242" transform="translate(205.0639190673828,-0.267425537109375)"/>
<path d="M0 0 C4.80500497 4.08378648 4.80500497 4.08378648 5.6205005 7.91551501 C5.61838723 9.00070608 5.61627396 10.08589716 5.61409664 11.20397282 C5.62383509 12.46055008 5.63357353 13.71712734 5.64360708 15.01178271 C5.62912607 16.40369814 5.61419476 17.79560895 5.59886169 19.18751526 C5.60087632 20.66821084 5.60510338 22.14890479 5.61135346 23.62958854 C5.62223014 27.69993651 5.6020329 31.76963265 5.57691681 35.83989584 C5.55533163 40.22930923 5.5626783 44.61868182 5.56677246 49.00813293 C5.57015858 56.61630227 5.5559348 64.2242745 5.53045464 71.83239937 C5.49412278 82.84555309 5.49099931 93.858529 5.49714971 104.87173199 C5.50679223 122.75671697 5.49854253 140.64164049 5.47485352 158.52661133 C5.47344276 159.59725741 5.472032 160.6679035 5.4705785 161.7709934 C5.45458483 173.70904739 5.43588047 185.64709614 5.41589355 197.58514404 C5.40874704 201.91035953 5.40171318 206.23557519 5.39477539 210.56079102 C5.39219683 212.16162094 5.39219683 212.16162094 5.38956618 213.79479087 C5.36156672 231.60402131 5.35696101 249.41317893 5.36978775 267.22242588 C5.3766279 278.20381626 5.36285121 289.18480876 5.3223641 300.16612857 C5.29600346 307.69635828 5.29103455 315.22640821 5.30272751 322.7566743 C5.30872444 327.09856772 5.30493699 331.43987244 5.274683 335.78167725 C5.24710828 339.76268545 5.24753512 343.7427075 5.26947523 347.72374164 C5.27252583 349.15786342 5.26556566 350.59205209 5.24713998 352.02605874 C5.1407637 360.82595288 6.28892242 367.03639239 10.713018 374.70971721 C12 377 12 377 12 379 C-2.05632723 374.84853257 -14.94023148 366.42897155 -26 357 C-26.94101563 356.22140625 -27.88203125 355.4428125 -28.8515625 354.640625 C-51.65128275 334.98790839 -66.37755599 305.57114548 -69.75 275.74609375 C-71.43813849 250.45039359 -67.69799314 227.07677619 -58.234375 203.59375 C-55.06741118 195.73313925 -52.2586147 187.97939689 -50.1875 179.75 C-49.992771 178.98316895 -49.79804199 178.21633789 -49.59741211 177.42626953 C-46.6735409 165.2080671 -45.64835216 153.12431164 -45.68432617 140.60668945 C-45.68747344 138.33169948 -45.6639614 136.05803269 -45.63867188 133.78320312 C-45.60654836 126.11861947 -46.01753226 118.68086443 -47.25830078 111.11254883 C-47.39026006 110.29522844 -47.52221933 109.47790806 -47.65817738 108.63582039 C-49.01380431 100.50274011 -50.77970329 92.47841313 -52.65071678 84.45054245 C-53.2499525 81.87726923 -53.84015629 79.30205686 -54.42829895 76.72622681 C-56.09826 69.4196769 -57.78417158 62.11683446 -59.47436523 54.81494141 C-60.51696122 50.30802362 -61.55001147 45.79899936 -62.57753944 41.28862381 C-62.96729288 39.58704481 -63.36076222 37.88631216 -63.75816917 36.18650436 C-64.31276631 33.81427192 -64.85521569 31.43954527 -65.39526367 29.06396484 C-65.55886383 28.3781131 -65.72246399 27.69226135 -65.89102173 26.98562622 C-67.91490562 17.93304577 -67.57325705 10.20885091 -62.8984375 2.0859375 C-58.24198307 -4.97384825 -52.43965061 -7.64892025 -44.328125 -9.45703125 C-29.18579706 -11.92743452 -12.64537294 -9.00214992 0 0 Z " fill="#FDC3AA" transform="translate(166,54)"/>
<path d="M0 0 C21.91375606 -0.21028755 43.82734566 -0.36897164 65.74190617 -0.46630955 C75.91739197 -0.51270777 86.0922507 -0.57595808 96.26733398 -0.67895508 C105.13649729 -0.76869011 114.00520647 -0.82673079 122.87481111 -0.84679645 C127.57103886 -0.85852548 132.26596752 -0.88606528 136.96177864 -0.95157051 C141.38380258 -1.01275553 145.80399525 -1.03148664 150.22640228 -1.01796913 C151.84740855 -1.02044109 153.46847728 -1.03829266 155.08911705 -1.07284927 C167.30604856 -1.3205263 167.30604856 -1.3205263 171.52303886 1.96684456 C174.101529 5.17975284 175.69937642 8.09812927 177 12 C176.27296875 12.27972656 175.5459375 12.55945313 174.796875 12.84765625 C162.39908356 17.79087822 149.29368139 24.30932156 140.54149532 34.73785973 C137.50929631 38.23238893 135.28969661 40.41627497 130.56752014 40.84609985 C128.88503982 40.86867226 127.20176999 40.85342911 125.51977539 40.80712891 C124.13300346 40.81124535 124.13300346 40.81124535 122.71821594 40.81544495 C120.72062738 40.81669823 118.72297646 40.80182774 116.7256031 40.77248001 C113.55910111 40.72599652 110.39494371 40.72171366 107.22813416 40.72787476 C101.64627029 40.73179775 96.06536105 40.69840034 90.48370361 40.652771 C81.55436826 40.58028875 72.62555099 40.53918157 63.69592094 40.54600143 C60.58454976 40.53917094 57.47463247 40.50093966 54.36354065 40.46060181 C52.44556936 40.45628201 50.52759465 40.45323457 48.60961914 40.45166016 C47.75170776 40.4320372 46.89379639 40.41241425 46.0098877 40.39219666 C39.87202739 40.43144906 35.74798704 42.07749252 31 46 C26.95244975 51.28430172 27.48444517 57.4897435 27.5 63.875 C27.45746094 65.45087891 27.45746094 65.45087891 27.4140625 67.05859375 C27.39901746 73.06908811 28.03473759 77.31528127 31.33789062 82.38330078 C35.80273096 86.72615811 40.54715936 87.3817101 46.56591797 87.43237305 C47.29831192 87.4425647 48.03070587 87.45275635 48.78529358 87.46325684 C51.18767058 87.49326668 53.58964808 87.50263405 55.9921875 87.51171875 C57.66514397 87.5285744 59.33808784 87.54672584 61.01101685 87.56611633 C65.40035058 87.61352641 69.78963323 87.64339378 74.17913818 87.66955566 C78.66379889 87.6994067 83.14828375 87.74592139 87.6328125 87.79101562 C96.42178842 87.87694639 105.21078051 87.94433695 114 88 C114.02538345 88.65942596 114.05076691 89.31885193 114.07691956 89.9982605 C114.19504266 93.01721224 114.31818506 96.03593972 114.44140625 99.0546875 C114.50116638 100.61062622 114.50116638 100.61062622 114.56213379 102.19799805 C114.9466783 114.12811176 114.9466783 114.12811176 118.06640625 125.5546875 C119 128 119 128 119 132 C105.31754052 132.09275887 91.63515609 132.16379524 77.95244598 132.20724869 C71.59871804 132.22810619 65.24520553 132.25639098 58.89160156 132.30175781 C52.75781644 132.34528003 46.62423831 132.36915093 40.49031067 132.37950897 C38.15237674 132.38688881 35.81445389 132.4012999 33.47660828 132.42292023 C30.19704883 132.45203804 26.91834019 132.45595237 23.63867188 132.45410156 C22.6762558 132.46848267 21.71383972 132.48286377 20.72225952 132.49768066 C14.71326626 132.46108582 9.96052894 131.55932542 5 128 C1.37136277 123.44094297 -0.12633696 119.8937796 -0.12025452 114.12153625 C-0.12162918 113.11612793 -0.12300385 112.1107196 -0.12442017 111.07484436 C-0.12082489 109.9728923 -0.11722961 108.87094025 -0.11352539 107.7355957 C-0.11367142 106.57448273 -0.11381744 105.41336975 -0.1139679 104.21707153 C-0.11326989 100.36995593 -0.10548266 96.52288842 -0.09765625 92.67578125 C-0.09579167 90.01205869 -0.09431878 87.34833882 -0.09336853 84.68461609 C-0.09025943 78.38420709 -0.0820517 72.08381543 -0.07201904 65.78341407 C-0.06084485 58.61056923 -0.05534416 51.43772357 -0.05032361 44.26487219 C-0.03986875 29.50990593 -0.02227743 14.75495327 0 0 Z " fill="#FEFEFE" transform="translate(189,293)"/>
<path d="M0 0 C7.33824161 4.45706649 12.01476908 9.92702762 14.80078125 18.09375 C16.5771082 25.71761287 16.08515143 32.95516622 12.80078125 40.09375 C6.81106417 49.55494207 -2.52172848 54.17782243 -12.19921875 59.09375 C-11.42578125 59.24070313 -10.65234375 59.38765625 -9.85546875 59.5390625 C-0.4443642 61.56571125 5.47769712 64.55768701 11.17578125 72.40625 C15.98950264 80.26297783 16.64286709 88.12186427 14.80078125 97.09375 C12.14598421 104.50453416 7.80414807 109.83537533 1.05078125 113.90625 C0.49729004 114.24027832 -0.05620117 114.57430664 -0.62646484 114.91845703 C-6.53715626 118.41655472 -12.68749986 121.43343246 -18.86328125 124.4296875 C-22.21998111 126.01733932 -22.21998111 126.01733932 -25.19921875 128.09375 C-27.59667969 128.36499023 -27.59667969 128.36499023 -30.43359375 128.40234375 C-31.47620361 128.42570801 -32.51881348 128.44907227 -33.59301758 128.47314453 C-34.70056396 128.49231934 -35.80811035 128.51149414 -36.94921875 128.53125 C-45.729762 128.76140676 -53.88886051 129.4336141 -62.40625 131.5703125 C-65.21782367 132.0972368 -66.60429135 132.24021577 -69.19921875 131.09375 C-70.8671875 129.53515625 -70.8671875 129.53515625 -72.38671875 127.65625 C-73.15048828 126.73005859 -73.15048828 126.73005859 -73.9296875 125.78515625 C-75.19921875 124.09375 -75.19921875 124.09375 -76.19921875 122.09375 C-131.96921875 121.76375 -187.73921875 121.43375 -245.19921875 121.09375 C-245.19921875 120.76375 -245.19921875 120.43375 -245.19921875 120.09375 C-189.75921875 120.09375 -134.31921875 120.09375 -77.19921875 120.09375 C-77.85921875 118.11375 -78.51921875 116.13375 -79.19921875 114.09375 C-80.43632597 105.17507007 -77.87414183 97.28547124 -72.57421875 90.09375 C-66.65922657 83.69349238 -57.85648128 80.02366139 -50.19921875 76.09375 C-51.04484375 75.94679688 -51.89046875 75.79984375 -52.76171875 75.6484375 C-62.7050094 73.68237776 -68.70562402 70.95333098 -74.57421875 62.59375 C-78.69314403 55.86691822 -80.11448888 49.9488531 -79.19921875 42.09375 C-77.10962178 33.81043744 -72.69331301 27.17652834 -65.60961914 22.31738281 C-62.61482965 20.55727602 -59.58317027 18.90379296 -56.51171875 17.28125 C-54.87178955 16.39046753 -54.87178955 16.39046753 -53.19873047 15.48168945 C-50.96055757 14.26673237 -48.71901483 13.0579623 -46.47412109 11.85546875 C-43.37488636 10.18824959 -40.29372568 8.49272012 -37.21875 6.78125 C-29.46231785 2.46771349 -29.46231785 2.46771349 -26.98828125 1.10546875 C-25.99368896 0.55572388 -25.99368896 0.55572388 -24.97900391 -0.00512695 C-17.93873132 -3.56968746 -7.15545914 -3.30959138 0 0 Z " fill="#FEC4AA" transform="translate(434.19921875,171.90625)"/>
<path d="M0 0 C0.74507812 0.00515625 1.49015625 0.0103125 2.2578125 0.015625 C3.41023437 0.0465625 3.41023437 0.0465625 4.5859375 0.078125 C5.74996094 0.08585937 5.74996094 0.08585937 6.9375 0.09375 C12.65089286 0.17310268 12.65089286 0.17310268 14.9609375 1.328125 C16.85374181 1.50907594 18.75058689 1.6489441 20.6484375 1.765625 C25.3769327 2.11841285 29.48292726 2.8015306 33.9609375 4.328125 C34.27160156 3.67714844 34.58226562 3.02617188 34.90234375 2.35546875 C37.57908707 -0.28064089 39.67052029 -0.16349344 43.32250977 -0.17651367 C44.17256592 -0.15435791 45.02262207 -0.13220215 45.8984375 -0.109375 C46.77491943 -0.09688721 47.65140137 -0.08439941 48.55444336 -0.0715332 C55.09796018 0.09914697 61.5449072 0.72056531 68.0234375 1.640625 C68.87349365 1.75801025 69.7235498 1.87539551 70.59936523 1.99633789 C71.78574585 2.18570923 71.78574585 2.18570923 72.99609375 2.37890625 C73.690979 2.48887939 74.38586426 2.59885254 75.10180664 2.7121582 C77.59402409 3.5378791 78.48265301 4.12126539 79.9609375 6.328125 C80.36092825 9.03975303 80.58875507 11.55305507 80.69140625 14.27734375 C80.75162712 15.43626884 80.75162712 15.43626884 80.81306458 16.61860657 C80.93811533 19.08383733 81.0435098 21.54946378 81.1484375 24.015625 C81.22982596 25.6882145 81.31249295 27.36074231 81.39648438 29.03320312 C81.59947214 33.13094246 81.78483789 37.22914568 81.9609375 41.328125 C82.91733549 37.2029801 83.19568139 33.20662435 83.390625 28.98046875 C83.46423283 27.55660891 83.53847053 26.13278152 83.61328125 24.70898438 C83.72693576 22.48189715 83.83641216 20.25490532 83.93505859 18.02709961 C84.03270234 15.86488606 84.14777625 13.70416279 84.265625 11.54296875 C84.32733887 10.25511475 84.38905273 8.96726074 84.45263672 7.64038086 C84.97862543 4.2128646 85.43326259 2.6732819 87.9609375 0.328125 C90.9380454 -0.02317373 93.49786791 -0.14086218 96.4609375 -0.046875 C97.61916016 -0.04494141 97.61916016 -0.04494141 98.80078125 -0.04296875 C102.67321652 0.01743319 104.67726818 0.13901212 107.9609375 2.328125 C110.15046493 2.66116488 110.15046493 2.66116488 112.55859375 2.671875 C113.44224609 2.70152344 114.32589844 2.73117188 115.23632812 2.76171875 C117.09830508 2.8060826 118.96028426 2.85035305 120.82226562 2.89453125 C121.70462891 2.92417969 122.58699219 2.95382813 123.49609375 2.984375 C124.70857788 3.01241211 124.70857788 3.01241211 125.94555664 3.04101562 C127.9609375 3.328125 127.9609375 3.328125 129.9609375 5.328125 C130.02319336 8.16088867 130.02319336 8.16088867 129.73828125 11.80859375 C129.68671371 12.46901169 129.63514618 13.12942963 129.58201599 13.80986023 C128.94923622 21.34147885 127.93967824 28.82487916 126.85913086 36.3034668 C126.51748139 38.68209253 126.19107404 41.06252197 125.86523438 43.44335938 C125.64934255 44.96367046 125.43257983 46.4838582 125.21484375 48.00390625 C125.11893448 48.71211014 125.02302521 49.42031403 124.92420959 50.14997864 C124.19021942 55.09884308 124.19021942 55.09884308 121.9609375 57.328125 C119.57836914 57.5234375 119.57836914 57.5234375 116.62109375 57.453125 C115.55826172 57.43765625 114.49542969 57.4221875 113.40039062 57.40625 C111.1529927 57.35425699 108.90559686 57.30217397 106.65820312 57.25 C105.59408203 57.23453125 104.52996094 57.2190625 103.43359375 57.203125 C102.45656494 57.17992187 101.47953613 57.15671875 100.47290039 57.1328125 C97.7112185 57.14177613 97.7112185 57.14177613 94.9609375 59.328125 C93.57165446 62.3570029 93.57165446 62.3570029 92.3984375 65.828125 C90.16162361 72.12743889 90.16162361 72.12743889 87.9609375 74.328125 C84.43614749 75.27615927 81.06186277 75.47179285 77.42382812 75.52099609 C76.33920288 75.53705902 75.25457764 75.55312195 74.13708496 75.56967163 C69.21135275 75.6142996 64.28575019 75.65513744 59.35986328 75.67822266 C56.76048862 75.6948248 54.1611604 75.72216995 51.56201172 75.76025391 C47.80933012 75.81491615 44.05771311 75.8368762 40.3046875 75.8515625 C39.14312134 75.87423187 37.98155518 75.89690125 36.78479004 75.92025757 C28.73466768 75.89910451 28.73466768 75.89910451 24.76806641 72.97192383 C22.88318471 70.21437399 21.80235509 67.83154433 20.8359375 64.640625 C19.56464987 60.19192338 19.56464987 60.19192338 15.9609375 57.328125 C13.64170476 56.96236446 13.64170476 56.96236446 11.07421875 56.9140625 C10.13642578 56.87539062 9.19863281 56.83671875 8.23242188 56.796875 C7.25595703 56.7659375 6.27949219 56.735 5.2734375 56.703125 C4.28537109 56.66445312 3.29730469 56.62578125 2.27929688 56.5859375 C-0.15996957 56.49166633 -2.59922845 56.40606282 -5.0390625 56.328125 C-5.47596733 51.51326334 -5.90263215 46.69762864 -6.32080078 41.88110352 C-6.46366173 40.25098657 -6.60907003 38.62109037 -6.75732422 36.99145508 C-7.5480207 28.28034658 -8.20429004 19.57176041 -8.3828125 10.82421875 C-8.41064819 10.11225845 -8.43848389 9.40029816 -8.46716309 8.66676331 C-8.49145124 5.48790481 -8.45021605 3.78087054 -6.27001953 1.38012695 C-3.94757163 0.28498272 -2.54743962 -0.03508703 0 0 Z " fill="#FDB43C" transform="translate(237.0390625,53.671875)"/>
<path d="M0 0 C7.52956644 5.30834434 12.14569333 12.66516263 14.53125 21.52734375 C15.53279523 33.31296898 15.05014883 43.30177608 7.28125 52.77734375 C0.97237842 59.83578423 -7.25960599 64.24344017 -15.53125 68.58984375 C-17.6832374 69.73781221 -19.83425635 70.88759772 -21.984375 72.0390625 C-23.06912109 72.61962402 -24.15386719 73.20018555 -25.27148438 73.79833984 C-30.14555229 76.43411787 -34.96539864 79.16202078 -39.78125 81.90234375 C-48.00335921 86.57263464 -56.24075548 91.21388316 -64.50228882 95.81402588 C-65.7255736 96.49547787 -66.94841667 97.17772343 -68.17080688 97.86077881 C-69.87051178 98.81032843 -71.57193338 99.75680319 -73.2734375 100.703125 C-74.25296387 101.24880127 -75.23249023 101.79447754 -76.24169922 102.35668945 C-78.46875 103.52734375 -78.46875 103.52734375 -79.46875 103.52734375 C-79.46875 76.46734375 -79.46875 49.40734375 -79.46875 21.52734375 C-70.55875 16.57734375 -61.64875 11.62734375 -52.46875 6.52734375 C-45.29979567 2.46366851 -45.29979567 2.46366851 -38.140625 -1.6171875 C-25.88161276 -8.15361849 -11.72619423 -6.99489751 0 0 Z " fill="#FFC5AA" transform="translate(497.46875,54.47265625)"/>
<path d="M0 0 C0.495 1.485 0.495 1.485 1 3 C1.639375 3.309375 2.27875 3.61875 2.9375 3.9375 C5.59104179 5.30447607 6.08251209 6.17107896 7 9 C7.32827637 15.19621641 6.29602078 21.03010229 5.25 27.125 C3.67674847 36.58628189 2.27372906 46.05637891 1 55.5625 C-0.32788861 65.41122371 -1.79679613 75.2175452 -3.50219727 85.00805664 C-4.43282223 90.39843566 -5.25602894 95.78652529 -5.96484375 101.2109375 C-6.12791016 102.42507324 -6.29097656 103.63920898 -6.45898438 104.89013672 C-6.76926341 107.2308438 -7.0644754 109.57361684 -7.34179688 111.91845703 C-8.37672449 119.6119604 -10.094854 125.68590313 -16.16796875 130.83984375 C-16.83441406 131.20207031 -17.50085938 131.56429687 -18.1875 131.9375 C-19.19876953 132.50791016 -19.19876953 132.50791016 -20.23046875 133.08984375 C-24.14572273 135.10364988 -27.33184459 135.16823671 -31.6875 135.19287109 C-32.87816322 135.20513733 -32.87816322 135.20513733 -34.09288025 135.21765137 C-36.72857917 135.24252649 -39.36422389 135.25903268 -42 135.2734375 C-42.90138702 135.27876118 -43.80277405 135.28408485 -44.73147583 135.28956985 C-49.508638 135.31631909 -54.28577396 135.33568253 -59.06298828 135.35009766 C-63.00691091 135.36340281 -66.95031196 135.39118911 -70.89404297 135.43212891 C-75.66210299 135.48162558 -80.4296921 135.50624055 -85.19799805 135.51332474 C-87.00957373 135.5200121 -88.82113995 135.53516815 -90.63256836 135.55921555 C-101.72389717 135.69797615 -111.06570365 135.78593894 -119.5 127.5625 C-121.99745113 123.29602098 -123 119.95145455 -123 115 C-121.54540123 114.99453156 -121.54540123 114.99453156 -120.06141663 114.98895264 C-110.89586422 114.95191538 -101.73064508 114.89404777 -92.56534672 114.81609726 C-87.85401638 114.77668861 -83.14287109 114.74446782 -78.43139648 114.72900391 C-73.87944346 114.71379361 -69.32799941 114.67927101 -64.77627373 114.63169098 C-63.04491045 114.61692212 -61.31347448 114.60896158 -59.58204842 114.60811615 C-46.65922712 114.90108399 -46.65922712 114.90108399 -35 110 C-31.5103352 105.99519421 -30.32196038 102.36155463 -29.375 97.1875 C-29.25511719 96.54659424 -29.13523437 95.90568848 -29.01171875 95.24536133 C-27.98669331 89.52712463 -27.37403835 83.77100293 -26.77124023 77.99584961 C-26.24650761 73.27325599 -25.23701396 69.07386779 -23.69775391 64.59985352 C-22.91627346 61.68803222 -22.69908934 59.00135724 -22.52734375 55.9921875 C-22.07310081 49.38130562 -21.18129888 42.91337533 -20.125 36.375 C-19.94864014 35.25996094 -19.77228027 34.14492187 -19.59057617 32.99609375 C-19.23370439 30.74155507 -18.87493147 28.48731641 -18.51416016 26.23339844 C-18.03368641 23.21184372 -17.56641295 20.1886499 -17.10546875 17.1640625 C-16.84115493 15.44270694 -16.5768326 13.72135268 -16.3125 12 C-16.19342285 11.21157715 -16.0743457 10.4231543 -15.95166016 9.61083984 C-15.11338576 4.22677151 -15.11338576 4.22677151 -14 2 C-9.38 2 -4.76 2 0 2 C0 1.34 0 0.68 0 0 Z " fill="#DA4646" transform="translate(360,109)"/>
<path d="M0 0 C0.92761139 -0.00058411 1.85522278 -0.00116821 2.8109436 -0.00177002 C5.85750586 0.00100249 8.9030729 0.03205527 11.94946289 0.06347656 C14.06937628 0.07094191 16.18929659 0.07663345 18.30921936 0.08062744 C23.87422925 0.09586056 29.43881799 0.13512265 35.00366211 0.17944336 C40.68801172 0.22044602 46.37242973 0.23864914 52.05688477 0.25878906 C63.19964738 0.30161891 74.34209816 0.36984232 85.48461914 0.45410156 C83.97999484 3.54870705 82.25739167 6.41997408 80.4128418 9.32568359 C73.90111828 19.70720052 69.62726066 30.25754511 66.90405273 42.21923828 C66.63724701 43.38752167 66.37044128 44.55580505 66.09555054 45.75949097 C65.7931395 47.09332321 65.7931395 47.09332321 65.48461914 48.45410156 C55.82679349 48.54693643 46.16912234 48.61793472 36.51094723 48.66135025 C32.02585484 48.68219156 27.54106858 48.71044561 23.05615234 48.75585938 C18.72487456 48.79944107 14.39389054 48.82326466 10.06241035 48.83361053 C8.41303447 48.84097987 6.76367398 48.85537054 5.11442375 48.87702179 C2.79728809 48.90622081 0.48135364 48.91005087 -1.8359375 48.90820312 C-3.81117149 48.92152679 -3.81117149 48.92152679 -5.8263092 48.93511963 C-10.90445874 48.27297969 -14.5615291 46.36719146 -18.27075195 42.73535156 C-22.08227285 36.79582647 -22.26911432 31.38854407 -22.14038086 24.45410156 C-22.1597168 23.41253906 -22.17905273 22.37097656 -22.19897461 21.29785156 C-22.16180472 15.41014053 -21.46719001 11.15388789 -18.27075195 6.17285156 C-12.6604054 0.67954979 -7.51873162 -0.12527052 0 0 Z " fill="#AC6BAD" transform="translate(237.515380859375,332.5458984375)"/>
<path d="M0 0 C3.6578218 2.03993908 5.66946174 3.50419262 8 7 C8.8361325 11.1658637 8.98081845 15.22140317 6.890625 19.01171875 C5.05281333 21.18161026 3.09414822 23.07407025 1 25 C-0.00315912 25.94863224 -1.00572209 26.89789514 -2.0078125 27.84765625 C-5.3003956 30.94106328 -8.64329234 33.97647973 -12 37 C-12.87140625 37.78632813 -13.7428125 38.57265625 -14.640625 39.3828125 C-16.24708031 40.82862228 -17.85513882 42.27265283 -19.46484375 43.71484375 C-22.36913266 46.33273129 -25.24770775 48.97753203 -28.125 51.625 C-31.97130397 55.16253827 -35.85944784 58.64085074 -39.8125 62.05859375 C-42.15522036 64.13775807 -44.44300065 66.26875604 -46.73144531 68.40722656 C-63.99730261 84.52663884 -63.99730261 84.52663884 -72.62890625 84.40234375 C-78.95562929 83.32878119 -83.1800842 76.82706631 -87.125 72.1953125 C-89.16943017 69.80162551 -91.26552692 67.46153442 -93.375 65.125 C-94.13554687 64.28195312 -94.89609375 63.43890625 -95.6796875 62.5703125 C-96.44539063 61.72210938 -97.21109375 60.87390625 -98 60 C-100.24435641 57.50713354 -102.48784735 55.0135598 -104.7265625 52.515625 C-106.29106074 50.784462 -107.87010175 49.06636701 -109.4609375 47.359375 C-110.25757813 46.49828125 -111.05421875 45.6371875 -111.875 44.75 C-112.59429687 43.98171875 -113.31359375 43.2134375 -114.0546875 42.421875 C-116.89759654 38.88251033 -118.77982305 35.50978477 -119.4375 31 C-118.72628836 26.12312017 -116.44826166 23.14336447 -112.625 20.125 C-109.39835874 18.74215374 -107.48313618 18.50240912 -104 19 C-98.79325332 21.9721231 -95.06776581 25.83332046 -91.0625 30.25 C-90.4449585 30.92168213 -89.82741699 31.59336426 -89.19116211 32.28540039 C-85.05656199 36.79592292 -80.9837721 41.35565345 -77 46 C-75.68878978 47.50112758 -74.37629134 49.00113091 -73.0625 50.5 C-72.04166667 51.66666667 -71.02083333 52.83333333 -70 54 C-67.13005812 52.68120833 -64.91254253 51.22904698 -62.5625 49.125 C-61.87285156 48.50882812 -61.18320312 47.89265625 -60.47265625 47.2578125 C-56.89339319 43.98954386 -53.33375509 40.70026334 -49.77954102 37.40478516 C-46.29091629 34.17433382 -42.75340066 31.01565142 -39.15625 27.90625 C-36.22759337 25.31714776 -33.36610855 22.65795996 -30.5 20 C-25.73523272 15.58364186 -20.92236226 11.24080441 -16 7 C-15.36191406 6.4328125 -14.72382813 5.865625 -14.06640625 5.28125 C-13.44636719 4.7346875 -12.82632813 4.188125 -12.1875 3.625 C-11.37345703 2.90183594 -11.37345703 2.90183594 -10.54296875 2.1640625 C-7.25011596 -0.32016568 -3.96461886 -0.38868812 0 0 Z " fill="#FBFEFD" transform="translate(453,354)"/>
<path d="M0 0 C7.66923782 3.54722777 12.23884632 9.15728407 15.91015625 16.60546875 C16.74333274 19.32353633 16.67287442 20.32017473 15.625 22.9375 C13.77490234 24.39453125 13.77490234 24.39453125 11.3359375 25.75 C10.4294043 26.26304687 9.52287109 26.77609375 8.58886719 27.3046875 C7.61079102 27.84351563 6.63271484 28.38234375 5.625 28.9375 C3.61701657 30.08303376 1.60920854 31.22887503 -0.3984375 32.375 C-2.51472545 33.56410239 -4.63192439 34.7515848 -6.75 35.9375 C-8.32007813 36.82308594 -8.32007813 36.82308594 -9.921875 37.7265625 C-34.32333986 51.40343293 -34.32333986 51.40343293 -46.375 49.9375 C-55.66195741 46.80832061 -61.30179336 42.05951107 -66.25 33.8125 C-67.43933063 30.77309949 -67.85946266 29.15077274 -67.375 25.9375 C-65.375 24.15625 -65.375 24.15625 -62.375 22.4375 C-61.81756104 22.11346191 -61.26012207 21.78942383 -60.68579102 21.45556641 C-58.59611712 20.2563987 -56.48757805 19.09585544 -54.375 17.9375 C-53.45831543 17.43057617 -52.54163086 16.92365234 -51.59716797 16.40136719 C-44.55634019 12.51685139 -37.48841829 8.68740167 -30.375 4.9375 C-28.80951416 4.08925659 -28.80951416 4.08925659 -27.21240234 3.22387695 C-18.05587208 -1.60147596 -10.22160427 -3.16669309 0 0 Z " fill="#FEC4AA" transform="translate(432.375,171.0625)"/>
<path d="M0 0 C13.45552406 4.33211976 13.45552406 4.33211976 18.2421875 10.25390625 C19 12 19 12 18.7890625 14.05859375 C16.58350316 19.48514321 10.51580398 21.88400803 5.47949219 24.06347656 C1.52560354 25.55689098 -2.47656332 26.36654178 -6.625 27.125 C-7.41261719 27.28097656 -8.20023437 27.43695313 -9.01171875 27.59765625 C-11.66870377 28.10715734 -14.33064169 28.5599013 -17 29 C-18.57213257 29.27251587 -18.57213257 29.27251587 -20.17602539 29.55053711 C-30.82185745 31.20373575 -41.35895559 31.33880562 -52.11352539 31.31567383 C-55.16524336 31.31252298 -58.21597974 31.3360271 -61.26757812 31.36132812 C-80.9929221 31.42466529 -110.83502381 31.08189146 -126.7265625 17.52734375 C-128 16 -128 16 -128.5625 13.125 C-127.92131056 9.56283646 -126.81396931 8.29056425 -123.91796875 6.171875 C-115.05871532 0.7588892 -115.05871532 0.7588892 -110.83203125 1.25390625 C-109 2 -109 2 -107.3125 4.3125 C-103.08581228 9.22459654 -98.46993732 10.7618596 -92.04443359 11.38137817 C-87.12441409 11.59709954 -82.20497863 11.58362413 -77.28125 11.56640625 C-75.45479009 11.57164884 -73.62833288 11.57792764 -71.80187988 11.58518982 C-67.98579102 11.59556275 -64.17007579 11.59107679 -60.35400391 11.57641602 C-55.48171305 11.55922245 -50.61060093 11.58274665 -45.73844147 11.61790562 C-41.97040097 11.63994162 -38.20263993 11.63842336 -34.43455505 11.6301403 C-32.63893846 11.62932438 -30.8433006 11.63611864 -29.04774475 11.65091133 C-15.60381911 12.03464883 -15.60381911 12.03464883 -4 6 C-2.33736398 4.04782096 -1.21896164 2.27892829 0 0 Z " fill="#913E98" transform="translate(349,232)"/>
<path d="M0 0 C0.73397003 -0.00554901 1.46794006 -0.01109802 2.22415161 -0.01681519 C4.64099213 -0.02858895 7.05594798 -0.00436222 9.47265625 0.02148438 C11.15746983 0.02319619 12.84228608 0.02312908 14.52709961 0.0213623 C18.05445919 0.02301424 21.58118224 0.04168836 25.10839844 0.07324219 C29.62451354 0.1129197 34.13979531 0.11728671 38.65605164 0.10977936 C42.13398847 0.1067064 45.61173877 0.11884173 49.08963013 0.13591003 C50.75455556 0.14292969 52.41950213 0.14606582 54.08444214 0.1452179 C56.41345251 0.14702038 58.74147372 0.16843919 61.0703125 0.1953125 C62.09754929 0.1909166 62.09754929 0.1909166 63.14553833 0.18643188 C67.4217461 0.2623704 70.12495057 1.0139843 73.53515625 3.61523438 C75.85978423 8.26449033 73.47073445 15.4542593 72.34765625 20.36523438 C72.14785156 21.24695313 71.94804687 22.12867188 71.7421875 23.03710938 C70.02302286 26.70911153 68.16518624 28.87572191 64.53515625 30.61523438 C59.51863464 31.36708134 54.52659171 31.29527166 49.46875 31.24414062 C47.98714524 31.24497006 46.50554058 31.24743228 45.02394104 31.25144958 C41.92624045 31.25430132 38.82926542 31.23966724 35.73168945 31.2121582 C31.76807766 31.17804532 27.80575995 31.18410875 23.84208584 31.20282078 C20.78531673 31.21340548 17.72884707 31.20444037 14.67210579 31.18943596 C13.21092684 31.1842664 11.74971647 31.18472106 10.28854179 31.19098091 C8.24433344 31.19645269 6.20195817 31.17600203 4.15795898 31.14868164 C2.99691147 31.14248306 1.83586395 31.13628448 0.63963318 31.12989807 C-3.13823909 30.50359813 -4.77653725 29.30110026 -7.46484375 26.61523438 C-8.61658767 24.0956168 -9.49044216 21.86151969 -10.27734375 19.24023438 C-10.49326172 18.593125 -10.70917969 17.94601563 -10.93164062 17.27929688 C-12.19622555 13.29685799 -13.12231771 9.76589606 -12.46484375 5.61523438 C-8.75191011 0.86260017 -5.81506085 -0.11262239 0 0 Z " fill="#FDBF11" transform="translate(263.46484375,159.384765625)"/>
<path d="M0 0 C2.94314587 4.41471881 1.99296899 7.9395358 1 13 C-2.02606984 23.51343122 -9.29923246 29.32898322 -18.5 34.5 C-25.93860049 38.56558594 -33.52483498 42.35165033 -41.13671875 46.08007812 C-44.96112735 47.96822954 -48.75136111 49.92562783 -52.546875 51.87109375 C-59.41828323 55.03325454 -67.46027182 54.9827052 -74.6875 52.9375 C-82.48221664 49.93953206 -87.28984749 44.3654775 -91.08984375 37.11328125 C-94.08223249 30.16528852 -93.94967838 22.78956487 -91.3125 15.75 C-89.44422889 11.50453806 -87.18039327 8.35708179 -84 5 C-83.72285156 5.55945313 -83.44570313 6.11890625 -83.16015625 6.6953125 C-82.77730469 7.45585937 -82.39445312 8.21640625 -82 9 C-81.60683594 9.78117188 -81.21367187 10.56234375 -80.80859375 11.3671875 C-76.39502818 19.43986299 -70.73119535 24.04094747 -62 27 C-48.62130765 28.8446673 -37.81479116 22.18628226 -26.625 15.6875 C-25.63419434 15.1193457 -24.64338867 14.55119141 -23.62255859 13.96582031 C-21.65431555 12.83662142 -19.68762725 11.70470737 -17.72265625 10.56982422 C-15.29993682 9.17293703 -12.87127908 7.78765329 -10.4375 6.41015625 C-9.78185059 6.03866455 -9.12620117 5.66717285 -8.45068359 5.28442383 C-7.84820801 4.94306396 -7.24573242 4.6017041 -6.625 4.25 C-3.10686472 2.41007608 -3.10686472 2.41007608 0 0 Z " fill="#F1ADA0" transform="translate(448,193)"/>
<path d="M0 0 C3.04903476 4.57355214 1.99852642 8.74875673 1 14 C-1.62767538 21.40979551 -6.01234819 26.75109821 -12.75 30.8125 C-13.58023682 31.31354248 -13.58023682 31.31354248 -14.42724609 31.82470703 C-20.33793751 35.32280472 -26.48828111 38.33968246 -32.6640625 41.3359375 C-36.02076236 42.92358932 -36.02076236 42.92358932 -39 45 C-41.39746094 45.27124023 -41.39746094 45.27124023 -44.234375 45.30859375 C-45.27698486 45.33195801 -46.31959473 45.35532227 -47.39379883 45.37939453 C-48.50134521 45.39856934 -49.6088916 45.41774414 -50.75 45.4375 C-59.53054325 45.66765676 -67.68964176 46.3398641 -76.20703125 48.4765625 C-79.01860492 49.0034868 -80.4050726 49.14646577 -83 48 C-84.66796875 46.44140625 -84.66796875 46.44140625 -86.1875 44.5625 C-86.95126953 43.63630859 -86.95126953 43.63630859 -87.73046875 42.69140625 C-89 41 -89 41 -90 39 C-145.77 38.67 -201.54 38.34 -259 38 C-259 37.67 -259 37.34 -259 37 C-203.56 37 -148.12 37 -91 37 C-91.99 34.03 -91.99 34.03 -93 31 C-94.10982977 22.99890166 -92.27275427 15.6541718 -87.62109375 9.0390625 C-86.47126227 7.64354054 -85.24358115 6.312669 -84 5 C-83.72285156 5.55945313 -83.44570313 6.11890625 -83.16015625 6.6953125 C-82.77730469 7.45585937 -82.39445313 8.21640625 -82 9 C-81.60683594 9.78117187 -81.21367187 10.56234375 -80.80859375 11.3671875 C-76.39502818 19.43986299 -70.73119535 24.04094747 -62 27 C-48.62130765 28.8446673 -37.81479116 22.18628226 -26.625 15.6875 C-25.63419434 15.1193457 -24.64338867 14.55119141 -23.62255859 13.96582031 C-21.65431555 12.83662142 -19.68762725 11.70470737 -17.72265625 10.56982422 C-15.29993682 9.17293703 -12.87127908 7.78765329 -10.4375 6.41015625 C-9.78185059 6.03866455 -9.12620117 5.66717285 -8.45068359 5.28442383 C-7.84820801 4.94306396 -7.24573242 4.6017041 -6.625 4.25 C-3.10686472 2.41007608 -3.10686472 2.41007608 0 0 Z " fill="#EFAEA3" transform="translate(448,255)"/>
<path d="M0 0 C2.47117989 1.76753075 2.95464903 2.73538652 3.47436523 5.76782227 C3.52278564 6.91822998 3.57120605 8.0686377 3.62109375 9.25390625 C3.66815712 10.22572594 3.66815712 10.22572594 3.71617126 11.21717834 C3.7849657 12.67341674 3.84717365 14.12997612 3.9039917 15.58673096 C4.00652638 18.16404746 4.13062599 20.73972817 4.25830078 23.31591797 C4.49667247 28.18275676 4.71679522 33.05020879 4.92993164 37.91821289 C5.06334142 40.9566635 5.2004642 43.99493181 5.33789062 47.03320312 C5.42470017 48.98957354 5.51129636 50.94595343 5.59765625 52.90234375 C5.65857201 54.2463047 5.65857201 54.2463047 5.72071838 55.61741638 C5.7575322 56.4693306 5.79434601 57.32124481 5.83227539 58.19897461 C5.86478897 58.93538681 5.89730255 59.67179901 5.93080139 60.43052673 C6.02565137 63.95248302 6 67.47676674 6 71 C-1.92 71 -9.84 71 -18 71 C-19.65452613 46.96505345 -20.26911436 23.08987511 -20 -1 C-14.41347149 -3.79326426 -5.71417164 -1.70151289 0 0 Z " fill="#FED13E" transform="translate(314,57)"/>
<path d="M0 0 C0.886875 -0.00257812 1.77375 -0.00515625 2.6875 -0.0078125 C3.615625 -0.00007813 4.54375 0.00765625 5.5 0.015625 C6.8921875 0.00402344 6.8921875 0.00402344 8.3125 -0.0078125 C9.6428125 -0.00394531 9.6428125 -0.00394531 11 0 C11.8146875 0.00225586 12.629375 0.00451172 13.46875 0.00683594 C15.5 0.265625 15.5 0.265625 17.5 2.265625 C16.84 2.265625 16.18 2.265625 15.5 2.265625 C15.62040263 7.22381322 15.74472388 12.18188411 15.87231445 17.13989258 C15.91499681 18.81825247 15.95670105 20.49663759 15.99731445 22.17504883 C16.22674425 31.62699001 16.56807948 41.0526323 17.16622925 50.48873901 C17.49376072 55.77673263 17.62392542 61.0319492 17.5625 66.328125 C17.541875 68.9475 17.52125 71.566875 17.5 74.265625 C25.42 74.265625 33.34 74.265625 41.5 74.265625 C41.5 74.595625 41.5 74.925625 41.5 75.265625 C23.35 75.265625 5.2 75.265625 -13.5 75.265625 C-13.5 74.935625 -13.5 74.605625 -13.5 74.265625 C-10.53 74.265625 -7.56 74.265625 -4.5 74.265625 C-4.60763752 65.61618554 -4.72029823 56.96683025 -4.83933926 48.31754017 C-4.89445996 44.30115747 -4.94786228 40.28476736 -4.99731445 36.26831055 C-5.0451185 32.39087967 -5.09746649 28.51353413 -5.15294075 24.63620567 C-5.17329181 23.15829283 -5.19201656 21.68035664 -5.20907402 20.20240211 C-5.23327928 18.12939671 -5.26331065 16.0565503 -5.29467773 13.98364258 C-5.31022202 12.80449783 -5.3257663 11.62535309 -5.34178162 10.41047668 C-5.40724112 7.30008962 -5.40724112 7.30008962 -6.13783264 4.4707489 C-6.31710548 3.37921257 -6.31710548 3.37921257 -6.5 2.265625 C-4.05013068 -0.18424432 -3.362922 0.00931189 0 0 Z " fill="#FB933A" transform="translate(278.5,53.734375)"/>
<path d="M0 0 C2 2 2 2 2.06225586 4.83276367 C1.96823486 6.03650635 1.87421387 7.24024902 1.77734375 8.48046875 C1.69999245 9.47109566 1.69999245 9.47109566 1.62107849 10.48173523 C0.98829872 18.01335385 -0.02125926 25.49675416 -1.10180664 32.9753418 C-1.44345611 35.35396753 -1.76986346 37.73439697 -2.09570312 40.11523438 C-2.31159495 41.63554546 -2.52835767 43.1557332 -2.74609375 44.67578125 C-2.84200302 45.38398514 -2.93791229 46.09218903 -3.03672791 46.82185364 C-3.77071808 51.77071808 -3.77071808 51.77071808 -6 54 C-8.24658203 54.13525391 -8.24658203 54.13525391 -11.0078125 53.9765625 C-11.99394531 53.925 -12.98007812 53.8734375 -13.99609375 53.8203125 C-15.54490234 53.72363281 -15.54490234 53.72363281 -17.125 53.625 C-18.68541016 53.53992188 -18.68541016 53.53992188 -20.27734375 53.453125 C-22.85223418 53.31138791 -25.4261874 53.15995446 -28 53 C-27.4746204 42.58591585 -26.3889137 32.34209813 -24.89819336 22.0246582 C-24.55654389 19.64603247 -24.23013654 17.26560303 -23.90429688 14.88476562 C-23.68840505 13.36445454 -23.47164233 11.8442668 -23.25390625 10.32421875 C-23.11004234 9.26191292 -23.11004234 9.26191292 -22.96327209 8.17814636 C-22.22928192 3.22928192 -22.22928192 3.22928192 -20 1 C-13.47763429 -0.2078455 -6.61068778 -0.60004705 0 0 Z " fill="#FED03E" transform="translate(365,57)"/>
<path d="M0 0 C1.13115234 0.01450195 1.13115234 0.01450195 2.28515625 0.02929688 C3.45111328 0.06700195 3.45111328 0.06700195 4.640625 0.10546875 C5.43339844 0.11900391 6.22617188 0.13253906 7.04296875 0.14648438 C8.99248064 0.18171652 10.94164126 0.23552054 12.890625 0.29296875 C13.91162544 3.35597006 13.98073409 5.30008809 13.91235352 8.4987793 C13.88220909 10.09008919 13.88220909 10.09008919 13.85145569 11.71354675 C13.81090309 13.42928642 13.81090309 13.42928642 13.76953125 15.1796875 C13.74592026 16.35183304 13.72230927 17.52397858 13.69798279 18.73164368 C13.62131111 22.48137416 13.53730144 26.23089995 13.453125 29.98046875 C13.39990785 32.52017222 13.34716743 35.05988573 13.29492188 37.59960938 C13.1656911 43.83085918 13.02987832 50.06193519 12.890625 56.29296875 C6.950625 56.29296875 1.010625 56.29296875 -5.109375 56.29296875 C-5.54359772 51.47774897 -5.97293979 46.66252829 -6.39111328 41.84594727 C-6.53397423 40.21583032 -6.67938253 38.58593412 -6.82763672 36.95629883 C-7.6183332 28.24519033 -8.27460254 19.53660416 -8.453125 10.7890625 C-8.48096069 10.0771022 -8.50879639 9.36514191 -8.53747559 8.63160706 C-8.5617447 5.45524061 -8.51860347 3.74522622 -6.34472656 1.34277344 C-3.99010191 0.23695365 -2.58128453 -0.05866556 0 0 Z " fill="#FDB23D" transform="translate(237.109375,53.70703125)"/>
<path d="M0 0 C0 2.64 0 5.28 0 8 C-3.63 7.34 -7.26 6.68 -11 6 C-3.8 0 -3.8 0 0 0 Z " fill="#444945" transform="translate(418,295)"/>
<path d="M0 0 C0.33 0 0.66 0 1 0 C0.67 5.61 0.34 11.22 0 17 C-2.12906048 12.74187903 -2.47685877 9.63103229 -2 5 C-1 2 -1 2 0 0 Z " fill="#BF7A91" transform="translate(320,82)"/>
</svg>
