<?xml version="1.0" encoding="UTF-8"?>
<svg version="1.1" xmlns="http://www.w3.org/2000/svg" width="512" height="512">
<path d="M0 0 C1.24002274 -0.00860046 2.48004547 -0.01720093 3.75764465 -0.02606201 C5.11930805 -0.03049659 6.48097189 -0.03479501 7.84263611 -0.03897095 C9.28726392 -0.04688159 10.7318898 -0.05515113 12.17651367 -0.06375122 C16.91277707 -0.08988669 21.64904886 -0.10528257 26.38536072 -0.11953735 C28.02492718 -0.12490281 29.6644936 -0.13028032 31.30405998 -0.13566971 C38.13691603 -0.15729683 44.96976982 -0.17602363 51.80265141 -0.1872921 C61.5404832 -0.20346418 71.27791178 -0.23647838 81.01559168 -0.29369295 C87.88986904 -0.33267934 94.76403996 -0.35195904 101.63842481 -0.35721266 C105.72875944 -0.36083068 109.81866333 -0.37246351 113.90887642 -0.4053154 C149.17343853 -0.67433114 179.11005611 5.54706878 205.03770447 30.96640015 C226.19536319 52.49029943 235.02263897 78.50520419 235.03990173 108.2527771 C234.7208236 137.51545204 222.19952209 162.12924274 201.63389587 182.68173218 C186.92006982 196.78645947 163.46254481 209.37088002 142.72520447 210.15390015 C139.51683518 209.85880125 136.33972529 209.42565365 133.14743042 208.99012756 C111.65751138 206.22227364 85.54242931 202.99326129 67.167099 216.6446228 C52.09455731 228.50538429 39.17717523 243.46054197 27.11865234 258.30229187 C26.65235885 258.87486442 26.18606535 259.44743696 25.70564175 260.03736019 C24.46171736 261.57543905 23.23111115 263.12426271 22.00160217 264.67388916 C18.93877516 268.01067193 16.32710986 269.91458454 11.82286072 270.5874939 C5.67448646 270.59540686 1.41206151 270.60040555 -3.27479553 266.15390015 C-5.8009176 262.57515041 -6.64724559 260.17955788 -6.6153717 255.81283569 C-6.61514511 254.77213425 -6.61491852 253.7314328 -6.61468506 252.65919495 C-6.59145927 250.9917498 -6.59145927 250.9917498 -6.56776428 249.2906189 C-6.56351944 248.1434993 -6.5592746 246.9963797 -6.55490112 245.8144989 C-6.53813037 242.15655893 -6.50047989 238.49917315 -6.46229553 234.84140015 C-6.44724668 232.35898624 -6.43355862 229.87656368 -6.42127991 227.39413452 C-6.38823202 221.31386783 -6.33804793 215.23392359 -6.27479553 209.15390015 C-6.94577774 209.09480972 -7.61675995 209.0357193 -8.30807495 208.97483826 C-9.19661667 208.89221237 -10.08515839 208.80958649 -11.00062561 208.72445679 C-12.31647392 208.60488365 -12.31647392 208.60488365 -13.65890503 208.4828949 C-17.59715184 207.98759032 -21.22046718 206.88258555 -24.96229553 205.59140015 C-25.73339661 205.3274646 -26.50449768 205.06352905 -27.29896545 204.79159546 C-54.54900413 195.09646602 -75.7012906 175.16668485 -88.52210999 149.39950562 C-100.3621993 124.29767291 -100.88069844 94.03048433 -91.58729553 68.09140015 C-86.84710457 55.73373875 -80.18269116 44.98086437 -71.27479553 35.15390015 C-70.83683655 34.66679565 -70.39887756 34.17969116 -69.94764709 33.67782593 C-52.6597387 14.68796748 -26.15466695 0.13578259 0 0 Z " fill="#FDD743" transform="translate(277.27479553222656,30.846099853515625)"/>
<path d="M0 0 C0.73221771 -0.0065712 1.46443542 -0.0131424 2.21884155 -0.01991272 C4.6356416 -0.03958155 7.05237976 -0.05129249 9.46923828 -0.0612793 C10.29655582 -0.06535482 11.12387337 -0.06943035 11.97626114 -0.07362938 C16.35331215 -0.09446042 20.73033207 -0.10877625 25.10742188 -0.11816406 C29.62233735 -0.12923651 34.13676109 -0.16365421 38.65150261 -0.20333576 C42.12941391 -0.22950161 45.60720782 -0.23785573 49.08520889 -0.24144554 C50.74935359 -0.24630975 52.4134931 -0.25791907 54.07754135 -0.27648354 C56.40886066 -0.30088066 58.73890412 -0.29990984 61.0703125 -0.29296875 C61.75311279 -0.30577881 62.43591309 -0.31858887 63.1394043 -0.33178711 C68.12022052 -0.27791025 70.95620231 0.87582845 74.66455078 4.17700195 C78.0150262 9.24429806 79.86211991 15.158587 81.78076172 20.88110352 C82.2059182 22.12678352 82.2059182 22.12678352 82.6396637 23.39762878 C83.56602804 26.11877199 84.48327466 28.84286147 85.39892578 31.56762695 C85.87333981 32.97390476 85.87333981 32.97390476 86.35733795 34.40859222 C88.03021506 39.36747933 89.69627364 44.32859344 91.35644531 49.29174805 C93.0638817 54.39211881 94.79346095 59.48468171 96.52840805 64.57574844 C97.86691787 68.51645949 99.18910949 72.46250849 100.50702667 76.41014862 C101.13733723 78.28904799 101.77359635 80.16596352 102.41613007 82.04071808 C110.26604234 104.98969336 110.26604234 104.98969336 106.62417603 113.65139771 C105.20576924 116.13857466 103.64090029 118.40043183 101.94189453 120.7043457 C101.07269127 121.95955772 101.07269127 121.95955772 100.18592834 123.24012756 C98.35039933 125.8841566 96.47966281 128.50023073 94.60205078 131.11450195 C92.72576527 133.75659864 90.85812619 136.40374684 89.00746155 139.06385803 C87.85940805 140.71120773 86.6958436 142.3478807 85.5153656 143.97215271 C84.99475052 144.71385208 84.47413544 145.45555145 83.93774414 146.21972656 C83.47363632 146.86525986 83.0095285 147.51079315 82.53135681 148.17588806 C81.35690144 150.88724316 81.81426402 152.38811055 82.66455078 155.17700195 C83.91418331 157.56525182 85.18984998 159.8274865 86.60205078 162.11450195 C87.20267334 163.09749268 87.20267334 163.09749268 87.81542969 164.1003418 C95.14015793 175.92953649 103.49720182 186.72943341 112.66455078 197.17700195 C113.39158203 198.01618164 114.11861328 198.85536133 114.86767578 199.7199707 C124.63657205 210.80947703 135.05268693 221.03244349 146.66455078 230.17700195 C148.4146589 231.65604069 150.16465667 233.13521002 151.91455078 234.61450195 C160.80056045 241.86993516 170.49483543 248.01956587 180.35205078 253.86450195 C181.46966797 254.52836914 182.58728516 255.19223633 183.73876953 255.8762207 C186.96753262 257.3117055 187.49082304 257.3090835 190.66455078 256.17700195 C192.55287868 255.11652023 192.55287868 255.11652023 194.41650391 253.76855469 C195.13825806 253.26811142 195.86001221 252.76766815 196.6036377 252.25205994 C197.37655151 251.71037674 198.14946533 251.16869354 198.94580078 250.6105957 C200.60895295 249.47319573 202.27304676 248.33717166 203.93798828 247.20239258 C206.54942522 245.41565859 209.15423427 243.62174715 211.74365234 241.80322266 C214.25251765 240.04629738 216.78371926 238.32643453 219.32080078 236.6105957 C220.07752075 236.06688828 220.83424072 235.52318085 221.6138916 234.96299744 C227.9537632 230.74227143 233.1651394 229.96451678 240.66455078 231.17700195 C247.68107427 232.8696262 254.48867708 235.26963046 261.31298828 237.59887695 C263.29884607 238.26321801 265.28515213 238.92622046 267.2718811 239.58795166 C271.41588614 240.97240057 275.55560395 242.36876793 279.69238281 243.7746582 C284.985415 245.5730732 290.28609361 247.34752015 295.58987999 249.11393356 C299.68444301 250.47933241 303.77580883 251.85409968 307.86616898 253.23203278 C309.81982282 253.88959606 311.77420095 254.54501167 313.72932053 255.19820404 C316.46006152 256.11280285 319.18652358 257.03916242 321.91210938 257.96899414 C323.11382278 258.36820572 323.11382278 258.36820572 324.33981323 258.77548218 C329.89896435 260.6919122 334.71984282 262.77007192 338.51429749 267.46640015 C339.99854698 270.96407268 340.05288364 273.74728577 340.06860352 277.54663086 C340.07889839 278.63312927 340.07889839 278.63312927 340.08940125 279.74157715 C340.10765487 282.12910758 340.10383133 284.51597937 340.09814453 286.90356445 C340.10270962 288.57400728 340.10801617 290.24444823 340.11402893 291.91488647 C340.12295916 295.41688662 340.12054101 298.91865876 340.1105957 302.4206543 C340.09915263 306.88243975 340.1192456 311.34342824 340.14851284 315.80510902 C340.16697671 319.25752677 340.16656146 322.70975757 340.16087532 326.16221237 C340.1607231 327.80545539 340.16668467 329.44871189 340.17916679 331.0919075 C340.27481499 345.75754855 337.71488722 357.54658855 327.44189453 368.55981445 C312.86508543 382.55909546 296.93845557 381.63252794 278.08210754 381.35440063 C216.39137323 380.09370864 153.49173234 352.83064914 104.66455078 316.17700195 C104.08608398 315.74726074 103.50761719 315.31751953 102.91162109 314.87475586 C86.14370227 302.38749785 70.81077363 288.38400715 55.97705078 273.67700195 C55.09791016 272.81091309 54.21876953 271.94482422 53.31298828 271.05249023 C47.32654766 265.07392651 41.93475975 258.78953333 36.66455078 252.17700195 C35.55623708 250.83672284 34.44462576 249.49915857 33.32861328 248.1652832 C25.87575791 239.18372921 19.03042939 229.95823881 12.66455078 220.17700195 C12.16487793 219.41355469 11.66520508 218.65010742 11.15039062 217.86352539 C-21.2664555 167.97126331 -42.1821644 110.7243177 -42.77294922 50.86450195 C-42.78525574 50.16217438 -42.79756226 49.4598468 -42.8102417 48.73623657 C-43.01796702 34.60987798 -39.88766395 23.27340087 -30.11279297 12.79418945 C-21.39061581 4.41758191 -12.05156856 0.04717998 0 0 Z " fill="#F03800" transform="translate(42.33544921875,99.822998046875)"/>
<path d="M0 0 C11.941875 -0.103125 23.88375 -0.20625 36.1875 -0.3125 C39.91184326 -0.35802002 43.63618652 -0.40354004 47.47338867 -0.45043945 C81.94585527 -0.69823039 110.99311421 5.98950609 136.3125 30.8125 C157.47015872 52.33639928 166.2974345 78.35130404 166.31469727 108.09887695 C165.99561913 137.36155189 153.47431762 161.97534259 132.90869141 182.52783203 C115.93161151 198.80212271 90.78660438 210.16238087 67.16601562 210.11010742 C65.18861389 210.11097603 65.18861389 210.11097603 63.17126465 210.11186218 C62.47643478 210.11043402 61.78160492 210.10900585 61.0657196 210.10753441 C57.34712729 210.10397736 53.62867937 210.12984324 49.91015625 210.15039062 C45.19632184 210.17471148 40.48293152 210.19039518 35.76904297 210.17504883 C31.94153157 210.16335875 28.11510719 210.18084767 24.2877655 210.21749306 C22.83662756 210.22607528 21.38538468 210.22407886 19.9342804 210.210989 C17.90089144 210.19400774 15.86728805 210.21771721 13.83398438 210.24291992 C12.68039429 210.24434494 11.5268042 210.24576996 10.33825684 210.24723816 C5.93408536 210.96683095 5.93408536 210.96683095 0 217 C0 184.99 0 152.98 0 120 C-2.31 119.67 -4.62 119.34 -7 119 C-11.67936313 116.23492179 -13.35122967 113.11986575 -15 108 C-15.6177224 103.05822081 -14.96037102 99.71874461 -12.33984375 95.578125 C-9.93370135 92.74406806 -7.39265385 91.51457761 -4 90 C-2.68 90 -1.36 90 0 90 C0 60.3 0 30.6 0 0 Z " fill="#F9BE2C" transform="translate(346,31)"/>
<path d="M0 0 C0.73221771 -0.0065712 1.46443542 -0.0131424 2.21884155 -0.01991272 C4.6356416 -0.03958155 7.05237976 -0.05129249 9.46923828 -0.0612793 C10.29655582 -0.06535482 11.12387337 -0.06943035 11.97626114 -0.07362938 C16.35331215 -0.09446042 20.73033207 -0.10877625 25.10742188 -0.11816406 C29.62233735 -0.12923651 34.13676109 -0.16365421 38.65150261 -0.20333576 C42.12941391 -0.22950161 45.60720782 -0.23785573 49.08520889 -0.24144554 C50.74935359 -0.24630975 52.4134931 -0.25791907 54.07754135 -0.27648354 C56.40886066 -0.30088066 58.73890412 -0.29990984 61.0703125 -0.29296875 C61.75311279 -0.30577881 62.43591309 -0.31858887 63.1394043 -0.33178711 C68.12022052 -0.27791025 70.95620231 0.87582845 74.66455078 4.17700195 C78.0150262 9.24429806 79.86211991 15.158587 81.78076172 20.88110352 C82.2059182 22.12678352 82.2059182 22.12678352 82.6396637 23.39762878 C83.56602804 26.11877199 84.48327466 28.84286147 85.39892578 31.56762695 C85.87333981 32.97390476 85.87333981 32.97390476 86.35733795 34.40859222 C88.03021506 39.36747933 89.69627364 44.32859344 91.35644531 49.29174805 C93.0638817 54.39211881 94.79346095 59.48468171 96.52840805 64.57574844 C97.86691787 68.51645949 99.18910949 72.46250849 100.50702667 76.41014862 C101.13733723 78.28904799 101.77359635 80.16596352 102.41613007 82.04071808 C110.26604234 104.98969336 110.26604234 104.98969336 106.62417603 113.65139771 C105.20576924 116.13857466 103.64090029 118.40043183 101.94189453 120.7043457 C101.07269127 121.95955772 101.07269127 121.95955772 100.18592834 123.24012756 C98.35039933 125.8841566 96.47966281 128.50023073 94.60205078 131.11450195 C92.72576527 133.75659864 90.85812619 136.40374684 89.00746155 139.06385803 C87.85940805 140.71120773 86.6958436 142.3478807 85.5153656 143.97215271 C84.99475052 144.71385208 84.47413544 145.45555145 83.93774414 146.21972656 C83.47363632 146.86525986 83.0095285 147.51079315 82.53135681 148.17588806 C81.35690144 150.88724316 81.81426402 152.38811055 82.66455078 155.17700195 C83.91418331 157.56525182 85.18984998 159.8274865 86.60205078 162.11450195 C87.20267334 163.09749268 87.20267334 163.09749268 87.81542969 164.1003418 C96.9786841 178.89869566 107.86537612 192.03912091 119.59423828 204.8605957 C122.01893861 207.57351513 124.33520278 210.38178435 126.66455078 213.17700195 C105.21455078 234.62700195 83.76455078 256.07700195 61.66455078 278.17700195 C52.84109563 270.61404039 45.1975406 262.88166605 37.97021484 253.79907227 C36.53044015 252.01039181 35.06446402 250.24541682 33.59423828 248.48168945 C26.04823055 239.39535797 19.10704428 230.07595838 12.66455078 220.17700195 C12.16487793 219.41355469 11.66520508 218.65010742 11.15039062 217.86352539 C-21.2664555 167.97126331 -42.1821644 110.7243177 -42.77294922 50.86450195 C-42.78525574 50.16217438 -42.79756226 49.4598468 -42.8102417 48.73623657 C-43.01796702 34.60987798 -39.88766395 23.27340087 -30.11279297 12.79418945 C-21.39061581 4.41758191 -12.05156856 0.04717998 0 0 Z " fill="#FE6319" transform="translate(42.33544921875,99.822998046875)"/>
<path d="M0 0 C3.5677811 2.35149209 5.84221079 4.99692157 7.75 8.8125 C8.34106487 14.49581608 8.02243416 18.96027003 4.75 23.8125 C0.35628126 27.87668983 -3.08164815 29.20423138 -9.125 29.08203125 C-12.81382866 28.61414673 -15.49620094 27.30137661 -18.25 24.8125 C-21.68120373 20.14646779 -23.09383459 15.61386278 -22.25 9.8125 C-20.50656517 4.92262954 -17.83049481 1.78115588 -13.17578125 -0.53125 C-8.56339171 -2.10301763 -4.58443247 -1.67508109 0 0 Z " fill="#4E2945" transform="translate(353.25,122.1875)"/>
<path d="M0 0 C4.36492736 2.40706674 5.93942071 4.83284673 7.8125 9.4375 C8.54520346 14.47483626 7.62027557 18.24512573 5.20703125 22.63671875 C1.89427009 26.91454198 -2.56531496 28.20982491 -7.75 28.9375 C-11.90567414 28.33303831 -15.0494453 27.21048398 -18.1875 24.4375 C-21.62339266 19.77883377 -23.03044428 15.23274192 -22.1875 9.4375 C-20.42898855 4.50534364 -17.74068059 1.40845153 -13.0390625 -0.90234375 C-8.34602817 -2.57559861 -4.45447532 -1.90552555 0 0 Z " fill="#4E2945" transform="translate(413.1875,122.5625)"/>
<path d="M0 0 C4.36492736 2.40706674 5.93942071 4.83284673 7.8125 9.4375 C8.54520346 14.47483626 7.62027557 18.24512573 5.20703125 22.63671875 C1.9113554 26.89247944 -2.54684459 28.17382324 -7.6875 29 C-12.37661747 28.24639184 -15.64727219 26.60297396 -19.1875 23.4375 C-21.97287223 18.73718437 -22.86540686 14.86075487 -22.1875 9.4375 C-20.44294414 4.504976 -17.73316107 1.40475576 -13.0390625 -0.90234375 C-8.34602817 -2.57559861 -4.45447532 -1.90552555 0 0 Z " fill="#633F5B" transform="translate(293.1875,122.5625)"/>
<path d="M0 0 C0 9.9 0 19.8 0 30 C-8.4 28.8 -8.4 28.8 -12 25 C-14.61960863 20.2124394 -15.67958649 16.4366919 -15 11 C-13.4875308 6.72367341 -11.37995235 3.93219133 -7.5 1.5625 C-4 0 -4 0 0 0 Z " fill="#633F5B" transform="translate(346,121)"/>
</svg>
