<?xml version="1.0" encoding="UTF-8"?>
<svg version="1.1" xmlns="http://www.w3.org/2000/svg" width="512" height="512">
<path d="M0 0 C0.86705566 0.21962402 1.73411133 0.43924805 2.62744141 0.66552734 C14.24759884 3.69995397 25.16429258 7.85245135 36 13 C37.04414063 13.48210938 38.08828125 13.96421875 39.1640625 14.4609375 C60.8452903 24.81529695 82.13782171 41.01665 97 60 C97.42313477 60.53254395 97.84626953 61.06508789 98.28222656 61.61376953 C115.39589481 83.26909753 127.33688091 107.15744236 134 134 C134.21027832 134.83031738 134.42055664 135.66063477 134.63720703 136.51611328 C140.50636545 160.78738359 140.64341241 189.64313512 135 214 C134.71793701 215.27375488 134.71793701 215.27375488 134.43017578 216.57324219 C129.35768876 238.88895675 119.82164992 258.63006338 107.84521484 278.00830078 C105.87532186 281.20214421 103.92967224 284.40985046 101.98828125 287.62109375 C99.12986084 292.34831887 96.26428024 297.07108227 93.390625 301.7890625 C89.44066868 308.27447818 85.49822707 314.76442591 81.55847168 321.25604248 C79.78933276 324.17090848 78.01963783 327.08543687 76.25 330 C75.54166401 331.16666506 74.83333068 332.33333172 74.125 333.5 C18.87500003 424.49999995 18.87500003 424.49999995 17.81254578 426.24992371 C17.10405879 427.41684404 16.39557287 428.58376502 15.68708801 429.75068665 C13.91861422 432.66347747 12.1501221 435.57625716 10.3815918 438.48901367 C7.52972111 443.18606026 4.67785055 447.88310683 1.82666016 452.58056641 C1.28662857 453.47029144 1.28662857 453.47029144 0.73568726 454.37799072 C0.00895244 455.57536027 -0.71775254 456.77274793 -1.44442749 457.97015381 C-3.2317812 460.91513564 -5.01985778 463.85967363 -6.80957031 466.80322266 C-10.2206655 472.41446482 -13.62265991 478.03086055 -17.00390625 483.66015625 C-17.63659424 484.70969482 -18.26928223 485.7592334 -18.92114258 486.84057617 C-20.10084097 488.79792117 -21.27674806 490.75755862 -22.44799805 492.7199707 C-30.63930539 506.282094 -30.63930539 506.282094 -36 508 C-41.08559133 508.66066594 -45.58409573 508.61444902 -50.3125 506.5625 C-56.68251983 500.48876016 -60.85583971 492.05425768 -65.375 484.5625 C-70.48699358 476.12466407 -75.63265565 467.70885031 -80.8125 459.3125 C-86.77373152 449.64339114 -92.68566633 439.94567224 -98.57192993 430.23086548 C-103.68128928 421.7998334 -108.82466753 413.39077571 -114 405 C-119.89962187 395.43493259 -125.74917218 385.8409202 -131.57275391 376.22949219 C-136.68183969 367.79891874 -141.82494789 359.39032117 -147 351 C-152.89692942 341.43929787 -158.74426822 331.84992909 -164.56469727 322.24258423 C-169.84074793 313.53531203 -175.15590086 304.85316423 -180.5 296.1875 C-185.4225828 288.20278202 -190.34403084 280.21901102 -195.125 272.1484375 C-196.33297714 270.12004255 -197.56076907 268.10325291 -198.8125 266.1015625 C-221.22131557 229.58719785 -228.39372974 180.82951188 -219.26171875 139.0859375 C-218.8514159 137.38811018 -218.43083614 135.69273337 -218 134 C-217.67056396 132.69724121 -217.67056396 132.69724121 -217.33447266 131.36816406 C-214.29997542 119.74988377 -210.14675997 108.83404725 -205 98 C-204.27683594 96.43378906 -204.27683594 96.43378906 -203.5390625 94.8359375 C-193.18470305 73.1547097 -176.98335 51.86217829 -158 37 C-157.46745605 36.57686523 -156.93491211 36.15373047 -156.38623047 35.71777344 C-134.72626631 18.60044136 -110.84367826 6.67489469 -84 0 C-83.175 -0.21027832 -82.35 -0.42055664 -81.5 -0.63720703 C-55.77885633 -6.90375882 -25.60974697 -6.55986355 0 0 Z M-107 114 C-125.55947946 136.01108997 -133.15005689 159.2855525 -131 188 C-128.06731994 210.99908101 -115.63046238 232.35685119 -97.578125 246.82421875 C-76.85550614 262.60764796 -52.07526472 267.82767994 -26.41796875 264.68359375 C-2.91867796 260.50323632 18.25659351 246.61990143 31.94921875 227.2109375 C45.32759976 206.26421523 50.8820079 181.60018281 45.87304688 156.95532227 C39.69269751 131.14024534 24.17552223 111.77292943 2 97.6875 C-33.17023236 77.60643185 -79.15734442 84.86464969 -107 114 Z " fill="#E50027" transform="translate(298,4)"/>
<path d="M0 0 C0 30.03 0 60.06 0 91 C-8.91 91.99 -8.91 91.99 -18 93 C-32.87085509 96.9951551 -44.88608833 102.52877289 -57 112 C-57.62390625 112.45761719 -58.2478125 112.91523437 -58.890625 113.38671875 C-74.26298573 125.34699007 -85.10129166 146.84812243 -87.76855469 165.7734375 C-90.56010854 192.62889224 -84.59519916 217.05712605 -67.46484375 238.203125 C-49.74262614 259.05084929 -26.73711753 266.18556658 0 269 C0 349.19 0 429.38 0 512 C-6.38556983 511.08777574 -9.00798791 510.61854914 -13 506 C-15.22991026 502.78008331 -17.14735628 499.4142359 -19.0625 496 C-20.20897028 494.00798109 -21.35745899 492.01712269 -22.5078125 490.02734375 C-23.08821289 489.01913574 -23.66861328 488.01092773 -24.26660156 486.97216797 C-26.9047846 482.448613 -29.66382933 478.00384651 -32.4375 473.5625 C-36.93707194 466.3370435 -41.39529786 459.08862389 -45.8125 451.8125 C-50.78305641 443.62749348 -55.78628204 435.46343921 -60.8125 427.3125 C-66.77352362 417.64326175 -72.68566536 407.94567384 -78.57192993 398.23086548 C-83.68128928 389.7998334 -88.82466753 381.39077571 -94 373 C-99.89962187 363.43493259 -105.74917218 353.8409202 -111.57275391 344.22949219 C-116.68184063 335.79891719 -121.82515495 327.3904501 -127 319 C-134.7763131 306.38592845 -142.49375403 293.73749485 -150.15087891 281.05078125 C-151.75751398 278.40006672 -153.38022614 275.76044505 -155.01171875 273.125 C-178.23517327 235.26982405 -186.78723228 186.62826163 -177.26171875 143.0859375 C-176.8514159 141.38811018 -176.43083614 139.69273337 -176 138 C-175.67056396 136.69724121 -175.67056396 136.69724121 -175.33447266 135.36816406 C-172.29997542 123.74988377 -168.14675997 112.83404725 -163 102 C-162.27683594 100.43378906 -162.27683594 100.43378906 -161.5390625 98.8359375 C-151.18470305 77.1547097 -134.98335 55.86217829 -116 41 C-115.46745605 40.57686523 -114.93491211 40.15373047 -114.38623047 39.71777344 C-89.51633284 20.0637106 -61.62502235 7.44873358 -30.4375 1.625 C-29.57721191 1.45701904 -28.71692383 1.28903809 -27.83056641 1.1159668 C-18.34324528 -0.50375571 -10.00400858 0 0 0 Z " fill="#FD003A" transform="translate(256,0)"/>
</svg>
