<?xml version="1.0" encoding="UTF-8"?>
<svg version="1.1" xmlns="http://www.w3.org/2000/svg" width="512" height="512">
<path d="M0 0 C13.70728445 10.6932177 24.05001398 25.99847312 27.46484375 43.203125 C28.29562672 51.06619214 28.06404156 58.97007779 27.8515625 66.86328125 C28.46870117 67.158396 29.08583984 67.45351074 29.72167969 67.75756836 C32.17527227 69.03133278 34.0091262 70.62312479 36.1015625 72.42578125 C40.53683158 75.91427697 43.19648107 77.04869376 48.8515625 76.86328125 C53.42801923 75.27553095 56.63205869 72.50240096 60.140625 69.265625 C63.39190765 66.60076091 66.39181276 65.3426088 70.65380859 65.49047852 C82.06630192 67.42636802 93.73113621 74.22205082 104.2890625 78.86328125 C106.88100735 79.99936347 109.47334733 81.13454022 112.06575012 82.26957703 C113.80643935 83.03171982 115.54698945 83.79418048 117.28739929 84.55696106 C122.73310258 86.94214177 128.18661443 89.30823296 133.6484375 91.65625 C134.32725479 91.94847443 135.00607208 92.24069885 135.70545959 92.54177856 C138.83842785 93.89035846 141.97255083 95.23599872 145.10913086 96.57617188 C148.36858737 97.97970925 151.61203017 99.41442992 154.8515625 100.86328125 C155.85268066 101.29463379 156.85379883 101.72598633 157.88525391 102.17041016 C173.05047203 109.12185846 184.59156593 122.30045118 196.22680664 133.93212891 C197.82774133 135.52542528 199.4290711 137.11832475 201.03076172 138.71086121 C205.34288887 143.00122078 209.64858971 147.29797118 213.95239949 151.59667253 C216.64555812 154.2861711 219.34000618 156.97437114 222.03487968 159.66215134 C229.51637953 167.12424092 236.99644321 174.58775914 244.46970463 182.05809975 C245.18334135 182.77145512 245.18334135 182.77145512 245.91139498 183.4992217 C246.87550634 184.46296686 247.83961645 185.42671327 248.80372531 186.39046092 C249.28220445 186.86875726 249.7606836 187.34705359 250.25366211 187.83984375 C250.73273156 188.31873265 251.211801 188.79762154 251.7053877 189.29102223 C259.48773757 197.06982171 267.28179207 204.83677899 275.08099443 212.59867819 C283.11395049 220.59352269 291.13725232 228.59793074 299.15155119 236.61148679 C303.64148574 241.10062911 308.13529376 245.5857193 312.63905525 250.06099319 C316.86828185 254.26405702 321.08537956 258.47892243 325.29351044 262.70310402 C326.83713524 264.24854376 328.38502439 265.78973796 329.93750572 267.32628059 C332.06010375 269.42841123 334.16661297 271.54548566 336.26991272 273.66690063 C336.88361837 274.26740632 337.49732402 274.867912 338.12962681 275.48661482 C343.0646933 280.5189382 346.26579387 286.05809133 347.34765625 293.0859375 C346.96451932 311.65530718 333.56379834 321.29700527 321.15023422 333.63977432 C318.86001273 335.91707007 316.57307188 338.19761694 314.28689575 340.47897339 C309.43627598 345.31824737 304.58171721 350.15355766 299.7265625 354.98828125 C294.08785252 360.60330035 288.45081829 366.2199811 282.81799698 371.84090805 C280.57618847 374.07628422 278.33136658 376.30860291 276.08639526 378.540802 C274.70051401 379.92304781 273.3147746 381.30543586 271.92919922 382.68798828 C271.31395386 383.29806732 270.6987085 383.90814636 270.06481934 384.53671265 C266.39555075 388.20553953 262.94543652 392.00673837 259.55195236 395.93117523 C256.98016425 398.85342701 254.2651927 401.62085338 251.52416992 404.38354492 C250.93448929 404.98140305 250.34480865 405.57926117 249.73725891 406.19523621 C247.81347852 408.14353153 245.88583824 410.08793143 243.95703125 412.03125 C243.29191339 412.70169153 242.62679554 413.37213306 241.9415226 414.06289101 C238.42539869 417.60558893 234.90571176 421.14470706 231.38354492 424.68139648 C228.48552508 427.59278065 225.59495911 430.51126958 222.71069336 433.4362793 C219.20599312 436.99045727 215.68902694 440.53205187 212.1630497 444.06511879 C210.83005724 445.40478953 209.5012945 446.74868384 208.17705345 448.09700584 C191.37591674 465.18630678 191.37591674 465.18630678 179.9140625 465.92578125 C166.96238308 465.53330612 159.9281892 458.2560324 151.1953125 449.40234375 C150.01370544 448.21649185 150.01370544 448.21649185 148.80822754 447.00668335 C146.3178958 444.50524565 143.83464757 441.99691048 141.3515625 439.48828125 C139.65411093 437.78078751 137.9561987 436.0737516 136.2578125 434.3671875 C132.11705512 430.20449705 127.98207522 426.03613604 123.8515625 421.86328125 C123.84569626 422.48809387 123.83983002 423.11290649 123.83378601 423.75665283 C123.76941378 430.31168687 123.68488582 436.86624967 123.58911133 443.42089844 C123.55603752 445.86093905 123.52795212 448.30105294 123.50512695 450.74121094 C123.47125678 454.26659114 123.41892571 457.79131025 123.36328125 461.31640625 C123.35689133 462.39190735 123.3505014 463.46740845 123.34391785 464.57550049 C123.17272128 473.57179059 122.63195417 484.20564841 115.9765625 490.92578125 C115.31914062 491.61800781 114.66171875 492.31023437 113.984375 493.0234375 C107.66339136 498.47615416 102.36245995 499.01228841 94.25541687 499.00372314 C93.37897437 499.00669427 92.50253188 499.00966539 91.59953052 499.01272655 C88.65708298 499.02141143 85.71467614 499.02292161 82.7722168 499.02441406 C80.66478386 499.02904235 78.55735177 499.03406703 76.44992065 499.03945923 C70.72053171 499.05258345 64.99115448 499.05902814 59.26175284 499.06346989 C55.68299753 499.06640034 52.10424542 499.07050508 48.52549171 499.07497406 C37.33045551 499.08864853 26.13542664 499.09831566 14.94038266 499.10217595 C2.01332078 499.10665789 -10.91363542 499.12421235 -23.84066516 499.15317655 C-33.83058366 499.17478373 -43.8204724 499.1848797 -53.81041402 499.18621707 C-59.7781389 499.18726571 -65.74576444 499.19318623 -71.71346474 499.21103668 C-77.32687835 499.2275008 -82.94011777 499.22968086 -88.55354691 499.22089767 C-90.61307555 499.22012644 -92.67261349 499.2244814 -94.73211861 499.23435593 C-97.54540051 499.24705283 -100.35806331 499.24121079 -103.17134094 499.23077393 C-103.98477646 499.23883033 -104.79821197 499.24688673 -105.63629705 499.25518727 C-113.92655809 499.18334155 -119.34129828 496.21582696 -125.41796875 490.6328125 C-129.81090634 486.14071153 -131.26453057 481.68375846 -131.2882452 475.53264427 C-131.29393644 474.66841516 -131.29962768 473.80418605 -131.30549139 472.91376817 C-131.30667126 471.96885157 -131.30785114 471.02393496 -131.30906677 470.05038452 C-131.3166985 468.53910144 -131.3166985 468.53910144 -131.32448441 466.99728739 C-131.34021903 463.61066042 -131.34873687 460.2240548 -131.35717773 456.83740234 C-131.36671583 454.4128455 -131.37660697 451.98829003 -131.38682556 449.56373596 C-131.4155179 442.27716254 -131.43530031 434.99058298 -131.45221791 427.70397514 C-131.45701644 425.6430773 -131.46199939 423.58217998 -131.46702313 421.52128267 C-131.49801187 408.70442204 -131.52467899 395.88755678 -131.54144192 383.07066917 C-131.54539102 380.10245124 -131.54939405 377.13423339 -131.5534668 374.16601562 C-131.55447516 373.42833614 -131.55548352 372.69065666 -131.55652244 371.93062325 C-131.57349064 360.00895956 -131.6145558 348.08750486 -131.66548979 336.16594295 C-131.71743858 323.90509556 -131.7464073 311.64435511 -131.7536388 299.38339865 C-131.75828085 292.5080974 -131.77281667 285.63313763 -131.8133831 278.75794601 C-131.85156884 272.27852685 -131.85859186 265.7995273 -131.84537697 259.32000542 C-131.84543059 256.95385473 -131.8555906 254.58767703 -131.8771286 252.22162437 C-131.99257936 238.81135575 -131.11514041 227.33836655 -125.97150373 214.86165261 C-125.05595768 212.638744 -124.19600735 210.39833122 -123.34156895 208.1512661 C-122.2654558 205.32351979 -121.17614913 202.50295046 -120.04833984 199.6953125 C-119.59935333 198.57503662 -119.59935333 198.57503662 -119.14129639 197.43212891 C-118.83427795 196.66690918 -118.52725952 195.90168945 -118.2109375 195.11328125 C-117.22803955 192.65176725 -116.24637737 190.18976325 -115.26495361 187.72766113 C-114.58940018 186.03300689 -113.91324996 184.33859043 -113.23651123 182.64440918 C-110.78596985 176.49899645 -108.39002157 170.33383208 -106.01171875 164.16015625 C-105.00688832 161.56537378 -104.00097902 158.97101263 -102.99459839 156.37683105 C-102.35239955 154.71469784 -101.71408616 153.05105765 -101.0798645 151.38586426 C-100.19394128 149.06162796 -99.2938233 146.74334877 -98.390625 144.42578125 C-98.13593948 143.74618347 -97.88125397 143.06658569 -97.61885071 142.36639404 C-95.57948329 137.19580876 -92.90284882 132.82236361 -88.30859375 129.5546875 C-85.12541084 128.53583872 -81.89350564 128.16758003 -78.5859375 127.80078125 C-73.29631971 127.19879795 -73.29631971 127.19879795 -68.1484375 125.86328125 C-68.1484375 125.20328125 -68.1484375 124.54328125 -68.1484375 123.86328125 C-68.94894531 123.66025391 -68.94894531 123.66025391 -69.765625 123.453125 C-86.82380213 118.52455133 -99.28876286 104.0601591 -107.71484375 89.078125 C-115.81094588 72.66841351 -116.6286398 52.93434376 -111.41015625 35.51953125 C-107.40242115 23.90578495 -101.1535175 14.22514125 -92.1484375 5.86328125 C-91.54902344 5.25871094 -90.94960937 4.65414063 -90.33203125 4.03125 C-65.80981128 -19.58775744 -26.94922048 -18.28935931 0 0 Z M-77.1484375 27.86328125 C-83.19876828 35.36680926 -87.44389081 44.17576424 -88.1484375 53.86328125 C-88.2 54.53746094 -88.2515625 55.21164063 -88.3046875 55.90625 C-88.81138783 67.83482033 -84.00585123 79.96652708 -76.1484375 88.86328125 C-74.19752245 90.50671513 -72.19403348 92.08931224 -70.1484375 93.61328125 C-69.1171875 94.391875 -68.0859375 95.17046875 -67.0234375 95.97265625 C-64.56754823 97.58767039 -63.00808093 98.45083268 -60.1484375 98.86328125 C-59.8803125 98.05246094 -59.6121875 97.24164063 -59.3359375 96.40625 C-53.78586717 80.72364997 -44.14393816 69.22277519 -29.1484375 61.86328125 C-19.00421664 57.7638149 -9.00544353 56.86328125 1.8515625 56.86328125 C1.07943858 43.87029935 -3.28255285 33.13832059 -12.8984375 24.05078125 C-32.4321834 7.45003023 -59.56973551 9.39263667 -77.1484375 27.86328125 Z M-25.7734375 93.98828125 C-28.45599747 96.50959618 -28.45599747 96.50959618 -29.1484375 99.86328125 C-22.00900765 98.59404928 -16.54085806 94.60288804 -11.1484375 89.86328125 C-9.82442065 87.7435447 -9.82442065 87.7435447 -9.1484375 85.86328125 C-15.55103251 85.86328125 -21.37132539 89.66477828 -25.7734375 93.98828125 Z M16.8515625 95.86328125 C15.80365536 97.17544324 14.78930622 98.51443323 13.7890625 99.86328125 C2.13531119 114.94460648 -12.22833807 122.1885831 -30.1484375 127.86328125 C-26.2743748 135.83037541 -20.89883744 140.04949218 -12.7109375 143.17578125 C-3.24221843 145.00307791 4.91341732 143.66409743 13.15234375 138.390625 C19.35201321 133.45190526 23.29174493 126.64661338 24.8515625 118.86328125 C25.447385 110.07489936 23.23038301 102.85574791 17.8515625 95.86328125 C17.5215625 95.86328125 17.1915625 95.86328125 16.8515625 95.86328125 Z " fill="#FA5845" transform="translate(148.1484375,13.13671875)"/>
<path d="M0 0 C7.50989002 3.04339742 14.91595218 6.33337302 22.33325195 9.59399414 C24.9251968 10.73007637 27.51753678 11.86525311 30.10993958 13.00028992 C31.85062881 13.76243271 33.5911789 14.52489337 35.33158875 15.28767395 C40.77729203 17.67285466 46.23080389 20.03894586 51.69262695 22.38696289 C52.37144424 22.67918732 53.05026154 22.97141174 53.74964905 23.27249146 C56.88261731 24.62107135 60.01674028 25.96671161 63.15332031 27.30688477 C66.41277683 28.71042214 69.65621963 30.14514281 72.89575195 31.59399414 C73.89687012 32.02534668 74.89798828 32.45669922 75.92944336 32.90112305 C91.09466148 39.85257135 102.63575538 53.03116407 114.27099609 64.6628418 C115.87193078 66.25613817 117.47326056 67.84903764 119.07495117 69.4415741 C123.38707832 73.73193367 127.69277916 78.02868407 131.99658895 82.32738543 C134.68974757 85.01688399 137.38419563 87.70508403 140.07906914 90.39286423 C147.56056898 97.85495381 155.04063266 105.31847203 162.51389408 112.78881264 C162.9896519 113.26438288 163.46540971 113.73995313 163.95558443 114.2299346 C164.91969579 115.19367975 165.8838059 116.15742616 166.84791476 117.12117381 C167.56563348 117.83861831 167.56563348 117.83861831 168.29785156 118.57055664 C168.77692101 119.04944554 169.25599046 119.52833443 169.74957716 120.02173512 C177.53192702 127.8005346 185.32598153 135.56749188 193.12518389 143.32939108 C201.15813995 151.32423558 209.18144178 159.32864363 217.19574064 167.34219968 C221.68567519 171.831342 226.17948321 176.31643219 230.68324471 180.79170609 C234.9124713 184.99476991 239.12956901 189.20963533 243.33769989 193.43381691 C244.8813247 194.97925665 246.42921384 196.52045085 247.98169518 198.05699348 C250.1042932 200.15912412 252.21080242 202.27619855 254.31410217 204.39761353 C254.92780782 204.99811921 255.54151347 205.59862489 256.17381626 206.21732771 C261.10888276 211.2496511 264.30998332 216.78880422 265.3918457 223.81665039 C265.00870878 242.38602007 251.60798779 252.02771816 239.19442368 264.37048721 C236.90420218 266.64778296 234.61726133 268.92832983 232.33108521 271.20968628 C227.48046543 276.04896026 222.62590666 280.88427055 217.77075195 285.71899414 C212.13204197 291.33401324 206.49500774 296.95069399 200.86218643 302.57162094 C198.62037792 304.80699711 196.37555603 307.0393158 194.13058472 309.27151489 C192.74470346 310.6537607 191.35896405 312.03614875 189.97338867 313.41870117 C189.35814331 314.02878021 188.74289795 314.63885925 188.10900879 315.26742554 C184.4397402 318.93625242 180.98962597 322.73745126 177.59614182 326.66188812 C175.0243537 329.5841399 172.30938215 332.35156627 169.56835938 335.11425781 C168.97867874 335.71211594 168.38899811 336.30997406 167.78144836 336.9259491 C165.85766797 338.87424442 163.93002769 340.81864432 162.0012207 342.76196289 C161.33610285 343.43240442 160.67098499 344.10284595 159.98571205 344.7936039 C156.46958814 348.33630182 152.94990121 351.87541995 149.42773438 355.41210938 C146.52971453 358.32349354 143.63914856 361.24198247 140.75488281 364.16699219 C137.25018258 367.72117016 133.73321639 371.26276476 130.20723915 374.79583168 C128.87424669 376.13550242 127.54548395 377.47939673 126.2212429 378.82771873 C109.4201062 395.91701967 109.4201062 395.91701967 97.95825195 396.65649414 C91.8411924 396.4711287 87.16567723 395.70059836 82.29037476 391.87771606 C79.45581825 389.71055119 76.59935705 387.75091055 73.54092407 385.91427612 C59.34533498 377.2002324 44.08778548 365.01785293 39.2480526 348.36540413 C33.17733274 322.11954344 35.95568357 293.04726781 36.93951821 266.36595416 C37.3689888 254.54885275 37.56298851 242.72955797 37.74731445 230.90649414 C37.81238242 226.73458826 37.87833805 222.5627001 37.94619751 218.39083862 C37.96252216 217.3791231 37.97884681 216.36740759 37.99566615 215.32503402 C38.09764165 209.37827275 38.24434206 203.43479216 38.43547797 197.49023557 C38.55378979 193.79137897 38.65693145 190.09215957 38.75943565 186.39283562 C38.81104317 184.69639803 38.87036478 183.00017213 38.93853569 181.30431938 C39.51738172 166.86081625 37.218007 154.25951455 31.64575195 140.80883789 C31.35082855 140.07160995 31.05590515 139.33438202 30.75204468 138.57481384 C29.8092202 136.22318059 28.8525981 133.87745194 27.89575195 131.53149414 C27.22871405 129.87393017 26.56288008 128.21588125 25.89819336 126.55737305 C24.88595741 124.03168537 23.87316001 121.50624976 22.8565979 118.9822998 C19.08323517 109.60797151 15.46039113 100.17678821 11.84106445 90.7421875 C9.6796409 85.12784323 7.49246587 79.52538609 5.22387695 73.95336914 C4.83876953 73.006875 4.45366211 72.06038086 4.05688477 71.08520508 C1.89870019 66.45481917 -0.83114585 63.44272894 -5.10424805 60.59399414 C-8.44579259 60.13931313 -11.76241321 59.80986887 -15.1237793 59.55883789 C-19.96445208 59.08108061 -22.70459754 58.09400334 -26.10424805 54.59399414 C-27.79219699 51.72769428 -28.42907379 49.3247114 -28.7800293 46.03149414 C-28.88283203 45.15783203 -28.98563477 44.28416992 -29.09155273 43.3840332 C-29.19886719 42.46332031 -29.30618164 41.54260742 -29.41674805 40.59399414 C-31.28641987 26.36991943 -35.70239858 15.7121568 -46.10424805 5.59399414 C-45.77424805 4.93399414 -45.44424805 4.27399414 -45.10424805 3.59399414 C-44.60924805 4.06836914 -44.11424805 4.54274414 -43.60424805 5.03149414 C-40.23469054 7.13746758 -37.01906305 7.70801788 -33.10424805 7.59399414 C-28.52779131 6.00624384 -25.32375185 3.23311385 -21.81518555 -0.00366211 C-14.47182789 -6.02253288 -7.97776485 -3.14005981 0 0 Z " fill="#FDCB49" transform="translate(230.104248046875,82.406005859375)"/>
<path d="M0 0 C13.74496203 10.72261044 24.04661306 26.02597263 27.46484375 43.26953125 C28.27318414 50.78138138 28.06658423 58.32159325 27.8515625 65.86328125 C24.17259582 64.67067845 20.59801969 63.37421498 17.0390625 61.86328125 C13.62170685 60.4467072 10.50079226 59.56416614 6.8515625 58.98828125 C4.625 58.51953125 4.625 58.51953125 2.8515625 57.86328125 C1.4765625 55.48828125 1.4765625 55.48828125 0.8515625 51.86328125 C-1.69741138 38.7351075 -7.13846764 28.77894585 -18.1484375 20.86328125 C-29.01295297 14.25009792 -40.35020407 12.1189504 -52.95703125 14.36328125 C-64.65949655 17.57643865 -74.32437949 24.15374794 -80.796875 34.43359375 C-84.22868955 40.60292511 -86.63317678 46.77844634 -87.1484375 53.86328125 C-87.2 54.53746094 -87.2515625 55.21164063 -87.3046875 55.90625 C-87.72862913 65.88654266 -84.31929311 75.41334647 -79.1484375 83.86328125 C-78.601875 84.40984375 -78.0553125 84.95640625 -77.4921875 85.51953125 C-76.1484375 86.86328125 -76.1484375 86.86328125 -76.1484375 88.86328125 C-75.56578125 89.13398437 -74.983125 89.4046875 -74.3828125 89.68359375 C-72.15926757 90.85756328 -70.36102163 92.17307986 -68.3984375 93.73828125 C-58.32492514 101.38218951 -48.69361643 102.70370128 -36.1484375 101.86328125 C-32.94674633 101.2249535 -30.12272141 100.19639779 -27.1484375 98.86328125 C-26.3028125 98.48816406 -25.4571875 98.11304687 -24.5859375 97.7265625 C-18.56443881 94.88606386 -13.49918709 91.86251349 -9.3359375 86.55078125 C-6.38830592 84.27689403 -4.31145391 84.30376894 -0.65625 84.47265625 C5.98880975 85.50771229 11.928461 88.26838652 16.8515625 92.86328125 C16.16199351 100.29769696 11.92361176 103.76749385 6.8515625 108.86328125 C5.84416016 109.92289063 5.84416016 109.92289063 4.81640625 111.00390625 C-7.83861662 123.3907109 -24.98720667 128.45228681 -42.2734375 128.36328125 C-44.20014282 128.35470093 -44.20014282 128.35470093 -46.16577148 128.34594727 C-65.87172275 127.9759234 -81.99291592 120.6406399 -95.75976562 106.39746094 C-109.55359588 91.1582856 -115.11364001 72.91468998 -114.49609375 52.6171875 C-113.47041197 34.47475171 -105.43570934 18.20146224 -92.1484375 5.86328125 C-91.54902344 5.25871094 -90.94960937 4.65414063 -90.33203125 4.03125 C-65.80981128 -19.58775744 -26.94922048 -18.28935931 0 0 Z " fill="#3A3A55" transform="translate(148.1484375,13.13671875)"/>
<path d="M0 0 C5.09359903 3.71015238 7.27747655 9.11367964 9.20703125 14.90234375 C9.31300815 16.39853537 9.36553412 17.89885557 9.3840332 19.39868164 C9.40328606 20.76138939 9.40328606 20.76138939 9.42292786 22.15162659 C9.43031479 23.13283981 9.43770172 24.11405304 9.4453125 25.125 C9.45338425 26.14025253 9.46145599 27.15550507 9.46977234 28.20152283 C9.48361051 30.35430191 9.49433386 32.50710291 9.50219727 34.65991211 C9.51933804 37.92800529 9.56321872 41.19506767 9.60742188 44.46289062 C9.6175556 46.55858634 9.62606957 48.65429063 9.6328125 50.75 C9.65032059 51.71704361 9.66782867 52.68408722 9.68586731 53.68043518 C9.6623294 61.16715034 8.34266154 68.19170435 3.39057922 74.05189514 C-3.68170746 81.04362846 -11.80461116 82.16858764 -21.35546875 82.27734375 C-30.14189635 82.18658474 -37.62169486 81.10392441 -44.18016052 74.75231934 C-49.81915181 68.28410072 -50.38187957 60.85955548 -50.2890625 52.62109375 C-50.29051773 51.56756714 -50.29197296 50.51404053 -50.29347229 49.42858887 C-50.291821 47.21326924 -50.28034671 44.9979372 -50.25952148 42.78271484 C-50.23055117 39.41193385 -50.23893351 36.04272734 -50.25195312 32.671875 C-50.24571491 30.50910702 -50.23732333 28.34634396 -50.2265625 26.18359375 C-50.22949814 25.18646362 -50.23243378 24.1893335 -50.23545837 23.1619873 C-50.13691868 15.77170593 -48.98560278 9.42621987 -45.04296875 3.08984375 C-33.38051337 -8.24865454 -13.28760518 -8.13467768 0 0 Z " fill="#FEF9F4" transform="translate(212.79296875,358.09765625)"/>
<path d="M0 0 C4.67018809 3.6367512 7.64418178 8.12897549 9.3125 13.80078125 C9.74653367 17.48694325 9.75693429 21.14289056 9.74609375 24.8515625 C9.7513356 25.90554733 9.75657745 26.95953217 9.76197815 28.04545593 C9.76838152 30.2684949 9.76708327 32.49156782 9.75854492 34.71459961 C9.75005286 38.09225755 9.7787929 41.4682127 9.81054688 44.84570312 C9.81215969 47.01432241 9.81157982 49.18294467 9.80859375 51.3515625 C9.82544472 52.84892693 9.82544472 52.84892693 9.84263611 54.37654114 C9.77102175 61.68739425 8.77259764 69.30115205 3.41600037 74.71894836 C-3.46797975 80.36181608 -10.85649748 82.33933784 -19.625 82.17578125 C-20.41696777 82.16490479 -21.20893555 82.15402832 -22.02490234 82.14282227 C-31.03303471 81.89687594 -36.86870002 79.96595608 -43.86328125 74.203125 C-49.13889222 67.25558592 -50.29330598 59.61414643 -50.21875 51.11328125 C-50.2225769 50.13012939 -50.22640381 49.14697754 -50.23034668 48.1340332 C-50.23305004 46.07013923 -50.22580027 44.00621005 -50.20898438 41.94238281 C-50.18755249 38.80845739 -50.20884061 35.67682406 -50.234375 32.54296875 C-50.23173144 30.52473459 -50.22660589 28.50650185 -50.21875 26.48828125 C-50.22684692 25.5650708 -50.23494385 24.64186035 -50.24328613 23.69067383 C-50.13181008 15.84033803 -48.3453236 8.92372398 -43.1875 2.86328125 C-42.3625 2.18265625 -41.5375 1.50203125 -40.6875 0.80078125 C-40.06875 0.24390625 -39.45 -0.31296875 -38.8125 -0.88671875 C-27.92830299 -7.60931102 -10.6862072 -6.01099155 0 0 Z " fill="#FEF9F5" transform="translate(114.6875,283.19921875)"/>
<path d="M0 0 C3.23942861 1.83098139 4.64911043 3.02016799 5.90820312 6.53608704 C6.04482328 11.69138594 3.90708574 15.27103041 1.59375 19.79760742 C0.85457336 21.29143464 0.85457336 21.29143464 0.10046387 22.81544018 C-0.99564441 25.02598224 -2.09902803 27.23292718 -3.20849609 29.43679428 C-5.06364677 33.12659003 -6.89602838 36.82695443 -8.72265625 40.53091431 C-12.95886729 49.11147136 -17.22817967 57.67541063 -21.5 66.23828125 C-22.27727419 67.79689137 -23.05452616 69.35551257 -23.83175659 70.91414452 C-27.47169257 78.2129111 -31.1134704 85.51075489 -34.75759411 92.80743152 C-38.94465929 101.19141568 -43.12500786 109.57870648 -47.29998589 117.96871597 C-50.5489814 124.49679745 -53.80405955 131.02182265 -57.06376839 137.54456109 C-59.00314938 141.42567208 -60.93986742 145.30805829 -62.87011719 149.19371986 C-64.67558474 152.82783034 -66.48853241 156.45810686 -68.30740166 160.08552742 C-68.97333211 161.41689108 -69.63651535 162.74963286 -70.2967701 164.08382034 C-71.19640528 165.90068487 -72.1068245 167.71219785 -73.01782227 169.52339172 C-73.5243483 170.53883214 -74.03087433 171.55427256 -74.55274963 172.60048389 C-76 175 -76 175 -79 177 C-86 177.66666667 -86 177.66666667 -89.4375 175.375 C-91.34510982 172.47543307 -91.70097322 170.45001265 -92 167 C-91.2323494 164.48310947 -91.2323494 164.48310947 -89.95440674 161.95350647 C-89.47524307 160.98562698 -88.99607941 160.0177475 -88.50239563 159.02053833 C-87.96438828 157.97485687 -87.42638092 156.92917542 -86.87207031 155.85180664 C-86.3144249 154.73695389 -85.75677948 153.62210114 -85.18223572 152.47346497 C-83.64946187 149.41676199 -82.10283458 146.36784967 -80.54982471 143.32142949 C-78.91627789 140.10834392 -77.30136839 136.88591904 -75.68450928 133.66441345 C-72.6077406 127.54093093 -69.51512537 121.42560137 -66.41640639 115.31320232 C-61.9133752 106.42893921 -57.43473712 97.53239102 -52.95518112 88.63627529 C-52.28481131 87.30507164 -51.61442794 85.97387481 -50.94403076 84.64268494 C-50.45128666 83.66417742 -50.45128666 83.66417742 -49.94858813 82.66590208 C-48.0327259 78.86259404 -46.11269421 75.06143041 -44.18870193 71.26222897 C-36.97285736 57.01280415 -29.90671857 42.70597913 -23.07577324 28.26774216 C-20.7801732 23.42859131 -18.4356187 18.61409787 -16.0625 13.8125 C-15.62099609 12.90048828 -15.17949219 11.98847656 -14.72460938 11.04882812 C-8.65171123 -1.21427526 -8.65171123 -1.21427526 0 0 Z " fill="#FEF9F5" transform="translate(187,270)"/>
<path d="M0 0 C3.34244783 1.59164182 5.32412233 3.64824467 7 7 C7.11391425 8.35644473 7.16926124 9.71808675 7.19287109 11.07910156 C7.21696548 12.34116425 7.21696548 12.34116425 7.24154663 13.62872314 C7.28605581 17.48343078 7.32707401 21.33796639 7.35009766 25.19287109 C7.36664183 27.22391226 7.3939115 29.25489557 7.43212891 31.28564453 C7.48700118 34.21677805 7.5087887 37.14654645 7.5234375 40.078125 C7.54610687 40.98145569 7.56877625 41.88478638 7.59213257 42.81549072 C7.57756568 47.18030679 7.39620566 50.08982367 4.59228516 53.55761719 C0.68233581 57.2414685 -1.4969367 57.20674534 -6.8125 57.3125 C-8.03582031 57.34988281 -9.25914062 57.38726562 -10.51953125 57.42578125 C-14.692278 56.91531055 -16.19840099 56.11344666 -19 53 C-20.89820146 47.70610861 -21.30747699 42.97570557 -21.30078125 37.43359375 C-21.30506638 36.63647476 -21.3093515 35.83935577 -21.31376648 35.01808167 C-21.3194772 33.34320013 -21.32003425 31.6682938 -21.31567383 29.9934082 C-21.31250452 27.44113815 -21.33604495 24.89001857 -21.36132812 22.33789062 C-21.36360065 20.70312645 -21.36430483 19.06835918 -21.36328125 17.43359375 C-21.372491 16.67719101 -21.38170074 15.92078827 -21.39118958 15.14146423 C-21.34208293 9.48308406 -20.18956732 5.29661284 -16.2421875 1.15625 C-11.31466294 -1.38477312 -5.35906341 -0.68307877 0 0 Z " fill="#D05F38" transform="translate(199,368)"/>
<path d="M0 0 C4.24760507 4.91129337 4.3082633 10.54593484 4.30078125 16.78125 C4.30506638 17.57978394 4.3093515 18.37831787 4.31376648 19.2010498 C4.31948501 20.88190771 4.32002839 22.56279035 4.31567383 24.24365234 C4.31250952 26.80479324 4.33601793 29.36478249 4.36132812 31.92578125 C4.36360107 33.56510272 4.36430464 35.20442727 4.36328125 36.84375 C4.372491 37.60328979 4.38170074 38.36282959 4.39118958 39.14538574 C4.34969669 43.94796033 3.5525158 47.23832167 1 51.3125 C-3.65825944 55.0709589 -8.11519141 54.86510042 -13.88671875 54.734375 C-18.48359234 54.11146114 -20.08562737 52.87451099 -23 49.3125 C-23.89127266 46.60009701 -24.13285353 44.10966806 -24.16113281 41.26586914 C-24.17074036 40.48147964 -24.1803479 39.69709015 -24.19024658 38.88893127 C-24.19449646 38.05031052 -24.19874634 37.21168976 -24.203125 36.34765625 C-24.20882507 35.47733261 -24.21452515 34.60700897 -24.22039795 33.71031189 C-24.22983015 31.87207245 -24.23637485 30.03381623 -24.24023438 28.19555664 C-24.24995314 25.38853472 -24.2809983 22.58224125 -24.3125 19.77539062 C-24.31902934 17.9869835 -24.32428008 16.19857116 -24.328125 14.41015625 C-24.3404718 13.57355972 -24.3528186 12.7369632 -24.36553955 11.87501526 C-24.34771663 7.19796315 -24.0636119 4.09176231 -21 0.3125 C-14.73530868 -3.86396088 -6.52760655 -3.67177868 0 0 Z " fill="#C35146" transform="translate(105,295.6875)"/>
</svg>
