<?xml version="1.0" encoding="UTF-8"?>
<svg version="1.1" xmlns="http://www.w3.org/2000/svg" width="512" height="512">
<path d="M0 0 C49.12505772 -1.92576925 103.51649329 12.43385635 144.21240234 40.42919922 C146.53659756 42.28781009 146.53659756 42.28781009 148.76708984 42.10498047 C150.20216253 40.39507424 150.20216253 40.39507424 151.63037109 38.15966797 C152.18789063 37.32951172 152.74541016 36.49935547 153.31982422 35.64404297 C153.90054687 34.76490234 154.48126953 33.88576172 155.07958984 32.97998047 C165.39383703 17.4677265 165.39383703 17.4677265 170.07958984 16.22998047 C170.96646484 16.18873047 171.85333984 16.14748047 172.76708984 16.10498047 C176.09189255 19.8255139 177.61687829 22.96893573 178.96533203 27.75610352 C179.24418495 28.72796852 179.24418495 28.72796852 179.52867126 29.71946716 C180.13595259 31.84864447 180.72553306 33.98224228 181.31396484 36.11669922 C181.73355429 37.61036425 182.15383343 39.1038357 182.57476807 40.59712219 C183.45327635 43.72446513 184.32294945 46.85409717 185.18652344 49.9855957 C186.28800586 53.97683416 187.41178602 57.96137751 188.5424614 61.94443035 C189.41490926 65.02784823 190.27491831 68.11463333 191.1313858 71.20252419 C191.54055683 72.67183835 191.95355934 74.14009161 192.37062836 75.60718346 C197.90024876 95.12308383 197.90024876 95.12308383 193.89208984 102.60498047 C188.00473028 108.48005897 175.86721431 107.70933417 168.10302734 108.39404297 C166.91214508 108.5021933 165.72126282 108.61034363 164.49429321 108.72177124 C161.98504878 108.94796261 159.47555062 109.17135492 156.96582031 109.39208984 C153.17341603 109.72721228 149.38240103 110.0756793 145.59130859 110.42529297 C124.76169248 112.30998981 124.76169248 112.30998981 115.18115234 112.50341797 C113.38991943 112.54088135 113.38991943 112.54088135 111.5625 112.57910156 C108.76708984 112.10498047 108.76708984 112.10498047 106.86499023 110.22363281 C105.76708984 108.10498047 105.76708984 108.10498047 105.78662109 105.80810547 C107.137852 102.08279954 109.19703778 99.09238705 111.45458984 95.85498047 C111.90431152 95.19618896 112.3540332 94.53739746 112.81738281 93.85864258 C113.71442567 92.5446439 114.61443079 91.23266196 115.51757812 89.92285156 C117.16821136 87.52140275 118.78194635 85.0962101 120.39208984 82.66748047 C121.18375651 81.47998047 121.97542318 80.29248047 122.76708984 79.10498047 C86.1342696 48.27811664 30.48566784 41.46219934 -15.50048828 44.30712891 C-21.49112145 44.85873342 -27.3496676 45.86419134 -33.23291016 47.10498047 C-34.21904297 47.30897461 -35.20517578 47.51296875 -36.22119141 47.72314453 C-77.04729141 56.36911577 -113.19098758 75.0174009 -143.23291016 104.10498047 C-143.76368164 104.6099707 -144.29445313 105.11496094 -144.84130859 105.63525391 C-177.45856231 136.72207929 -197.5539398 179.02348571 -205.23291016 223.10498047 C-205.45849609 224.34634766 -205.68408203 225.58771484 -205.91650391 226.86669922 C-211.41154841 263.74034265 -206.05737153 302.64638239 -192.23291016 337.10498047 C-191.94722168 337.81783203 -191.6615332 338.53068359 -191.3671875 339.26513672 C-183.80680565 357.79236097 -173.74805541 374.51755541 -161.23291016 390.10498047 C-160.77948242 390.67410156 -160.32605469 391.24322266 -159.85888672 391.82958984 C-129.27217636 429.94568033 -85.41637862 456.39819822 -37.54541016 466.16748047 C-29.74678894 467.77734109 -24.36175549 469.81145906 -18.85791016 475.60498047 C-14.96092634 481.60034018 -14.45515825 487.09536831 -15.23291016 494.10498047 C-16.97804653 500.20773282 -20.75745791 504.92301954 -26.23291016 508.10498047 C-41.06290563 514.54362619 -62.86247735 504.85117846 -77.23291016 500.10498047 C-77.90177246 499.88648438 -78.57063477 499.66798828 -79.25976562 499.44287109 C-103.05871068 491.52004687 -125.45922832 479.26640935 -145.55517578 464.34912109 C-147.17463555 463.14819458 -148.80515522 461.96222674 -150.43603516 460.77685547 C-159.68104721 453.90002384 -167.95918802 446.10861374 -176.23291016 438.10498047 C-176.74015625 437.61964844 -177.24740234 437.13431641 -177.77001953 436.63427734 C-221.28041157 394.96494562 -249.12904395 330.88041722 -250.4987793 270.65869141 C-250.5584645 266.28622857 -250.56387861 261.91525616 -250.54541016 257.54248047 C-250.543255 256.62055908 -250.54109985 255.6986377 -250.53887939 254.7487793 C-250.39794657 217.08957217 -242.44133593 181.15530045 -226.23291016 147.10498047 C-225.91741211 146.43160645 -225.60191406 145.75823242 -225.27685547 145.06445312 C-217.91212039 129.41534507 -209.03018646 114.63060079 -198.23291016 101.10498047 C-197.49298828 100.17298828 -196.75306641 99.24099609 -195.99072266 98.28076172 C-183.35430887 82.60548718 -169.37370151 67.23681064 -153.23291016 55.10498047 C-152.60755371 54.6302832 -151.98219727 54.15558594 -151.33789062 53.66650391 C-106.82177596 20.04140578 -55.63269224 2.61557595 0 0 Z " fill="#000000" transform="translate(250.23291015625,0.89501953125)"/>
<path d="M0 0 C4.10143979 2.26425262 6.65048181 5.11346361 8.75 9.3125 C8.85589758 11.30139881 8.89665804 13.29387049 8.90821838 15.28555298 C8.9180072 16.55883957 8.92779602 17.83212616 8.93788147 19.14399719 C8.94378605 20.56295739 8.94959647 21.98191798 8.95532227 23.40087891 C8.96489812 24.88884251 8.97490802 26.37680337 8.98532104 27.86476135 C9.01240794 31.91201703 9.03339697 35.95928441 9.05332303 40.00658083 C9.07515928 44.23336208 9.1025595 48.46010709 9.12937927 52.68685913 C9.17933815 60.69432293 9.2242651 68.7018068 9.26740164 76.70930994 C9.31674674 85.82407982 9.37167496 94.93881335 9.42708123 104.0535481 C9.54095031 122.80649833 9.6477786 141.55948285 9.75 160.3125 C13.45200926 162.23216505 17.15403039 164.15180719 20.85606194 166.07142925 C22.11217625 166.72276872 23.36828746 167.37411415 24.62439537 168.02546597 C33.37287959 172.56196534 42.12178205 177.09763887 50.875 181.625 C51.4499823 181.9224411 52.0249646 182.2198822 52.61737061 182.52633667 C61.8297773 187.29153995 71.04884189 192.04373792 80.27035522 196.79129028 C84.43360745 198.93500448 88.59616757 201.08006221 92.75862122 203.22532654 C96.0096033 204.90077871 99.26090188 206.57560694 102.51318359 208.24853516 C110.27375768 212.2414596 118.01942593 216.26179329 125.75 220.3125 C126.74531738 220.83102539 127.74063477 221.34955078 128.76611328 221.88378906 C131.56039224 223.34552671 134.34410892 224.82548324 137.125 226.3125 C137.93364502 226.73321777 138.74229004 227.15393555 139.57543945 227.58740234 C145.29138486 230.6852114 149.61295606 233.90136818 151.75 240.3125 C152.5269811 246.56164803 152.09225254 251.42814013 148.36328125 256.6171875 C144.50318297 260.67356197 140.60500455 262.12580789 135.1015625 262.6796875 C129.78677819 262.56405511 125.59824112 260.31011424 120.9375 257.9375 C120.0108252 257.48052734 119.08415039 257.02355469 118.12939453 256.55273438 C110.84222048 252.93465308 103.64113843 249.15303099 96.4609375 245.328125 C88.92993243 241.33049293 81.33551821 237.45531299 73.75 233.5625 C70.68471936 231.98862472 67.61963838 230.4143611 64.5546875 228.83984375 C63.42540833 228.25972786 63.42540833 228.25972786 62.27331543 227.66789246 C53.28916984 223.05071391 44.3242342 218.39668217 35.359375 213.7421875 C30.74688167 211.34750477 26.13224437 208.95702669 21.515625 206.5703125 C20.89843597 206.25122421 20.28124695 205.93213593 19.64535522 205.6033783 C16.72489228 204.09363532 13.80422184 202.58429602 10.88330078 201.07543945 C2.83573558 196.9158028 -5.20282546 192.73899849 -13.23974609 188.55883789 C-14.39677536 187.95711006 -15.55380463 187.35538223 -16.74589539 186.73542023 C-19.58062704 185.26117138 -22.41532777 183.7868631 -25.25 182.3125 C-25.34348666 160.28546001 -25.41400049 138.25845279 -25.45724869 116.23125458 C-25.4778643 106.00338606 -25.50596584 95.7756409 -25.55175781 85.54785156 C-25.59165614 76.6321703 -25.61744009 67.71657839 -25.62635398 58.80081034 C-25.63156364 54.08097681 -25.64378746 49.36139887 -25.67292023 44.64164734 C-25.70013664 40.19620562 -25.70843244 35.75112397 -25.70243073 31.30560684 C-25.70352818 29.67703925 -25.71144502 28.0484592 -25.7268219 26.41996384 C-25.88217734 9.11326033 -25.88217734 9.11326033 -19.76715469 2.77568817 C-13.8567756 -2.46507623 -7.07730989 -3.28069692 0 0 Z " fill="#000000" transform="translate(251.25,92.6875)"/>
<path d="M0 0 C5.10434032 3.63193446 8.14973573 6.89602024 9.44238281 13.13525391 C10.36749341 20.01489056 9.24482527 25.19962221 6.9375 31.6875 C6.64939453 32.58533203 6.36128906 33.48316406 6.06445312 34.40820312 C3.66009246 41.43593826 0.43304891 46.71130072 -5.8125 50.875 C-12.50678034 53.23768718 -18.16214161 53.6617862 -24.859375 51.07421875 C-29.81244913 48.58864323 -33.06551566 45.53737747 -35.9375 40.8125 C-38.45821371 31.76758611 -36.94292008 24.85712126 -33.8125 16.1875 C-33.37574951 14.96885254 -33.37574951 14.96885254 -32.93017578 13.72558594 C-30.68450416 7.88081914 -28.16741654 3.16170399 -22.859375 -0.4609375 C-14.67723432 -4.00653179 -8.01250662 -4.38420173 0 0 Z " fill="#000000" transform="translate(492,310)"/>
<path d="M0 0 C4.53472257 2.78350857 7.63969384 7.06130124 10.359375 11.5546875 C11.81360236 18.34108185 11.53922177 24.11961812 8.28515625 30.29296875 C4.57122205 35.43288341 -0.030472 38.68578223 -5.390625 41.8671875 C-6.01646484 42.25712891 -6.64230469 42.64707031 -7.28710938 43.04882812 C-13.86438371 46.99519272 -20.28075783 48.86524754 -27.9765625 47.71484375 C-34.48685798 46.05701758 -38.81664735 40.88028729 -42.1953125 35.3515625 C-44.24649656 30.30528666 -43.86438789 24.01400042 -42.42578125 18.828125 C-37.92125781 8.81377674 -27.32429462 4.04670392 -18.078125 -0.8203125 C-12.11330854 -2.80858465 -5.79792059 -2.43512665 0 0 Z " fill="#000000" transform="translate(396.078125,434.8203125)"/>
<path d="M0 0 C5.08029675 4.47549952 9.0672276 8.97354958 9.9609375 15.92578125 C10.13750601 28.12666542 3.9848003 35.31238383 -4.01611328 43.93310547 C-8.30875964 48.29053485 -13.0716999 51.03284999 -19.234375 51.4453125 C-26.31528061 51.00598624 -32.60830088 48.6466633 -37.375 43.3125 C-40.35388414 37.82949138 -42.19030749 32.60201489 -41.375 26.3125 C-39.46297604 20.28178838 -36.989224 15.93582229 -33 11.0625 C-32.53078125 10.464375 -32.0615625 9.86625 -31.578125 9.25 C-23.38165714 -0.98426373 -12.63780196 -6.31890098 0 0 Z " fill="#000000" transform="translate(455.375,380.6875)"/>
<path d="M0 0 C7.85058953 6.93773028 11.84245289 17.91207967 13.17578125 28.109375 C13.45263189 35.48151217 12.77100927 40.84458882 7.6875 46.375 C3.13015354 50.81549143 -1.45932774 52.44185405 -7.75 52.6875 C-13.8004331 52.52507227 -19.27547499 50.31395001 -23.8359375 46.265625 C-29.93424494 38.45721018 -34.28069603 25.57329895 -34.32421875 15.72265625 C-33.42866416 8.72006675 -29.65631241 3.84261975 -24.3125 -0.625 C-15.93581197 -4.51057216 -8.23811388 -4.04133889 0 0 Z " fill="#000000" transform="translate(487.3125,152.625)"/>
<path d="M0 0 C4.81757563 4.40464058 6.67379752 9.62655526 7.1640625 16 C6.7190193 22.67564802 4.97093033 27.11890375 0.2890625 32 C-8.26564755 39.07783828 -21.50071472 40.5801703 -32.2734375 40.203125 C-38.03191757 39.27536988 -41.53859197 36.37878477 -45.4609375 32.25 C-49.53576817 25.98102974 -49.85511593 20.0717997 -49.0859375 12.75 C-47.37273175 7.16925793 -43.10177559 2.5857516 -38.0859375 -0.25 C-25.32410066 -4.6246908 -11.68167279 -8.58582311 0 0 Z " fill="#000000" transform="translate(327.0859375,470.25)"/>
<path d="M0 0 C5.34240942 3.14324712 8.60848114 7.48555063 10.5625 13.375 C11.00045567 17.63715512 10.9327496 21.90501145 10.9375 26.1875 C10.96199219 27.33798828 10.98648438 28.48847656 11.01171875 29.67382812 C11.03913385 37.64705317 10.27297251 43.62179653 4.52734375 49.43359375 C3.52380859 50.11615234 3.52380859 50.11615234 2.5 50.8125 C1.82839844 51.28558594 1.15679687 51.75867188 0.46484375 52.24609375 C-4.73322547 55.33077959 -10.82631311 55.0198548 -16.625 53.984375 C-22.35173024 52.23951188 -26.39351882 48.48395219 -29.4375 43.375 C-31.39193131 37.31691225 -31.77400189 31.71149981 -31.75 25.375 C-31.76611328 24.52421875 -31.78222656 23.6734375 -31.79882812 22.796875 C-31.80411085 15.90820059 -30.87901498 10.20131898 -26.28125 4.87890625 C-25.5078125 4.23824219 -24.734375 3.59757813 -23.9375 2.9375 C-22.77734375 1.94943359 -22.77734375 1.94943359 -21.59375 0.94140625 C-15.76137558 -3.29551792 -6.39446288 -2.9409648 0 0 Z " fill="#000000" transform="translate(501.4375,229.625)"/>
</svg>
