<?xml version="1.0" encoding="UTF-8"?>
<svg version="1.1" xmlns="http://www.w3.org/2000/svg" width="512" height="512">
<path d="M0 0 C1.01790619 0.00215515 2.03581238 0.0043103 3.08456421 0.00653076 C17.69363523 0.05620146 32.02575853 0.30709809 46.375 3.3125 C47.34985352 3.51117676 48.32470703 3.70985352 49.32910156 3.91455078 C88.47564494 12.10330594 124.69815091 27.79453981 156.375 52.3125 C157.261875 52.98667969 158.14875 53.66085938 159.0625 54.35546875 C174.64607275 66.46770077 189.25647311 80.753451 201.375 96.3125 C202.52162109 97.71628906 202.52162109 97.71628906 203.69140625 99.1484375 C238.32002637 142.39252491 256.81365997 197.89189907 256.69067383 253.03979492 C256.6875221 255.97938487 256.71104926 258.9179558 256.73632812 261.85742188 C256.78098737 275.23056192 255.57551542 288.12666711 253.375 301.3125 C253.09281616 303.01805054 253.09281616 303.01805054 252.80493164 304.75805664 C245.77946967 343.86954746 228.79665906 381.05202178 204.375 412.3125 C203.61574219 413.28445313 202.85648437 414.25640625 202.07421875 415.2578125 C189.73986402 430.63741644 175.93895499 445.19015196 160.375 457.3125 C159.43914062 458.07691406 158.50328125 458.84132813 157.5390625 459.62890625 C125.58628299 485.2157721 86.41988322 501.72551276 46.375 509.3125 C45.56562988 509.47621094 44.75625977 509.63992188 43.92236328 509.80859375 C13.88110013 515.67977137 -20.7615176 514.58512909 -50.625 508.3125 C-52.14794678 507.99901611 -52.14794678 507.99901611 -53.70166016 507.67919922 C-90.84546555 499.78695344 -125.70945445 483.68345578 -155.625 460.3125 C-156.59695312 459.55324219 -157.56890625 458.79398437 -158.5703125 458.01171875 C-173.94991644 445.67736402 -188.50265196 431.87645499 -200.625 416.3125 C-201.77162109 414.90871094 -201.77162109 414.90871094 -202.94140625 413.4765625 C-228.5282721 381.52378299 -245.03801276 342.35738322 -252.625 302.3125 C-252.78871094 301.50312988 -252.95242187 300.69375977 -253.12109375 299.85986328 C-258.59069558 271.87335724 -258.46977511 238.21828161 -252.625 210.3125 C-252.42632324 209.33764648 -252.22764648 208.36279297 -252.02294922 207.35839844 C-243.85281954 168.30089461 -228.22714583 131.86349681 -203.625 100.3125 C-202.95210937 99.42820312 -202.27921875 98.54390625 -201.5859375 97.6328125 C-189.48489743 82.04587611 -175.18662021 67.42083932 -159.625 55.3125 C-158.18640625 54.14847656 -158.18640625 54.14847656 -156.71875 52.9609375 C-112.24221148 17.58187277 -56.46801745 -0.21501989 0 0 Z M-155.625 96.3125 C-156.12241699 96.78268555 -156.61983398 97.25287109 -157.13232422 97.73730469 C-165.13838763 105.33444934 -172.03249721 113.47194153 -178.625 122.3125 C-179.05022949 122.87163086 -179.47545898 123.43076172 -179.91357422 124.00683594 C-187.16970107 133.56450244 -193.10360829 143.66807576 -198.625 154.3125 C-199.01574707 155.06128418 -199.40649414 155.81006836 -199.80908203 156.58154297 C-215.67172991 187.3682599 -223.08020261 221.12664341 -223 255.625 C-222.99912384 256.54836151 -222.99824768 257.47172302 -222.99734497 258.42306519 C-222.81378459 317.25448491 -199.15704805 371.11475135 -158.625 413.3125 C-157.7690625 414.2096875 -156.913125 415.106875 -156.03125 416.03125 C-150.26417803 421.9443238 -144.1837581 427.29642238 -137.625 432.3125 C-136.98030762 432.8065332 -136.33561523 433.30056641 -135.67138672 433.80957031 C-124.83901324 442.03586549 -113.72845013 449.11374313 -101.625 455.3125 C-100.8820166 455.69889648 -100.1390332 456.08529297 -99.37353516 456.48339844 C-47.31468466 483.31692993 13.98450289 486.84888824 69.49414062 469.26123047 C102.96928428 458.23712808 132.08101384 439.60803934 157.375 415.3125 C158.72078125 414.02859375 158.72078125 414.02859375 160.09375 412.71875 C166.01226517 406.94637101 171.31283335 400.84514578 176.375 394.3125 C176.79894043 393.77028809 177.22288086 393.22807617 177.65966797 392.66943359 C207.8404631 353.82144629 223.87137749 306.07227501 223.75 257 C223.74912384 256.12810028 223.74824768 255.25620056 223.74734497 254.35787964 C223.553057 195.39719556 199.9303867 141.61760071 159.375 99.3125 C158.48039062 98.36503906 157.58578125 97.41757813 156.6640625 96.44140625 C149.75998731 89.30449568 142.30488392 83.24414885 134.375 77.3125 C133.81441895 76.88582031 133.25383789 76.45914063 132.67626953 76.01953125 C123.12016384 68.76526124 113.01727007 62.83277431 102.375 57.3125 C101.62621582 56.92175293 100.87743164 56.53100586 100.10595703 56.12841797 C16.70694409 13.15764006 -86.89826482 30.68228687 -155.625 96.3125 Z " fill="#000000" transform="translate(255.625,-0.3125)"/>
<path d="M0 0 C1.00804687 -0.02835938 2.01609375 -0.05671875 3.0546875 -0.0859375 C10.3170885 1.00434662 15.34943151 7.31362352 20.30175781 12.29296875 C21.09921417 13.08692047 21.89667053 13.88087219 22.71829224 14.69888306 C25.343278 17.31509203 27.96091078 19.9385182 30.578125 22.5625 C32.4029261 24.38595356 34.22802398 26.20911016 36.05340576 28.03198242 C39.87285075 31.84848186 43.688756 35.66847023 47.50195312 39.49121094 C51.90737341 43.90752966 56.3199733 48.31657643 60.73634076 52.72194576 C64.99209822 56.96752998 69.24220607 61.21871867 73.48995209 65.47232056 C75.29542925 67.27913296 77.10239624 69.08445788 78.91086578 70.88827515 C81.43405082 73.40639093 83.95075214 75.93081192 86.46582031 78.45703125 C87.21596405 79.20312653 87.96610779 79.9492218 88.73898315 80.71792603 C89.42302216 81.40760468 90.10706116 82.09728333 90.81182861 82.80786133 C91.70441816 83.70158195 91.70441816 83.70158195 92.61503983 84.61335754 C96.58189323 89.24141164 96.55247493 93.55410035 96.4375 99.4609375 C95.86897844 104.76240101 93.34634216 107.21472495 89.625 110.75 C84.56721514 113.09825726 79.60814207 113.34597307 74.125 112.375 C69.79634889 109.77655888 66.31521337 106.8099408 62.76220703 103.23925781 C62.26389877 102.74124161 61.76559052 102.2432254 61.25218201 101.7301178 C59.62426617 100.10082084 58.00352925 98.46458054 56.3828125 96.828125 C55.24839395 95.68997199 54.11352982 94.55226293 52.97824097 93.41497803 C50.00482086 90.43395561 47.03745863 87.44697433 44.0713501 84.4586792 C41.03820656 81.40500367 37.99932768 78.35704735 34.9609375 75.30859375 C29.01002127 69.33628768 23.06549747 63.35766935 17.125 57.375 C17.12353344 58.17860521 17.12206688 58.98221043 17.12055588 59.81016731 C17.08350151 79.3651853 17.024505 98.92002445 16.94109726 118.4749012 C16.90129075 127.93151254 16.86890645 137.38804048 16.85400391 146.84472656 C16.84099574 155.08734496 16.81405246 163.32977996 16.77038693 171.57229507 C16.74775328 175.93653746 16.73209046 180.30055348 16.73311615 184.66485977 C16.73386164 188.77389239 16.71595575 192.88242423 16.68383217 196.99132729 C16.67532336 198.49813745 16.67358994 200.00500372 16.67919731 201.51182747 C16.68584459 203.57285024 16.66790331 205.63228304 16.64398193 207.69314575 C16.63845118 209.4215076 16.63845118 209.4215076 16.63280869 211.18478584 C15.83216405 216.21468768 13.25067226 219.30561135 9.625 222.75 C4.45999991 225.14803575 -0.2752288 225.12881535 -5.875 224.375 C-10.85368406 222.06346812 -13.17252237 219.08395728 -15.875 214.375 C-16.38280869 211.18478584 -16.38280869 211.18478584 -16.39398193 207.69314575 C-16.40148319 207.04690148 -16.40898444 206.40065721 -16.416713 205.73482978 C-16.43690783 203.58346706 -16.42890459 201.43316659 -16.42089844 199.28173828 C-16.429638 197.73406436 -16.44012513 196.18639947 -16.45222473 194.63874817 C-16.48005868 190.44701633 -16.48349 186.2555797 -16.48250484 182.06376886 C-16.48563619 177.6794796 -16.51125903 173.29532286 -16.53448486 168.91110229 C-16.5750314 160.61334272 -16.5953824 152.31566171 -16.60845876 144.01781833 C-16.62433336 134.56917909 -16.66275094 125.12067346 -16.70305204 115.67211175 C-16.78543256 96.23978342 -16.83953621 76.80746774 -16.875 57.375 C-17.53010559 58.03454681 -18.18521118 58.69409363 -18.86016846 59.37362671 C-25.03469091 65.58822261 -31.21401364 71.79799646 -37.39877701 78.00240135 C-40.57825557 81.19231725 -43.75584679 84.38406692 -46.92919922 87.58007812 C-49.99169801 90.66430685 -53.05905593 93.74362493 -56.12984467 96.81959915 C-57.30056906 97.99401901 -58.46953165 99.17019786 -59.63669586 100.34815598 C-61.27172302 101.99769984 -62.91290156 103.6408794 -64.55566406 105.28271484 C-65.0368721 105.77111343 -65.51808014 106.25951202 -66.01387024 106.76271057 C-70.47097734 111.19267384 -73.47783505 112.67020146 -79.75 112.75 C-84.95766907 112.64863418 -87.98080633 112.07448398 -91.875 108.375 C-96.28915841 103.72851746 -96.34258261 99.48706934 -96.40625 93.375 C-95.12756741 86.15420418 -88.94484596 81.15899202 -83.95703125 76.19824219 C-83.16307953 75.40078583 -82.36912781 74.60332947 -81.55111694 73.78170776 C-78.93490797 71.156722 -76.3114818 68.53908922 -73.6875 65.921875 C-71.86404644 64.0970739 -70.04088984 62.27197602 -68.21801758 60.44659424 C-64.40151814 56.62714925 -60.58152977 52.811244 -56.75878906 48.99804688 C-52.34247034 44.59262659 -47.93342357 40.1800267 -43.52805424 35.76365924 C-39.28247002 31.50790178 -35.03128133 27.25779393 -30.77767944 23.01004791 C-28.97086704 21.20457075 -27.16554212 19.39760376 -25.36172485 17.58913422 C-22.84360907 15.06594918 -20.31918808 12.54924786 -17.79296875 10.03417969 C-17.04687347 9.28403595 -16.3007782 8.53389221 -15.53207397 7.76101685 C-14.84239532 7.07697784 -14.15271667 6.39293884 -13.44213867 5.68817139 C-12.84632492 5.09311169 -12.25051117 4.49805199 -11.63664246 3.88496017 C-7.92120809 0.70034237 -4.84473675 0.06163787 0 0 Z " fill="#000000" transform="translate(255.875,143.625)"/>
</svg>
