<?xml version="1.0" encoding="UTF-8"?>
<svg version="1.1" xmlns="http://www.w3.org/2000/svg" width="512" height="512">
<path d="M0 0 C1.1088707 -0.01058945 1.1088707 -0.01058945 2.24014282 -0.02139282 C32.97641168 -0.24840581 32.97641168 -0.24840581 45.9765625 3.203125 C47.16427246 3.50911621 47.16427246 3.50911621 48.37597656 3.82128906 C83.10816259 12.97395949 115.21536638 32.22805251 136.9765625 61.203125 C137.76289063 62.21246094 138.54921875 63.22179687 139.359375 64.26171875 C159.11094603 90.18809059 170.07807733 122.45147191 170.15014648 154.9621582 C170.16041138 156.89818886 170.17067841 158.83421951 170.18102562 160.77024972 C170.19120997 162.83796767 170.1990853 164.90568335 170.20635796 166.97341347 C170.22191513 171.29955056 170.24586405 175.62561684 170.27125549 179.95170593 C170.34218028 192.24892686 170.40214939 204.54618753 170.45336914 216.84350586 C170.48177525 223.64578512 170.51720764 230.44799296 170.56002289 237.25019711 C170.58661389 241.54065529 170.60462939 245.8310329 170.61606014 250.12155688 C170.62742193 253.43306278 170.65151765 256.74445683 170.67358398 260.0559082 C170.6744677 261.81515373 170.6744677 261.81515373 170.67536926 263.60993958 C170.74133037 276.99244285 170.74133037 276.99244285 175.6171875 289.1875 C176.14892578 290.00412109 176.68066406 290.82074219 177.22851562 291.66210938 C177.80537109 292.50064453 178.38222656 293.33917969 178.9765625 294.203125 C179.57919922 295.09837891 180.18183594 295.99363281 180.80273438 296.91601562 C182.75251714 299.77982142 184.73417676 302.61881561 186.7265625 305.453125 C187.42813477 306.45657959 188.12970703 307.46003418 188.85253906 308.49389648 C193.51193473 315.14826329 198.20868334 321.7749289 202.9609375 328.36328125 C209.47578975 337.54215254 213.26273435 345.73475931 211.9765625 357.203125 C210.14978981 367.21992857 205.28870953 373.88478251 197.19921875 379.87890625 C190.62760092 383.79415835 185.64377246 384.63412375 178.09399414 384.54370117 C177.12736847 384.54413925 176.1607428 384.54457733 175.16482544 384.54502869 C171.98858018 384.54294852 168.81287113 384.51965362 165.63671875 384.49609375 C163.42712187 384.49049506 161.21752125 384.48622625 159.00791931 384.48323059 C153.20626454 384.47180338 147.40483685 384.44235429 141.60327148 384.40911865 C135.67760286 384.37837207 129.75189736 384.36471544 123.82617188 384.34960938 C112.20953592 384.31748271 100.59306813 384.26631191 88.9765625 384.203125 C88.78084656 385.01884476 88.58513062 385.83456451 88.38348389 386.67500305 C88.12126038 387.74945175 87.85903687 388.82390045 87.58886719 389.9309082 C87.20248077 391.52573784 87.20248077 391.52573784 86.80828857 393.15278625 C85.71438953 397.16463911 84.15328653 400.72018036 82.2265625 404.390625 C81.87875732 405.06915527 81.53095215 405.74768555 81.17260742 406.44677734 C78.32645802 411.85206949 74.99442004 416.59838939 70.9765625 421.203125 C70.20441406 422.17121094 69.43226563 423.13929688 68.63671875 424.13671875 C56.26535924 438.95727779 35.77148047 447.10526893 16.99365234 448.9296875 C-4.63044195 450.52100308 -25.96378768 443.88001859 -42.7109375 430.078125 C-55.12344008 419.35149964 -63.70202102 405.93631771 -67.61547852 389.95336914 C-67.88062759 388.87567764 -68.14577667 387.79798615 -68.41896057 386.68763733 C-68.61843796 385.86774826 -68.81791534 385.04785919 -69.0234375 384.203125 C-70.2370697 384.21644867 -71.4507019 384.22977234 -72.70111084 384.24349976 C-84.17584478 384.36548322 -95.65044601 384.45524224 -107.12568283 384.51399803 C-113.02433182 384.5452214 -118.92245458 384.58753011 -124.82080078 384.65576172 C-130.52021661 384.7212745 -136.21912841 384.75689859 -141.91889191 384.77238846 C-144.08610206 384.78341761 -146.2532867 384.80495453 -148.42028046 384.83750534 C-172.37982352 385.18287393 -172.37982352 385.18287393 -182.22479248 376.19296265 C-188.76636434 369.41065188 -191.92557908 361.83533179 -192.2734375 352.515625 C-191.98200902 340.09348617 -185.99979918 332.41933114 -178.87988281 322.75146484 C-175.41567884 317.99615697 -172.06933002 313.15843218 -168.7109375 308.328125 C-167.72540894 306.921073 -167.72540894 306.921073 -166.7199707 305.4855957 C-163.4714857 300.82704276 -160.27579467 296.13652503 -157.16796875 291.3828125 C-156.61085205 290.53187012 -156.05373535 289.68092773 -155.47973633 288.80419922 C-150.53736953 279.97670955 -150.87445881 270.48749979 -150.86572266 260.66870117 C-150.86064194 259.41887451 -150.85556122 258.16904785 -150.85032654 256.88134766 C-150.83964398 254.17172541 -150.8306363 251.46215361 -150.82420731 248.75252342 C-150.81344957 244.44974659 -150.79318061 240.14704627 -150.77108765 235.84431458 C-150.70943625 223.6114965 -150.65534796 211.37868261 -150.62207031 199.14575195 C-150.60359139 192.38220784 -150.57448813 185.61879213 -150.5340656 178.85534269 C-150.51320702 175.28785476 -150.49756904 171.72052714 -150.49525833 168.15297508 C-150.47985106 149.6151792 -149.90424353 131.89060944 -144.2734375 114.078125 C-144.01667236 113.24958008 -143.75990723 112.42103516 -143.49536133 111.56738281 C-133.70980997 80.90108351 -114.8666379 52.6121861 -89.0234375 33.203125 C-88.01410156 32.41679688 -87.00476563 31.63046875 -85.96484375 30.8203125 C-61.88728195 12.47722635 -30.45598946 0.19452021 0 0 Z M-73.0234375 63.203125 C-73.84457031 63.87085937 -74.66570312 64.53859375 -75.51171875 65.2265625 C-81.47147073 70.27022135 -86.26511073 76.03429422 -91.0234375 82.203125 C-91.7040625 83.05648437 -92.3846875 83.90984375 -93.0859375 84.7890625 C-104.32150076 99.40407253 -111.62779354 117.2890384 -115.3359375 135.265625 C-115.49545898 136.03165039 -115.65498047 136.79767578 -115.81933594 137.58691406 C-118.72903704 152.97043313 -118.1809487 168.83563649 -118.22266769 184.4171524 C-118.23458915 188.47922015 -118.25379615 192.54118823 -118.27578735 196.60321045 C-118.33717345 208.14168745 -118.3917526 219.68015405 -118.42480469 231.21875 C-118.443215 237.61861965 -118.47221286 244.01835176 -118.5128094 250.41812015 C-118.53373723 253.79020759 -118.5493166 257.16212309 -118.55161667 260.53427887 C-118.55654477 264.29291369 -118.57974778 268.05103959 -118.60693359 271.80957031 C-118.60392746 272.90594818 -118.60092133 274.00232605 -118.5978241 275.13192749 C-118.70647779 285.28717589 -121.06853055 294.19853687 -125.7109375 303.203125 C-126.01193359 303.82445312 -126.31292969 304.44578125 -126.62304688 305.0859375 C-129.20678795 310.20164127 -132.46748464 314.70256566 -135.8762207 319.29882812 C-139.43781695 324.11619583 -142.84898697 329.03780152 -146.2734375 333.953125 C-146.96695313 334.94183594 -147.66046875 335.93054688 -148.375 336.94921875 C-149.38433594 338.39748047 -149.38433594 338.39748047 -150.4140625 339.875 C-151.01250977 340.7319043 -151.61095703 341.58880859 -152.22753906 342.47167969 C-154.30175657 345.62643029 -156.15023673 348.92502365 -158.0234375 352.203125 C-47.1434375 352.203125 63.7365625 352.203125 177.9765625 352.203125 C174.61354745 346.3035072 174.61354745 346.3035072 170.91015625 340.70703125 C170.3476416 339.90942383 169.78512695 339.11181641 169.20556641 338.29003906 C168.61437012 337.45698242 168.02317383 336.62392578 167.4140625 335.765625 C166.15996285 333.98060461 164.90605894 332.19544668 163.65234375 330.41015625 C161.41302264 327.23114599 159.16073762 324.06222335 156.89453125 320.90234375 C152.2752468 314.40746507 148.03562208 307.87479835 144.4140625 300.765625 C143.92993896 299.82638184 143.92993896 299.82638184 143.43603516 298.86816406 C139.21826017 290.21315262 138.68090329 281.66116688 138.68945312 272.14770508 C138.68262009 270.97228653 138.67578705 269.79686798 138.66874695 268.58583069 C138.6552057 266.04380502 138.64612249 263.50175247 138.64103699 260.95969582 C138.63269571 256.91604088 138.6124104 252.87260875 138.58850098 248.82902527 C138.53970781 240.22459688 138.5073776 231.62013363 138.4765625 223.015625 C138.44331045 213.76607162 138.40679657 204.51658229 138.35243177 195.26712531 C138.32583156 190.63492914 138.31367137 186.00282933 138.30432129 181.37055969 C138.25814212 170.21794758 138.07893878 159.12876847 137.09570312 148.0144043 C136.98311283 146.73189773 136.98311283 146.73189773 136.86824799 145.42348194 C134.29930952 119.83850632 123.11632514 96.86617451 106.9765625 77.203125 C106.30753906 76.37941406 105.63851563 75.55570313 104.94921875 74.70703125 C99.9041593 68.75406744 94.14575944 63.95518867 87.9765625 59.203125 C87.11160156 58.5225 86.24664062 57.841875 85.35546875 57.140625 C37.93060208 21.06108304 -28.13177875 26.00544825 -73.0234375 63.203125 Z M-34.0234375 384.203125 C-30.85125091 395.30577805 -23.40670037 403.74829258 -13.47265625 409.7421875 C-1.45509198 415.9789204 12.38862985 417.59586275 25.4765625 413.640625 C36.88015888 409.16120401 47.65313785 400.42191249 52.9765625 389.203125 C53.3065625 387.553125 53.6365625 385.903125 53.9765625 384.203125 C24.9365625 384.203125 -4.1034375 384.203125 -34.0234375 384.203125 Z " fill="#000000" transform="translate(246.0234375,31.796875)"/>
</svg>
