<?xml version="1.0" encoding="UTF-8"?>
<svg version="1.1" xmlns="http://www.w3.org/2000/svg" width="512" height="512">
<path d="M0 0 C1.3958431 -0.00461769 2.79168133 -0.0109764 4.18750954 -0.01890898 C7.99528633 -0.03550658 11.80265877 -0.02740003 15.61043644 -0.0149641 C19.72776501 -0.0058764 23.84502631 -0.0199017 27.96234131 -0.03088379 C36.01714488 -0.04863406 44.07179904 -0.04484464 52.12660837 -0.03323323 C58.67517729 -0.0241854 65.22370445 -0.02298073 71.77227783 -0.02732849 C73.17238647 -0.02824789 73.17238647 -0.02824789 74.60078013 -0.02918586 C76.49720622 -0.03046481 78.3936323 -0.03176167 80.29005837 -0.03307623 C98.05664433 -0.04447179 115.82314762 -0.03138439 133.58972001 -0.00987476 C148.82141072 0.00799529 164.05297946 0.00489089 179.28466797 -0.0135498 C196.98936405 -0.0349746 214.69398775 -0.04337325 232.39869499 -0.03110075 C234.2879931 -0.02982661 236.17729122 -0.02856912 238.06658936 -0.02732849 C238.99606593 -0.02671139 239.9255425 -0.02609429 240.88318503 -0.02545848 C247.42094073 -0.02201042 253.95865036 -0.02782221 260.49639893 -0.0372467 C268.46797544 -0.04848596 276.43939448 -0.04538621 284.41095304 -0.02412373 C288.47516511 -0.01363917 292.53911499 -0.00944692 296.60332489 -0.02272034 C300.32916259 -0.03470427 304.0544969 -0.02798403 307.78028941 -0.00681013 C309.75496347 -0.00027757 311.72967291 -0.01322632 313.70430946 -0.02703905 C325.71953106 0.07805954 335.14451836 3.13112514 343.91943359 11.50793457 C353.4904689 21.53383096 355.5230141 32.11930079 355.43701172 45.63659668 C355.44244482 47.02088147 355.4495741 48.40516046 355.45825195 49.78942871 C355.47633555 53.51428071 355.46948382 57.23868481 355.45673561 60.96354365 C355.44654382 64.87341739 355.456017 68.78325511 355.46228027 72.69313049 C355.46953279 79.24873691 355.46002595 85.80416233 355.44091797 92.35974121 C355.41909001 99.9359503 355.42625282 107.51172976 355.44822359 115.08792871 C355.46637035 121.60709241 355.46894142 128.12612681 355.45846891 134.6453076 C355.45223811 138.53314585 355.45138813 142.4207819 355.46461487 146.3086071 C355.47616462 149.95731923 355.46816463 153.60547547 355.44503784 157.2541275 C355.43722574 159.23087805 355.44910962 161.20767562 355.46154785 163.18440247 C355.45026855 164.36040009 355.43898926 165.53639771 355.42736816 166.74803162 C355.42510601 168.28074408 355.42510601 168.28074408 355.42279816 169.84442043 C354.91943359 172.50793457 354.91943359 172.50793457 350.91943359 176.50793457 C331.11943359 176.50793457 311.31943359 176.50793457 290.91943359 176.50793457 C290.91943359 224.02793457 290.91943359 271.54793457 290.91943359 320.50793457 C294.21943359 320.83793457 297.51943359 321.16793457 300.91943359 321.50793457 C323.29403549 327.07284069 340.76024547 339.98976124 353.10693359 359.32043457 C364.24521573 378.62274366 366.65971197 401.18493547 361.10693359 422.64855957 C357.59523218 433.82747574 352.50078484 443.58475125 344.91943359 452.50793457 C344.39865234 453.17309082 343.87787109 453.83824707 343.34130859 454.52355957 C334.76715226 465.09557757 323.40465695 471.63739692 310.91943359 476.50793457 C309.80568359 476.9436377 308.69193359 477.37934082 307.54443359 477.82824707 C287.30032549 484.4075822 264.85352653 481.76556813 246.16943359 472.25793457 C244.84105936 471.544857 243.51291592 470.83134924 242.18505859 470.11730957 C239.07771629 468.28690656 239.07771629 468.28690656 235.91943359 468.50793457 C233.96141442 470.27393404 232.16009704 472.0332757 230.35693359 473.94543457 C224.24853433 480.32461033 224.24853433 480.32461033 219.29443359 481.00793457 C215.6063631 480.94573905 213.96539333 480.08033372 211.27099609 477.59777832 C210.23386475 476.6452417 210.23386475 476.6452417 209.17578125 475.67346191 C205.03176689 471.69624839 200.96059239 467.65194288 196.91943359 463.57043457 C196.04931641 462.69580566 195.17919922 461.82117676 194.28271484 460.92004395 C192.1592981 458.78496008 190.03826982 456.64756252 187.91943359 454.50793457 C184.02899726 456.08589372 181.44247992 458.74347838 178.56787109 461.69934082 C178.0677652 462.20464828 177.5676593 462.70995575 177.05239868 463.23057556 C175.46156416 464.83916541 173.87760276 466.45430276 172.29443359 468.07043457 C170.70325583 469.68923695 169.11063659 471.30655278 167.51504517 472.92100525 C166.52396262 473.92433884 165.53556552 474.93033365 164.55014038 475.93922424 C161.34685655 479.18926634 159.89220663 480.37375898 155.29443359 481.00793457 C151.6063631 480.94573905 149.96539333 480.08033372 147.27099609 477.59777832 C146.23386475 476.6452417 146.23386475 476.6452417 145.17578125 475.67346191 C141.03176689 471.69624839 136.96059239 467.65194288 132.91943359 463.57043457 C132.04931641 462.69580566 131.17919922 461.82117676 130.28271484 460.92004395 C128.1592981 458.78496008 126.03826982 456.64756252 123.91943359 454.50793457 C120.02899726 456.08589372 117.44247992 458.74347838 114.56787109 461.69934082 C114.0677652 462.20464828 113.5676593 462.70995575 113.05239868 463.23057556 C111.46156416 464.83916541 109.87760276 466.45430276 108.29443359 468.07043457 C106.70325583 469.68923695 105.11063659 471.30655278 103.51504517 472.92100525 C102.52396262 473.92433884 101.53556552 474.93033365 100.55014038 475.93922424 C97.34685655 479.18926634 95.89220663 480.37375898 91.29443359 481.00793457 C87.6063631 480.94573905 85.96539333 480.08033372 83.27099609 477.59777832 C82.23386475 476.6452417 82.23386475 476.6452417 81.17578125 475.67346191 C77.03176689 471.69624839 72.96059239 467.65194288 68.91943359 463.57043457 C68.04931641 462.69580566 67.17919922 461.82117676 66.28271484 460.92004395 C64.1592981 458.78496008 62.03826982 456.64756252 59.91943359 454.50793457 C56.02899726 456.08589372 53.44247992 458.74347838 50.56787109 461.69934082 C50.0677652 462.20464828 49.5676593 462.70995575 49.05239868 463.23057556 C47.46156416 464.83916541 45.87760276 466.45430276 44.29443359 468.07043457 C42.70325583 469.68923695 41.11063659 471.30655278 39.51504517 472.92100525 C38.52396262 473.92433884 37.53556552 474.93033365 36.55014038 475.93922424 C33.34685655 479.18926634 31.89220663 480.37375898 27.29443359 481.00793457 C23.6063631 480.94573905 21.96539333 480.08033372 19.27099609 477.59777832 C18.23386475 476.6452417 18.23386475 476.6452417 17.17578125 475.67346191 C13.03176689 471.69624839 8.96059239 467.65194288 4.91943359 463.57043457 C4.04931641 462.69580566 3.17919922 461.82117676 2.28271484 460.92004395 C0.1592981 458.78496008 -1.96173018 456.64756252 -4.08056641 454.50793457 C-7.97100274 456.08589372 -10.55752008 458.74347838 -13.43212891 461.69934082 C-13.9322348 462.20464828 -14.4323407 462.70995575 -14.94760132 463.23057556 C-16.53843584 464.83916541 -18.12239724 466.45430276 -19.70556641 468.07043457 C-21.29674417 469.68923695 -22.88936341 471.30655278 -24.48495483 472.92100525 C-25.47603738 473.92433884 -26.46443448 474.93033365 -27.44985962 475.93922424 C-31.39329606 479.94022295 -33.34826697 480.62155304 -39.01025391 480.93371582 C-42.10769286 480.29669536 -43.14613665 478.98598192 -45.08056641 476.50793457 C-45.472902 473.89639743 -45.61882513 471.70609407 -45.58393097 469.09673977 C-45.58974473 468.34409366 -45.5955585 467.59144756 -45.60154843 466.81599399 C-45.61621361 464.27934669 -45.6022333 461.74365717 -45.58850098 459.20701599 C-45.59310738 457.37586217 -45.59945853 455.54471205 -45.60740995 453.7135697 C-45.62416335 448.67004351 -45.61582956 443.62681868 -45.60346508 438.58329117 C-45.59444098 433.14817801 -45.60837147 427.71311787 -45.61938477 422.27801514 C-45.63720536 411.62407783 -45.63331352 400.97025301 -45.6217342 390.31631123 C-45.61271074 381.65611684 -45.61147118 372.99595404 -45.61582947 364.3357563 C-45.6164424 363.10443846 -45.61705533 361.87312062 -45.61768684 360.60449012 C-45.61896572 358.10321429 -45.62026257 355.60193847 -45.6215772 353.10066266 C-45.63266853 330.29306294 -45.62115141 307.48551741 -45.60020681 284.67792792 C-45.58124018 263.86610358 -45.58290817 243.05437717 -45.60205078 222.24255371 C-45.62348451 198.86165116 -45.63187908 175.48080277 -45.61960173 152.09989172 C-45.61832752 149.60553556 -45.61707004 147.11117938 -45.61582947 144.6168232 C-45.61521237 143.38952191 -45.61459526 142.16222063 -45.61395946 140.89772839 C-45.61050691 132.25210215 -45.61633321 123.60651067 -45.62574768 114.96088982 C-45.63697526 104.41816225 -45.6339122 93.87555379 -45.6126247 83.33283984 C-45.60212222 77.95429994 -45.59797873 72.57595849 -45.61122131 67.19742012 C-45.62316839 62.27042276 -45.61654424 57.3438072 -45.59531111 52.41684432 C-45.59085468 50.63751055 -45.59308967 48.85814432 -45.60281426 47.07883155 C-45.673156 33.1350685 -44.07300587 21.97526225 -34.08056641 11.50793457 C-24.06751614 1.94916258 -13.50028556 -0.09443548 0 0 Z M-23.33056641 25.94543457 C-28.66247088 32.48850272 -29.20612855 39.41298931 -29.20361423 47.66496086 C-29.20476808 48.36580551 -29.20592192 49.06665016 -29.20711073 49.78873253 C-29.20975721 52.13671609 -29.20527148 54.48463105 -29.20082092 56.83261108 C-29.20125703 58.53308253 -29.20213266 60.23355391 -29.20341009 61.93402493 C-29.20564734 66.60652425 -29.20164425 71.27900067 -29.19663203 75.95149708 C-29.1923167 80.9902935 -29.19377472 86.02908861 -29.1945343 91.06788635 C-29.19505885 99.79787375 -29.19191926 108.52785368 -29.18629646 117.2578392 C-29.17817211 129.87995958 -29.17556528 142.50207634 -29.17430847 155.12419905 C-29.17211943 175.60237335 -29.16546333 196.08054368 -29.15600586 216.55871582 C-29.14682794 236.45227031 -29.13974896 256.34582371 -29.13549805 276.23937988 C-29.13523532 277.46545872 -29.1349726 278.69153757 -29.13470192 279.95477031 C-29.13339688 286.10559978 -29.13213318 292.25642926 -29.13089001 298.40725875 C-29.12052199 349.44082011 -29.10290767 400.47437715 -29.08056641 451.50793457 C-27.97564205 450.57091092 -26.87216748 449.63217759 -25.76928711 448.69274902 C-25.15463089 448.17018021 -24.53997467 447.64761139 -23.9066925 447.10920715 C-20.71197165 444.30785684 -17.78805756 441.25656215 -14.82470703 438.2130127 C-11.57100106 434.90439186 -10.12527633 433.65203249 -5.45556641 433.00793457 C-1.76749591 433.07013009 -0.12652614 433.93553543 2.56787109 436.41809082 C3.60500244 437.37062744 3.60500244 437.37062744 4.66308594 438.34240723 C8.80710029 442.31962075 12.8782748 446.36392626 16.91943359 450.44543457 C17.78955078 451.32006348 18.65966797 452.19469238 19.55615234 453.0958252 C21.67956909 455.23090906 23.80059737 457.36830663 25.91943359 459.50793457 C29.80986993 457.92997542 32.39638727 455.27239076 35.27099609 452.31652832 C35.77110199 451.81122086 36.27120789 451.30591339 36.78646851 450.78529358 C38.37730302 449.17670373 39.96126443 447.56156638 41.54443359 445.94543457 C43.13561136 444.32663219 44.7282306 442.70931636 46.32382202 441.09486389 C47.31490457 440.0915303 48.30330167 439.08553549 49.28872681 438.0766449 C52.49201064 434.8266028 53.94666056 433.64211016 58.54443359 433.00793457 C62.23250409 433.07013009 63.87347386 433.93553543 66.56787109 436.41809082 C67.60500244 437.37062744 67.60500244 437.37062744 68.66308594 438.34240723 C72.80710029 442.31962075 76.8782748 446.36392626 80.91943359 450.44543457 C81.78955078 451.32006348 82.65966797 452.19469238 83.55615234 453.0958252 C85.67956909 455.23090906 87.80059737 457.36830663 89.91943359 459.50793457 C93.80986993 457.92997542 96.39638727 455.27239076 99.27099609 452.31652832 C99.77110199 451.81122086 100.27120789 451.30591339 100.78646851 450.78529358 C102.37730302 449.17670373 103.96126443 447.56156638 105.54443359 445.94543457 C107.13561136 444.32663219 108.7282306 442.70931636 110.32382202 441.09486389 C111.31490457 440.0915303 112.30330167 439.08553549 113.28872681 438.0766449 C116.49201064 434.8266028 117.94666056 433.64211016 122.54443359 433.00793457 C126.23250409 433.07013009 127.87347386 433.93553543 130.56787109 436.41809082 C131.60500244 437.37062744 131.60500244 437.37062744 132.66308594 438.34240723 C136.80710029 442.31962075 140.8782748 446.36392626 144.91943359 450.44543457 C145.78955078 451.32006348 146.65966797 452.19469238 147.55615234 453.0958252 C149.67956909 455.23090906 151.80059737 457.36830663 153.91943359 459.50793457 C157.80986993 457.92997542 160.39638727 455.27239076 163.27099609 452.31652832 C163.77110199 451.81122086 164.27120789 451.30591339 164.78646851 450.78529358 C166.37730302 449.17670373 167.96126443 447.56156638 169.54443359 445.94543457 C171.13561136 444.32663219 172.7282306 442.70931636 174.32382202 441.09486389 C175.31490457 440.0915303 176.30330167 439.08553549 177.28872681 438.0766449 C180.49201064 434.8266028 181.94666056 433.64211016 186.54443359 433.00793457 C190.23250409 433.07013009 191.87347386 433.93553543 194.56787109 436.41809082 C195.60500244 437.37062744 195.60500244 437.37062744 196.66308594 438.34240723 C200.80710029 442.31962075 204.8782748 446.36392626 208.91943359 450.44543457 C209.78955078 451.32006348 210.65966797 452.19469238 211.55615234 453.0958252 C213.67956909 455.23090906 215.80059737 457.36830663 217.91943359 459.50793457 C221.08059135 458.13809954 221.91214279 457.51887077 223.91943359 454.50793457 C223.43474609 453.97168457 222.95005859 453.43543457 222.45068359 452.88293457 C208.75299936 436.8671807 201.80719874 416.47415952 203.13818359 395.37902832 C204.89581442 374.45439762 213.54904581 354.04227104 229.57421875 340.0645752 C243.02425285 329.16308999 258.10913276 323.82453247 274.91943359 320.50793457 C274.92003068 319.90021654 274.92062777 319.29249851 274.92124295 318.66636479 C274.95715108 282.63349083 275.01381181 246.60070752 275.09735455 210.56791175 C275.10737178 206.23965147 275.11721595 201.91139081 275.12695312 197.58312988 C275.12986518 196.29063304 275.12986518 196.29063304 275.13283607 194.97202514 C275.16384178 181.02725381 275.18083273 167.08249892 275.19262782 153.13769962 C275.20504678 138.82486738 275.23256502 124.51212136 275.27404666 110.19934356 C275.29916073 101.37036572 275.3125524 92.5415309 275.31086317 83.71251683 C275.31083337 77.65490338 275.32549424 71.59743542 275.35159788 65.53987868 C275.36621926 62.04698923 275.37446811 58.55439813 275.36523628 55.06148338 C275.35859881 51.26801666 275.37651348 47.47541682 275.40045166 43.68203735 C275.38881103 42.03900389 275.38881103 42.03900389 275.37693524 40.36277783 C275.45627541 33.24760711 276.91699388 27.92277321 279.91943359 21.50793457 C280.59484178 19.84479116 281.26383178 18.17898468 281.91943359 16.50793457 C245.51053166 16.46214559 209.10163479 16.4269095 172.69270999 16.40580391 C168.39320309 16.40330253 164.09369626 16.40071388 159.79418945 16.39807129 C158.93824381 16.39754667 158.08229816 16.39702205 157.20041477 16.39648153 C143.34548658 16.3877816 129.490575 16.37201388 115.63565666 16.35362898 C101.4166682 16.33491849 87.19768844 16.32381541 72.97868818 16.31975758 C64.20653507 16.31701491 55.43442892 16.30835583 46.66229027 16.29210164 C40.64492694 16.28152058 34.62758786 16.27833649 28.61021591 16.28093182 C25.1397871 16.28221136 21.6694403 16.28026534 18.19902611 16.26952362 C14.43173679 16.25956763 10.66464813 16.2619683 6.89735413 16.26742554 C5.80686754 16.26159985 4.71638095 16.25577417 3.59284931 16.24977195 C-7.3360051 16.29253674 -15.70541659 17.49346128 -23.33056641 25.94543457 Z M296.26708984 25.37121582 C290.64766976 33.49901472 290.62932084 42.9882203 290.69238281 52.54528809 C290.69209076 53.71703079 290.69179871 54.8887735 290.6914978 56.09602356 C290.69288364 59.94303975 290.70840983 63.78985875 290.72412109 67.63684082 C290.72785388 70.31441068 290.73079807 72.99196983 290.73269653 75.66954041 C290.73889126 81.98039962 290.75527464 88.29118883 290.77539551 94.60201734 C290.79781732 101.79192217 290.80876368 108.9818305 290.81878638 116.17176163 C290.83964286 130.95052652 290.87629374 145.7292164 290.91943359 160.50793457 C306.75943359 160.50793457 322.59943359 160.50793457 338.91943359 160.50793457 C338.96465151 145.01731908 339.00146408 129.52673647 339.02305794 114.03607273 C339.03335265 106.84283135 339.04737831 99.64963401 339.0703125 92.4564209 C339.09030182 86.18384217 339.10316314 79.91129535 339.10761058 73.63868564 C339.11020862 70.32008365 339.11734047 67.00159374 339.13089371 63.68301582 C339.14545069 59.97038528 339.14740974 56.25794266 339.14648438 52.54528809 C339.15367493 51.45555695 339.16086548 50.36582581 339.16827393 49.24307251 C339.14300413 39.8489555 338.38201614 30.79552766 331.91943359 23.50793457 C325.68962256 17.96375739 319.57290398 16.53513512 311.32958984 16.92980957 C305.07857879 17.98954569 300.46822433 20.63376629 296.26708984 25.37121582 Z M237.16943359 355.69543457 C223.81156058 370.18307794 218.66248284 386.68446831 219.43896484 406.15246582 C220.62292968 422.91585706 228.7784994 437.06921575 240.91943359 448.50793457 C254.32293847 459.55129536 270.17341986 465.09916097 287.55224609 464.35168457 C304.37506319 462.39466782 321.16022117 455.01950366 331.91943359 441.50793457 C343.90893774 425.54977923 348.11132642 409.47394979 345.91943359 389.50793457 C343.01175416 372.31392785 332.62697307 357.90989251 318.73193359 347.69543457 C292.48571639 329.90966318 259.86717735 335.08483966 237.16943359 355.69543457 Z " fill="#000000" transform="translate(133.08056640625,15.4920654296875)"/>
<path d="M0 0 C0.66 -0.0103125 1.32 -0.020625 2 -0.03125 C4.97394477 0.75870408 6.14833818 2.06868753 8 4.5 C8.609375 7.515625 8.609375 7.515625 8.75 10.75 C8.80671875 11.82765625 8.8634375 12.9053125 8.921875 14.015625 C8.94765625 14.83546875 8.9734375 15.6553125 9 16.5 C9.71285156 16.73074219 10.42570312 16.96148437 11.16015625 17.19921875 C20.02820306 20.21889014 26.25707292 23.10866747 31 31.5 C32.44748207 35.84244621 32.51242526 39.96243721 32 44.5 C30.5 47.125 30.5 47.125 28 48.5 C24.02683743 49.2653223 21.0826635 49.23152939 17.6875 46.9375 C16 44.5 16 44.5 14.625 40.9375 C12.61801804 36.69196124 11.30075293 36.1870635 7 34.5 C3.54942587 34.02940335 3.54942587 34.02940335 0 34.125 C-1.175625 34.11726563 -2.35125 34.10953125 -3.5625 34.1015625 C-7.34591399 34.54009458 -9.78458131 35.47956527 -13 37.5 C-13.96906827 40.08414426 -13.96906827 40.08414426 -14 42.5 C-11.21052009 44.82140392 -9.13276263 45.94237007 -5.5625 46.5625 C-4.68722656 46.72234375 -3.81195313 46.8821875 -2.91015625 47.046875 C-0.88139329 47.36276292 1.15340736 47.64117593 3.19140625 47.890625 C14.58690403 49.34365187 22.35642278 52.64708481 29.75 61.625 C33.08779714 66.63169571 32.42086818 72.73027979 32 78.5 C29.33637863 86.21048291 23.03450343 90.86329445 16 94.5 C13.66594111 95.35435363 11.42971534 95.94319023 9 96.5 C8.96132813 97.72976562 8.96132813 97.72976562 8.921875 98.984375 C8.83679688 100.60085937 8.83679688 100.60085937 8.75 102.25 C8.70359375 103.31734375 8.6571875 104.3846875 8.609375 105.484375 C7.88029995 109.0923618 6.92839358 110.31928138 4 112.5 C2 113.03125 2 113.03125 0 113 C-0.66 113.0103125 -1.32 113.020625 -2 113.03125 C-4.97394477 112.24129592 -6.14833818 110.93131247 -8 108.5 C-8.609375 105.484375 -8.609375 105.484375 -8.75 102.25 C-8.80671875 101.17234375 -8.8634375 100.0946875 -8.921875 98.984375 C-8.94765625 98.16453125 -8.9734375 97.3446875 -9 96.5 C-9.71285156 96.26925781 -10.42570312 96.03851563 -11.16015625 95.80078125 C-20.02820306 92.78110986 -26.25707292 89.89133253 -31 81.5 C-32.44748207 77.15755379 -32.51242526 73.03756279 -32 68.5 C-30.5 65.875 -30.5 65.875 -28 64.5 C-24.02683743 63.7346777 -21.0826635 63.76847061 -17.6875 66.0625 C-16 68.5 -16 68.5 -14.625 72.0625 C-12.61801804 76.30803876 -11.30075293 76.8129365 -7 78.5 C-3.54942587 78.97059665 -3.54942587 78.97059665 0 78.875 C1.175625 78.88273437 2.35125 78.89046875 3.5625 78.8984375 C7.34591399 78.45990542 9.78458131 77.52043473 13 75.5 C13.96906827 72.91585574 13.96906827 72.91585574 14 70.5 C11.21052009 68.17859608 9.13276263 67.05762993 5.5625 66.4375 C4.68722656 66.27765625 3.81195313 66.1178125 2.91015625 65.953125 C0.88139329 65.63723708 -1.15340736 65.35882407 -3.19140625 65.109375 C-14.58690403 63.65634813 -22.35642278 60.35291519 -29.75 51.375 C-33.08779714 46.36830429 -32.42086818 40.26972021 -32 34.5 C-29.33637863 26.78951709 -23.03450343 22.13670555 -16 18.5 C-13.66594111 17.64564637 -11.42971534 17.05680977 -9 16.5 C-8.97421875 15.68015625 -8.9484375 14.8603125 -8.921875 14.015625 C-8.86515625 12.93796875 -8.8084375 11.8603125 -8.75 10.75 C-8.68039063 9.14898437 -8.68039063 9.14898437 -8.609375 7.515625 C-7.63408865 2.68920794 -5.04858813 -0.07888419 0 0 Z " fill="#000000" transform="translate(256,95.5)"/>
<path d="M0 0 C0.81730591 -0.00623996 1.63461182 -0.01247993 2.47668457 -0.01890898 C5.21912364 -0.03488145 7.96067912 -0.02221833 10.703125 -0.00964355 C12.66764851 -0.01506279 14.63216796 -0.02218433 16.59667969 -0.03088379 C21.93548516 -0.04914366 27.27398199 -0.04203856 32.61279297 -0.02936745 C38.19499556 -0.01925361 43.77717139 -0.02862863 49.359375 -0.03491211 C58.73442336 -0.04219322 68.10934576 -0.03258861 77.484375 -0.0135498 C88.32944839 0.00821976 99.17422101 0.00116873 110.01928711 -0.02085543 C119.32383808 -0.03899618 128.6282984 -0.04157422 137.93286133 -0.03110075 C143.49305147 -0.02485855 149.05310015 -0.02405019 154.61328125 -0.0372467 C159.84019072 -0.04878526 165.06671169 -0.04081586 170.2935791 -0.01766968 C172.21406407 -0.01237193 174.13458162 -0.01391451 176.05505371 -0.02272034 C178.67256338 -0.03361744 181.2888206 -0.01998354 183.90625 0 C184.67005981 -0.00892289 185.43386963 -0.01784577 186.2208252 -0.02703905 C189.72920403 0.0250787 191.60700097 0.24071042 194.42285156 2.41468048 C196.08201542 4.6842432 196.49652044 5.73062638 196.453125 8.50793457 C196.46859375 9.49793457 196.46859375 9.49793457 196.484375 10.50793457 C195.68382904 13.52175464 194.41998962 14.60339822 191.953125 16.50793457 C189.13996946 16.90078958 186.71824237 17.04871906 183.90625 17.01586914 C183.08894409 17.0221091 182.27163818 17.02834907 181.42956543 17.03477812 C178.68712636 17.05075059 175.94557088 17.03808747 173.203125 17.0255127 C171.23860149 17.03093193 169.27408204 17.03805347 167.30957031 17.04675293 C161.97076484 17.0650128 156.63226801 17.0579077 151.29345703 17.04523659 C145.71125444 17.03512275 140.12907861 17.04449777 134.546875 17.05078125 C125.17182664 17.05806236 115.79690424 17.04845775 106.421875 17.02941895 C95.57680161 17.00764938 84.73202899 17.01470041 73.88696289 17.03672457 C64.58241192 17.05486532 55.2779516 17.05744336 45.97338867 17.04696989 C40.41319853 17.04072769 34.85314985 17.03991933 29.29296875 17.05311584 C24.06605928 17.0646544 18.83953831 17.056685 13.6126709 17.03353882 C11.69218593 17.02824107 9.77166838 17.02978365 7.85119629 17.03858948 C5.23368662 17.04948658 2.6174294 17.03585268 0 17.01586914 C-0.76380981 17.02479203 -1.52761963 17.03371491 -2.3145752 17.04290819 C-5.82295403 16.99079044 -7.70075097 16.77515872 -10.51660156 14.60118866 C-12.17576542 12.33162595 -12.59027044 11.28524276 -12.546875 8.50793457 C-12.56234375 7.51793457 -12.56234375 7.51793457 -12.578125 6.50793457 C-10.87400916 0.09243966 -5.70152359 -0.06660565 0 0 Z " fill="#000000" transform="translate(164.046875,319.4920654296875)"/>
<path d="M0 0 C0.81730591 -0.00623996 1.63461182 -0.01247993 2.47668457 -0.01890898 C5.21912364 -0.03488145 7.96067912 -0.02221833 10.703125 -0.00964355 C12.66764851 -0.01506279 14.63216796 -0.02218433 16.59667969 -0.03088379 C21.93548516 -0.04914366 27.27398199 -0.04203856 32.61279297 -0.02936745 C38.19499556 -0.01925361 43.77717139 -0.02862863 49.359375 -0.03491211 C58.73442336 -0.04219322 68.10934576 -0.03258861 77.484375 -0.0135498 C88.32944839 0.00821976 99.17422101 0.00116873 110.01928711 -0.02085543 C119.32383808 -0.03899618 128.6282984 -0.04157422 137.93286133 -0.03110075 C143.49305147 -0.02485855 149.05310015 -0.02405019 154.61328125 -0.0372467 C159.84019072 -0.04878526 165.06671169 -0.04081586 170.2935791 -0.01766968 C172.21406407 -0.01237193 174.13458162 -0.01391451 176.05505371 -0.02272034 C178.67256338 -0.03361744 181.2888206 -0.01998354 183.90625 0 C184.67005981 -0.00892289 185.43386963 -0.01784577 186.2208252 -0.02703905 C189.72920403 0.0250787 191.60700097 0.24071042 194.42285156 2.41468048 C196.08201542 4.6842432 196.49652044 5.73062638 196.453125 8.50793457 C196.46859375 9.49793457 196.46859375 9.49793457 196.484375 10.50793457 C195.68382904 13.52175464 194.41998962 14.60339822 191.953125 16.50793457 C189.13996946 16.90078958 186.71824237 17.04871906 183.90625 17.01586914 C183.08894409 17.0221091 182.27163818 17.02834907 181.42956543 17.03477812 C178.68712636 17.05075059 175.94557088 17.03808747 173.203125 17.0255127 C171.23860149 17.03093193 169.27408204 17.03805347 167.30957031 17.04675293 C161.97076484 17.0650128 156.63226801 17.0579077 151.29345703 17.04523659 C145.71125444 17.03512275 140.12907861 17.04449777 134.546875 17.05078125 C125.17182664 17.05806236 115.79690424 17.04845775 106.421875 17.02941895 C95.57680161 17.00764938 84.73202899 17.01470041 73.88696289 17.03672457 C64.58241192 17.05486532 55.2779516 17.05744336 45.97338867 17.04696989 C40.41319853 17.04072769 34.85314985 17.03991933 29.29296875 17.05311584 C24.06605928 17.0646544 18.83953831 17.056685 13.6126709 17.03353882 C11.69218593 17.02824107 9.77166838 17.02978365 7.85119629 17.03858948 C5.23368662 17.04948658 2.6174294 17.03585268 0 17.01586914 C-0.76380981 17.02479203 -1.52761963 17.03371491 -2.3145752 17.04290819 C-5.82295403 16.99079044 -7.70075097 16.77515872 -10.51660156 14.60118866 C-12.17576542 12.33162595 -12.59027044 11.28524276 -12.546875 8.50793457 C-12.56234375 7.51793457 -12.56234375 7.51793457 -12.578125 6.50793457 C-10.87400916 0.09243966 -5.70152359 -0.06660565 0 0 Z " fill="#000000" transform="translate(164.046875,287.4920654296875)"/>
<path d="M0 0 C1.02994835 -0.00935994 1.02994835 -0.00935994 2.08070374 -0.01890898 C4.38097496 -0.03486111 6.68018972 -0.02222711 8.98046875 -0.00964355 C10.62972634 -0.01506373 12.27897909 -0.0221858 13.92822266 -0.03088379 C18.40757091 -0.04913268 22.886551 -0.04204323 27.36590576 -0.02936745 C32.05123901 -0.01924786 36.73654052 -0.02863023 41.421875 -0.03491211 C49.29042222 -0.04219156 57.15881932 -0.03259303 65.02734375 -0.0135498 C74.12742646 0.00821953 83.22715071 0.00116837 92.32722473 -0.02085543 C100.13710094 -0.03900097 107.94686917 -0.0415719 115.75675964 -0.03110075 C120.42269772 -0.02486116 125.08846725 -0.02404295 129.75439453 -0.0372467 C134.14085692 -0.04879232 138.52685669 -0.0408033 142.91326904 -0.01766968 C144.52414176 -0.01237565 146.13505333 -0.01390823 147.74591064 -0.02272034 C149.94311376 -0.03363283 152.13882949 -0.01996683 154.3359375 0 C156.18094849 0.00226215 156.18094849 0.00226215 158.06323242 0.00457001 C161.74951554 0.60221956 162.92356627 1.58295559 165.16796875 4.50793457 C165.69921875 6.50793457 165.69921875 6.50793457 165.66796875 8.50793457 C165.6834375 9.49793457 165.6834375 9.49793457 165.69921875 10.50793457 C164.91138424 13.47389977 163.55732468 14.60472758 161.16796875 16.50793457 C158.06323242 17.01129913 158.06323242 17.01129913 154.3359375 17.01586914 C153.64930527 17.0221091 152.96267303 17.02834907 152.25523376 17.03477812 C149.95496254 17.05073025 147.65574778 17.03809625 145.35546875 17.0255127 C143.70621116 17.03093287 142.05695841 17.03805494 140.40771484 17.04675293 C135.92836659 17.06500182 131.4493865 17.05791237 126.97003174 17.04523659 C122.28469849 17.035117 117.59939698 17.04449937 112.9140625 17.05078125 C105.04551528 17.0580607 97.17711818 17.04846217 89.30859375 17.02941895 C80.20851104 17.00764961 71.10878679 17.01470078 62.00871277 17.03672457 C54.19883656 17.05487011 46.38906833 17.05744104 38.57917786 17.04696989 C33.91323978 17.0407303 29.24747025 17.03991209 24.58154297 17.05311584 C20.19508058 17.06466146 15.80908081 17.05667244 11.42266846 17.03353882 C9.81179574 17.02824479 8.20088417 17.02977737 6.59002686 17.03858948 C4.39282374 17.04950197 2.19710801 17.03583597 0 17.01586914 C-1.84501099 17.01360699 -1.84501099 17.01360699 -3.72729492 17.01129913 C-7.41357804 16.41364958 -8.58762877 15.43291355 -10.83203125 12.50793457 C-11.36328125 10.50793457 -11.36328125 10.50793457 -11.33203125 8.50793457 C-11.3475 7.51793457 -11.3475 7.51793457 -11.36328125 6.50793457 C-9.79278824 0.59549028 -5.4395476 0.00666939 0 0 Z " fill="#000000" transform="translate(162.83203125,383.4920654296875)"/>
<path d="M0 0 C1.02994835 -0.00935994 1.02994835 -0.00935994 2.08070374 -0.01890898 C4.38097496 -0.03486111 6.68018972 -0.02222711 8.98046875 -0.00964355 C10.62972634 -0.01506373 12.27897909 -0.0221858 13.92822266 -0.03088379 C18.40757091 -0.04913268 22.886551 -0.04204323 27.36590576 -0.02936745 C32.05123901 -0.01924786 36.73654052 -0.02863023 41.421875 -0.03491211 C49.29042222 -0.04219156 57.15881932 -0.03259303 65.02734375 -0.0135498 C74.12742646 0.00821953 83.22715071 0.00116837 92.32722473 -0.02085543 C100.13710094 -0.03900097 107.94686917 -0.0415719 115.75675964 -0.03110075 C120.42269772 -0.02486116 125.08846725 -0.02404295 129.75439453 -0.0372467 C134.14085692 -0.04879232 138.52685669 -0.0408033 142.91326904 -0.01766968 C144.52414176 -0.01237565 146.13505333 -0.01390823 147.74591064 -0.02272034 C149.94311376 -0.03363283 152.13882949 -0.01996683 154.3359375 0 C156.18094849 0.00226215 156.18094849 0.00226215 158.06323242 0.00457001 C161.74951554 0.60221956 162.92356627 1.58295559 165.16796875 4.50793457 C165.69921875 6.50793457 165.69921875 6.50793457 165.66796875 8.50793457 C165.6834375 9.49793457 165.6834375 9.49793457 165.69921875 10.50793457 C164.91138424 13.47389977 163.55732468 14.60472758 161.16796875 16.50793457 C158.06323242 17.01129913 158.06323242 17.01129913 154.3359375 17.01586914 C153.64930527 17.0221091 152.96267303 17.02834907 152.25523376 17.03477812 C149.95496254 17.05073025 147.65574778 17.03809625 145.35546875 17.0255127 C143.70621116 17.03093287 142.05695841 17.03805494 140.40771484 17.04675293 C135.92836659 17.06500182 131.4493865 17.05791237 126.97003174 17.04523659 C122.28469849 17.035117 117.59939698 17.04449937 112.9140625 17.05078125 C105.04551528 17.0580607 97.17711818 17.04846217 89.30859375 17.02941895 C80.20851104 17.00764961 71.10878679 17.01470078 62.00871277 17.03672457 C54.19883656 17.05487011 46.38906833 17.05744104 38.57917786 17.04696989 C33.91323978 17.0407303 29.24747025 17.03991209 24.58154297 17.05311584 C20.19508058 17.06466146 15.80908081 17.05667244 11.42266846 17.03353882 C9.81179574 17.02824479 8.20088417 17.02977737 6.59002686 17.03858948 C4.39282374 17.04950197 2.19710801 17.03583597 0 17.01586914 C-1.84501099 17.01360699 -1.84501099 17.01360699 -3.72729492 17.01129913 C-7.41357804 16.41364958 -8.58762877 15.43291355 -10.83203125 12.50793457 C-11.36328125 10.50793457 -11.36328125 10.50793457 -11.33203125 8.50793457 C-11.3475 7.51793457 -11.3475 7.51793457 -11.36328125 6.50793457 C-9.79278824 0.59549028 -5.4395476 0.00666939 0 0 Z " fill="#000000" transform="translate(162.83203125,351.4920654296875)"/>
<path d="M0 0 C2.5 2.125 2.5 2.125 4 5 C4.2020662 8.56983619 3.84430681 10.8621666 1.68196106 13.77626038 C-3.17214627 19.18151849 -8.22035279 24.36566964 -13.36328125 29.49609375 C-14.23647507 30.37024429 -15.10966888 31.24439484 -16.00932312 32.14503479 C-17.84100616 33.97739427 -19.67393635 35.80850784 -21.50805664 37.63842773 C-23.3884643 39.51523402 -25.26746483 41.39330548 -27.14379883 43.27416992 C-29.86013205 45.99665351 -32.57987311 48.71568323 -35.30078125 51.43359375 C-36.14345047 52.2782872 -36.98611969 53.12298065 -37.85432434 53.99327087 C-39.0214521 55.15567039 -39.0214521 55.15567039 -40.2121582 56.34155273 C-41.23971977 57.36792091 -41.23971977 57.36792091 -42.28804016 58.4150238 C-45.20966415 61.119938 -47.83296811 61.52824779 -51.80883789 61.46557617 C-54.5151254 60.89054661 -55.65786443 59.92045757 -57.68359375 58.05078125 C-58.7209668 57.09776123 -58.7209668 57.09776123 -59.77929688 56.12548828 C-63.71380803 52.35967318 -67.59586341 48.54801441 -71.4375 44.6875 C-72.25154297 43.87732422 -73.06558594 43.06714844 -73.90429688 42.23242188 C-74.67708984 41.45833984 -75.44988281 40.68425781 -76.24609375 39.88671875 C-77.29301392 38.83810669 -77.29301392 38.83810669 -78.36108398 37.76831055 C-80.68077999 35.26547155 -80.98226519 34.15665749 -81.375 30.6875 C-81 27 -81 27 -78.9375 24.0625 C-76 22 -76 22 -72.6875 21.25 C-67.34344594 22.33692625 -64.76230921 25.19759513 -61 29 C-60.09894531 29.88816406 -59.19789063 30.77632813 -58.26953125 31.69140625 C-55.82906465 34.1112201 -53.40782629 36.54776708 -51 39 C-47.83382169 37.60174295 -45.72545537 35.96175508 -43.3046875 33.5 C-42.59715332 32.78585937 -41.88961914 32.07171875 -41.16064453 31.3359375 C-40.40638184 30.56507813 -39.65211914 29.79421875 -38.875 29 C-38.09108887 28.20851563 -37.30717773 27.41703125 -36.49951172 26.6015625 C-33.99482729 24.07244456 -31.49666827 21.53703011 -29 19 C-25.71406369 15.66094232 -22.42163914 12.32848745 -19.125 9 C-18.3707373 8.22914063 -17.61647461 7.45828125 -16.83935547 6.6640625 C-16.13182129 5.94992187 -15.42428711 5.23578125 -14.6953125 4.5 C-14.07672363 3.8709375 -13.45813477 3.241875 -12.82080078 2.59375 C-8.54190565 -1.15157414 -5.53841732 -1.48350464 0 0 Z " fill="#000000" transform="translate(458,387)"/>
<path d="M0 0 C0.69641602 -0.00700928 1.39283203 -0.01401855 2.11035156 -0.02124023 C4.40730932 -0.03881383 6.70303021 -0.02720107 9 -0.01367188 C10.59896073 -0.01636701 12.19791987 -0.0202496 13.796875 -0.02526855 C17.14599226 -0.03116269 20.49468243 -0.0226038 23.84375 -0.00390625 C28.13478591 0.01888377 32.42482111 0.00576017 36.71582031 -0.01819611 C40.01700366 -0.03265667 43.31795011 -0.02804703 46.61914062 -0.01768494 C48.20117308 -0.01501834 49.78322711 -0.0182851 51.36523438 -0.02760315 C53.57740163 -0.03777366 55.787953 -0.02226378 58 0 C59.8871875 0.00477356 59.8871875 0.00477356 61.8125 0.00964355 C65.55520109 0.60605054 66.73159929 1.54273163 69 4.51757812 C69.53125 6.51757812 69.53125 6.51757812 69.5 8.51757812 C69.51546875 9.50757813 69.51546875 9.50757813 69.53125 10.51757812 C68.74176632 13.48975197 67.39936627 14.61414098 65 16.51757812 C61.8125 17.0255127 61.8125 17.0255127 58 17.03515625 C57.30358398 17.04216553 56.60716797 17.0491748 55.88964844 17.05639648 C53.59269068 17.07397008 51.29696979 17.06235732 49 17.04882812 C47.40103927 17.05152326 45.80208013 17.05540585 44.203125 17.0604248 C40.85400774 17.06631894 37.50531757 17.05776005 34.15625 17.0390625 C29.86521409 17.01627248 25.57517889 17.02939608 21.28417969 17.05335236 C17.98299634 17.06781292 14.68204989 17.06320328 11.38085938 17.05284119 C9.79882692 17.05017459 8.21677289 17.05344135 6.63476562 17.0627594 C4.42259837 17.07292991 2.212047 17.05742003 0 17.03515625 C-1.258125 17.03197388 -2.51625 17.0287915 -3.8125 17.0255127 C-7.55520109 16.42910571 -8.73159929 15.49242462 -11 12.51757812 C-11.53125 10.51757812 -11.53125 10.51757812 -11.5 8.51757812 C-11.51546875 7.52757812 -11.51546875 7.52757812 -11.53125 6.51757812 C-9.93997703 0.52690342 -5.4948528 0.01389899 0 0 Z " fill="#000000" transform="translate(227,223.482421875)"/>
<path d="M0 0 C0.69641602 -0.00700928 1.39283203 -0.01401855 2.11035156 -0.02124023 C4.40730932 -0.03881383 6.70303021 -0.02720107 9 -0.01367188 C10.59896073 -0.01636701 12.19791987 -0.0202496 13.796875 -0.02526855 C17.14599226 -0.03116269 20.49468243 -0.0226038 23.84375 -0.00390625 C28.13478591 0.01888377 32.42482111 0.00576017 36.71582031 -0.01819611 C40.01700366 -0.03265667 43.31795011 -0.02804703 46.61914062 -0.01768494 C48.20117308 -0.01501834 49.78322711 -0.0182851 51.36523438 -0.02760315 C53.57740163 -0.03777366 55.787953 -0.02226378 58 0 C59.8871875 0.00477356 59.8871875 0.00477356 61.8125 0.00964355 C65.55520109 0.60605054 66.73159929 1.54273163 69 4.51757812 C69.53125 6.51757812 69.53125 6.51757812 69.5 8.51757812 C69.51546875 9.50757812 69.51546875 9.50757812 69.53125 10.51757812 C68.74176632 13.48975197 67.39936627 14.61414098 65 16.51757812 C61.8125 17.0255127 61.8125 17.0255127 58 17.03515625 C57.30358398 17.04216553 56.60716797 17.0491748 55.88964844 17.05639648 C53.59269068 17.07397008 51.29696979 17.06235732 49 17.04882812 C47.40103927 17.05152326 45.80208013 17.05540585 44.203125 17.0604248 C40.85400774 17.06631894 37.50531757 17.05776005 34.15625 17.0390625 C29.86521409 17.01627248 25.57517889 17.02939608 21.28417969 17.05335236 C17.98299634 17.06781292 14.68204989 17.06320328 11.38085938 17.05284119 C9.79882692 17.05017459 8.21677289 17.05344135 6.63476562 17.0627594 C4.42259837 17.07292991 2.212047 17.05742003 0 17.03515625 C-1.258125 17.03197388 -2.51625 17.0287915 -3.8125 17.0255127 C-7.55520109 16.42910571 -8.73159929 15.49242462 -11 12.51757812 C-11.53125 10.51757812 -11.53125 10.51757812 -11.5 8.51757812 C-11.51546875 7.52757813 -11.51546875 7.52757813 -11.53125 6.51757812 C-9.93997703 0.52690342 -5.4948528 0.01389899 0 0 Z " fill="#000000" transform="translate(227,63.482421875)"/>
<path d="M0 0 C0.7115625 -0.01546875 1.423125 -0.0309375 2.15625 -0.046875 C5.60314984 -0.02115187 7.64752229 0.24568064 10.46875 2.28125 C12.08267327 4.61979188 12.54379543 5.69709278 12.5 8.5 C12.5103125 9.16 12.520625 9.82 12.53125 10.5 C11.72167176 13.54782397 10.55457707 14.65682414 8 16.5 C5.16934716 16.90100915 2.81653341 17.06122899 0 17 C-0.7115625 17.01546875 -1.423125 17.0309375 -2.15625 17.046875 C-5.60314984 17.02115187 -7.64752229 16.75431936 -10.46875 14.71875 C-12.08267327 12.38020812 -12.54379543 11.30290722 -12.5 8.5 C-12.51546875 7.51 -12.51546875 7.51 -12.53125 6.5 C-10.82633794 0.08150756 -5.75061521 -0.12501337 0 0 Z " fill="#000000" transform="translate(324,223.5)"/>
<path d="M0 0 C0.7115625 -0.01546875 1.423125 -0.0309375 2.15625 -0.046875 C5.60314984 -0.02115187 7.64752229 0.24568064 10.46875 2.28125 C12.08267327 4.61979188 12.54379543 5.69709278 12.5 8.5 C12.5103125 9.16 12.520625 9.82 12.53125 10.5 C11.72167176 13.54782397 10.55457707 14.65682414 8 16.5 C5.16934716 16.90100915 2.81653341 17.06122899 0 17 C-0.7115625 17.01546875 -1.423125 17.0309375 -2.15625 17.046875 C-5.60314984 17.02115187 -7.64752229 16.75431936 -10.46875 14.71875 C-12.08267327 12.38020812 -12.54379543 11.30290722 -12.5 8.5 C-12.51546875 7.51 -12.51546875 7.51 -12.53125 6.5 C-10.82633794 0.08150756 -5.75061521 -0.12501337 0 0 Z " fill="#000000" transform="translate(188,223.5)"/>
<path d="M0 0 C0.7115625 -0.01546875 1.423125 -0.0309375 2.15625 -0.046875 C5.60314984 -0.02115187 7.64752229 0.24568064 10.46875 2.28125 C12.08267327 4.61979188 12.54379543 5.69709278 12.5 8.5 C12.5103125 9.16 12.520625 9.82 12.53125 10.5 C11.72167176 13.54782397 10.55457707 14.65682414 8 16.5 C5.16934716 16.90100915 2.81653341 17.06122899 0 17 C-0.7115625 17.01546875 -1.423125 17.0309375 -2.15625 17.046875 C-5.60314984 17.02115187 -7.64752229 16.75431936 -10.46875 14.71875 C-12.08267327 12.38020812 -12.54379543 11.30290722 -12.5 8.5 C-12.51546875 7.51 -12.51546875 7.51 -12.53125 6.5 C-10.82633794 0.08150756 -5.75061521 -0.12501337 0 0 Z " fill="#000000" transform="translate(324,63.5)"/>
<path d="M0 0 C0.7115625 -0.01546875 1.423125 -0.0309375 2.15625 -0.046875 C5.60314984 -0.02115187 7.64752229 0.24568064 10.46875 2.28125 C12.08267327 4.61979188 12.54379543 5.69709278 12.5 8.5 C12.5103125 9.16 12.520625 9.82 12.53125 10.5 C11.72167176 13.54782397 10.55457707 14.65682414 8 16.5 C5.16934716 16.90100915 2.81653341 17.06122899 0 17 C-0.7115625 17.01546875 -1.423125 17.0309375 -2.15625 17.046875 C-5.60314984 17.02115187 -7.64752229 16.75431936 -10.46875 14.71875 C-12.08267327 12.38020812 -12.54379543 11.30290722 -12.5 8.5 C-12.51546875 7.51 -12.51546875 7.51 -12.53125 6.5 C-10.82633794 0.08150756 -5.75061521 -0.12501337 0 0 Z " fill="#000000" transform="translate(188,63.5)"/>
</svg>
