<?xml version="1.0" encoding="UTF-8"?>
<svg version="1.1" xmlns="http://www.w3.org/2000/svg" width="512" height="512">
<path d="M0 0 C1.01790619 0.00215515 2.03581238 0.0043103 3.08456421 0.00653076 C17.69363523 0.05620146 32.02575853 0.30709809 46.375 3.3125 C47.34985352 3.51117676 48.32470703 3.70985352 49.32910156 3.91455078 C97.7109774 14.03517194 141.69928269 35.9516877 177.375 70.3125 C178.3640332 71.26068604 178.3640332 71.26068604 179.37304688 72.22802734 C188.86130305 81.37247479 197.6012044 90.66984009 205.375 101.3125 C206.23306152 102.46355017 207.09113451 103.61459177 207.94921875 104.765625 C213.98736829 112.95680614 219.34595521 121.47054105 224.375 130.3125 C224.73948242 130.94430176 225.10396484 131.57610352 225.47949219 132.22705078 C247.08534998 169.97532572 256.85198095 212.74189997 256.6875 255.9375 C256.68534485 256.95540619 256.6831897 257.97331238 256.68096924 259.02206421 C256.63129854 273.63113523 256.38040191 287.96325853 253.375 302.3125 C253.07698486 303.77478027 253.07698486 303.77478027 252.77294922 305.26660156 C242.65232806 353.6484774 220.7358123 397.63678269 186.375 433.3125 C185.74287598 433.97185547 185.11075195 434.63121094 184.45947266 435.31054688 C175.31502521 444.79880305 166.01765991 453.5387044 155.375 461.3125 C154.22394983 462.17056152 153.07290823 463.02863451 151.921875 463.88671875 C143.73224019 469.92427396 135.22961724 475.30707302 126.375 480.3125 C125.66778809 480.7146875 124.96057617 481.116875 124.23193359 481.53125 C101.09654164 494.5566741 75.92537591 503.30551461 49.9375 508.625 C49.21860596 508.77235596 48.49971191 508.91971191 47.7590332 509.0715332 C33.08339502 511.86090125 18.55831162 512.66142619 3.64770508 512.62817383 C0.70811513 512.6250221 -2.2304558 512.64854926 -5.16992188 512.67382812 C-18.54306192 512.71848737 -31.43916711 511.51301542 -44.625 509.3125 C-46.33055054 509.03031616 -46.33055054 509.03031616 -48.07055664 508.74243164 C-91.33802759 500.97044532 -132.38793216 480.98345309 -165.625 452.3125 C-166.37007813 451.67828125 -167.11515625 451.0440625 -167.8828125 450.390625 C-181.38779833 438.57948485 -194.05918743 425.82889772 -204.625 411.3125 C-205.48149066 410.16255169 -206.33826433 409.01281411 -207.1953125 407.86328125 C-213.23534209 399.67315742 -218.61867614 391.16870382 -223.625 382.3125 C-224.0271875 381.60528809 -224.429375 380.89807617 -224.84375 380.16943359 C-237.8691741 357.03404164 -246.61801461 331.86287591 -251.9375 305.875 C-252.08485596 305.15610596 -252.23221191 304.43721191 -252.3840332 303.6965332 C-255.35789088 288.05024391 -255.99800362 272.57681954 -255.9375 256.6875 C-255.93534485 255.66959381 -255.9331897 254.65168762 -255.93096924 253.60293579 C-255.88129854 238.99386477 -255.63040191 224.66174147 -252.625 210.3125 C-252.42632324 209.33764648 -252.22764648 208.36279297 -252.02294922 207.35839844 C-241.90232806 158.9765226 -219.9858123 114.98821731 -185.625 79.3125 C-184.99287598 78.65314453 -184.36075195 77.99378906 -183.70947266 77.31445312 C-174.56502521 67.82619695 -165.26765991 59.0862956 -154.625 51.3125 C-153.47394983 50.45443848 -152.32290823 49.59636549 -151.171875 48.73828125 C-142.98224019 42.70072604 -134.47961724 37.31792698 -125.625 32.3125 C-124.91778809 31.9103125 -124.21057617 31.508125 -123.48193359 31.09375 C-100.34654164 18.0683259 -75.17537591 9.31948539 -49.1875 4 C-48.46860596 3.85264404 -47.74971191 3.70528809 -47.0090332 3.5534668 C-31.36274391 0.57960912 -15.88931954 -0.06050362 0 0 Z M-18.625 84.3125 C-20.45880644 88.5670844 -20.86495146 92.24623093 -20.86328125 96.84765625 C-20.87939453 98.06904297 -20.89550781 99.29042969 -20.91210938 100.54882812 C-20.92906204 103.10346469 -20.93423484 105.65820609 -20.92773438 108.21289062 C-21.07876069 117.43523967 -21.07876069 117.43523967 -23.578125 121.44921875 C-27.584475 123.89925586 -31.64921144 125.49251938 -36.0625 127.0625 C-55.77289503 134.52213193 -71.61201069 146.44947663 -80.9375 165.8125 C-84.4974497 173.96749347 -87.115667 182.38419213 -87.625 191.3125 C-87.68945312 192.39015625 -87.75390625 193.4678125 -87.8203125 194.578125 C-88.35139566 211.50197503 -84.01426278 227.77590882 -72.375 240.5 C-70.48952181 242.4726075 -68.56458611 244.39161514 -66.625 246.3125 C-65.85414063 247.10527344 -65.08328125 247.89804688 -64.2890625 248.71484375 C-50.30362128 262.29456398 -31.13361928 269.57226629 -13.40625 276.88671875 C-12.35123291 277.32242188 -11.29621582 277.758125 -10.20922852 278.20703125 C-8.17889796 279.04127988 -6.14571073 279.86862553 -4.10913086 280.6875 C8.48367645 285.8247039 21.68501349 291.48741119 27.5234375 304.57421875 C29.68253704 311.51701131 29.30645711 318.04685226 26.375 324.6875 C21.43112585 333.30475551 13.61261163 336.61992262 4.375 339.3125 C-19.28661966 345.4318844 -47.90655475 336.1297466 -68.92578125 325.4140625 C-71.88372746 324.20691224 -73.49155328 323.60709111 -76.625 324.3125 C-79.84117258 328.47066094 -81.5219988 332.41221736 -82.984375 337.43359375 C-83.17847961 338.09657974 -83.37258423 338.75956573 -83.5725708 339.44264221 C-83.97745599 340.83537476 -84.37719328 342.22961338 -84.77197266 343.62524414 C-85.37357598 345.74498249 -85.99607482 347.857766 -86.62109375 349.97070312 C-87.01428625 351.33296873 -87.40625464 352.69558837 -87.796875 354.05859375 C-88.1484668 355.28247803 -88.50005859 356.5063623 -88.86230469 357.76733398 C-89.91022032 362.63826319 -90.61278436 366.65748629 -88 371.03515625 C-72.92055961 385.49455386 -45.05018117 387.89773833 -25.625 391.3125 C-24.72985068 395.16963287 -24.47636579 398.79459861 -24.4140625 402.75 C-24.38570313 403.97460938 -24.35734375 405.19921875 -24.328125 406.4609375 C-24.27604464 409.02849931 -24.23177258 411.59623138 -24.1953125 414.1640625 C-24.164375 415.38867188 -24.1334375 416.61328125 -24.1015625 417.875 C-24.0718335 419.54755859 -24.0718335 419.54755859 -24.04150391 421.25390625 C-23.56805178 424.73069889 -22.81730456 426.57917479 -20.625 429.3125 C-15.00930717 432.46678835 -8.50103106 431.64158979 -2.25 431.625 C-1.0434375 431.64111328 0.163125 431.65722656 1.40625 431.67382812 C10.32813003 431.69803867 10.32813003 431.69803867 18.375 428.3125 C20.84334301 424.76794482 20.64319825 421.31806169 20.68359375 417.09765625 C20.70875069 415.67512606 20.73414876 414.25260011 20.75976562 412.83007812 C20.78849564 410.60067824 20.81253071 408.37135195 20.83129883 406.1418457 C20.85302045 403.98090238 20.89245632 401.82080465 20.93359375 399.66015625 C20.94704834 398.37117432 20.96050293 397.08219238 20.97436523 395.75415039 C21.39833686 392.11202489 22.17114275 390.20887366 24.375 387.3125 C26.51171875 386.1953125 26.51171875 386.1953125 29.0625 385.4375 C41.33722812 381.37302049 52.28444911 376.55141782 62.375 368.3125 C63.01695312 367.82136719 63.65890625 367.33023437 64.3203125 366.82421875 C78.57003211 355.48195314 87.20265112 337.93939709 90.375 320.3125 C91.99066444 298.86984722 87.80258483 279.10822315 74.4375 261.875 C73.10569974 260.33454245 71.75172359 258.81294445 70.375 257.3125 C69.71113281 256.55710937 69.04726563 255.80171875 68.36328125 255.0234375 C53.80373654 239.36048921 32.16304527 231.68147239 12.875 223.625 C-19.85220052 209.91047374 -19.85220052 209.91047374 -24.75 198.1875 C-26.30900363 191.28334107 -26.14810509 185.51265985 -22.625 179.3125 C-17.21908557 172.61286246 -9.29528624 170.00721142 -1.02734375 168.77734375 C18.93161 167.03917661 38.19758892 170.68537019 56.3515625 179.04296875 C60.24468648 180.72512959 60.24468648 180.72512959 64.375 181.3125 C68.62090744 178.55964533 70.14882417 176.29836247 71.54296875 171.48046875 C71.87876953 170.35189453 72.21457031 169.22332031 72.56054688 168.06054688 C72.89119141 166.88556641 73.22183594 165.71058594 73.5625 164.5 C73.90474609 163.33662109 74.24699219 162.17324219 74.59960938 160.97460938 C75.54225323 157.758638 76.46067971 154.53661154 77.375 151.3125 C77.77853947 149.94658316 78.18216128 148.58069063 78.5859375 147.21484375 C79.54935869 143.67117076 79.84858188 140.96584594 79.375 137.3125 C70.50325695 126.65649578 52.44548506 124.04573856 39.5 121.25 C38.67927002 121.07227051 37.85854004 120.89454102 37.01293945 120.71142578 C35.40649978 120.36795467 33.79827845 120.03269111 32.18823242 119.70654297 C26.59199517 118.52949517 26.59199517 118.52949517 24.375 116.3125 C22.7740206 109.83581062 23.06751019 102.91724998 22.9453125 96.27929688 C22.91155774 89.16400674 22.91155774 89.16400674 19.375 83.3125 C12.97794214 80.92532283 6.58045806 80.97815378 -0.1875 81 C-1.18974609 80.98388672 -2.19199219 80.96777344 -3.22460938 80.95117188 C-9.06263655 80.94732854 -13.63228363 81.12922447 -18.625 84.3125 Z " fill="#000000" transform="translate(255.625,-0.3125)"/>
</svg>
