<?xml version="1.0" encoding="UTF-8"?>
<svg version="1.1" xmlns="http://www.w3.org/2000/svg" width="512" height="512">
<path d="M0 0 C3.53937995 2.81098581 6.79967274 5.81098131 10 9 C10.84691406 9.81210937 10.84691406 9.81210937 11.7109375 10.640625 C26.5969508 26.23549607 27.50817591 50.37304921 30.33837891 70.55957031 C30.4414183 71.29057449 30.5444577 72.02157867 30.65061951 72.7747345 C30.93355766 74.79075377 31.21238296 76.80734902 31.4909668 78.82397461 C31.91387961 82.01182203 31.91387961 82.01182203 33 85 C33.41507813 84.63390625 33.83015625 84.2678125 34.2578125 83.890625 C37.57399546 80.97682408 40.90199109 78.07834752 44.26171875 75.21484375 C45.44531546 74.20573264 46.62890913 73.19661796 47.8125 72.1875 C48.41690918 71.6726001 49.02131836 71.1577002 49.64404297 70.62719727 C53.4252076 67.39175212 57.10686385 64.07742527 60.75 60.6875 C72.56790913 49.90624957 85.77667753 42.28320065 102 41 C102.65355469 40.94585937 103.30710937 40.89171875 103.98046875 40.8359375 C114.5247592 40.4007135 125.74326998 42.96654531 135 48 C135.78503906 48.39703125 136.57007813 48.7940625 137.37890625 49.203125 C151.44662854 56.86441977 161.44658599 69.64279432 165.97094727 84.92114258 C170.12404826 100.74968948 168.78542917 117.25709096 161.25 131.875 C157.3224369 138.4908951 152.53773618 144.65085545 147 150 C147.79116211 150.09442383 148.58232422 150.18884766 149.39746094 150.28613281 C154.01494965 151.20111906 158.2403415 152.77279047 162.640625 154.421875 C163.56284851 154.7637384 164.48507202 155.10560181 165.4352417 155.45782471 C167.38278914 156.1814534 169.32932446 156.9078112 171.27490234 157.63671875 C174.22325276 158.73999119 177.17576066 159.83151312 180.12890625 160.921875 C182.02890948 161.62950084 183.92865742 162.3378126 185.828125 163.046875 C187.13333099 163.52843048 187.13333099 163.52843048 188.46490479 164.01971436 C203.08913337 169.52880557 215.01851494 176.38973987 222 191 C230.67312622 210.94136108 222.23042003 230.09821271 215.1875 249.125 C214.37055967 251.36805831 213.55479584 253.61154547 212.74023438 255.85546875 C209.72653955 264.11621034 206.69823137 272.36528579 203.4230957 280.52685547 C203.03458939 281.49879852 202.64608307 282.47074158 202.24580383 283.47213745 C200.41997403 287.17693162 198.47268389 288.81069929 195 291 C188.68742075 293.10419308 183.85215522 292.10734292 177.71484375 289.98046875 C176.64226318 289.61203857 175.56968262 289.2436084 174.46459961 288.86401367 C173.65128174 288.57888916 172.83796387 288.29376465 172 288 C172.00276538 289.30534006 172.00276538 289.30534006 172.00558662 290.63705063 C172.04982383 311.84640698 172.08288484 333.05575533 172.10362434 354.26514816 C172.1139213 364.52199718 172.12795133 374.77881533 172.15087891 385.03564453 C172.17086126 393.97919748 172.18372792 402.92272807 172.18817699 411.86630273 C172.19077618 416.5984755 172.19685228 421.33058431 172.21146011 426.06273651 C172.22512069 430.52453496 172.22920564 434.98624361 172.22621536 439.44806099 C172.22676176 441.07815859 172.2306884 442.70825945 172.23841095 444.33833885 C172.31972802 462.40174903 170.43345406 477.20756396 157.421875 490.80859375 C147.17527043 500.08011821 136.35927526 502.45388719 122.89471436 502.39440918 C121.59354368 502.40050028 120.29237301 502.40659139 118.95177293 502.41286707 C115.36003758 502.42919894 111.7685227 502.42696255 108.1767633 502.4214921 C104.29521889 502.41881349 100.41373214 502.43336932 96.5322113 502.44558716 C88.93503617 502.46660905 81.33793742 502.47118385 73.74073663 502.46939927 C67.56256349 502.4680899 61.3844141 502.47190475 55.20624542 502.47932434 C53.42429869 502.48142362 51.64235195 502.48352122 49.86040521 502.48561716 C48.97337711 502.48666069 48.08634901 502.48770422 47.17244127 502.48877937 C30.40777531 502.50766901 13.64315313 502.50663559 -3.12151906 502.49981004 C-18.44113431 502.49423676 -33.76058223 502.5150531 -49.08015838 502.54817051 C-64.82724328 502.58194663 -80.57424811 502.59707088 -96.32136989 502.59245348 C-105.15534089 502.59021259 -113.98915727 502.59539597 -122.82309723 502.62034607 C-130.34489604 502.64141004 -137.86645546 502.64490095 -145.38826427 502.62604648 C-149.22190209 502.61691948 -153.05509419 502.61565129 -156.88869667 502.63640213 C-161.05506776 502.65870365 -165.22039875 502.64181949 -169.38677979 502.62145996 C-170.58398628 502.63397781 -171.78119277 502.64649566 -173.01467824 502.65939283 C-186.70267708 502.51658572 -197.15499459 497.47975213 -206.9296875 488.16015625 C-219.98109684 474.46457864 -219.29879217 456.79160313 -219.2746582 439.12597656 C-219.27901068 437.01751018 -219.28419561 434.90904537 -219.29014587 432.80058289 C-219.30348428 427.10051487 -219.30412068 421.40051335 -219.30158257 415.70043278 C-219.30051012 410.93616098 -219.30540285 406.17190248 -219.310188 401.40763354 C-219.32126367 390.17067127 -219.32173043 378.93374243 -219.31567383 367.69677734 C-219.30962444 356.10924834 -219.32197399 344.52184047 -219.3432439 332.93433213 C-219.36085378 322.9739906 -219.36686252 313.01368766 -219.36360615 303.05333114 C-219.3617934 297.1091925 -219.36442953 291.16514044 -219.37832069 285.22101593 C-219.39088564 279.63622547 -219.38896748 274.05162445 -219.37590981 268.46683693 C-219.37354221 266.41859435 -219.37628525 264.37033847 -219.38453293 262.32211113 C-219.39498564 259.52451817 -219.3869117 256.72756276 -219.3742218 253.92999268 C-219.38159609 253.121332 -219.38897037 252.31267132 -219.39656812 251.47950578 C-219.34158621 245.71100857 -218.41474338 240.74039579 -214.46484375 236.2578125 C-209.05852401 232.24801014 -205.88039131 231.84926622 -199.25558472 231.84178162 C-198.33916014 231.83684364 -197.42273556 231.83190566 -196.47854054 231.82681805 C-193.38917867 231.81138599 -190.29983767 231.80306702 -187.21044922 231.79467773 C-185.00328384 231.78510369 -182.79612031 231.7750939 -180.58895874 231.76467896 C-174.58101612 231.73757246 -168.5730656 231.71659406 -162.56509542 231.69667697 C-156.29233442 231.67485277 -150.01959794 231.64744668 -143.74685669 231.62062073 C-133.21324735 231.5763299 -122.67962895 231.53550283 -112.14599609 231.49731445 C-101.29507465 231.45796633 -90.44416442 231.41654175 -79.59326172 231.37231445 C-78.92470016 231.36959018 -78.25613859 231.36686591 -77.56731759 231.36405908 C-74.21342676 231.35037972 -70.85953609 231.33665942 -67.50564551 231.32291877 C-39.67045327 231.2090246 -11.83523745 231.10220181 16 231 C15.30060145 230.7482539 14.60120291 230.4965078 13.88061047 230.23713303 C7.13736564 227.80970599 0.39450655 225.38121135 -6.34796935 222.95164943 C-9.81048323 221.70401693 -13.2731218 220.45673346 -16.73609924 219.21038818 C-35.9176216 212.30645172 -55.06697858 205.32123522 -74.1875 198.25 C-76.68511483 197.32701217 -79.18276503 196.40412005 -81.68045044 195.48132324 C-82.79373781 195.06994865 -83.90702518 194.65857407 -85.05404854 194.23473358 C-99.00944472 189.08145343 -112.99631003 184.02034658 -127 179 C-144.45020136 172.73983015 -161.87933499 166.42377301 -179.28271484 160.03466797 C-181.82101635 159.1028864 -184.36008914 158.17325837 -186.89990234 157.24560547 C-190.43761554 155.95228334 -193.97300115 154.65279141 -197.5078125 153.3515625 C-198.55446075 152.97005035 -199.60110901 152.58853821 -200.67947388 152.19546509 C-217.67728813 145.91124069 -217.67728813 145.91124069 -221 139 C-222.32464587 132.59526895 -221.66187906 128.45098844 -219.4375 122.375 C-219.13521484 121.51326172 -218.83292969 120.65152344 -218.52148438 119.76367188 C-217.80183398 117.73083086 -217.07228156 115.70148112 -216.33544922 113.67480469 C-215.34874613 110.95965755 -214.37137226 108.24211948 -213.40283203 105.52050781 C-211.91938121 101.35377216 -210.42228571 97.19214719 -208.91629028 93.0335083 C-208.31278188 91.36483017 -207.71186433 89.69521238 -207.11373901 88.02459717 C-195.30468203 55.13774903 -195.30468203 55.13774903 -178.9375 46.5625 C-156.19748552 36.26244325 -135.83126266 45.83790213 -114 53.8125 C-112.33866061 54.41634296 -110.67720279 55.0198602 -109.015625 55.62304688 C-105.00904809 57.07829809 -101.00407657 58.53788401 -97 60 C-96.94739014 58.71544922 -96.89478027 57.43089844 -96.84057617 56.10742188 C-96.7625568 54.39451528 -96.68416801 52.68162549 -96.60546875 50.96875 C-96.55513489 49.70369629 -96.55513489 49.70369629 -96.50378418 48.41308594 C-95.73287195 32.22784227 -89.25895683 17.70620382 -78 6 C-71.65018599 0.57362221 -64.71418837 -3.79788407 -57 -7 C-55.86304688 -7.47953125 -55.86304688 -7.47953125 -54.703125 -7.96875 C-36.7445263 -14.14559286 -15.49647527 -10.39229499 0 0 Z M-58.4609375 31.01171875 C-65.03078734 39.49916436 -66.2399154 47.35544324 -65 58 C-62.93633338 66.32750175 -57.05765907 73.25131145 -49.96191406 77.90531921 C-45.78357554 80.23668886 -41.22142195 81.71351485 -36.73046875 83.328125 C-35.11535149 83.91892853 -35.11535149 83.91892853 -33.46760559 84.52166748 C-30.04356365 85.77189031 -26.6155676 87.01086408 -23.1875 88.25 C-20.86237745 89.09826583 -18.53750469 89.94721669 -16.21289062 90.796875 C-11.98213596 92.33889541 -7.75136379 93.88082391 -3.51635742 95.41113281 C-2.66619553 95.71883606 -1.81603363 96.02653931 -0.94010925 96.34356689 C0.81651601 97.05341669 0.81651601 97.05341669 2 97 C1.43582293 86.87353869 0.11211863 76.92453916 -1.41918945 66.90600586 C-1.813162 64.30813473 -2.18895534 61.70801923 -2.56445312 59.10742188 C-4.38933131 46.86012501 -6.24307458 35.57542273 -16 27 C-29.80538947 17.62539431 -46.94516814 18.26796451 -58.4609375 31.01171875 Z M-168 77 C-171.5729234 81.72755497 -173.51794329 86.51866179 -175.453125 92.046875 C-175.75820984 92.89928772 -176.06329468 93.75170044 -176.37762451 94.62994385 C-177.01667626 96.42038029 -177.6518075 98.21222042 -178.28320312 100.00537109 C-179.2528592 102.75811695 -180.23475197 105.50625837 -181.21875 108.25390625 C-181.83925618 109.99714167 -182.45907249 111.74062283 -183.078125 113.484375 C-183.37180969 114.3083075 -183.66549438 115.13223999 -183.96807861 115.98114014 C-185.45656428 119.89505041 -185.45656428 119.89505041 -186 124 C-171.90111267 129.61725956 -157.65055863 134.78422037 -143.36483765 139.90438843 C-136.63152715 142.31781778 -129.90161283 144.74069229 -123.171875 147.1640625 C-122.49357824 147.40825865 -121.81528149 147.6524548 -121.11643028 147.90405083 C-107.1201144 152.94413858 -93.14855697 158.05050622 -79.1875 163.1875 C-78.15615936 163.56685699 -77.12481873 163.94621399 -76.06222534 164.33706665 C-71.52021972 166.00828072 -66.97868705 167.68077749 -62.43823242 169.35620117 C-61.69390961 169.62943207 -60.94958679 169.90266296 -60.18270874 170.18417358 C-58.71077768 170.73433414 -57.24463029 171.30018983 -55.78433228 171.88052368 C-52.25690526 173.27138769 -49.84645162 174 -46 174 C-43.28734537 166.65181157 -40.58220296 159.30089014 -37.88232422 151.94799805 C-36.9630534 149.44551601 -36.04097772 146.94411874 -35.11767578 144.44311523 C-33.79266085 140.85305062 -32.47384695 137.26076138 -31.15625 133.66796875 C-30.74064819 132.54601608 -30.32504639 131.42406342 -29.89685059 130.26811218 C-29.5164563 129.22725967 -29.13606201 128.18640717 -28.74414062 127.11401367 C-28.40660767 126.19690109 -28.06907471 125.27978851 -27.72131348 124.33488464 C-26.85241749 121.92957075 -26.85241749 121.92957075 -27 119 C-51.35747994 109.97073452 -75.76007769 101.06800205 -100.19760418 92.25775719 C-122.71087153 84.14086397 -122.71087153 84.14086397 -133.06640625 80.2109375 C-134.47264391 79.68054997 -135.87889323 79.15019334 -137.28515625 78.61987305 C-139.69459704 77.71030004 -142.09417993 76.78306795 -144.4921875 75.84301758 C-152.89410274 72.66389666 -160.60703883 70.46668548 -168 77 Z M73.64453125 91.42773438 C70.00399672 94.90829292 66.17080962 98.1609652 62.32910156 101.41552734 C61.05575851 102.4944694 59.78340408 103.57457913 58.51196289 104.65576172 C57.23000674 105.74522377 55.9454063 106.83158331 54.65795898 107.91455078 C51.37411159 110.57577351 51.37411159 110.57577351 49 114 C61.55353662 118.74893215 74.12538672 123.44294494 86.75 128 C87.81404053 128.38534912 88.87808105 128.77069824 89.97436523 129.16772461 C90.96766846 129.52487549 91.96097168 129.88202637 92.984375 130.25 C93.85803711 130.56453125 94.73169922 130.8790625 95.63183594 131.203125 C104.05460669 134.03734394 111.52836612 133.86309555 119.68359375 130.1875 C128.00685489 125.92060053 132.87053859 120.32365352 136.375 111.5625 C138.08906917 101.79230572 137.09972111 93.05825124 131.421875 84.66796875 C125.27303011 77.20349263 118.27317067 74.23776696 109 72 C93.24731539 72 84.27008403 81.19364932 73.64453125 91.42773438 Z M3 130 C-1.32075776 139.9409625 -5.06579412 150.08035662 -8.78588867 160.25756836 C-9.82248213 163.08977341 -10.86713198 165.91892605 -11.91210938 168.74804688 C-12.57340545 170.55190422 -13.23423035 172.35593439 -13.89453125 174.16015625 C-14.20695267 175.00385269 -14.51937408 175.84754913 -14.84126282 176.71681213 C-15.12543564 177.49870407 -15.40960846 178.28059601 -15.70239258 179.08618164 C-16.07948112 180.1144381 -16.07948112 180.1144381 -16.46418762 181.16346741 C-17.14003782 183.16113917 -17.14003782 183.16113917 -17 186 C-12.87685942 187.50514646 -8.75119298 189.00324372 -4.625 190.5 C-3.449375 190.92925781 -2.27375 191.35851562 -1.0625 191.80078125 C0.05898437 192.20683594 1.18046875 192.61289063 2.3359375 193.03125 C3.37282715 193.40830078 4.4097168 193.78535156 5.47802734 194.17382812 C7.87446146 195.10377033 7.87446146 195.10377033 10 195 C11.88553549 189.90007911 13.76939595 184.79954341 15.65185547 179.69848633 C16.28944145 177.97143771 16.9274468 176.24454384 17.56591797 174.51782227 C21.80767057 163.04505045 25.96424137 151.54690977 30 140 C21.1362627 136.15914017 12.18845107 132.94984426 3 130 Z M59 151 C54.66785241 160.95554633 50.93305102 171.11607136 47.21411133 181.3125 C46.17644687 184.15528109 45.13239572 186.99566368 44.08789062 189.8359375 C43.42670203 191.6430897 42.76588088 193.4503764 42.10546875 195.2578125 C41.79304733 196.10667023 41.48062592 196.95552795 41.15873718 197.83010864 C40.87456436 198.61207611 40.59039154 199.39404358 40.29760742 200.19970703 C40.04621506 200.88743195 39.79482269 201.57515686 39.53581238 202.28372192 C38.9006636 204.01852557 38.9006636 204.01852557 39 206 C54.73685895 211.95076645 70.52222121 217.75412566 86.35040283 223.45718384 C92.61675168 225.71562198 98.88113538 227.97948103 105.14453125 230.24609375 C105.78809822 230.47898794 106.43166519 230.71188213 107.09473419 230.95183372 C122.4593874 236.5143046 137.79466451 242.15625308 153.125 247.8125 C153.75854778 248.04623825 154.39209557 248.2799765 155.04484177 248.52079773 C162.69760031 251.34438786 170.34936826 254.1706524 178 257 C180.38316621 253.42525069 181.74074256 249.67763384 183.22265625 245.67578125 C183.68097084 244.44543404 183.68097084 244.44543404 184.14854431 243.19023132 C184.79360128 241.45352996 185.43649737 239.71602468 186.07739258 237.9777832 C187.05361498 235.33653909 188.04305121 232.70050141 189.03320312 230.06445312 C189.65967563 228.3726998 190.28535213 226.68065146 190.91015625 224.98828125 C191.20495377 224.20777908 191.49975128 223.42727692 191.80348206 222.62312317 C193.77596828 217.21562947 195.79998039 211.37646896 194.43359375 205.609375 C194.10488281 204.99578125 193.77617187 204.3821875 193.4375 203.75 C192.97150391 202.81414062 192.97150391 202.81414062 192.49609375 201.859375 C187.79871654 196.02138139 180.356526 194.08303499 173.5546875 191.68359375 C172.41594681 191.27436172 171.27720612 190.8651297 170.10395813 190.4434967 C167.00708225 189.33189108 163.90780624 188.22731452 160.80743027 187.1255188 C157.56247331 185.97019049 154.32096406 184.80528114 151.0793457 183.640625 C147.0718049 182.2011968 143.0641344 180.76214786 139.05519104 179.32662964 C126.53326046 174.84189159 114.03439373 170.29541081 101.54278564 165.72683716 C98.26005125 164.52652787 94.97652188 163.32841492 91.69287109 162.13061523 C89.66364683 161.38940691 87.63450934 160.64796099 85.60546875 159.90625 C84.18488159 159.38726891 84.18488159 159.38726891 82.7355957 158.85780334 C76.55998461 156.5938193 70.42379715 154.25074217 64.3215332 151.79492188 C61.9359388 150.83802608 61.9359388 150.83802608 59 151 Z M-188 263 C-188.08737916 297.86717731 -188.08737916 297.86717731 -188.14648438 332.734375 C-188.16429713 346.94957723 -188.18525699 361.16472618 -188.22631836 375.37988281 C-188.25620661 385.73191456 -188.27557167 396.08390316 -188.28226548 406.43597686 C-188.28617869 411.91804653 -188.29538494 417.39999273 -188.31719017 422.88202286 C-188.33754616 428.04148443 -188.34383555 433.20077163 -188.33932304 438.36026955 C-188.34014864 440.25412633 -188.34611952 442.14798892 -188.35761642 444.04181099 C-188.37254664 446.62795192 -188.36895172 449.21343485 -188.36076355 451.79959106 C-188.36950207 452.54863083 -188.3782406 453.2976706 -188.38724393 454.06940854 C-188.33659228 459.98986072 -186.95024562 464.04975438 -182.75 468.25 C-150.74379018 488.61758807 -106.93726547 472 -69 472 C-69 403.03 -69 334.06 -69 263 C-108.27 263 -147.54 263 -188 263 Z M-38 263 C-38 331.97 -38 400.94 -38 472 C-28.43 472 -18.86 472 -9 472 C-9 403.03 -9 334.06 -9 263 C-18.57 263 -28.14 263 -38 263 Z M22 263 C22 331.97 22 400.94 22 472 C85.52669069 482.57503649 85.52669069 482.57503649 138 466.0625 C141.14190036 461.25146508 141.14370735 457.21082242 141.12025452 451.57159424 C141.12110894 450.82088646 141.12196337 450.07017868 141.12284368 449.29672217 C141.12449137 446.78014731 141.11898873 444.26363904 141.11352539 441.74707031 C141.11324334 439.94354758 141.1134016 438.14002474 141.1139679 436.33650208 C141.11425517 431.4381248 141.10836968 426.53977193 141.10139394 421.64140034 C141.09514882 416.5231215 141.09455568 411.40484212 141.09336853 406.28656006 C141.09025864 396.59333761 141.08204985 386.90012643 141.07201904 377.20690894 C141.0608473 366.17196115 141.05534477 355.13701283 141.05032361 344.10206079 C141.03986697 321.40136762 141.02227412 298.70068444 141 276 C138.33385142 274.9569928 135.66708763 273.9156014 133 272.875 C131.91332031 272.44960938 131.91332031 272.44960938 130.8046875 272.015625 C89.34005401 255.85144584 87.06525839 263 22 263 Z " fill="#000000" transform="translate(254,10)"/>
</svg>
