<?xml version="1.0" encoding="UTF-8"?>
<svg version="1.1" xmlns="http://www.w3.org/2000/svg" width="512" height="512">
<path d="M0 0 C5.06593517 3.10142236 7.91548974 6.45775732 10.2421875 11.88671875 C11.59166867 17.62424797 11.35380466 23.40544144 11.3046875 29.26171875 C11.30017578 30.28394531 11.29566406 31.30617187 11.29101562 32.359375 C11.2792905 34.86855069 11.26287926 37.37760365 11.2421875 39.88671875 C12.17675781 39.14808594 13.11132812 38.40945312 14.07421875 37.6484375 C34.97796727 21.39056667 58.40501152 9.10435497 84.2421875 2.88671875 C84.98105635 2.70788147 85.71992519 2.52904419 86.48118401 2.3447876 C107.1631412 -2.39128799 128.21271077 -1.70408922 149.29438901 -1.65058327 C154.62334537 -1.64030967 159.95227701 -1.64988796 165.28123474 -1.65612793 C174.22163926 -1.66336258 183.1619107 -1.65392685 192.10229492 -1.63476562 C202.37596789 -1.6129984 212.64932317 -1.6200643 222.92298847 -1.64207125 C231.81295755 -1.66033752 240.70283209 -1.66272939 249.59281391 -1.65231657 C254.87218125 -1.64614369 260.15140025 -1.64507185 265.43075752 -1.65846252 C308.17074174 -1.75200095 308.17074174 -1.75200095 326.2421875 2.88671875 C327.56172267 3.22236343 327.56172267 3.22236343 328.90791512 3.56478882 C358.27738215 11.17543495 384.29808303 26.04143541 406.2421875 46.88671875 C406.76925293 47.38123535 407.29631836 47.87575195 407.83935547 48.38525391 C432.30301355 71.46694215 449.22228323 101.2158607 457.2421875 133.88671875 C457.42102478 134.59226898 457.59986206 135.29781921 457.78411865 136.02474976 C462.71156432 156.34654728 461.83181781 177.28185469 461.77948952 198.03945541 C461.76922396 203.39911414 461.7787922 208.75874813 461.78503418 214.1184082 C461.79227172 223.1118672 461.78282601 232.10519398 461.76367188 241.09863281 C461.74191078 251.43420035 461.74896492 261.76945204 461.7709775 272.10501194 C461.7892434 281.04591569 461.79163562 289.98672545 461.78122282 298.92764187 C461.77504889 304.23832294 461.77398099 309.54885653 461.78736877 314.85952759 C461.88087328 357.84800662 461.88087328 357.84800662 457.2421875 375.88671875 C456.90654282 377.2057016 456.90654282 377.2057016 456.56411743 378.55133057 C448.85718658 408.29372183 433.75019507 434.32104628 412.60693359 456.45458984 C411.29270283 457.83370928 409.99558089 459.22907088 408.69921875 460.625 C386.6239993 483.70212049 357.07027233 499.22690062 326.2421875 506.88671875 C325.53325348 507.06724792 324.82431946 507.2477771 324.09390259 507.43377686 C303.78011542 512.36396807 282.83945661 511.47632992 262.08945084 511.42402077 C256.72979211 511.41375521 251.37015812 511.42332345 246.01049805 511.42956543 C237.01703905 511.43680297 228.02371227 511.42735726 219.03027344 511.40820312 C208.6947059 511.38644203 198.35945421 511.39349617 188.02389431 511.41550875 C179.08299056 511.43377465 170.1421808 511.43616687 161.20126438 511.42575407 C155.89058331 511.41958014 150.58004972 511.41851224 145.26937866 511.43190002 C102.41473708 511.52514002 102.41473708 511.52514002 84.2421875 506.88671875 C82.91365942 506.55226651 82.91365942 506.55226651 81.55829239 506.21105766 C60.53657883 500.85577931 40.83893182 491.55342033 23.2421875 478.88671875 C22.65888672 478.47550781 22.07558594 478.06429688 21.47460938 477.640625 C-16.8988755 450.31206808 -41.26349927 408.33941899 -49.3917141 362.37999535 C-51.26530094 350.92608348 -51.37606061 339.56861637 -51.359375 327.98828125 C-51.36717741 325.6885854 -51.37585243 323.38889237 -51.38534546 321.08920288 C-51.40010655 316.32109112 -51.39979992 311.55327616 -51.38916016 306.78515625 C-51.37747028 300.69134653 -51.4117493 294.59873287 -51.4578495 288.50512123 C-51.48733553 283.77805561 -51.48906826 279.05127993 -51.48283005 274.32413864 C-51.48385193 272.07635466 -51.49424172 269.82855348 -51.51445389 267.58086014 C-51.53922868 264.44715141 -51.5255877 261.31580189 -51.50244141 258.18212891 C-51.51772888 257.26879288 -51.53301636 256.35545685 -51.54876709 255.41444397 C-51.43672383 248.52490979 -49.20488688 244.11591681 -44.7578125 238.88671875 C-39.39050519 234.30214376 -34.16644809 234.1604151 -27.2109375 234.375 C-22.03022819 235.14272955 -18.33292433 237.06478957 -14.7578125 240.88671875 C-11.27543726 246.07293785 -10.17450483 249.92554379 -10.24365234 256.2109375 C-10.23652725 257.01382202 -10.22940216 257.81670654 -10.22206116 258.6439209 C-10.2028375 261.2876069 -10.21105905 263.93048623 -10.21875 266.57421875 C-10.20882384 268.4372675 -10.19687537 270.30030645 -10.18301392 272.16333008 C-10.15066832 277.07328432 -10.14026714 281.98301616 -10.13616943 286.89306641 C-10.12638325 295.62020607 -10.08582173 304.34725323 -10.03125 313.07421875 C-10.02278203 314.46962576 -10.02278203 314.46962576 -10.01414299 315.89322281 C-9.76489273 351.88815566 -4.96087621 386.83894392 18.2421875 415.88671875 C19.325 417.27310547 19.325 417.27310547 20.4296875 418.6875 C38.01504631 440.76078892 60.4957198 455.34815702 87.2421875 463.88671875 C87.91185547 464.10199219 88.58152344 464.31726563 89.27148438 464.5390625 C111.82550444 471.54569208 136.36421965 470.19233005 159.72161865 470.15536976 C164.01623768 470.15021396 168.31084928 470.15502723 172.60546875 470.15814209 C179.80991172 470.1617544 187.01431334 470.15705531 194.21875 470.14746094 C202.48204361 470.13658173 210.74523844 470.14010927 219.00852966 470.15111375 C226.17448252 470.16026546 233.34040609 470.16143384 240.50636292 470.15623641 C244.75507215 470.15315955 249.00373536 470.15258632 253.25244141 470.15930939 C303.18647504 470.22723507 344.44657192 464.01890638 381.9921875 428.57421875 C411.40249656 397.81687264 420.4041287 359.36275479 420.38745117 317.93139648 C420.39045426 316.4097231 420.39385937 314.88805046 420.39762878 313.36637878 C420.40635723 309.28326338 420.40880215 305.200169 420.40944457 301.11704516 C420.41016159 298.55119856 420.41230808 295.9853571 420.41494179 293.4195118 C420.42415912 284.42574863 420.42828133 275.43200016 420.42749023 266.43823242 C420.42689079 258.12340001 420.43742585 249.80863275 420.4532339 241.49381679 C420.46641464 234.29828673 420.47166975 227.10277769 420.47103482 219.90723568 C420.47078286 215.63494091 420.47346345 211.36270415 420.48421288 207.09042168 C420.73668653 170.01380574 420.73668653 170.01380574 413.2421875 133.88671875 C413.02046875 133.18998047 412.79875 132.49324219 412.5703125 131.77539062 C401.65936302 98.31303103 376.57456326 70.50923709 345.3671875 54.63671875 C334.04412642 49.09889245 322.46024065 45.12811727 310.1171875 42.57421875 C309.3550293 42.41469727 308.59287109 42.25517578 307.80761719 42.09082031 C295.11204158 39.6733778 282.06177489 39.73636567 269.18505859 39.74145508 C267.6405835 39.73845308 266.09610915 39.73504822 264.55163574 39.73127747 C260.40248188 39.72253845 256.25334871 39.72010365 252.10418653 39.71946168 C249.49866115 39.71874534 246.89314084 39.7166001 244.28761673 39.71396446 C235.16000288 39.70474404 226.03240351 39.70062536 216.90478516 39.70141602 C208.45758159 39.70201573 200.01044209 39.69147626 191.56325471 39.67567235 C184.25992138 39.66250574 176.95660876 39.65723592 169.65326369 39.65787143 C165.31394856 39.65812377 160.97469049 39.65542093 156.63538742 39.64469337 C113.3425058 39.54524504 73.80435967 43.00044582 39.2421875 71.88671875 C37.57733668 73.22231872 35.9109302 74.55598461 34.2421875 75.88671875 C35.37124512 75.89082764 36.50030273 75.89493652 37.66357422 75.89916992 C41.89465585 75.9211146 46.12482765 75.97556035 50.35546875 76.03930664 C52.17862153 76.06235392 54.00190494 76.07685089 55.82519531 76.08227539 C76.05619109 76.15429153 76.05619109 76.15429153 83.2421875 81.88671875 C88.45080605 87.45010389 89.60748182 92.63363022 89.51953125 100.03125 C88.96386884 105.752225 86.57460496 109.96623656 82.3046875 113.76171875 C76.77098561 117.60143026 72.27700588 118.18475942 65.6315918 118.17724609 C64.34767044 118.18732193 64.34767044 118.18732193 63.03781128 118.19760132 C60.2139502 118.21656666 57.39032702 118.22050489 54.56640625 118.22265625 C52.59731449 118.2290856 50.62822368 118.23581407 48.65913391 118.24282837 C44.53258043 118.25479777 40.40611063 118.25850958 36.27954102 118.25732422 C31.00368993 118.25712115 25.72837821 118.28441297 20.45265484 118.31886864 C16.38531553 118.3411576 12.31810556 118.34516113 8.25071144 118.34410477 C6.306335 118.34645811 4.36195484 118.35526654 2.41763878 118.3707695 C-0.3082974 118.39046821 -3.03307654 118.3845762 -5.7590332 118.37255859 C-6.5546315 118.38379761 -7.3502298 118.39503662 -8.16993713 118.40661621 C-14.68765855 118.33396839 -19.89735497 116.41065187 -24.81640625 112.0703125 C-25.27144531 111.49410156 -25.72648437 110.91789062 -26.1953125 110.32421875 C-26.66839844 109.74542969 -27.14148438 109.16664062 -27.62890625 108.5703125 C-30.37259804 104.47850918 -29.91947353 100.04105125 -29.93481445 95.31958008 C-29.94138565 94.44441742 -29.94795685 93.56925476 -29.95472717 92.66757202 C-29.97445531 89.7679638 -29.98612276 86.86840741 -29.99609375 83.96875 C-30.00016928 82.97752325 -30.0042448 81.9862965 -30.00844383 80.96503258 C-30.0293042 75.7168435 -30.04360512 70.46868055 -30.05297852 65.22045898 C-30.06403257 59.80782448 -30.09842115 54.39560225 -30.13815022 48.98311329 C-30.16433725 44.8145625 -30.1726723 40.64610955 -30.17625999 36.47748375 C-30.18112187 34.48285836 -30.19272445 32.48823723 -30.21129799 30.4936924 C-30.23572984 27.69574278 -30.23471682 24.89885443 -30.2277832 22.10083008 C-30.24059326 21.28338821 -30.25340332 20.46594635 -30.26660156 19.62373352 C-30.20710289 13.0057899 -28.32815968 7.76894907 -23.890625 2.79296875 C-16.70553115 -2.2393927 -8.24285361 -3.32749756 0 0 Z " fill="#000000" transform="translate(50.7578125,1.11328125)"/>
<path d="M0 0 C4.82820821 2.98165838 8.22326909 6.4909312 10.234375 11.89453125 C10.48843096 15.3762351 10.04937563 18.70894779 9.60595703 22.16333008 C9.38424023 24.2695068 9.16609747 26.37606198 8.95100403 28.48292542 C8.83216166 29.59862978 8.71331928 30.71433414 8.59087563 31.86384773 C1.61856612 92.0742931 1.61856612 92.0742931 22.87182617 146.26933289 C37.6019346 163.72976055 55.28720256 178.96702263 73.52531433 192.66795349 C74.66100514 193.52567368 74.66100514 193.52567368 75.81963921 194.40072155 C77.21853069 195.447204 78.62839735 196.47926698 80.05160713 197.49242878 C85.45619919 201.50874724 88.5440663 206.11813657 89.765625 212.80078125 C89.68158013 219.77650534 88.67475832 225.19965383 83.80859375 230.42578125 C79.29405031 234.43870875 74.91102441 236.1828576 68.921875 236.26953125 C68.03886719 236.29789063 67.15585937 236.32625 66.24609375 236.35546875 C57.9498971 235.08575253 52.61209398 229.84968466 46.95410156 224.1159668 C45.77692818 222.94689789 45.77692818 222.94689789 44.57597351 221.75421143 C41.99899479 219.18968272 39.43673813 216.61099592 36.875 214.03125 C35.08063368 212.23703875 33.28559971 210.44349499 31.4899292 208.65058899 C27.73477959 204.89682169 23.98646533 201.13641579 20.24365234 197.37036133 C15.92789198 193.0279863 11.59982644 188.69818451 7.26487565 184.374973 C3.07927816 180.20018625 -1.09769923 176.01686056 -5.27088165 171.82966042 C-7.04060734 170.05542711 -8.8124159 168.28326882 -10.58635712 166.51325035 C-13.06598844 164.03653748 -15.53567089 161.55030977 -18.00292969 159.0612793 C-19.09862022 157.97234123 -19.09862022 157.97234123 -20.21644592 156.86140442 C-28.56520757 148.39022472 -30.36468037 143.12137368 -30.31494141 131.12548828 C-30.32516327 129.85145142 -30.33538513 128.57741455 -30.34591675 127.26477051 C-30.37259278 123.785235 -30.37386594 120.30613534 -30.36879015 116.82651758 C-30.36664337 113.91417477 -30.37643623 111.00191883 -30.38600099 108.08959472 C-30.40815579 101.21444824 -30.40908662 94.33952033 -30.39697266 87.46435547 C-30.38489727 80.38917421 -30.40951088 73.31478885 -30.45211279 66.23974335 C-30.48742664 60.14943943 -30.49933473 54.05938789 -30.49283731 47.96898544 C-30.48922379 44.33843885 -30.49435921 40.70845993 -30.52226639 37.07800674 C-30.55225412 33.02560606 -30.53341421 28.97480885 -30.51025391 24.92236328 C-30.52554138 23.73142059 -30.54082886 22.54047791 -30.55657959 21.31344604 C-30.45954208 13.61522994 -28.95336283 8.67910738 -23.765625 2.89453125 C-17.29271618 -2.6344117 -7.84970384 -3.13766411 0 0 Z " fill="#000000" transform="translate(265.765625,119.10546875)"/>
</svg>
