<?xml version="1.0" encoding="UTF-8"?>
<svg version="1.1" xmlns="http://www.w3.org/2000/svg" width="512" height="512">
<path d="M0 0 C9.42811742 5.52367544 17.25230924 14.29081351 24.93365479 21.97398376 C26.2141894 23.24900335 26.2141894 23.24900335 27.5205934 24.54978091 C29.85972709 26.87988888 32.19668165 29.21215531 34.5326438 31.54544199 C37.06393984 34.07279374 39.59804586 36.59732575 42.13171387 39.12229919 C48.22961123 45.20056172 54.3227779 51.28355561 60.41532385 57.36718139 C62.71380024 59.66214233 65.01259139 61.95678783 67.31139906 64.25141693 C77.45814928 74.37972422 87.60355469 84.50937636 97.7449379 94.64305782 C100.21894643 97.11515684 102.69296041 99.58725041 105.16699219 102.05932617 C106.08922068 102.98082905 106.08922068 102.98082905 107.03008005 103.92094816 C117.00285841 113.88541558 126.98413413 123.84132587 136.96896318 133.79371648 C147.23958256 144.03124211 157.50263481 154.27630445 167.75831771 164.52879339 C173.50907471 170.27738898 179.26305541 176.0226733 185.02552032 181.75953484 C189.92870476 186.6409818 194.82496819 191.52924085 199.71244028 196.42642158 C202.20336359 198.9218788 204.69735312 201.41404518 207.20026398 203.89748383 C209.91922287 206.59547203 212.6223643 209.30897095 215.32427979 212.02403259 C216.10929878 212.79808235 216.89431778 213.5721321 217.70312524 214.36963791 C222.74968285 219.47548958 226.44850364 224.76343027 229.875 231.0625 C230.48085938 232.14402344 231.08671875 233.22554687 231.7109375 234.33984375 C235.38445322 246.0876977 235.25235466 263.07787046 229.875 274.25 C227.9296875 277.35546875 227.9296875 277.35546875 225.875 280.0625 C225.23820312 280.92488281 224.60140625 281.78726562 223.9453125 282.67578125 C215.9268606 292.51368108 205.21900849 297.990189 192.6875 299.8125 C189.80949885 300.00122139 187.01508862 300.08867814 184.13671875 300.078125 C183.33580811 300.07586914 182.53489746 300.07361328 181.7097168 300.07128906 C181.10426025 300.06838867 180.49880371 300.06548828 179.875 300.0625 C179.87776538 301.2427678 179.87776538 301.2427678 179.88058662 302.44687939 C179.92485213 321.63704731 179.95789852 340.82720497 179.97862434 360.01741314 C179.98891488 369.29784166 180.0029325 378.578236 180.02587891 387.85864258 C180.04588106 395.9521758 180.05873257 404.04568426 180.06317699 412.13924152 C180.06577286 416.42040597 180.07182744 420.70149958 180.08646011 424.98264122 C180.10015216 429.02174569 180.10419945 433.06075092 180.10121536 437.0998764 C180.10176037 438.57313643 180.10566801 440.04640019 180.11341095 441.51963997 C180.21188519 461.24299579 176.99225626 478.17214931 163.375 493.125 C148.38934243 507.45163248 131.39126952 508.52620657 111.7578125 508.4609375 C109.61074729 508.4629611 107.46368275 508.46587493 105.31661987 508.46963501 C100.8366638 508.47403913 96.35688812 508.46768526 91.87695312 508.45361328 C86.13696125 508.43646039 80.39738837 508.44641332 74.65741158 508.46433067 C70.23248124 508.47516727 65.80765045 508.47172378 61.38271713 508.4639473 C59.26562322 508.46194817 57.14852023 508.46439445 55.03143692 508.47138596 C52.07816797 508.47900511 49.12558139 508.46739222 46.17236328 508.45068359 C45.30059952 508.45675629 44.42883575 508.46282898 43.53065491 508.46908569 C38.81128645 508.41962352 35.71187377 508.11013315 31.875 505.0625 C28.18559622 500.86067902 26.7522059 498.56919823 26.73696899 493.0231781 C26.73151566 491.95642349 26.72606232 490.88966888 26.72044373 489.79058838 C26.7194014 488.6150238 26.71835907 487.43945923 26.71728516 486.22827148 C26.71220444 484.99397903 26.70712372 483.75968658 26.70188904 482.48799133 C26.69116457 479.79899596 26.68216942 477.11005268 26.67576981 474.42104912 C26.66508787 470.16314955 26.64483988 465.90532941 26.62265015 461.6474762 C26.56074095 449.53805199 26.50679909 437.4286313 26.47363281 425.3190918 C26.45524297 418.63404282 26.426248 411.94912588 26.3856281 405.26417404 C26.36462192 401.7287553 26.34911005 398.19350254 26.34682083 394.65801811 C26.34425915 390.70603781 26.31872156 386.7543813 26.29150391 382.80249023 C26.29451004 381.64109528 26.29751617 380.47970032 26.3006134 379.28311157 C26.20434481 369.85416459 24.66572248 361.07169076 17.875 354.0625 C12.55649138 350.13038913 7.71583622 348.94581368 1.22363281 348.90136719 C0.08855286 348.89175964 -1.0465271 348.8821521 -2.21600342 348.87225342 C-3.43894104 348.86800354 -4.66187866 348.86375366 -5.921875 348.859375 C-7.18461243 348.85367493 -8.44734985 348.84797485 -9.74835205 348.84210205 C-12.42146403 348.83265468 -15.09446384 348.82575661 -17.76757812 348.82226562 C-21.17469968 348.81679413 -24.58141895 348.79278728 -27.98841476 348.76429367 C-31.25787054 348.74106198 -34.52734828 348.73921042 -37.796875 348.734375 C-39.0117157 348.7220282 -40.2265564 348.7096814 -41.47821045 348.69696045 C-49.35096203 348.71754696 -54.98876566 349.5615211 -61.8125 353.6875 C-67.53257316 359.56216973 -70.24544741 366.28679959 -70.25630188 374.40048218 C-70.26031006 375.48273575 -70.26431824 376.56498932 -70.26844788 377.68003845 C-70.26791916 378.86247635 -70.26739044 380.04491425 -70.2668457 381.26318359 C-70.27032013 382.51234055 -70.27379456 383.7614975 -70.27737427 385.04850769 C-70.28472982 387.76312137 -70.29040368 390.47768614 -70.29366493 393.1923027 C-70.29958507 397.48734286 -70.31613466 401.78230059 -70.33500671 406.07730103 C-70.34134374 407.54891772 -70.34766937 409.02053447 -70.35398388 410.49215126 C-70.35714969 411.22904159 -70.3603155 411.96593192 -70.36357725 412.72515225 C-70.40562361 422.72170158 -70.43863154 432.71821185 -70.45092773 442.71484375 C-70.45931188 449.461798 -70.48181359 456.20854739 -70.5202834 462.95539916 C-70.54002884 466.52371766 -70.5524537 470.09173004 -70.54744911 473.66010666 C-70.54193328 477.64128124 -70.56722146 481.62193874 -70.5949707 485.60302734 C-70.58836929 486.78141678 -70.58176788 487.95980621 -70.57496643 489.17390442 C-70.64463749 495.25321099 -70.74212057 499.43742663 -75.125 504.0625 C-80.13210618 508.4770945 -84.24937656 508.63889004 -90.61181641 508.58007812 C-91.54926697 508.5870874 -92.48671753 508.59409668 -93.45257568 508.60131836 C-96.54420835 508.61888607 -99.63492086 508.60727392 -102.7265625 508.59375 C-104.88642552 508.59644662 -107.04628736 508.60033045 -109.20614624 508.60534668 C-113.73373977 508.61124124 -118.26101745 508.60268492 -122.78857422 508.58398438 C-128.56512652 508.56127716 -134.34093198 508.57426622 -140.11745644 508.59827423 C-144.58044954 508.61280335 -149.0432689 508.60809231 -153.50626755 508.59776306 C-155.63432276 508.59511113 -157.76239421 508.59831102 -159.89043045 508.60768127 C-181.19884678 508.68087649 -181.19884678 508.68087649 -191.125 504.0625 C-192.27355469 503.53269531 -193.42210937 503.00289063 -194.60546875 502.45703125 C-209.5797404 493.70583353 -218.16428813 481.62455797 -223.125 465.0625 C-224.44490925 457.32889806 -224.258544 449.56176879 -224.23852539 441.7421875 C-224.23824298 440.19422914 -224.2384023 438.64627066 -224.2389679 437.09831238 C-224.23925377 432.91502338 -224.23339096 428.73176329 -224.22639394 424.54848099 C-224.22012547 420.16961058 -224.21955384 415.79073944 -224.21836853 411.41186523 C-224.2152655 403.12833054 -224.20706599 394.84480911 -224.19701904 386.56128025 C-224.18582594 377.12717689 -224.1803394 367.69307289 -224.17532361 358.25896454 C-224.1648825 338.86013552 -224.14730301 319.46131883 -224.125 300.0625 C-224.80409424 300.06807419 -225.48318848 300.07364838 -226.18286133 300.07939148 C-227.0777124 300.08372696 -227.97256348 300.08806244 -228.89453125 300.0925293 C-229.77987549 300.09810349 -230.66521973 300.10367767 -231.57739258 300.10942078 C-245.02077952 299.86182605 -256.28364444 294.55929127 -265.8671875 285.44140625 C-275.73505626 275.04429193 -278.76265302 263.48558321 -278.59326172 249.42871094 C-277.97651791 232.36008395 -268.88438948 221.34585942 -257.14395142 209.69377136 C-256.27437502 208.81880943 -255.40479863 207.9438475 -254.50887144 207.04237157 C-252.12304842 204.64481885 -249.73080089 202.25404418 -247.33540869 199.86607563 C-244.74234618 197.27777927 -242.15797184 194.68083064 -239.57240295 192.08505249 C-234.51789039 187.0134158 -229.45530563 181.94991354 -224.38959838 176.88946082 C-220.27077752 172.77469351 -216.15472728 168.65717386 -212.04059982 164.537714 C-211.15982863 163.65582018 -211.15982863 163.65582018 -210.26126408 162.75611031 C-209.06816929 161.56148395 -207.87507789 160.3668542 -206.68198983 159.1722211 C-195.51494688 147.99147716 -184.3383722 136.82030004 -173.15873484 125.65215132 C-162.94264507 115.44599963 -152.7380499 105.22844386 -142.53889199 95.00537428 C-132.04841664 84.49049094 -121.55055196 73.98303906 -111.04454172 63.48367673 C-105.1533989 57.59602128 -99.26513252 51.70555905 -93.38451004 45.80739403 C-88.38061733 40.78875844 -83.36970598 35.77726027 -78.34974267 30.77469756 C-75.79155302 28.22500149 -73.23661319 25.67226761 -70.69035149 23.11065483 C-67.92441828 20.32825368 -65.14300836 17.56165395 -62.36001587 14.79631042 C-61.56582925 13.9925188 -60.77164264 13.18872718 -59.95338976 12.36057824 C-54.79675867 7.27080669 -49.48662767 3.51522138 -43.125 0.0625 C-42.04347656 -0.54335938 -40.96195313 -1.14921875 -39.84765625 -1.7734375 C-28.14480072 -5.43288236 -11.15043984 -5.32208148 0 0 Z M-42.91900635 39.47555542 C-43.78041662 40.33228572 -44.64182689 41.18901602 -45.52934051 42.07170784 C-47.90755426 44.44005338 -50.2788976 46.81491125 -52.64751005 49.19283605 C-55.20786377 51.75999237 -57.77685307 54.31848239 -60.34472656 56.87811279 C-65.3690554 61.88911562 -70.38525693 66.90817837 -75.39857271 71.93019687 C-79.47324832 76.0116523 -83.55084834 80.09016446 -87.63054657 84.16659927 C-88.21155783 84.74715084 -88.79256909 85.3277024 -89.39118676 85.92584644 C-90.57156213 87.10526262 -91.75194422 88.28467207 -92.93233296 89.46407486 C-103.99497103 100.51816255 -115.04840248 111.58141951 -126.0986993 122.6478423 C-135.57915411 132.14170351 -145.06745191 141.62766666 -154.56152344 151.10791016 C-165.59035641 162.12068722 -176.61430463 173.13831636 -187.63050628 184.16372979 C-188.80523673 185.33941587 -189.97997344 186.5150957 -191.15471649 187.6907692 C-191.7326926 188.26920813 -192.3106687 188.84764706 -192.90615924 189.44361445 C-196.97821612 193.51826091 -201.0537424 197.58941724 -205.13062286 201.65923691 C-210.09852454 206.61872344 -215.06104267 211.58352235 -220.01674441 216.55520068 C-222.54500226 219.09134046 -225.07559496 221.62502676 -227.61275482 224.15226364 C-230.36298316 226.89189802 -233.10149076 229.64305904 -235.83892822 232.39547729 C-236.642514 233.19237091 -237.44609978 233.98926452 -238.27403665 234.81030643 C-243.2980244 239.88790236 -247.5503133 244.48080627 -247.5625 252 C-247.38427437 257.15304535 -246.24558013 259.95647352 -243.125 264.0625 C-237.47185378 268.53790742 -233.44743164 269.17222568 -226.3828125 269.23828125 C-225.06925781 269.26212891 -223.75570312 269.28597656 -222.40234375 269.31054688 C-220.32655213 269.34560927 -218.25134438 269.3749913 -216.17529297 269.38842773 C-214.16091792 269.40398922 -212.14680117 269.44587111 -210.1328125 269.48828125 C-208.93285645 269.50286377 -207.73290039 269.51744629 -206.49658203 269.5324707 C-201.58150401 270.30514517 -198.46814315 272.27675133 -195.47681427 276.25381184 C-193.77617459 279.78726067 -193.74864067 282.35967688 -193.74645996 286.27812195 C-193.74192983 286.99404363 -193.7373997 287.70996531 -193.7327323 288.44758159 C-193.72112612 290.84113574 -193.73074799 293.23412911 -193.74023438 295.62768555 C-193.73612829 297.34616964 -193.7306672 299.06465095 -193.72395325 300.78312683 C-193.71222996 304.48212252 -193.70974341 308.180969 -193.71430969 311.87998009 C-193.72112223 317.73466468 -193.70524499 323.58915328 -193.68591309 329.44380188 C-193.64804861 341.87919067 -193.63526414 354.31456241 -193.625 366.75 C-193.61392155 380.15843962 -193.59849061 393.56678885 -193.55428743 406.97516662 C-193.53597588 412.78884574 -193.53202318 418.60230066 -193.53922272 424.41600168 C-193.54075021 428.04279353 -193.52992475 431.66947443 -193.51584435 435.29623604 C-193.51185914 436.97070776 -193.51293675 438.64520087 -193.51961708 440.319664 C-193.56230377 451.91564188 -193.53321572 462.56406994 -185.08203125 471.37109375 C-178.05947484 477.44048881 -170.33919676 478.19342936 -161.27172852 478.17602539 C-160.30459175 478.17624443 -160.30459175 478.17624443 -159.31791687 478.1764679 C-157.21321093 478.17577817 -155.10859649 478.16803042 -153.00390625 478.16015625 C-151.53417509 478.15828872 -150.06444331 478.1568664 -148.5947113 478.15586853 C-144.74620819 478.1520697 -140.89774344 478.14226221 -137.04925537 478.13116455 C-133.1142224 478.1208935 -129.17918317 478.11635876 -125.24414062 478.11132812 C-117.53774302 478.10063732 -109.83137691 478.08359292 -102.125 478.0625 C-102.12141747 477.21464794 -102.12141747 477.21464794 -102.11776257 476.34966755 C-102.05840663 462.54202459 -101.98254223 448.73455526 -101.88928509 434.92709827 C-101.84448187 428.24966943 -101.8053987 421.57230342 -101.77856445 414.89477539 C-101.75243758 408.44315506 -101.71196888 401.99176561 -101.66181374 395.54028893 C-101.64520837 393.08653333 -101.63365489 390.63273787 -101.62738609 388.1789341 C-101.56699435 366.7007758 -100.38395428 348.67746511 -84.69140625 332.34765625 C-71.63933459 320.72594861 -57.05486936 317.4200278 -39.9609375 317.56640625 C-38.55237758 317.56625062 -37.14381725 317.5647511 -35.73526001 317.56199646 C-32.80898689 317.56062563 -29.88321178 317.57294859 -26.95703125 317.59594727 C-23.24111713 317.62438148 -19.5260245 317.62156257 -15.81004906 317.60885715 C-12.91003625 317.60184307 -10.01020733 317.60975298 -7.11021805 317.62211418 C-5.08540133 317.62870457 -3.06055849 317.62452741 -1.03573608 317.62001038 C15.30260978 317.78510707 29.62696936 322.10381018 41.62109375 333.578125 C53.49566052 346.66690224 57.15621968 362.18111099 57.19384766 379.40893555 C57.20389328 380.4834346 57.2139389 381.55793365 57.22428894 382.66499329 C57.25489915 386.17639689 57.27209405 389.68772505 57.2890625 393.19921875 C57.30779199 395.64973083 57.32736671 398.10023658 57.3477478 400.55073547 C57.39888673 406.97032933 57.43860977 413.38994405 57.47589111 419.80963135 C57.51604552 426.37248825 57.56708551 432.93525971 57.6171875 439.49804688 C57.71373066 452.35280334 57.79857435 465.20760898 57.875 478.0625 C66.32488075 478.10901049 74.77470726 478.14446373 83.22468472 478.16612434 C87.14910366 478.17652469 91.07343449 478.19061468 94.99780273 478.21337891 C98.79090799 478.23524194 102.58392892 478.24709677 106.37709236 478.25225449 C107.81824125 478.25592624 109.25938596 478.2630957 110.70049858 478.27396011 C123.639773 478.367555 133.98379744 477.64742689 143.6875 468.375 C149.84634132 459.04875458 149.29734173 448.61820661 149.24389648 437.86621094 C149.24636802 436.14050051 149.25021 434.41479158 149.25531006 432.68908691 C149.26361146 428.99070968 149.26287196 425.29248662 149.25512505 421.59410858 C149.24349549 415.74432815 149.25574194 409.8947442 149.27174377 404.04498291 C149.3078517 389.52283895 149.31416483 375.00070043 149.31164551 360.47851562 C149.30993439 349.17565073 149.31703605 337.87294734 149.35162407 326.57012773 C149.36841312 320.75610505 149.36662882 314.94247672 149.35080135 309.12845564 C149.34500611 305.51385224 149.3557405 301.89943612 149.37104797 298.28486633 C149.37477475 296.61031942 149.37166453 294.93574106 149.36117744 293.26122284 C149.34780287 290.97313408 149.35901731 288.68641057 149.37620544 286.39837646 C149.37589152 284.4793281 149.37589152 284.4793281 149.37557125 282.52151108 C150.09952976 277.50742143 152.26521106 274.34329826 156.19970703 271.21289062 C159.51176914 269.78868578 162.07737176 269.67778266 165.6796875 269.65625 C166.98550781 269.63433594 168.29132813 269.61242187 169.63671875 269.58984375 C171.00780037 269.57905813 172.37889623 269.56995694 173.75 269.5625 C187.2289983 269.82887735 187.2289983 269.82887735 198.6875 263.625 C201.87173667 259.89489418 203.17242272 257.17615702 203.25 252.25 C203.27835937 251.43917969 203.30671875 250.62835938 203.3359375 249.79296875 C202.00887073 241.93178509 195.8711336 236.6325102 190.46194458 231.26849365 C189.60521428 230.40708338 188.74848398 229.54567311 187.86579216 228.65815949 C185.49744662 226.27994574 183.12258875 223.9086024 180.74466395 221.53998995 C178.17750763 218.97963623 175.61901761 216.41064693 173.05938721 213.84277344 C168.04838438 208.8184446 163.02932163 203.80224307 158.00730313 198.78892729 C153.9258477 194.71425168 149.84733554 190.63665166 145.77090073 186.55695343 C145.19034916 185.97594217 144.6097976 185.39493091 144.01165356 184.79631324 C142.83223738 183.61593787 141.65282793 182.43555578 140.47342514 181.25516704 C129.41933745 170.19252897 118.35608049 159.13909752 107.2896577 148.0888007 C97.79579649 138.60834589 88.30983334 129.12004809 78.82958984 119.62597656 C67.81681278 108.59714359 56.79918364 97.57319537 45.77377021 86.55699372 C44.59808413 85.38226327 43.4224043 84.20752656 42.2467308 83.03278351 C41.66829187 82.4548074 41.08985294 81.8768313 40.49388555 81.28134076 C36.41923909 77.20928388 32.34808276 73.1337576 28.27826309 69.05687714 C23.31877656 64.08897546 18.35397765 59.12645733 13.38229932 54.17075559 C10.84615954 51.64249774 8.31247324 49.11190504 5.78523636 46.57474518 C3.04560198 43.82451684 0.29444096 41.08600924 -2.45797729 38.34857178 C-3.25487091 37.544986 -4.05176452 36.74140022 -4.87280643 35.91346335 C-9.95040236 30.8894756 -14.54330627 26.6371867 -22.0625 26.625 C-23.25166016 26.59599609 -23.25166016 26.59599609 -24.46484375 26.56640625 C-32.28843874 28.02543204 -37.55118157 34.0625261 -42.91900635 39.47555542 Z " fill="#000000" transform="translate(279.125,2.9375)"/>
</svg>
