<?xml version="1.0" encoding="UTF-8"?>
<svg version="1.1" xmlns="http://www.w3.org/2000/svg" width="512" height="512">
<path d="M0 0 C0.77434387 -0.00974854 1.54868774 -0.01949707 2.34649658 -0.02954102 C19.2013114 -0.19805967 35.36344222 -0.06804087 51.77734375 4.23828125 C52.53160645 4.42551758 53.28586914 4.61275391 54.06298828 4.80566406 C95.90556982 15.3230744 133.96022924 43.22966131 156.21875 80.21875 C158.52055431 84.16572954 160.6825293 88.17812423 162.77734375 92.23828125 C163.2566333 93.16592285 163.2566333 93.16592285 163.74560547 94.11230469 C174.12268213 114.51928974 180.84184533 137.68175914 180.98046875 160.6640625 C180.98752838 161.44501282 180.99458801 162.22596313 181.00186157 163.03057861 C181.22843116 195.44330958 181.22843116 195.44330958 177.77734375 209.23828125 C177.58398438 210.04861816 177.390625 210.85895508 177.19140625 211.69384766 C166.44933445 255.74794611 139.12737787 293.01697815 111.35546875 327.98046875 C108.79406129 331.20630145 106.28136787 334.46780973 103.77734375 337.73828125 C98.00390847 345.26899804 92.13141337 352.72108092 86.25292969 360.16992188 C85.23126477 361.46459011 84.21001693 362.7595876 83.18920898 364.05493164 C82.22877217 365.27364787 81.2673931 366.49162231 80.30493164 367.70874023 C78.3649735 370.17111969 76.51742864 372.62815391 74.77734375 375.23828125 C78.99424019 376.53299551 83.20360162 377.5678134 87.5234375 378.46484375 C108.96899259 382.91984979 129.55802243 388.52844916 148.77734375 399.23828125 C149.71578125 399.73972656 150.65421875 400.24117188 151.62109375 400.7578125 C163.75439936 407.55471055 175.88578871 418.48526267 180.359375 431.99609375 C182.36116874 442.7346882 181.27626236 453.00445771 175.4921875 462.3046875 C174.02386678 464.39469276 172.45159274 466.3096679 170.77734375 468.23828125 C169.90916016 469.28242187 169.90916016 469.28242187 169.0234375 470.34765625 C139.45119085 502.98708308 80.99632811 509.70180568 39.77734375 512.23828125 C35.46447883 512.38378284 31.15495787 512.42431091 26.83984375 512.44140625 C25.64880035 512.44842056 24.45775696 512.45543488 23.23062134 512.46266174 C19.41282319 512.48005564 15.59518006 512.48651298 11.77734375 512.48828125 C9.82232941 512.48929337 9.82232941 512.48929337 7.82781982 512.49032593 C-10.72486595 512.47503941 -28.87173224 512.17454368 -47.22265625 509.23828125 C-48.36573242 509.0666748 -49.50880859 508.89506836 -50.68652344 508.71826172 C-86.68276998 503.24099766 -128.63590862 493.96886561 -152.72265625 464.17578125 C-159.17217294 454.69232032 -160.3397418 445.45473211 -159.22265625 434.23828125 C-157.57473613 427.2022178 -153.91169096 421.63970898 -149.22265625 416.23828125 C-148.35447266 415.19414063 -148.35447266 415.19414063 -147.46875 414.12890625 C-124.94224673 389.26599462 -85.5389355 381.93033456 -54.22265625 376.23828125 C-54.22265625 372.10060637 -55.90004413 370.95930993 -58.59765625 367.86328125 C-59.52938428 366.77648564 -60.45901274 365.68788712 -61.38671875 364.59765625 C-61.86270508 364.03884766 -62.33869141 363.48003906 -62.82910156 362.90429688 C-65.38479581 359.8489259 -67.78256062 356.67359197 -70.19775391 353.50708008 C-70.61847168 352.95560303 -71.03918945 352.40412598 -71.47265625 351.8359375 C-71.9109375 351.26117676 -72.34921875 350.68641602 -72.80078125 350.09423828 C-75.50499974 346.56445309 -78.2407223 343.0591279 -80.97265625 339.55078125 C-81.56457764 338.78942871 -82.15649902 338.02807617 -82.76635742 337.24365234 C-85.75966156 333.39483033 -88.75985598 329.55171926 -91.7734375 325.71875 C-124.26544583 284.31938755 -158.90048069 236.57296773 -159.4609375 181.69921875 C-159.47073135 180.90418442 -159.48052521 180.10915009 -159.49061584 179.2900238 C-159.65760511 162.22667173 -159.59940327 145.84800195 -155.22265625 129.23828125 C-155.02961914 128.43616211 -154.83658203 127.63404297 -154.63769531 126.80761719 C-148.45158993 101.30136 -135.39055424 77.94103666 -118.22265625 58.23828125 C-116.97742188 56.79195312 -116.97742188 56.79195312 -115.70703125 55.31640625 C-87.41826256 23.07549163 -43.27653528 0.4518864 0 0 Z M-97.22265625 66.23828125 C-126.80814333 96.32628191 -138.8393718 136.11448877 -138.59306335 177.4379425 C-138.26979352 203.29743116 -130.37570076 226.65542727 -118.22265625 249.23828125 C-117.87477051 249.89393066 -117.52688477 250.54958008 -117.16845703 251.22509766 C-102.14129988 279.41563182 -81.3020478 304.54507434 -61.56542969 329.53662109 C-59.27963485 332.43334655 -57.00154266 335.33612001 -54.72265625 338.23828125 C-51.96317888 341.75177048 -49.20267294 345.26442819 -46.4375 348.7734375 C-40.81952125 355.90573349 -35.23924869 363.06533402 -29.72314453 370.27685547 C-28.63372677 371.70093329 -27.54344364 373.12434924 -26.45263672 374.54736328 C-14.14412315 390.60942609 -2.08521984 406.84436573 9.77734375 423.23828125 C13.62951104 421.95422549 14.79139072 419.71050733 16.96484375 416.48828125 C21.42112376 410.06326426 26.08428507 403.8196696 30.83984375 397.61328125 C32.23438717 395.79167599 33.62891873 393.97006163 35.0234375 392.1484375 C35.67683105 391.29523926 36.33022461 390.44204102 37.00341797 389.56298828 C39.15714253 386.74055981 41.28296071 383.89907359 43.40234375 381.05078125 C48.80743904 373.82005605 54.37939684 366.71885386 59.93359375 359.60253906 C62.3566283 356.49545927 64.77357856 353.38367346 67.19067383 350.27197266 C71.87043764 344.24823374 76.55967385 338.23238453 81.27734375 332.23828125 C82.62585977 330.52291515 83.97398614 328.80724426 85.32177734 327.09130859 C86.34252546 325.79183221 87.36372303 324.4927088 88.38525391 323.19384766 C116.48773792 287.42336541 145.41754549 250.06940723 156.77734375 205.23828125 C156.95668457 204.54959961 157.13602539 203.86091797 157.32080078 203.15136719 C166.258756 167.09776829 158.71840735 125.55976094 139.86767578 93.99121094 C134.58863024 85.50407548 128.63180775 77.71065345 121.78515625 70.421875 C119.77734375 68.23828125 119.77734375 68.23828125 117.734375 65.66015625 C98.02179177 41.26534267 61.41584744 25.31966391 31.0390625 21.546875 C29.96269531 21.44503906 28.88632812 21.34320312 27.77734375 21.23828125 C27.14393066 21.1727002 26.51051758 21.10711914 25.85791016 21.03955078 C-20.31630464 16.47791904 -64.47527916 33.93418507 -97.22265625 66.23828125 Z M-130.22265625 427.23828125 C-135.87426119 433.11466594 -138.62265021 436.43639181 -138.4921875 444.71484375 C-138.08613867 448.51640235 -136.71985901 450.36649807 -134.22265625 453.23828125 C-133.7328125 453.84027344 -133.24296875 454.44226563 -132.73828125 455.0625 C-107.43384315 483.55798449 -52.53120769 488.64704019 -17.22265625 491.23828125 C33.94925603 494.08590306 109.23290283 494.89284338 150.46484375 458.55078125 C155.44062923 453.849996 159.85463168 449.66470532 160.21484375 442.61328125 C160.13662305 436.57290522 157.89254686 433.468781 153.77734375 429.23828125 C152.94203125 428.36236328 152.94203125 428.36236328 152.08984375 427.46875 C130.99823505 407.33171842 96.804709 400.95211385 69.11279297 396.61645508 C67.57655881 396.36769628 66.0457891 396.08190451 64.52392578 395.7565918 C62.17605626 395.2537316 62.17605626 395.2537316 58.77734375 395.23828125 C56.29012628 396.92036982 56.29012628 396.92036982 54.52734375 399.67578125 C53.398125 401.20332031 53.398125 401.20332031 52.24609375 402.76171875 C51.8490625 403.32342773 51.45203125 403.88513672 51.04296875 404.46386719 C49.72922621 406.30574234 48.37080949 408.10558273 46.99609375 409.90234375 C40.95106924 417.82153712 35.12146554 425.89395889 29.30639648 433.98266602 C17.08797134 450.94596577 17.08797134 450.94596577 13.640625 451.71484375 C9.97150757 451.92836054 7.01322096 452.09847252 3.9140625 449.94140625 C2.00741499 447.81178565 0.3994925 445.59301331 -1.22265625 443.23828125 C-1.93550781 442.25472656 -2.64835938 441.27117187 -3.3828125 440.2578125 C-5.05804559 437.94310311 -6.7116048 435.61442174 -8.35546875 433.27734375 C-12.13912038 427.91828319 -16.04871272 422.65227985 -19.95239258 417.38037109 C-22.82350881 413.50107964 -25.68042422 409.61400017 -28.4921875 405.69140625 C-28.99693604 404.99072021 -29.50168457 404.29003418 -30.02172852 403.56811523 C-30.96894643 402.25112691 -31.91108765 400.93046816 -32.84741211 399.60571289 C-33.92408119 398.11374233 -35.06703393 396.6699689 -36.22265625 395.23828125 C-65.71628895 395.23828125 -108.25655456 406.82220689 -130.22265625 427.23828125 Z " fill="#000000" transform="translate(245.22265625,-0.23828125)"/>
<path d="M0 0 C3.65455465 2.99795193 6.95094584 6.28367305 10.22998047 9.68359375 C10.89384766 10.31652344 11.55771484 10.94945313 12.24169922 11.6015625 C25.24492636 24.83855553 28.72894765 43.10859525 28.57763672 60.8984375 C28.10971253 80.62513628 20.27958088 96.13353468 6.22998047 109.68359375 C5.59705078 110.34746094 4.96412109 111.01132813 4.31201172 111.6953125 C-8.92498131 124.69853965 -27.19502103 128.18256093 -44.98486328 128.03125 C-64.71156206 127.56332581 -80.21996047 119.73319416 -93.77001953 105.68359375 C-94.43388672 105.05066406 -95.09775391 104.41773438 -95.78173828 103.765625 C-108.78496543 90.52863197 -112.26898671 72.25859225 -112.11767578 54.46875 C-111.64975159 34.74205122 -103.81961995 19.23365282 -89.77001953 5.68359375 C-89.13708984 5.01972656 -88.50416016 4.35585937 -87.85205078 3.671875 C-65.41851309 -18.36548542 -24.48371452 -18.20912948 0 0 Z M-62.77001953 12.68359375 C-63.62724609 13.11929688 -64.48447266 13.555 -65.36767578 14.00390625 C-75.16730389 19.4136557 -81.72401489 26.75580356 -86.77001953 36.68359375 C-87.18509766 37.46863281 -87.60017578 38.25367188 -88.02783203 39.0625 C-92.56958573 49.20998467 -92.70659994 63.30342801 -89.14501953 73.80859375 C-88.40658037 75.45846305 -87.61492202 77.08562601 -86.77001953 78.68359375 C-86.11646484 79.96943359 -86.11646484 79.96943359 -85.44970703 81.28125 C-78.52969917 93.81667407 -67.93572529 101.43091378 -54.47705078 105.9296875 C-41.44134721 109.56012154 -28.81017335 107.11004475 -17.03564453 100.734375 C-4.85743569 93.08657638 2.85608881 82.59890499 6.76269531 68.80224609 C9.05886669 58.39149624 8.13818007 46.10367869 3.22998047 36.68359375 C2.79427734 35.82507813 2.35857422 34.9665625 1.90966797 34.08203125 C-3.50626636 24.28599703 -10.84129097 17.73007534 -20.77001953 12.68359375 C-21.55505859 12.26851562 -22.34009766 11.8534375 -23.14892578 11.42578125 C-34.96821512 6.13577068 -51.37131121 6.6566905 -62.77001953 12.68359375 Z " fill="#000000" transform="translate(297.77001953125,112.31640625)"/>
<path d="M0 0 C31.75873982 10.91706681 58.12184274 35.4950805 72.9296875 65.41015625 C80.8119586 82.28233786 85.12447734 100.10444927 85.5 118.6875 C85.53085693 119.63294678 85.56171387 120.57839355 85.59350586 121.55249023 C85.59391544 126.09756313 85.48295685 128.32403047 82.78125 132.10546875 C79.0380433 134.65526545 76.78420839 134.71806601 72.37890625 134.48828125 C68.66229307 133.72542961 67.11309121 132.06739047 65 129 C63.8996483 125.02818258 63.72170733 120.94875935 63.40527344 116.85595703 C61.12690658 88.28441925 50.42229093 64.06968619 30 44 C29.23945313 43.24074219 28.47890625 42.48148438 27.6953125 41.69921875 C17.92434447 32.48301264 5.67606848 26.46347675 -6.421875 20.8828125 C-13.40141026 17.59682692 -13.40141026 17.59682692 -15 14 C-15.53198011 9.212179 -15.72509014 7.13597455 -13.125 3.0625 C-9.18552607 -0.76110705 -5.25487423 -0.8315559 0 0 Z " fill="#000000" transform="translate(301,47)"/>
<path d="M0 0 C3.125 1.875 3.125 1.875 5 5 C5.98876625 10.02622846 5.7769173 13.70513784 3.125 18.125 C-1.27686274 20.76611764 -4.99147509 21.01979818 -10 20 C-13.41421647 17.63095184 -14.64346607 16.02503506 -16 12.125 C-16 8.09693738 -14.89929459 5.52726138 -13 2 C-8.74070434 -0.83953044 -4.99617057 -0.73987876 0 0 Z " fill="#000000" transform="translate(262,40)"/>
</svg>
