<?xml version="1.0" encoding="UTF-8"?>
<svg version="1.1" xmlns="http://www.w3.org/2000/svg" width="512" height="512">
<path d="M0 0 C1.5518085 0.53948128 3.10432452 1.07693085 4.6574707 1.61254883 C8.03408641 2.78120922 11.40576065 3.96288321 14.77441406 5.15429688 C20.41053217 7.1458744 26.05977558 9.0984674 31.7109375 11.046875 C39.9639617 13.89520425 48.21248608 16.75612643 56.45703125 19.62890625 C64.86884191 22.5599068 73.28258886 25.48520931 81.69921875 28.40234375 C82.72496002 28.75787323 83.75070129 29.11340271 84.80752563 29.47970581 C86.86923819 30.19428691 88.93095489 30.90885605 90.99267578 31.62341309 C109.958512 38.19750225 128.91572867 44.79604418 147.86474609 51.41845703 C148.72061813 51.71741379 149.57649017 52.01637054 150.45829773 52.3243866 C152.03981827 52.87684005 153.62121871 53.42963753 155.20246887 53.98286438 C155.90675522 54.22884872 156.61104156 54.47483307 157.33666992 54.72827148 C157.9394426 54.93902817 158.54221527 55.14978485 159.16325378 55.3669281 C159.83125504 55.59646683 160.49925629 55.82600555 161.1875 56.0625 C162.06951364 56.40151903 162.95152727 56.74053806 163.86026859 57.0898304 C167.54969421 58.16838241 170.60605224 58.31582117 174.44744873 58.32078552 C175.15605773 58.32446123 175.86466673 58.32813693 176.59474874 58.33192402 C178.95744585 58.34186453 181.31990578 58.33776111 183.68261719 58.33374023 C185.38154347 58.33812965 187.0804676 58.34343259 188.77938843 58.34957886 C192.4330451 58.36106459 196.08664388 58.36653724 199.7403183 58.36746025 C205.52364858 58.36940431 211.30685959 58.38747676 217.09014893 58.40821838 C231.45699793 58.45736419 245.82387933 58.48826419 260.1907959 58.50952148 C271.35355516 58.52606424 282.51621207 58.54893787 293.67890286 58.59254223 C299.42148274 58.61426291 305.16386793 58.6223816 310.90648603 58.62014949 C314.48849188 58.62182263 318.07037188 58.63591061 321.65233231 58.65336227 C323.30583654 58.65893604 324.95936715 58.65947088 326.61287308 58.65442467 C339.82520906 58.61834913 351.16788355 59.77728066 361.3203125 69 C369.87172945 77.83541235 371.80776166 87.54184609 371.68359375 99.5546875 C371.68504898 100.70365509 371.68650421 101.85262268 371.68800354 103.03640747 C371.68635476 105.44487059 371.67490935 107.85334538 371.65405273 110.26171875 C371.62491409 113.94836901 371.63350297 117.63359473 371.64648438 121.3203125 C371.64025144 123.66927781 371.631864 126.01823861 371.62109375 128.3671875 C371.62402939 129.46618378 371.62696503 130.56518005 371.62998962 131.69747925 C371.61730545 132.72269684 371.60462128 133.74791443 371.59155273 134.80419922 C371.58344826 136.15008621 371.58344826 136.15008621 371.57518005 137.52316284 C371.09882303 140.64334164 370.03356634 142.51898539 368.1875 145.0625 C365.33203125 146.765625 365.33203125 146.765625 362 148.3125 C351.03776594 153.98262107 346.02499052 161.48788285 342.1875 173.0625 C338.17568481 185.85409921 339.82566171 199.37495506 345.5 211.4375 C350.0279679 219.64609678 354.91317771 223.89581017 363.24975586 228.22314453 C366.81456037 230.10140096 369.18360228 231.54949441 371.1875 235.0625 C371.57518005 238.31678772 371.57518005 238.31678772 371.59155273 242.22680664 C371.60184761 243.29845566 371.60184761 243.29845566 371.61235046 244.39175415 C371.63063876 246.75225767 371.62677504 249.11209708 371.62109375 251.47265625 C371.62565776 253.1221081 371.63096399 254.77155805 371.63697815 256.42100525 C371.6459156 259.88190417 371.64348273 263.34257249 371.63354492 266.8034668 C371.62211129 271.21259787 371.64217635 275.62092134 371.67146206 280.02994633 C371.68993044 283.44033274 371.68950962 286.85052996 371.68382454 290.2609539 C371.68367231 291.88465945 371.68963404 293.50837864 371.70211601 295.13203621 C371.79025135 308.48778434 370.30753819 318.94263291 360.68359375 328.8984375 C355.76602044 333.16187352 350.72114968 335.74587236 344.25097656 336.55444336 C341.64782074 337.20781942 340.52299749 337.58056212 338.97364807 339.80618286 C337.9849013 342.21830732 337.22990733 344.62052571 336.51953125 347.12890625 C336.23196457 348.03696518 335.94439789 348.94502411 335.64811707 349.88059998 C334.73366154 352.78664438 333.86516853 355.70394255 333 358.625 C332.11620797 361.51791533 331.22289104 364.40748642 330.31974792 367.29441833 C329.76118981 369.08911687 329.21487726 370.88769162 328.68330383 372.69056702 C325.57556803 382.88781548 321.09703543 390.9242042 312.1875 397.0625 C302.75479803 402.0829036 293.14638296 402.42396132 283.01014709 399.44763184 C279.0260294 398.19583762 275.07522281 396.85431047 271.125 395.5 C269.33570735 394.90124725 267.54598234 394.30378524 265.75585938 393.70751953 C252.16556703 389.15951061 238.64114475 384.41575067 225.12451172 379.65405273 C202.42912311 371.67627899 179.60963892 364.05926597 156.80821323 356.39130211 C153.39400711 355.24298427 149.9800611 354.09389406 146.56611443 352.94480515 C144.22854761 352.15851642 141.89049226 351.37369498 139.55238342 350.58901978 C138.45247873 350.21779196 138.45247873 350.21779196 137.33035374 349.8390646 C135.84790095 349.34195094 134.36307258 348.85186981 132.87604427 348.36861515 C129.14747579 347.14181761 125.56934335 345.8166439 122.01025391 344.15766907 C105.38162411 336.77211371 87.37070274 338.0992549 69.55520391 338.21667647 C64.7913216 338.24003388 60.02759498 338.2216815 55.26370239 338.20759583 C46.26277356 338.18679454 37.26225029 338.19945572 28.26134884 338.22606784 C12.12681519 338.27243646 -4.00775431 338.25634222 -20.14232051 338.2350176 C-25.79294574 338.22882 -31.44335628 338.23577762 -37.09395337 338.25423563 C-40.60925227 338.26427406 -44.12452924 338.26646806 -47.63984108 338.26706314 C-49.26112396 338.2691606 -50.88240687 338.27470683 -52.50366402 338.2840786 C-66.54018292 338.36292313 -78.11668324 337.76879278 -89.078125 328.0546875 C-98.92787034 317.87661731 -99.42163437 306.20205846 -99.34375 292.7578125 C-99.3464502 291.10399142 -99.350337 289.4501719 -99.35534668 287.7963562 C-99.36120707 284.35203748 -99.35278505 280.9081369 -99.33398438 277.46386719 C-99.31108822 273.0554371 -99.32440627 268.64797559 -99.34827423 264.23958015 C-99.36273456 260.83371688 -99.35812709 257.4280832 -99.34776306 254.02221298 C-99.34510199 252.39634968 -99.34834371 250.77046529 -99.35768127 249.14462662 C-99.36786336 246.87596584 -99.35233019 244.60887597 -99.33007812 242.34033203 C-99.32689575 241.0522464 -99.32371338 239.76416077 -99.32043457 238.43704224 C-98.72474608 234.47949317 -97.61792373 232.86422799 -94.8125 230.0625 C-91.82421875 228.359375 -91.82421875 228.359375 -88.5 226.8125 C-82.14897555 223.53018803 -78.49406405 220.14185504 -74.8125 214.0625 C-74.41675781 213.43730469 -74.02101563 212.81210937 -73.61328125 212.16796875 C-67.46754396 201.31583041 -66.31793309 188.13134832 -68.9375 176.125 C-71.57767844 166.62529252 -75.59913687 156.97495644 -83.8125 151.0625 C-87.17813995 149.170334 -90.54157614 147.41522393 -94.01953125 145.73828125 C-97.05148873 143.91910676 -97.59548593 143.26057947 -98.8125 140.0625 C-99.07992554 137.64341736 -99.07992554 137.64341736 -99.10302734 134.91772461 C-99.11578705 133.89243149 -99.12854675 132.86713837 -99.14169312 131.81077576 C-99.14391876 130.70661819 -99.14614441 129.60246063 -99.1484375 128.46484375 C-99.1550943 127.32020157 -99.1617511 126.17555939 -99.16860962 124.99623108 C-99.1787371 122.57115281 -99.18342661 120.14604666 -99.18310547 117.72094727 C-99.18745501 114.03809574 -99.22371016 110.35646576 -99.26171875 106.67382812 C-99.26759182 104.31250407 -99.27155793 101.95117436 -99.2734375 99.58984375 C-99.28780853 98.4998558 -99.30217957 97.40986786 -99.31698608 96.28684998 C-99.25031752 84.93906377 -96.16878489 76.39460425 -88.23828125 68.23046875 C-81.88782793 62.55494283 -76.26483665 60.46499222 -67.8125 60.0625 C-67.66409668 59.47364014 -67.51569336 58.88478027 -67.36279297 58.27807617 C-65.18710458 49.96489369 -62.50633064 41.84731142 -59.73388672 33.71850586 C-58.93652962 31.3721445 -58.15379466 29.02120632 -57.37109375 26.66992188 C-53.29665245 14.59797115 -49.05342806 4.51062976 -37.56640625 -2.26171875 C-25.00568771 -8.13988753 -12.3392405 -4.4358758 0 0 Z M-31.8125 22.0625 C-33.22963199 24.65704022 -34.1352844 27.32284312 -35.0234375 30.13671875 C-35.28130035 30.90176224 -35.53916321 31.66680573 -35.80484009 32.45503235 C-36.61731114 34.88106441 -37.40227497 37.31503115 -38.1875 39.75 C-38.73657234 41.39705505 -39.2873374 43.04354684 -39.83984375 44.68945312 C-42.57799647 51.74921568 -42.57799647 51.74921568 -43.8125 59.0625 C3.0475 59.0625 49.9075 59.0625 98.1875 59.0625 C95.43087629 57.22475086 93.30514005 56.29729773 90.20507812 55.23754883 C89.18138123 54.88517151 88.15768433 54.53279419 87.10296631 54.16973877 C85.98617493 53.79017029 84.86938354 53.41060181 83.71875 53.01953125 C82.55120178 52.6187738 81.38365356 52.21801636 80.1807251 51.80511475 C77.66289306 50.94136811 75.14459813 50.07915082 72.62536621 49.21951294 C68.6748382 47.87136183 64.7263427 46.51733401 60.77832031 45.16186523 C60.12129246 44.93630479 59.4642646 44.71074434 58.78732681 44.47834873 C57.45713766 44.02168346 56.126954 43.5650022 54.79677582 43.10830498 C52.79102676 42.4198677 50.78509195 41.73197405 48.77911377 41.04420471 C36.81863361 36.94245337 24.87453338 32.79445837 12.9375 28.625 C11.21419342 28.02384235 9.49088615 27.42268669 7.76757812 26.8215332 C6.95434082 26.53743088 6.14110352 26.25332855 5.30322266 25.96061707 C3.7459338 25.41671749 2.18832903 24.87372139 0.63037109 24.33174133 C-2.88372505 23.10556102 -6.38558303 21.8570311 -9.86914062 20.54638672 C-11.10341797 20.08635254 -12.33769531 19.62631836 -13.609375 19.15234375 C-15.20023926 18.54507446 -15.20023926 18.54507446 -16.82324219 17.92553711 C-23.28650838 16.05950918 -27.42238293 16.72526312 -31.8125 22.0625 Z M-74.7151947 86.47763062 C-78.56978871 92.04493084 -77.32018404 101.01440227 -77.43725586 107.56689453 C-77.47893446 109.39069828 -77.54032351 111.21416272 -77.62182617 113.03662109 C-78.49566658 123.49539399 -78.49566658 123.49539399 -74.68261719 132.73217773 C-72.12721729 134.50493355 -69.62916958 135.76202455 -66.8125 137.0625 C-54.48670476 146.90164003 -47.82804343 162.72197499 -45.8125 178.0625 C-44.44672661 198.31476537 -47.73098143 216.91473897 -60.95703125 233.03125 C-64.74614939 237.17933722 -68.65921646 241.17695639 -73.89770508 243.33129883 C-77.34282537 246.55942185 -77.29053719 247.37690941 -77.55712891 251.92919922 C-77.58326755 254.40839817 -77.57493431 256.88811027 -77.5390625 259.3671875 C-77.54005951 260.67906036 -77.54105652 261.99093323 -77.54208374 263.34255981 C-77.54190447 266.11865289 -77.52109491 268.89358216 -77.48486328 271.66943359 C-77.43957312 275.21607944 -77.43838473 278.76101951 -77.45189857 282.30787468 C-77.46021822 285.70283751 -77.43620855 289.09728319 -77.4140625 292.4921875 C-77.41588531 293.76109833 -77.41770813 295.03000916 -77.41958618 296.33737183 C-77.33862564 305.02841697 -77.33862564 305.02841697 -72.8125 312.0625 C-69.38836913 315.27636875 -66.93205105 315.42959667 -62.29980469 315.40307617 C-61.65548492 315.40351425 -61.01116516 315.40395233 -60.34732056 315.40440369 C-58.22602619 315.40232024 -56.10553062 315.37901181 -53.984375 315.35546875 C-52.51036002 315.34987118 -51.03633945 315.34560184 -49.56231689 315.34260559 C-45.68896994 315.33116941 -41.81596224 315.30171314 -37.94274902 315.26849365 C-33.98792103 315.23776611 -30.03303804 315.22409454 -26.078125 315.20898438 C-18.32276226 315.17684196 -10.56767873 315.12566085 -2.8125 315.0625 C-2.77511719 314.10988281 -2.73773438 313.15726563 -2.69921875 312.17578125 C-2.63347656 310.92152344 -2.56773438 309.66726563 -2.5 308.375 C-2.44199219 307.13363281 -2.38398437 305.89226562 -2.32421875 304.61328125 C-1.79925756 300.97061165 -0.99192458 298.98919461 1.1875 296.0625 C4.31804369 294.26584014 7.65984106 293.74745749 11.1953125 294.4765625 C13.76396465 295.45458487 15.75367892 296.4381494 17.34375 298.7265625 C18.49919766 301.92544074 18.62419113 304.92294042 18.8125 308.3125 C18.92464844 310.20742188 18.92464844 310.20742188 19.0390625 312.140625 C19.08804688 313.10484375 19.13703125 314.0690625 19.1875 315.0625 C60.10623065 315.17690509 101.02494047 315.26502839 141.94379906 315.31782665 C146.77291708 315.3240803 151.60203479 315.3305519 156.43115234 315.3371582 C157.39255644 315.33846976 158.35396053 315.33978131 159.34449808 315.3411326 C174.91835586 315.36289848 190.49212151 315.40232652 206.0659246 315.44826398 C222.04206314 315.49499572 238.01815338 315.52278845 253.99435747 315.53294247 C263.85526288 315.53980845 273.71590789 315.56150605 283.57673316 315.60208233 C290.33557264 315.62848019 297.0942772 315.63650771 303.85316451 315.63000689 C307.7547499 315.62679935 311.65587977 315.63177004 315.55738449 315.65852737 C319.12925706 315.6828454 322.70036748 315.68409793 326.27227502 315.66699447 C328.17665269 315.66387885 330.08102129 315.6854574 331.98526919 315.70790654 C338.93765503 315.76495512 338.93765503 315.76495512 344.91231155 312.64672089 C348.62719161 308.42725913 349.43198093 305.85437076 349.60498047 300.2434082 C349.66285233 298.48556755 349.66285233 298.48556755 349.72189331 296.69221497 C349.83773392 291.33500303 349.93651161 285.97842921 349.99755859 280.62036133 C350.0331312 277.79721237 350.10264015 274.97808303 350.20263672 272.15649414 C350.34692895 268.07895376 350.39156561 264.00571797 350.4296875 259.92578125 C350.51317947 258.04564079 350.51317947 258.04564079 350.59835815 256.1275177 C350.57278243 250.65354703 350.46721844 247.39217692 346.56793213 243.34066772 C344.49325717 241.69884555 342.39931845 240.34348636 340.14724731 238.9283905 C328.15057963 231.3654245 322.82519456 217.10602633 319.1875 204.0625 C315.04708942 184.8279344 318.88344323 164.66686761 329.1875 148.0625 C334.46823781 141.02473425 341.22078239 134.0458588 349.1875 130.0625 C349.26178762 124.59988362 349.31616714 119.13756284 349.35229492 113.67456055 C349.36735946 111.81708655 349.38781509 109.95964799 349.41381836 108.10229492 C349.45030459 105.42878461 349.4672497 102.75574556 349.48046875 100.08203125 C349.49595261 99.25476028 349.51143646 98.42748932 349.52738953 97.57514954 C349.52874762 92.89759738 349.26971915 89.81828616 346.1875 86.0625 C342.59034559 82.70973898 340.46109579 81.56265777 335.54346752 81.57030869 C333.84605459 81.55836239 333.84605459 81.55836239 332.1143505 81.54617476 C330.25686878 81.56365181 330.25686878 81.56365181 328.36186218 81.58148193 C327.0426862 81.57806423 325.72351021 81.57464653 324.3643592 81.57112527 C320.70417333 81.56217913 317.04445544 81.5781835 313.3843292 81.59823751 C309.43686844 81.61550354 305.4894343 81.60966642 301.54194641 81.60662842 C294.7031548 81.60453051 287.86451579 81.61708567 281.02576256 81.63957977 C271.13808688 81.67208126 261.25048502 81.68250489 251.36276171 81.68753174 C235.32081949 81.6962873 219.2789586 81.72290996 203.23706055 81.76074219 C187.65340583 81.79745552 172.06977321 81.8257706 156.48608398 81.84277344 C155.04533555 81.84434978 155.04533555 81.84434978 153.57548108 81.84595796 C148.75696345 81.8511781 143.93844566 81.85623293 139.11992776 81.86120558 C99.14239489 81.90267574 59.16495281 81.97313128 19.1875 82.0625 C19.15011719 82.94292969 19.11273438 83.82335937 19.07421875 84.73046875 C19.00847656 85.89191406 18.94273437 87.05335938 18.875 88.25 C18.81699219 89.39855469 18.75898438 90.54710937 18.69921875 91.73046875 C18.15985751 95.24249272 17.2880277 97.22549098 15.1875 100.0625 C11.49873973 101.90688013 7.21419687 101.55038734 3.1875 101.0625 C0.61112529 99.17734777 -0.40917428 97.86915143 -1.8125 95.0625 C-2.04200319 92.858136 -2.22325933 90.64857827 -2.375 88.4375 C-2.45878906 87.24898438 -2.54257813 86.06046875 -2.62890625 84.8359375 C-2.68949219 83.92070312 -2.75007813 83.00546875 -2.8125 82.0625 C-11.2968093 81.92316694 -19.78063664 81.81671264 -28.26580906 81.75162697 C-32.20634581 81.7203806 -36.14609698 81.67803402 -40.08618164 81.60986328 C-43.89231463 81.54442609 -47.69769454 81.50874364 -51.50434685 81.49323654 C-52.952838 81.48219331 -54.40129026 81.46062739 -55.84945869 81.42811966 C-66.23142588 81.08856604 -66.23142588 81.08856604 -74.7151947 86.47763062 Z M176.1875 338.0625 C179.45491385 340.2407759 182.71406905 341.42574814 186.390625 342.6953125 C187.14831177 342.96052704 187.90599854 343.22574158 188.68664551 343.49899292 C191.26845921 344.40044355 193.85271516 345.29460622 196.4375 346.1875 C197.33601685 346.49864746 198.23453369 346.80979492 199.16027832 347.13037109 C204.33249429 348.92055529 209.50725112 350.70323047 214.68359375 352.48144531 C220.14715388 354.35869031 225.60743283 356.24520571 231.06640625 358.13574219 C238.2666196 360.62868399 245.47139089 363.10804665 252.68055344 365.57499123 C256.7105524 366.95430425 260.73869061 368.33856205 264.76281738 369.73492432 C268.60739805 371.0685536 272.45679259 372.38725626 276.31016541 373.69525528 C277.74462009 374.18495803 279.17730645 374.67987565 280.60804749 375.18032455 C282.58669958 375.87144289 284.5709475 376.543279 286.55761719 377.2109375 C287.67368347 377.59427246 288.78974976 377.97760742 289.93963623 378.37255859 C293.72765354 379.17724443 296.43129235 378.96013667 300.1875 378.0625 C304.41817242 374.07865098 306.10746079 370.3808687 307.86328125 364.80078125 C308.18560982 363.79207222 308.18560982 363.79207222 308.51445007 362.76298523 C308.96189274 361.35406017 309.40272765 359.94302075 309.8371582 358.5300293 C310.50272512 356.36614011 311.18796835 354.20926895 311.87695312 352.05273438 C314.26250931 345.18783454 314.26250931 345.18783454 315.1875 338.0625 C269.3175 338.0625 223.4475 338.0625 176.1875 338.0625 Z " fill="#000000" transform="translate(119.8125,57.9375)"/>
<path d="M0 0 C3.12068856 1.79273598 4.54965052 3.24259405 6.375 6.3125 C7.27762335 10.19378041 7.20592828 12.12833553 6 16 C0.39982442 23.11126018 -6.29444984 29.43906416 -12.69482422 35.82421875 C-13.61790878 36.74905563 -14.54099335 37.67389252 -15.49205017 38.62675476 C-17.9913933 41.13060172 -20.49382207 43.63134209 -22.99701452 46.13134003 C-25.62762117 48.75939151 -28.25576076 51.38990842 -30.88430786 54.02001953 C-35.2885913 58.42611328 -39.69495929 62.83011403 -44.10253906 67.23291016 C-49.19588868 72.32079563 -54.2855941 77.41230534 -59.37346828 82.50566578 C-63.75568448 86.89241744 -68.139843 91.27722076 -72.52563679 95.66039562 C-75.13955579 98.27275728 -77.75279819 100.88578612 -80.36428452 103.50057983 C-83.26718273 106.4068991 -86.17414367 109.309121 -89.08154297 112.2109375 C-89.9449379 113.07635666 -90.80833282 113.94177582 -91.69789124 114.8334198 C-92.48835342 115.62106216 -93.27881561 116.40870453 -94.0932312 117.22021484 C-94.77933912 117.90594574 -95.46544704 118.59167664 -96.17234612 119.29818726 C-100.31727938 123.1577256 -103.11811988 123.42329571 -108.55078125 123.328125 C-111.97039648 122.86999473 -113.70515629 121.51692536 -116 119 C-117.79604312 115.40791376 -117.6829295 111.90518898 -117 108 C-115.76624012 106.12479305 -115.76624012 106.12479305 -114.08442688 104.31907654 C-113.44496439 103.62773054 -112.8055019 102.93638454 -112.14666176 102.22408867 C-108.18380986 98.11830257 -104.18874421 94.05023791 -100.14916992 90.01977539 C-99.17581927 89.04506663 -98.2026808 88.07014595 -97.22973633 87.09503174 C-94.61052031 84.47129365 -91.98819589 81.85068385 -89.36512542 79.23079991 C-86.6139268 76.48214775 -83.86518537 73.73104 -81.11604309 70.98033142 C-76.50729849 66.36977361 -71.8964626 61.76131515 -67.28442383 57.15405273 C-61.95025029 51.82533959 -56.61971482 46.49300744 -51.29101676 41.15881926 C-46.70843198 36.57170223 -42.12390868 31.98652947 -37.5377472 27.40298837 C-34.80142718 24.66822801 -32.065789 21.93279479 -29.33189964 19.19560432 C-26.76748626 16.62830995 -24.20065369 14.06345953 -21.6319046 11.50050354 C-20.23751925 10.10807742 -18.84560359 8.71317951 -17.45375061 7.31822205 C-16.62811615 6.49540741 -15.80248169 5.67259277 -14.951828 4.82484436 C-14.23270328 4.10609666 -13.51357855 3.38734896 -12.77266216 2.64682102 C-9.02736408 -0.83259866 -4.88234656 -0.60818158 0 0 Z " fill="#000000" transform="translate(354,195)"/>
<path d="M0 0 C8.15420424 5.63925266 14.65422746 13.22594774 17 23 C18.81395162 33.01161761 17.57899213 42.36212122 12 51 C6.13425696 59.01502293 -0.30658757 63.68378461 -10 66 C-22.25737741 67.01051184 -31.41611885 65.90576539 -40.9296875 57.93359375 C-48.58360676 50.78512199 -52.66315058 42.17242794 -53.16015625 31.58984375 C-52.662992 21.22215019 -49.16939741 12.56858435 -42 5 C-29.67304004 -5.45780481 -14.52241541 -6.63830999 0 0 Z M-26 21 C-28.99176362 24.21614589 -30.23342786 26.73617064 -30.4375 31.0625 C-29.82339482 36.58944665 -28.46968485 38.76412865 -24.25 42.3125 C-20.38396703 44.31986327 -18.30179863 44.61454266 -14 44 C-9.66270205 41.74794145 -6.86602629 39.5613976 -5 35 C-4.41565176 31.00695366 -4.61204566 27.91883924 -6.1875 24.1875 C-8.81363546 21.01802617 -11.50151968 19.56699256 -15.3125 18.125 C-19.34789278 17.93730731 -22.50612739 19.00141734 -26 21 Z " fill="#000000" transform="translate(367,276)"/>
<path d="M0 0 C8.7151617 7.15888283 13.91747768 15.0588393 15.14453125 26.375 C15.56322089 36.81522879 12.53400089 45.46189405 5.80078125 53.453125 C-1.28256684 60.64868455 -10.18066724 64.42763158 -20.296875 64.76953125 C-30.99787254 63.90654758 -39.60663249 60.65819192 -47.046875 52.58203125 C-54.79203999 43.0467102 -56.20388041 33.49709434 -55.171875 21.45703125 C-52.83725026 12.42213819 -48.31061988 4.78810417 -40.41796875 -0.328125 C-27.85636235 -7.40343726 -12.20863511 -8.67340084 0 0 Z M-30.171875 20.45703125 C-33.00360241 24.47625725 -33.66047686 27.59678891 -32.82421875 32.4921875 C-31.68547493 35.92205662 -29.71478933 37.91411692 -27.171875 40.45703125 C-23.69247761 42.19672994 -19.97601282 41.90533032 -16.171875 41.45703125 C-12.02220226 39.53588646 -10.51253797 38.05044417 -8.234375 34.08203125 C-6.79496305 29.17109636 -7.32136007 26.38188082 -9.359375 21.76953125 C-12.47391166 17.79581206 -15.73937569 16.63609366 -20.671875 16.01953125 C-24.936935 16.55266375 -26.92781338 17.65534167 -30.171875 20.45703125 Z " fill="#000000" transform="translate(268.171875,176.54296875)"/>
<path d="M0 0 C3.6578218 2.03993908 5.66946174 3.50419262 8 7 C8.4116696 11.53251685 8.37160195 16.07461075 8.37060547 20.62353516 C8.37497166 22.86047902 8.41127697 25.09543738 8.44921875 27.33203125 C8.45508877 28.76040995 8.45905693 30.18879798 8.4609375 31.6171875 C8.46915527 32.91253418 8.47737305 34.20788086 8.48583984 35.54248047 C7.92305596 39.54757865 6.80535027 41.15135931 4 44 C0.73065722 46.28853994 -2.0698152 46.47162218 -6 46 C-9.6578218 43.96006092 -11.66946174 42.49580738 -14 39 C-14.4116696 34.46748315 -14.37160195 29.92538925 -14.37060547 25.37646484 C-14.37497166 23.13952098 -14.41127697 20.90456262 -14.44921875 18.66796875 C-14.45508877 17.23959005 -14.45905693 15.81120202 -14.4609375 14.3828125 C-14.46915527 13.08746582 -14.47737305 11.79211914 -14.48583984 10.45751953 C-13.92305596 6.45242135 -12.80535027 4.84864069 -10 2 C-6.73065722 -0.28853994 -3.9301848 -0.47162218 0 0 Z " fill="#000000" transform="translate(131,175)"/>
<path d="M0 0 C3.6578218 2.03993908 5.66946174 3.50419262 8 7 C8.3881355 11.39058879 8.3291361 15.79063679 8.31567383 20.19628906 C8.31252106 22.36054169 8.33595238 24.52341706 8.36132812 26.6875 C8.36360206 28.07031078 8.36430418 29.45312523 8.36328125 30.8359375 C8.36626221 32.08938965 8.36924316 33.3428418 8.37231445 34.63427734 C7.9705752 38.2660002 7.19504836 40.11247969 5 43 C1.5609029 45.34483893 -0.3839551 46.01080781 -4.5625 45.9375 C-8.29811554 44.91869576 -10.2400376 43.67878703 -13 41 C-15.24035124 36.51929752 -14.2685735 30.43447387 -14.29516602 25.4519043 C-14.31235651 23.20624427 -14.35624 20.96206567 -14.40039062 18.71679688 C-14.41052001 17.28386497 -14.41903535 15.85092057 -14.42578125 14.41796875 C-14.44036377 13.11625732 -14.45494629 11.8145459 -14.4699707 10.47338867 C-13.92541835 6.4487932 -12.81938679 4.85692155 -10 2 C-6.73065722 -0.28853994 -3.9301848 -0.47162218 0 0 Z " fill="#000000" transform="translate(131,233)"/>
<path d="M0 0 C1.12535156 0.04833984 1.12535156 0.04833984 2.2734375 0.09765625 C5.03754244 1.08483659 6.84437688 2.32146227 8.63916016 4.66137695 C10.76065311 9.55951434 10.27590122 15.10645654 10.16699219 20.36010742 C10.12503596 22.4981675 10.12593739 24.6330807 10.1328125 26.77148438 C10.04312896 38.47544247 10.04312896 38.47544247 6.625 42.9375 C2.6545879 45.35088775 -0.11750685 46.30032999 -4.625 45.3125 C-9.65386323 43.46858348 -9.65386323 43.46858348 -11.375 40.9375 C-13.10239701 35.75530897 -12.67953253 30.2214714 -12.72509766 24.79614258 C-12.7416395 23.35392093 -12.76890714 21.91178068 -12.80712891 20.4699707 C-12.86219086 18.37929236 -12.88381155 16.2905266 -12.8984375 14.19921875 C-12.91825684 12.95100342 -12.93807617 11.70278809 -12.95849609 10.41674805 C-12.18165081 5.78460488 -10.70195685 4.20663132 -7.375 0.9375 C-4.50068428 -0.02060524 -2.95730739 -0.19681739 0 0 Z " fill="#000000" transform="translate(129.375,291.0625)"/>
</svg>
