<?xml version="1.0" encoding="UTF-8"?>
<svg version="1.1" xmlns="http://www.w3.org/2000/svg" width="512" height="512">
<path d="M0 0 C1.39513321 0.00273422 1.39513321 0.00273422 2.81845093 0.00552368 C16.22116876 0.04979134 29.23721143 0.44245881 42.375 3.3125 C43.63666992 3.56990967 43.63666992 3.56990967 44.92382812 3.83251953 C73.82644728 9.78212049 101.27583458 21.19369921 125.375 38.3125 C126.03226074 38.77060059 126.68952148 39.22870117 127.36669922 39.70068359 C171.77548637 70.82469836 203.20532647 119.0767451 213.5859375 172.33984375 C215.80488397 185.46075696 216.78561242 198.45577562 216.75 211.75 C216.74918427 212.912966 216.74918427 212.912966 216.74835205 214.09942627 C216.5852845 265.12652385 197.35832628 315.86555919 162.375 353.3125 C163.71079648 356.28886205 165.16734603 358.35201858 167.5 360.625 C168.03882813 361.15738281 168.57765625 361.68976563 169.1328125 362.23828125 C170.37017858 363.38295266 171.61753192 364.51806593 172.90341187 365.60795593 C178.96877171 370.76564268 184.55782754 376.37902258 190.16209412 382.02442932 C191.94355248 383.81882335 193.72826638 385.60992409 195.51379395 387.40026855 C199.9448343 391.84457369 204.3703724 396.29434463 208.79608154 400.74395752 C212.54755651 404.51526702 216.30114469 408.28444978 220.05747986 412.05091858 C221.8031471 413.80299796 223.54573952 415.55809477 225.28820801 417.31335449 C230.14748947 422.19489806 235.03358552 426.96732849 240.27410889 431.44314575 C245.27584789 435.89364868 249.94523033 440.71783949 254.6796875 445.44921875 C255.85166423 446.61797607 257.02371344 447.78666071 258.1958313 448.95527649 C260.63655579 451.39005012 263.07524246 453.82684393 265.51269531 456.26489258 C268.63470983 459.38700933 271.76358609 462.50215221 274.89420891 465.61563396 C277.30996282 468.02027828 279.72116716 470.42944477 282.13110733 472.83991432 C283.28333345 473.99096189 284.43717804 475.14039173 285.59267807 476.28815269 C287.20312955 477.8888109 288.8071269 479.49567548 290.40966797 481.10424805 C291.32263641 482.01579147 292.23560486 482.9273349 293.17623901 483.86650085 C297.45463676 488.62598008 297.82548972 492.29457105 297.68359375 498.5546875 C297.20025409 502.87415336 296.10079964 504.88777738 293.375 508.3125 C288.41293555 512.26189823 284.47946464 512.77009453 278.21875 512.84375 C270.65818384 511.43133654 265.68863857 506.024559 260.53515625 500.73046875 C259.80936874 499.99806473 259.08358124 499.26566071 258.33580017 498.51106262 C256.02910029 496.18108731 253.73282917 493.84117302 251.4375 491.5 C249.14405958 489.1712796 246.84841497 486.84479564 244.5499115 484.52107239 C243.12516456 483.07960286 241.70352971 481.63504784 240.28565979 480.18681335 C237.17211622 477.02705914 234.03443334 473.97367438 230.65991211 471.09301758 C225.37242497 466.5342882 220.50302527 461.5517713 215.58790588 456.60057068 C213.80644752 454.80617665 212.02173362 453.01507591 210.23620605 451.22473145 C205.8051657 446.78042631 201.3796276 442.33065537 196.95391846 437.88104248 C193.20244349 434.10973298 189.44885531 430.34055022 185.69252014 426.57408142 C183.9468529 424.82200204 182.20426048 423.06690523 180.46179199 421.31164551 C175.48628146 416.31341172 170.4857663 411.40993304 165.11779785 406.82821655 C162.24793523 404.33228837 159.58134798 401.6426821 156.90625 398.94140625 C156.34047241 398.37421371 155.77469482 397.80702118 155.19177246 397.22264099 C153.41711423 395.44246577 151.64599901 393.65881481 149.875 391.875 C148.65908886 390.6540631 147.44294484 389.43335808 146.2265625 388.21289062 C143.27335034 385.24875987 140.32330602 382.28151042 137.375 379.3125 C133.26458767 380.87645966 130.07620994 382.79521497 126.5 385.375 C102.08179464 402.59000945 75.44489255 413.71494351 46.375 420.3125 C45.44703613 420.52712891 44.51907227 420.74175781 43.56298828 420.96289062 C16.98832108 426.84864922 -13.97942917 427.04585253 -40.625 421.3125 C-41.44097656 421.15152832 -42.25695312 420.99055664 -43.09765625 420.82470703 C-96.41288391 410.23288413 -145.30610403 378.85615947 -176.625 334.3125 C-177.02428711 333.74837402 -177.42357422 333.18424805 -177.83496094 332.60302734 C-199.87572961 301.26246517 -214.47128174 262.18499426 -214.86328125 223.59765625 C-214.8730751 222.79277771 -214.88286896 221.98789917 -214.89295959 221.15863037 C-215.4692213 161.46121671 -197.0490209 108.16985954 -155.109375 64.83203125 C-153.95095499 63.65585396 -152.78953917 62.48261898 -151.625 61.3125 C-151.06876953 60.75224121 -150.51253906 60.19198242 -149.93945312 59.61474609 C-136.01177127 45.75613384 -120.02789126 34.91298861 -102.82568359 25.51757812 C-101.45010083 24.76431914 -100.07965422 24.00151193 -98.71728516 23.22460938 C-79.87648181 12.48191093 -56.99222442 5.59960185 -35.625 2.3125 C-34.06942383 2.05303589 -34.06942383 2.05303589 -32.48242188 1.78833008 C-21.63757694 0.13294826 -10.95067278 -0.04446887 0 0 Z M-136.3125 94.1875 C-137.43606368 95.54669597 -138.53707103 96.92461687 -139.625 98.3125 C-140.25172607 99.09536377 -140.25172607 99.09536377 -140.89111328 99.89404297 C-158.2386151 121.67499335 -170.64896237 146.1602088 -176.8125 173.375 C-177.0448938 174.39956299 -177.0448938 174.39956299 -177.28198242 175.44482422 C-179.86542985 187.48591124 -181.01508718 199.37711327 -181 211.6875 C-181.00012085 212.37649384 -181.0002417 213.06548767 -181.00036621 213.77536011 C-180.96786683 226.9068104 -179.47263006 239.49053717 -176.625 252.3125 C-176.47546875 253.02067871 -176.3259375 253.72885742 -176.171875 254.45849609 C-169.60614163 284.9541998 -152.50450137 312.55406663 -131.5 335.1875 C-130.93845215 335.79376221 -130.3769043 336.40002441 -129.79833984 337.0246582 C-123.13173531 344.083359 -115.82607944 350.10880825 -107.9375 355.75 C-106.75414063 356.59630981 -106.75414063 356.59630981 -105.546875 357.4597168 C-64.81466184 386.3572351 -15.79654728 396.29673277 33.32421875 388.5703125 C59.96964343 383.95587632 85.59247955 373.41951658 107.375 357.3125 C108.43589844 356.53390625 109.49679687 355.7553125 110.58984375 354.953125 C120.78077289 347.35311005 130.24425162 339.11878221 138.375 329.3125 C139.14457031 328.43078125 139.91414063 327.5490625 140.70703125 326.640625 C157.48003839 307.16229413 169.33341053 283.96905419 176.375 259.3125 C176.63498779 258.42763916 176.89497559 257.54277832 177.1628418 256.63110352 C188.38004563 217.34490027 183.49260435 172.7318307 165.375 136.3125 C165.03210938 135.61576172 164.68921875 134.91902344 164.3359375 134.20117188 C153.57971371 112.55330422 138.84851395 92.99049667 120.375 77.3125 C119.72362061 76.75933105 119.07224121 76.20616211 118.40112305 75.63623047 C44.49651198 13.85838221 -63.61617164 22.39216687 -136.3125 94.1875 Z " fill="#000000" transform="translate(214.625,-0.3125)"/>
</svg>
