<?xml version="1.0" encoding="UTF-8"?>
<svg version="1.1" xmlns="http://www.w3.org/2000/svg" width="512" height="512">
<path d="M0 0 C5.10055527 4.50655611 6.60711712 11.48189307 8.75 17.75 C9.16121094 18.89210938 9.57242187 20.03421875 9.99609375 21.2109375 C12.22653646 27.65773204 14.006005 33.17547957 13 40 C9.71608992 43.17634733 6.53897643 44.78337879 2.24536133 46.23901367 C1.1083931 46.63009811 -0.02857513 47.02118256 -1.19999695 47.42411804 C-2.42692764 47.83458878 -3.65385834 48.24505951 -4.91796875 48.66796875 C-6.21648204 49.11060568 -7.51467865 49.55417256 -8.81257629 49.99861145 C-12.24040475 51.16971835 -15.67223207 52.32863328 -19.10510254 53.48486328 C-22.49753568 54.62952857 -25.88638726 55.78468101 -29.27539062 56.93945312 C-33.2743912 58.30158912 -37.27383247 59.6623394 -41.27584839 61.01559448 C-47.75542129 63.20759535 -54.22707036 65.41884111 -60.68212891 67.68212891 C-61.88444656 68.10279129 -63.08676422 68.52345367 -64.32551575 68.9568634 C-66.58855657 69.75060444 -68.85026029 70.54817142 -71.11039734 71.35014343 C-72.10948624 71.70035049 -73.10857513 72.05055756 -74.13793945 72.41137695 C-75.00900833 72.71960892 -75.88007721 73.02784088 -76.77754211 73.34541321 C-79 74 -79 74 -82 74 C-82 94.13 -82 114.26 -82 135 C-72.21601563 134.93039063 -72.21601563 134.93039063 -62.234375 134.859375 C-58.10545286 134.83894008 -53.97659296 134.81968456 -49.84765625 134.8046875 C-43.29202345 134.78076354 -36.73661384 134.75244276 -30.18115234 134.69824219 C-24.8967672 134.65482363 -19.61262133 134.63087108 -14.32807159 134.62049103 C-12.31059247 134.61309251 -10.29312664 134.59864513 -8.27574921 134.57707977 C-5.45274924 134.54809899 -2.63074165 134.54404178 0.19238281 134.54589844 C1.02891891 134.53151733 1.86545502 134.51713623 2.7273407 134.50231934 C6.30407147 134.52782187 8.51443367 134.64587866 11.44750977 136.78495789 C12.88961746 138.84250982 13.84684924 140.52556386 14.64746094 142.89477539 C14.90742859 143.64557877 15.16739624 144.39638214 15.4352417 145.16993713 C15.69895569 145.97108444 15.96266968 146.77223175 16.234375 147.59765625 C16.51726379 148.42833115 16.80015259 149.25900604 17.09161377 150.11485291 C17.6852794 151.86546737 18.27328284 153.61801098 18.85595703 155.37231445 C19.74936943 158.0606026 20.66021724 160.74247871 21.57421875 163.42382812 C22.14946485 165.12725758 22.72371806 166.83102272 23.296875 168.53515625 C23.56868591 169.33832779 23.84049683 170.14149933 24.12054443 170.9690094 C25.1514873 174.0850701 26 176.69509981 26 180 C27.0621875 179.95359375 28.124375 179.9071875 29.21875 179.859375 C44.44164046 179.38602194 44.44164046 179.38602194 50 184 C54.60939827 188.38100466 57.6240994 192.58629801 58.3359375 199.05078125 C58.43149896 207.03016343 57.9577428 212.80779376 52.3515625 218.74609375 C46.79470471 223.80550357 42.27135493 225.2667543 34.6875 225.125 C33.43324219 225.10695312 32.17898438 225.08890625 30.88671875 225.0703125 C29.93410156 225.04710937 28.98148437 225.02390625 28 225 C27.90914438 225.9237143 27.81828876 226.84742861 27.72467995 227.79913425 C24.69518561 258.54651375 21.46835819 289.27213816 18.2109375 319.99609375 C17.93855197 322.56653274 17.6661789 325.13697304 17.3938179 327.70741463 C16.26229358 338.38489072 15.13022968 349.0623092 13.9963131 359.73953152 C13.70652085 362.46836221 13.41673222 365.1971933 13.12695312 367.92602539 C13.05497438 368.60383901 12.98299564 369.28165262 12.90883572 369.98000605 C11.73325713 381.0514061 10.56207886 392.12326722 9.39262836 403.19531607 C8.18272107 414.64971288 6.96884048 426.1036823 5.75131953 437.55727249 C5.07138075 443.95458328 4.39313216 450.35206235 3.71909714 456.74999809 C3.08826645 462.73695965 2.45254992 468.72338234 1.81307793 474.70942688 C1.57989851 476.90017925 1.34847634 479.09111949 1.11896324 481.28225899 C0.80498633 484.27715936 0.48461997 487.27131127 0.16268921 490.2653656 C0.07396966 491.12623809 -0.01474988 491.98711058 -0.1061579 492.87407011 C-1.68216329 507.31511238 -1.68216329 507.31511238 -4.35403889 510.73117304 C-7.14635332 512.88369282 -10.46717171 512.41447413 -13.85069275 512.38768005 C-14.65897713 512.39306559 -15.46726151 512.39845113 -16.30003935 512.40399987 C-19.01780651 512.41834679 -21.73509122 512.41115925 -24.45288086 512.40405273 C-26.39755141 512.40975279 -28.34221861 512.41671563 -30.28688049 512.42485046 C-35.57610693 512.44283739 -40.86516797 512.44160309 -46.15441585 512.43590808 C-50.56565922 512.43282417 -54.97687046 512.43889978 -59.38810927 512.44494683 C-69.79253933 512.45900867 -80.19688732 512.45741701 -90.60131836 512.44604492 C-101.34468369 512.43456205 -112.08779944 512.44863852 -122.83113188 512.4754414 C-132.04648315 512.4975737 -141.26175593 512.50424135 -150.4771319 512.49836498 C-155.98480964 512.49498829 -161.49232737 512.49745768 -166.99998283 512.51461601 C-172.17843827 512.5300437 -177.35652304 512.52617609 -182.53496361 512.50731087 C-184.43771543 512.50361337 -186.34049446 512.50676705 -188.24322128 512.51719666 C-190.83668718 512.53032925 -193.42891192 512.51892856 -196.02232361 512.50120544 C-196.77903365 512.51081045 -197.53574368 512.52041546 -198.31538433 512.53031152 C-201.73751708 512.48204402 -203.66145299 512.25020822 -206.44763851 510.19103622 C-208.69699976 507.01623962 -208.92399138 503.80953684 -209.27001953 500.03833008 C-209.35910709 499.22303959 -209.44819466 498.4077491 -209.53998184 497.56775284 C-209.83771473 494.80317971 -210.10996809 492.03666374 -210.3828125 489.26953125 C-210.59540961 487.24824277 -210.80962231 485.22712369 -211.02529907 483.2061615 C-211.49509491 478.77146451 -211.95357134 474.33578529 -212.40368652 469.89904785 C-213.13158746 462.72485793 -213.88286378 455.55323559 -214.63769531 448.38183594 C-215.47398841 440.42317727 -216.3078982 432.46429346 -217.13317871 424.50448608 C-219.53530226 401.34313678 -221.99789523 378.18847976 -224.47706175 355.03525901 C-224.99520407 350.19567977 -225.51292233 345.35605517 -226.03067017 340.51643372 C-226.23774516 338.58090418 -226.44482155 336.64537478 -226.65189934 334.70984554 C-226.75438917 333.75187726 -226.856879 332.79390898 -226.96247458 331.80691135 C-227.27275003 328.90689106 -227.58305946 326.00687441 -227.89337349 323.10685825 C-229.81735083 305.12561911 -231.74010214 287.14424986 -233.65367663 269.16190022 C-234.11223336 264.85283337 -234.57132361 260.54382514 -235.03184891 256.23496819 C-235.45725518 252.25460525 -235.88120442 248.27408998 -236.30397201 244.29344594 C-236.45837622 242.84204532 -236.61331676 241.39070164 -236.76882958 239.93941939 C-236.97980991 237.96967647 -237.1886649 235.99970624 -237.3973999 234.02972412 C-237.51455227 232.93039425 -237.63170464 231.83106438 -237.75240707 230.69842148 C-238 228 -238 228 -238 225 C-238.9178125 225.04640625 -239.835625 225.0928125 -240.78125 225.140625 C-254.31028779 225.53853788 -254.31028779 225.53853788 -260 221 C-265.80799203 215.38734403 -268.29643597 210.94830962 -268.4375 202.75 C-268.43203451 195.18029312 -266.76797726 190.82716015 -261.5078125 185.484375 C-255.93285465 180.4582472 -250.97885012 179.70558525 -243.6875 179.875 C-242.94693359 179.88402344 -242.20636719 179.89304688 -241.44335938 179.90234375 C-239.62876533 179.92575787 -237.81433929 179.96162385 -236 180 C-235.67128906 178.27716797 -235.67128906 178.27716797 -235.3359375 176.51953125 C-233.84267812 169.81823454 -231.5916184 163.35527702 -229.36914062 156.86889648 C-228.62204593 154.67884036 -227.89294131 152.48328483 -227.1640625 150.28710938 C-226.68598531 148.88244123 -226.20685555 147.47813078 -225.7265625 146.07421875 C-225.40602402 145.09759529 -225.40602402 145.09759529 -225.07901001 144.10124207 C-223.68465023 140.10823693 -222.40886562 137.52840087 -219 135 C-215.94082198 134.62611259 -213.24795136 134.49336939 -210.19238281 134.54589844 C-209.30422379 134.54531433 -208.41606476 134.54473022 -207.50099182 134.54412842 C-204.56797073 134.54691314 -201.63596836 134.57802349 -198.703125 134.609375 C-196.66860509 134.61683601 -194.634078 134.6225296 -192.59954834 134.62652588 C-187.24656305 134.64179319 -181.89401238 134.68108472 -176.54119873 134.7253418 C-171.07830688 134.76627068 -165.61534475 134.78453182 -160.15234375 134.8046875 C-149.43470495 134.84757769 -138.71738863 134.91584252 -128 135 C-128.00888245 134.10987717 -128.01776489 133.21975433 -128.0269165 132.30265808 C-128.10739139 123.87378742 -128.16813061 115.44504762 -128.20724869 107.01587963 C-128.22803651 102.6833513 -128.25619092 98.35114302 -128.30175781 94.01879883 C-128.34553275 89.83014639 -128.36920315 85.64179989 -128.37950897 81.45293617 C-128.38684404 79.86268619 -128.40116625 78.27245109 -128.42292023 76.68233299 C-128.59360262 63.67739528 -126.83615191 52.1652436 -118 42 C-108.50439336 32.66626412 -95.49352817 29.55777679 -83.1875 25.5 C-80.88308248 24.72597996 -78.57929753 23.9500743 -76.27612305 23.17236328 C-72.7312978 21.97576393 -69.18602537 20.78072288 -65.63819885 19.5930481 C-57.61569903 16.90402278 -49.63134492 14.1216053 -41.6640625 11.2734375 C-39.56099729 10.52526831 -37.45788944 9.77721893 -35.35473633 9.02929688 C-32.35766891 7.96295386 -29.36220893 6.8930019 -26.3711853 5.80981445 C-23.62295041 4.81605337 -20.86901447 3.83992528 -18.11328125 2.8671875 C-17.31858429 2.57435883 -16.52388733 2.28153015 -15.70510864 1.97982788 C-10.56534237 0.18844042 -5.43730515 -1.14900413 0 0 Z " fill="#FE6B49" transform="translate(361,0)"/>
<path d="M0 0 C5.10055527 4.50655611 6.60711712 11.48189307 8.75 17.75 C9.16121094 18.89210938 9.57242187 20.03421875 9.99609375 21.2109375 C12.22653646 27.65773204 14.006005 33.17547957 13 40 C9.71608992 43.17634733 6.53897643 44.78337879 2.24536133 46.23901367 C1.1083931 46.63009811 -0.02857513 47.02118256 -1.19999695 47.42411804 C-2.42692764 47.83458878 -3.65385834 48.24505951 -4.91796875 48.66796875 C-6.21648204 49.11060568 -7.51467865 49.55417256 -8.81257629 49.99861145 C-12.24040475 51.16971835 -15.67223207 52.32863328 -19.10510254 53.48486328 C-22.49753568 54.62952857 -25.88638726 55.78468101 -29.27539062 56.93945312 C-33.2743912 58.30158912 -37.27383247 59.6623394 -41.27584839 61.01559448 C-47.75542129 63.20759535 -54.22707036 65.41884111 -60.68212891 67.68212891 C-61.88444656 68.10279129 -63.08676422 68.52345367 -64.32551575 68.9568634 C-66.58855657 69.75060444 -68.85026029 70.54817142 -71.11039734 71.35014343 C-72.10948624 71.70035049 -73.10857513 72.05055756 -74.13793945 72.41137695 C-75.00900833 72.71960892 -75.88007721 73.02784088 -76.77754211 73.34541321 C-79 74 -79 74 -82 74 C-82 94.13 -82 114.26 -82 135 C-72.21601563 134.93039063 -72.21601563 134.93039063 -62.234375 134.859375 C-58.10545286 134.83894008 -53.97659296 134.81968456 -49.84765625 134.8046875 C-43.29202345 134.78076354 -36.73661384 134.75244276 -30.18115234 134.69824219 C-24.8967672 134.65482363 -19.61262133 134.63087108 -14.32807159 134.62049103 C-12.31059247 134.61309251 -10.29312664 134.59864513 -8.27574921 134.57707977 C-5.45274924 134.54809899 -2.63074165 134.54404178 0.19238281 134.54589844 C1.02891891 134.53151733 1.86545502 134.51713623 2.7273407 134.50231934 C6.30407147 134.52782187 8.51443367 134.64587866 11.44750977 136.78495789 C12.88961746 138.84250982 13.84684924 140.52556386 14.64746094 142.89477539 C14.90742859 143.64557877 15.16739624 144.39638214 15.4352417 145.16993713 C15.69895569 145.97108444 15.96266968 146.77223175 16.234375 147.59765625 C16.51726379 148.42833115 16.80015259 149.25900604 17.09161377 150.11485291 C17.6852794 151.86546737 18.27328284 153.61801098 18.85595703 155.37231445 C19.74936943 158.0606026 20.66021724 160.74247871 21.57421875 163.42382812 C22.14946485 165.12725758 22.72371806 166.83102272 23.296875 168.53515625 C23.56868591 169.33832779 23.84049683 170.14149933 24.12054443 170.9690094 C25.1514873 174.0850701 26 176.69509981 26 180 C27.0621875 179.95359375 28.124375 179.9071875 29.21875 179.859375 C44.44164046 179.38602194 44.44164046 179.38602194 50 184 C54.60939827 188.38100466 57.6240994 192.58629801 58.3359375 199.05078125 C58.43149896 207.03016343 57.9577428 212.80779376 52.3515625 218.74609375 C46.79470471 223.80550357 42.27135493 225.2667543 34.6875 225.125 C33.43324219 225.10695312 32.17898438 225.08890625 30.88671875 225.0703125 C29.93410156 225.04710937 28.98148437 225.02390625 28 225 C27.90914438 225.9237143 27.81828876 226.84742861 27.72467995 227.79913425 C24.69518561 258.54651375 21.46835819 289.27213816 18.2109375 319.99609375 C17.93855197 322.56653274 17.6661789 325.13697304 17.3938179 327.70741463 C16.26229358 338.38489072 15.13022968 349.0623092 13.9963131 359.73953152 C13.70652085 362.46836221 13.41673222 365.1971933 13.12695312 367.92602539 C13.05497438 368.60383901 12.98299564 369.28165262 12.90883572 369.98000605 C11.73325713 381.0514061 10.56207886 392.12326722 9.39262836 403.19531607 C8.18272107 414.64971288 6.96884048 426.1036823 5.75131953 437.55727249 C5.07138075 443.95458328 4.39313216 450.35206235 3.71909714 456.74999809 C3.08826645 462.73695965 2.45254992 468.72338234 1.81307793 474.70942688 C1.57989851 476.90017925 1.34847634 479.09111949 1.11896324 481.28225899 C0.80498633 484.27715936 0.48461997 487.27131127 0.16268921 490.2653656 C0.07396966 491.12623809 -0.01474988 491.98711058 -0.1061579 492.87407011 C-1.68216329 507.31511238 -1.68216329 507.31511238 -4.35403889 510.73117304 C-7.14635332 512.88369282 -10.46717171 512.41447413 -13.85069275 512.38768005 C-14.65897713 512.39306559 -15.46726151 512.39845113 -16.30003935 512.40399987 C-19.01780651 512.41834679 -21.73509122 512.41115925 -24.45288086 512.40405273 C-26.39755141 512.40975279 -28.34221861 512.41671563 -30.28688049 512.42485046 C-35.57610693 512.44283739 -40.86516797 512.44160309 -46.15441585 512.43590808 C-50.56565922 512.43282417 -54.97687046 512.43889978 -59.38810927 512.44494683 C-69.79253933 512.45900867 -80.19688732 512.45741701 -90.60131836 512.44604492 C-101.34468369 512.43456205 -112.08779944 512.44863852 -122.83113188 512.4754414 C-132.04648315 512.4975737 -141.26175593 512.50424135 -150.4771319 512.49836498 C-155.98480964 512.49498829 -161.49232737 512.49745768 -166.99998283 512.51461601 C-172.17843827 512.5300437 -177.35652304 512.52617609 -182.53496361 512.50731087 C-184.43771543 512.50361337 -186.34049446 512.50676705 -188.24322128 512.51719666 C-190.83668718 512.53032925 -193.42891192 512.51892856 -196.02232361 512.50120544 C-196.77903365 512.51081045 -197.53574368 512.52041546 -198.31538433 512.53031152 C-201.73751708 512.48204402 -203.66145299 512.25020822 -206.44763851 510.19103622 C-208.69699976 507.01623962 -208.92399138 503.80953684 -209.27001953 500.03833008 C-209.35910709 499.22303959 -209.44819466 498.4077491 -209.53998184 497.56775284 C-209.83771473 494.80317971 -210.10996809 492.03666374 -210.3828125 489.26953125 C-210.59540961 487.24824277 -210.80962231 485.22712369 -211.02529907 483.2061615 C-211.49509491 478.77146451 -211.95357134 474.33578529 -212.40368652 469.89904785 C-213.13158746 462.72485793 -213.88286378 455.55323559 -214.63769531 448.38183594 C-215.47398841 440.42317727 -216.3078982 432.46429346 -217.13317871 424.50448608 C-219.53530226 401.34313678 -221.99789523 378.18847976 -224.47706175 355.03525901 C-224.99520407 350.19567977 -225.51292233 345.35605517 -226.03067017 340.51643372 C-226.23774516 338.58090418 -226.44482155 336.64537478 -226.65189934 334.70984554 C-226.75438917 333.75187726 -226.856879 332.79390898 -226.96247458 331.80691135 C-227.27275003 328.90689106 -227.58305946 326.00687441 -227.89337349 323.10685825 C-229.81735083 305.12561911 -231.74010214 287.14424986 -233.65367663 269.16190022 C-234.11223336 264.85283337 -234.57132361 260.54382514 -235.03184891 256.23496819 C-235.45725518 252.25460525 -235.88120442 248.27408998 -236.30397201 244.29344594 C-236.45837622 242.84204532 -236.61331676 241.39070164 -236.76882958 239.93941939 C-236.97980991 237.96967647 -237.1886649 235.99970624 -237.3973999 234.02972412 C-237.51455227 232.93039425 -237.63170464 231.83106438 -237.75240707 230.69842148 C-238 228 -238 228 -238 225 C-238.9178125 225.04640625 -239.835625 225.0928125 -240.78125 225.140625 C-254.31028779 225.53853788 -254.31028779 225.53853788 -260 221 C-265.80799203 215.38734403 -268.29643597 210.94830962 -268.4375 202.75 C-268.43203451 195.18029312 -266.76797726 190.82716015 -261.5078125 185.484375 C-255.93285465 180.4582472 -250.97885012 179.70558525 -243.6875 179.875 C-242.94693359 179.88402344 -242.20636719 179.89304688 -241.44335938 179.90234375 C-239.62876533 179.92575787 -237.81433929 179.96162385 -236 180 C-235.67128906 178.27716797 -235.67128906 178.27716797 -235.3359375 176.51953125 C-233.84267812 169.81823454 -231.5916184 163.35527702 -229.36914062 156.86889648 C-228.62204593 154.67884036 -227.89294131 152.48328483 -227.1640625 150.28710938 C-226.68598531 148.88244123 -226.20685555 147.47813078 -225.7265625 146.07421875 C-225.40602402 145.09759529 -225.40602402 145.09759529 -225.07901001 144.10124207 C-223.68465023 140.10823693 -222.40886562 137.52840087 -219 135 C-215.94082198 134.62611259 -213.24795136 134.49336939 -210.19238281 134.54589844 C-209.30422379 134.54531433 -208.41606476 134.54473022 -207.50099182 134.54412842 C-204.56797073 134.54691314 -201.63596836 134.57802349 -198.703125 134.609375 C-196.66860509 134.61683601 -194.634078 134.6225296 -192.59954834 134.62652588 C-187.24656305 134.64179319 -181.89401238 134.68108472 -176.54119873 134.7253418 C-171.07830688 134.76627068 -165.61534475 134.78453182 -160.15234375 134.8046875 C-149.43470495 134.84757769 -138.71738863 134.91584252 -128 135 C-128.00888245 134.10987717 -128.01776489 133.21975433 -128.0269165 132.30265808 C-128.10739139 123.87378742 -128.16813061 115.44504762 -128.20724869 107.01587963 C-128.22803651 102.6833513 -128.25619092 98.35114302 -128.30175781 94.01879883 C-128.34553275 89.83014639 -128.36920315 85.64179989 -128.37950897 81.45293617 C-128.38684404 79.86268619 -128.40116625 78.27245109 -128.42292023 76.68233299 C-128.59360262 63.67739528 -126.83615191 52.1652436 -118 42 C-108.50439336 32.66626412 -95.49352817 29.55777679 -83.1875 25.5 C-80.88308248 24.72597996 -78.57929753 23.9500743 -76.27612305 23.17236328 C-72.7312978 21.97576393 -69.18602537 20.78072288 -65.63819885 19.5930481 C-57.61569903 16.90402278 -49.63134492 14.1216053 -41.6640625 11.2734375 C-39.56099729 10.52526831 -37.45788944 9.77721893 -35.35473633 9.02929688 C-32.35766891 7.96295386 -29.36220893 6.8930019 -26.3711853 5.80981445 C-23.62295041 4.81605337 -20.86901447 3.83992528 -18.11328125 2.8671875 C-17.31858429 2.57435883 -16.52388733 2.28153015 -15.70510864 1.97982788 C-10.56534237 0.18844042 -5.43730515 -1.14900413 0 0 Z M-222 225 C-221.18020226 238.36915944 -221.18020226 238.36915944 -219.87890625 251.66796875 C-219.77408432 252.59434647 -219.66926239 253.52072418 -219.56126404 254.47517395 C-219.23210755 257.37972684 -218.89772003 260.28364126 -218.5625 263.1875 C-218.12378232 267.01403903 -217.68764768 270.84086249 -217.25390625 274.66796875 C-217.14625946 275.6168396 -217.03861267 276.56571045 -216.92770386 277.54333496 C-216.22358871 283.81907692 -215.59356773 290.09855086 -215.01171875 296.38671875 C-214.02460586 307.03845319 -212.83374359 317.66375328 -211.62759399 328.29260254 C-208.94097169 352.00297261 -206.4565581 375.73047066 -204.09277344 399.47509766 C-202.83386199 412.07810165 -201.50178122 424.66744209 -200.01142883 437.24542236 C-199.25409478 443.65700071 -198.58466172 450.07041918 -198 456.5 C-197.24394703 464.69931938 -196.37208098 472.88153025 -195.4375 481.0625 C-195.31052734 482.18785156 -195.18355469 483.31320312 -195.05273438 484.47265625 C-194.93091797 485.52453125 -194.80910156 486.57640625 -194.68359375 487.66015625 C-194.57587646 488.59480713 -194.46815918 489.52945801 -194.35717773 490.49243164 C-194.00548123 493.27077518 -194.00548123 493.27077518 -193 497 C-134.59 497 -76.18 497 -16 497 C-15.01 487.1 -14.02 477.2 -13 467 C-12.11044874 458.11737208 -11.21796812 449.23505891 -10.32006836 440.35327148 C-10.06232176 437.79932677 -9.80550468 435.24528809 -9.54956055 432.69116211 C-7.07719633 408.02827751 -7.07719633 408.02827751 -5.43579102 396.33569336 C-4.59644619 389.91106124 -4.066115 383.45339904 -3.5 377 C-2.70092055 367.89093448 -1.73663582 358.838509 -0.48632812 349.77734375 C0.36012315 343.20289894 0.92082925 336.60222744 1.5 330 C2.30151629 320.86315596 3.26906257 311.78276958 4.52246094 302.69384766 C5.31785958 296.54130093 5.83556629 290.3668251 6.375 284.1875 C7.56784656 270.81439381 9.05952441 257.49033156 10.72998047 244.16870117 C10.85671394 243.13666817 10.85671394 243.13666817 10.98600769 242.08378601 C11.21382566 240.2292331 11.44691546 238.37532989 11.68041992 236.52148438 C12.02765777 232.69523634 12 228.84197191 12 225 C-65.22 225 -142.44 225 -222 225 Z " fill="#000000" transform="translate(361,0)"/>
<path d="M0 0 C69.3 0 138.6 0 210 0 C220 28 220 28 220 30 C218.91017413 30.00238835 217.82034826 30.00477671 216.69749737 30.00723743 C190.20871212 30.06596993 163.7200183 30.14181382 137.23133373 30.23571491 C124.42172759 30.28072607 111.61214957 30.32012839 98.80249023 30.34643555 C87.64069119 30.36937261 76.47898078 30.40272233 65.31725198 30.44870156 C59.40439643 30.47269179 53.49162897 30.49138249 47.57872581 30.49761391 C42.01785726 30.50363859 36.45721429 30.52354313 30.89642906 30.55427551 C28.85136986 30.56309788 26.80628124 30.5667697 24.76120377 30.56500816 C21.97690626 30.56336655 19.19330567 30.57995897 16.40910339 30.60127258 C15.59296088 30.59642501 14.77681836 30.59157743 13.93594426 30.58658296 C9.74203347 30.61680086 9.74203347 30.61680086 5.99786854 32.30617046 C4.29017634 35.20488846 4.65071365 37.73999409 5 41 C6.51711779 43.03033262 7.39832028 43.88215562 9.90572917 44.37325418 C10.99354944 44.37203654 10.99354944 44.37203654 12.10334587 44.3707943 C13.36170276 44.38035387 13.36170276 44.38035387 14.64548099 44.39010656 C15.56715946 44.38184838 16.48883793 44.37359021 17.43844604 44.36508179 C18.90707806 44.36976028 18.90707806 44.36976028 20.40537941 44.3745333 C23.70123241 44.38150293 26.99665515 44.36711814 30.29248047 44.35302734 C32.6493132 44.35385773 35.0061458 44.35607261 37.36297607 44.35957336 C42.44582071 44.36453171 47.52855016 44.36040768 52.61138535 44.34955978 C59.96577561 44.33462165 67.32005001 44.33946263 74.67443921 44.35117622 C86.61320129 44.37007875 98.55194589 44.37928808 110.49072266 44.37890625 C111.56283189 44.37888009 111.56283189 44.37888009 112.65659989 44.3788534 C120.62995644 44.37840123 128.60330672 44.37507451 136.57666016 44.36798096 C137.2933021 44.36734857 138.00994404 44.36671619 138.74830241 44.36606465 C139.82215796 44.3651158 139.82215796 44.3651158 140.91770756 44.36414778 C142.36131676 44.36287803 143.80492595 44.36161261 145.24853516 44.36035156 C145.96179891 44.35972337 146.67506266 44.35909518 147.40994047 44.35844795 C159.30122216 44.34849568 171.19239964 44.35781526 183.08365929 44.38253558 C191.07315982 44.39826387 199.06223138 44.39023456 207.05171561 44.36582541 C212.01888523 44.35577573 216.98584967 44.36642253 221.9529953 44.38294029 C224.26008325 44.38640073 226.56720219 44.38125775 228.8742485 44.36697197 C232.01922817 44.34870009 235.16265168 44.36097432 238.30758667 44.38095093 C239.68341221 44.3618715 239.68341221 44.3618715 241.0870322 44.34240663 C245.53397864 44.40345674 247.43532862 44.57909496 251.10186958 47.31212807 C253 50 253 50 253.0625 53.625 C251.88175674 57.37559624 251.29288383 58.07210575 248 60 C245.67511898 60.37834883 245.67511898 60.37834883 243.05520725 60.38311005 C242.05407542 60.39216669 241.05294358 60.40122333 240.02147442 60.41055441 C238.92372517 60.40522648 237.82597592 60.39989856 236.69496155 60.39440918 C235.5271757 60.40050028 234.35938986 60.40659139 233.15621656 60.41286707 C229.91395486 60.42665118 226.67201399 60.42694374 223.42973769 60.4214921 C219.93339837 60.41882496 216.43712422 60.43334769 212.94081116 60.44558716 C206.09093255 60.46665644 199.24113855 60.47118117 192.39123137 60.46939927 C186.82452034 60.46809245 181.25783574 60.47189168 175.69112968 60.47932434 C174.08861063 60.4814235 172.48609158 60.4835211 170.88357252 60.48561716 C170.08599531 60.48666069 169.28841809 60.48770422 168.46667188 60.48877937 C153.37759417 60.50768761 138.28856506 60.50662968 123.19948041 60.49981004 C109.39053575 60.49423351 95.58177656 60.51506359 81.77287526 60.54817051 C67.59896293 60.58188922 53.4251395 60.59707816 39.25118631 60.59245348 C31.29153004 60.59020702 23.33204522 60.59547767 15.37242317 60.62034607 C8.59649517 60.64133572 1.82083262 60.6449746 -4.95510619 60.62604648 C-8.41306124 60.61687413 -11.87052103 60.61579037 -15.32843781 60.63640213 C-19.07540842 60.65447583 -22.82104889 60.64193163 -26.56797791 60.62145996 C-27.66349643 60.63397781 -28.75901496 60.64649566 -29.88773102 60.65939283 C-37.22378368 60.5731109 -37.22378368 60.5731109 -41.17934513 57.652565 C-43 55 -43 55 -43.5625 51.9375 C-42.83625558 48.14489027 -42.1675153 47.23283866 -39 45 C-34.57107206 44.30972085 -30.09235916 44.49351821 -25.62109375 44.51171875 C-24.24630859 44.49044922 -24.24630859 44.49044922 -22.84375 44.46875 C-21.59368164 44.47551758 -21.59368164 44.47551758 -20.31835938 44.48242188 C-17.01666419 43.79538 -16.03597514 42.69384846 -14 40 C-12.70790532 37.19291051 -11.7524586 34.30458952 -10.80078125 31.3671875 C-10.52026413 30.53414093 -10.23974701 29.70109436 -9.95072937 28.84280396 C-9.06011437 26.19046033 -8.18592716 23.5330474 -7.3125 20.875 C-6.42477864 18.21111557 -5.53378596 15.54834425 -4.64213562 12.88577271 C-4.08926814 11.23076988 -3.53938101 9.5747679 -2.99275208 7.91769409 C-1.10541188 2.21082375 -1.10541188 2.21082375 0 0 Z " fill="#FEF09F" transform="translate(151,150)"/>
<path d="M0 0 C7.59 0 15.18 0 23 0 C22.32723433 12.79766598 21.03185226 25.45916929 19.5625 38.1875 C19.12378232 42.01403904 18.68766945 45.84086496 18.25390625 49.66796875 C18.14716583 50.60841034 18.04042542 51.54885193 17.93045044 52.51779175 C17.09910971 59.92533144 16.37741483 67.34039693 15.68727112 74.76225281 C15.05605042 81.52080485 14.31311857 88.26083797 13.5 95 C12.5754142 102.8266188 11.71570557 110.65149998 11 118.5 C10.19347958 127.34438499 9.20445598 136.16143825 8.140625 144.97851562 C7.35130489 151.61481023 6.67784827 158.25664312 6.0546875 164.91015625 C5.09852778 175.11721002 4.0359811 185.31085806 2.94030762 195.50378418 C2.50421537 199.56131615 2.07101228 203.61915533 1.63757324 207.67697144 C1.41610867 209.75000412 1.19451091 211.82302258 0.97277832 213.89602661 C-0.02252975 223.20171424 -1.01120475 232.50809109 -1.99298096 241.81521606 C-2.16188233 243.41524673 -2.33110282 245.01524376 -2.50067139 246.61520386 C-2.73559498 248.83193009 -2.96948913 251.04876272 -3.203125 253.265625 C-3.33364258 254.50086914 -3.46416016 255.73611328 -3.59863281 257.00878906 C-4.10080998 262.00245837 -4.54561413 267.00175546 -5 272 C-12.59 272 -20.18 272 -28 272 C-27.32709822 260.74797237 -26.28196689 249.57948912 -25.0625 238.375 C-24.70145905 235.01970878 -24.34262663 231.66418383 -23.984375 228.30859375 C-23.89754959 227.49719437 -23.81072418 226.68579498 -23.7212677 225.84980774 C-22.94540132 218.56479601 -22.23802101 211.27414355 -21.59594727 203.97607422 C-21.3425316 201.17037884 -21.08554774 198.41136448 -20.51147461 195.65087891 C-19.9440809 192.71018158 -19.66766538 189.82485616 -19.421875 186.83984375 C-19.31576904 185.59589844 -19.20966309 184.35195313 -19.1003418 183.0703125 C-19.04389496 182.40161133 -18.98744812 181.73291016 -18.92929077 181.04394531 C-17.74820436 167.16763746 -16.29375484 153.333034 -14.6875 139.5 C-12.36142363 119.45408552 -10.22401522 99.39116365 -8.14331055 79.31835938 C-6.96804414 68.0113618 -5.74954797 56.71253791 -4.42578125 45.421875 C-3.23500436 35.25053513 -2.19925709 25.07692918 -1.3125 14.875 C-1.18195315 13.40361807 -1.05109293 11.93226391 -0.91992188 10.4609375 C-0.6091731 6.97429721 -0.30464382 3.48719952 0 0 Z " fill="#D74A40" transform="translate(350,225)"/>
<path d="M0 0 C1.00353516 -0.06864258 1.00353516 -0.06864258 2.02734375 -0.13867188 C4.015625 -0.18359375 4.015625 -0.18359375 7.75 0.4375 C8.45239304 1.4253395 9.15478607 2.413179 9.87846375 3.43095303 C11.45340658 5.4274665 12.29762447 6.31243484 14.77109718 6.99625885 C17.34016954 7.19616991 19.85235195 7.21116279 22.42895508 7.16334534 C23.40975194 7.16902761 24.3905488 7.17470988 25.40106678 7.18056434 C28.69119631 7.19246071 31.9795419 7.16160521 35.26953125 7.13110352 C37.62665958 7.13108806 39.98378926 7.13377865 42.34091187 7.13897705 C47.41841663 7.1446132 52.49541204 7.13156292 57.57284546 7.10424995 C64.91928417 7.06529891 72.26540848 7.06196423 79.61192334 7.06990241 C91.53854257 7.08222759 103.46501392 7.07149014 115.39160156 7.04272461 C116.46201429 7.04015369 116.46201429 7.04015369 117.55405152 7.03753083 C121.16991034 7.02877442 124.78576853 7.01977882 128.40162659 7.01071167 C135.63721307 6.99271451 142.87280376 6.97695076 150.10839844 6.96264648 C151.1775059 6.96052194 151.1775059 6.96052194 152.26821148 6.95835448 C164.15049069 6.93539241 176.03270418 6.9321025 187.91499996 6.94204658 C195.89620263 6.94761289 203.87685622 6.9269697 211.85797119 6.88770878 C216.81855078 6.86811179 221.77897439 6.86895719 226.73958206 6.87532043 C229.04346505 6.87398108 231.34736128 6.86400366 233.65116501 6.84484673 C236.79160876 6.8198697 239.93056394 6.82543889 243.07104492 6.83863831 C244.4448241 6.81648934 244.4448241 6.81648934 245.84635639 6.79389292 C250.29216094 6.84525833 252.1845248 7.01611153 255.85102844 9.74836636 C257.75 12.4375 257.75 12.4375 257.8125 16.0625 C256.63175674 19.81309624 256.04288383 20.50960575 252.75 22.4375 C250.42511898 22.81584883 250.42511898 22.81584883 247.80520725 22.82061005 C246.80407542 22.82966669 245.80294358 22.83872333 244.77147442 22.84805441 C243.67372517 22.84272648 242.57597592 22.83739856 241.44496155 22.83190918 C240.2771757 22.83800028 239.10938986 22.84409139 237.90621656 22.85036707 C234.66395486 22.86415118 231.42201399 22.86444374 228.17973769 22.8589921 C224.68339837 22.85632496 221.18712422 22.87084769 217.69081116 22.88308716 C210.84093255 22.90415644 203.99113855 22.90868117 197.14123137 22.90689927 C191.57452034 22.90559245 186.00783574 22.90939168 180.44112968 22.91682434 C178.83861063 22.9189235 177.23609158 22.9210211 175.63357252 22.92311716 C174.83599531 22.92416069 174.03841809 22.92520422 173.21667188 22.92627937 C158.12759417 22.94518761 143.03856506 22.94412968 127.94948041 22.93731004 C114.14053575 22.93173351 100.33177656 22.95256359 86.52287526 22.98567051 C72.34896293 23.01938922 58.1751395 23.03457816 44.00118631 23.02995348 C36.04153004 23.02770702 28.08204522 23.03297767 20.12242317 23.05784607 C13.34649517 23.07883572 6.57083262 23.0824746 -0.20510619 23.06354648 C-3.66306124 23.05437413 -7.12052103 23.05329037 -10.57843781 23.07390213 C-14.32540842 23.09197583 -18.07104889 23.07943163 -21.81797791 23.05895996 C-22.91349643 23.07147781 -24.00901496 23.08399566 -25.13773102 23.09689283 C-32.47378368 23.0106109 -32.47378368 23.0106109 -36.42934513 20.090065 C-38.25 17.4375 -38.25 17.4375 -38.8125 14.375 C-38.08673327 10.58488488 -37.41559886 9.66759353 -34.25 7.4375 C-29.849207 6.77861736 -25.39779369 6.97938359 -20.95898438 7.03710938 C-15.08894187 7.00769892 -15.08894187 7.00769892 -10.15234375 3.96484375 C-9.52457031 3.13082031 -8.89679688 2.29679688 -8.25 1.4375 C-6.26699633 -0.54550367 -2.69414643 0.07356897 0 0 Z " fill="#FEF8D5" transform="translate(146.25,187.5625)"/>
<path d="M0 0 C0.8515625 1.63671875 0.8515625 1.63671875 1.625 3.6875 C2.01558594 4.68330078 2.01558594 4.68330078 2.4140625 5.69921875 C3.13107437 8.51468536 3.03712375 11.10459532 3 14 C2.41151276 14.19885803 1.82302551 14.39771606 1.21670532 14.6026001 C-33.38833729 26.27630095 -33.38833729 26.27630095 -67.91217041 38.18713379 C-69.33738052 38.68446662 -70.76344084 39.17937013 -72.19036865 39.67175293 C-74.14117548 40.34575544 -76.08854819 41.02882524 -78.03515625 41.71484375 C-79.63435913 42.27353149 -79.63435913 42.27353149 -81.26586914 42.84350586 C-84.06142965 44.02598377 -85.84724879 44.86182859 -88 47 C-88.62117994 50.12349407 -88.62117994 50.12349407 -88.54589844 53.76635742 C-88.55623611 54.44954544 -88.56657379 55.13273346 -88.57722473 55.83662415 C-88.60670549 58.09314476 -88.6081529 60.34877051 -88.609375 62.60546875 C-88.62435323 64.17061581 -88.64107963 65.73574703 -88.65948486 67.30085754 C-88.70321138 71.41902381 -88.72316898 75.53697687 -88.73822021 79.65533447 C-88.75777239 83.85824214 -88.79974442 88.0609189 -88.83984375 92.26367188 C-88.9152034 100.50908253 -88.96338763 108.75432615 -89 117 C-93.95 117 -98.9 117 -104 117 C-104.09051413 107.6028925 -104.16383848 98.20607644 -104.20724869 88.80863094 C-104.22808767 84.44460234 -104.2563373 80.0808885 -104.30175781 75.71704102 C-104.34534805 71.50247178 -104.36916485 67.28820454 -104.37950897 63.0734272 C-104.38687679 61.46870739 -104.40126452 59.86400336 -104.42292023 58.25941277 C-104.45213086 56.00453372 -104.45594886 53.75088863 -104.45410156 51.49584961 C-104.46298401 50.21455673 -104.47186646 48.93326385 -104.48101807 47.61314392 C-103.60357992 41.02230979 -99.90768929 35.93370004 -94.83056641 31.74609375 C-88.06059819 27.56989807 -80.20011548 25.47336973 -72.6875 23 C-70.79221725 22.36054394 -68.89761395 21.71907086 -67.00366211 21.07568359 C-63.04173807 19.73133157 -59.07697972 18.39583267 -55.11035156 17.06542969 C-48.97115838 14.99902631 -42.85433702 12.87146521 -36.7421875 10.7265625 C-35.26299583 10.20760406 -35.26299583 10.20760406 -33.75392151 9.67816162 C-31.80766391 8.99486073 -29.86150033 8.31129197 -27.91543579 7.62744141 C-23.37339532 6.03149612 -18.83016249 4.43904167 -14.28515625 2.8515625 C-13.50167816 2.57623688 -12.71820007 2.30091125 -11.91098022 2.01724243 C-2.51922694 -1.25961347 -2.51922694 -1.25961347 0 0 Z " fill="#89DFF8" transform="translate(353,18)"/>
<path d="M0 0 C7.92 0 15.84 0 24 0 C25.42709379 3.94999173 26.85224407 7.90057347 28.27246094 11.85302734 C28.75634643 13.19783932 29.24136744 14.54224328 29.72753906 15.88623047 C30.42550666 17.81632453 31.11939898 19.74784137 31.8125 21.6796875 C32.23144531 22.84226074 32.65039062 24.00483398 33.08203125 25.20263672 C34 28 34 28 34 30 C26.08 30 18.16 30 10 30 C6.7 20.1 3.4 10.2 0 0 Z " fill="#FCE140" transform="translate(337,150)"/>
<path d="M0 0 C0.8515625 1.63671875 0.8515625 1.63671875 1.625 3.6875 C2.01558594 4.68330078 2.01558594 4.68330078 2.4140625 5.69921875 C3 8 3 8 3 14 C-7.395 17.465 -7.395 17.465 -18 21 C-19.00911458 17.6796875 -20.01822917 14.359375 -21.02734375 11.0390625 C-21.87576274 8.12073182 -21.87576274 8.12073182 -23 6 C-19.54574482 4.8003958 -16.08603135 3.61739705 -12.625 2.4375 C-11.64015625 2.09525391 -10.6553125 1.75300781 -9.640625 1.40039062 C-8.22910156 0.92182617 -8.22910156 0.92182617 -6.7890625 0.43359375 C-5.91975098 0.13509521 -5.05043945 -0.16340332 -4.15478516 -0.47094727 C-2 -1 -2 -1 0 0 Z " fill="#52D2F8" transform="translate(353,18)"/>
<path d="M0 0 C3.06398451 -0.13530844 6.12197126 -0.2342407 9.1875 -0.3125 C10.05181641 -0.35439453 10.91613281 -0.39628906 11.80664062 -0.43945312 C16.33877658 -0.52627565 18.35732844 -0.47392991 22.109375 2.29296875 C24 5 24 5 24.0625 8.625 C23 12 23 12 21.54296875 13.69921875 C17.55808063 15.73757166 13.65189501 15.31429018 9.25 15.1875 C8.36183594 15.17396484 7.47367187 15.16042969 6.55859375 15.14648438 C4.372135 15.11121891 2.18598928 15.05741412 0 15 C0 10.05 0 5.1 0 0 Z " fill="#FCEF9F" transform="translate(380,195)"/>
</svg>
