<?xml version="1.0" encoding="UTF-8"?>
<svg version="1.1" xmlns="http://www.w3.org/2000/svg" width="512" height="512">
<path d="M0 0 C8.23244982 5.41253562 16.52310074 9.93231577 25.67919922 13.56469727 C26.30697266 13.81396973 26.93474609 14.06324219 27.58154297 14.32006836 C58.19901115 26.13580127 87.57028325 22.41960762 117.24951172 10.08032227 C126.08461329 5.9501784 134.09619631 0.52616195 142.15893555 -4.92944336 C161.02027525 -17.58344027 161.02027525 -17.58344027 171.42919922 -16.99780273 C172.19087402 -16.97411621 172.95254883 -16.95042969 173.73730469 -16.92602539 C199.00918455 -15.81039629 222.89045385 -5.53168926 240.18847656 13.19897461 C272.65926464 50.49781215 280.79520215 103.8186947 281.67919922 151.56469727 C281.71916016 152.77512695 281.75912109 153.98555664 281.80029297 155.23266602 C282.26184125 177.08833477 278.01971307 201.2972091 263.05419922 218.12719727 C261.61122851 219.62135444 260.15495703 221.10291444 258.67919922 222.56469727 C257.81294922 223.47219727 256.94669922 224.37969727 256.05419922 225.31469727 C255.27044922 226.05719727 254.48669922 226.79969727 253.67919922 227.56469727 C252.96957031 228.24918945 252.96957031 228.24918945 252.24560547 228.94750977 C231.63851551 247.82498786 205.14627484 249.0190901 178.83422852 248.96875 C176.13218085 248.97446024 173.43015786 248.98132791 170.7281189 248.98954773 C164.18085007 249.00664702 157.63367758 249.00759426 151.08639225 249.00233483 C145.75842434 248.99827497 140.43048466 248.9997581 135.10251808 249.00508308 C134.34097238 249.00583151 133.57942668 249.00657993 132.79480383 249.00735103 C131.247161 249.00888269 129.69951817 249.01042103 128.15187535 249.011966 C113.67420426 249.02565914 99.19658736 249.020276 84.71891753 249.00878078 C71.51116405 248.99885342 58.30355076 249.01178615 45.0958189 249.03571498 C31.4921533 249.060173 17.8885528 249.06969734 4.28486568 249.06306225 C-3.33575372 249.05958465 -10.95626544 249.06170476 -18.57686806 249.07931328 C-25.06447634 249.09411954 -31.55190111 249.09456193 -38.03950612 249.07724237 C-41.34118922 249.06879805 -44.64228036 249.06863375 -47.94398689 249.08189392 C-76.92838168 249.18934121 -101.88530341 244.6174179 -123.32080078 223.56469727 C-124.09423828 222.81575195 -124.86767578 222.06680664 -125.66455078 221.29516602 C-139.87660198 206.62073644 -146.42259888 186.16021182 -146.52392578 166.01391602 C-146.53094009 165.09107819 -146.53795441 164.16824036 -146.54518127 163.21743774 C-146.5627085 160.22897479 -146.56904046 157.24070985 -146.57080078 154.25219727 C-146.57147552 153.2333847 -146.57215027 152.21457214 -146.57284546 151.16488647 C-146.55658343 135.73890683 -146.00779839 120.78758209 -143.32080078 105.56469727 C-143.13855957 104.48752441 -142.95631836 103.41035156 -142.76855469 102.30053711 C-137.35340301 70.69179459 -127.95632268 40.6421027 -107.32080078 15.56469727 C-106.78712891 14.87762695 -106.25345703 14.19055664 -105.70361328 13.48266602 C-91.91347127 -3.7744891 -68.93237306 -13.71349059 -47.41137695 -16.21923828 C-27.53983089 -18.27299494 -16.22132607 -10.77252972 0 0 Z M-51.07080078 16.18969727 C-52.10841553 16.45810425 -52.10841553 16.45810425 -53.16699219 16.73193359 C-71.59013093 21.77479459 -84.02052571 34.05788964 -93.44580078 50.31469727 C-110.29267394 80.4715759 -115.44318799 115.8976872 -115.67089844 150.03271484 C-115.68741923 151.83688288 -115.71465804 153.6409865 -115.75292969 155.44482422 C-116.09672591 171.83194601 -114.45093221 186.60758962 -103.32080078 199.56469727 C-102.77552734 200.20793945 -102.23025391 200.85118164 -101.66845703 201.51391602 C-89.13130585 215.11303765 -71.21675509 217.95107493 -53.59406853 218.67702198 C-46.35987448 218.8603556 -39.12512699 218.83733444 -31.88916016 218.82348633 C-29.48224279 218.82620248 -27.07532625 218.82976689 -24.66841125 218.83410645 C-18.85349187 218.84222253 -13.03863076 218.84111354 -7.2237097 218.83528116 C-2.49078489 218.8307337 2.2421255 218.83016497 6.97505188 218.8323288 C7.99186947 218.8327885 7.99186947 218.8327885 9.02922884 218.83325748 C10.40703706 218.83389704 11.78484529 218.83454547 13.16265351 218.83520266 C26.03224728 218.84088319 38.90181239 218.83438404 51.77140146 218.82360193 C62.77437312 218.8146685 73.77730254 218.81622119 84.78027344 218.82543945 C97.60903348 218.83618258 110.43776851 218.84033408 123.26653242 218.83421493 C124.6388038 218.83357794 126.01107517 218.83294919 127.38334656 218.8323288 C128.0582392 218.83202025 128.73313184 218.83171169 129.42847577 218.83139379 C134.14660336 218.82967893 138.86471487 218.83255561 143.58283997 218.8372879 C149.95238421 218.84310609 156.32184947 218.83898336 162.69138527 218.82749939 C165.01559633 218.82487657 167.33981416 218.82557667 169.66402245 218.83002472 C205.52124993 219.03398814 205.52124993 219.03398814 235.99169922 201.75219727 C250.18410655 186.60202011 251.05570349 168.03742081 250.42919922 148.37719727 C250.40619751 147.62625793 250.3831958 146.8753186 250.35949707 146.10162354 C249.0637912 105.747346 242.24070353 58.33785015 211.59326172 29.04125977 C200.89274888 19.94725824 186.1389876 13.91110473 171.91064453 14.12719727 C167.03675048 15.08277912 163.08280234 18.30163675 159.05419922 21.06469727 C157.09203326 22.3597528 155.12849358 23.65272941 153.16357422 24.94360352 C152.21933594 25.57024902 151.27509766 26.19689453 150.30224609 26.8425293 C118.40732915 47.78321658 79.4373215 57.98667308 41.54638672 50.65844727 C15.56832406 45.06350077 -6.15037395 34.03286676 -27.97509766 19.12353516 C-36.06168869 13.74958805 -41.76507556 13.78184952 -51.07080078 16.18969727 Z " fill="#000000" transform="translate(188.32080078125,263.435302734375)"/>
<path d="M0 0 C8.63343407 7.23490584 16.24072333 14.5746549 23.0625 23.56640625 C23.66707031 24.3553125 24.27164063 25.14421875 24.89453125 25.95703125 C36.3392112 41.5610644 42.65062987 58.57058878 46.0625 77.56640625 C46.248125 78.58992188 46.43375 79.6134375 46.625 80.66796875 C50.40049771 114.31035015 42.71127407 146.56952935 22.0625 173.56640625 C19.19504469 177.03807536 16.18074703 180.31951867 13.0625 183.56640625 C12.21945312 184.47261719 11.37640625 185.37882813 10.5078125 186.3125 C3.90871233 193.20808149 -2.93415447 198.44506846 -10.9375 203.56640625 C-11.76894531 204.12070313 -12.60039062 204.675 -13.45703125 205.24609375 C-31.91503947 217.06166783 -54.52526058 221.98717822 -76.1875 221.87890625 C-77.36481689 221.8739917 -78.54213379 221.86907715 -79.75512695 221.86401367 C-89.12507562 221.73875557 -97.85982578 220.85893497 -106.9375 218.56640625 C-107.9270166 218.31697266 -107.9270166 218.31697266 -108.93652344 218.0625 C-126.97741793 213.36299058 -144.05282057 204.43718855 -157.66796875 191.6796875 C-159.55892527 189.91891731 -161.48255063 188.30072793 -163.5 186.69140625 C-168.31461607 182.59048621 -172.08996359 177.55446238 -175.9375 172.56640625 C-176.535625 171.79554688 -177.13375 171.0246875 -177.75 170.23046875 C-193.33148842 149.09446826 -200.34821723 124.73495197 -200.3125 98.62890625 C-200.31195618 97.95375977 -200.31141235 97.27861328 -200.31085205 96.58300781 C-200.24534074 78.79747375 -197.45674007 62.73844016 -189.9375 46.56640625 C-189.48632812 45.54546875 -189.03515625 44.52453125 -188.5703125 43.47265625 C-178.94738595 22.81326592 -161.94776161 4.84029888 -142.9375 -7.43359375 C-142.05835938 -8.00851563 -141.17921875 -8.5834375 -140.2734375 -9.17578125 C-97.93816684 -35.41665149 -38.54918249 -31.3581053 0 0 Z M-147.30615234 37.16064453 C-165.91601732 58.62546935 -170.15315622 82.78931513 -168.9375 110.56640625 C-168.09442718 120.16083902 -165.12010632 128.93978073 -160.9375 137.56640625 C-160.48375 138.50226563 -160.03 139.438125 -159.5625 140.40234375 C-148.40849318 162.04354177 -128.53277351 179.13636656 -105.42578125 186.71875 C-82.34964906 193.60970977 -56.61265 192.52808664 -34.9375 181.56640625 C-25.99445914 176.69545356 -18.24870084 170.65285047 -10.9375 163.56640625 C-10.33808594 163.04046875 -9.73867188 162.51453125 -9.12109375 161.97265625 C5.98770727 148.23100892 15.1713182 126.20233272 16.18652344 106.11206055 C16.9774087 79.99576001 11.16927721 57.83578092 -5.9375 37.56640625 C-6.700625 36.55578125 -7.46375 35.54515625 -8.25 34.50390625 C-22.92967582 18.4586792 -44.00471275 6.71375368 -65.91064453 5.38623047 C-98.20541827 4.05787401 -125.18659215 12.79784505 -147.30615234 37.16064453 Z " fill="#000000" transform="translate(328.9375,25.43359375)"/>
</svg>
